<?xml version="1.0" encoding="utf-8"?>
<svg version="1.0" xmlns="http://www.w3.org/2000/svg" xmlns:xlink="http://www.w3.org/1999/xlink" x="0px" y="0px" viewBox="0 0 1000 1000">
<g>
	<path d="M170.112,557.02c-16.625-2.24-19.898,30.929,9.005,19.132c12.469,19.999,37.406-11.269,13.854-19.039
		C208.21,542.328,163.129,515.041,170.112,557.02z"/>
	<path d="M957.864,201.855c3.797-13.407,9.255-27.501,9.304-35.244c0.072-11.403-13.946-22.06-24.094-27.262
		c-5.164-2.647-11.193,2.227-9.228,7.632c4.837,13.299-2.131,22.487-1.276,33.782c-17.815-7.927-28.587-18.347-40.735-26.832
		c-12.332-8.614-26.024-15.318-39.12-22.858c62.053-9.239,120.891-39.628,126.411-91.105c0.973-9.076,22.23-15.526,20.806-29.169
		C999.525,6.906,992.322-0.056,987.22,0c-35.79,0.398-33.683,34.813-33.929,51.845c-0.027,1.858-1.581,3.132-3.452,2.919
		c-4.992-0.568-10.867-1.986-10.283-14.32c0.278-5.871-7.044-8.657-10.851-4.137c-23.98,28.472-26.081,74.555-74.166,78.372
		c38.149-37.014-12.371-62.561-53.547-51.623C787.484,66.644,759.429,0,846.763,48.916c7.11,3.982,14.329-6.022,9.234-12.331
		c-2.876-3.561-5.618-6.607-6.987-10.929c39.82,11.363,62.742,9.173,73.877-6.275c3.386-4.698-0.799-11.169-6.524-10.017
		c-36.818,7.409-101.838-2.965-120.411-1.053c-21.367,2.2-36.512,34.775-27.4,52.015c5.96,11.276,18.321,21.076,30.372,17.006
		c59.734-20.172,52.201,31.6,18.907,36.202c-31.885,4.407-63.834,8.728-99.991,13.329C687.396,127.297,832.487-19.683,551.808,12.21
		c-7.986,0.907-16.052,1.28-24.085,0.996c-4.614-0.163-9.578-0.25-12.645-0.042c-8.272,0.559-5.786,13.924,1.695,17.453
		c19.442,9.171,44.399,2.842,55.107,7.835c-33.25,73.813,74.579,43.354,41.446,0.424c-13.021-16.871,43.676-6.541,64.363-2.718
		c19.121,3.534,47.971,30.315,8.739,43.616c-19.986-21.913-27.005-29.61-34.136-31.285c-6.89-1.619-12.632,5.383-9.716,11.751
		c4.585,10.011,10.138,22.078,12.427,29.471c5.715,18.453-6.234,23.579,31.939,37.593c0,0-166.035,43.423-183.555,167.699
		c-1.385-1.922-2.624-83.615-2.624-83.615l0.001-18.842c20.72,1.732,22.741-27.53,18.122-30.305
		c-4.172-2.507-10.807,14.21-15.499,12.302c-5.551-2.256-5.853-12.823-9.119-19.602c-1.296-2.69-8.749-4.506-9.671-1.67
		c-1.979,6.088-0.779,19.222-4.881,18.986c-5.457-0.314-8.626-10.785-17.458-11.041c-8.248-0.239,2.078,36.907,27.414,31.525
		l0.001,19.364c1.105,19.3,2.209,38.599,3.314,57.899c0,0,1.222,21.41-2.149,25.867c-2.084-3.175,12.549-37.519-79.862-121.157
		c-29.827-26.996-48.715-90.684-48.715-90.684c-1.744-4.579-0.692-9.683,2.588-13.352c11.205-12.535,17.923-30.831,33.376-31.117
		c6.066-0.113,10.356,4.964,9.52,10.894l-0.455,3.224c-0.746,5.291,3.374,10.193,8.787,10.126
		c37.702-0.471,67.134-64.868,11.595-63.422c-42.077,1.096-62.563,32.209-78.666,68.322c-20.911-44.761-49.292-62.73-109.405-57.355
		c-10.523,0.941-24.227,5.257-35.652,10.778c-13.113,6.336-13.414,24.794-0.325,31.178c59.355,28.952,76.923-2.288,62.808-6.153
		c-11.812-3.234-14.458-13.825-6.27-14.853c36.305-4.559,56.779,9.57,79.294,42.965c19.416,28.797,29.46,79.373,66.173,116.963
		c-6.234-0.683-92.784-35.051-162.093-30.755c-67.848,4.205-64.127-0.438-97.671-12.986c2.999-7.203,6.218-4.667,9.748-12.217
		c3.348-7.161-1.315-15.534-9.254-16.445c-17.623-2.022-49.281,0.638-64.396-0.384c-30.306-2.05-55.554-14.34-52.213-48.696
		c3.29-33.831,22.946-39.128,31.697-43.198c39.636-18.436,44.321,44.49,9.702,9.627c-4.202-4.232-11.434-3.916-14.722,1.042
		c-7.305,11.016,7.817,20.475,12.584,22.623c41.794,18.835,83.668-29.646,49.32-53.34
		c-54.207-37.393-239.851,103.399,55.587,166.789c1.033,4.181-51.953,31.781-84.997,63.766c-17.35-14.045-17.35-22.247-11.814-42.26
		c-21.785-2.578-28.571,4.173-32.298,28.002c-1.418,9.068-8.488,19.936-16.281,24.864c-24.466,15.47-29.771,32.723-14.104,56.551
		c17.385-27.968,17.472-28.02,41.85-22.864c-125.494,216.41,28.387,320.881,71.143,339.889
		c-26.925,74.723,68.321,56.27,47.54,13.554c16.874,2.989,54.364,9.351,63.04,10.674c147.368,22.474,160.809,52.454,128.738,105.886
		c-12.779,21.291-5.353,77.585,17.821,84.86c38.735,12.16,24.179-28.145,21.835-33.364c-2.141-4.766-7.629-7.133-12.621-5.423
		c-2.189,0.75-14.119,7.889-16.472-3.395c-1.49-7.148,9.104-60.088,21.055-63.041c33.192-8.202,57.091,9.165,62.812,30.128
		c1.971,7.222,5.39,19.904,1.35,24.207c-20.521,8.97-44.193-11.786-54.015-17.476c-2.335,2.389,10.635,64.635,38.001,52.825
		c13.257-5.721,21.971-18.83,33.902,1.272c-24.925,14.056-21.357,29.931,8.042,45.949c-15.281,22.511-125.767,94.615-194.973,87.246
		c-0.667-0.071-1.764-0.104-3.076-0.139c-5.996-0.16-11.821-2.855-15.209-7.738c-15.837-22.824-73.142-22.629-55.205,3.286
		c-125.011-23.359-71.188-173.857-11.59-219.306c1.45-1.106,0.025-3.311-1.61-2.494c-11.052,5.528-26.9,14.398-38.231,19.822
		c1.972-6.222,2.619-12.907,3.29-18.538c0.497-4.176-4.036-7.144-7.731-5.048c-28.93,16.411-58.242,75.103-67.829,102.784
		c-2.349,6.783-61.17,12.786-30.426-18.866c35.847-36.907,43.489-60.754,42.006-72.089c-1.483-11.335-3.431-13.129-9.449-4.629
		c-10.044,18.112-23.898,37.932-43.294,50.917c-6.539-26.272,4.621-47.552,28.56-57.72c26.06-11.068,34.58-32.662,25.299-57.476
		c-0.169-0.453-0.474-0.857-0.879-1.24c-2.694-2.551-7.105-2.104-9.608,0.63c-6.896,7.534-18.385,20.906-21.898,24.223
		c5.359-41.297,5.888-90.216-58.017-97.871c-10.635-1.274-18.382,15.598-9.576,21.618c22.567,15.426,53.739,68.052,7.165,117.996
		C-8.611,760.832,1.591,796.539,4.92,831.614c5.87,61.838,70.93,44.86,75.29,40.685c40.72-38.991,56.652,77.88,85.053,76.513
		C-32.331,890.89,0.813,997.836,17.933,999.31c44.608,3.84,61.306-9.161,65.555-18.726c0.76-1.71-0.624-3.617-2.516-3.607
		c-11.718,0.061-17.402-0.183-23.786-0.972c-20.938-2.588,4.779-37.445,20.364-27.962c145.982,88.82,382.805-13.584,410.513-44.339
		c-8.887,12.453-17.485,33.6-30.955,39.441c-55.633,24.12,15.716,79.822,27.492,13.527c26.323,56.727,85.203,22.554,36.43-7.157
		c-25.822-15.73-30.31-19.044-8.711-44.602c137.491,140.267,368.141,49.921,411.282,39.799c25.12-0.44,15.794,20.518,5.59,28.699
		c-1.637,1.312-1.048,3.896,0.995,4.412c4.735,1.196,8.667,2.102,11.975,2.873c47.94,11.174,68.721-54.604,2.6-53.364
		c-28.959,0.543-157.795,40.959-180.654,25.581c57.153-9.263,107.437-34.377,132.045-90.922
		c23.832,21.082,39.871,25.083,57.877,15.274c25.835-14.075,35.526-46.318,36.909-76.237c1.414-30.597-13.56-133.497-24.461-162.911
		c-10.296-27.783,13.721-76.496,23.797-98.694c2.08-4.581-3.628-8.689-7.431-5.354c-8.711,7.639-31.443,34.287-48.322,68.601
		c-2.963-4.788-6.876-11.113-13.145-21.246c-25.09,48.033,27.229,75.249,23.827,110.341c-27.663-44.357-37.998,20.497-26.611,29.592
		c69.202,55.27,46.745,138.606-0.213,122.339c51.114-23.374,0.213-122.339-63.826-118.486c-1.707,0.103-2.248,2.139-0.758,2.967
		c36.337,20.196,93.31,193.659-108.391,207.99c28.298-21.446,44.979-48.781,49.416-59.959c1.211-3.051-4.996-12.231-21.392-3.732
		c-24.145,12.515-8.974,30.544-72.944,36.654c-16.778,1.603-19.811,15.846-10.216,30.365c2.917,4.414,9.782,14.722,12.535,19.568
		c-50.332,21.349-176.624-47.188-191.931-92.883c41.788-12.198,4.234-38.97,12.694-46.029c9.784-8.163,30.133,3.967,42.067-0.045
		c23.335-7.845,32.35-24.072,29.885-63.224c-23.195,11.14-32.988,39.69-66.903,32.133c-2.954-15.071,14.815-100.719,99.288-62.774
		c21.48,9.649,25.947,36.006,15.297,34.857c-37.029-3.996-21.963,53.414,12.59,29.205c16.867-11.818,16.865-52.588,2.805-72.107
		c-11.887-16.502-16.823-29.196-14.788-40.873l0.476-2.397c2.552-9.822,10.178-19.042,23.023-29.357
		c0,0,72.211-50.104,184.428-63.09c-33.942,87.482,92.822,65.612,43.196-9.302c-2.158-3.258-5.64-8.48-2.485-10.243
		c164.329-91.858,91.625-283.411,70.814-335.851c1.472-1.375,11.038,3.851,20.116,8.911c6.402,3.569,13.96-1.94,12.633-9.075
		C992.373,207.379,975.133,203.131,957.864,201.855z M616.825,376.293c-26.993,23.468-11.785-27.963-31.438-23.624
		c-19.653,4.34-18.414,43.333-3.868,54.268c-1.947,0.705-2.735,1.399-9.369-2.52c-5.638-3.331-21.745,2.074-9.277,18.135
		c-18.01,0-53.303-36.207-53.303-36.207c-2.711-1.236-2.957-4.936-0.496-6.605c38.952-26.41,21.554-38.693,6.695-58.084
		c22.324,2.315,41.08,14.783,59.411-6.862c13.445-15.875,18.901-29.138,8.467-44.994c-3.654-5.554-11.759-5.816-15.604-0.389
		c-11.627,16.408-34.58,43.305-53.046,25.085c42.336-120.721,152.475-150.281,222.148-118.042
		c13.167,6.092,22.869,12.971,7.63,28.276c-4.803,4.824-6.93,16.602-4.388,22.842c1.913,4.694,13.303,8.007,20.359,7.814
		c24.573-0.671,49.911-19.176,75.031-2.534c3.057,2.025,6.956-1.083,5.627-4.472c-4.904-12.506-10.793-23.249-17.576-33.408
		c-4.591-6.876-11.408-14.533-27.513-15.046c-37.973-1.209-62.343-27.167-103.905-32.806c0.411-0.195,88.669-5.421,128.876-1.822
		c40.834,3.655,71.711,31.713,98.33,55.815c-14.822,10.13-35.348,17.64-38.791,28.705c-2.557,8.216-0.241,12.73,6.795,25.672
		c2.852,5.246,10.16,6.339,14.259,1.97c14.156-15.088,28.116-43.38,35.747-31.914c77.008,115.697,31.864,221.61-7.692,220.751
		c-8.565-14.825-20.072-24.963-39.347-15.181c-20.211,10.257-9.189,25.896-8.26,40.46c0.531,8.32-2.605,21.249-6.149,24.419
		c-24.101,21.557-71.823,38.981-101.069-8.442c18.809-7.166,35.718-12.471,51.398-20.215c5.306-2.62,10.858-10.84,10.76-17.466
		c-1.083-72.951,33.081-79.598,60.986-59.884c5.476,3.869,15.4,8.492,22.551,12.31c2.234,1.193,5.011,0.49,6.359-1.634l0.072-0.114
		c2.368-3.734,1.588-8.661-1.901-11.408c-11.124-8.76-25.194-17.595-35.765-25.146c-27.785-19.849-60.523,25.067-70.914,24.042
		c-7.227-0.713-2.283-15.762,1.397-24.861c1.22-3.017-1.7-6.039-4.825-5.017c-16.328,5.34-51.124,24.162-28.482,62.767
		c15.284,26.059-13.125,49.126-20.044,49.126c-57.291-112.181,46.554-136.618,79.831-143.356c3.941-0.798,5.128-5.773,1.97-8.231
		c-11.296-8.792-25.722-20.892-24.479-23.035c23.898-1.367,35.532,11.44,47.065,22.27c12.661,11.89,24.926,14.95,36.558,4.414
		c8.728-7.906,19.976-25.751,24.737-36.311c1.396-3.096-1.961-6.221-5.027-4.696c-10.904,5.422-21.409,11.88-29.068,16.06
		c-3.81,2.079-8.334,2.454-12.444,1.036c-22.863-7.889-39.706-21.098-57.415-19.446c-171.347,15.988-110.043,353.273,72.7,227.47
		c19.419-13.368,59.38-51.103,61.435-49.503c-5.195,129.173-343.823,151.321-371.289,148.993
		c25.217-25.647-16.279-63.903-46.411-32.122c-11.109,11.716-24.442-17.714-32.646-32.544c-1.54-2.784-5.827-1.98-6.211,1.168
		c-15.449,126.607,178.254,63.836,189.866,68.966c-68.229,25.798-77.756,54.164-70.265,97.826
		c-87.498-45.712-118.769,71.838-121.871,74.663c0,0-6.653-44.384-4.548-70.309c0.325-4.003,1.616-7.876,3.832-11.245
		c64.727-98.378-90.179-76.797-24.024,1.394c2.404,2.842,3.999,6.311,4.45,9.986c4.24,34.535,0.372,70.258,0.372,70.258
		c-12.209-4.101-11.17-62.023-62.812-71.678c-17.273-3.229-15.303,1.946-23.169-11.874c-6.708-11.785-26.236-37.163-45.545-49.721
		c135.943-3.588,129.709-96.88,125.787-99.455c-11.224-7.37-46.694,34.32-69.498,22.728c-22.453-11.413-29.698,7.606-31.567,12.568
		c-3.329,8.836,0.608,19.784,17.621,34.771c1.99,15.718-340.205,48.866-364.747-156.429
		c83.767,159.675,206.846,8.012,171.853-40.799c-5.927-8.268,2.405-7.054,3.012-23.905c0.868-24.098-7.84-47.99-15.743-70.686
		c-16.124-46.306,5.136-51.276,12.715-70.765c2.467-6.342-3.866-12.829-10.354-10.553c-19.513,6.846-28.516,23.255-31.572,37.548
		c-3.782,17.689,7.145,38.464,12.232,60.523l-11.955-4.697c-5.519-2.168-11.832-0.768-15.914,3.491
		c-14.618,15.251-11.952,19.804,8.314,36.682c6.146,5.118,10.862,11.919,20.123,22.31l-19.537,0.001
		c-4.697,0-8.878,3.043-10.217,7.485c-7.247,24.03,7.153,39.811,25.384,52.22c17.819,12.128,13.014,21.868,0.593,32.466
		C136,524,107.702,528.483,76.251,494.315l23.55-23.193c7.436-6.789,10.101-17.349,6.55-26.711
		c-19.74-52.034-21.807-100.093-26.08-100.967c-4.685-0.958-10.19,8.204-13.936,46.653c-0.265,2.717-4.213,2.842-6.832,2.439
		c-19.568-3.016-8.448,24.078-4.827,28.906c9.029,12.038,22.674,19.919,34.216,29.658c5.997,5.06,3.135,11.27-1.235,17.557
		c-1.055,1.517-2.294,2.909-3.69,4.129l-16.027,14.01c-24.937-19.308-69.617-83.381-1.606-202.176
		c30.18,4.487,32.983,23.321,46.073,37.628c18.916-16.226-10.684-62.503-6.801-67.741
		c104.685-141.219,343.148-63.818,374.319,38.701c0,0-27.935,22.968-45.59-14.618c-1.438-3.061-5.868-2.833-7.169,0.287
		c-10.451,25.049,20.477,52.059,42.888,54.826c-15.586,23.579-1.039,34.856,12.525,43.516c11.003,7.025,16.321,10.477,5.194,18.258
		c-8.287,5.795-24.299,17.165-38.752,20.925c0.456-4.196,0.762-9.136,0.867-13.771c0.146-6.482-7.03-10.523-12.668-7.191
		c-6.633,3.919-14.054,7.144-16.002,6.439c14.547-10.935,30.647-47.876,10.994-52.216c-19.653-4.34-19.307,45.04-46.3,21.572
		c-7.734-12.283-3.236-44.534,16.371-57.454c6.314-4.16,1.844-13.746-5.59-12.226c-67.763,13.858-47.039,196.029,87.763,105.077
		c1.806-1.218,4.254,0.015,4.269,2.173c0.059,8.747-2.155,18.748,4.339,19.734c2.372,0.36,8.812,0.203,12.664,0.165
		c11.779-0.116,9.168-11.481,5.195-23.237c0,0-0.29-6.393,4.07-1.538c78.708,87.653,145.962-44.426,111.323-84.997
		c-10.772-12.617-31.649-5.892-31.959,10.601C593.875,355.168,622.896,366.651,616.825,376.293z"/>
</g>
<path d="M343.14,126.88v350.945c45.308-5.437,267.157,21.091,267.157-181.766
	C610.297,103.677,420.021,126.88,343.14,126.88z M691.959,656.601c-0.099-0.259-0.219-0.512-0.358-0.753
	c-3.16-5.512-31.518-166.266-348.461-151.281l3.593,382.199C755.792,928.72,715.725,718.639,691.959,656.601z M720.442,263.927
	C743.12,402.822,609.095,456.278,584.758,469.26c-3.818,2.037-3.365,7.504,0.704,8.994
	c165.135,60.485,236.316,112.384,236.316,227.919c0,213.934-180.068,222.223-365.668,222.223c-103.481,0-344.878,0-344.878,0
	c-0.748-0.02-37.361,3.343-27.105-8.289c10.368-11.758,133.605-3.608,135.856-84.065c1.419-50.693-0.161-709.92-0.161-710.039
	c0-22.624-16.287-23.864-16.287-23.864c-8.69-4.588-99.403-19.634-69.617-31.936c0,0,139.233-0.017,288.886-0.017
	C557.741,70.186,700.337,140.792,720.442,263.927z"/>
</svg>
