<?xml version="1.0" encoding="utf-8"?>
<svg version="1.0" xmlns="http://www.w3.org/2000/svg" xmlns:xlink="http://www.w3.org/1999/xlink" x="0px" y="0px" viewBox="0 0 1000 1000">
<path d="M469.845,876.674c-328.979-16.347-345.732-483.597-157.626-675.601c57.469-58.66,139.399-86.399,220.849-77.522
	c176.98,19.288,206.734,107.468,210.31,152.046c0.484,6.037,7.218,11.241,15.958,14.426c-1.38-20.853-3.099-41.691-4.06-62.564
	c-1.343-29.194-3.515-58.461-2.574-87.606c0.497-15.411-5.602-22.545-18.29-25.89c-17.316-4.566-165.807-41.29-258.997-34.488
	c-323.574,23.621-393.52,286.697-393.52,408.903c0,159.28,72.577,588.373,698.902,379.662c7.77-2.589,16.942-22.083,18.881-30.063
	c7.144-29.407,30.566-176.726,41.258-226.02C808.933,661.563,754.492,883.096,469.845,876.674z"/>
<path d="M880.487,882.371c-9.464,37.112-140.55,78.068-175.545,63.592c14.351-11.843,17.651-30.767,16.658-35.529
	c-49.124,27.83-103.421,29.517-155.749,7.482c0,0-171.508-115.099-150.381-162.667c19.876-8.042,24.826,20.453,35.424,34.136
	c5.143-6.971,10.421-10.94,9.737-22.268c11.321,15.277,25.668,31.682,36.461,46.247c22.54-56.653-14.758-72.018-51.599-85.603
	c-13.049-4.811-46.134,0.646-47.754,3.018c-2.011-8.564-23.13-105.349,28.751-153.599c30.1-27.993,25.875-52.318-11.501-70.89
	c26.948-53.364,64.999-89.689,124.914-108.709c1.025,30.895-4.244,61.39-9.058,93.384c-10.659-9.483-15.313-13.662-20.008-17.795
	c-19.289-16.978-39.99-10.442-43.662,15.592c-1.909,13.534,9.191,62.782,7.577,71.477c-6.604,35.582-17.978,46.99-30.686,68.318
	c-15.419,25.878-16.921,62.008-14.871,56.859c7.817-19.633,4.258-8.926,28.361-29.522c29.727-25.402,86.79-41.88,99.205-206.829
	c1.276-16.952-0.071-8.49-0.455-53.802c63.555-5.664,93.795,4.892,134.519,39.236c43.249,36.475,40.819,93.582,15.911,142.754
	c-14.718,29.056-54.727,38.062-82.728,21.355c-16.758-9.998-30.813-39.968-23.665-53.312c13.701-25.578,30.903-9.374,48.063-4.144
	c6.129,1.868,17.032-1.644,21.439-6.603c12.144-13.668,0.167-35.377-19.791-38.776c-10.427-1.776-20.741,4.344-36.343,0.499
	c60.48-36.73-10.372-75.231-17.426-85.819c-6.989-10.489-29.369,26.52-12.301,26.089c4.283-0.108,30.16,4.105,27.677,9.612
	c-1.984,4.399-9.222,9.754-12.498,12.685c-32.917,29.454-34.144,32.456-0.487,58.545c-32.415,74.176-13.743,112.192,83.153,121.939
	c28.24,2.841,0.921,41.723-5.075,47.123c-22.9,20.624-52.989,6.64-80.728-8.128c-14.723-7.838-37.569-14.238-50.325-7.976
	c-14.056,6.901-31.401,22.6-32.1,44.233c25.628,6.326,52.471-28.742,72.433-6.503c-17.426,9.268-39.238,23.781-50.91,41.612
	c-16.775,25.628-11.05,61.346,12.116,83.614c13.272,12.757,42.208,12.402,60.293-5.459c8.199-8.098,11.754-25.007,10.383-37.15
	c-1.13-10.014-18.623-13.643-27.75-12.502c-11.067,1.384-18.311,11.812-9.729,25.603c1.26,2.025,1.72,4.557,2.002,7.721
	c0.48,5.391-5.656,8.799-9.901,5.466c-14.737-11.573-17.135-23.521-9-43.121c12.251-29.515,32.865-43.143,63.503-32.803
	c25.201,8.505,66.166-3.775,79.957-26.984c22.894-38.528,25.163-52.013-4.533-95.693c25.288-35.679,43.116-80.883,32.919-125.093
	c14.149,22.47,58.079,71.214,94.618,62.891c5.406-1.232,9.541-14.921,11.437-26.365c0.766-4.62-2.155-7.097-6.571-5.595
	c-12.949,4.402-21.464,9.351-30.492,7.76c-19.477-3.433-59.199-37.589-59.199-37.589c14.189,5.598,15.385,0.747,30.496,9.783
	c43.053,25.746,40.884-10.258,38.201-17.314c-6.245-16.423-20.064-14.142-33.456-9.131c-21.569,8.071-35.241,16.662-51.219-16.984
	c-25.981-54.709-75.435-74.443-132.381-79.436c-6.91-0.606-29.172,0.967-35.9-1.744c24.878-6.443,70.047-25.497,91.062-14.761
	c79.956,40.85,142.069,90.582,233.719,54.237c8.542,8.239,21.57,26.064,12.984,31.581c-5.938,3.816-61.505,16.477-23.387,33.218
	c-20.609,21.909-7.473,43.824,2.098,65.6c7.938,18.06,9.283,34.227-3.585,51.51c-3.561,4.782-5.942,10.458-7.973,16.353
	c-2.697,7.828,4.225,15.561,12.224,13.55l14.044-3.531c31.519-18.436-2.461-47.049,7.378-71.474l9.937,2.789
	c8.568,2.405,16.525-5.389,14.381-14.063c-2.506-10.133-4.772-18.784-8.751-26.54c-6.252-12.185-11.58-27.953-22.516-41.667
	c34.29-3.885,51.969,13.261,56.552,33.398c2.789,12.254,13.605,56.763,9.054,69.584c-3.011,8.483-11.457,19.263-19.445,29.915
	c-7.705,10.274-0.522,24.984,12.28,25.218c21.338,0.39,19.712-8.062,24.335-39.186c4.357-29.334-3.844-130.257-79.358-183.501
	c10.673-5.788,20.5-10.84,30.063-16.359c24.437-14.101,28.263-12.676,34.801,14.392c1.485,6.146,2.96,12.707,2.363,18.873
	c-0.926,9.563,4.293,15.576,11.586,18.837c8.331,3.724,18.076-1.174,19.923-10.145c3.017-14.647,3.77-29.114,5.136-43.185
	c2.104-21.67-14.683-31.868-36.232-35.358c36.077-28.105,36.914-31.634,21.379-59.828c10.412-31.71-12.823-96.932-5.306-125.08
	c5.83-21.83,20.502-40.506,10.593-61.446c-9.728-20.556-18.446-15.824-29.044-38.447c2.52-3.216,16.058-19.556,18.798-24.013
	c3.59-5.841,4.136-11.206,4.553-16.571c0.38-4.902-3.062-9.274-7.9-10.018c-5.404-0.831-10.762-1.519-15.392,0.019
	c-18.988,6.309-31.753,18.844-28.481,35.214c-11.573-5.375-24.517-11.302-37.163-17.343c-3.631-1.734-7.151-3.682-10.666-5.64
	C830.588,5.399,773.576,10.074,716.241,24.025c-31.43,7.647-62.516,16.729-93.707,25.374c-2.701,0.748-5.535-0.409-7.043-2.782
	c-32.288-50.809-63.681-34.179-58.196-17.128c9.165,28.491-37.063,22.198-47.62-6.662c-8.628-23.588-21.653-19.897-38.423-14.335
	c7.267,25.524,20.386,43.378,46.67,48.479c19.945,3.87,40.405,7.706,65.376,9.865c25.798,2.231,97.313-23.763,93.358-16.497
	c-12.718,23.362-115.226,60.436-46.204,220.402c2.104,4.877-6.089,23.953-15.077,33.383c-5.766,6.05-15.405-0.749-12.6-3.862
	c25.285-28.063-14.693-30.122-15.757-9.421c-1.198,23.318,31.816,44.435,56.854-1.161c74.053,75.143,186.129,29.118,209.957,2.255
	c7.047-7.945,50.319-39.045,2.482-66.164c41.003-34.327,6.789-80.76-18.072-94.941c-59.834-34.13-80.677,38.988-46.754,49.593
	c7.871,2.461,26.658-1.374,13.832-28.353c-13.757-28.938,13.414-6.665,20.584-4.222c26.886,9.161,38.953,36.044,13.356,58.908
	c-11.277,10.074-24.621,18.453-36.254,28.557c-10.984,9.54-8.189,29.69,4.317,39.122c4.731,3.568,9.455,7.145,17.695,13.373
	C695.764,388.293,516.79,180.064,708.745,48.038c12.375,47.824,39.688,57.727,78.65,31.461
	c20.238-13.644,40.258-26.041,67.059-25.949c35.49,0.121,55.961,19.541,80.105,36.972c11.108,8.02,36.903,22.313,42.028,39.82
	c2.346,8.013-15.591,29.623-14.351,42.738c-24.346-3.089-20.502-59.472-51.1-74.658c-26.55-7.728-5.114,18.179-8.355,28.059
	c-14.369-17.038-31.988-37.408-49.873-32.796c-6.253,1.612-17.526,27.647,21.227,22.449c5.371-0.72,11.913,6.03,13.474,10.699
	c9.043,27.048,27.293,42.934,53.224,53.464c22.133,8.988,36.096,86.326,25.259,109.463c-20.715-2.312-25.911,13.158-25.181,33.821
	c-3.425,1.037-2.958,0.896-6.383,1.934c-4.544-7.947-7.213-17.544-13.433-23.762c-17.972-17.966-74.179,22.53-74.48,22.862
	c-4.907,5.416-0.788,14.204,6.481,14.76c1.573,0.12,47.258-6.361,66.787,5.957c4.301,2.713,9.284,9.72,8.707,14.036
	c-2.711,20.29-26.834,30.663-45.627,40.79c-6.834-5.149-11.379-8.991-18.981-13.002c-47.564-25.101-185.693-68.688-309.521-19.498
	c-3.283-34.095-6.358-47.14-16.512-73.227c26.544-19.903,44.198-30.564,42.6-52.34c-0.328-4.469-5.922-6.266-8.767-2.814
	c-3.315,4.022-6.786,8.503-11.036,11.9c0-19.093-6.104-42.185,0.683-58.013c14.351-33.469,12.301-67.453-15.642-23.382
	c-11.49-11.48-23.157-29.634-48.352-30.615c-4.496-0.175-7.119,5.155-4.155,8.556c26.171,30.036,49.995,77.65,52.92,99.217
	c2.239,16.506-14.798,23.784-16.206,20.372c-32.732-79.296-127.55-156.68-203.918-164.918c-8.456-0.912-7.343-22.201-3.461-33.231
	c6.442,1.334,13.6,1.775,19.922,4.325c17.686,7.133,22-0.082,18.983-16.564c-7.069-38.618,0.628-46.194,38.492-38.711
	c5.76,1.138,11.932,0.159,17.914,0.159C400.947,3.653,342.376-2.798,326.157,2.861c-26.636,9.295-35.589,23.994-31.685,51.394
	c2.092,14.683,3.74,29.431,5.489,43.361c-16.082-1.669-31.741-0.481-45.374-5.221c-45.817-15.928-79.788,2.664-111.925,33.131
	c-7.148,6.777-20.087,7.341-30.36,10.765c-1.558-2.398-3.116-4.795-4.674-7.193c27.731-9.467,23.017-29.053,15.177-46.566
	c-8.456-18.889-2.176-31.536,10.805-43.852c6.549-6.214,12.785-12.764,19.162-19.162c-15.355,3.122-27.694,9.625-40.801,13.45
	c-23.002,6.712-29.424,21.202-24.88,43.717c1.75,8.674,0.285,18.008,0.285,30.117c-21.183-9.6-28.052-13.293-25.504-24.864
	c2.519-11.439,5.57-25.489-3.417-32.954c-0.079-0.066-14.955-4.053-15.035-4.119c-4.245-3.526-4.745-12.107,0.683-13.044
	c19.169-3.309,55.321-4.514,66.565-25.072C87.272,4.229,40.826-3.886,33.462,2.238C6.347,24.785,2.645,57.549,19.457,84.401
	c3.871,6.184,49.31,79.401,91.65,76.181c-9.49,15.292-16.652,29.464-26.448,41.443c-4.486,5.486-14.804,10.352-21.364,9.177
	l9.153-12.554c2.59-3.552,3.262-8.183,1.804-12.336c-13.699-39.022-37.032-10.087-45.941-36.399
	c-1.803-5.325-11.865-6.043-16.214-2.748c-4.788,3.629-6.625,12.999-5.904,17.995c2.034,14.099,39.883,21.81,45.718,23.056
	c5.341,1.141,8.861,6.298,7.94,11.705l-1.788,10.494c-32.983-3.981-53.359,12.79-54.396,47.251
	c-0.624,20.745-1.381,41.568-0.994,62.214c0.81,43.202,26.74,91.604,7.496,180.265c34.51-30.071,42.377-77.435,32.057-124.19
	c22.785-0.374,35.205-11.597,24.374-30.982c-9.581-17.148-22.366-33.21-28.129-51.545c-4.125-13.126-4.752-31.587,3.066-43.65
	c6.326-9.76,20.785-7.087,28.878-10.79c1.968,7.465-0.508,14.201-0.015,21.763c0.822,12.63,0.015,25.502,0.14,38.006
	c0.9,89.555,113.659,142.591,176.664,130.855c13.66-2.545,16.418,5.584,25.265,30.04c9.6,26.535,29.831,43.468,54.358,41.648
	c27.452-2.038,43.84-21.253,53.737-44.819c12.994-30.944,27.729-57.816,65.114-63.76c8.997-1.43,16.718-11.022,27.419-18.542
	c-23.34-14.86-54.153,12.589-59.198,5.456c-9.255-13.086-5.264-33.694-25.823-33.772c-15.886-0.06-36.666,43.282-31.477,63.375
	c5.398,20.902,3.232,75.02-32.988,63.692c0,0,21.486-20.045,18.452-26.432c-7.176-15.104-21.185-17.164-37.416,4.119
	c-12.814-4.119-15.426-31.636-2.48-42.862c13.68-11.863,28.414-23.339,39.049-37.72c15.075-20.387,27.347-42.985,39.603-65.316
	c0.765-1.394,1.205-2.97,1.444-4.658c1.146-8.105-6.655-14.642-14.502-12.434c-7.45,2.096-15.371,4.551-19.548,4.913
	c-3.802,0.329-24.228-36.46-39.885-38.99c-17.828-2.88-28.229,14.61-31.722,37.869l20.312-10.703c5.34-2.814,12.008-1.771,16,2.769
	c18.922,21.518,13.793,47.29,3.293,69.519c-12.516,26.497-28.552,53.2-62.977,59.572c-19.454,3.6-249.751-17.569-126.976-229.875
	c5.735-9.917,19.7-20.224,30.346-20.774c34.883-1.803,60.809-22.588,87.6-39.46c41.027-25.837,191.142,36.195,212.89,70.434
	c1.966,3.096,8.824,10.128,7.979,13.648c-2.029,8.454-19.113,8.425-26.11,3.304c-8.425-6.167-16.844-12.353-26.213-14.735
	c-30.994-7.878-46.885,15.371-69.11,31.719c-6.883,5.063-6.091,15.628,1.433,19.667l0.397,0.213
	c5.495,2.949,12.329,0.812,15.187-4.749l5.124-9.972c2.381-4.634,8.681-5.343,12.033-1.362
	c17.389,20.65,34.052,44.115,63.146,21.837c4.418-3.383,5.479-9.637,2.336-14.238l-3.677-5.383
	c-2.921-4.276,0.281-10.065,5.438-9.832l27.443,1.24c4.737,0.214,9.173,2.394,12.308,5.968
	c16.542,18.86,26.439,39.193,33.569,63.858c-16.302,3.235-25.29-8.15-33.489-15.784c-14.691-13.676-23.461-5.585-33.464,5.494
	c-13.686,15.159-3.936,27.25,7.203,34.229c7.813,4.895,55.964-2.463,64.62-9.78c7.859,13.044,17.683,40.592,14.607,65.651
	c-10.593,8.582-16.043,12.743-31.097,20.225c-59.072,29.358-100.365,75.622-118.782,138.403
	c-14.662,49.983-20.089,102.44-10.72,155.039c1.107,6.213,1.353,12.581,2.573,24.485c-21.363-38.473-71.244-58.694-92.094-69.882
	c0-10.813,1.299-7.209,1.299-23.198c7.565,4.445,15.066,8.852,26.682,15.678c0-20.45,3.838-36.228-0.612-49.722
	c-17.119-51.919,45.026-38.601,49.396-38.814c-14.895-26.412-116.745-24.948-101.917,71.52c1.119,7.283,3.555,16.001,4.649,23.507
	l-24.954,1.004l-127.783,17.876c-32.914,6.34-76.217-7.513-69.3-27.095c13.812-39.107-13.157-69.273-14.336-105.83
	C9.245,538.376,4.082,548.028,1.09,574.572c-12.34,109.472,84.073,99.031,88.802,100.547
	c-1.546,4.186-144.195,125.639-44.929,230.023c20.69,21.757,28.745,17.91,17.865,47.059c-2.867,7.68,0.193,24.454,5.579,27.286
	c29.537,15.53,60.943,19.714,94.179,9.916c25.595-7.545,50.348-24.228,79.157-12.119c1.23,0.517,3.727-0.834,5.074-1.983
	c18.18-15.494,40.416-11.622,50.149,10.299c5.876,13.236,12.597,12.02,21.875,5.32c18.74-13.532,13.822-23.588-3.089-36.719
	c3.499-10.618,16.226-24.714,13.38-29.998c-19.531-36.254-82.061,31.027-96.754,24.849c22.039-11.328,28.939-52.133,33.304-62.563
	c-34.433-6.172-62.956,9.902-83.385,34.83c-16.358,19.959-24.581,57.823-64.833,41.923c-5.06-20.017,1.695-33.569,17.624-35.361
	c25.048-2.817,46.499-23.878,51.387-51.879h-18.661c4.768-121.93-75.009-78.561-85.934-64.471
	c-5.915,7.627,0.795,25.213,1.809,38.306c127.846-78.601,26.704,122.558-18.647,18.81
	c-90.641-207.356,204.511-211.81,204.511-211.81c15.788,59.475,78.6,66.738,91.124,70.491c2.033,0.609,10.003,16.009,13.261,19.287
	c-6.979,5.711-60.236,48.307-19.607,77.61c9.304,6.71,20.144,11.324,33.643,18.713c-5.512-22.309,5.343-50.419-15.842-57.971
	c-2.134-0.761,19.536-25.447,19.647-21.283c1.538,57.67,159.748,168.691,172.082,171.414c-0.249,2.889-86.418-7.922-135.511,55.244
	c15.438-0.876,30.164-4.289,44.715-8.339c15.203-4.232,29.111-9.688,44.916,1.792c14.472,10.512,27.575,7.334,38.361-4.873
	c3.636-4.115,3.119-10.447-1.238-13.782c-3.256-2.492-6.98-5.342-11.854-9.073c31.517-7.286,69.053-13.219,97.624,3.283
	c-4.519,5.906-13.676,10.279-20.395,14.519c-4.203,2.652-5.236,8.444-2.198,12.388c12.351,16.034,27.845,14.413,44.567,5.221
	c13.887-7.633,20.567-18.74,30.817-27.665c1.475-1.284,122.497,2.489,203.992-67.797c10.944-9.439,47.299,11.025,49.204,9.783
	c7.018-4.574-69.449,21.369-87.808,74.986c14.753,1.833,66.538-8.82,70.894-12.167c1.401-1.076,9.418,32.35,29.751,31.36
	c34.025-1.657,45.973-27.33,28.033-59.827c-5.184,3.221-20.881,7.099-16.296,27.333c1.78,7.854-9.864,11.638-17.142,10.403
	c1.134-34.761,41.022-105.273,32.784-120.066c-15.976,4.675-32.528,35.877-60.205,11.162c78.931-72.088,46.65-181.357-0.747-204.678
	c-21.976-10.813-65.713,0.516-77.826,65.134c-5.414,28.881,25.864,45.668,52.833,33.637c2.08-0.928,3.858-2.543,5.526-4.41
	c3.683-4.124,3.094-10.652-1.258-14.056c-2.703-2.114-5.371-3.628-7.722-3.78c-14.716-0.956-19.504-5.759-21.865-18.09
	c-10.855-56.679,58.748-61.352,80.402-4.422c11.191,29.42,7.048,89.992-47.281,141.655c-19.827-11.014-29.406-36.504-37.973-54.214
	c-2.523-5.215-7.138-9.401-10.795-14.058c-47.932,123.71-87.791,98.574-102.613,103.723c19.829,52.941,77.554,3.447,101.867-8.655
	l1.592-11.607c-0.897-0.268-16.89-19.656,0.318-49.421C861.328,825.741,888.431,851.219,880.487,882.371z M154.472,141.67
	c28.19-37.846,35.892-31.973,50.912-13.326C190.35,137.207,170.104,146.046,154.472,141.67z M221.102,119.923l-12.301-13.267h30.752
	L221.102,119.923z M356.926,710.648c-7.688-0.515-68.168-28.32-64.58-47.372C310.797,665.335,358.463,701.894,356.926,710.648z
	 M678.289,359.478c61.617,2.768,137.777,16.462,192.271,47.81C829.508,431.514,742.101,409.167,678.289,359.478z"/>
</svg>
