<svg viewBox="0 0 1000 1000" xml:space="preserve"><path style="-inkscape-font-specification:'EB Garamond Initials Fill1, Normal'" d="M44.98 0c-5.75.07-10 .7-11.76 2.2-27.01 22-31.02 55.03-14 82.05 4 6 49.03 79.05 92.05 76.04-10 15.02-17 30.02-27.01 42.03-1.53 1.9-4.1 3.35-7.17 4.51-1.8-4.18-4.84-6.18-3.69-8.67 3.44-7.44 1.1-10.62.1-14.62-9.62-26.8-36.27-7.23-45.28-34.25-2-5-12-6-16-2-5.01 3-7.01 13-6.01 18.01 2 14 40.02 21.01 45.03 23.01 6 1 9.36 5.17 9.45 10.27.06 3.44 2.47 6.77 5.2 11.3l-5.5 1.19c-34.21 7.55-51.45 24.05-53.19 44.9-2.3 27.43-5.3 43.42-5 63.43.7 44.03 27.02 92.06 8 181.11 34.03-30.02 42.04-78.05 32.03-125.08 23.01 0 34.88-10.92 24.02-31.02-9.16-16.93-22.92-32.74-28.02-51.03-9.76-34.99-9.61-61.34 34.8-59.24-3.87 21.44-2.96 44.07-2.78 64.24.22 26.39 10.15 49.57 25.6 68.9-13.27 36.9-20.71 76.2-20.71 117.19 0 68.39 8.65 127.09 24.13 177.24-29.65.05-60.02-12.03-54.04-29.11 14.01-39.03-13-69.05-15-105.07-21.02 11-26.03 21.01-29.03 47.03-13 110.07 84.06 99.06 88.06 101.06C74.14 692.21-71 825.92 76.15 929.92c8.05 5.7-10.6 7.72-13.9 22.87-11.45 52.45 76.8 38.02 91.46 34.19 28.23-7.4 101.95-45.04 142.68-1.17 9.75 10.51 12.73 11.64 22.01 5.02 18.75-13.39 14.01-23.03-3-36.03 4-11.01 16.01-25.01 14.01-30.01-20.01-37.02-82.05 31.02-97.06 25 1.93-13.27 10-38.75 34.43-54.08-34.03-6.01-51.44 6.1-67.7 21.63-17.02 16.26-17.14 54.66-88.68 45-20.45-2.75 8.88-32.55 24.89-34.56 25.02-2 46.03-23.02 51.03-51.02h-19.01c5-122.08-75.05-79.06-86.06-65.04-6 7.99 1 25 2 38.01 128.09-78.05 32.59 120.64-26.14 38.38-59.86-83.84 3.77-167.95 39.53-188.61 4.45-2.57 8.9-4.93 13.33-7.2 74.48 189.74 256.22 241.42 424.35 230.96 15.13 8.21 25.55 11.61 29.24 12.54 0 1.98-86.05-8.01-135.08 55.03 15-1.01 30.01-4 45.02-8.01 15.01-5 29.02-10 44.03 1 15.01 11.01 28.02 8 39.03-5 3-4.02 3-10-1-13.02-4-3-7-5.99-12.01-9 31.02-8 69.04-14 97.06 3.01-4 6-13.01 10-20.01 14-4 3-5 9-2 13.01 12 16.01 28.01 14 44.02 5 14.01-8 21.02-19 31.02-28.02 2-1 123.08 3.01 204.13-67.03 10.07-9.17 41.04 7.62 47.76 9-10.75 3.32-70.14 28.97-85.78 75.04 14 2 66.04-9 70.04-12 2-1 10.02 32.01 30.03 31.02 34-1 46.02-27.01 28.02-59.04-5.02 3-21.02 7-16.02 27.01 2 8.02-10 12.02-17 10.02.99-34.03 41.01-105.07 33.02-120.08-16.02 5-33.02 36.02-61.04 11 79.04-72.04 46.97-180.98 0-204.12-22.08-10.88-65.61.08-78.06 65.04-5.58 29.1 26.02 46.02 53.03 34.02 2-1 3.01-3 5-5.01 4-3.99 3.01-10-1-14-2.99-2-5-4-8-4-15.01-1-19.36-4.94-22.02-18.01-5.66-27.99 22.55-48.3 38.98-38.82 78.4 45.27 30.81 151.12-2.48 177.19-19-11-32.5-37.32-41.5-55.32-2-5-7-9-10-14-48.04 124.06-88.06 99.05-103.07 104.05 20.01 53.04 78.06 3.01 102.07-9l2-11.01c-1-1-17.01-20.01 0-50.03 0 0 27.01 26.01 19.02 57.03-9.02 37.02-141.1 78.05-176.12 63.04 15.01-11 18.01-30.02 17.02-35.02-47.28 27.01-99.2 28.84-150.38 9.22 82.46-9.58 159.33-33.2 215.62-61.47 14.7-7.38 17.37-17.67 19.8-27.5 7.35-29.76 31.54-175.46 41.96-226.8-30.57 49.52-91.45 264.05-338.85 277.9-40.16-29.33-89.43-74.05-102.32-124.14 26.8-7.05 32.98 17.7 42.99 31.72 6-7.02 11-11 10-22.01 11.01 15 26.02 31.02 37.03 46.03 22.01-57.05-29.03-79.9-52.03-86.07-12.6-3.37-29.82-1.55-39.88.55 2.4-7.04 5.37-16.74 9.22-30.93 6.71-24.74 19.65-33.56 43.94-54.25 29.75-25.34 90.35-69.8 94.75-189.72.62-17.12 2.26-31.4 3.04-57.86 63.04-6 94.06 5 134.08 39.03 44.04 36.02 41.02 94.06 16.01 143.1-14 29-54.03 38.01-82.05 21-17.01-10-31.02-40.02-24.01-53.03 14-26.02 31.01-10 48.02-4 6 2 17.02-2 21.02-7 12-14.02 1-35.03-19.01-39.03-11.01-2-21.02 5-37.03 1 61.04-37.02-10-75.05-17-86.06-7.01-11-30.03 26.02-13.02 26.02 5 0 31.02 4 28.02 10-2 4-9 9.01-12 12.01-33.03 30.02-34.03 33.03-1 59.04-32.03 74.05-14.02 112.07 83.04 122.08 29.03 3 1 42.03-5 47.03-23.01 21.01-52.94 6.84-80.05-8-14.92-8.17-38.12-14.23-51.03-8.01-14.11 6.8-31.03 22.01-32.02 44.02-1.02 22.51 49.02-34.81 81.24-3.06-51.25 1.39-78.36 85.86-46.1 116.88 24.51 23.55 70.1 3.55 64.66-36.24-1.36-9.96-13.74-14.43-22.75-13.52-11 1.1-19.01 11-10 25 1 2 2 5 2 8.01 0 5-6.01 9-10.01 5-15.01-11-17.16-23.07-9-43.03 11.86-29.06 32.11-37.7 65.02-37.7 76.9-.04 113.27-79.2 74.06-117.4 25-36.02 43.03-81.05 33.02-125.07 14 22.01 58.04 71.04 95.07 63.04 5-2 9-15.01 11-27.02 1-4-2-7-7.01-5-13 4-21 9-30.01 7-20.01-3-59.04-37.02-59.04-37.02 14 5 15.01 1 30 10 43.04 25.02 41.04-11 38.04-18-6-16.02-20-14.02-33.02-9.01-22 8-35.02 17-51.04-17.01-26.02-54.04-76.04-74.05-133.08-79.05-7-1-29.02 1-36.02-2 25.02-6.01 70.04-25.02 91.06-15.01 80.04 41.02 143.09 91.05 234.15 55.03 9 8 19.7 18.22 31.85 35.47-17.2-5.82-65.74 5.37-41.87 28.57-21 22.01-7.99 44.03 2 66.04 8.02 18.01 8.6 33.72-4 51.04-3.42 4.71-7.98 10.68-8 17-.06 17.8 18.1 19.5 27.02 10.01 15.88-16.9-3-47.03 7-72.04l10.01 3c8.01 3 16-5 14-14-2-10.02-4-19.02-7.99-26.03-7.02-13-12.01-28.01-23.02-42.02 46.03-23.66 72.78 48.41 66.04 103.06-1.84 14.85-12 19.01-20.01 30.02-8.01 10 0 25.02 12.01 25.02 22.02 0 20.42-7.94 25.01-39.03 4.42-29.96-4-130.08-80.06-184.11 11.01-5 21.02-11.01 31.04-16.01 24.01-14.01 28.02-13.01 34 14a62.6 62.6 0 0 1 3.02 19.02c-1 10 3.99 16 11 19 9.01 4.01 18.01-1 20.02-10 3-15 4-29.02 5-43.03 2-22-14-32.02-36.02-36.02 36.01-28.02 37.03-31.02 21-59.04 12.86-52.5-15.64-90.83-3.76-118.22 27.42-63.24-3.89-83.66-19.24-106.92 2-4 16-20.01 19-24.01 3.01-6 4-12.01 4-17.02 0-5-3-9-7.99-10-5.01-1-11-2-15.01 0-19.02 6-32.03 19.01-29.03 35.02-90.12-43.18-186.12-45.09-310.2-9-3.03.88-5.81-1.1-7-3-31.84-51.15-64.04-34.03-58.03-17.02 9 28.02-37.03 22.02-48.03-7C501.53-.81 488.5 2.2 471.5 8.2c7 26.02 20.01 43.03 46.03 48.03 20.01 4 41.03 8 66.04 10 26.02 3 97.06-23 93.06-16-5.46 9.65-26.57 21.82-44.17 44.46-47.94-8.12-107.72-14.22-169.03-9.73-34.81 2.55-70.54 10.88-105.57 24.17a157.5 157.5 0 0 0-31.45-6.87c-9-1-8-22.01-4-33.02 7 1 14 1 20 4 18.02 7 22.02 0 19.02-17.01-7-38.03 1-46.03 39.03-38.03 5 1 11 0 17 0-17-15-75.04-21-91.05-16-27.02 10-36.02 24.01-32.02 52.03 2 14 4 29.02 5 43.03-16-2-31.98-2.62-46.63-5.18-48.94-8.55-91.35 12.14-129.05 50.37-5.97-2.42-6.85-2.19-11.44-6.17-2.72-2.37-3-5-5-7 28.02-10.01 23.02-29.02 15.01-47.03-8-19.02-2-32.02 11-44.03 7.01-6 13.02-13.01 19.02-19.01-15.01 3-27.02 10-41.03 13-23.01 7-29.02 22.02-24.01 44.03 1 9 0 18.01 0 30.02-21.02-9-28.02-13-26.02-25.01 3-11.01 6-25.02-3-33.03l-15.01-4c-4-3-5-12 1-13 19.01-3 55.04-4 66.04-25.02C93.01 4.7 62.24-.18 44.98 0Zm663.68 48.22c13 47.03 40.02 57.04 79.04 31.02 20.01-14 40.23-29.36 67.05-26.01 66.84 8.34 155.39 57.83 108.06 120.07-25-4-21-60.03-51.02-75.04-27.03-8.01-5.02 18-9 28.02-14.03-17.02-32.03-37.03-50.04-33.03-6 2-17.01 28.02 22.01 23.02 5-1 12 6 13.01 10 9 27.02 27.01 43.03 53.03 54.04 22.01 9 43.1 82.43 26.02 109.07-21.02-2-26.02 13-26.02 34.02l-6 2c-5-8-7.01-18.01-13.02-24.01-18-18.02-75.04 23.01-75.04 23.01-5 6-1 14 7 15 1.01 0 47.04-6 66.04 6.01 5.01 3 10.01 10.01 9.02 14.01-3.01 20.01-27.03 31.02-46.04 41.03-6-5-11.01-9-19-13-47.04-25.03-185.13-69.05-309.2-20.02-3-34.02-6-47.03-17.02-73.05 27.02-20.01 45.03-31.02 43.03-52.03 0-5-6-7-9-3s-7 8-11.01 12c6-26.4-8.66-50.07-5.65-66.36 4.74-25.66 55.29 11.57 16-22.26-8.95-7.71-11.35-15.44-25.36 6.57-11-11-23.01-29.02-48.03-30.02-5-1-7 5-4 8 26.01 30.03 50.03 78.06 53.03 99.07 2 17.01-15.01 24.02-17.01 21.01-20.45-50.47-66.6-100.51-117.1-132.2 33.3-8.58 70.44-11.32 111.42-7.32 33.37 3.26 61.63 8.98 85.68 16.4-6.2 30.4-2.73 70.95 21.06 126.13 2 5-6 24.01-15 34.02-6.01 6-16.02-1-13.01-4 26.01-28.02-14.01-30.02-15.01-10.01-2 24.01 31.01 45.03 56.03-1 74.05 75.05 187.04 28.95 210.13 2 6.93-8.08 24.77-29.67-2.03-62.32 47.72-39.28 12.04-83.77-12.98-98.78-60.03-34.03-81.05 39.02-47.02 50.03 8 2 27.01-1 14-28.02-14-29.02 13.01-7 20.01-5 27.03 10 39.03 36.02 14.02 59.03-12.02 10.01-25.02 19.02-36.03 29.02-11 9-9 30.02 4 39.03 5 4 9 7 18.01 13-98.93 76.87-226.19-25.12-196.95-136.48 92.3 35.42 111.1 98.26 113.92 133 .5 6.15 7.3 11.3 16.68 15.4-2.09-21.55-2.86-43.13-4.17-64.67-1.82-29.8-4.5-60.6-3.13-90.35.71-15.42-5.06-23.1-18.75-26.7-7.9-2.07-37.21-10.77-78.7-18.87 13.12-17.48 30.85-34.53 54.04-50.48Zm-483.1 55.55c4.7.17 9.32.97 13.8 2.5-27.36 16.04-38.54 36.95-97.13 42.49 21.42-22.5 51.13-43.62 78.6-44.96 1.58-.08 3.16-.09 4.72-.03Zm45.11 12.31c15.02-.28 33.43 2.72 52.8 7.81-92.08 44.2-175.2 122.27-217.97 219.28-23.23-35.31-27.05-87.32 16.92-163 5-10 22.87-17.87 33.88-18.87 35.02-1 61.04-22.02 88.06-39.03 6.4-4.06 15.48-5.98 26.31-6.19Zm112.15 28.64c35.42 15.3 65.71 33.75 74.67 47.6 2 3 8 11 8 14-2 9.01-20 8.01-27 3-8.01-6-16.02-12-26.03-14-31.02-8-47.02 15-69.04 31.02-7 5-6 16 2 20.01 5 3 12 1 15.01-5l5-10.01c3-4 9.01-5 12.01-1 18.01 21.01 34.02 44.03 63.04 22.01 5-3 6-10 3-14l-4-6c-3-4.01 0-10.01 6-9.01l27.02 1c5 0 9 2 12.01 6 17.01 19.01 27.02 39.03 34.02 64.04-16 3-25.01-9-34.02-16-14-14.02-23.01-6.01-33.02 5-14.01 15-4 28.01 7 35.02 8 4 56.04-3 65.04-10 8.01 13 17.01 40.02 14.01 65.03-10 9-16 13-31.01 21.01-59.04 29.02-100.07 75.05-119.08 138.1-14.01 50.02-20.01 102.06-10 155.1 1 6 1 13 2 25-21.02-39.02-71.05-59.03-92.06-70.04 0-11 2-8 2-24.01 7 5 15 9 26.01 16 0-20 4-36.02 0-50.02-18-51.04 45.03-38.03 49.03-38.03-15-27.02-117.07-25.01-102.06 71.05 1 7 4 16 5 24.01a183.42 183.42 0 0 0-46.48-2.3c-11.66-46.54-17.82-98.52-17.82-154.83 0-18.93.84-37.38 2.46-55.3 15.06 2.47 29.42 2.66 41.83.3 13-2 16 6 25.01 30.02 10.01 27.01 30.02 44.02 54.04 42.02 28.02-2 44.03-21.01 54.03-45.03 13.01-31.02 28.02-58.03 65.05-64.04 9-1 17-11 28.01-18-24.01-15.02-55.03 12-60.04 5-9-13.01-5-34.03-25.01-34.03-16.01 0-37.02 44.03-32.02 64.04 5 21.02 3 75.05-33.02 63.05 0 0 22.01-20.02 19-26.02-8-15.01-22-17.01-38.02 4-13-4-15-32.02-2-43.03 13.01-12 28.02-23.01 39.03-37.02 15-21.01 27.02-43.03 39.02-66.04 1-1 2-3 2-4 1-9.01-7-15.01-15-13.01-7 2-15.01 5-19.02 5-4 0-25.01-36.02-40.02-39.03-18.01-3-28.02 15.02-32.02 38.03l20.01-11c6-3.01 12-2 16.01 3 19.01 22 14.01 47.02 4 70.04-13 26.01-29.01 53.03-63.04 59.04-4.98 1-22.98-.24-45.35-5.8 16.7-126.52 75.71-223.09 174.81-261.94Zm295.81 214.7c61.04 3 138.09 16.01 192.13 48.03-41.03 24.02-128.1 2-192.13-48.03Zm-139.09 38.03c1 31.02-3.68 71.14-8.68 103.16-10-9-18.44-13.29-22.78-17.17-17.27-15.48-35.78-10.11-38.7 13.82-1.58 12.93 7.78 58 6.3 66.35-5.72 32.2-14.08 47.87-31.2 64.98-28.46 28.47-45.84 72.27-47.82 98.34-3.87-18.12-18.7-104.59 29.81-149.37 30.02-28.02 26.02-53.03-12-71.04 27.01-54.04 65.04-90.06 125.07-109.07ZM269.37 656.6c16.01 60.04 79.05 67.04 91.06 71.04 2 0 10 16.02 13.01 19.02-7 6-60.04 48.03-19.01 78.05 9 6 20.01 11.01 33.02 18.01-5-22.01 5.72-49.33-15.01-58.04-6.78-2.85 7.02-22.51 9.15-19.12 34.07 54.2 67.49 91.54 96.3 117.16-121.68-2.9-211.3-87.41-251.45-223.12a695.09 695.09 0 0 1 42.93-3Zm23.02 7c18.01 2 66.04 38.02 64.04 47.03-7 0-68.04-28.01-64.04-47.02Z" font-family="EB Garamond Initials Fill1" font-size="58.46"/></svg>