<svg viewBox="0 0 1000 1000"><path d="M282.38.1c-58.4 1.6-121.95 20.72-180.18 58.24-23.68 15.3-23.03 20.61-24.99 3.61-3.2-27.44-42.73-29.95-56.98-3.66-4.81 8.93-4.36 13.04 2.4 23.32 4.57 6.88 6.38 15.55 5.53 19.67-2.51 12.24 9.08 20.06 14.04 27.59-2.86 8.77-6.02 16.25-17.15 8.27-6.58-4.71-20.22-5.82-23.08 2.86-1.3 3.71-1.05 14.1-1.05 14.1 0 7.62-2.46 15.95 8.48 23.27 6.17 4.17 6.52 3.87 14.7 4.22-38.13 92.5-25.14 213.69 35.3 227.73 31.2 7.33 35.42 11.44 37.23 26.74.9 7.62 4.01 16.75 7.02 20.31 4.16 5.02 3.26 8.03-3.76 13.15-12.04 8.67-24.88 8.42-28.34-.5-3.62-9.29-13.25-9.08-34.01.7-13.9 6.57-20.02 11.23-21.57 29.84-6.27 74.1 27.34 94.56 90.89 91.2 21.87-1.2 31.35 4.56 37.77 8.58-12.74 6.52-25.18 11.73-43.14 31.7a63.7 63.7 0 0 0-29 .9c-15.9 4.52-20.86 4.52-22.41-6.22-1.16-8.03-5.92-11.09-20.82-13.54a118.83 118.83 0 0 0-18.81-2c-1.15 0-1.9.14-2.16.4-.85.9-2.36 10.28-3.26 20.76-1.5 16.9-.4 19.26 9.43 20.67 15.65 2.2 18.46 13.69 6.37 26.43-13.74 14.45-13.44 30.4.6 33.1 21.88 4.17 40.38 3.22 46.05-2.35 9.03-8.93 6.88-13.4-6.27-13.4-9.68 0-12.04-2.35-12.04-12.08 0-16.66 10.29-31.6 26.9-39.48a24.88 24.88 0 0 1 19.15-.6C72.05 682.86 62.47 759 66.38 808.16c-6.37 2.46-7.68 3.31-14.35 2.3-8.78-1.25-27.89-16.55-26.08-34.96 1.25-12.64 3.76-15.55 14.75-16.75 10.53-1.2 13.29-4.01 13.29-13.54 0-11.54-.95-11.9-20.22-8.68-31.85 5.32-41.28 20.26-32.05 50.81 4.92 16.2 7.27 18.51 16.65 16.15 18.31-4.51 18.31 6.83 0 25.44C8.74 838.66.92 848.13.92 850c0 1.85 9.28 3.36 20.67 3.36 17.9 0 22.02-1.81 29.34-14.55 7.17-12.44 4.66-9.43 16.55-9.68 3.51 27.34 9.43 66.16 34.56 94.25l-11.03 9.53c-9.73 8.83-22.77 15.95-29.2 15.95-11.93 0-27.13-17.25-27.13-30.85 0-8.17 7.52-9.88 11.94-2.75 4.46 7.12 17 .15 17-9.53 0-11.04-24.38-16.91-38.72-9.34C14.66 901.86.92 927.6.92 941.5c0 12.14 25.83 36.62 46 43.64 18.9 6.52 25.73-1.7 32.4-8.88 3.71-3.96 5.02-8.22 16.15-11.13 7.23 8.22 9.33 13.44 17.56 19.91 6.62 5.22 20.77 8.73 43.44 7.53 8.23-.46 13.24-3.42 13.24-7.88 0-7.88 6.02-8.88 10.49-2.6 4.76 6.71 50.66 4.76 67.11 1.55 20.32-4.02 60.5-17.06 62.3-50.37 2.26-42.23-8.57-40.13-22.97-45.6-21.42-8.02-48.3 2.77-42.64 25.19 1.7 6.67 4.67 12.09 6.62 12.04 7.28-.15 14.55-7.38 16.2-16.3 3.02-15.76 11.34-10.74 12.9 7.77 1.65 19.71-8.18 29.1-36.02 34.11-13.94 2.5-21.97-.5-28.09-13.3-17.56-36.71-56.53-53.67-98.72-28.33-15.4-20.97-25.18-53.23-27.64-76.75-.5-4.27-.4-5.92 5.62-10.29a167.7 167.7 0 0 0 96.41-165.28c-1.9-20.11-3.66-35.92-12.84-48.16 3.21-1.65 16.7-6.01 19.06-6.22a351.16 351.16 0 0 1 17.91-5.86v11.03c-1.5 254.52-87.58 235.36-115.77 251.66-5.22 3.01.3 7.03 6.32 7.03h16.75c91.8 0 275.3-.15 275.3-.15h73.53c-5.37 8.72-11.69 15.4-22.98 16.15-5.51.05-17.7 4.71-27.08 10.43a114.07 114.07 0 0 1-34.26 13.2c-21.22 3.46-27.84 19.36-8.03 19.36 14.3 0 22.67-1.6 5.17 28.64-9.68 16.8-8.93 22.62 4.91 36.32 13.65 13.54 28.95 12.24 40.28-3.31 8.53-11.7 16.05-11.54 23.63.4 6.77 10.73 29.5 12.99 38.72 3.86 3.21-3.16 5.87-13.4 5.92-22.72l.1-16.96 7.38 14.8c4.01 8.13 16.05 19.61 26.68 25.53 18.36 10.24 20.97 10.44 50.92 4.52 26.18-5.12 33.6-8.83 43.39-21.57 10.28-13.3 11.03-16.66 5.62-25.18-7.33-11.64-15.75-15.55-25.69-11.74-8.37 3.16-9.68 18.76-2 23.47 3.76 2.31 3.76 4.67.1 8.33-3.72 3.66-8.83 1.8-17.81-6.52-11.04-10.18-12.29-14.3-10.03-33.6 1.6-13.5.5-24.19-2.86-27.5-9.43-9.33-30.2-6.12-42.14 6.52-11.74 12.34-26.08 15.55-31.4 7.03-3-4.82 1.05-16.5.8-28.9-.2-7.07.96-13.9 2.91-20.56h65.41c10.14 0 20.32-.56 30.45-1.6 6.47 23.47 19.36 46.74 39.43 68.86 8.43 9.28 18.3 19.47 19.96 24.58 7.08 22.07 79.91 48.4 132.73 41.04 7.43-1 23.13-10.44 30.35-11.04 13.7-1.15 24.78 2.46 30.1 2 71.23-5.51 101.93-65.1 109.35-121.99.85-6.52 3.31-15.65 7.47-20.21 7.68-8.48 10.24-41.04 4.02-51.07-2.66-4.16-4.37-2.9-10.13-.2-6.38 3.01-11.1-10.38-16.8-24.93a124.9 124.9 0 0 1-7.43-39.68l.3-23.87 22.92 1.4c20.87 1.35 23.43.3 28.9-11.54 4.91-10.73 4.76-13.39-.8-15.2-24.09-8.02-51.67-51.66-45-71.38 3.6-10.58 15.25-6.32 22.92 8.38 9.23 17.66 25.08 19.21 29.3 2.86 8.62-34.11-25.49-54.18-57.44-37.47-11.94 6.22-18.2 12.84-18.2 19.21 0 5.32-3.12 13.44-6.98 18.06-5.22 6.27-15.8 24.38-7.22 70.23l12.34 65.96-24.43-3.01c-33.56-4.16-61.35 13.4-86.08 50.31-19.21-.5-23.58 9.88-31.45 19.92l11.89 12.69c24.47 26.13 8.67 43.34-23.13 25.18-15.55-8.88-23.02-10.18-42.34-7.53-26.68 3.62-30.4 8.93-35.61 19.07-7.02 13.74-13.54 28.24 12.39 33.9 11.79 2.56 16.65 7.78 17.8 15.8 1.96 13.45-8.62 29.4-26.28 19.42-39.17-22.12-61.35-51.92-70.28-82.87 142.72-24.93 272.03-149.08 290.94-333.78 13.25-20.41 32.81-42.79 40.54-39.88 3.7 1.4 7.42-3.6 9.02-6.12 4.37-7.02 12.5-1.25 12.5 6.73 0 3.96-3.42 7.17-7.53 7.17-5.62 0-7.02 7.47-6.02 15.55 1 8.38 2.96 15.4 15.55 14.5 7.73-.56 15.35-4.17 18.06-7.18 6.47-7.32 9.68-56.28 1.1-67.82-3.06-4.2-6.52-7.37-12.49-7.77-9.93-.65-23.42 4.51-33.6 14.55a1165.46 1165.46 0 0 1-34.92 32.1c0-2.91.2-5.77.2-8.68 0-114.52-53.12-214.7-143.36-277.8 27.79-13.29 59.3-21.51 89.49-16.3 11.33 1.96 23.22 7.83 21.87 13-2.96 10.88-10.64 12.08-26.29 1.95-8.42-5.52-12.34-5.97-14.9-1.86-1.9 3.01-1.85 9.03 2.41 10.74 6.17 2.46 6.52 8.53 9.53 14.2 3.01 5.71 17.96 11.63 31.6 20.31 28.75 18.36 50.17 20.07 50.67-12.7.2-8.82 1.6-13.08 6.02-13.18 3.36-.1 8.53 2.35 15.9 7.17 15.2 9.88 10.94 40.23-3.76 61.8-6.02 8.93-15.8 16.95-21.72 17.76-12.09 1.75-12.34 1.1-6.12-15.05 3.81-10.03 2.9-12.24-6.02-14.8 0 0-6.72-2.46-9.78-1.3-5.02 1.85-10.69 11.78-10.69 11.78-8.42 11.9-4.76 22.33 15.35 43.8 6.27 6.67 11.39 16.9 11.39 22.67 0 14.7 17.7 25.38 42.09 25.38 26.33 0 27.94-11.94 3.7-27.49-20.7-13.3-21.01-19.36-1.75-37.27 8.28-7.67 16.7-21.72 21.77-29.54 11.24-17.41 10.34-29.6 4.22-44.05-3.87-9.23-10.39-18.05-14.55-19.56-10.03-3.86-9.33-11.13 2.46-23.58 8.52-9.02 9.03-12.03 3.86-23.27-6.42-13.95-33.5-27.94-45.4-23.48-4.01 1.5-10.53 8.98-14.5 16.56-7.82 15.05-12.13 16.4-27.18 8.42-5.52-2.95-19.97-5.31-31.75-7.32-37.98-6.42-80.26 4.52-116.73 23.03a374.86 374.86 0 0 0-63.46-30.8A189.66 189.66 0 0 0 705.1 94.3c.8-31.5 34.97-19.76 40.38 13.6 3.51 21.82 17.2 34 38.13 34 12.94 0 13.44-.8 10.43-16.7-3.51-18.35 6.37-24.58 11.04-7.02 1.5 5.82 12.03 15.05 27.23 21.02 99.32 38.93 179.23-48.26 130.42-119.54C949.78.8 921.3.46 901.02 4.72 891 6.82 889.5 10.43 889.5 27.79c0 14 2.9 22.82 9.33 28.6 8.63 7.77 10.23 7.82 20.36.74 24.78-17.15 37.83-5.76 28 24.43-8.53 26.44-29.4 38.93-49.52 38.53-31.6-.6-39.52-2-40.48-32.3-1.8-60.9-47.65-85.28-119.83-63.66-24.08 7.22-29.05 10.73-35.02 24.93-9.03 21.47-18.86 20.82-30.6-2-14.6-28.35-45-30.5-63.65-4.57-12.74 17.7-23.48 15.75-30.75-5.62-5.62-16.65-5.77-16.7-37.77-18.1-29.1-1.31-33.31-.26-44.65 10.93-11.33 11.18-12.19 14.64-9.28 37.22 2.11 16.15 6.63 27.79 13.05 33.2 10.83 9.23 25.78 11.04 30.44 3.62 1.6-2.66.66-4.82-2.15-4.82-9.53 0-5.42-23.33 5.16-28.94 11.9-6.32 31.25 1.45 35.57 14.2 9.53 28.23 50.66 45.64 73.54 31 13.44-8.54 13.8-16.91 1.2-28.2-10.53-9.43-14.45-8.08-16.5 5.52-2.01 13.54-14.65 10.53-16.3-3.86-3.02-25.94 38.62-37.37 64.1-17.56 12.2 9.53 13.9 12.44 10.43 33.96-3.16 19.86-7.52 35.61-13.34 48.1a449.45 449.45 0 0 0-132.53-20.51h-56.53C462.06 43.13 379.44-2.51 282.37.1zm-19.01 22.47c85.27-1.9 172.05 36.72 194.37 110.1H383.2c-11.94-47.55-66.76-77.9-115.37-77.84-48.3.05-103.99 36.41-117.13 71.53-.8 2.16-1.25 4.16-2 6.32h-42.74c-6.02 0-10.34 2.5-6.32 7.07 3.46 3.96 22.17 6.02 43.54 12.94-9.03 42.84 3.26 74.84 32.75 107.2a27.44 27.44 0 0 1-11.03 14.15c-6.82 3.9-11.29 7.12-21.87 1.5-8.88-4.72-11.9-10.18-11.9-21.92 0-16.65-4.86-21.92-21.1-22.92-8.44-.5-10.04-3.27-9.04-16.06 1.5-18.4-5.27-19.86-16.15-3.36-6.92 10.44-7.17 14.85-1.86 33.61 4.47 15.75 4.72 24.58 1 32.2a116.98 116.98 0 0 0-7.62 28.4c-2 14.4-.1 20.71 9.68 32.25 6.72 7.88 16.5 14.3 21.72 14.3 14.6 0 28.24-8.88 28.24-18.46 0-12.24-4.61-15.2-14.4-9.13-19.8 12.29-33.15-10.64-15.4-26.59 14.5-12.94 29.35-9.53 48.51 11.24 16.86 18.2 29.5 24.43 29.5 14.4 0-2.51-5.32-8.08-11.79-12.3-11.89-7.72-12.49-19.96-1.2-23.52a44.44 44.44 0 0 0 19.46-15.15 165.03 165.03 0 0 0 24.78 14.8c0 60.44.1 116.52.2 163.98a10.08 10.08 0 0 1-9.48-1.4c-9.98 2.85-26.79-8.23-26.79-19.82 0-12.74-7.17-14.95-11.53-3.61-9.43 24.33 9.13 59.04 26.03 48.6 4.06-2.5 6.92-3.86 9.03-3.76.3 0 5.52-.75 12.7-2.8v30.9c-3.47-.06-7.03-.4-11.04-1.41-1.5.75-3.42 1.45-5.87 2-6.62 1.61-12.84 7.03-13.85 12.1a29.85 29.85 0 0 1-9.63 15.3c-7.27 5.61-7.17 6.66 1 12.94 6.53 5.01 12.24 5.61 20.92 2.35 9.68-3.6 15.05-3.76 17.06.25l1.3-.25-.05 33.81c-18.7 3.96-44.74 9.53-49.46 13.45-16.75-14.3-59.19-23.88-70.78-28.35-13.04-5.11-22.77-22.47-16.8-43.89 7.62-27.29 24.88-31.9 73.84-19.76 19.3 4.81 14.84-7.28-6.37-17.36-31.05-14.75-29.6-35.81 5.16-73.38 23.73-25.74 28.4-38.88 17.56-49.62-4.72-4.66-7.02-2.6-11.29 9.79-11.53 34-63.85 37.37-94.75 13.9-38.93-29.5-47.15-97.62-26.64-164.54 4.37-14.35 6.27-16.95 8.63-26.69l13.9 3.01c19.06 4.17 17.8-7.72 4.91-25.08l-6.87-9.28 7.47-14.8c9.53-18.96 21.82-17.8 35.47-22.07 10.23-3.2 30.85-23.72 32.2-32.7 2.26-15.35-.15-28.44 37.27-45.75 28.6-13.24 61.4-20.06 94.46-20.82zm500.96 28.7c22.98-.4 42.4 23.82 24.78 30.5-10.93 4.16-12.29 2.45-25.08-4.52-21.42-11.74-14.4-25.78.3-25.98zm-494.4 19.96c19.32-.35 18.02 11.84-2.3 18.46-22.32 7.22-52.37 25.23-62.8 41.23l-1 1.7H168.2c19.06-39.67 65.41-60.79 101.73-61.39zM95.34 89.39c9.42 0 8.62 6.52-1.96 15.95-10.04 9.03-13.55 9.73-17.46 3.51-3.51-5.57 10.33-19.46 19.41-19.46zm202 8.28a38.62 38.62 0 0 1 7.12.2c26.79 3.3 46.55 9.93 54.27 34.76H230.71c5.52-4.52 12.84-9.63 23.88-15.65 13.44-7.38 26.58-18.31 42.74-19.31zm153.5 55.37c3.8.1 7.52.36 11.33.5.7 5.77 1.15 11.64 1.1 17.71-2.2-.3-8.02-2.5-10.28-2.76-25.23-2.6-29-1.75-39.78 8.93-14.65 14.5-15.2 21.77-1.7 21.77 8.17 0 9.63 2.16 7.42 10.79-1.5 5.87-4.22 17.15-6.02 25.08-4.67 20.57-25.99 36.32-45.55 42.54-14.2 4.51-29.7 7.07-45.34 8.17.2-19.06.35-25.43.55-39.27 25.33-10.29 49.5-37.63 58.99-68.07a92.43 92.43 0 0 0 4.11-24.93c23.13-.3 54.63-.7 65.11-.46zm-88.54.86c1.25 31.6-16.56 55.68-39.38 68.82.15-8.03.4-31.5.5-33.1.75-19.47 14.3-34.67 38.88-35.72zm123 1.15c55.82 4.77 103.28 17.16 142.95 35.92-13.64 3.86-30.04 4.71-49.66 3.66-19.56-1.05-22.97.25-22.97 7.82 0 5.27 6.87 12.54 16.9 17.91 15.55 8.28 17.46 10.74 16.86 31.15-1.2 42.84-49.76 66.97-81.67 67.07-26.38.1-33.5-9.18-14.8-19.06 13.2-7.03 12.15-21.22-2.15-30.5-11.54-7.43-12.24-7.17-24.68 9.03a73.59 73.59 0 0 1-13.14 13.34c-11.79-6.17-26.09-17.96-20.77-22.22 18.76-14.9 34.71-32.96 42.64-51.52 5.12-12.14 8.73-10.78 14.95-2.9a20.47 20.47 0 0 0 36.92-12.95c0-10.88-10.34-20.06-40.38-26.38 0-7.03-.36-13.75-1-20.37zm-324.96 4.16c27.24 12.5 53.53 35.47 54.93 82.12-12.8 3.51-22.97 6.97-22.97 6.97s-12.14-7.22-15.25-13.04c-15.4-29.14-19.57-54.43-16.7-76.05zm494.7 46.15a282.81 282.81 0 0 1 38.12 27.4 135.29 135.29 0 0 0-22.97 28.53c-6.27 10.89-7.73 29.45-15.3 40.48-11.29 16.4-12.64 22.08-9.98 41.29 1.15 8.17-.2 18.06 2.76 25.33-49.16-35.16-126.66-34.01-176.77-13.7-11.84 4.77-13.15 5.62-16.46-2.9-4.46-11.44 8.33-21.92 20.62-22.48 4.11-.15 11.54 2.86 15.45 3.62 63.86 11.73 132.18-39.18 125.4-96.62-1.85-15.4-3-18.2 21.88-23.67a53.67 53.67 0 0 0 17.25-7.28zm-204.76 5.02a4.3 4.3 0 0 1 3.71 5.47c-3.71 12.44-12.69 26.03-23.98 33.1-11.03 6.88 1.71-16.3 4.12-24.22 4.01-13.2 9.58-12.04 12.89-13.6 1.2-.6 2.3-.8 3.26-.7zM708.3 246.6c63.6 63.15 90.9 152.94 90.9 252.66 0 70.23-17.26 133.83-47.5 186.25l-.86.05a315.07 315.07 0 0 0-37.12-2.86c-10.78-.3-25.43-9.43-27.59-16.35 49.21-34.76 68.22-90.29 54.68-144.87-4.12-15.4-16.6-49.15-7.08-45.8 20.22 7.13 24.13-.65 6.02-12.08-6.92-4.37-11.88-6.72-4.46-14.85 4.61-5.02 8.38-12.44 8.38-16.4 0-9.33-15.3-23.08-25.69-23.08-4.46 0-8.07-2.1-8.07-4.76 0-2.61 2.5-4.77 5.52-4.77 14.94 0 21.92-25.28 15.55-56.68-3.92-19.46-9.13-19.16-9.03.6v15.55l-22.88-1.5c-18.56-1.1-22.92.1-22.92 6.37 0 12.94-16.7 5.97-18.31-7.68-1-8.58 7.22-16.55 19.26-29.54 18.96-20.47 20.57-25.19 9.93-29.25-13.34-5.02-.85-27.24 11.5-41.13 2.7-3.11 6.21-6.52 9.77-9.88zm-492.89 12.59v9.53a65.13 65.13 0 0 1-9.43-5.92c2.86-.95 6.22-2.3 9.43-3.61zm196.64 19.06c3.9 9.83 19.3 27.79 28.39 29.5-10.59 19.96-27.24 32.3-8.03 47.65 8.03 6.52 14.4 8.73 14.15 15.25-.3 8.62 13.04 2.2 18.9.45 18.72-5.57 18.37 5.37 24.74 14.04a43.44 43.44 0 0 1-7.53 59.7c-35.46 29.84-81.6 1.75-66.36-35.97 3.51-8.68-.5-20.32-3.71-24.83-10.94-15.15-56.43-10.33-73.69-6.67-4.36.9-10.73 1.75-17.9 2.8l.7-76.09a206.97 206.97 0 0 0 43.79-9.58c14.9-5.17 38.02-13.14 46.6-16.25zm141.3 77c13.95-.1 27.34.8 36.02 3.4 27.24 8.23 57.89 25.9 57.89 33.42 0 3.16-9.64 8.22-21.37 11.33-25.18 6.67-31.8 19.27-19.77 37.47 11.94 18.01 7.33 26.84-10.53 37.22-7.38 4.32-28-7.37-26.64-8.87a7.61 7.61 0 0 0 7.63-7.58c0-3.71-2-5.52-4.52-5.62-3.16-.1-6.02 3.11-8.83 7.53-3.8 5.87 2.71 31.7 49.97 24.68 8.72-1.3 17.05-7.28 20.56-7.28 4.12 0 6.52-7.62 7.13-22.22.75-19.56 6.52-30.05 16.8-30.25 1.75-.05 4.71 9.03 6.57 20.22 1.86 11.14 5.52 24.28 8.13 29.14 3.16 6.02 3 10.59-.6 14.1-6.63 6.52-6.78 12.84-.3 12.84 2.7 0 6.82-4.92 9.12-10.94 5.37-13.89 17.76-24.22 24.33-20.21 11.14 6.82 4.97 38.88-13.7 63.1-28.99 37.62-49.55 62.05-38.92 99.83 9.08 32.45 10.79 23.27-4.16 35.26-13.8 11.04-56.94 31.2-85.28 33.6-10.13-25.62-29.5-42.43-55.33-60.19-30.24-20.86-33.3-39.62-13.04-58.54 27.04-25.08 62.6-22.42 78.05 5.97 8.03 14.8 8.03 16.16 0 28.3-4.66 7.02-10.18 12.74-12.34 12.74-11.33 0-19.06-7.13-19.06-17.56 0-8.68-2.25-11.34-8.52-10.03-11.04 2.25-9.23 31.3 2.55 40.13 16.9 12.74 47 1.9 62-7.08 4.97-3 13.35-18.15 13.15-30.95-.15-9.38 8.72-14.14 12.79-22.17 3.3-6.52 5.82-13.04 4.71-23.72-.9-8.38-4.16-15.35-7.02-15.35-2.66 0-2.9 3.5-4.61 12.74-1.91 9.88-6.02 16.7-10.14 16.7-5.41 0-6.27-4.61-3.91-21.57 2.36-16.9 1.15-23.57-5.67-31.05-12.34-13.5-16.05-11.84-17.7 8.08-1.71 20.16-13.55 28.34-13.55 9.38 0-30.35-24.38-49.41-28.19-22.07-2.86 20.36-10.33 25.48-21.97 15.15-14.15-12.54-27.09-16.3-34.76-10.04-4.82 3.97-5.22 7.83-1.56 14.55 6.92 12.84 1.7 18.51-17.1 18.51-17.2 0-23.08 6.97-16.56 19.61 2.81 5.42 3.16 15.85-7.82 18.66-11.04 2.86-16.9 11.5-6.47 17.36 4.06 2.3-2.11 5.47-1.1 25.63a21.62 21.62 0 0 1-14.9 4.67c-2.36 0-9.74 1.55-13.7 5.01-4.01 3.52-4.51 8.93-8.73 14.15-4.16 5.17-10.83 6.52-13.74 11.59-2.86 5.06-2 13.84-2.2 17-.31 4.67-4.92 7.58-5.13 10.54-.2 3 4.07 6.07 4.07 9.73s-4.62 8.52-4.37 12.84c.2 4.31 5.32 8.18 5.67 10.83.65 5.27-1.9 10.54-.6 13.85 1.25 3.3 6.37 4.66 8.28 6.07 4.46 3.2 7.37 10.03 6.47 15.15-1.36 7.77 1 9.18 14.04 8.62 12.4-.55 15.65 1.16 15.65 8.33 0 11.24 9.03 11.49 31.35.95 28.25-13.34 30.6-45.7 3.42-48.3-14.8-1.4-15.6-.7-12.7 10.73 4.42 17.36-9.12 16.26-27.84-2.25-13.39-13.25-14.5-16.7-12.39-38.43 1.86-19.06 5.52-26.99 18.11-39.12l15.8-15.35c22.08 47.8 60.4 56.48 103.44 64.5 3.51 8.23.65 28.25-1.8 40.64-5.27 26.68-26.34 51.91-45.45 72.73h-57.9c-83.81-.3-112.66-36.07-112.66-156.3 0-25.74-.35-51.27-.6-76.55 5.02 3.3 8.33 6.17 10.54 7.02 9.33 1.15 28.24 17.3 37.52 33.1 10.38 17.67 15.15 13.55 5.52-4.76-10.54-19.91-9.08-40.28 4.66-65.86 16.2-30.2 16.1-48.7-.3-51.82-12.94-2.5-30 5.52-28.44 28.65 2.46 37.52-23.58 23.32-27.19 23.07-1 0-1.6-.1-2.56-.15-.35-26.69-.65-52.92-.65-76.45 0-26.98.15-58.69.4-91.2 32.4-14.34 77.65-6.11 75.24 3.12-13.44 51.92 40.84 82.26 79.61 67.21 65.11-25.33 51.57-86.93 22.07-110.95 7.53-2.66 32.4-5.72 55.68-5.97zm121.24 37.77c1.81 0 3.92.6 6.22 1.86 11.54 6.12 21.07 22.32 17 28.84-5.5 8.88-21.81 4.71-27.18-6.97-6.27-13.55-3.81-23.88 4.01-23.73zm-224.77 3.31c-4.42-.25-5.17 2.76-5.17 11.84 0 7.62 1.46 15.3 3.21 17.05 5.72 5.62 19.56 3.36 25.94-4.21 7.27-8.68 0-18.06-18.31-23.48a27.04 27.04 0 0 0-5.67-1.2zM57.2 497.91s1.9 5.01 1.66 15.4c-.3 12.54-1.5 35.21 16.75 54.77 4.21 4.52 1.25 8.33-3.71 8.33-9.78 0-15.9-8.28-24.53-33.06-6.52-18.6-6.52-22.57-.2-34.7 3.71-7.03 7.22-10.74 10.03-10.74zm666.45 21.42c2.61 1 4.37 9.63 4.92 14.8 3.06 31.1-6.77 89.03-52.02 118.23-8.83.15-8.53-17.71-9.53-25.59-5.02-37.12 18.36-51.06 41.63-90.54 5.52-9.18 9.43-14.55 13.8-16.8a1.4 1.4 0 0 1 1.2-.1zm-564.52 94.3c8.53 7.63 16.5 50.36 12.29 76.4-1.4 8.78-5.67 15.55-9.43 15.55-4.42 0-3.36-12.54-6.77-22.02-8.03-22.22-20.42-40.28-36.57-46.9 7.57-9.38 19.26-17.31 40.48-23.03zm-49.16 37.22c13.34 9.18 29.5 25.74 28.24 57.19-1 26.53-8.63 54.77-25.88 73.23-12.04 12.84-19.62 15.05-25.58 19.17-8.08-70.83 7.02-122.75 23.22-149.59zm356.45 3.01c14.25 1 40.43 12.24 49.71 21.87 6.72 7.02 8.63 13.95 20.22 27.4a278.5 278.5 0 0 1-41.29-11.85c-28.19-11.74-29.7-26.43-28.59-37.37zm203.2 23.93c37.63 14.95 2.72 16.9-15.74 33.2-35.07 30.96-55.38 67.93-58.74 106.35a286.83 286.83 0 0 1-75 15c18.62-28.9 43.85-56.33 42.8-88.04-.4-12.24.34-18.1 4.56-22.07 41.63-6.07 77.85-27.74 102.13-44.44zm70.74 25.63.2.05a290.49 290.49 0 0 1-121.3 104.34c8.03-49.66 45.45-92.45 95.36-99.77 10.09-1.5 18.41-3.01 25.74-4.62zm146.77 65.71c2 0 3.91.25 5.77.66 55.48 12.34 58.69 104.73 5.17 146.27-21.12 16.35-42.8 19.56-78.76 11.54-33.6-7.43-43.79-15.35-30.2-23.38 20.17-11.99 37.12-29.9 37.88-40.13.7-10.03 2.4-10.53 23.07-7.87 20.32 2.65 23.28 1.75 32.76-10.14 16.55-20.86 11.53-45.24-9.33-45.24-10.39 0-15.85 13.54-8.88 21.87 2.9 3.5 3.91 8.62 2.2 11.33-6.01 9.68-16 4.77-23.97-11.83-7.73-16.1-7.63-17.31 1.95-29.35 11.8-14.85 28.35-23.93 42.34-23.73zm-407.67 122.4c6.63 0 .1 24.23-9.38 34.61-9.53 10.43-18.66 10.74-22.52.8-3-7.72 21.97-35.36 31.9-35.36zm-325.05 19.36c10.04-.2 21.67 3.26 28.35 10.54 9.63 10.43 20.71 28.84 20.71 34.26 0 3.36-23.92 2.9-33.76-.66-10.78-3.86-33.76-26.23-33.76-32.8 0-7.38 8.38-11.19 18.41-11.34zm-31.25 35.01c4.02-.3 11.54 4.27 19.27 11.9 13.54 13.44 14.04 14.94 5.16 14.94-12.89 0-33.96-21.47-25.93-26.38a3.36 3.36 0 0 1 1.5-.46zm652.1 10.19c9.09.4 16.66 6.52 16.66 14.85 0 6.42-15.4 8.32-27.74 3.4-9.68-3.86-6.92-14.54 4.57-17.55a22.07 22.07 0 0 1 6.52-.7z"/></svg>
