<svg viewBox="0 0 1000 1000" xml:space="preserve"><path d="M281.1.1c-58.4 1.6-121.97 20.7-180.17 58.25-23.69 15.29-23.03 20.62-25.01 3.62-3.2-27.43-42.74-29.98-56.96-3.67-4.83 8.93-4.4 13 2.41 23.3 4.55 6.87 6.33 15.53 5.47 19.69-2.52 12.23 9.13 20 14.08 27.55-2.88 8.82-6.02 16.3-17.17 8.3-6.57-4.71-20.2-5.8-23.11 2.87-1.24 3.7-1.01 14.1-1.01 14.1 0 7.61-2.45 15.96 8.45 23.28 6.2 4.16 6.57 3.86 14.72 4.2C-15.32 274.1-2.34 395.3 58.1 409.36c31.21 7.26 35.42 11.39 37.22 26.68.9 7.61 4.07 16.76 7.05 20.33 4.16 4.97 3.27 8.04-3.76 13.13-12.01 8.7-24.9 8.45-28.37-.52-3.6-9.27-13.22-9.06-33.97.74-13.93 6.58-20.03 11.2-21.6 29.84-6.27 74.1 27.34 94.56 90.88 91.18 21.91-1.17 31.35 4.59 37.8 8.6-12.77 6.53-25.18 11.74-43.15 31.71-12-2.08-21.28-1.33-29.01.88-15.89 4.52-20.87 4.49-22.4-6.2-1.16-8-5.92-11.12-20.83-13.6-7.97-1.34-15.26-2.07-18.79-1.96-1.17.03-1.93.15-2.15.39-.89.91-2.37 10.26-3.3 20.76-1.49 16.91-.4 19.28 9.47 20.67 15.66 2.2 18.42 13.72 6.35 26.44-13.73 14.47-13.45 30.41.58 33.09 21.9 4.17 40.43 3.23 46.07-2.36 9-8.9 6.9-13.38-6.27-13.38-9.69 0-12.06-2.37-12.06-12.1 0-16.65 10.32-31.54 26.91-39.45a24.88 24.88 0 0 1 19.15-.63C70.75 682.86 61.2 759 65.12 808.19c-6.4 2.41-7.7 3.25-14.4 2.29-8.75-1.25-27.85-16.55-26.05-35 1.24-12.63 3.76-15.5 14.76-16.75 10.56-1.2 13.25-3.97 13.25-13.55 0-11.5-.91-11.89-20.2-8.66C.64 741.85-8.8 756.82.43 787.32c4.92 16.25 7.25 18.52 16.63 16.2 18.34-4.56 18.35 6.8 0 25.4-9.6 9.73-17.44 19.2-17.44 21.06 0 1.86 9.3 3.38 20.66 3.38 17.93 0 22-1.82 29.37-14.58 7.17-12.4 4.65-9.38 16.53-9.65 3.56 27.34 9.46 66.13 34.55 94.24l-11.04 9.54c-9.71 8.81-22.75 15.94-29.15 15.94-11.97 0-27.16-17.26-27.16-30.86 0-8.13 7.5-9.87 11.93-2.76 4.46 7.14 17.01.16 17.01-9.48 0-11.03-24.4-16.94-38.7-9.35-10.28 5.44-24 31.22-24 45.07 0 12.18 25.83 36.68 46.02 43.65 18.9 6.53 25.73-1.7 32.4-8.87 3.67-3.95 5.02-8.24 16.14-11.12 7.22 8.2 9.3 13.43 17.56 19.91 6.6 5.18 20.78 8.74 43.43 7.5 8.25-.43 13.27-3.4 13.27-7.87 0-7.87 5.99-8.86 10.44-2.62 4.8 6.73 50.68 4.81 67.11 1.57 20.33-4 60.52-17.09 62.32-50.37 2.29-42.2-8.58-40.16-22.98-45.58-21.38-8.04-48.3 2.78-42.61 25.18 1.69 6.67 4.65 12.1 6.6 12.06 7.3-.15 14.52-7.41 16.22-16.3 3.02-15.76 11.34-10.77 12.9 7.73 1.66 19.73-8.2 29.08-36.03 34.12-13.97 2.54-22-.5-28.11-13.28-17.54-36.7-56.51-53.69-98.7-28.35-15.39-20.98-25.18-53.24-27.65-76.7-.46-4.3-.4-5.96 5.63-10.33 84.15-40.95 100.56-120.94 96.4-165.3-1.9-20.11-3.64-35.9-12.84-48.11 3.2-1.7 16.7-6.07 19.08-6.23 6.65-2.4 12.16-3.68 18.17-5.45-.03 4.39 0 5.92-.02 10.49-1.5 254.4-87.53 235.25-115.72 251.53-5.22 3.02.33 7.07 6.32 7.07h16.77c91.73-.03 275.19-.18 275.19-.18 20.65-.02 49.69 0 73.46 0-5.4 8.82-11.75 15.64-23.13 16.39-5.5.04-17.68 4.7-27.06 10.43-9.37 5.74-24.8 11.68-34.27 13.21-21.23 3.42-27.86 19.34-8.05 19.34 14.3 0 22.66-1.63 5.19 28.65-9.71 16.8-8.93 22.63 4.9 36.32 13.64 13.5 28.96 12.23 40.29-3.35 8.5-11.69 16.06-11.54 23.62.45 6.77 10.73 29.5 12.96 38.74 3.81 3.18-3.15 5.84-13.36 5.9-22.67l.12-16.96 7.36 14.77c4.05 8.13 16.05 19.62 26.68 25.54 18.35 10.21 20.95 10.44 50.91 4.54 26.18-5.14 33.6-8.83 43.42-21.56 10.24-13.3 11-16.69 5.62-25.2-7.36-11.67-15.78-15.52-25.7-11.75-8.38 3.18-9.7 18.75-2 23.47 3.73 2.3 3.75 4.68.07 8.34-3.69 3.65-8.8 1.78-17.79-6.5-11.07-10.22-12.29-14.33-10.01-33.67 1.58-13.45.46-24.15-2.89-27.46-9.4-9.3-30.17-6.1-42.14 6.51-11.7 12.34-26.1 15.57-31.4 7.07-3.04-4.87 1.08-16.52.8-28.95-.17-7.15 1.1-14.03 3.1-20.77h65.36c10.1 0 20.17-.63 30.22-1.63 6.46 23.52 19.39 46.9 39.52 69.1 8.44 9.3 18.34 19.49 20 24.63 7.06 22.06 79.86 48.37 132.72 41.02 7.4-1.03 23.15-10.28 30.34-11.06 88.98-9.68 124.77-79.51 139.43-120 2.23-6.17 3.35-15.64 7.47-20.19 7.69-8.48 10.24-41.06 4-51.06-2.62-4.2-4.32-2.9-10.1-.19-6.37 3-11.1-10.38-16.8-24.93-3.44-8.83-7.62-26.58-7.44-39.7l.33-23.87 22.9 1.43c20.88 1.3 23.44.28 28.89-11.56 4.93-10.72 4.8-13.38-.8-15.23-24.11-7.96-51.64-51.64-44.97-71.35 3.6-10.59 15.23-6.35 22.92 8.37 9.23 17.66 25.1 19.23 29.25 2.87 8.64-34.08-25.45-54.22-57.43-37.5C926.57 591 920.3 597.63 920.3 604c0 5.34-3.13 13.47-6.97 18.06-5.25 6.29-15.8 24.4-7.24 70.2l12.34 66-24.41-3.01c-33.55-4.16-61.37 13.39-86.08 50.32-19.2-.48-23.57 9.87-31.47 19.91l11.9 12.7c24.48 26.14 8.7 43.31-23.13 25.17-15.58-8.87-23.02-10.2-42.34-7.57-26.68 3.64-30.38 8.97-35.58 19.12-7.02 13.74-13.58 28.25 12.36 33.9 11.77 2.57 16.64 7.76 17.8 15.82 1.95 13.44-8.62 29.38-26.27 19.4-39.42-22.27-61.6-52.25-70.47-83.38C763.6 835.77 893.1 711.86 911.87 526.96c12.08-19.39 24-36.14 34.31-35.06 3.95.4 13.67-8.03 15.24-10.54 4.4-7.04 12.5-1.27 12.5 6.73 0 3.94-3.4 7.16-7.54 7.16-5.6 0-6.97 7.45-6.02 15.52.98 8.4 2.98 15.41 15.58 14.51 7.73-.55 15.34-4.16 18-7.16 6.52-7.33 18.16-47.37-3.72-65.09-25.14-20.34-57.65 16.22-76.13 35.2.05-2.62.18-5.19.18-7.83 0-114.44-53.38-214.3-143.6-277.35 27.9-13.4 59.42-21.87 89.76-16.66 11.3 1.95 23.22 7.82 21.84 12.99-2.93 10.92-10.62 12.1-26.25 1.97-8.42-5.47-12.36-5.97-14.92-1.87-1.91 3.07-1.85 9.07 2.4 10.75 6.16 2.44 6.5 8.5 9.53 14.2 3.04 5.72 17.95 11.6 31.63 20.34 28.7 18.3 50.18 20.06 50.69-12.72.13-8.8 1.56-13.09 5.94-13.2 3.4-.08 8.52 2.37 15.93 7.17 15.22 9.87 10.92 40.24-3.75 61.84-6.06 8.92-15.83 16.9-21.71 17.75-12.13 1.73-12.37 1.1-6.16-15.07 3.83-10 2.93-12.23-6.03-14.81 0 0-6.68-2.42-9.76-1.29-4.98 1.83-10.66 11.78-10.66 11.78-8.43 11.9-4.78 22.3 15.35 43.8 6.27 6.69 11.38 16.9 11.38 22.68 0 14.7 17.7 25.38 42.07 25.38 26.35 0 27.96-11.93 3.7-27.5-20.71-13.27-21-19.35-1.75-37.25 8.28-7.71 16.7-21.73 21.76-29.54 11.25-17.4 10.35-29.61 4.25-44.06-3.9-9.23-10.42-18.06-14.51-19.61-10.12-3.84-9.37-11.11 2.39-23.5 8.59-9.05 9.08-12.06 3.89-23.32-6.41-13.94-33.54-27.95-45.4-23.45-4.01 1.53-10.53 8.96-14.48 16.52-7.87 15.07-12.2 16.4-27.24 8.42-5.51-2.92-19.91-5.32-31.75-7.32-38-6.41-80.27 4.6-116.77 23.13a374.64 374.64 0 0 0-63.44-30.8c9.82-22.75 14.77-47.9 15.22-65.47.8-31.55 34.95-19.79 40.34 13.58 3.52 21.8 13.63 26.82 34.54 26.82 12.94 0 13.45-.82 10.44-16.71-3.47-18.33 6.37-24.6 11.02-7.02 1.54 5.82 12.08 15.06 27.28 21.01 110.54 40.96 171.77-46.43 134-112.35C950.07-.2 919.99.44 899.78 4.7c-10.03 2.12-11.6 5.74-11.6 23.11 0 13.96 2.9 22.83 9.36 28.6 8.63 7.73 10.2 7.8 20.37.75 24.76-17.17 37.79-5.8 27.99 24.4-8.58 26.43-29.42 38.92-49.52 38.53-31.57-.6-39.55-2.05-40.46-32.33-1.43-47.5-58.95-81.87-119.84-63.62-24.13 7.23-29.06 10.74-35.04 24.9-9.07 21.5-18.84 20.85-30.62-2.01-14.59-28.3-44.97-30.47-63.61-4.56-12.75 17.73-23.5 15.76-30.75-5.6-5.63-16.64-5.8-16.72-37.8-18.13-29.12-1.27-33.32-.25-44.63 10.95-11.32 11.2-12.18 14.67-9.27 37.23 2.08 16.17 6.63 27.77 13.01 33.21 10.83 9.23 25.82 11 30.45 3.59 1.64-2.63.69-4.78-2.12-4.78-9.58 0-5.44-23.36 5.14-28.97 11.88-6.3 31.23 1.44 35.56 14.22 9.56 28.25 50.72 45.6 73.56 31 13.4-8.56 13.76-16.93 1.17-28.21-10.5-9.4-14.44-8.08-16.46 5.56-2 13.46-14.66 10.45-16.34-3.88C605.3 62.7 647 51.28 672.45 71.09c12.19 9.5 13.92 12.41 10.46 33.93-3.23 20.1-7.73 35.86-13.62 48.4-40.3-12.8-84.41-20.29-132.1-20.72-8.6-.08-37.32-.02-56.69 0C460.8 43.18 378.18-2.54 281.13.1h-.02Zm-19 22.43c85.19-1.91 171.72 36.86 194.03 110.18-16 .02-22.69 0-40.61 0h-33.58c-11.89-47.6-66.78-78-115.42-77.92-48.27.06-103.97 36.43-117.08 71.5-.83 2.23-1.29 4.25-2.02 6.41h-42.43c-6 0-10.3 2.55-6.32 7.07 3.46 3.92 22 6.1 43.2 12.94-9.03 42.79 3.3 74.8 32.78 107.15-.79 4.01-6.09 11.27-11.03 14.12-6.82 3.94-11.29 7.15-21.89 1.53-8.88-4.7-11.86-10.2-11.86-21.9 0-16.7-4.86-21.97-21.14-22.93-8.43-.5-10-3.28-8.99-16.03 1.47-18.47-5.27-19.9-16.18-3.42-6.9 10.44-7.16 14.85-1.84 33.65 4.44 15.7 4.72 24.53 1 32.16-2.82 5.78-6.25 18.57-7.62 28.41-2 14.38-.12 20.72 9.68 32.23 6.7 7.88 16.49 14.34 21.73 14.34 14.59 0 28.2-8.91 28.2-18.47 0-12.26-4.6-15.19-14.35-9.15-19.86 12.28-33.19-10.65-15.44-26.55 14.5-12.98 29.36-9.55 48.51 11.2 16.85 18.24 29.5 24.42 29.5 14.43 0-2.57-5.3-8.1-11.77-12.3-11.9-7.72-12.49-19.98-1.25-23.53 6.12-1.93 14.7-8.37 19.5-15.17a164.26 164.26 0 0 0 25.05 14.81c.05 60.44.1 116.47.19 163.9-3.01 1.11-6.05.98-9.45-1.14l-.28-.18c-9.97 2.88-26.81-8.25-26.81-19.84 0-12.7-7.15-14.94-11.54-3.61-9.44 24.35 9.16 59.05 26.05 48.61 4.08-2.52 6.92-3.87 9-3.74.33-.03 5.91-1.16 13-3.17.01 9.02-.05 21.48-.05 31.04-3.5 0-7.1-.16-11.24-1.2a26.5 26.5 0 0 1-5.9 2.03c-6.63 1.57-12.84 7-13.83 12.07-.98 5.08-5.33 11.96-9.66 15.3-7.24 5.6-7.16 6.66 1.05 12.96 6.5 4.99 12.2 5.63 20.9 2.35 9.7-3.64 15.05-3.77 17.05.24.28-.04 1.13-.24 1.56-.3-.03 11.72 0 20.67-.06 33.81-18.68 3.94-44.99 9.55-49.7 13.48-16.77-14.27-59.23-23.84-70.8-28.34-13.08-5.09-22.75-22.48-16.78-43.9 7.61-27.27 24.84-31.88 73.83-19.72 19.28 4.78 14.86-7.3-6.36-17.38-31.05-14.75-29.58-35.8 5.13-73.4 23.75-25.73 28.4-38.84 17.56-49.58-4.72-4.67-7.05-2.64-11.28 9.77-11.56 34-63.87 37.34-94.75 13.91-38.92-29.54-47.13-97.64-26.65-164.58 4.38-14.3 6.3-16.93 8.67-26.67l13.88 3.02c19.08 4.14 17.79-7.7 4.9-25.08l-6.86-9.26 7.46-14.83c9.53-18.94 21.84-17.79 35.46-22.05 10.23-3.2 30.88-23.72 32.21-32.7 2.28-15.35-.13-28.44 37.27-45.75 28.64-13.25 61.42-20.09 94.47-20.83Zm505.1 25.94c27.88-.4 51.35 25.39 30.06 32.5-13.24 4.41-14.9 2.6-30.37-4.84-25.98-12.5-17.46-27.4.31-27.66ZM268.64 71.22c19.33-.33 18 11.86-2.29 18.46-22.3 7.24-52.36 25.24-62.83 41.22-.36.55-.68 1.23-1.04 1.8h-35.63c19.06-39.74 65.44-60.86 101.8-61.48ZM94.02 89.39c9.43 0 8.65 6.5-1.92 15.97-10.07 9.02-13.6 9.73-17.47 3.52-3.5-5.6 10.32-19.49 19.4-19.49Zm202 8.28a39 39 0 0 1 7.13.22c26.8 3.28 46.6 9.9 54.3 34.8H229.43c5.53-4.56 12.76-9.62 23.85-15.7 13.47-7.4 26.58-18.31 42.74-19.32Zm153.66 55.45c3.78.1 7.2.54 10.91.7.7 5.7 1.44 11.38 1.4 17.43-2.21-.31-8.08-2.53-10.3-2.76-25.24-2.6-29.01-1.74-39.8 8.94-14.62 14.47-15.19 21.78-1.7 21.78 8.18 0 9.65 2.13 7.45 10.75-1.51 5.9-4.2 17.18-6 25.06-4.7 20.64-26.01 36.37-45.58 42.58-14.11 4.46-29.52 7.05-45.11 8.13.24-19.09.36-25.5.57-39.34 25.23-10.36 49.29-37.58 58.73-67.97a89.88 89.88 0 0 0 4.1-24.81c23.14-.27 54.86-.78 65.33-.5Zm-88.67.86c1.22 31.46-16.46 55.37-39.14 68.56.13-7.91.41-31.27.48-32.9.78-19.38 14.21-34.53 38.66-35.66Zm123.02 1.36c55.3 4.71 102.22 17.04 141.67 35.55-13.44 3.64-29.21 4.76-48.44 3.73-19.52-1.06-22.92.26-22.92 7.84 0 5.28 6.87 12.57 16.88 17.9 15.56 8.3 17.47 10.74 16.88 31.16-1.23 42.82-49.77 66.94-81.67 67.06-26.38.1-33.5-9.19-14.79-19.1 13.15-6.96 12.14-21.17-2.18-30.46-11.49-7.45-12.23-7.18-24.7 9a73.6 73.6 0 0 1-13.12 13.35c-11.8-6.15-26.13-17.95-20.75-22.22 18.73-14.87 34.7-32.93 42.57-51.5 5.15-12.13 8.78-10.77 15.01-2.92 12.65 15.93 36.91 7.43 36.91-12.92 0-10.87-10.31-20.05-40.36-26.37 0-6.9-.37-13.58-.99-20.1Zm-324.99 3.85c27.35 12.41 53.65 35.43 55.07 82.2-11.25 3.22-23.12 6.9-23.12 6.9s-12.15-7.23-15.23-13.06c-15.41-29.14-19.6-54.44-16.72-76.04Zm494.34 46.37c13.96 8.38 26.98 17.5 38.75 27.57-9.59 9.4-17.93 18.92-23.23 28.15-6.25 10.9-7.7 29.45-15.3 40.5-11.27 16.4-12.65 22.06-9.98 41.26 1.14 8.21-.19 18.07 2.73 25.36-49.17-35.18-126.66-34-176.74-13.72-11.85 4.8-13.17 5.63-16.49-2.92-4.42-11.4 8.37-21.92 20.65-22.44 4.1-.17 11.5 2.85 15.45 3.58 63.84 11.78 132.18-39.18 125.37-96.57-1.84-15.44-3-18.22 21.9-23.67a53.5 53.5 0 0 0 16.88-7.1ZM449 210.43a4.28 4.28 0 0 1 3.7 5.4c-3.73 12.47-12.68 26.03-24 33.1-11.03 6.9 1.71-16.26 4.14-24.22 4.03-13.18 9.59-12 12.87-13.59a6.17 6.17 0 0 1 3.29-.7Zm257.72 36.43c63.6 63.14 91.23 152.63 91.23 252.3 0 70.35-17.38 133.93-47.68 186.36-.24.01-.45.05-.71.04-8.93-1.34-20.73-2.38-37.1-2.85-10.8-.32-25.44-9.46-27.65-16.36 49.25-34.75 68.23-90.31 54.7-144.84-4.12-15.4-15.11-52.31-15.36-59.46 4.33-6.55 2.4-5.16 9.85-13.3 4.6-5.04 8.38-12.43 8.38-16.4 0-9.33-15.3-23.05-25.7-23.05-4.44 0-8.06-2.14-8.06-4.77 0-2.63 2.47-4.77 5.5-4.77 14.98 0 21.94-25.3 15.6-56.7-3.94-19.48-9.15-19.14-9.1.59l.07 15.52-22.91-1.43c-18.52-1.16-22.9.05-22.9 6.32 0 12.96-16.73 5.99-18.34-7.65-1.01-8.61 7.26-16.53 19.3-29.54 18.95-20.5 20.54-25.19 9.88-29.24-13.33-5.06-.8-27.27 11.51-41.19a176.4 176.4 0 0 1 9.49-9.58ZM214.4 259.08l.01 9.59c-3.61-1.88-7.11-3.8-9.74-5.86 2.95-.97 6.4-2.4 9.73-3.73Zm196.39 19.18c3.87 9.81 19.28 27.77 28.34 29.47-10.58 19.97-27.22 32.32-8.04 47.7 8.07 6.46 14.41 8.69 14.18 15.23-.31 8.6 13.03 2.2 18.9.44 18.71-5.57 18.35 5.38 24.71 14.01 13.68 18.53 11 44.19-7.46 59.72-35.49 29.84-81.65 1.78-66.39-35.95 3.5-8.67-.5-20.34-3.74-24.82-10.95-15.14-56.42-10.35-73.67-6.7-4.31.9-10.47 1.7-17.5 2.72.23-26.73.27-51.3.55-76.01 15.72-1.8 30.54-5.1 43.5-9.57 14.91-5.16 38.05-13.14 46.62-16.24Zm154.88 77.25c8.74.42 16.6 1.4 22.4 3.14 27.22 8.22 57.87 25.92 57.87 33.43 0 3.13-9.6 8.23-21.34 11.34-25.18 6.67-31.8 19.23-19.76 37.44 11.92 18 7.33 26.84-10.58 37.26-7.35 4.27-27.98-7.38-26.62-8.92 4.2 0 7.64-3.4 7.64-7.56 0-3.7-1.98-5.49-4.47-5.6-3.2-.14-6.04 3.08-8.9 7.49-3.78 5.87 2.72 31.72 49.99 24.7 8.72-1.29 17.09-7.3 20.54-7.3 4.11 0 6.57-7.61 7.14-22.2.76-19.6 6.54-30.02 16.8-30.26 1.75-.04 4.71 9.06 6.58 20.22 1.87 11.17 5.51 24.3 8.1 29.17 3.17 5.97 3 10.57-.56 14.08-6.62 6.56-6.8 12.87-.33 12.87 2.72 0 6.84-4.93 9.15-10.95 5.34-13.89 17.76-24.23 24.3-20.23 11.14 6.82 4.98 38.9-13.69 63.11-28.96 37.59-49.53 62.03-38.92 99.83 9.1 32.43 10.8 23.26-4.16 35.27-13.79 11.05-56.9 31.2-85.23 33.57-10.16-25.64-29.52-42.42-55.37-60.22-30.26-20.84-33.31-39.62-13.01-58.5 27.01-25.12 62.59-22.4 78.02 5.97 8.06 14.82 8.06 16.16 0 28.31-4.64 7.01-10.18 12.75-12.31 12.75-11.38 0-19.13-7.12-19.13-17.57 0-8.7-2.21-11.33-8.44-10.05-11.09 2.27-9.26 31.3 2.52 40.16 16.9 12.7 46.98 1.9 62.01-7.1 4.95-2.97 13.32-18.14 13.12-30.96-.15-9.34 8.72-14.12 12.8-22.14 3.3-6.5 5.84-13.08 4.71-23.74-.88-8.36-4.15-15.38-7-15.38-2.69 0-2.9 3.58-4.64 12.77-1.87 9.88-6 16.71-10.1 16.71-5.44 0-6.27-4.63-3.93-21.57 2.35-16.94 1.12-23.61-5.67-31.04-12.35-13.5-16.02-11.84-17.72 8.07-1.72 20.15-13.55 28.3-13.55 9.35 0-30.32-24.35-49.37-28.18-22.05-2.86 20.36-10.32 25.5-21.98 15.15-14.15-12.58-27.1-16.3-34.76-10.01-4.78 3.93-5.2 7.79-1.56 14.5 6.94 12.85 1.71 18.5-17.1 18.5-17.2 0-23.08 7-16.54 19.64 2.8 5.4 3.15 15.85-7.82 18.67-11.02 2.85-16.9 11.46-6.48 17.35 4.08 2.31-2.13 5.47-1.12 25.64-5.57 4.24-9.97 4.65-14.88 4.65-2.34 0-9.72 1.56-13.7 5.06-3.97 3.5-4.56 8.91-8.72 14.1-4.17 5.18-10.82 6.54-13.73 11.6-2.9 5.07-2.06 13.85-2.25 17-.29 4.69-4.9 7.6-5.09 10.57-.19 2.98 4.06 6.03 4.08 9.7 0 3.65-4.63 8.48-4.4 12.82.23 4.35 5.34 8.2 5.67 10.85.66 5.29-1.89 10.53-.6 13.84 1.28 3.32 6.39 4.7 8.3 6.08 4.44 3.22 7.35 10.04 6.45 15.16-1.36 7.75.98 9.19 14.04 8.6 12.43-.56 15.67 1.17 15.67 8.36 0 11.2 9.02 11.47 31.34.93 28.27-13.35 30.56-45.7 3.42-48.3-14.81-1.4-15.61-.72-12.7 10.75 4.4 17.36-9.12 16.25-27.84-2.29-13.37-13.23-14.48-16.7-12.37-38.42 1.85-19 5.53-27 18.1-39.15l15.78-15.29c22.1 47.8 60.44 56.45 103.44 64.49 3.53 8.23.67 28.22-1.78 40.6-5.26 26.61-26.2 51.76-45.27 72.53-83.62.01-36.65.07-57.86 0-83.83-.3-112.65-36.03-112.65-156.24 0-26.66-.33-50.1-.63-76.25 4.82 3.2 8.18 6.08 10.36 6.89 9.28 1.17 28.2 17.32 37.46 33.08 10.4 17.67 15.16 13.6 5.51-4.71-10.5-19.95-9.06-40.28 4.7-65.9 16.22-30.2 16.13-48.72-.29-51.83-12.94-2.44-30 5.5-28.47 28.68 2.47 37.53-23.55 23.3-27.18 23.1l-2.34-.15c-.31-25.56-.63-53.98-.63-76.55 0-26.3.4-59.67.64-91.3 32.4-14.08 77.17-5.9 74.79 3.28-13.48 51.89 40.8 82.29 79.6 67.2 65.1-25.32 51.58-86.9 22.05-110.97 9.03-3.19 43.05-6.95 69.26-5.69Zm107.64 37.52c1.8.03 3.88.62 6.21 1.85 11.5 6.1 21.06 22.32 17 28.84-5.55 8.9-21.83 4.73-27.2-6.95-6.26-13.59-3.81-23.89 3.99-23.74Zm-224.81 3.29c-4.39-.25-5.14 2.76-5.14 11.87 0 7.61 1.44 15.28 3.2 17.03 5.7 5.65 19.56 3.39 25.94-4.22 7.28-8.68 0-18.02-18.29-23.45a27 27 0 0 0-5.71-1.23ZM55.89 497.9s1.9 5.06 1.66 15.42c-.3 12.5-1.46 35.18 16.74 54.74 4.25 4.56 1.26 8.35-3.67 8.35-9.79 0-15.92-8.27-24.55-33.05-6.48-18.65-6.53-22.62-.18-34.75 3.67-7.01 7.2-10.71 10-10.71Zm666.45 21.41c2.63.96 4.41 9.62 4.96 14.8 3.07 31.13-6.81 89.04-52.05 118.26-8.8.13-8.5-17.73-9.56-25.62-4.94-37.14 18.38-51.05 41.72-90.53 5.44-9.2 9.37-14.57 13.76-16.82.4-.2.8-.22 1.17-.09Zm-564.5 94.31c8.5 7.6 16.5 50.39 12.3 76.38-1.43 8.82-5.66 15.53-9.43 15.53-4.43 0-3.36-12.46-6.78-21.98-7.99-22.22-20.4-40.26-36.57-46.92 7.57-9.34 19.26-17.26 40.49-23Zm-49.17 37.22c13.37 9.18 29.5 25.73 28.26 57.23-1.04 26.49-8.63 54.72-25.88 73.15-12.05 12.89-19.65 15.12-25.59 19.2-8.09-70.84 7.06-122.71 23.21-149.57Zm356.49 3.05c14.24.94 40.39 12.2 49.7 21.86 6.73 6.98 8.6 13.9 20.2 27.37-6.18-.97-30.04-7.13-41.3-11.84-28.15-11.74-29.66-26.45-28.6-37.4Zm203.19 23.86c37.56 14.99 2.69 16.92-15.78 33.23-34.96 30.86-55.25 67.72-58.7 106.02-23.53 8.13-48.55 13.04-74.68 14.8 18.58-28.71 43.5-56 42.46-87.5-.4-12.24.34-18.13 4.56-22.04 41.6-6.12 77.83-27.76 102.14-44.5Zm70.5 25.72c-30.78 45.9-72 81.97-120.88 104.13 8.12-49.52 45.52-92.23 95.38-99.57 10-1.47 18.2-3 25.5-4.56Zm146.97 65.65c102.14 1.8 35.08 191.08-69 173.9-54.42-9-56.63-40.72-40.86-41.97 21.34-1.68 48.97-26.76 49.72-36.98.73-9.98 2.42-10.57 23.1-7.85 20.3 2.67 23.29 1.75 32.75-10.16 16.57-20.85 11.54-45.23-9.34-45.23-10.36 0-15.84 13.55-8.86 21.89 2.93 3.49 3.9 8.58 2.2 11.32-6.05 9.7-16 4.78-23.96-11.82-7.73-16.13-7.65-17.32 1.92-29.37 11.79-14.84 28.34-23.97 42.33-23.73ZM476.34 889.91c9.07 0 .13 27.93-12.8 39.95-12.93 12.01-25.4 12.36-30.67.86-4.06-8.87 29.97-40.8 43.47-40.8Zm-323.26 20.97c10.04-.17 21.74 3.29 28.39 10.52 9.61 10.45 20.74 28.85 20.74 34.3 0 3.35-23.94 2.88-33.76-.66-10.79-3.88-33.76-26.22-33.76-32.82 0-7.35 8.36-11.16 18.4-11.34Zm606.13 33.45c13.26.5 24.25 8.2 24.25 18.57 0 8.04-22.42 10.42-40.33 4.26-14.13-4.85-10.1-18.23 6.64-21.96 3.2-.71 6.38-.99 9.44-.88Zm-637.36 1.6c4-.35 11.56 4.24 19.28 11.87 13.54 13.41 14.06 14.94 5.15 14.94-12.85 0-33.94-21.45-25.92-26.36.42-.26.92-.4 1.49-.46Z"/></svg>