<svg viewBox="0 0 1000 1000"><path d="M834.1 0c-11.61 0-24.7 2.37-31.98 5.25-7.27 2.88-23.6 8.06-36.3 11.52-22.13 6.03-23.6 5.81-36.74-5.25-13.44-11.33-28.4-14.33-43.13-8.67-10.66 4.1-9.22 10.14 5.5 23.11 15.7 13.85 40.8 19.7 50.37 11.76 3.76-3.12 22.24-6.6 41.06-7.69 28.69-1.67 32.8-1.01 25.47 3.99-29.74 20.3-54.65 43.15-54.65 50.09 0 4.43-2.32 10.37-5.13 13.18-3.34 3.36-3.49 6.1-.4 8.02 2.58 1.6 13.84-4.69 25.63-13.06 62.01-44.05 116.72-17.57 117.1 37.6.1 13.04-13.81 39.46-18.63 39.46-10.25 0-20.33-12.7-22.9-28.8-4.21-26.34-27.87-47.06-36.95-32.35-1.6 2.58-8.3 4.72-14.9 4.72-10 0-11.55 1.73-9.52 10.58 1.97 8.56-1.66 13.27-19.04 24.7-17.77 11.67-21.68 16.83-22.58 29.98-2.47 35.83 25.68 71.7 53.1 67.63 18.66-2.77 19.72-8.5 2.36-12.82-28.89-7.17-43.3-35.35-25.84-50.53 18.92-16.46 53.98-12.77 49.89 5.25-.94 4.12 1.5 11.68 5.4 16.76 6.21 8.06 8.95 8.51 21.57 3.74 14.23-5.37 16.96-.22 9 9.85-24.6 31.1-52.02 63.75-68.97 97.33-20.08 39.76-20.11 35.41-52.05 14.24-33.13-21.96-98.15-37.1-85.81-62.82 1.05-2.2 2.96-3.27 6.59-1.88 3.62 1.4 10.23-.16 14.69-3.41 6.9-5.05 7.24-7.6 2.24-17.3-3.24-6.26-11.98-16.29-19.41-22.3-9.11-7.36-13.51-15.26-13.51-24.2 0-7.76-3.06-14.45-7.4-16.12-12.7-4.88-16.8-3.17-13.97 5.78 1.7 5.34-.89 11.86-6.75 17.17-13.9 12.6-12.06 33.49 4.64 52.53 17.9 20.42 17.7 24.4-1.18 24.21-8.4-.08-16.33.38-17.62 1.02-1.3.64-15.55 1.5-31.7 1.91-20.9.53-29.33-.98-29.33-5.2 0-3.27-6.37-10.63-14.12-16.36-7.75-5.74-14.08-12.04-14.08-14 0-1.96 9.84-4.18 21.85-4.97 29.74-1.95 34.44-10.68 18.51-34.18l-12.37-18.22 9.69-10.3c6.7-7.14 13.29-9.57 21.6-7.97 10.43 1.99 11.8.84 10.42-8.92-1.32-9.37-4.28-11.23-18.03-11.23-16.8 0-42.26 9.3-42.27 15.43 0 1.87-5.14 9.35-11.4 16.64-13.07 15.22-20.48 48.44-12.57 56.35 5.81 5.82 7.07 22.1 1.7 22.1-39.02-16.34-66.36-78.08-67.86-126.38l119.34-5.82c106.49 2.1 126.1 27.64 143.15 91.26 2.22 8.27 14.19 45.09 18.23 45.09 2.98 0 4.67-18.36 4.84-36.13.21-21.7 6.7-145-.37-146.9-7.8-2.09-24.05.94-35.44.98-60.12.23-150.46 4.03-240.07 7.65.62-.92.34-2.68 1.02-3.54 5.88-7.46 23.05-42.52 25.6-42.52 1.19 0 10.05 4.23 19.69 9.4 22.93 12.3 43.54 12.57 43.54.57 0-4.86-3.2-11.47-7.08-14.69-19.62-16.3 2.96-16.4 26.04-.16 21 14.78 51.45 30.55 92.57 12.73 19.42-8.41 21.27-24.56 3.54-20.18-6.46 1.6-16.84 4.89-23.36 5.78-28.45 3.88-64.07-22.94-98.55-28.32-17.83-2.78-27.26.22-45.5 9.76-21.71 11.37-41.62 32.17-41.62 43.46 0 10.8-7.57 4.12-21.16-18.68-7.75-13-16.21-26.62-18.8-30.27-10.9-15.38-67.07-9.4-96.8 10.3-10.25 6.8-21.99 11-27.06 9.68-18.87-4.94-19.83 4.7-1.26 18.92 27.4 20.97 30.5-20.93 43.99-8.3 60.25 56.45 56.08 5.27 78.2 11.56 8.55 2.42 18.96 18.08 16.36 27.06-.7 2.41 0 5.9-.57 8.46-47.15 1.8-101.6 4.19-131.22 4.19-63.55 0-124.61-5.98-133.55-5.98-6.95 0-15.87 1-15.87 6.96 0 10.71 19.46 10.08 34.14 14.77 32.01 10.21 70.8 44.03 70.8 79.59l1.43 606.6c.05 19.99-11.17 34.2-25.56 46.07-7.86-7.56-16.46-13.58-23.8-22.14-16.28-15.78-31.14-28.48-26.4-32.06 28-27.89 25.62-63.39 22.5-77.03-3.33-14.51-5.58-19.08 4.92-19.08 14.81 0 24.2-15.31 24.2-39.47V634.2c0-27.9-28.9 34.04-66.64-10.1-14.65-17.12-10.01-24.8 7.57-15.66 7 3.64 16.62 5.6 21.36 4.36 12.79-3.35 35.72-28.9 30.43-33.9-4.85-4.6-36.78-10.1-64.16-11.1-16.77-.62-19.19-1.23-21.81-22.06-7.53-59.7 7.04-84.07 46.83-93.06 3.34-.75 7.93 1.17 14.49 3.9 8.54 3.57 17.78 5.99 20.54 5.38 7.5-1.67 9.48 40.7-8.1 53.38-9.16 6.62-22.78 4.38-22.78-5.57 0-10.57-21.97-8.1-24.82 2.8-2.64 10.1 8.61 40.17 29.74 37.64 77.16-9.22 58.33-152.29 2.77-166.99-4.06-1.07-7.55-8.98-13.43-11.23-7.52-2.88-14.5-13.95-23.6-37.43-7.1-18.36-12.94-34.54-12.94-35.93 33.22-1.11 45.08-9.43 64.82-39.96 4.54 0 4.02 36.77-.73 50.54-4.34 12.59 3.81 14.22 18.76 3.74 8.9-6.24 9.38-9.26 5.57-34.1-4.7-30.7-12.25-39.02-35.44-39.02-12.96 0-17.38 2.89-25.39 16.48-11.67 19.81-26.04 21.86-30.43 4.35-3.9-15.56 1-20.1 23.4-21.6 13.9-.94 19.32-3.84 23.23-12.41 4.34-9.56 3.46-12.42-6.03-19.58l-11.1-8.38 10.62-5.7c5.83-3.12 12.23-5.47 17.86-2.4 12.32 6.74 15.33 10.4 15.26-5.9-.08-17.4-6.97-22.94-33-17.29-76.26 16.57-80.08 99.3-38.41 165.16 11.63 18.38 1.82 22.77-13.1 4.32-67.37-83.33-94.13-190.31-44.6-261.64 5.75-8.3 12.96-13.7 37.6-15.46 11.4-.82 14.36 1.03 15.58 9.6 1.43 10.07 3.53 10.58 43.46 10.58 23.5 0 29.33-11.93 29.33-14.45 0-2.52 8.05-4.76 17.62-1.87 26.2 7.9 39.14 13.32 64.1 9.8 1.03-.13-9.15-10.48-23.85-18.71-13.54-7.58-36.59-16.54-45.17-14.24-8.7 2.33-22.2 1.22-14.4-7.16 10.63-11.44 34.25-13.44 22.3-29.63C214.58.76 200.54.15 187.62.17c-25 .03-53.6 10.8-78.7 29.62-18.85 14.14-41.73 22.3-33 11.76 3.66-4.42 4.4-11.71 2.04-20.55-2.84-10.63-7.21-14.42-19.45-16.93C39.97.27 23.37 5.52 19.16 16.48c-4.56 11.9-3.4 41.44 1.91 49.36 3.99 5.93 6.55 4.83 16.16-6.88 16.62-20.25 18.69-12.15 5.13 17.46-51.79 107.49-2.9 215.88 78 297.8-5.65.12-15.78-.1-31.7-.8-13.23-.59-25.7-16.89-44.27-32.84-7.72-6.64-8.67-16.22-10.95-24.94-6.09-23.37-21.52 0-19.65 10.62 3.6 20.43 8.67 35.84 19.57 35.84 8.45 0 29.79 13.88 29.79 19.37 0 2.3-6.2 4.15-13.8 4.15-7.6 0-14.13 3-16.6 4.52-5.5 3.4-11.54-1.65-16.23.85-2.87 1.53-2.32 8.75 1.7 8.75 9.17 0 9.32 5 .45 16.72-7.54 9.99-10.18 67.92-3.09 67.92 6.86 0 13.41-10.82 17.05-28.2 4.67-22.33 5.52-22.44 16-19.04 14.53 4.71 22.52-9.23 38.57-11.64 12.6-1.9 23.45-16.24 21.07-26.61-3.97-17.33 22.5-13.97 65.27 8.3 23.23 12.09 27.79 25.3 8.55 24.78-19.82-.53-52.9 10.14-76.7 24.74-16.1 9.87-25.35 20.75-38.74 45.57-9.68 17.94-17.58 35.44-17.58 38.9 0 3.46-7.75 14.23-17.21 23.93-14.15 14.5-42.26 28.3-26.29 67.01 17.96 43.53 15.85 25.19 33.7-20.34 6.84-17.47 13.03-27.25 15.62-24.66 4.74 4.75 13.03 59.18 15.13 99.49.75 14.23 2.65 29.04 4.24 32.92 4.12 10.08-3.67 20.05-14.04 17.98-8.76-1.75-10.66-12.61-6.06-34.26 2.93-13.85-13.26-15.24-19.41-1.67a482.5 482.5 0 0 1-12.33 24.46c-4.04 7.44-7.63 19.69-7.98 27.22-.53 11.65 2.69 15.58 21.49 26.36l22.1 12.7 8.98-9.64c12.24-13.15 19.62-27.78 19.62-38.82 0-18.32 13.15-15.12 23.19 5.65 10.86 22.45 13.67 51.13 4.07 41.51-8.5-8.51-11.72-6.94-14.69 7.28-1.66 7.93-8.59 19.08-20.3 24.7-65.23 31.28-87.17 95.4-22.8 162.03 13.56 14.03 26.12 12.4 38.06 10.46 8.69-1.41 17.07-.49 18.63 2.03 6.17 10 46.17-12.39 51.35-28.73 1.6-5.04 8.08-13.21 14.4-18.19 7.28-5.73 10.46-11.83 8.63-16.6-3.62-9.45-20.08-9.85-23.64-.57-1.46 3.81-8.89 10.06-16.52 13.88-14.76 7.37-14.8 7.33-19.86-16.11-1.4-6.46-5.65-15.99-9.48-21.16-6.13-8.28-8.21-8.69-17.29-3.14-8.44 5.17-10.98 5.22-14.08.21-2.98-4.83-5.79-4.28-13.3 2.52-7.38 6.69-8.5 10.64-4.85 17.46 2.6 4.85 2.89 8.78.61 8.78-41.93-17.47-15.25-67.89 4.11-83.78 34.01-27.91 54.4-45.12 65.68-48.87a727.18 727.18 0 0 0 52.32 56.93c-32.19 17.19-69.44 25.64-74.66 31.9-9.06 10.88 23.26 7.75 23.93 7.77h101.27c11.67 8.7 21.3 18.75 34.14 26.04 8.4 4.78 7.44 7.54-1.3 24.7-5.12 10.04-11.35 18.23-13.88 18.23-2.53 0-4.63 5.02-4.63 11.15 0 9.64 2.75 11.45 20.26 13.43 28.36 3.2 50.21-.71 50.21-8.99 0-5.78 1.18-5.66 7.4.57 8.09 8.09 18.1 8.75 46.64 3.13l18.76-3.7-13.19-5.41c-7.27-2.99-16.25-5.46-19.94-5.46-3.68 0-9.34-4.22-12.57-9.4-3.23-5.17-10.43-9.4-16-9.4-5.55 0-11.1-2.71-12.36-5.98-1.66-4.34 3.12-7.92 15.95-4.19 98.9 28.8 156.47 27.31 253.1-1.71 17.43-5.23 18.2-2.13 19.64 15.02 1.34 15.84 3.23 17.86 22.22 24.17 19.3 6.42 21.14 6.29 27.1-1.87 10.17-13.93 40.21-11.81 56.72 4.02 15.01 14.4 29.94 16.12 49.8 5.74 7.4-3.86 16.4-7 19.99-7 4.02 0 6.5-5.11 6.5-13.38 0-7.41 4.16-17.18 9.37-21.9 11.2-10.15 12.1-16.43 2.27-16.43-3.92 0-9.48 5.1-12.32 11.35-10.15 22.29-39.92 18.55-70.15-8.79-17.84-16.13-19.77-16.71-57.21-17.25-21.31-.3-40.79-.13-43.3.36 8.21-6.45 14.46-11.11 22.3-17.54 45.08.42 90.38.21 135.05 3.42 37.84 2.72 34.53-1.99 40.85-12.94 5.32-9.21 22.19-55.19 33.9-88.42 34.01 22.3 59.56 36.47 63.48 50.26-19.2 8.98-29 12.01-30.32 34.34-.9 15.2-9.32 35.81-16.24 35.81-2.94 0-7.65-2.33-10.45-5.13-2.8-2.81-9.92-4.4-15.83-3.54-24.1 3.53-12.1 22.74 22.87 36.54 0 0 16.3 12.96 24.33 9.56 5.26-2.22 3.68-8.85 6.6-15.83 5.47-13.12 8.55-15.42 18.14-13.59 12.85 2.46 17.37-6.75 17.5-35.48.03-10.44 2.03-14.99 5.94-13.67 3.74 1.25 5.96 11.79 6.14 29.09.36 33.97-8.83 46.93-39.84 56.15-49.64 14.76-67.92 33.65-27.18 28.08 10.9-1.49 30.75-9.84 45.45-8.06 40.48 4.9 37.84-1.03 46.56-41.3 9.4-43.41-5.85-83.52-41.75-109.9-12.89-9.47-25.8-21.74-23.44-21.53 34.09 3.18 67.8-18.81 79.1-39.42 16.5-30.13 27.53-85.52-43.7-119.71-5.41-2.6-4.77 4.54-13.02 12.45-16.33 15.66-6.51 26.64 10.66 32.63 19 6.63 14.75 18.66.57 30.15-6.01 4.88-14.15 7.11-20.18 5.53-6.67-1.74-12.3.34-16.48 6.07-10.42 14.27-7.54 23.39 8.9 28.24 18.57 5.48 23.16 26.29 7.37 23.23-23.19-4.5-39.07-10.02-56.51-13.55 15.52-43.97 26.67-77.74 41.87-109.21-18.63 18.59-50.28 67.4-84.88 108.15-3.7.35-4.98-.81-9.12-.2-15.8 2.31-3.9-6.61 5.13-20.18 44.54-66.92 31.43-110.19 40.81-120.24 9.64-10.34 18.48-25.54 21.85-32.15 6.72-13.16 16.8-19.56 28.6-27.38l-2.97 18.06c-2.7 16.47-1.84 18.6 10.06 24.05 11.27 5.17 13.87 4.9 18.96-2.07 3.23-4.44 5.86-13.6 5.86-20.35 0-14.44 7.77-23.52 20.1-23.52 7.5 0 8.36 2.3 5.61 15.26a471.6 471.6 0 0 0-3.9 19.98c-.37 2.59 5 5.39 11.88 6.19 15.15 1.75 33.72-8.08 13.3-45.62-25.2-46.33-96.63-22.03-122.15 28.65-2.08 4.14-2.1 8.46-4.68 8.46-2.83 0 0-14.13 4.15-39.83 11.98-74.23-17.51-138.54-66.16-190.23l22.3-28.4c28.26-36.03 37.04-37.38 32.67-4.93-3.82 28.39 14 43.99 33.9 43.1 58.59-2.63 50.84 82.03-1.5 55.5-8.66-4.39-14.3-3.38-17.91.28-7.33 7.43 26.3 37.52 41.95 37.52 17.44 0 44.56-12.5 44.56-20.55 0-3.81 5.26-13.23 11.72-20.92 6.45-7.68 11.75-17.52 11.75-21.85 0-13.13-9.19-26.04-18.55-26.04-12.13 0-23.72-4.86-23.72-9.93 0-2.3 3.03-4.19 6.75-4.19 13.04 0 12.44-9.46-1.59-24.5-11.02-11.8-18.08-15.17-31.9-15.3-21.3-.18-26.43-11.72-9.27-20.9 8.48-4.56 13.79-4.78 21.03-.9 5.32 2.85 15.1 5.16 21.73 5.16 6.63 0 12.05 2.14 12.05 4.73 0 7.72 6.38 5.41 20.02-7.25 16.84-15.63 17.46-38.54 1.46-53.59-13.45-12.64-19.24-10.38-23.11 9-3.39 16.96-16.12 19-29.1 4.63-10.1-11.18-36.96-3.26-53.26 6.15-37.28 21.52-49.37 48.03-79.14 79.87 1.07-11.97 4.69-17.18 9.93-27.05 25.6-48.23 61.24-93.73 83-110.07 10.57-7.93 7.51-11.13 20.07-2.9 11.83 7.77 13.4 7.8 21.24.7 11.72-10.62 28.57-9.6 41.46 2.52 15.24 14.34 17.63 8.67 8.95-21.24-6.45-22.22-9.43-26.26-21.2-28.85-9.43-2.07-19.76.1-33.28 7-10.8 5.52-20.83 8.85-22.3 7.37-4.76-4.76 8.93-25 20.5-30.28 7.83-3.56 11.32-9.06 11.44-18.14.1-7.17 3.18-18.36 6.88-24.82 3.69-6.47 6.79-17.55 6.87-24.66.2-14.59 3.7-15.94 16.85-6.3 14.27 10.44 20.87.8 20.87-30.49 0-29.2-6.26-40.45-20.26-30.88-33.9 23.18-47.13 41.37-43.66 88.79l-8.5-12.99c-7.08-10.8-7.66-15.85-3.5-29.98 10.46-35.55 10.7-54.37.69-60.63-12.85-8.03-26.5 1.07-33.61 22.46l-5.5 16.52-11.23-24.7C847.95 2.03 845.72 0 834.1 0ZM409.02 138.15c2.53 78.06 46.92 171.6 142.61 156.94-.03 1.94-12.37 9.45-27.42 16.68-20.09 9.65-29.16 17.18-34.02 28.24-7.91 17.99-24.97 21.82-47.32 10.66-8.12-4.06-21-7.37-28.65-7.37-13.81 0-13.89.12-10.74 21.16 2.58 17.2 1.82 21.16-3.99 21.16-4.3 0-9.45-7.75-12.98-19.53l-5.86-19.49-3.74 13.63c-4.97 18.18 2.84 39.95 20.02 46.71 28.05 11.06 37.7-2.1 53.18-7.2 10.32-3.4 3.4 18.21-12.2 29.75-11.93 8.81-10.23 23.34-5.78 37.1 1.12 3.48 1.38 8.98 2.4 13.03l-82.89.24c-6.95.02-11.4-10.75-11.4-17.7V155.03c0-10.92-3-14.07 6.93-13.87l61.84-3.01Zm191.65 165.44c23.26-.85 46.05 2.4 70.14 12.53 6.72 2.83 17.1 5.72 17.1 8.02s-4.38 1.37-10.14 1.5c-41.55 1.03-80.6 16.1-109.9 39.8-34.47 27.88-34.41 50.7-39.55 66.04-3.38 10.08 15.6 6.16 31-8.79 8.33-8.08 14-17.6 12.62-21.2-3.16-8.24 13.45-30.63 20.5-29.83 12.05 1.38 7.08 7.37 2 19.46-1.45 3.45-5.87 8.94-3.95 12.7 4.29 8.34 11.76-4.34 16.07-2.29 6.64 3.16 7.84 17.67 19.74 2.04 7.4-9.72 10.94-10.62 8.87-32.15-1.7-17.76-.76-25.24 4.07-26.65 56.2-16.4 83.63 1.51 101.15 12.98 9.4 6.15 21.57 11.65 20.27 21.16-11.58 84.4 4.36 135.53 57.05 202.1 7.82 9.89 14.32 25.67 13.63 52.5-1.23 47.51-12.99 90.52-45.7 126.62-4.66 5.15-13.4-9.69-11.47-14.73 3.1-8.06-13.31-10.19-18.15-2.36-1.6 2.59-7.92 4.72-14.04 4.72-11.63 0-32.07 21.15-29.21 30.2.88 2.8 6.22 7.16 11.88 9.72 5.65 2.55 9.73 5.97 9.07 7.57-2.33 5.69-14 18.51-26 29.91l-15.1-10.66c0-18.66-2.32-24.86-13.18-35.28-7.25-6.95-15.4-12.66-18.15-12.66-2.74 0-10.58-4.37-17.41-9.76-7.57-5.96-21.18-12.69-51.43-10.5-19.85 1.44-55.95 27.49-47.33 61.69 5.94 23.54 18.37 26.89 14.65 3.94-1.97-12.15-.67-19.21 4.6-24.49 13.25-13.26 28.11-21.14 34.79-18.44 7.41 2.99 22.99 34.25 22.99 46.15 0 12.73 21.94 9.9 31.05-4.03 7.22-11.04 8.42-11.36 16.15-4.36 4.58 4.15 7.31 13.79 11.19 18.97 2.85 3.81 15.7 2.44 12.94 8.34-4.71 4.81-11.58 6.68-16.56 11.19-100 13.3-221.38 16.85-240.4 16.44l-75.11-.82c-7.5-2.01-12.98-5.35-13.19-36.5-.09-13.68.5-28.44 0-52.41l-5.04-241c-.2-9.67 1.48-17.69 12.94-17.7l84.63-.13c1.14 18.15-.31 37.32-6.87 54.4l-5.09 13.27-7.98-15.3c-7.46-14.33-8.56-14.85-17.9-8.3-8 5.61-10 12.03-10.25 32.64-.16 14.1-3.56 33.44-7.53 42.96-3.98 9.53-7.24 19.18-7.24 21.45 0 21 58.03-37.6 65.8-66.45 5.22-19.43 10.48-28.36 12.73-17.9 8.9 41.37 20.9 60.13 43.74 80.69 27.92 25.12 32.36 43.71 9.36 39.1-9.9-1.98-21.11.78-38.41 9.48l-24.42 12.29c-15.3-7.74-23.15-29.5-4.76-42.2 10.52-7.27 6.5-10.86-9.44-10.86-8.72 0-18.62 3.28-21.97 7.32-8.24 9.94-14.49 42.08-4.96 58.96 11.76 20.84 54.67 27.91 81.42 10.95 19.45-12.33-4.62 23.2-21.49 22.5-4.34-.18-7.77 1.68-7.77 5.49 0 5.08-4.71 6.51-18.23 5.5-10.05-.75-20.5-2.74-23.2-4.4-11.88-7.36-9.12 7.48 4.24 22.71 8.08 9.21 12.6 16.76 10.05 16.76-10.76 0-30.86-14.32-39.06-27.83-12.02-19.78-16.62-18.21-16.28 5.49.28 18.81 1.55 20.65 21.53 31.21 21.18 11.2 28.94 9.59 56.92 1.3 51.89-15.35 74.1-75.23 94.93-122.8 32.25 23.61 99.14 36.93 132.53 16.36 18.33-11.29 25.15-9.05 28.56-.16 4.82 12.56 27.89 8.41 41.18-7.41 6.7-7.96 12.17-16.35 12.17-18.64 0-2.28 8.37-6.4 18.6-9.15 21.5-5.8 26.82-11.79 18.88-21.36-6.09-7.34-18.04-6.05-48.02 5.2-21.21 7.97-22.3 3.29-3.78-16.56 19.19-20.56 21-29.7 11.71-59.24-7.93-25.26-13.36-31.37-17.5-19.78-5.03 14.12-8.57-2.45-4.55-21.32 4.34-20.37 4.18-20.76-7.57-20.3-14.88.57-20.42 15.35-13.55 45.12 12.67 54.89-17.92 126-66.36 131.96-29.24 3.6-66.37-1.12-66.37-10.33 0-2.13 7.93-7.91 17.62-12.86 24.75-12.64 48.18-44.51 48.18-65.6 0-8.65-34.26-43.17-42.85-43.17-7.98 0-9.2 10.47-2.44 20.8 6.65 10.16 6.4 11.68-3.13 20.42-5.67 5.2-15.06 10.9-20.88 12.66-15.33 4.65-14.5 24.9 1.18 28.85 6.46 1.62 11.72 4.6 11.72 6.59 0 6.68-27.35 13.64-35.11 13.22-13.62-.74-9.18-3.65-12.37-20.5-8.22-43.41-15.8-69.36-54.37-96.56-10.9-7.7-18.18-20.88-22.54-36.66l85.78-.13c91.3-.1 90.38 22.02 109.74 55.54 9.55 16.55 15.77 33.09 21.73 33.09 6.95 0 5.94-11.72 5.94-11.72s-4-70.46-4-97.13c0-28.8 3.5-92.23 3.5-108.24 0-10.66-4.94-13.83-5.93-13.83-4.65 0-9.36 8.82-13.92 25.6-18.04 66.45-33.08 82.75-127.03 83l-78.09.2c-.93-46.34 15.17-100.87 51.23-131.38 6.77-5.73 18.13-7.95 25.84 2.6 5.35 7.33 7.47 7.69 13.88 2.36 8.62-7.16 9.84-19.72 2.64-26.94-3.4-3.4-3.03-6.3 1.18-9.44 10.18-7.58 16.03-12.31 38.62-13.14ZM783 393.47c35.53 35.08 54.59 79 57.13 146.2 1.35 35.92-6.2 30.16-29.06-8.13-22.67-38-31.6-88.7-28.07-138.07Zm-681.28 101c2.75-.19 2.69 5.4 1.63 16.97-5.74 62.89 2.26 97.2 33.77 141.27 14.59 20.4 48.34 86.02 14.37 121.18-10.65-17.95-15.58-23.92-27.3-36.83-12.87-14.16-33.53-38.53-15.83-35.44 13.75 2.4 13.16-13.93-1.3-35.32-25.87-38.24-35.9-126.89-17.83-157.5 5.54-9.4 9.75-14.15 12.5-14.33Zm364.67 56.72c34.43 21.35 62.37 53.77 60.83 99.73-42.36-31.47-59.36-79.9-60.83-99.73Zm337.32 247.64c-17.6 17.87-35.44 32.68-52.74 37.31-7.38 1.98-19.72 1.77-28.11 3.46 26.87-19.56 54.09-35.28 80.85-40.77Zm-221.72 98.88c5.21-.04 11.4.42 16.72.4-97.1 48.63-213.64 54.72-313.64 1.71h152.02c29.43 0 82.57-1.66 144.9-2.11Z"/></svg>
