<svg viewBox="0 0 1000 1000"><path d="M794.24 598.4c2.53 0 4.55-3.03 4.55-6.07 0-1.51-.5-3.03-1.52-4.55-28.3-42.97-54.6-65.21-76.84-82.4-4.04-3.04-4.04-4.05 0-7.08 22.24-17.19 48.53-37.41 76.84-80.38 1.52-2.53 2.53-5.06 2.53-7.59 0-2.53-1-4.55-3.03-4.55-6.07 0-12.13 6.57-14.66 9.1-34.89 33.37-62.7 52.07-114.26 82.91-1 .5-1.51 2.03-1.51 3.54 0 4.55 4.04 12.14 9.1 14.66 29.82 13.65 68.75 39.44 103.63 73.3 2.53 2.54 8.6 9.1 15.17 9.1zm106.67 0c2.53 0 4.55-3.03 4.55-6.07 0-1.51-.5-3.03-1.51-4.55-28.31-42.97-54.6-65.21-76.85-82.4-4.04-3.04-4.04-4.05 0-7.08 22.25-17.19 48.54-37.41 76.85-80.38 1.51-2.53 2.52-5.06 2.52-7.59 0-2.53-1-4.55-3.03-4.55-6.07 0-12.13 6.57-14.66 9.1-34.88 33.37-62.69 52.07-114.26 82.91-1 .5-1.51 2.03-1.51 3.54 0 4.55 4.04 12.14 9.1 14.66 29.83 13.65 68.75 39.44 103.64 73.3 2.52 2.54 8.6 9.1 15.16 9.1z"/></svg>
