<svg viewBox="0 0 1000 1000" xml:space="preserve"><path d="M743.1.16c-39.37.96-76.55 6.46-107.91 19.2-48.87 19.86-102.2 60.83-123.37 94.58-13.26 21.13-12.44 15.63-11.01 3.67.74-6.24 1.18-11.71-1.54-16.02-6.67-10.54-6.12-11.92 14.8-36.07 19.44-22.47 21.74-29.45 16.32-49.66-3.95-14.74-30.52-15.68-34.3-1.21-2.92 11.13-11.09 13.13-11.09 2.7 0-11.78-8.85-13.25-18.95-3.15-11 11-8.77 24.86 8.66 54.2 7.47 12.57 9.5 21.65 7.29 32.7-3.98 19.9-12.41-50.72-70.49-81.32C339.86-17.97 148.86 5.16 54.16 45.42c-6.79 2.89-6.3 3.53-3.32-6.55 7.13-24.17 6.13-26.58-11.73-28.08-13.12-1.1-23.37-1.02-28.46 10.62-25.64 58.64 27.46 60.33 61.9 41.87 17.52-9.4 42.82-10.42 40.04-8.85-51.08 28.92-99.68 68.58-91.7 99.5 4.62 17.98-15.42 45.1-8.71 76.33 10.37 48.3 59.68 89.87 113.4 67.54 28.58-11.87 12.82-49.63-3.05-71.07-4.68-6.3-4.46 19.57-2.55 33.47 2.58 18.8-12.71 27.06-31.42 24.12-12-1.9-22.16-7.96-31.14-18.57-20.73-24.52-15.33-39.94 6.39-18.22 8.5 8.51 11.23 9.05 18.16 3.63 12.53-9.8 15.28-14.97 15.35-28.99.1-19.7-4.76-28.23-16.2-28.4-13.37-.2-27.76-7.25-31.02-25.52-5.35-29.93 6.05-50.23 24.89-66.25 50.28 6.68 78.55 51.26 78.55 80.67 0 68.4.88 145.57.88 312.24 0 166.66-.88 243.82-.88 312.22 0 5.03-2.21 10.91-3.82 16.59-2.6-1.17-5.61-1.43-8.11-2.8-.8-.43-.62-1.8-.69-2.84-.3-1.03-.56-1.83-.84-2.57-6-9.93-20.68-13.96-32.08-17.27-35.23-10.23-20.82-28.13-14.22-52.02 4.17-15.07 5.36-15.85 19.76-12.93 17.08 3.48 21.32-1.08 15.76-16.94-3.74-10.68-17.38-19.45-28.4-18.28-7.1.75-7.1-2.38.02-13.35 4.26-6.58 3.6-9.5-3.17-13.88-22-14.28-39.33-3.84-46.88 28.25-5.78 24.55-7.08 31.44-11.9 22.24-11.87-22.6-1.1-59.92 6.64-64.41 36.45-21.2 44.63-35.17 35.95-61.46-6.4-19.4-17.4-25.25-26.72-4.75-3.38 7.42-21.3 13.34-20.85 17.61-5.55-36.8 35.64-56.03 61.3-57.18 21.22-.95 24.39-1.99 25.61-10.62 1.04-7.28-3.01-12.63-15.53-20.56 0 0-10.24-10.48-16.92-10.72-6.26-.23-6.06 3.24-16.57 8.85a56.08 56.08 0 0 0-24.37 26.15c-4.3 9.52-12.8 8.2-16.55 8.2-7.48 0-7.62-2.51 13.59-31.82 25.02-34.59 60.97-63.17 68.04-101.19 11.85-63.71-23-92.29-64.14-102.46-30.7-7.6-50.44 6.47-44.14 27.13 8.02 26.33 32.08 12.71 41.32.73 8.67 16.46 13.45 21.14 24.6 24.13 20.18 5.4 27.17 13.5 27.17 31.46 0 11.31-2.25 16.36-7.27 16.36-4 0-7.49-4.1-7.26-9.1 1.17-26.23-15.53-5.94-37.86-11.92-13.9-3.72-22.53.38-30.8 8.9-8.67 8.89 6.32 12.12 22.3 12.12 9.51 0 17.29 2.04 17.29 4.52 0 6.4-17.68 11.22-28.55 7.77-7.1-2.26-10.36.52-14.54 12.5-2.95 8.47-5.37 20.54-5.37 26.8 0 15.6 16.14 15.1 23.35-.72 6.43-14.1 13.88-15.73 16.62-3.62 1.75 7.67 4.96 18.88-9.71 34C-26.45 562.02-10.14 736 70.3 797.16c15.29 11.62 19.81 17.2 9.53 23.4-169.24 102.24 11 248.07 105.05 143.17 12.82-14.3 12.6-38.2 7-38.2-1.32 0-12.91 10.9-25.75 24.22-12.85 13.32-27.14 24.22-31.78 24.22-7.75 0-7.82-.88-.89-10.77 4.15-5.92 7.55-16.07 7.55-22.55 0-11.55-.21-11.61-9.9-2.84-5.6 5.07-19.53 10.44-32.23 10.82-71.21 2.12-65.42-69.85-17.4-104 9.88-7.02 13.23-9.87 24.64-6.6 5.62 1.62 13.86.14 20.14 2.24 4.55 1.52 9.64 2.24 14.35 3.55-14.34 23.75-40.3 45.45-78.52 45.33-2.14 0-1.76 4.11-1.76 8.72 0 2.5.88 2.73 9.38 2.71l11.28-.07c8.6-.01 63.24-1.57 131.41-1.57 68.18 0 122.81 1.56 131.41 1.57 4.77.01 8.47.05 11.3.07 8.5.02 9.37-.2 9.37-2.7 0-4.62.38-8.73-1.75-8.73-39.1.12-65.5-22.52-79.56-46.9 14.1-4.21 28.26-8.56 43.04-15.63 12-5.75 12.29-6.86 30.44 11.73 10.38 10.63 20.45 19.34 22.38 19.34 4.41 0 18.75-28.35 18.75-37.09 0-3.59-4.35-6.52-9.68-6.52-6.86 0-16.37-2.07-18.08-6.1 18.89-12.35 29.96-19.58 50.73-42.63 21.99 5.52 40.33 20.9 52.3 43.46 15.1 28.45 8.08 44.98-7.85 25.34-13.6-16.79-28.11-7.74-24.35 15.2.34 2.07-2.67 5.02-6.69 6.57-10.46 4.01-9 14.55 3.16 23.07 9.53 6.68 11.72 6.42 24.76-2.86 4.77-3.4 18.68-9.86 18.68-9.86-9.87 22.84-7.85 61.04-57.2 57.23-46.48-3.6-101.07-4.53-86.05 12.2 7.55 8.4 21.4 14.8 7.06 21.25-10.27 4.62-28.33-2.56-49.03-20.35-23.75-20.42-48.68-19.37-73.03 1.8-9.62 8.37-27.24 52.15-20.58 55.56 18.07 9.23 61.38 8.42 65.56-9.18 2.76-11.65-24.67-14.18-23.26-27.1 1.13-10.27 23.32 1.96 42.16 9.4 119.97 47.41 190 .45 212.54-84.37 1.55-5.82 6.15-4.98 7.97 2.42 6.58 26.9 6.43 66.01 40.13 86.63 31.93 19.53 88.7 21.6 122.94 13.67 28.6-6.62 41.84-18.72 52.9-35.7 16.61-25.49 27.83-30.64 32.04-14.52 1.4 5.32 4.46 9.69 6.81 9.69 7.99 0 4.33 10.08-8.2 22.6-16.25 16.25-9.59 23.17 20.9 21.74 36.63-1.73 40.13-3.8 36.7-21.6-6.07-31.56-43.17-60.16-65.71-57.94-50.6 4.97-38.55 27.57-79.88 43.77l2.22-15.08c3.65-24.93-7.78-30.5-61.03-10.96-11.66 4.28-29.6 7.78-39.85 7.78-15.75 0-19.78-2.23-26.03-14.3-13.82-26.74-10.12-31.6 22.47-29.5 12.49.81 12.81.16 10.23-20.08-3.22-25.17-1.11-22.23-17.98-25.29-19.08-3.45-23.33-8.8-18-22.69 5.37-13.95 42.35-66.27 49.03-66.27 5.62 0 37.13 36.5 33.9 38.67-1.24.84-14.25 7.27-28.9 14.3-22.72 10.88-25.23 13.32-16.97 16.57 5.33 2.1 12.07 6.99 14.98 10.86 7.9 10.53 36.46 3.4 52.22-13.05 12.31-12.85 14.96-15.14 32.45-8.6 11.8 4.43 22.87 7.68 33.9 10.83-9.75 29.6-39.27 62.64-86.95 62.49-2.14 0-1.76 4.11-1.76 8.72 0 2.5.88 2.73 9.37 2.71l11.29-.07c8.6-.01 63.23-1.57 131.41-1.57s122.81 1.56 131.41 1.57c4.77.01 8.45.05 11.28.07 8.5.02 9.38-.2 9.38-2.7 0-4.62.38-8.73-1.76-8.73-48.55.15-78.17-34.05-87.31-64.04 6.67.97 15.87 1.54 22.6 3.13 45.3 10.65 112.63 38.92 105.64 81.53-2.93 17.85-12.64 21.32-12.64 5.54 0-7.32-1.91-8.44-7.68-7.27a69.83 69.83 0 0 0-37.52 20.66c-6.72 7.07-8.72 16.39-16.73 17.74-7.44 1.25-10.59-5.53-20.06-10.47-29.28-15.26-34.21-14.03-31.1 7.72 1.64 11.5 5.6 26.31 16.79 31.53 97.67 45.56 159.45-51.87 124.6-108.73-7.03-11.47-8.82-10.6.27-19.08 10.85-10.1 17.09-33.7 12.63-47.76-3.65-11.51-18.08-12.88-26.68-2.53-3.31 4-9.8 15.01-20.27 15.02-6.9 0 5.11-18.41 13.86-28.07 6.55-7.24 6.93-10.13 1.96-14.92-1.84-1.77-3.38-2.74-4.9-2.8-2.52-.09-4.99 2.35-8.66 7.76-4.07 6-11.12 10.9-15.67 10.9-4.56 0-11.06 5.17-14.44 11.5-5.34 9.98-40.64 18.36-62.78 16.9C971.33 749.18 1010.8 643.11 980 565.53c-6.18-15.57-.5-29.97-15.9-44.92-5.02-4.88-5.37-23.49 1.12-37.74 4.43-9.7 1.96-16.14-1.67-22.74-5.84-10.61-30.31-25.12-49.18-12.57-5.82 3.87 6.9 6.55 11.69 12.17 8.62 10.1 2.64 17.32-5 15.19-29.9-8.32-39.1-30.4-23.7-52.28 2.69-3.58 6.34 1.7 14 2.56 33.31 3.7 13.01-4.86 6.06-11.48-9.43-8.96-14.47-13.92-3.29-18.21 9.57-3.67 20.78 2.28 34.74 18.4 14.55 16.81 26.6 16.66 24.58-.3-2.5-20.89-22.33-38.26-59.54-32.35-70.36 11.17-61.72 98.67-14.6 119.44 17.5 7.72 21.3 15.45 25.4 14.08 3.28-1.1 4.13-5.94 6.75-5.94s8.76 5.02 7.19 9.98c-1.68 5.28 1.06 10.88 4.84 15.38 29.3 34.89 36.75 98.62 16.84 143.81-13.25 30.07-12.66 20.58-11.73-20.19.95-41.25-2.35-59.27-19.07-94.48-13.59-28.62-49.77-31.33-71.49-27.6-4.57.78-23.27 5.85-13.72 17.85 7.88 9.91 28.54-.06 39.64 1.51 13.26 1.88 29.7 8.03 36.1 26.6l-14.58-2.45c-24.4-4.12-35.26 7.33-39.26 41.12-3.95 33.32 2.32 42.54 19.67 28.9 6.73-5.3 15.93-9.61 20.45-9.61 12.07 0 20.4 19.4 18.66 43.42l-1.52 21.05c-5.99-4.02-12.43-8.07-15.24-12.85-26.47-45.04-29.35-9.23-42.8 4.39-14.8 14.96-8.52 23.71 2.9 34.44 12.9 12.13 18.24 38.1-4.88 53.3-11.16 7.35-22.1 11.34-33.08 15.94-.05-67.18-.87-141.94-.87-304.44 0-166.67.89-243.83.89-312.24 0-31.89 32.9-82.2 91.44-82 2.15 0 1.76-4.12 1.76-8.73 0-2.5-.88-2.75-9.38-2.7-2.83 0-6.5.06-11.28.08-8.6 0-63.24 1.58-131.41 1.58-68.18 0-122.81-1.57-131.41-1.58-4.77-.02-8.46-.07-11.29-.09-8.49-.04-9.37.21-9.37 2.71 0 4.61-.39 8.73 1.76 8.73 58.55-.2 91.44 50.11 91.44 82 0 56.17.59 121.22.8 233.88.1 60.92-.42 64.94-4.13 68.65-2.17 2.18-19.53 2.79-63.08 3-15.07-25.17-29.79-39.59-30.44-49.44-.08-1.31 5.34.04 11.87 3.01 9.32 4.25 15.36 3.76 28.12-2.3 22.94-10.88 33.93-20.78 37.45-45.8 4.22-29.94 0-47.58-22.35-53.24-22.62-5.72-32.32.06-13.77 15.6 11.28 9.45 11.71 7.48 9.34 13.6-1.82 4.71-6.03 7.98-9.35 7.27-10.98-2.36-36.46 21.2-36.46 33.74 0 7.56-2.17 10.88-6.06 9.25-3.33-1.4-16.34-2.36-26.35-8.18-50.7-29.48-92.31-72.81-93.57-101.3-.6-13.8 9-12.39 14.59 2.32 4.54 11.96 17.15 20.64 22.38 15.42 1.44-1.44 3.79-11.43 5.23-22.2 2.44-18.17-7.84-29.63-18.37-39.75-10.53-10.11-25.97-14.16-21-20.17 33.86-41.03 86.69 6.93 82.73 34.37-8.95 62-6.93 64 4.1 80.66 7.38 11.16 2.83 27.44 21.87 10.58 11.57-10.24 19.12-26.14 19.3-42.75.14-12.55 1.15-14.08 6.98-9.25 7.2 5.99 34.67 9.27 50.73-6.5 15.08-14.8 7.9-61.33-1.76-79.99-10.45-20.22-19.52-26.31-26.54-17.86-4.55 5.5-3.67 11.08 4.2 26.51 16.73 32.78 3.68 60.4-11.83 50.23-37.07-24.31-63.23-94.72-133.39-76.16-13.75 3.64-14.37 8.95-14.37-2.21 0-11.57 21-37.16 33.1-40.32 5.95-1.56 16.58 4.73 31.5 18.62 8.93 8.32 12.72 24.03 22.52 20.98 4.28-1.33 2.52-14.18 4.47-24.16 2.52-12.86 6.04-18.96 12.69-15.96 22.38 10.1 14.25 63.91 18.52 59.02 16.54-18.91 7.5-68.49-3.7-81.21-21.45-24.37-57.89-33.7-74.37-12.77-14.91 18.92-35.28 39.5-40.48 33.67-4.98-5.56-.04-13.28 6.32-21.48 47.24-61.03 105.15-122.46 176.98-114.4 50.27 5.63 63.53 2.24 89.48 18.49 29.83 18.67 46.1 24.01 68.37 17.5 20.77-6.06 23.7-19.8 4.2-26.03-30.2-9.65-48.28-19.24-27.82-18.82 4.93.1 27.6 4.43 38.5 6.96 32 7.42 65.72 15.96 76.48 81.08 2.72 16.44-5.33 25.4-23.96 3.34-22.44-26.57-10.5 4.97-11.78 7.97-4.59 10.72-12.05 4.23-19.02 6.03-7.31 1.89-7.28 5.07-1.75 21.17 7.56 21.97 2.17 33.61-17.34 37.52-9.94 1.98-14.03 6.37-16.52 17.73-4.37 19.9-.95 22.25 15.5 10.75 18.1-12.67 39.83-14.69 58.1-26.4 10.5-6.73 25.76-42.28 25.76-55.7 0-7.03 1.36-11.41 3.02-9.75 4.41 4.41 36.32 44.74 35.54 98.45-.65 44.55-2.72 102.56-64.9 116.1-14.05 3.06-22.44-9.24-13.07-18.61 3.02-3.02 5.49-11.74 5.49-19.38 0-11.9-1.46-13.43-10.17-10.66-8.65 2.74-9.69 1.7-6.94-6.95 4.66-14.7-9.67-13.31-19.64 1.9-8.9 13.58-16.94 12.26-13.17-2.16 3.71-14.2 24.34-25.83 39.2-22.1 15.25 3.82 30.1 19.97 30.1 32.72 0 5.22 2.62 8.49 5.93 7.39 7.27-2.43 16.97-20.42 8.33-43.06-13.32-34.94-91.71-27.32-98.67 21.55-15.22 106.85 134 91.83 134 39.63 0-20.54 23.24-21.58 21.79-98.27-1.3-69.1-22.98-89.94-29.3-96.24-1.82-1.83-3.32-8.57-3.32-14.97 0-11.47-16.92-35.88-46.76-67.48C904.47 26 912.16 24.4 942.4 41.29c24.97 13.94 29.16 14.8 25.48 5.2-1.46-3.8.6-9.6 4.56-12.9 19.77-16.4-10.78-41.3-34.87-28.4-9.33 4.99-23.85 9.77-73.4 3.04C824.04 2.78 782.47-.8 743.1.16Zm-409.68 24.2c59.8-.94 102.58 31.06 127.85 95.3 6.94 17.62 2.41 25.1-10.47 13.44-4.96-4.49-18.75-9.26-30.64-10.6-18.46-2.08-27.31-1.22-47.75 12.28-22.15 14.64-25.9 38.89-15.22 53.7 8.84 12.24 10.45 6.87 7.86-6.66-1.65-8.64.96-14.82 9.15-21.64 16.98-14.15 24.98-12.7 21.34 3.86-2.13 9.68-.3 17.09 6.16 25.08 10.02 12.37 9.88 12.43 38.26-13.69 16.06-14.78 27.82-10.54 23.98 8.67-1.57 7.85-.75 15.59 1.82 17.18 2.58 1.6 4.7 5.94 4.7 9.68 0 5.01-6.03 6.54-23.01 5.82-24.9-1.07-44.92 9.54-53.76 28.5-6.67 14.33-41.05 31-63.9 31-18.7 0-19.22-.45-19.22-16.79 0-11.64 2.88-18.32 9.38-21.8 13.39-7.17 13.93-6.73 13.14 10.73-.58 12.7 1.3 16.03 9.71 17.22 8.2 1.17 11.65-2.18 16.1-15.66 7.32-22.17 2.97-35.01-12.85-38.04-22.52-4.3-44.48 7.55-50.16 30.84-6.94 28.46 6.75 55 30.41 59.8 16.69 3.4 21.78 5.32 10.5 17.77-7.05 7.8-6.81 9.68 3.04 23 5.9 7.98 13.5 13.45 16.89 12.15 3.39-1.3 7.6-.03 9.36 2.81 5.13 8.31 13.88 6.05 28.28-7.3 10.52-9.75 14.27-16.44 12.53-30.28-4.61-36.74 17.5-97.01 39.69-87.87 5.02 2.06 13.2 4.65 18.7 4.65 16.61 0 11.26 13-8.64 20.96-25.92 10.37-33.18 28.55-22.28 55.8 10.06 25.14 21.55 26.85 21.55 3.2 0-19.82 7.53-22.17 15.44-4.82 4.83 10.62 2.95 14.4-9.8 33.5-17.94 26.9-46.48 77.1-78.3 80.35-6.64.67-17.14 1.03-20.72 1.87-5.56 1.3-15.07 5-15.37.65-1.12-16.45 25.34-10.1 26.52-19.51.75-5.92-3.75-4.65-11.24-13.94-8.72-10.81-15.96-14.26-32.3-15.43-20.49-1.45-29.04-7.52-29.19-20.69-.04-3.55-2.8-5.54-6.13-4.41-9.03 3.05-5.04 52.15 5.14 63.4 14.04 15.52 36.07 23.94 62.58 23.94 14.05 0 25.55 1.1 25.55 2.45-12.26 12.5-22.24 27.29-30.59 43.39-56.12-.14-80.52-.64-82.89-3.02-3.71-3.7-4.23-7.73-4.12-68.65.21-112.67.78-177.71.78-233.88 0-31.89 32.9-82.2 91.46-82 2.14 0 1.76-4.12 1.76-8.73 0-2.5-.9-2.75-9.38-2.7-2.83 0-6.52.06-11.29.08-8.6 0-63.24 1.58-131.42 1.58-62.32 0-105.25-1.21-120.12-1.45 27.25-16.82 62.19-29.23 90.03-45.73 1.08-.64 2.29 5.3 2.29 11.78 0 23.03 28.79-1.55 83.36-19.2 23.7-7.65 45.52-11.63 65.45-11.94Zm141.67 332.2c3.75.07 3.9 6.54 3.47 19.65-.98 30.43 3.23 61 3.73 92.3.1 6.33-.2 13.15-.24 19.82-56.85.01-77.24-.07-106.15-.1a266.47 266.47 0 0 1 42.02-57.96c18.57-19.32 37.84-44.7 43.03-56.2 5.15-11.4 10.23-17.17 13.77-17.5h.37Zm22.12 1.38c10.13 13.67 29.99 42.86 60.78 58.5 24.12 12.26 45.02 31.72 65.42 71.78-29.49.06-56.48.12-121.96.11-.74-9.73-1.73-21.85-1.9-25.19-1.97-38.28-4.37-107.94-2.34-105.2Zm-22.79 177.59c-.59 1.44-.44 3.23-1.13 4.62-19.35 39.2-29.72 70.6-54.87 69.03-11.18-.7-42.71 15.01-50.85 27.45-5.9 9.02-4.16 17.56 3.56 17.56 10.57 0 8.9 13.31-2.42 19.37-5.33 2.86-9.68 8.33-9.68 12.16 0 5.7 1.84 3.97 13.32 1.6 44.4-9.2 75.44-34.13 86.12-88.85 2.75-14.09 21.26-48.06 24.25-45.06-7.48 77.44-33.58 151.02-69.2 186-23.16-6.93-41.15-7.03-55.1-5.9-21.57 1.74-28.06-.24-25.66-7.83 1.47-4.65 2.74-27.54 2.83-50.87.2-49.63 6.42-75.9 17-71.84 7.31 2.8 40.34-19.2 40.34-26.88 0-2.35-3.38-4.27-7.5-4.27-4.14 0-13.98-3.35-21.88-7.44-11.83-6.11-11.1-8.16-9.6-16.38.79-4.22 2.44-8.28 3.53-12.45 29.91-.03 63.21-.03 116.94-.02Zm32.68 0c63.51-.01 102.51-.03 136.18.02 2.1 5.79 4.19 9.8 6.3 16.18-5.2-.1-15.55.92-17.2 1.45-13.99 4.57-21.95 13.17-21.41 36.23.55 23.97 26.28 59.37 28.39 40.73.4-3.57 4.23-7.14 7.5-10.7 4.84-5.3-2.69-28.94 8-27.62 2.27 9.89 10.05 113.5 2.2 118.1-21.6 12.66-37.1-2.19-71.28 18.98-23.51-25.44-52.89-41.37-60.5-94.72-1.67-11.7 3.12-15.07 8.3-1.47 15.04 39.59 57.67 68.45 92.41 62.58 11.88-2 18.9-5.82 18.9-10.27 0-5.41-5.7-6.83-24.12-5.99-17.7.81-26.7-1.26-33.91-7.78-14.06-12.73-12.36-15.38 10.38-16.27 24.4-.96 24.84-1.31 19.2-15.87-4.69-12.13-22.35-21.97-58.77-34.16-28.36-9.5-44.35-41.01-48.42-54.37-.85-2.77-1.38-10.4-2.15-15.05Zm-185.3.02h17.47c-12.56 41.15-18.7 85.62-21.86 125.15-3.16 39.43-2.53 77.34-4.2 83.96-1.44 5.78 1.86 9.93 6.86 9.23 33.13-4.6 51.63-2.61 77.78 5.75-9.2 15.19-25.04 23.68-40.03 32.03-2.42-3.34-3.67-11.55-8.06-15.94-12.46-12.46-25.46-12.91-36.02-1.25-10.15 11.22-10.06 15.15.46 23.23 7.42 5.67 8.2 8.22 1.22 11.34-13.7 6.12-27.06 10.66-40.3 14.79-1.63-5.72-3.84-11.64-3.84-16.7 0-56.8-.88-125.02-.76-240.62.02-22.1 1.51-25.26 4.1-27.85 2.34-2.34 4.72-3.02 47.17-3.12Zm345.7.1c34.53.16 39.66.84 41.83 3.02 2.6 2.59 4.08 5.75 4.1 27.85.12 115.6-.77 183.82-.77 240.62 0 .4-.3.9-.3 1.3-11.18-2.64-22.33-5.44-32.88-9.25-11.06-4-11.08-5.11-3.63-16.48 4.29-6.55 7.8-13.92 7.8-16.37 0-8.04-30.95-9.79-39.54-2.24-7.06 6.22-9.87 6.13-23.02-.67-7.79-4.03-18.9-14.76-21.21-19.14 14.8-14.83 68.58 4.19 86.41-17.62 3.91-4.78-5.89-90.08-7.7-127.28-1.22-24.97-5.48-45.84-11.1-63.75Zm-174.62 40.4c14.03 109.02 37.8 125.67 77.32 166.38-26.35 29.8-40.45 40.47-66.09 92.55-8.94-49.3-37.4-67.11-68.59-89.4 44.49-65.23 55.9-122.67 57.36-169.53Zm-74.25 55.32c1.33.22 2.32 1.23 3.38 3.51 1.4 3-3.96 7.71-8.8 9.76-4.85 2.05-8.82 1-8.82-2.3 0-3.32 3.87-7.95 8.82-9.75 2.42-.89 4.1-1.45 5.42-1.23Zm-335 75.12c6.1 5.28-1.41 7.73-6.9 13.82-7.37 8.21 4.47 26.05-11.19 16.45-11.9-7.3 11.98-35.55 18.09-30.27ZM60.96 959.73c5.05-.09 15.02 4.63 16.15 10.6.9 4.66-.18 8.4-2.38 8.32-7.36-.27-20.93-9.96-20.93-14.95 0-2.65 2.1-3.87 7.16-3.97Z"/></svg>