<?xml version="1.0" encoding="UTF-8"?>
<svg version="1.0" xmlns="http://www.w3.org/2000/svg" xmlns:xlink="http://www.w3.org/1999/xlink" x="0px" y="0px" viewBox="0 0 1000 1000">
<path d="M 597.33398 0.009765625 C 591.6447 -0.15761197 585.28633 1.6972868 579.50781 5.9316406 C 527.04753 44.374027 526.70618 44.448814 512.71875 20.742188 C 502.75842 3.8606095 492.66195 -0.64610503 486.63867 9.0996094 C 478.71602 21.919161 533.69593 61.658203 559.35547 61.658203 C 576.14017 61.658203 643.2874 43.999617 679.42578 27.798828 C 696.04657 20.34753 744.06938 21.571273 769.11523 23.794922 C 752.17699 26.618548 735.63643 31.264545 720.35547 37.830078 C 694.35246 49.002292 671.9953 65.71595 657.51953 88.380859 C 656.16106 87.988803 653.64417 87.929795 648.99609 87.949219 C 645.95786 87.963619 642.01377 88.003234 636.89453 88.021484 C 627.6679 88.031084 577.05743 89.617188 504.48047 89.617188 C 481.00421 89.617188 460.14609 89.447175 441.92383 89.222656 C 439.32472 77.584945 435.10127 66.640423 428.82422 56.925781 C 432.89845 55.418363 437.66128 53.746748 440.60547 52.923828 C 443.51003 52.112685 445.05764 51.336759 446.82422 51.9375 C 448.80408 53.814621 448.55664 56.023023 454.57227 56.333984 C 459.36228 56.581693 465.76081 51.836658 464.68359 46.203125 C 461.5292 29.71275 453.69154 -5.9628937 423.87695 8.9980469 C 417.86768 12.66367 420.36007 19.544056 427.8457 21.240234 C 435.69481 22.71821 444.86173 30.354768 444.54883 39.257812 C 444.34574 43.186377 437.21132 40.235141 420.55273 46.183594 C 417.14132 42.461701 413.3197 39.004682 409.04883 35.859375 C 375.23111 7.6337177 339.83452 0.021741315 280.75781 8.2675781 C 242.929 13.547643 186.30065 30.38555 159.79297 44.236328 C 150.76308 48.954741 142.83633 56.705842 137.5 59.986328 C 132.2222 41.594137 139.02056 29.598765 155.22852 18.376953 C 157.61365 16.615069 158.42994 13.062909 152.83984 11.746094 C 150.73245 11.249617 144.01797 14.781694 142.13281 15.855469 C 138.28583 18.046631 134.46768 18.252718 128.51562 22.966797 C 117.70948 31.525616 107.56713 47.556413 106.83203 52.439453 C 105.91559 58.52869 103.63956 82.054946 112.83789 82.480469 C 122.87629 82.944793 116.46853 94.525865 99.806641 110.37891 C 84.385368 125.05142 82.697221 145.9339 79.0625 131.5918 C 76.582467 121.71477 79.385107 123.26869 82.837891 110.60938 C 86.017365 98.951447 83.034785 86.547431 78.552734 76.082031 C 70.538617 57.366848 63.715962 68.126953 59.140625 68.126953 C 54.565288 68.126953 50.295573 59.950467 46.644531 52.818359 C 43.433827 46.546251 32.203748 50.751914 25.558594 43.992188 C 19.38269 37.70973 26.779794 17.310588 10.707031 24.175781 C 7.0111597 25.754409 2.4792065 32.395552 0.75976562 39.244141 C -1.7640891 49.29913 1.5230092 56.308191 17.835938 75.654297 C 36.888206 98.258553 28.909101 106.07718 31.517578 123.13281 C 33.432859 135.65724 21.464957 146.3034 34.171875 211.78516 C 37.012962 226.42654 40.414813 241.50499 43.222656 260.04688 C 46.030398 278.58878 45.434428 300.86781 55.677734 322.21875 C 60.80382 332.90293 68.123944 346.5413 77.730469 357.99219 C 83.168447 364.47384 108.45911 391.89198 123.54492 392.5293 C 130.43709 392.82047 144.67428 399.5892 147.25586 404.76953 C 148.28516 406.83472 151.51604 409.08495 156.49414 411.91406 C 153.39855 413.05776 150.07707 414.15076 146.70898 415.44336 C 137.85187 423.6663 110.47701 432.30664 93.283203 432.30664 C 80.165162 432.30664 79.185838 431.1422 81.134766 417.85938 C 83.572185 397.99536 65.836001 386.57978 54.59375 393.27148 C 51.200605 395.29116 44.489919 396.35221 35.773438 395.43945 C 31.414693 394.98312 24.072074 393.57477 21.427734 390.88477 C 15.299984 384.65139 24.148665 371.23506 22.935547 365.68359 C 21.647477 359.78758 34.185545 338.42475 18.042969 349.68945 C 13.889333 352.58774 3.7095837 360.32044 0.51953125 385.05078 C -0.52263047 393.13334 -0.06343073 404.71563 10.738281 416.69531 C 22.554853 429.79973 82.880186 448.69468 89.351562 448.04688 C 104.51776 446.52846 98.121436 459.5404 79.537109 473.22266 C 68.749199 481.16515 55.454686 494.16105 49.994141 502.10352 C 44.534 510.04601 34.554544 522.54464 27.816406 529.87695 C 21.078773 537.20926 13.284152 550.20517 10.494141 558.75781 C 4.0650755 578.4688 9.7133071 648.37173 19.220703 666.75781 C 32.798524 693.01421 60.046239 707.23983 71.144531 693.86719 C 75.920644 688.11227 72.50994 682.47664 52.068359 662.35352 C 32.540495 643.13036 27.173828 634.58011 27.173828 622.68555 C 27.173828 614.34589 29.387012 605.31044 32.091797 602.60547 C 34.796985 599.90048 38.646923 588.09495 40.648438 576.37109 C 45.913545 545.52936 57.711929 547.59299 60.964844 579.92578 C 63.418885 604.30891 76.925439 627.39791 85.599609 622.03711 C 87.902439 620.61359 88.381629 613.85397 86.666016 607.01562 C 83.861196 595.8407 84.712403 594.83363 95.072266 597.06445 C 101.41228 598.4296 110.39028 601.13849 115.02344 603.08594 C 131.02528 609.81197 124.03259 592.30316 106.35352 581.37695 C 75.551161 562.34027 64.643885 529.55585 79.177734 499.69727 C 86.454431 484.7477 89.752799 482.67908 108.46094 481.33789 C 128.6271 479.89206 129.37921 480.31076 125.73633 490.96484 C 117.97245 513.67152 123.03575 562.27539 133.16602 562.27539 C 135.76292 562.27539 137.88867 556.1255 137.88867 548.60938 C 137.88867 533.96633 160.42282 500.16332 170.37891 499.87305 C 177.54348 499.66419 178.29487 483.35773 171.70703 471.04883 C 169.12838 466.22975 159.06362 457.59268 149.33984 451.85547 L 131.66016 441.42383 C 117.58489 433.11913 145.50296 431.92975 159.90625 425.78516 C 163.6942 423.45487 167.53582 421.65619 171.13086 419.78711 C 172.70887 420.62977 174.31896 421.48959 176.01953 422.41602 C 207.94927 439.81053 242.15144 461.60942 268.99609 472.76367 C 295.84025 483.91778 315.92729 483.82727 323.23633 482.71094 C 333.82638 483.82261 343.46643 484.85021 344.6582 484.99414 C 345.84966 485.13869 344.22404 487.85626 341.04688 491.0332 C 300.38715 508.62767 263.49192 529.39588 229.97461 552.04688 C 168.29858 585.11384 88.298035 650.88469 86.410156 751.96875 L 85.724609 788.81641 C 85.041285 825.44983 34.2383 779.91249 18.917969 801.66406 C -8.968244 842.79183 -4.5873671 877.93964 27.894531 907.11914 C 59.123821 935.17305 53.010275 946.48633 36.03125 946.48633 C 29.941882 946.48633 19.757497 944.20453 17.056641 947.79492 C 13.825184 952.0905 13.541779 977.91429 17.912109 981.56445 C 26.586682 988.80954 48.063598 975.54235 51.402344 962.61719 C 52.770401 957.32219 56.541857 949.29498 64.558594 944 C 86.866798 929.26558 92.878144 900.67475 74.068359 877.85547 C 63.292135 864.78176 59.378502 854.7417 59.126953 841.85352 C 58.727819 821.40771 84.66399 827.38542 95.890625 855.90625 C 100.58332 867.82785 108.84711 894.65674 114.21094 903.8125 C 127.1822 925.95672 127.6086 932.20404 116.61719 939.06836 C 105.54922 945.98034 104.89386 963.74807 114.50391 982.33203 C 122.61957 998.02624 129.72902 1001.7096 143.48828 997.34961 C 155.75768 993.46155 179.71378 994.48714 196.86719 999.15039 C 238.2332 1006.79 317.52794 958.94943 324.05664 952.26562 C 324.09222 952.22183 324.12463 952.17853 324.16016 952.13477 C 331.49559 949.47613 352.15867 938.68444 362.13281 941.33203 C 365.56293 944.76203 362.91908 953.86667 353.41602 967.14062 C 348.5717 973.90786 348.82782 976.85323 354.7832 982.80859 C 360.89987 988.92523 366.65223 989.30424 389.43945 985.0918 C 413.35397 980.6709 437.38086 1009.6402 437.38086 989.70703 L 437.38086 989.70508 C 460.95799 1000.7569 491.2307 1003.145 488.08789 993.70508 C 486.98559 990.39573 481.93138 987.03467 476.85547 986.23633 C 459.58601 983.52 444.16716 975.82723 434.86719 960.06445 C 422.99722 939.94618 397.29253 932.94336 373.48047 931.88672 C 359.23968 931.25476 346.75842 930.68002 338.55469 932.76758 C 346.33059 921.25872 351.89672 910.96632 355.9375 902.15039 C 357.07811 902.17277 358.35609 902.18415 359.9668 902.17773 C 363.00503 902.15853 366.94822 902.10547 372.06836 902.10547 C 381.29449 902.09537 431.9036 900.51953 504.48047 900.51953 C 577.05743 900.51953 627.6679 902.09639 636.89453 902.10547 C 642.01377 902.12467 645.95786 902.15953 648.99609 902.17773 C 658.10979 902.21613 659.06055 901.96312 659.06055 899.45703 C 659.06055 894.83006 659.48219 890.70508 657.18359 890.70508 C 594.34864 890.90103 561.67383 840.41167 561.67383 808.41016 C 561.67383 739.75884 560.66992 662.32174 560.66992 495.06445 C 560.66992 488.82202 560.6809 483.5433 560.68359 477.54688 C 586.12894 479.97037 610.70475 485.01271 635.28516 492.86328 C 634.38462 504.297 634.15441 516.88448 634.49414 531.01758 C 634.72217 540.51013 635.41286 550.5782 636.72461 560.88477 C 635.77026 561.31804 634.8166 561.77297 633.86719 562.27539 C 632.01638 563.25478 622.28388 559.02594 612.7793 555.05469 C 603.27483 551.08347 594.34606 547.83398 592.9375 547.83398 C 586.46472 547.83398 591.51243 558.97395 602.67188 569.31641 C 614.69969 580.46304 614.75004 580.78364 604.99805 583.87891 C 589.40773 588.82702 577.22797 618.48029 579.66992 645.54297 C 581.96459 670.97206 591.84234 674.66224 594.15625 650.95508 C 596.19625 630.05202 605.18811 615.28024 620.78125 607.2168 C 633.75936 600.50564 629.82342 601.35501 640.60156 611.48047 C 643.05201 610.72222 645.50537 609.96645 647.96094 609.21289 C 652.39332 621.60901 658.12564 633.60978 665.47656 644.62695 C 668.37945 648.97757 671.23431 653.26336 674.08984 657.49414 C 665.90231 659.74598 658.35229 663.6987 648.11328 670.85156 C 602.82201 702.49119 589.60092 739.52898 597.71094 783.54102 C 596.29714 785.82856 600.80056 794.42474 607.7168 802.64453 C 617.94681 814.80216 619.19383 818.91392 614.40039 824.68945 C 606.67892 833.99304 619.51483 854.77268 634.97852 858.00195 C 682.14487 867.85164 695.42924 863.53538 728.85156 827.49609 C 751.20127 803.39649 747.60493 790.06576 738.70117 787.94922 C 734.86991 787.03848 729.05348 789.81835 723.02344 805.43945 C 712.16542 833.56911 705.9935 834.63097 668.85547 828.26953 C 642.54233 823.76224 635.1375 820.25777 623.70898 806.90039 C 614.95059 796.66406 609.96702 785.30003 609.8418 775.27734 C 609.73451 766.67299 610.80142 759.63281 612.21289 759.63281 C 613.62518 759.63281 622.19867 767.05196 631.26562 776.11914 C 644.39575 789.24927 650.15619 791.94426 659.56445 789.35742 C 672.53864 785.79014 710.2168 755.64876 710.2168 748.16992 C 710.2168 742.00844 692.89679 743.81814 689.07227 750.00586 C 683.67862 758.73301 664.46678 755.0232 653.25586 743.08984 C 644.25439 733.50841 640.64568 732.35347 633.55273 736.7832 C 627.00338 740.87315 623.08487 740.72645 617.61133 736.18359 C 599.31764 721.00131 647.01758 678.61858 667.40234 680.31836 C 674.93231 679.35713 682.04538 678.70808 688.78906 678.31055 C 706.64773 702.00775 726.69181 721.50095 757.34961 731.23242 C 765.74402 733.8971 794.66471 738.57558 812.95508 740.51172 C 838.18566 743.18246 906.40504 787.33976 910.91016 805.28906 C 916.27056 829.01821 910.19155 859.427 899.36133 882.32422 C 895.85811 889.73068 888.14848 900.06545 877.70312 911.15234 C 879.72636 899.53462 877.5943 891.76125 877.1875 870.08008 C 876.46932 831.88598 840.07486 783.48606 812.35547 783.875 C 796.71559 784.09436 776.78946 793.72038 776.47656 805.13672 C 776.32192 810.81718 805.17861 788.87858 821.03125 806.17773 C 830.03807 816.00624 839.13922 819.27489 816.61523 829.43164 C 806.02528 834.207 795.42773 844.96853 795.42773 848.35742 C 795.42773 853.99225 818.97459 868.38604 827.39258 869.94922 C 843.19193 872.88206 861.61328 865.42464 861.61328 892.41406 C 861.61328 899.66205 858.15741 929.6117 858.13086 929.8418 C 817.93997 964.53904 759.18953 995.06155 723.96875 958.03516 C 712.67895 948.14398 712.53591 897.82858 723.1582 892.52344 C 760.47051 873.88821 753.51445 880.35872 760.80273 901.59375 C 765.68573 915.81992 785.34354 915.72172 792.23047 904.57812 C 806.69541 876.93221 762.84137 860.82866 730.97852 870.34766 C 722.74287 872.80813 708.82025 889.57596 669.98242 923.26562 C 659.30059 932.53184 643.97726 943.75742 635.92969 948.21094 C 621.92745 955.96073 619.86082 955.81413 587.79297 944.80469 C 569.36499 938.47799 548.53295 934.40865 546.37891 933.09766 C 538.50432 928.30593 479.44721 928.3238 535.16211 957.41797 C 552.21286 966.32193 547.75724 973.80146 543.875 976.54883 C 532.86234 984.34185 494.63673 957.74645 478.15234 938.95117 C 470.21418 929.90011 469.60606 935.13505 473.41406 947.12305 C 476.8067 957.80521 509.67446 986.75791 524.79492 991.38086 C 547.65004 998.36842 577.95658 994.1364 598.07227 986.99023 C 598.07227 986.99023 607.40555 985.71303 612.69141 983.76562 C 616.44128 982.38403 630.82864 978.76632 639.29297 970.89258 C 643.86397 966.64066 670.72089 952.14648 674.66992 952.14648 C 683.6853 952.14648 685.48274 955.3172 679.68945 973.82617 C 677.49401 980.84236 662.85977 985.11417 664.61719 989.69531 C 667.25065 996.55838 664.59726 995.47081 682.87695 993.07617 C 695.07815 991.47752 719.87592 1003.7655 723.88086 998.49219 C 730.38125 989.93338 690.847 973.70849 705.74805 965.26953 C 751.26236 1015.3308 830.9343 977.04029 874.39844 944.96484 C 896.04871 926.69236 915.93706 906.8193 926.57617 906.08594 C 933.90495 905.58066 941.72786 907.27171 944.39648 909.4082 C 952.11613 915.58889 932.92306 928.50871 922.98047 940.33984 C 907.97354 958.19771 912.15403 988.03656 922.02148 990.88672 C 932.01112 993.77228 944.25177 984.42225 951.40234 954.61523 C 954.82631 940.34384 956.92 920.32254 962.42578 917.31836 C 967.93156 914.31418 968.17237 925.98745 975.88477 938.63477 C 980.76243 946.63338 973.33024 954.00165 967.53906 967.86133 C 963.34634 977.89673 955.83108 983.5321 959.91602 987.92578 C 961.32437 989.4413 978.13681 985.98078 986.63086 977.52539 C 990.61807 973.55632 1001.3472 929.90982 992.61719 916.58594 C 986.05424 906.56989 986.05424 904.76498 992.61719 899.31836 C 1002.4294 891.15672 1002.4458 856.57236 992.61719 852.80078 C 980.7853 848.26048 961.13274 860.98323 953.45117 875.83789 C 950.81862 880.92969 955.2873 888.51973 952.03711 890.6875 C 948.78741 892.85513 943.5643 889.49556 932.82031 890.24023 C 925.40489 890.75414 918.89471 891.84543 912.50977 892.90625 C 936.85384 830.40984 940.65322 793.41498 962.39062 776.95508 C 965.03818 776.69486 970.32926 777.2244 971.94141 790.44141 C 967.9826 823.57851 964.39026 826.04597 988.34961 812.85938 C 996.18138 808.54883 998.49219 802.85364 998.49219 786.90234 C 998.49219 775.61126 996.52155 764.31394 994.11133 761.79883 C 991.54708 759.12298 988.42096 745.99029 993.79688 732.09961 C 1005.5566 701.71254 997.686 685.60895 990.99219 683.56445 C 988.48718 682.79937 984.37541 692.45886 982.97461 699.81055 C 970.34689 717.78767 936.1162 770.77997 927.24609 807.84375 C 928.18043 797.15782 928.14406 784.36975 927.32812 778.24219 C 922.14427 737.28645 909.91908 701.67452 894.71875 671.87695 C 958.72542 651.36589 990.50017 614.28444 996.92188 540.09961 C 1001.0514 473.54803 986.44017 388.20094 927.68945 345.83594 C 913.09355 336.5854 885.49404 329.07071 868.20312 325.88477 C 856.53746 324.12844 844.78411 323.3125 833.07227 323.44141 C 850.81343 312.61489 865.28454 299.61473 870.54688 295.75195 C 880.46915 286.20304 889.70254 276.68039 898.17188 267.19141 C 904.40427 277.9814 902.32246 304.63624 910.56836 310.06055 C 921.98479 317.57043 923.31802 317.30917 939.80664 304.73242 C 954.48626 293.53583 958.81563 292.35434 968.67773 296.84766 C 975.05774 299.75481 980.27734 306.24589 980.27734 311.27344 C 980.27734 322.20364 992.50298 333.88537 996.75 327.01367 C 998.33908 324.44324 999.24408 311.98093 998.76758 299.31836 C 998.12062 282.21699 995.05337 273.66078 986.8418 266.05078 C 978.93063 258.71881 976.70165 253.66308 980.98242 250.60938 C 1002.727 235.0966 972.92141 229.98748 948.70508 242.01562 C 930.36332 251.12583 923.65321 271.21968 913.79102 248.59766 C 934.98133 221.67016 949.50916 195.04515 955.51953 168.86523 C 977.31307 124.22356 973.83083 147.70488 977.42773 71.707031 C 978.13624 38.209106 969.45888 25.829299 963.57422 20.207031 C 959.18938 18.231664 956.97153 21.357087 956.21094 25.125 C 955.67621 27.775912 950.84259 32.615716 944.17578 35.523438 C 928.63886 42.299771 931.06717 43.264143 932.14258 47.455078 C 933.24105 51.741037 931.47377 63.043381 929.41211 64.947266 C 929.14475 65.110906 928.80592 65.21417 928.41797 65.275391 C 923.14011 58.909776 917.14024 52.586725 910.36523 46.308594 C 882.02172 27.684152 840.06089 18.75935 797.60938 20.779297 C 788.63989 10.814069 675.54858 5.0438256 649.81641 18.667969 C 623.05305 32.83832 614.44141 30.63777 614.44141 16.021484 C 614.44141 6.1826147 606.81612 0.28872829 597.33398 0.009765625 z M 317.35938 21.169922 C 368.5832 21.559915 409.79878 42.018735 424.50781 88.982422 C 396.19703 88.540326 377.30067 88.028702 372.06836 88.021484 C 366.94822 88.016784 363.00503 87.967469 359.9668 87.949219 C 350.85259 87.910799 349.90234 88.163842 349.90234 90.669922 C 349.90234 95.29695 349.47874 99.421875 351.77734 99.421875 C 388.25913 99.308106 414.55241 116.28756 430.20898 136.80664 C 429.64212 153.81159 426.77212 172.90272 421.30469 194.18164 C 414.08289 195.78787 390.62563 195.93002 384.44531 187.71094 C 376.5957 178.04012 360.67246 169.09851 347.1582 163.72656 C 328.7273 158.79702 330.18817 158.47238 322.51758 143.58398 C 316.32586 131.56653 316.24843 128.31852 312.0957 129.94336 C 307.31667 131.81311 313.22002 151.63541 321.25781 157.93164 C 322.94794 159.25543 325.91357 165.40891 327.84961 171.60742 C 331.60955 183.64869 360.6407 198.81132 371.76367 194.54297 C 375.34107 193.17038 382.5975 193.9209 384.08594 194.78125 C 392.33831 198.93931 410.35456 204.21728 419.01172 202.69336 C 418.86324 203.2202 418.7336 203.7323 418.58203 204.26172 C 404.27635 244.72811 397.68525 250.97637 357.94922 294.93555 C 337.18375 317.90761 331.49206 324.4046 298.73242 322.53711 C 278.13207 319.85611 264.30946 320.04711 254.64844 308.28125 C 237.98513 287.98754 240.19741 267.06411 260.6543 251.46094 C 275.35699 240.24669 278.58934 239.44602 285.92578 245.19922 C 300.13373 256.34132 301.76613 260.76574 298.71289 279.87305 C 295.9807 296.96796 291.6267 298.94485 301.70117 300.125 C 312.33736 301.37101 319.78024 291.36194 322.6582 286.76758 C 327.89933 278.40115 329.62658 266.72415 304.06445 229.44531 C 300.66939 224.49349 286.92873 219.74923 287.06836 216.86523 C 288.48689 210.36479 299.31585 211.76226 305.05273 209.44922 C 311.39999 206.88992 317.98216 194.60437 295.87695 193.11523 C 283.48344 193.11523 245.14913 223.18073 236.4668 239.9707 C 230.52773 251.45505 225.98366 254.20312 212.92969 254.20312 C 198.37277 254.20313 196.52166 252.6432 194.46484 238.62891 C 191.74747 220.11517 195.79007 212.84293 218.58203 195.23633 C 229.28421 186.96902 236.0028 179.89047 245.97461 181.04102 C 246.6264 181.11617 251.53653 183.13536 253.46289 182.22461 C 281.96342 171.35814 276.03455 168.86475 262.23047 159.9668 C 251.40085 152.98623 237.83513 154.19178 234.75781 154.01367 C 230.49336 153.76722 224.07266 149.53513 207.11328 159.51758 C 196.08863 166.93937 221.61008 170.11554 207.52734 177.18555 C 204.40328 178.75398 197.22361 182.16084 192.39844 188.24219 C 186.17247 196.08911 173.76447 242.49631 169.375 229.05859 C 167.43171 222.42835 167.98166 212.63164 171.5918 198.96875 C 178.92642 176.1821 214.41397 140.5274 246.44727 128.89648 C 256.83595 125.12452 266.31777 112.96838 270.82812 107.21094 C 282.44381 92.383488 277.79908 85.242426 270.20898 78.046875 C 255.30934 63.921483 239.08844 53.87378 224.68555 61.582031 C 209.87789 69.506702 215.4339 77.055016 236.04492 78.796875 C 263.51719 81.333895 249.67746 98.901235 229.81836 110.0957 C 215.28078 117.38916 162.5831 169.61434 149.13281 212.83594 C 144.06465 229.12362 144.4791 233.98774 152.23633 249.19336 C 161.47847 267.30977 178.4569 278.27148 197.27344 278.27148 C 204.12128 278.27148 214.4867 285.95839 225.6543 299.31836 C 235.33064 310.89446 251.36134 324.57651 261.27734 329.72266 C 270.5479 334.53369 281.98419 336.70817 287.64844 340.76953 C 287.44575 345.88382 281.78763 347.98041 276.68945 350.5 C 272.85878 352.39334 255.23538 358.23799 236.85938 367.66797 C 227.67112 372.38292 214.74817 373.10927 207.14648 375.8125 C 199.5444 378.51574 193.72311 379.06886 191.30664 379.27344 C 184.377 379.85964 174.10793 385.18395 172.68164 396.40234 C 172.67935 396.42037 172.67617 396.43709 172.67383 396.45508 C 168.98251 394.79584 166.30164 394.05388 164.19922 393.39844 C 160.03934 392.1015 155.87874 391.96865 151.71875 389.16211 C 150.49184 388.05082 149.36793 387.10059 148.3125 386.25977 C 148.32652 379.60656 149.41764 372.22475 152.53125 370.75586 C 156.89815 368.69578 163.33481 357.19629 164.57422 352.1582 C 170.24078 329.12687 168.78211 326.95209 165.33789 316.79688 C 161.93709 306.76786 157.14982 316.11577 151.33789 320.42578 C 139.69187 334.21337 133.85635 330.11493 132.36328 307.5293 C 131.43425 301.11793 127.96558 294.98253 124.65625 293.89258 C 114.8283 290.65594 117.73614 316.43826 130.76562 348.06836 C 134.03748 356.01084 141.3022 359.69162 142.89844 366.86719 C 144.1201 372.35998 141.8403 376.80591 141.55273 381.9375 C 133.96038 378.54792 131.13974 383.08008 118.64648 374.0957 C 80.447861 346.62622 66.266009 303.02093 94.755859 252.56836 C 117.88338 211.61243 120.47115 232.41862 122.47266 177.26562 C 123.19326 157.39609 117.86113 140.48802 89.652344 203.25977 C 86.2322 210.87022 72.881462 230.90893 69.117188 227.14453 C 63.807754 207.28966 89.682372 179.17351 87.234375 169.41797 C 85.295017 154.43624 81.621908 153.07722 104.29883 123.03125 C 113.41535 110.95227 126.74316 93.630487 130.03516 93.46875 C 132.35441 93.354618 141.66914 99.973443 151.05273 109.81836 C 155.26953 114.24247 159.15645 119.10848 163.66016 117.5957 C 171.6632 114.90748 170.26706 102.90159 170.70508 100.30469 C 171.63069 94.820529 175.28238 91.150477 177.02539 88.798828 C 179.45485 85.522049 179.4195 82.891891 181.46484 81.621094 C 183.43361 80.398095 187.02548 78.503805 187.64453 77.328125 C 189.91079 73.027537 187.4066 72.733685 178.49609 76.21875 C 169.73005 79.647496 164.33303 79.534507 161.24805 80.447266 C 158.53359 81.250179 148.51538 75.540969 150.57422 71.410156 C 168.69756 52.431378 196.44634 49.774099 221.39062 39.46875 C 254.59623 27.461849 287.65962 20.943803 317.35938 21.169922 z M 798.86523 34.5 C 799.80742 34.497965 800.74813 34.522992 801.68945 34.535156 C 797.45934 44.172355 775.26739 57.372166 763.15625 62.548828 C 740.2569 72.336758 707.53337 106.92555 710.19141 110.87305 C 711.2928 112.50867 720.01121 108.96682 728.91406 103.53906 C 749.50282 90.986915 763.41782 92.748748 788.24414 105.41406 C 815.26308 119.19818 832.96728 120.78546 845.74219 110.28906 C 867.96225 92.032475 855.42848 88.508273 830.94922 76.21875 C 798.12258 59.738334 802.20139 62.860456 835.45703 37.841797 C 853.91654 41.145913 872.17082 46.713566 890.15625 53.746094 C 909.2731 61.221124 919.41124 74.030848 921.55469 81.425781 C 924.85929 92.827767 935.15072 111.80903 936.53711 126.57812 C 938.63675 148.9367 932.62887 148.77687 935.00977 178.0918 C 937.68564 211.04723 867.78017 273.11031 860.74414 279.23242 C 855.89544 283.45098 787.5299 316.42281 780.75195 330.57812 C 748.03061 339.36192 717.29843 356.29944 691.71094 381.76562 C 659.16003 412.90852 642.92556 438.13529 637.02734 477.33789 C 625.95607 473.63824 614.75971 470.78841 603.36719 468.66211 C 610.23004 467.51497 616.75273 464.21129 619.80273 461.41992 C 626.4633 455.32467 628.32572 449.16603 627.20508 448.69141 C 626.46283 448.37684 621.53058 447.63294 616.11719 447.19922 C 610.70369 446.76513 605.57991 449.25339 603.56641 449.87305 C 595.34601 452.57967 585.25448 455.89691 577.96289 465.08594 C 572.26604 464.52695 566.51626 464.09887 560.69336 463.81445 C 560.80982 318.52171 561.67383 245.79729 561.67383 181.7168 C 561.67383 150.73352 592.30446 102.42148 651.2793 99.556641 C 644.82519 112.89244 640.89226 128.00195 640.16211 144.95508 C 636.83873 147.70986 636.42003 151.22857 626.37305 152.29297 C 607.50755 154.29154 599.14165 167.74315 611.92383 191.16211 C 619.20203 203.75826 621.08783 197.61738 629.16602 192.57227 C 634.27275 189.38296 640.33625 187.67862 644.55469 187.73047 C 646.69387 196.87945 649.61649 206.42671 653.40625 216.38672 C 656.0969 223.458 659.43463 229.73821 663.35352 235.31641 C 663.80027 237.46958 661.5232 236.79473 655.88281 238.21875 C 652.05306 239.18567 640.39603 239.99206 629.66211 245.30273 C 586.74228 275.03641 597.18463 315.30694 624.23047 367.80078 C 629.51018 383.79771 630.37473 387.47132 616.46094 399.02148 C 600.71316 412.09329 600.69019 412.19336 609.97656 412.19336 C 624.93966 412.19336 664.36075 376.4143 657.76758 359.9375 C 652.90533 347.7855 655.28689 345.02891 664.65234 342.71875 C 674.89867 340.19122 666.34667 322.35926 681.83594 306.72461 C 685.17237 303.35737 676.77717 302.11271 663.78516 301.42773 C 649.427 300.67074 645.42617 297.76219 644.23633 289.40625 C 641.0636 267.11614 691.24677 263.78451 703.62305 273.6875 C 707.30845 276.63613 713.11222 280.7207 716.43555 280.7207 C 719.75848 280.7207 726.27145 286.70849 729.97266 290.30469 C 751.33682 311.06245 759.53293 298.56466 754.00781 285.58203 L 749.5918 275.20703 C 756.96763 275.87093 764.59105 276.26014 772.43359 276.41406 C 791.09368 276.78028 825.35829 268.87801 839.75 241.77344 C 871.416 182.13757 834.74307 139.56128 794.34961 132.81055 C 768.25971 132.41838 733.16214 141.20655 729.97461 172.51172 C 730.27824 187.61928 746.64055 209.13005 762.93555 206.82422 C 782.42553 204.06634 784.22239 199.44811 770.99414 184.06641 C 756.16724 166.8254 756.11509 165.64612 769.79688 156.68164 C 788.25276 145.10276 812.9028 149.4892 821.1582 172.92578 C 835.4821 200.40744 831.15678 228.30143 809.28125 249.50391 C 793.14836 265.5789 768.97671 268.36373 744.20898 262.55859 L 739.59961 251.73047 C 739.59961 249.27345 735.24586 242.90788 729.92383 237.58594 C 722.23793 229.89982 716.43991 228.519 701.73047 230.87109 C 693.76602 232.14468 687.52315 231.85899 682.73438 230.64648 C 679.14866 227.56686 675.73871 224.35572 672.57227 221.01758 C 666.84932 211.87947 662.57116 201.49068 659.74805 190.45703 C 662.92642 186.30913 672.44463 186.65549 680.01953 188.10352 C 695.96768 191.15218 699.20047 189.73238 689.26562 164.91016 C 681.76942 143.83832 679.58551 149.09951 671.64453 150.73438 C 663.61662 152.38692 659.89535 149.25363 656.16211 146.13477 C 659.3797 107.44029 678.9644 70.000706 715.96289 55.316406 C 743.83219 40.637749 771.52835 34.559039 798.86523 34.5 z M 442.44336 158.34375 C 445.65794 166.54182 447.28906 174.58872 447.28906 181.7168 C 447.28906 246.56432 448.17419 320.23515 448.27344 469.05859 C 442.61268 469.62068 436.8817 470.20334 431.06055 470.80273 C 418.24433 472.12244 406.62698 469.46127 397.38867 459.68359 C 390.08255 451.95131 373.64708 446.736 367.71094 446.7168 C 354.68004 446.67852 332.67384 432.82181 322.44141 418.21289 C 315.51408 408.32296 315.76986 406.69865 325.95312 395.85938 C 332.67675 388.82758 345.88112 388.18425 349.69727 379.35742 C 352.76311 372.26628 335.46562 373.7622 313.37109 384.79688 C 296.22252 393.36123 292.52546 397.74343 290.93164 411.38867 C 287.93138 444.28292 323.66776 450.31177 351.98242 466.19727 C 347.59194 473.30093 314.11411 471.68094 288.49023 463.125 C 256.7241 452.51808 227.611 436.09371 210.76758 424.4082 C 200.68288 415.20077 192.78456 408.93125 186.45703 404.52734 C 192.70257 387.51137 213.52867 388.57623 225.0957 384.42383 C 236.71774 380.25172 252.73754 379.09205 265.08008 374.00391 C 277.42272 368.91571 289.69782 363.20817 301.05078 356.56055 C 312.40325 349.91299 322.83287 342.32498 331.48438 333.47461 C 338.66727 327.44598 346.29139 321.76473 348.42578 320.84961 C 350.56047 319.9345 362.01229 307.81601 373.875 293.91797 C 394.26843 270.02531 407.47656 262.16329 407.47656 273.91797 C 407.47656 276.81862 403.46764 284.94135 398.56641 291.96875 C 368.69067 334.80386 366.01381 397.8793 392.92969 424.79492 C 407.6891 439.55485 419.2278 438.81885 406.77344 423.91211 C 388.96693 402.59824 385.65808 389.62631 403.04883 369.19141 C 424.94924 343.45704 432.58384 335.03539 409.0332 323.97266 C 400.70467 317.88276 401.26217 314.60681 417.23047 275.86328 C 419.41251 270.5683 423.31602 229.79763 426.99023 219.30469 C 432.91381 202.38887 438.98048 180.93274 442.44336 158.34375 z M 826.87891 339.55469 C 871.02746 339.10377 920.86537 355.84073 939.47461 383.27539 C 966.1743 422.63694 976.76134 441.8702 980.29492 522.92578 C 980.29492 569.66314 951.12145 633.0527 917.57422 646.58789 C 907.65124 650.59152 897.83915 655.2898 887.75586 658.97461 C 882.72663 650.15315 877.46381 641.91134 872.0918 634.26953 C 847.81381 599.7338 812.22463 570.30531 771.02344 544.41211 C 774.10435 540.52329 777.78086 536.83449 782.07227 533.39453 C 815.01284 540.34348 845.19366 468.75333 894.7793 530.45508 C 901.27485 540.27246 897.00513 554.41215 888.83789 564.68164 C 884.76746 569.79996 876.56433 577.88595 883.34961 588.13477 C 888.70911 596.22975 892.80658 597.35737 907.43945 589.08789 C 927.73949 578.53339 939.77238 546.41825 915.3457 521.73242 C 906.06074 511.59527 898.46484 501.54542 898.46484 499.39844 C 898.46484 497.25143 905.50512 494.81595 914.10938 493.98633 C 936.92108 491.78694 937.4525 480.11393 913.73242 471.08594 C 891.22152 462.51831 864.83084 462.52324 846.16602 478.22852 C 829.93116 491.88933 812.88649 493.63541 808.45703 482.0918 C 805.16926 473.52439 826.76228 454.42112 837.97461 451.5625 C 870.64419 443.2334 871.74127 438.79821 848.94336 430.05273 C 828.11967 420.04327 830.42851 420.90546 842.98633 411.48438 C 845.95627 409.25577 861.88241 419.38812 863.65625 414.20312 C 870.2596 394.91036 889.27861 398.41713 873.83789 386.90625 C 866.62517 381.529 859.31097 389.17244 856.78711 387.98242 C 854.26477 386.79235 855.33639 378.45074 851.16211 372.37695 C 847.50996 367.06405 826.09997 368.12047 821.88086 370.77344 C 818.173 373.1044 818.06232 376.21329 817.71094 379.96094 C 817.12564 386.21138 819.156 385.24103 822.25781 385.33203 C 826.04666 385.44241 828.71242 382.60341 831.19336 378.04688 C 836.62257 377.13561 837.44412 377.27728 840.07617 379.18164 C 842.06559 380.6215 844.44886 385.2729 843.32812 388.79883 C 842.4411 391.58929 840.25908 398.23289 837.22266 402.86914 C 829.9921 413.90938 825.02009 418.50221 805.73047 421.03711 C 786.20442 423.61611 758.242 444.37553 748.7207 462.16602 C 744.60504 469.85666 744.23072 475.40678 758.2793 488.65625 C 766.1279 496.05875 778.1006 498.58213 779.86719 503.71484 C 781.63469 508.84756 775.62913 515.37429 771.83594 518.62695 C 766.45854 525.08734 761.84034 530.94655 757.90234 536.38867 C 727.08783 518.06203 693.61559 501.52039 659.6543 486.17773 C 657.20032 485.06911 654.73973 484.02407 652.27734 483.00977 C 656.94831 456.37653 668.83089 431.29193 686.93164 409.54883 C 694.81169 418.06325 693.70944 421.06988 690.46094 430.39062 C 686.62202 441.40748 711.21318 448.06241 731.2793 437.74219 C 736.33023 435.14442 737.37906 431.61915 740.51562 424.99609 C 747.06891 411.15711 741.43283 403.72676 727.56055 397.84961 C 722.00112 395.49432 714.61322 390.88572 709.56055 386.85547 C 731.71099 368.18611 759.48275 353.37104 791.94336 344.11914 C 802.60257 341.15528 814.51731 339.68094 826.87891 339.55469 z M 65.453125 459.18359 C 57.66517 459.19404 32.155488 465.34829 14.619141 459.9082 C 7.3457684 457.6518 2.0632181 471.97054 5.7460938 481.56836 C 7.0560241 484.74866 10.742567 487.52623 14.832031 488.78906 C 40.836208 491.26437 72.286083 464.06512 67.630859 459.60742 C 67.316536 459.30645 66.56569 459.1821 65.453125 459.18359 z M 448.2832 481.94727 C 448.28473 486.48308 448.29297 490.39011 448.29297 495.06445 C 448.29297 662.32174 447.28906 739.75884 447.28906 808.41016 C 447.28906 838.83812 417.74372 885.97716 360.82422 890.37109 C 363.80711 882.34013 365.36986 876.23382 366.35156 872.51562 C 378.3407 827.10642 374.4385 758.01758 327.66211 716.62695 C 326.42411 713.10592 329.97579 706.19697 331.44922 703.8125 C 335.11094 697.88793 340.80577 699.87353 348.52734 706.86133 C 353.49586 711.3577 364.3233 717.36146 372.88867 718.10156 C 382.46346 718.92888 388.2168 717.07878 388.2168 705.86914 C 388.22738 697.45531 382.80225 682.60171 376.18359 672.86133 C 358.98112 651.78458 359.07173 614.01474 395.14453 630.27734 C 409.64846 639.78087 415.68888 639.16615 412.28516 631.81641 C 381.15591 578.02588 330.33589 622.48104 325.10352 675.5957 C 322.62833 693.07651 319.23978 702.37125 316.48633 708.11719 C 314.07712 713.14516 315.09707 715.59522 297.76172 710.72461 C 287.94918 707.96756 265.28047 708.49227 267.36328 703.56836 C 277.87527 678.71884 280.20178 688.0344 286.9375 682.58008 C 301.0294 671.16895 297.50899 664.8652 269.76562 651.82422 C 269.76562 651.82422 252.94129 643.91171 248.3457 643.88281 C 244.65225 643.85788 226.68555 653.18164 226.68555 653.18164 C 214.77277 659.46592 196.96396 674.78416 187.11133 687.22266 C 177.25879 699.66117 166.12127 711.10777 162.36133 712.6582 C 154.51465 715.89444 144.70533 711.17459 146.83398 701.91211 C 147.8303 697.57735 147.12991 680.19359 138.87109 696.85938 C 134.75261 705.17068 133.79338 734.62837 143.53711 737.59375 C 167.04695 744.74834 193.88327 730.62023 201.04492 713.80078 C 207.73873 698.08016 229.65746 683.52966 243.80859 676.64062 C 261.41191 676.64062 258.87455 695.08564 250.79102 705.48047 C 242.28196 709.70611 227.00476 711.71896 218.53711 716.65625 C 168.70214 747.17935 158.05438 773.00176 180.35352 825.35938 C 188.91022 847.7631 182.34762 855.43198 172.05273 862.26758 C 157.2085 872.12362 159.03496 888.28846 176.44727 901.16211 C 218.99165 928.82991 206.34847 901.64589 201.99023 899.12109 C 196.13679 895.72984 186.38187 873.61373 197.93359 871.29297 C 207.61426 869.34799 237.79146 892.57965 243.80859 897.75781 C 251.3996 904.29044 298.54933 926.10803 303.67773 917.81055 C 304.91966 915.8012 299.38239 906.20367 291.37109 896.48438 C 279.85402 882.51241 273.40898 878.8125 260.58984 878.8125 C 247.19295 878.8125 238.38708 870.41395 234.36914 867.49805 C 209.59249 849.84037 243.15575 856.31992 258.54297 850.57422 C 278.53978 843.10723 283.70096 826.9672 288.24023 797.94531 C 291.27525 778.54093 295.34022 774.48901 285.99219 768.37109 C 278.8381 763.68912 276.12388 769.65805 273.38867 773.5957 C 267.94011 781.44017 268.7945 788.55041 266.22461 788.21875 C 263.65452 787.88714 259.29684 774.64845 256 771.35156 C 245.86056 761.21218 238.67953 760.19948 228.54492 771.25391 C 205.53959 796.3473 223.50683 810.52347 251.79883 806.05859 C 258.12675 805.05996 259.15444 798.02334 261.61523 798.35547 C 264.18538 798.7022 265.88934 798.6704 264.23438 813.81445 C 262.2387 832.07402 254.38076 841.16024 231.61328 841.26758 C 194.99417 841.43953 170.8805 796.11886 187.30273 763.74805 C 202.36305 734.06199 221.809 727.29471 255.64062 727.48438 C 291.25081 727.68419 322.57297 741.98341 342.73047 767.24609 C 354.38857 781.85636 357.05111 790.23567 358.56836 817.08984 C 360.71525 858.20383 348.07455 854.29529 331.68164 923.34766 C 329.51944 932.77809 328.49219 935.04853 318.73828 944.21289 C 301.90604 960.02767 228.53605 966.14961 195.98242 954.66406 C 162.3419 942.795 129.97492 909.75861 118.57812 884.75586 C 96.606394 836.553 96.951348 780.37551 101.04102 755.50977 C 103.01221 743.52514 103.92736 724.02248 107.36523 713.9043 C 131.29083 643.4902 167.5792 608.37971 180.25781 599.96289 C 197.42361 588.56735 223.8163 567.30749 232.98047 570.56641 C 243.59551 574.34135 239.3359 593.61264 222.45117 602.3457 C 212.93753 607.26628 206.36793 618.65294 207.70898 620.55078 C 237.44077 614.32632 277.59687 600.20638 291.94727 544.5332 C 291.94727 541.90467 299.92286 532.49844 309.66992 523.62891 C 318.81052 515.42692 328.02679 506.32126 344.35352 501.23438 C 364.71189 495.9106 360.97953 512.4988 331.93359 537.9082 C 292.87444 572.07767 304.32851 566.92599 308.05078 575.98633 C 317.55767 599.12655 319.01252 589.0259 332.86133 567.08789 C 345.43839 547.16425 361.05804 541.85288 372.73438 553.5293 C 377.12012 557.91504 382.45891 555.19929 395.9375 541.7207 C 408.43991 526.65666 409.80953 512.55512 412.04688 507.27539 C 414.77333 500.84246 410.30202 485.63184 429.78516 484.98633 C 436.04457 483.87429 442.20806 482.86081 448.2832 481.94727 z M 650.41797 498.04883 C 682.61376 509.83084 715.13432 526.48231 749.94141 548.41406 C 731.19985 580.09287 740.2716 598.99479 764.02148 649.50977 C 763.04036 650.37132 750.42384 652.16111 735.98438 653.48828 C 715.97182 654.24134 702.43737 654.17308 691.79883 654.85742 C 679.52672 636.40646 670.89285 619.16127 664.82031 603.54297 C 672.01983 600.73844 678.65427 597.41886 684.05859 592.96875 C 701.67249 578.46503 695.53414 552.17995 671.88477 554.21289 C 665.3539 554.77427 658.81171 555.15802 652.32031 556.26953 C 649.68569 537.31658 650.77323 524.41355 650.42969 519.61328 C 649.90478 512.36373 649.90785 505.16398 650.41797 498.04883 z M 763.35742 557.07422 C 765.01599 558.16441 766.66017 559.22425 768.33008 560.33789 C 806.49272 587.51357 842.34966 621.57601 869.04688 664.14844 C 865.79784 664.70667 862.50664 665.09093 859.15039 665.20703 C 836.8854 665.97735 836.00992 669.27071 804.77539 652.39453 C 766.08584 625.25319 750.02517 587.4044 763.35742 557.07422 z M 876.70117 677.01758 C 890.53804 701.70479 901.31511 729.08918 907.82812 759.46484 C 909.49165 768.33727 916.02919 781.61158 883.14453 757.99219 C 860.59062 741.79269 842.06195 725.42927 811.58398 719.95898 C 781.8527 714.62269 737.68929 711.62954 720.62695 692.24219 C 716.3541 687.38715 712.35683 682.59148 708.58789 677.85352 C 770.60813 678.64714 796.41706 700.92574 824.54297 686.95508 C 843.64227 684.23183 861.00044 680.99623 876.70117 677.01758 z "/>
</svg>
