<?xml version="1.0" encoding="UTF-8"?>
<svg version="1.0" xmlns="http://www.w3.org/2000/svg" xmlns:xlink="http://www.w3.org/1999/xlink" x="0px" y="0px" viewBox="0 0 1000 1000">
<path d="M 509.27734 0 C 507.93536 -0.0072753016 506.47275 0.09143125 504.9082 0.31445312 C 490.8722 2.3152871 481.97703 14.872584 482.58203 31.833984 C 483.86203 67.720184 534.87417 84.407587 590.07617 66.992188 C 607.78617 61.404787 659.06877 50.193463 681.63477 47.164062 C 658.30877 53.383063 631.06397 64.521606 616.54297 71.191406 C 604.78997 76.590106 535.13531 101.8153 516.57031 141.2793 C 488.63731 200.6553 498.13573 208.57658 484.80273 231.26758 C 477.86573 231.16758 451.48937 181.18105 453.85938 172.62305 C 455.12038 168.07205 461.45178 161.61062 467.92578 158.26562 C 481.68878 151.15162 484.76586 136.35039 471.38086 141.65039 C 466.69886 143.50439 456.03083 146.56136 447.67383 148.44336 C 439.31583 150.32536 430.02634 153.331 427.02734 155.125 C 420.37334 159.106 419.49995 186.61528 425.50195 203.11328 C 429.22595 213.34828 428.01694 216.39948 417.58594 223.02148 C 406.74694 229.90248 405.56753 233.23441 407.76953 250.81641 C 410.09153 269.35841 419.70539 288.47064 419.90039 274.93164 C 419.94139 271.80164 425.28839 265.868 431.77539 261.75 C 441.66539 255.471 445.18273 255.30227 453.55273 260.69727 C 466.13173 268.81127 466.11581 280.17672 453.50781 291.26172 C 448.11981 295.99772 443.67644 301.72805 443.64844 303.99805 C 443.59244 307.87005 427.45866 327.35812 407.97266 347.07812 C 390.94666 364.30912 383.97036 354.14855 397.31836 331.56055 C 404.75836 318.96855 407.67806 295.67372 401.41406 298.88672 C 399.40406 299.91772 390.64317 303.44933 381.95117 306.73633 C 367.68117 312.13333 366.11983 314.65911 365.79883 332.78711 C 365.60383 343.82811 364.06205 357.74117 362.37305 363.70117 C 361.01505 368.49317 356.73333 372.39603 350.98633 381.08203 C 345.69558 389.07868 340.62425 396.52841 335.23828 403.2168 L 335.23828 200.50977 C 335.23828 169.19259 349.75101 119.95703 438.20508 119.95703 C 440.46625 119.95703 440.05664 115.91491 440.05664 111.39258 C 440.05664 108.93356 439.12302 108.69198 430.19141 108.73438 C 427.22362 108.74851 423.36658 108.77688 418.34961 108.79102 C 410.31552 108.80359 367.2963 110.0291 307.89648 110.30078 C 300.59657 83.793604 282.59691 59.213039 274.15234 48.171875 C 267.00734 38.829675 265.40008 40.511097 281.45508 43.716797 C 290.73008 45.568697 307.9498 53.444831 320.7168 59.207031 C 373.4048 82.986531 417.20578 87.127722 439.55078 83.482422 C 445.67878 82.482822 459.87486 72.586366 463.50586 66.072266 C 467.21586 59.415666 469.9792 44.229334 462.5332 29.615234 C 452.7482 10.408234 450.02678 9.2491144 448.30078 30.490234 C 447.50778 40.243934 445.37355 50.550178 443.56055 53.392578 C 436.63055 64.252778 421.13059 57.873706 408.43359 38.941406 C 398.99659 24.869406 391.99386 19.496869 382.75586 19.230469 C 366.97386 18.775369 358.60378 27.968703 362.05078 41.970703 C 365.26978 55.046003 353.86855 56.042888 328.31055 44.929688 C 306.24255 35.333888 302.47777 28.505262 316.50977 23.539062 C 327.47677 19.658162 352.00114 14.37749 304.61914 2.8125 C 282.91714 -2.48475 197.51873 2.1093656 180.92773 8.6035156 C 172.93773 11.730806 152.27881 18.816791 148.88281 19.462891 C 145.48781 20.108891 130.27973 27.075075 120.80273 32.484375 C 99.041134 44.905675 82.958875 42.917975 74.046875 29.796875 C 65.890475 17.787275 26.71605 8.7846788 18.28125 16.980469 C 11.89895 23.181769 11.291087 44.131603 17.492188 44.220703 C 24.761988 44.325403 67.744084 59.291362 66.583984 67.101562 C 64.696884 79.804563 38.937769 102.86127 22.605469 133.69727 C -18.954631 212.16527 -7.5670037 338.64052 93.503906 400.60352 C 109.43081 410.36852 79.163441 427.01305 78.056641 461.12305 C 77.560641 476.42305 64.628756 481.54364 53.847656 477.55664 C 20.231756 465.12364 0.89057613 507.14761 1.2207031 525.97461 C 1.8665731 562.85761 11.043494 597.21839 27.871094 619.77539 C 39.783494 635.74339 49.003766 665.53508 48.947266 669.83008 C 48.848466 676.91808 50.932647 682.39439 38.123047 677.90039 C 30.362447 675.17739 8.2776869 671.36158 3.9667969 693.14258 C -0.23700712 714.38258 3.7303987 732.07366 21.824219 748.09766 C 26.339719 752.09666 44.457603 742.70503 49.158203 736.33203 C 58.277303 723.96703 63.197856 687.53114 63.347656 677.11914 C 63.523056 664.95414 73.07645 645.9173 78.53125 654.6543 C 82.05335 660.2953 83.514403 660.22131 87.595703 654.19531 C 96.519603 641.01831 93.116781 635.30366 77.925781 613.59766 C 69.652181 601.77566 59.576669 597.03627 52.167969 580.57227 C 46.670669 568.35527 43.477306 527.82416 49.253906 521.41016 C 63.468406 505.62616 58.447325 536.16645 68.015625 562.31445 C 82.525825 601.96845 84.021841 614.00691 103.24414 637.12891 C 137.47614 678.30391 183.45969 670.48333 206.55469 637.48633 C 224.07269 612.45833 226.52586 601.98013 211.63086 616.45312 C 206.01186 621.91313 200.41622 625.35261 199.19922 624.09961 C 197.98222 622.84661 196.18681 610.61783 195.25781 596.92383 C 192.82681 561.11983 155.45583 508.83144 117.04883 527.39844 C 103.31583 534.03744 101.76116 575.27336 114.53516 586.56836 C 135.67716 605.26036 158.31277 598.20439 152.75977 574.65039 C 151.06377 567.45439 147.98583 562.57069 145.92383 563.80469 C 143.86283 565.03769 139.21666 564.16447 135.59766 561.85547 C 130.15366 558.38147 130.64611 555.44209 137.91211 544.49609 C 149.69411 526.74509 172.9793 568.015 175.9043 581.5 C 180.8623 604.366 174.53536 613.85167 162.56836 625.76367 C 153.73236 634.55967 133.76783 632.75823 116.92383 618.49023 C 109.08983 611.85423 102.55662 606.63761 99.294922 592.84961 C 96.771722 582.17461 92.631009 569.63547 90.099609 564.98047 C 77.746209 542.26647 97.529559 450.47605 119.00586 430.87305 L 129.41992 417.09375 C 146.31392 426.70875 155.3325 430.92222 167.8125 437.07422 C 173.4785 439.86722 188.65844 442.7517 196.02344 445.8457 C 206.51144 450.2507 225.6085 446.36719 213.0625 452.49219 C 195.5485 461.04019 173.92184 493.81595 173.46484 512.50195 C 173.25184 521.27495 176.38564 535.08631 180.43164 543.19531 L 187.78516 557.94141 C 212.60516 588.39441 201.51439 552.54839 204.27539 542.27539 C 209.75739 521.87439 220.58547 524.97772 218.35547 503.51172 C 216.05047 481.31872 221.90844 466.2638 232.52344 465.9668 C 234.55831 465.90975 236.5959 465.80774 238.63281 465.66992 C 238.64867 538.87552 238.65776 612.0803 238.65039 685.28125 C 160.40386 686.59494 97.946739 718.43105 63.171875 772.42383 C 51.743575 790.16783 -14.598394 803.41805 10.816406 849.87305 C 31.742806 888.12405 9.0243125 904.69858 3.6953125 940.76758 C -2.7952075 984.69958 9.1722244 964.25256 24.896484 976.97656 C 33.695384 984.09656 56.085944 994.15553 60.089844 993.14453 C 88.977544 985.85053 110.10772 1008.7001 110.26172 995.62109 C 110.61972 965.31909 83.542581 968.89308 83.613281 961.58008 C 70.343881 954.34908 67.807166 936.2262 63.134766 936.1582 C 58.972766 936.0992 63.292453 924.35152 63.376953 918.47852 C 63.504153 909.33352 66.9396 908.87906 81.4375 928.78906 C 90.3373 941.01206 115.00992 965.52848 154.04492 973.52148 C 174.97592 977.80648 185.4503 981.23878 199.1543 978.05078 C 209.1473 975.72478 222.05598 973.19859 227.83398 972.43359 C 233.61598 971.66959 246.32703 966.48597 256.08203 960.91797 C 277.03503 948.95797 282.97403 948.35073 282.83203 958.17773 C 282.77603 962.16673 280.54767 965.40128 277.88867 965.36328 C 271.05467 965.26428 271.70284 977.64931 278.83984 983.57031 C 282.12484 986.29531 291.74566 990.11078 300.22266 992.05078 C 313.05366 994.98578 317.47142 993.52145 326.60742 983.31445 C 333.65042 975.44645 342.5792 971.12881 351.5332 971.25781 C 365.7352 971.46181 381.24791 982.24373 389.25391 987.30273 C 402.92591 995.94173 430.48314 995.53508 446.74414 989.58008 C 455.05014 986.53808 443.89627 977.30156 429.94727 970.35156 C 408.55327 959.69156 387.19181 950.79111 366.13281 936.78711 C 323.25381 908.27211 292.26078 926.22056 268.42578 933.85156 C 241.15478 942.58356 226.45686 944.52959 229.63086 940.05859 C 236.95748 929.73617 243.67262 916.57425 248.49023 902.57227 C 260.39973 902.49214 272.60125 902.43359 285.16602 902.43359 C 356.19496 902.43359 409.31907 903.98782 418.34961 904.00195 C 423.35244 904.01609 427.22362 904.05813 430.19141 904.07227 C 439.10889 904.11466 440.04297 903.8609 440.04297 901.41602 C 440.04297 896.87955 440.45211 892.85156 438.20508 892.85156 C 349.75101 892.85156 335.23679 820.96022 335.22266 789.62891 C 335.22266 765.08677 335.22004 740.52773 335.2168 715.9707 C 357.69296 723.05529 379.33905 731.97331 399.68164 740.97656 C 427.06764 753.09756 462.0182 768.9323 460.1582 774.2793 C 459.1322 777.2283 452.27016 781.67816 444.91016 784.16016 C 434.08216 787.81316 430.66128 787.07139 426.98828 780.27539 C 421.75328 770.59839 403.43669 768.89325 394.80469 777.28125 C 388.45769 783.44825 387.02517 801.06008 391.45117 818.58008 C 394.55117 830.85008 402.69837 833.54066 402.85938 822.34766 C 402.94538 816.41066 409.58466 815.39131 438.97266 816.82031 C 469.04766 818.28231 474.06916 815.05916 481.53516 809.91016 C 494.80916 800.75616 510.49967 808.01419 526.63867 817.36719 C 546.04498 828.61418 599.22648 837.54975 642.55859 834.04102 C 662.87952 863.74976 646.94807 874.13487 577.36523 892.78125 C 575.18886 893.36067 575.5293 896.82337 575.5293 901.3457 C 575.5293 903.80472 576.47556 904.04435 585.37891 904.00195 C 588.36082 903.98782 592.2042 903.93164 597.20703 903.93164 C 606.23757 903.91751 685.27965 902.37695 756.30859 902.37695 C 827.35167 902.37695 880.47532 903.93164 889.50586 903.93164 C 894.50869 903.94577 898.36769 903.98782 901.34961 904.00195 C 910.26709 904.04435 911.19922 903.80472 911.19922 901.3457 C 911.19922 896.82337 911.60882 892.78125 909.34766 892.78125 C 830.48712 883.97443 790.71239 841.7742 730.79297 775.88086 C 751.34152 727.17808 743.75355 602.37278 671.49414 600.01367 C 652.34914 599.38767 646.64327 616.94364 641.94727 616.30664 C 630.74127 614.78764 624.49688 626.24005 628.54688 640.87305 C 632.28887 654.39405 656.33717 675.45489 670.32617 677.46289 C 683.86717 679.40689 689.15542 660.44245 676.60742 654.93945 C 665.70242 650.15645 659.71764 631.17619 675.43164 627.99219 C 707.74336 621.44394 719.88359 732.66636 710.74609 753.89453 C 704.80682 747.41152 698.71862 740.80381 692.28906 733.94727 L 675.25977 715.78711 L 566.74805 600.09375 C 591.05858 575.22091 621.72702 554.87118 651.97461 540.82812 C 689.60961 523.35613 685.08159 529.87956 707.43359 535.35156 C 719.64059 538.33956 754.49414 554.40086 756.74414 562.50586 C 761.55914 579.84786 774.52144 587.26133 777.14844 592.23633 C 780.86744 599.28333 779.49759 603.79044 770.93359 612.64844 C 760.12459 623.82944 760.08745 624.182 768.93945 634.25 C 775.59245 641.817 784.91042 643.77859 791.73242 641.93359 C 801.02942 639.41859 805.76078 630.04805 812.05078 623.62305 C 819.33778 616.18005 814.25545 592.87973 816.43945 592.17773 C 816.60445 592.12573 816.77603 592.11548 816.95703 592.14648 C 818.23103 592.37848 819.96948 594.65091 822.52148 598.12891 C 826.35248 603.34691 829.38286 614.74227 829.25586 623.44727 C 829.10286 634.11327 826.12397 641.15123 819.66797 644.11523 L 786.4082 659.38672 C 769.5732 667.11672 767.49078 665.9653 778.42578 678.4043 C 788.27478 689.6063 799.23155 689.89041 818.06055 679.44141 C 835.51755 669.75341 840.16556 672.6777 833.60156 689.2207 C 830.29856 697.5447 822.35377 703.32716 808.25977 707.66016 C 789.29977 713.48916 774.00478 726.92472 779.67578 732.76172 C 782.43978 735.60572 817.7967 724.57336 837.5957 714.69336 C 853.3847 706.81436 855.17747 703.134 859.98047 668.625 C 864.20047 638.307 849.79305 594.60456 823.99805 574.10156 C 789.82305 546.93756 712.61159 534.01867 721.43359 518.01367 C 775.94859 511.66767 836.82345 517.81186 884.31445 553.63086 L 880.75781 577.00781 C 877.09681 601.06181 879.76589 608.70828 911.08789 663.73828 C 918.18689 676.21228 919.02873 682.25248 915.05273 692.27148 C 904.98473 717.64948 926.21161 712.94994 937.34961 687.33594 C 947.07061 664.97894 946.83308 644.96372 936.70508 632.63672 C 932.13008 627.06772 924.64917 617.89977 920.07617 612.25977 C 908.52217 598.01277 909.45037 582.73802 921.85938 582.91602 C 927.26137 582.99402 925.67694 578.74667 932.83594 589.13867 L 963.29688 633.35938 C 1002.3999 690.13737 982.16173 792.80797 967.67773 821.91797 C 961.12873 835.07897 947.33506 823.34272 933.03906 823.13672 C 916.71606 822.90172 913.37247 814.9593 922.35547 797.7793 C 928.49547 786.0373 928.24761 784.26037 919.84961 779.60938 C 905.29361 771.54737 896.79603 773.31089 893.45703 785.08789 C 888.72703 801.77389 891.45056 805.07231 897.47656 811.94531 C 889.63256 809.42831 880.72227 808.28422 871.57227 801.19922 C 841.51927 777.93122 883.06909 776.50791 862.37109 756.75391 C 849.26909 744.24991 829.98464 738.88167 827.68164 773.76367 C 824.51964 821.63967 849.67212 819.0753 889.20312 832.7793 C 886.91613 833.8713 880.55516 841.20764 881.78516 844.55664 C 883.33916 848.78564 884.56577 855.3837 884.50977 859.2207 C 884.39777 867.2947 905.21297 876.86 915.04297 873.25 C 918.71497 871.901 924.28869 865.36361 927.42969 858.72461 C 934.86269 843.01561 961.15002 871.29928 969.29102 888.98828 C 977.79002 907.45728 971.92819 918.89016 955.74219 915.41016 C 947.45319 913.62816 936.98241 916.03575 926.69141 922.09375 C 910.68441 931.51575 910.65969 931.60078 920.80469 938.92578 C 937.87769 951.25378 932.63756 955.72805 905.35156 952.12305 C 889.21856 949.99105 854.74481 910.88664 837.38281 918.05664 C 758.54481 950.61664 733.56208 931.02731 719.08008 920.57031 C 705.66308 910.88231 676.18116 922.22431 678.78516 932.07031 C 683.14516 948.55531 696.6948 964.78203 684.5918 975.20703 C 675.8868 982.70503 672.50731 985.70069 674.07031 990.17969 C 678.59931 1003.1607 698.84347 998.33866 701.98047 991.47266 C 708.18447 977.89466 714.08564 954.26338 720.68164 960.85938 C 731.45064 971.62838 745.22495 962.40297 731.62695 987.16797 C 728.89595 992.14197 729.07058 999.761 737.64258 998.25 C 744.13658 997.105 749.01603 995.02853 752.33203 997.14453 C 756.13703 999.57253 759.58348 996.6275 761.27148 983.0625 C 762.03448 976.9385 766.00908 970.29266 767.95508 969.72266 C 771.32808 968.73466 779.12225 969.13328 783.65625 970.61328 C 790.80625 972.94828 804.24569 986.15888 804.17969 990.67188 C 804.10469 995.88387 809.40081 997.99736 823.00781 998.19336 C 839.39581 998.42836 842.83136 996.52869 848.56836 984.05469 C 854.99036 970.09269 855.013 964.59669 860 972.92969 C 861.337 975.16569 868.64519 976.16806 876.24219 975.16406 C 884.97219 974.01106 892.35373 976.19275 896.30273 981.09375 C 899.74073 985.35975 906.64181 988.91042 911.63281 988.98242 C 916.62581 989.05442 920.68653 991.28727 920.64453 993.94727 C 921.44553 1009.5293 971.23128 992.13405 981.11328 971.49805 C 991.34528 950.13305 993.78459 911.07136 991.30859 897.69336 C 989.20459 886.32336 994.14353 870.81861 979.89453 869.47461 C 971.52953 868.94261 970.75558 869.59725 967.26758 862.28125 C 959.46758 845.92525 969.13097 847.74084 975.54297 838.58984 C 989.11597 819.21984 999.23661 767.70967 999.47461 743.26367 C 999.90461 699.25567 999.27519 649.28008 948.24219 586.83008 C 934.77319 570.34808 927.59206 559.7067 935.03906 552.4707 C 936.84306 550.7177 941.71814 552.41328 945.86914 556.23828 C 951.15214 561.10928 960.31097 562.50744 976.41797 560.89844 C 999.20297 558.62144 999.42473 558.43342 999.67773 540.85742 C 999.98073 519.90142 992.02109 508.91692 982.24609 516.79492 C 978.68409 519.66592 975.72202 525.26247 975.66602 529.23047 C 975.58402 535.57947 974.21381 535.53467 964.38281 528.88867 C 958.23681 524.73367 943.61677 520.4712 931.88477 519.4082 C 912.85777 517.6842 910.36761 518.64217 908.84961 528.32617 C 906.73461 541.81917 906.96639 541.84222 883.15039 526.32422 C 871.54939 518.76522 854.73294 512.80453 842.08594 511.76953 C 816.00794 509.63453 810.77053 504.32033 823.76953 496.23633 C 850.83653 479.40333 885.89436 464.38472 908.06836 445.26172 C 930.36836 426.02872 950.08734 427.93728 951.77734 441.11328 C 952.49034 446.67528 949.66009 453.97403 945.49609 457.33203 C 941.33009 460.68903 937.88412 466.43561 937.82812 470.09961 C 937.71613 477.77161 950.1717 479.29406 954.7207 472.16406 C 956.4027 469.52906 965.19205 467.48523 974.24805 467.61523 C 993.51905 467.89323 1004.4104 454.75767 994.85938 442.76367 C 984.03037 429.16967 952.1175 413.20066 946.5625 418.59766 C 943.7225 421.35766 927.38091 423.36108 925.25391 423.33008 C 931.72391 413.06108 927.17573 411.92566 944.92773 390.59766 C 955.07773 378.40566 966.57147 363.03441 970.48047 356.44141 C 991.11547 321.63541 1000 250.03731 1000 218.07031 C 1000 185.34331 992.53656 117.40572 983.97656 105.01172 C 978.82756 97.555919 974.66761 87.987353 974.72461 83.751953 C 974.78061 79.516653 966.93153 67.045409 957.26953 56.037109 C 943.29053 40.109109 940.75914 34.390309 944.86914 28.037109 C 954.33114 13.410209 968.28545 15.939422 973.18945 33.169922 C 980.21145 57.840322 990.52841 57.314575 989.06641 32.359375 L 987.85547 11.640625 L 958.92773 5.4414062 C 950.57756 3.6510213 939.87451 2.5554923 935.59961 2.0019531 C 936.24761 1.6867431 936.02239 1.5393931 934.40039 1.5644531 L 934.36328 1.5644531 C 932.72428 1.5906231 933.7008 1.7571131 935.5918 2.0019531 C 933.49282 3.0214807 921.96287 5.8128377 916.38086 10.363281 L 902.73633 21.486328 L 917.20508 37.070312 C 933.91908 55.072012 935.65231 65.788844 921.82031 65.589844 C 901.52731 65.297844 912.47577 93.086075 939.25977 109.85938 C 959.14377 122.31137 978.75134 141.73223 978.65234 148.86523 C 978.61134 151.38723 978.04581 153.46102 977.38281 153.41602 C 935.30081 150.55102 913.28445 79.906563 874.18945 58.914062 C 858.25345 50.357363 883.80063 20.839724 869.51562 9.1210938 C 843.22663 -12.444676 815.11398 16.674012 774.45898 15.007812 C 756.54698 14.273613 741.76442 18.243513 738.85742 19.257812 C 707.94942 30.043512 675.61569 29.677163 652.80469 34.164062 C 621.13769 40.392663 614.29766 44.118919 595.84766 29.949219 C 580.74866 18.353319 584.80673 15.246966 576.80273 15.322266 C 568.23073 15.402666 556.70312 31.367188 556.70312 31.367188 C 531.25213 51.688387 514.81517 50.408456 509.57617 27.722656 C 506.55117 14.627556 507.16722 11.447112 513.19922 8.9824219 C 522.15493 5.3239891 518.67919 0.062812132 509.28125 0 L 509.2793 0 L 509.27734 0 z M 216.11523 36.0625 C 236.93723 44.2642 238.98611 43.331331 258.78711 59.769531 C 277.59294 75.381735 286.35498 96.252462 290.32617 110.34766 C 288.56951 110.34956 286.94559 110.36133 285.16602 110.36133 C 214.12294 110.36133 149.14382 108.80515 140.11328 108.79102 C 135.09631 108.79102 131.25145 108.74851 128.26953 108.73438 C 119.35205 108.69198 118.41992 108.93356 118.41992 111.39258 C 118.41992 115.91491 118.00882 119.95703 120.25586 119.95703 C 222.82809 119.95703 238.62891 169.19259 238.62891 200.50977 C 238.61933 227.13191 238.62311 253.7559 238.62109 280.37891 C 229.73978 273.6805 215.74533 264.92586 207.42578 260.87305 C 187.28378 251.06105 181.46253 227.42248 195.76953 213.52148 C 205.53953 204.02848 205.56133 204.032 215.61133 214.375 C 221.14433 220.07 227.84295 224.75888 230.50195 224.79688 C 236.03995 224.87688 237.58145 200.83278 232.06445 200.42578 C 230.07145 200.27878 218.16928 199.26873 205.61328 198.17773 C 186.66428 196.53173 180.77872 198.13595 171.01172 207.62695 C 161.24072 217.12095 159.40231 223.15836 160.19531 243.19336 C 161.21931 269.09636 159.83697 271.05825 148.16797 260.28125 C 136.75397 249.74225 114.89912 255.72256 106.32812 271.72656 C 95.877625 291.24356 96.744063 308.62905 108.35156 312.49805 C 113.64656 314.26305 117.94697 317.51484 117.91797 319.71484 C 117.87697 321.91584 126.54792 324.66698 137.16992 325.83398 C 147.79192 327.00198 156.48719 327.67784 156.49219 327.33984 C 156.63819 317.23684 143.793 296.05648 135 291.89648 C 120.771 285.16448 119.95456 278.41594 132.97656 275.21094 C 139.65456 273.56594 147.63661 278.18798 159.09961 290.33398 C 173.08361 305.15198 176.76417 306.88427 183.20117 301.69727 C 187.37917 298.32927 190.84144 292.58197 190.89844 288.91797 C 191.01044 280.85297 191.82531 280.80939 208.82031 288.02539 C 222.13589 293.67978 231.82172 298.21045 238.61719 301.83789 C 238.61711 306.97984 238.61707 312.1217 238.61719 317.26367 C 208.48593 325.62998 173.79018 343.60208 148.57617 366.8125 C 133.62817 380.5715 130.35986 382.94242 124.50586 382.85742 C 108.87686 382.63242 71.645166 347.47002 57.822266 328.91602 C 37.132866 301.14602 21.710753 267.21541 43.251953 242.19141 C 55.528453 227.93041 79.056528 217.90622 78.861328 231.44922 C 78.734228 239.99522 79.2976 240.09198 95.125 234.33398 C 104.6775 230.85898 107.66841 225.9725 109.06641 211.5625 C 110.74841 194.2215 112.02272 192.95352 132.38672 188.35352 C 160.40372 182.02452 162.09312 175.24272 137.57812 167.51172 C 112.60112 159.63572 95.197934 163.17705 76.240234 179.99805 C 63.968534 190.88705 62.626869 204.79822 53.980469 213.19922 C 45.334069 221.60022 40.336947 220.09086 40.498047 209.13086 C 40.596847 202.68486 45.657441 195.13456 50.306641 199.60156 C 63.288041 212.07256 54.287047 189.04775 37.810547 174.71875 C 32.424047 170.03475 52.283425 122.99006 71.265625 109.41406 C 84.190425 100.17006 74.838125 141.3175 90.078125 129.9375 L 123.17578 105.22266 C 159.88278 77.813056 215.16344 110.26402 182.27344 65.166016 C 178.60144 60.131116 156.99081 58.761625 159.75781 53.765625 C 176.54081 44.478625 177.95423 37.9482 216.11523 36.0625 z M 773.45898 40.107422 C 777.17787 40.072134 780.12855 40.1729 782.0293 40.328125 C 802.1963 41.975125 826.7022 39.654028 821.1582 90.923828 C 820.48493 97.151007 820.22608 103.24329 820.41016 107.98242 C 798.48946 108.31429 771.42089 108.60742 740.65039 108.60742 C 692.31504 108.60742 648.22388 107.90587 621.21289 107.44141 C 624.45352 98.19921 628.19877 90.775395 632.00195 86.439453 C 638.11795 79.466553 676.15677 60.197331 726.75977 46.332031 C 744.22277 41.547406 762.30231 40.213284 773.45898 40.107422 z M 859.42773 72.433594 C 863.29097 72.606144 868.77883 75.421875 877.49414 81.882812 C 892.39314 92.928612 911.30245 118.35414 939.31445 151.74414 C 951.14245 165.84314 941.8035 198.14262 930.0625 191.64062 C 913.5295 182.48363 913.14552 171.32239 913.35352 156.90039 C 913.46552 149.11239 911.56486 142.70883 909.13086 142.67383 C 906.69786 142.63983 898.63861 135.99225 891.22461 127.90625 C 888.53081 124.96869 885.80582 122.23558 883.32227 119.92773 C 886.74177 119.30857 890.19483 118.72559 893.68945 118.18945 C 895.90822 117.85028 895.52734 114.16147 895.52734 109.625 C 895.52734 107.16598 894.59326 106.92635 885.67578 106.96875 C 882.708 106.98288 878.83682 107.02493 873.83398 107.03906 C 869.70205 107.04553 855.45256 107.38135 835.36719 107.73633 C 836.74726 105.16683 838.30068 102.24362 840.46875 99.03125 C 850.29588 84.4711 850.92863 72.053984 859.42773 72.433594 z M 605.64453 93.683594 C 604.26482 97.863593 602.78041 102.39558 601.25977 107.125 C 599.6905 107.10302 596.37321 107.04028 595.59766 107.03906 C 590.58648 107.03906 586.74804 106.98296 583.76758 106.96875 L 583.75391 106.96875 C 580.71807 106.95442 578.66047 106.98348 577.19922 107.11328 C 588.61933 100.09515 599.05373 95.735719 605.64453 93.683594 z M 573.94922 109.17383 C 573.93799 109.32244 573.91797 109.45611 573.91797 109.625 C 573.91797 114.16147 573.57949 117.61003 575.75586 118.18945 C 583.17529 120.17808 589.87558 122.23506 595.91992 124.35352 C 589.01193 147.57173 582.3512 174.55212 580.26758 201.11328 C 580.26362 201.10675 580.25982 201.10028 580.25586 201.09375 C 580.25766 201.13408 580.25804 201.17451 580.25977 201.21484 C 579.91361 205.65217 579.69642 210.07348 579.62695 214.46484 C 577.23907 232.79392 569.11016 251.27147 561.74609 268.01953 L 440.75195 391.4375 C 434.69846 383.69624 422.26052 375.82161 411.20117 374.40039 L 396.71875 372.53711 L 423.44727 352.02344 C 438.43927 340.51944 455.63586 321.44127 464.75586 308.32227 C 473.87486 295.20227 483.77553 276.83308 488.39453 271.58008 C 493.01353 266.32708 498.7538 249.44767 503.5918 234.88867 C 516.4218 196.27967 506.56208 191.65539 534.33008 148.15039 C 545.32366 130.92608 560.14424 118.14087 573.94922 109.17383 z M 870.72266 122.42578 C 871.39144 127.78814 873.76818 134.45345 877.48633 139.51953 C 889.22833 155.51653 886.38541 161.65248 870.19141 155.27148 C 846.64441 145.99448 832.56888 155.46234 830.04688 182.27734 C 826.44088 220.63534 841.42247 249.11302 861.35547 241.79102 C 869.35047 238.85402 869.4135 237.98753 862.1875 229.76953 C 851.6245 217.75453 852.61308 203.89934 864.95508 191.02734 C 877.91708 177.50934 900.66698 181.47817 916.08398 199.95117 C 925.50498 211.24217 920.97858 212.04364 937.64258 208.18164 C 952.11658 204.82664 956.48953 201.29589 957.89453 191.83789 C 960.79753 172.29789 967.29933 170.46509 975.48633 186.87109 C 981.83133 199.58609 982.43119 210.64783 978.99219 251.54883 C 975.15619 297.16783 974.40544 299.77891 969.02344 286.12891 C 965.82144 278.00791 957.7007 268.31098 950.9707 264.58398 C 923.8937 249.58798 915.58566 281.42361 932.47266 335.47461 C 944.71266 374.65061 949.61806 382.35916 903.28906 426.66016 C 885.18306 443.97316 882.15147 443.56711 872.10547 447.91211 C 873.03647 442.14211 884.62892 422.28392 892.66992 417.91992 C 908.46492 409.34892 909.17284 405.08836 903.46484 352.94336 C 901.31884 333.34736 896.65178 323.80734 879.05078 303.02734 C 867.08178 288.89734 853.1945 277.27512 848.1875 277.20312 C 835.4805 277.02013 836.6058 280.02878 855.7168 297.30078 C 877.7608 317.22378 877.63242 326.25064 855.35742 322.30664 C 831.78842 318.13364 832.81408 329.51558 858.20508 353.89258 C 877.01708 371.95258 877.878 373.98761 873.25 389.34961 C 869.839 400.67461 865.07142 406.0623 857.60742 407.0293 C 850.50842 407.9483 846.90361 405.90505 846.97461 400.99805 C 847.30761 377.88205 822.67714 349.37608 802.11914 349.08008 C 793.72214 348.96008 788.3693 368.39731 794.6543 376.19531 C 798.3143 380.73631 795.63584 382.55497 783.83984 383.54297 C 771.62184 384.56697 767.12619 387.82487 763.49219 398.29688 C 757.05819 416.83288 762.17761 435.5508 773.72461 435.7168 C 781.59661 435.8298 782.62525 433.32486 780.53125 419.13086 C 778.31725 404.12586 779.37161 402.09662 790.84961 399.39062 C 805.57061 395.91962 817.91361 404.1515 817.72461 417.3125 C 817.52261 431.2575 826.27989 433.28375 849.71289 424.71875 C 861.69989 420.33675 872.38808 417.65395 873.45508 418.75195 C 876.56208 421.94995 848.53844 456.33656 822.52344 473.10156 C 793.91144 491.54056 796.68212 505.93059 744.32812 499.68359 C 733.30313 498.36759 716.36141 500.57506 696.81641 505.78906 C 699.66741 503.10006 702.42995 500.11867 705.00195 496.76367 C 709.13095 491.37867 713.59036 485.51105 716.81836 478.49805 C 721.17436 469.03105 723.95128 458.96044 723.11328 449.02344 C 720.16928 414.11744 695.9248 402.91791 687.7168 403.50391 C 686.5438 403.58691 685.67923 403.91917 685.24023 404.45117 C 681.73323 408.71017 701.4195 427.20113 699.4375 449.57812 C 698.9535 455.05412 698.02258 460.7838 695.14258 466.9668 C 693.03058 471.5018 689.91369 475.81395 687.55469 480.25195 C 676.51169 501.02795 652.08061 516.60852 647.84961 523.35352 C 615.97761 537.59752 583.93533 557.59539 562.11133 582.02539 C 549.32633 504.79439 531.68423 469.87492 459.11523 479.29492 C 457.6338 479.4872 456.07868 479.86738 454.47266 480.38867 L 446.33203 471.70898 C 438.14943 462.98936 434.5309 456.27762 440.29688 449.97461 C 483.14221 403.12996 519.77714 365.07046 556.74414 329.37109 L 564.24414 341.7832 C 576.69314 362.3862 577.1003 365.03706 572.0293 391.66406 C 565.8493 424.12006 554.37972 436.41416 539.26172 426.78516 C 533.06572 422.83916 530.91161 417.49656 532.72461 410.60156 C 534.60061 403.46856 532.86678 399.60772 527.05078 398.01172 C 507.00278 392.50372 500.18595 408.80825 511.62695 434.90625 C 517.22995 447.68925 519.18544 448.72306 539.64844 449.66406 C 549.11944 450.10006 552.02131 453.10102 553.07031 463.54102 C 554.73231 480.07202 556.89586 479.9865 577.88086 462.5625 C 593.68886 449.4375 594.78336 446.67534 595.44336 418.27734 C 595.98736 394.85434 597.77041 388.02061 603.31641 388.09961 C 607.87141 388.16461 611.48389 394.91809 613.21289 406.62109 C 616.30289 427.51909 624.44205 438.7133 631.49805 431.7793 C 634.26105 429.0653 627.16883 412.86972 627.42383 393.88672 C 627.53983 385.39172 631.32961 370.73069 615.72461 345.05469 C 606.8655 330.47784 589.93226 322.69307 585.12305 302.48828 C 590.36772 297.61377 595.66741 292.74981 601.00781 287.88672 C 606.4877 296.21142 612.62266 304.1062 618.71875 310.57031 C 652.75075 346.65731 693.25497 342.50333 722.04297 344.36133 C 744.48997 345.81133 775.76947 337.39742 791.23047 322.35742 C 820.29647 294.08342 820.95778 284.21563 822.92578 269.14062 C 825.09778 252.50462 816.54236 230.22109 812.69336 223.49609 C 805.19536 210.39209 804.78566 213.89891 807.47266 224.75391 C 816.42266 260.90991 792.61645 301.56359 780.06445 311.43359 C 764.22445 323.88659 754.26803 319.87953 753.58203 300.76953 C 752.69903 276.16553 744.96603 271.53887 728.95703 286.04688 C 708.12803 304.92188 693.54539 310.36759 667.27539 309.05859 C 641.57964 307.77927 626.18367 297.65418 615.58398 274.73047 C 622.01217 268.97887 628.5086 263.20898 635.16797 257.37695 C 645.73153 264.90378 659.04207 272.2813 661.58789 272.31836 C 665.70889 272.37736 673.11502 276.17958 678.04102 280.76758 C 689.66702 291.59858 700.80145 293.42937 714.31445 286.73438 C 722.78845 282.53538 724.01961 279.85659 719.84961 274.68359 C 715.65161 269.47359 718.40727 264.69869 732.57227 252.67969 C 749.36027 238.43369 750.30383 236.28295 745.67383 222.75195 C 742.59873 213.76739 729.32164 200.28421 717.56445 192.34961 C 762.23989 161.09403 810.75809 135.37529 870.72266 122.42578 z M 614.71094 132.14258 C 659.56764 154.43668 645.38298 182.06168 619.45312 209.14258 C 609.27676 189.85333 609.63201 158.74193 614.71094 132.14258 z M 696.70703 207.5 C 710.6937 211.98991 709.11475 223.38615 691.28125 233.91016 C 681.66034 239.58763 670.11421 239.9658 658.99219 237.17578 C 671.46384 227.03146 683.97356 217.07415 696.70703 207.5 z M 238.61523 334.14258 C 238.6173 367.46749 238.62214 400.79192 238.62891 434.11719 C 231.72656 433.16925 224.33626 431.87271 216.38477 430.1875 C 197.44177 426.1725 183.60727 419.09827 156.57227 406.07227 C 145.22027 400.60327 144.93952 399.63811 147.60352 397.41211 C 154.44452 391.69511 160.94564 386.00084 171.80664 375.58984 C 184.81969 363.11502 215.53286 344.48675 238.61523 334.14258 z M 367.92773 391.84375 C 372.72257 391.81829 382.81641 399.64648 386.45703 403.78711 C 392.80603 411.00911 397.11439 412.29206 403.65039 408.91406 C 408.29998 406.51027 418.3079 405.34809 426.24219 406.23828 L 373.88867 459.64062 C 364.90053 468.81249 349.7226 481.375 341.27148 481.375 C 335.23699 481.375 335.23828 464.47395 335.23828 458.43945 L 335.23828 430.85547 C 352.11395 418.76031 363.46252 405.39894 365.4043 393.96484 C 365.65761 392.47275 366.58518 391.85088 367.92773 391.84375 z M 478.28516 496.81836 C 508.08551 496.80269 536.11003 524.17165 545.78711 577.74414 L 470.47461 497.44922 C 473.08421 497.03245 475.69133 496.81972 478.28516 496.81836 z M 340.07031 507.94531 C 346.1048 507.94531 358.66798 518.34612 367.83984 528.46484 L 386.96484 549.57617 C 362.77245 589.57974 350.11562 634.58344 377.83984 649.54297 C 393.39284 656.07097 413.17267 665.41059 423.38867 657.93359 C 433.94467 650.20659 428.27367 633.88341 421.38867 627.69141 C 410.99767 618.34741 396.39075 620.89958 391.34375 622.14258 C 394.08442 601.70539 398.47434 583.82919 404.05859 568.44336 L 505.24414 680.13281 C 498.325 737.27153 523.54 781.7299 586.35742 802.24219 C 597.74563 805.96089 609.16451 807.19408 620.1582 806.98828 L 621.59961 808.58008 C 624.86993 812.1877 627.85801 815.57087 630.61328 818.78906 C 613.18309 819.9225 594.30041 819.60305 581.15625 817.98047 C 559.84525 815.34947 545.05916 809.42419 535.53516 804.36719 C 526.43016 799.53319 519.36073 789.25573 515.67773 781.67773 C 508.50173 766.91373 490.65812 713.90433 490.32812 706.36133 C 490.01013 699.10533 483.78053 698.31714 479.51953 704.99414 C 474.20453 713.32414 468.51564 710.10734 465.43164 697.02734 C 463.51964 688.91534 469.07964 692.44048 474.18164 684.89648 C 478.55264 678.42948 481.24973 670.53933 480.17773 667.36133 C 477.76373 660.19933 458.2413 682.27022 454.4043 703.07422 C 452.0283 715.95422 454.33331 721.30516 468.82031 736.66016 C 478.30131 746.70816 486.01013 758.0978 485.95312 761.9668 C 485.77013 774.8108 470.15897 755.10583 439.54297 739.04883 C 403.59416 720.19572 368.61003 706.60143 335.21484 697.7832 C 335.20704 659.84471 335.19144 621.89773 335.15234 583.94727 L 334.74219 583.94727 C 335.0107 567.5114 335.23828 550.86332 335.23828 533.29688 C 335.23828 524.84576 334.03582 507.94531 340.07031 507.94531 z M 519.70703 696.0957 L 598.19727 782.73242 L 598.1543 782.74609 C 598.1543 782.74609 601.55599 786.50976 605.47852 790.83594 C 558.84776 782.44172 520.4232 742.22206 519.70703 696.0957 z M 238.64844 701.76562 C 238.64394 731.05387 238.64366 760.34231 238.62891 789.62891 C 238.62891 796.24349 237.90828 804.67565 235.83203 813.84766 C 221.2975 798.73684 202.48952 790.11189 184.10352 789.42578 C 175.08052 789.08878 163.92455 787.99133 159.31055 786.98633 C 142.68255 783.36133 104.53236 831.51962 110.56836 848.51562 C 113.51836 856.82163 148.17931 860.7295 163.07031 854.4375 C 170.90831 851.1255 172.10433 848.23716 169.86133 838.03516 C 168.36433 831.22216 166.3745 828.26108 165.4375 831.45508 C 163.3645 838.51108 144.4158 834.90544 146.0918 827.77344 C 146.7478 825.00044 150.41994 819.07656 155.58594 817.60156 C 189.63599 807.87777 213.03107 822.35886 223.71094 844.45703 C 208.32429 870.00433 178.07887 892.85156 120.25586 892.85156 C 118.00882 892.85156 118.41992 896.87955 118.41992 901.41602 C 118.41992 903.8609 119.36618 904.11466 128.26953 904.07227 C 131.25145 904.05813 135.09631 904.00195 140.11328 904.00195 C 146.42381 903.99208 180.29855 903.23553 224.22852 902.77734 C 218.4986 915.56273 208.63903 926.78646 194.30664 933.88086 C 153.96564 953.84886 103.04742 940.56469 85.453125 903.05469 C 83.105225 898.04969 79.727769 889.81283 78.355469 884.67383 C 76.493569 877.69783 64.577403 859.61464 72.658203 858.55664 C 87.110503 856.66464 94.591531 830.40831 87.644531 805.94531 C 84.888431 796.24131 89.351316 783.11634 89.478516 776.77734 C 89.898216 756.47534 119.94791 744.05423 133.12891 734.74023 L 145.91406 725.69922 L 145.74609 737.5957 C 145.64909 744.1397 142.51163 751.96538 138.76562 754.98438 C 135.02063 758.00238 130.83675 764.51898 129.46875 769.45898 C 127.37875 777.00598 129.78234 778.47845 144.52734 778.68945 C 172.56334 779.09245 188.46439 771.10641 196.52539 752.56641 C 200.52839 743.36241 203.8512 732.54239 203.9082 728.52539 C 204.1062 714.68839 218.66945 703.21295 234.81445 702.00195 C 236.09291 701.90602 237.37095 701.83689 238.64844 701.76562 z M 955.14844 704.88672 C 951.11844 704.80572 947.36633 710.01233 942.48633 721.23633 C 934.12733 740.46133 922.72159 746.61919 910.30859 738.61719 C 903.69659 734.35419 901.15728 734.69423 898.98828 740.11523 C 894.93028 750.24923 899.58723 759.6937 911.61523 765.7207 C 917.40223 768.6207 926.08516 771.20412 930.91016 771.45312 C 960.04916 772.95912 980.937 733.33703 963 710.58203 C 960.084 706.88303 957.56644 704.93372 955.14844 704.88672 z M 552.39258 919.03516 C 548.63072 918.88449 546.61191 921.02794 549.01953 925.80469 C 552.50353 932.71869 540.93303 925.86348 532.08203 931.39648 C 508.42103 946.19148 483.59628 946.52273 464.11328 932.30273 C 454.53828 925.31473 443.28987 921.52369 435.17188 921.42969 C 428.85688 921.35669 424.4332 923.51444 424.1582 928.14844 C 423.4082 940.61744 447.75769 966.11408 468.42969 976.70508 C 480.00969 982.63708 490.93442 985.53133 492.85742 986.11133 C 538.62442 999.90333 605.72606 1008.1297 633.16406 986.51367 C 639.09006 981.84567 645.98164 977.81056 648.93164 978.10156 C 656.89964 978.88656 678.63191 960.21031 675.00391 955.69531 C 673.28291 953.55331 662.41356 955.14533 650.85156 959.23633 C 639.28956 963.32733 627.36194 964.74195 624.33594 962.37695 C 621.30894 960.01295 615.85175 959.85072 612.21875 962.01172 C 599.44375 969.60972 575.36927 955.18975 574.32227 942.59375 C 573.1082 927.96856 559.5743 919.32278 552.39258 919.03516 z "/>
</svg>
