<?xml version="1.0" encoding="UTF-8" standalone="no"?>
<svg
   xmlns:dc="http://purl.org/dc/elements/1.1/"
   xmlns:cc="http://creativecommons.org/ns#"
   xmlns:rdf="http://www.w3.org/1999/02/22-rdf-syntax-ns#"
   xmlns:svg="http://www.w3.org/2000/svg"
   xmlns="http://www.w3.org/2000/svg"
   xmlns:sodipodi="http://sodipodi.sourceforge.net/DTD/sodipodi-0.dtd"
   xmlns:inkscape="http://www.inkscape.org/namespaces/inkscape"
   width="1000mm"
   height="1000mm"
   viewBox="0 0 1000 1000"
   version="1.1"
   id="svg8"
   inkscape:version="1.0.1 (3bc2e813f5, 2020-09-07, custom)"
   sodipodi:docname="Initials.svg">
  <defs
     id="defs2">
    <clipPath
       clipPathUnits="userSpaceOnUse"
       id="clipPath1013">
      <rect
         style="opacity:1;fill:#008000;stroke-width:1.1589;stroke-linecap:round;stroke-dashoffset:10.0157;paint-order:fill markers stroke"
         id="rect1015"
         width="942.72699"
         height="922.50299"
         x="78.162735"
         y="88.562119"
         transform="rotate(-0.8)" />
    </clipPath>
  </defs>
  <sodipodi:namedview
     id="base"
     pagecolor="#ffffff"
     bordercolor="#666666"
     borderopacity="1.0"
     inkscape:pageopacity="0"
     inkscape:pageshadow="2"
     inkscape:zoom="0.20526726"
     inkscape:cx="1889.7638"
     inkscape:cy="1940.5265"
     inkscape:document-units="mm"
     inkscape:current-layer="layer3"
     inkscape:document-rotation="0"
     showgrid="false"
     inkscape:snap-global="true"
     inkscape:window-width="1920"
     inkscape:window-height="1009"
     inkscape:window-x="0"
     inkscape:window-y="0"
     inkscape:window-maximized="1"
     lock-margins="false"
     fit-margin-top="0"
     fit-margin-left="0"
     fit-margin-right="0"
     fit-margin-bottom="0"
     inkscape:snap-bbox="true"
     inkscape:bbox-paths="true"
     inkscape:bbox-nodes="true"
     inkscape:pagecheckerboard="false">
    <inkscape:grid
       type="xygrid"
       id="grid1000"
       originx="-101.50465"
       originy="-119.61943" />
  </sodipodi:namedview>
  <metadata
     id="metadata5">
    <rdf:RDF>
      <cc:Work
         rdf:about="">
        <dc:format>image/svg+xml</dc:format>
        <dc:type
           rdf:resource="http://purl.org/dc/dcmitype/StillImage" />
        <dc:title />
      </cc:Work>
    </rdf:RDF>
  </metadata>
  <g
     inkscape:groupmode="layer"
     id="layer3"
     inkscape:label="letter+ornament"
     style="display:inline">
    <path
       style="display:inline;fill:#000000;stroke-width:4.75626"
       d="m 773.98274,294.28094 c -21.93713,48.96809 -39.73305,88.12831 -59.28314,134.40749 -15.05588,35.64103 -30.52249,75.9817 -44.7981,106.35137 -10.11125,21.51037 -16.58106,42.65948 -25.43192,62.59049 -11.03981,24.85913 -18.26409,39.78241 -26.9262,58.02314 -15.39949,32.42839 -33.37571,67.50652 -44.75413,93.16568 -7.21064,16.26052 -15.64936,33.71745 -22.57998,52.76523 -8.96686,24.64439 -15.31537,36.06963 -23.96993,62.89602 -4.89152,15.16167 -10.7968,29.96197 -12.8622,29.93321 -6.2116,-0.0884 -11.96052,-15.1868 -17.84509,-31.71565 -2.92703,-8.22242 -10.23698,-24.46184 -21.83849,-52.08106 -16.76482,-39.91098 -33.84224,-79.33487 -48.5769,-117.21824 -7.6642,-19.70488 -19.90551,-44.38235 -25.14803,-55.90044 -15.71106,-34.51832 -36.49611,-88.35531 -52.62681,-124.7507 -18.94915,-42.75458 -32.72006,-79.25164 -50.27521,-114.92799 -19.49765,-39.62399 -22.57273,-52.35844 -34.73254,-80.09562 -10.3655,-23.64428 -26.6023,-53.67113 -33.73283,-57.62389 -3.47501,39.18296 -7.58182,90.70567 -10.25546,114.09035 -3.78375,33.09431 -7.34886,54.81296 -12.33866,128.18759 -3.40329,50.04529 -4.75165,62.6426 -8.5962,121.10083 -1.41781,21.55886 -4.30109,75.0388 -3.60821,120.26893 1.40574,91.76778 10.2287,118.87771 39.49343,125.85249 14.77221,3.52061 57.50307,11.65853 54.86428,19.23162 -0.9321,2.67399 -21.47168,4.87157 -46.47106,5.26006 -41.18976,0.64009 -54.19569,-0.11738 -113.4362,1.24793 -61.73477,1.4228 -83.449772,6.22315 -46.07853,-12.11422 41.73422,-20.4782 43.69697,-42.76353 56.39143,-79.84681 4.09661,-11.9673 6.86713,-58.26555 9.30016,-78.77646 5.23211,-44.10752 8.71569,-75.16891 10.22425,-94.56581 4.67081,-60.05624 6.22522,-100.34527 8.36623,-122.73593 5.26195,-55.02888 11.57016,-169.93378 13.07874,-233.85928 1.64822,-69.84331 2.14727,-106.11605 -1.91816,-112.04352 -8.57484,-12.50244 -18.04763,-22.24993 -36.77903,-31.53822 -18.40434,-9.1261 -48.92725,-7.15911 -61.59681,-7.33603 -7.77913,-0.10905 -11.85235,-2.82398 -11.78213,-7.85439 0.0775,-5.52932 -1.30969,-7.63986 45.1589,-8.28271 41.41688,-0.57309 81.89776,-1.28437 116.37781,-1.61112 33.83126,-0.31976 62.59002,0.29663 63.25651,1.75757 8.99702,19.72147 16.3357,38.12423 24.31647,59.73643 16.85837,45.65318 38.50675,90.43167 50.90501,118.65296 24.26487,55.23245 29.45683,74.13326 49.85529,124.11667 19.58619,47.99345 31.73227,70.37361 45.35166,100.48475 11.12468,25.62214 29.15469,66.67182 59.33729,126.57516 10.52887,20.89726 16.90623,33.76072 30.53211,57.87444 18.94679,-27.40712 32.96535,-63.56969 50.51267,-105.11178 16.93823,-40.10001 23.85806,-57.15346 40.06047,-98.17586 16.64408,-42.14009 25.06152,-58.59258 35.76538,-85.6664 12.52997,-31.6918 18.94178,-43.0346 31.93472,-74.69083 16.81955,-40.98037 20.77319,-51.62382 29.59607,-76.78121 16.29174,-46.45325 33.30278,-102.88786 36.93155,-147.43787 0.7999,-9.78676 1.19131,-12.13995 15.87511,-9.84017 7.69988,1.20591 39.98548,-0.20141 86.55541,-0.66799 42.63651,-0.42694 82.02339,-1.96865 108.78909,-6.59216 14.94057,-2.58089 9.1088,13.57056 9.1088,13.57056 -1.8794,30.89328 -9.6934,24.83216 -16.2449,12.84431 -9.9052,-18.12469 -29.8982,-0.34754 -67.17402,22.26137 -44.70309,27.11426 -41.12486,95.7121 -31.35555,186.32863 2.11858,19.65107 5.41111,59.9818 7.84867,89.58238 7.60479,92.35647 9.85205,186.14469 15.55613,265.30565 4.30039,59.68083 18.20451,120.117 21.98423,145.19245 2.80159,18.58925 10.40647,39.46148 32.63664,53.09265 4.7831,2.93272 18.5647,7.40594 23.3477,9.5002 8.971,3.92841 16.25277,1.07136 15.6907,9.54985 -1.1217,16.9235 -39.5285,3.70483 -79.5301,3.66694 -50.74725,-0.0491 -95.45524,-0.88822 -132.14133,-0.0785 -63.96836,1.4036 -129.53613,11.3317 -72.97674,-11.18055 7.73983,-3.08073 21.59262,-7.71118 48.86489,-20.71364 15.93791,-7.59859 36.98004,-20.66298 38.66874,-63.97062 1.50322,-38.55077 -0.33172,-75.39115 -1.1432,-98.30856 l -6.9849,-200.56093 C 791.84973,422.53702 783.30666,353.54066 773.98136,294.28752 Z"
       id="path925"
       sodipodi:nodetypes="sssssssssssssssscsssssssssssssssssssssssscscssssssssssssssssssssssssssss" />
    <path
       style="display:inline;fill:#000000;stroke-width:4.75626"
       d="m 955.95513,361.11756 c 3.3723,-14.01311 -2.8585,-14.20209 -8.48065,-4.49671 -3.25612,5.62124 -11.67022,14.60099 -18.6981,19.955 -26.2113,19.96822 -32.29845,6.04642 -8.33441,-21.28775 21.44325,-24.45887 6.91924,-57.24837 -3.30852,-67.06661 -12.64116,-12.13495 -14.72845,-33.82736 -9.53149,-48.19678 2.26365,-6.25909 14.43391,-20.64955 36.05334,-16.81458 16.62833,2.94963 19.26143,15.34255 -4.6225,-36.12351 -7.8742,-16.96767 -25.60006,-45.95526 -47.76448,-66.34911 -31.7507,-29.21441 -62.72259,-57.60987 -128.56085,-60.92053 -89.36162,-4.49354 -150.03854,35.83175 -187.01426,80.5886 -8.12614,9.83612 -25.79506,50.32108 -32.17242,66.64454 23.28535,-48.32607 53.28757,-61.72511 78.5863,-71.99387 52.51457,-21.31568 103.85256,-14.62255 113.57554,39.93502 2.53994,41.07187 -18.99241,46.84359 -19.37667,12.46046 -0.27524,-24.62724 -6.18774,-38.37752 -17.31413,-41.14573 -32.63832,-8.12039 -16.47693,1.49311 -8.17256,24.8967 5.18322,14.60794 8.92415,29.71182 3.4678,42.51125 -7.85026,18.41503 -13.57779,26.91967 -23.18283,32.82554 -38.3583,23.58545 -27.65054,9.07008 -4.8379,-22.36177 15.84298,-21.82888 -1.17068,-37.63194 -21.73513,-36.87816 -8.96705,-0.96674 -39.34104,9.88594 -23.44573,-17.30544 6.79881,-11.62998 12.10981,-14.81886 19.31347,-23.35134 -14.72041,3.21059 -26.95722,9.41158 -47.68723,24.66285 -27.86418,20.49974 -41.00963,42.74205 -20.33419,33.15065 23.42011,-10.86448 41.14881,14.807 45.61035,26.70071 5.19294,13.84359 8.07285,33.15189 9.89307,52.06808 4.34093,45.1181 13.4184,52.42848 23.09074,57.88261 9.61296,5.42078 35.97746,-14.02909 24.50316,4.58637 -8.1495,13.22182 -42.52404,6.1838 -53.03749,-6.31487 -16.75332,-19.9167 -10.33944,-37.33431 -24.734,-32.77236 -4.41562,1.39943 -5.60034,0.78282 -3.95737,7.44516 3.92811,15.92554 -3.56694,22.88542 -18.66914,17.33613 -18.47127,-6.78724 -32.28804,-36.68925 -7.23909,-47.45323 17.91007,-7.69637 14.62884,-39.99637 6.19991,-48.66394 -8.43814,-8.67716 -31.28704,4.97227 -34.8688,20.82977 -2.69137,11.91547 -8.99307,66.87656 12.18096,107.45746 11.48413,-20.40381 29.61022,-18.71385 41.07344,-6.03537 5.8087,6.4245 1.4241,28.84137 10.64241,51.16376 3.882,9.40107 12.16674,12.96055 16.04078,13.05084 17.92381,0.41712 27.93593,-6.19639 35.85018,-18.80752 2.96078,-4.7182 7.49004,10.15639 -4.37793,26.82059 -7.20601,10.11822 -25.76287,14.69401 -42.7649,10.81379 -35.72002,-8.15127 -48.60097,-41.56192 -66.6664,-72.27793 1.59517,22.25441 1.33999,44.44043 10.1714,66.0629 8.46102,20.71558 22.06276,37.61602 34.1814,52.65874 6.42545,7.97578 15.85567,21.33774 52.60487,53.85221 35.78313,31.65971 46.94052,36.25876 62.41067,46.78683 12.33741,8.39615 54.46848,30.12452 54.46848,30.12452 0,0 3.2829,-11.30502 -5.38069,-28.29516 -14.67193,-28.77313 14.04613,-8.92848 20.2229,-1.89491 7.52282,8.56632 13.9792,21.76586 16.32618,28.76851 9.35542,27.91365 -18.43869,24.99674 73.75151,33.1743 37.04452,3.28604 23.60816,4.51661 49.02271,6.26725 22.47506,1.54816 33.65739,-2.74045 39.20001,-14.54865 8.75618,-18.65451 4.73388,-12.35645 -8.52795,-19.20718 -26.74287,-13.81461 -2.15009,-28.66526 -24.67432,-53.83532 -4.35634,-4.86807 27.97057,-1.45934 38.95435,-4.41503 18.0339,-4.85364 17.2374,-14.61441 15.1319,-23.75136 -5.1562,-22.37661 -10.8781,-22.21517 -30.06529,-16.99613 -2.94273,0.79892 -7.61569,-1.08471 -10.55595,-4.72997 -7.45708,-9.2454 2.50657,-20.65572 21.15999,-24.23257 13.63125,-2.61364 18.89225,6.81284 25.75985,20.13103 13.847,26.85288 17.9469,69.44357 11.5681,107.45345 -1.2901,7.68772 -11.1981,22.96138 -18.2197,29.30439 -19.0474,17.20666 -38.85788,24.13128 -51.846,30.33219 6.11296,4.92597 11.55106,7.9686 21.40124,19.26861 41.32166,47.40408 49.77106,86.38179 50.71316,114.08109 1.5075,44.32169 -7.314,74.27621 -24.2002,107.42931 -13.5234,36.51966 20.7842,53.92976 17.5303,4.68905 -0.3985,-6.03572 27.41917,45.44491 3.6574,59.96681 -12.2343,7.477 -29.7799,-2.541 -37.06177,-17.0082 -5.49699,-10.9207 -1.53678,-27.61801 1.25038,-39.01047 -7.48328,8.61098 -33.22436,33.47867 -57.82832,41.34227 -26.80175,8.5657 -76.85578,15.225 -121.49439,12.2462 -77.4269,-5.1667 -105.03209,-11.3208 -133.44825,-24.2376 -14.40987,-6.5503 -17.22,-8.9027 -14.07313,-0.3464 1.36002,3.6977 -1.62815,10.3311 -6.6402,14.7414 -11.44771,10.0729 -35.05872,6.0809 -34.41958,-7.6565 1.14447,-24.60053 -15.14647,-16.1228 -30.92951,-0.7744 -24.23876,23.571 -39.30542,16.4047 -21.0433,-10.0094 9.32961,-13.49353 15.12153,-19.1829 39.10049,-38.40754 18.91362,-15.16325 22.74693,-9.99358 58.85562,10.21774 43.57755,24.3919 52.6985,32.2869 12.61507,-8.24244 -21.97274,-22.21723 -40.25568,-43.69542 -37.47696,-71.91657 4.24102,-43.07523 14.61333,-67.38318 38.06799,-92.3437 23.79808,-20.9004 14.34834,-20.0217 -2.24195,-17.8399 0,0 -18.8776,1.6735 -20.19031,-11.80761 -1.31271,-13.48111 15.25099,-25.24701 46.04554,-40.13378 39.82952,-15.62855 27.45482,-37.74175 24.48716,-41.96549 -5.0519,-7.18962 -13.36118,-11.49894 -16.81977,-12.2426 -11.14001,-2.39654 -10.51434,-15.49125 0.57514,-15.33657 15.68431,0.21789 39.21543,31.49011 40.63325,53.57633 0.96184,14.94947 -3.76028,28.2177 -17.4109,40.31023 -2.51176,26.15586 1.50145,19.64354 11.75972,15.14146 26.51605,-12.68121 40.95851,-14.1221 62.39086,-0.72236 7.41958,5.01107 9.45661,10.47842 9.13077,15.22233 -0.52607,7.68998 -10.38842,13.27167 -21.11907,13.59526 0,0 7.27589,24.7659 0.12758,46.59045 -5.07044,15.48172 -36.66577,29.41215 -51.80889,16.88738 -6.6244,-5.47903 -15.37661,-12.36401 -15.33981,-28.14705 0.0687,-28.7581 22.99416,-22.26424 26.05506,-11.37518 6.95397,24.73813 26.86211,15.82309 29.40862,-6.31131 l 1.62775,-14.14606 -25.15514,-5.9993 c -22.5627,-5.38128 -28.40458,-7.25441 -44.28773,3.36564 -26.79548,17.91655 -30.47479,25.5231 -32.49827,51.9355 33.86112,10.37567 19.32514,49.5058 43.58422,57.94169 -9.08288,5.73852 -24.50955,11.08338 -34.65348,11.71427 -10.14374,0.63108 -22.52158,-3.57351 -22.52158,-3.57351 13.21494,27.45324 18.12049,39.80508 43.77962,57.35869 50.5645,34.5918 78.03689,37.0498 65.29099,7.36393 -10.53858,-24.54516 43.34523,-13.71745 53.66936,-6.90225 12.43889,8.21123 14.49153,21.73862 5.39718,27.31022 -24.0459,14.7317 20.38326,15.565 47.84259,10.0339 27.21103,-5.4813 53.63687,-16.9522 72.87781,-33.65057 25.05829,-21.74711 36.92814,-40.63011 45.23454,-68.62081 7.1336,-24.03864 6.2635,-46.48897 -2.2425,-81.69373 -6.4704,-26.77859 -15.02509,-70.16789 -106.91388,-112.57591 -80.06419,-25.089 -84.79182,-8.19288 -84.87936,-1.93438 v -1.9e-4 c -11.45419,17.53898 -48.94685,26.05456 -50.14551,21.55651 -0.68801,-2.58184 34.55905,-30.99437 34.19719,-53.61274 -31.19774,-11.39441 -64.38863,-30.66381 -116.89063,-72.36018 -22.39322,-20.42949 -33.67034,-31.88358 -49.62662,-48.85733 -15.95626,-16.97356 -29.04223,-28.6528 -29.07992,-25.95377 -0.0687,2.69952 5.25211,16.9712 11.75471,31.71535 9.71601,22.02998 11.17918,30.72743 8.21074,48.79915 -4.02361,24.49403 -26.51369,53.8841 -41.07795,53.68064 -13.61773,-0.19138 -15.16235,-8.21899 -3.59687,-18.69622 13.01011,-11.78573 16.94833,-19.66248 25.35232,-32.36039 11.50445,-17.38311 -17.12283,-29.9757 -30.61219,-40.56542 l 0.72923,13.6514 c 1.36454,25.54439 -10.33728,42.5049 -15.27365,37.54889 -4.75433,-4.77306 0.52115,-12.14593 -0.69391,-19.71253 -1.26923,-7.90443 -6.94121,-14.51617 -12.27429,-20.8418 -11.52113,-13.66446 -12.04651,-24.67699 -2.06785,-43.33081 9.18945,-17.1782 22.88217,-25.0465 30.3045,-17.41364 8.66202,8.90708 11.27193,1.30672 6.30601,-18.3644 -2.55239,-10.11037 -5.68455,-27.87979 -6.96055,-39.48767 -1.27551,-11.60799 -2.91112,-21.71384 -3.63427,-22.4575 -1.44314,-1.48388 -12.12512,18.4802 -25.61801,47.87852 -4.77227,10.39814 -15.14656,26.80842 -23.12007,36.41197 -43.67577,64.89977 -62.06006,79.19992 -110.60017,115.21036 -22.82666,15.58125 -30.81573,20.26922 -49.94853,30.47322 -35.44716,18.90429 -17.96603,26.12375 -14.51058,36.81564 2.6458,8.1866 -1.78446,17.3633 -8.11689,16.91094 -20.2721,-1.44825 -36.04797,1.66231 -48.5725,11.13178 -11.03867,8.34609 -19.03751,29.59353 -22.84209,23.82075 l -3.9e-4,-10e-5 c -2.56854,-3.89701 1.66799,-12.73442 3.26018,-15.36542 5.40511,-8.93115 9.75722,-15.92782 20.18344,-24.13983 28.39813,-27.22731 22.10987,-22.23264 -3.40471,-18.98742 -26.39831,3.35749 -39.49875,5.3374 -66.37336,10.06699 -38.52724,6.65168 -58.83577,20.77947 -68.77877,31.79603 -13.50656,14.96459 -14.10776,27.30524 -0.75768,18.62762 13.41453,-8.71953 6.86101,5.95916 5.66487,29.14157 -1.30702,25.332 -2.5333,30.75028 -12.38233,33.00637 -47.69098,10.92439 -56.706846,54.15067 -52.712678,90.27331 1.545348,13.97606 6.809298,28.1439 15.408598,39.26891 13.32841,17.24345 32.25201,31.42209 52.88223,38.44884 27.90323,9.5042 60.67899,9.6239 88.39789,2.4678 4.10403,-1.0596 13.6182,-1.5728 14.98997,-4.6953 1.37179,-3.1223 -5.79341,-8.91502 -7.18671,-11.90329 -3.21016,-6.88528 -1.38647,-17.82527 3.87605,-23.97827 4.71889,-5.51741 13.4436,-6.62205 20.70232,-6.76799 18.30468,-0.36707 27.41334,15.58734 23.79731,32.1213 -1.60485,7.33795 -8.26819,10.72365 -5.15053,11.80005 3.11768,1.0762 16.0172,-0.159 29.28203,-3.4696 24.89932,-6.21364 42.85764,-15.75239 50.25671,-22.27962 6.65241,-5.86859 16.98595,-14.51293 23.52239,-22.19899 11.54943,-13.58092 25.01116,-24.12156 23.39206,-32.02059 8.28475,-12.99038 -24.17037,26.23732 -38.57783,16.43954 -18.08584,-12.29943 -11.99785,-46.3279 26.95929,-65.77249 30.50145,-15.2241 17.81874,-33.6622 8.4284,-53.28041 l -10.31473,-21.54935 -29.95069,-2.80532 c -34.68191,-3.24844 -42.73141,-1.14723 -60.02026,15.66546 -16.76931,16.30725 -17.15907,36.51944 -0.9158,47.48957 11.12475,7.51331 18.29011,5.13944 23.7729,0.77144 26.32021,-20.96881 -4.3975,-30.48756 25.02775,-28.53905 28.7327,1.90267 12.36525,23.70925 9.24107,29.26366 -3.69296,6.56551 -10.04118,12.87966 -12.91668,14.26295 -29.65041,14.26363 -33.33473,13.35116 -13.70772,21.74701 6.2474,2.67242 11.32651,-3.65282 4.48251,7.699 -3.56574,5.91431 -15.71013,7.98108 -24.93104,2.77225 -23.53665,-13.29582 -36.94131,-29.16591 -40.41883,-57.4691 -1.77218,-14.42371 7.54941,-28.82025 -11.48081,-26.8947 -14.29259,1.44599 -10.2627,-23.4475 5.84071,-41.75134 16.77203,-19.06427 45.57295,-25.99597 72.98803,-17.56645 9.7856,3.00878 23.82683,5.65225 23.60321,3.73604 -15.78348,-40.10149 2.71814,-59.14074 7.70146,-61.88402 32.92827,-18.12679 32.50505,-1.94871 21.12181,4.1989 -17.47435,9.43727 -4.6756,23.44308 10.31502,32.12806 28.99946,16.80111 28.12313,43.17907 21.73491,51.60535 -6.53536,8.6205 -14.51235,13.28108 -9.01167,19.00793 21.07078,21.93712 26.785,35.98875 26.51007,55.67567 -0.32477,23.24414 -14.627,60.1856 -31.72469,81.94105 -7.72862,9.83399 -12.07852,15.39321 -20.26453,23.72457 20.97287,-3.05354 30.4736,-6.98234 42.9738,-11.93619 24.20612,-9.71944 37.57336,-9.16452 59.62155,2.47447 23.59384,12.4547 46.93298,49.6084 37.57098,62.5234 -5.77465,7.9661 -20.65425,7.1629 -27.04024,-8.1118 -6.39524,-15.2968 -33.8285,-19.7683 -38.40321,1.0424 -4.36704,19.866 -44.68675,15.3584 -53.07684,1.6924 -2.41261,-3.9298 -1.266,-17.531 5.70867,-22.4914 8.4565,-6.01417 10.09432,-13.54977 8.77759,-14.9036 -1.31672,-1.35403 -20.96273,6.22779 -41.96982,16.425 -45.3272,22.0026 -152.29247,33.6383 -192.43834,30.5847 -25.09572,-1.9089 -50.67399,-7.1731 -73.25801,-18.2817 -9.91587,-4.8776 -24.72275,-20.56113 -25.99096,-20.57899 -1.26824,-0.0393 -3.76922,-13.99972 -0.95202,15.44589 2.03238,21.2427 -17.2181,25.3833 -35.396533,29.4109 -9.379322,2.078 -26.579115,-0.8323 -31.17137,-9.1164 -10.695713,-19.2939 21.854877,-40.41766 31.687119,-32.0232 3.414679,2.9155 9.501552,8.298 11.246681,6.6008 5.542506,-5.38956 5.890333,-16.28333 2.733793,-23.09206 -3.47807,-7.50261 -9.983569,-16.09867 -12.950929,-25.00332 -7.483779,-22.45788 -11.508687,-46.3755 -11.692826,-70.04686 -0.200907,-25.81518 2.004942,-52.59809 11.561844,-76.58 6.034197,-15.14194 16.545911,-29.9132 27.956811,-40.12033 1.9617,-1.75467 14.94286,-13.10413 28.8471,-25.22091 26.76254,-23.32217 39.89526,-29.28202 26.36809,-29.51432 C 99.65143,660.97748 82.54265,656.06436 70.60054,647.57361 56.91324,637.8417 51.03354,630.74855 46.334858,625.68135 31.726313,609.92696 19.18701,599.27267 17.790453,579.74368 c -2.014624,-28.171 7.795132,-46.44225 27.258285,-50.74588 21.211912,-4.69032 27.112612,-3.26809 30.416112,9.35936 -0.48435,21.85143 -14.30759,15.1758 -21.33523,23.14402 -15.3557,17.4107 -8.086649,40.87125 4.00225,50.67747 16.3038,13.22563 19.68096,6.28617 11.1795,-13.86565 -3.03435,-7.19257 -1.909,-17.23405 5.8549,-28.41793 13.9434,-20.0855 47.34041,-11.69799 50.72151,-5.67641 10.77496,19.18961 1.44755,13.83091 -11.37678,11.93864 -14.04323,-2.07216 -20.49753,1.56985 -17.46771,10.13755 2.06333,5.83471 9.42851,13.59654 13.02722,16.66882 9.79965,8.36689 12.69045,25.25643 4.5182,27.45168 -23.05948,6.19422 4.41121,16.35513 18.26063,20.5929 21.90703,6.70341 52.30865,2.2396 77.32242,-1.88392 l 55.40141,-9.13332 c -4.072,-24.7077 -1.49771,-48.6582 8.30217,-61.43373 8.24927,-10.75382 28.97121,-18.78161 17.75311,-1.71855 -3.3844,5.14769 -6.29824,20.09187 -2.89532,34.87734 5.96912,25.93581 -0.59526,22.7219 40.87733,-5.70662 39.50593,-27.08078 54.57979,-32.58681 90.67707,-68.21919 32.48846,-36.61758 45.12772,-54.51617 60.81207,-76.67765 17.85187,-28.3985 34.41057,-64.76296 32.85268,-93.96293 0,0 -5.9198,9.17063 -11.61662,18.36501 -5.69662,9.19453 -14.26295,21.20247 -19.0362,26.68473 -4.77326,5.48237 -12.46529,14.37621 -17.09333,19.76436 -12.20588,14.21073 -20.87901,12.26164 -10.93797,-2.45798 6.93335,-10.26574 7.4425,-15.77 3.35173,-36.23422 -3.55545,-17.78619 -3.37539,-25.82589 0.68516,-30.58193 7.37964,-8.64362 23.39287,-8.00301 23.26822,0.93053 -0.27873,20.07708 20.87792,-1.55208 28.69078,-29.32891 5.75658,-32.25724 6.30788,-47.90098 5.38009,-76.45289 -1.11151,-34.20474 -29.1393,-34.02548 -41.95783,-10.85738 -5.22041,9.43577 -0.20218,29.91285 8.72867,35.60529 12.71654,8.10673 -7.65749,49.89654 -23.36072,43.30652 -14.20634,-5.96187 -14.1709,5.69592 -20.47495,12.36814 -17.94547,18.99351 -30.55633,7.9597 -17.40986,-15.78764 19.11682,-34.53195 10.12888,-47.98833 11.63521,-70.4859 1.16534,-17.40467 16.34905,-40.4408 38.74933,-40.24667 20.82806,0.18049 17.38282,3.08461 22.22606,-2.70874 5.89684,-7.05318 -11.70614,-9.01359 -19.60379,-16.25067 -7.89774,-7.23707 -14.02217,-10.35207 -13.61006,-6.92222 1.7793,14.80881 -1.23077,18.10028 -16.35998,17.88899 -10.72165,-0.14938 -28.91169,-1.40639 -26.8199,-12.2663 2.46371,-12.79088 -4.72389,-17.3322 -19.08071,-14.837 -7.80885,1.35718 -10.93065,10.40776 -14.05832,16.32106 -3.6994,6.99423 -2.66011,11.41589 -0.45481,21.87752 1.98364,9.41036 8.19354,15.50095 -0.90825,10.85005 -3.29963,-1.68608 -10.35796,-10.21353 -15.83468,-19.73931 -6.04516,-10.51459 -6.7244,-19.81583 0.63443,-34.78004 4.34299,-8.83167 12.64526,-19.07529 18.44942,-22.76352 20.63995,-13.11564 44.55937,-9.26846 72.49148,6.71928 13.40776,7.67432 23.29936,16.96996 35.07704,25.05557 0.65759,-10.43461 -49.89598,-62.16142 -66.43289,-73.94774 C 403.76321,88.77168 378.80747,81.65735 330.72775,72.59505 317.2835,70.06102 286.99072,64.3422 256.67972,65.61141 c -42.71654,1.78866 -81.52565,19.2012 -123.32793,48.87419 -38.90251,27.61462 -56.04646,61.42528 -56.28167,78.27105 52.48732,1.04774 66.41764,39.81126 66.16898,72.13589 -0.12572,16.33731 -2.93059,31.79783 -4.5935,34.40633 -1.66296,2.60852 -4.39462,18.187 -6.0704,34.61881 -2.43906,23.91617 -1.53733,31.16487 4.5203,36.33677 7.54012,6.43762 10.32212,19.60447 4.12389,19.518 -8.56914,-0.11974 -24.96686,-22.38059 -24.80909,-33.6799 0.40161,-28.75207 1.08026,-22.96166 -14.94454,-11.31088 -12.78236,9.29338 -14.72372,6.19914 -16.8748,-25.02787 -1.29671,-18.82522 0.6516,-31.71617 6.77013,-44.79429 11.88696,-25.40785 7.39717,-43.89722 -10.22529,-42.10876 -19.06126,1.93451 -29.30042,20.28971 -30.45751,71.37295 -0.538428,23.7774 1.84479,45.77203 5.19762,54.82085 3.59543,9.70353 8.68066,26.16668 28.57158,33.42241 31.93348,11.64863 38.02817,41.42755 48.34752,52.07616 18.26771,18.85051 36.2181,34.36512 -1.96028,35.62434 -16.95387,0.55944 -33.312,-10.39519 -52.43863,-26.31475 -0.14074,10.10133 24.02447,54.05262 34.83386,62.36112 14.87209,11.43122 38.81217,16.2611 27.67725,4.29263 -9.06952,-9.7485 0.3389,-44.22649 8.99586,-27.60391 5.09662,9.7862 24.33239,35.48606 36.72085,41.54709 21.38871,10.46448 34.58768,19.66945 44.24661,12.61949 8.1389,-5.94051 7.0866,-8.43285 -1.7745,-18.21433 -16.32759,-18.02382 -3.37529,-38.01136 24.38106,-37.62378 30.81531,0.4289 46.89428,-26.50485 30.34977,-50.84137 -7.35733,-10.8228 -27.50362,-14.80245 -32.80844,-6.4812 -4.56057,7.15371 -16.77491,-0.14526 -16.63819,-9.93733 0.17176,-12.30954 18.94421,-22.97346 34.5949,-19.65188 7.26645,1.54227 18.54227,10.35603 25.87951,20.22927 11.48458,15.45376 12.85777,21.18208 11.76302,49.06796 -1.26838,32.30983 -6.83866,48.73151 -18.65504,61.84506 -14.8344,16.4632 -35.69599,31.66257 -103.65245,20.90168 -50.27176,-7.96046 -75.5164,-24.69337 -93.94318,-38.49817 C 75.59792,506.80039 61.03034,495.87512 43.192167,456.94265 27.931195,423.63477 24.443791,386.06377 24.755832,358.54321 25.282878,312.0693 30.141368,279.72364 34.883123,247.88118 40.557692,209.77429 55.26662,172.11532 62.21646,160.81012 c 8.13718,-13.23668 33.01964,-44.46771 71.87148,-66.41057 16.48797,-9.31211 35.79084,-19.08851 39.46289,-25.77528 -8.93172,-3.9583 -24.34686,-2.87663 -50.38027,4.62558 -12.89463,3.71595 -37.60847,6.2052 -54.92258,6.31669 C 31.772286,79.8014 1.243677,52.59938 20.179555,34.45749 31.872951,23.254405 93.27173,15.93957 93.63982,28.5624 93.9482,39.138463 78.18818,37.292414 75.93917,41.11996 c -12.87795,21.91667 36.64525,8.72578 40.64571,8.36659 82.58867,-7.415583 161.10151,-7.758557 234.72687,5.5863 43.1317,10.96467 50.06878,15.06329 72.95386,32.10751 27.8928,20.77379 37.76734,31.21678 48.70706,39.30835 -3.696,-29.31117 -13.49651,-47.07028 -30.07454,-61.78441 -7.46993,-6.63014 -10.57544,-14.15938 -29.50588,-13.03206 -8.50528,0.50654 2.70236,-17.742772 11.46314,-18.476823 16.02235,-1.342478 35.61345,2.627908 41.41259,-6.340987 4.50533,-6.967888 27.30536,-1.788726 34.55023,3.228739 12.05967,8.351771 -6.28382,10.56187 -13.9999,16.338361 -20.7582,15.54012 -13.28954,21.36194 -9.81299,33.20227 4.6549,15.85358 7.11347,29.66879 14.17098,41.34968 25.89635,-18.00624 21.28219,5.7515 13.77153,14.21841 -10.37418,11.69501 -0.10894,20.06761 4.56598,37.84629 13.43184,51.08562 12.02833,50.26932 25.46401,2.78905 4.02273,-14.21591 8.6202,-24.88853 11.2734,-35.45349 12.25811,-48.81225 10.47292,-60.32706 11.27988,-74.42714 0.54668,-9.54716 0.79696,-8.4639 -7.0428,-13.82808 -10.13068,-6.931911 -24.29469,-13.488751 1.30643,-20.19782 12.97968,-3.401483 20.09629,-12.308851 26.59035,0.804114 6.57601,13.278245 8.13997,14.223586 17.9242,-0.223384 6.34743,-9.372512 21.76713,-7.394325 44.39559,-7.491204 26.45638,-0.112864 6.43723,15.623463 -12.94807,16.812429 -19.85995,1.218051 -29.96973,20.693485 -36.77001,31.567225 -2.42313,3.87473 -11.85521,20.64813 -20.71185,41.72897 -10.50217,24.99701 27.25401,-21.8078 48.2342,-36.34211 19.19588,-13.29848 89.66597,-48.363189 155.69129,-47.144543 59.24487,1.093455 67.90875,1.957109 95.79051,9.548565 15.63778,4.257776 35.9278,7.486668 45.0886,7.175418 9.1612,-0.31123 19.42938,0.0284 22.6054,-0.76407 13.22919,-3.304733 17.69439,-3.770043 6.75523,-14.990163 -5.85394,-6.004357 -22.50735,-9.259372 -19.97811,-16.391218 1.71471,-4.835061 26.35437,-8.996463 43.17867,-0.94358 15.4568,7.398656 22.9559,20.85236 21.8784,31.810151 -0.8804,8.96202 -25.9758,21.33989 -45.56292,23.07825 -27.48445,2.43924 -59.66562,-2.15013 -77.72007,-8.00244 -19.29403,-6.25397 -25.67032,-4.97338 -26.47796,-5.02946 -5.43467,-0.37737 -16.17395,-4.58828 25.08615,23.13926 l 26.85112,18.04459 c 35.63091,23.94466 54.51656,51.10815 69.22558,77.61593 11.7592,21.19182 18.5871,50.07819 19.8247,87.62654 2.8802,87.37892 -14.9394,141.80295 -38.056,184.98084 -19.18813,35.83968 -31.40728,58.53625 -57.10871,79.27147 -39.00303,31.46617 -73.03249,37.29881 -100.25068,35.56595 -23.802,-1.51549 -92.4918,-4.49374 -75.30105,-79.03829 3.38085,-14.66062 8.41881,-23.94666 16.20439,-32.05121 7.78075,-8.09984 41.41773,-21.80403 36.36681,-1.34087 -1.32174,5.35487 4.2789,6.76346 -17.90566,7.40711 -19.09312,0.55355 -26.6827,17.96091 -25.77228,31.4324 0.79793,11.8089 1.96282,15.35866 5.44231,20.52627 5.94415,8.82808 10.00643,12.77328 15.56487,10.34562 5.70908,-2.49341 11.36978,-10.35347 4.15915,-11.00997 -15.5889,-1.41921 -13.21425,-19.87016 -1.57407,-24.31139 16.31558,-6.22504 38.5283,18.82411 27.48357,41.10317 -6.91226,13.94329 35.50843,23.85716 81.29653,5.63833 40.86507,-16.25955 87.1435,-101.30449 104.65742,-170.94204 z"
       id="path927"
       sodipodi:nodetypes="csssssssssscscsssssscscssssssssssssscsssssscsssscsssssssssssssssscsscssscsssssssssssscszcsssscccscssssscssccscsssssssscsssccssssssscssssssssssccssssccscscssssssssssssssssscssscsssssssssssssscsssssssccsssssssssssssssssssssscsssscssssssssssscsssscccssssssscssssssssssssssssssssscsssscssssssssssssssscssssssssssssssssssssscsssssscscssssssscssssssssssssssssssssssssssssssssssssssssssscc" />
  </g>
</svg>
