<svg viewBox="0 0 1000 1000"><path d="M110.8.01C95.65-.26 82.52 4.05 72.42 12.13c-8.08 6.06-16.16 9.1-22.22 9.1-7.08 0-14.15-4.05-18.19-12.13-3.03-5.05-4.04-7.07-6.06-7.07-4.04 0-9.09 10.1-9.09 16.16 0 16.16 13.3 43.8 25.26 38.39 23.54-10.66 16.98 3.79 16.16 15.15-.6 8.12 5.05 14.14 8.08 14.14 14.14 0 28.28-18.18 28.28-37.37 0-15.15 4.04-20.2 13.13-20.2 13.13 0 19.2 4.04 19.2 13.13 0 5.05-4.05 14.14-4.05 19.19 0 6.06 6.06 7.07 23.23 8.08 20.2 1 23.23 2.06 24.25 14.14.67 8.06.57 15.1-.12 21.44-37.69-.13-95.28-.42-131.36-.42-16.68 0-15.21 2.03-15.21 6.1 0 6.02 2.02 5.2 14.05 8.43 44.64 11.96 79.07 16.32 104.12 28.42-10.68 5.87-24.11 10.33-40.17 14.82-67.53 18.85-78.23 81-78.95 115.4-2.57 123.44 62.17 166.58 155.73 174.76-15.08 5.24-23.03 10.4-36.8 13.22-4.94 1-11.73 4.62-20.79 8.74-13.16 5.98-27.27 9.08-37.37 9.08-8.08 0-19.2-2.01-19.2-9.08 0-2.02 2.03-3.04 6.07-3.04 4.04 0 6.06-3.03 6.06-7.07 0-11.1-14.14-37.37-30.3-37.37-3.04 0-4.04 4.04-4.04 11.11 0 7.07-6.07 29.3-13.14 29.3-2.02 0-4.04-4.05-6.06-16.17l-5.05-22.22-2.02 24.24v4.04c0 25.25 14.14 39.4 41.42 39.4 5.05 0 12.12-1.01 18.18-2.02l26.26-4.05C46.58 532.55 7.55 635.28 45.14 714.14c9.72 20.4 21.22 53.54 21.22 78.8 0 2.01-1.01 3.02-2.02 3.02s-3.03-2.02-6.06-6.06c-6.06-8.08-17.18-18.18-26.27-24.24l-17.17-11.11v23.23c0 12.12 5.05 28.28 10.1 35.35 8.08 10.1 12.12 17.17 12.12 22.23 0 5.05-5.05 9.09-14.14 13.13-10.1 5.05-18.18 16.16-18.18 23.23 0 3.03 2.02 5.05 6.06 5.05 3.03 0 17.17-2.02 31.32-6.06 27.27-7.07 30.6-25.2 38.38-56.57 2.47-9.98 3.93-20.12.38-31.03 33.83 34.48 71.88 49.06 106.92 52.19-5.84 23.02-17 39.28-38.3 44.99-32.18 8.62-33.67 7.58-33.67 12.97 0 3.98 5.19 2.76 11.28 2.76 5 0 64.19-4.74 84.76-4.87l1.36-.02c1.06 0 2.18.04 3.26.06a340.87 340.87 0 0 0-37.93 44.14c-12.23 16.83-19.28 21.24-45.54 21.24-7.07 0-10.1-1.01-10.1-4.04 0-2.02 2.02-6.06 7.07-10.1 6.06-6.07 9.1-12.13 9.1-17.18 0-9.09-9.1-16.16-22.23-16.16-10.1 0-17.17 5.05-26.26 16.16-12.12 15.15-26.26 22.23-37.38 22.23-11.1 0-20.2-7.08-20.2-23.24 0-13.13-4.04-22.22-12.12-22.22-8.08 0-13.13 10.1-13.13 24.24 0 14.14 14.57 73.74 89.92 73.74 28.63 0 78.55-23.25 104.02-68.69 7.72-13.78 22.85-28.15 36.37-39.22 1.36.08 2.63.14 4.03.23-26.52 45.72-9 75.33 2.57 86.75 20.07 19.77 51.36 27.48 77.26 14.52 17.86-8.94 31.39-40.05 31.28-54.2a112.4 112.4 0 0 1 3.03-26.26c1.87-7.46 5.05-11.1 5.05-14.14 0-2.02-1-3.03-3.03-3.03-8.08 0-12.1 7.07-12.12 18.18-.02 9.9 2.08 21.56-3.03 29.3-7.57 11.46-15.15 17.17-22.22 17.17-7.07 0-13.02-6.1-17.17-17.18-4.94-13.17-16.16-21.16-24.24-21.2-13.04-.08-17.54 29.82-27.28 25.25-19.47-9.16-9.75-35.69.96-54.46 21.6 1.38 43.35 3 46.3 3 6.08 0 11.27 1.22 11.27-2.76 0-5.39-.87-4.16-33.67-12.98a49 49 0 0 1-11.95-4.93l.36-.47c28.02-32.26 136.54-56.75 206.1-37.07-29.03 8.22-63.44 42.22-74.66 63.44-9.02 17.05-21.02 48.4-12.38 66.43 15.41 32.2 19.19 31.31 57.57 31.31 17.17 0 19.2-9.1 19.2-26.26 0-3.03-1.02-4.04-3.04-4.04-6.06 0-20.2 9.09-27.27 9.09-13.13 0-22.22-11.11-22.22-29.3 0-12.12 1-19.19 3.03-19.19 2.02 0 4.04 2.02 8.08 7.07 8.08 10.1 17.17 14.15 26.26 14.15 11.11 0 21.21-7.08 21.21-21.22 0-6.06-2.02-13.13-5.05-16.16-5.05-5.05-9.09-18.18-9.09-29.3 0-15.14 4.04-22.21 22.22-31.3 12.12-6.06 22.79-11.5 35.36-12.17 32.4-1.73 73.34-27.68 79.8-46.42-2.54 14.36-1.6 35.13 2.21 45.97-3.03 2.02-75.95 23.73-75.95 29.79 0 3.03 5.05 8.08 12.12 15.15 15.15 15.15 26.26 41.41 26.26 58.58 0 9.1-5.05 21.22-11.11 21.22-2.02 0-4.04-1.01-7.07-3.03-6.06-5.05-23.23-15.15-33.33-15.15-4.05 0-4.05 5.05-4.05 10.1 0 19.19 14.43 23.94 36.57 22 33.8-2.97 34.06-23.48 37.99-53.47.54-4.13 4.82-5.35 7.63-2.64 2.75 2.64 2.8 2.78 3.67 11.88 1.16 12.11 6.06 17.18 12.12 17.18s14.14-7.08 14.14-19.2-12.12-20.2-26.26-20.2h-9.09c-4.04 0-7.07-2.02-7.07-5.05 0-6.06-14.66-28.22.46-30.81 7.9-1.35 15.9-2.93 31.49-8.86 10.28 33.46 32.58 60.72 53.9 82.1 8.57 8.58-11.1 21.2-33.33 25.25-17.17 3.03-26.26 8.08-26.26 14.14a9.05 9.05 0 0 0 9.1 9.09c5.04 0 9.09-2.02 9.09-4.04 93.34-32.93 162.78 20.58 278.78-28.28 7.5-3.16 18.18-6.06 27.27-6.06 12.12 0 23.23 4.04 23.23 9.09 0 2.02-2.02 3.03-2.02 5.05 0 6.06 10.1 13.13 18.18 13.13 13.13 0 17.18-30.3 17.18-39.4 0-7.07-1.01-12.12-5.05-12.12-5.05 0-12.13 2.02-15.15 6.06-4.05 4.05-12.13 7.08-21.22 7.08-9.09 0-12.2-1.03-12.2-8.1 0-5.05 5.07-11.27 9.1-17.18 62.26-91.38 61.44-106.22 57.65-186.84-1.1-23.47 12.57-45.24 1-62.63-21.14-31.81-73.58-66.09-108.07-67.67-26.55-1.23-39.13 34-39.4 54.54-.2 16.16 14.15 27.27 23.24 27.27 4.04 0 7.07-2.02 7.07-7.07 0-4.04 3.03-9.09 6.06-11.1 4.04-2.03 7.07-10.11 7.07-16.17 0-5.05-1.01-9.09-5.05-9.09-8.08 0-12.12 10.1-17.17 10.1-3.03 0-4.04-3.03-4.04-7.07 0-4.04 1-8.08 4.04-13.13 16.07-26.78 78.12 5.84 77.77 30.3-.05 4.04-3.03 7.07-10.1 8.08-9.09 1.01-21.21 16.16-21.21 29.3 0 7.06 5.05 10.1 18.18 16.15 25.25 10.1 44.1 41.47 42.43 70.71-2.33 40.69-24.6 74.28-46.62 100.9-8.85-19.67-10.4-24.72-1.87-39.28 23.28-39.7 21.49-71.89-9.09-95.96-9.69-7.63-20.2-11.11-25.25-11.11-2.02 0-3.03 0-3.03 2.02 0 3.03 3.7 7.83 12.12 11.1 21.24 8.28 27.27 34.35 27.27 49.5 0 9.1-8.08 13.13-15.15 13.13-4.04 0-7.07-2.02-7.07-5.05 0-2.02 2.02-6.06 2.02-8.08 0-5.05-5.05-8.08-12.12-8.08-15.15 0-24.24 8.08-24.24 23.24 0 12.12 5.93 26.47 16.16 32.32 10.99 6.28 24.24 36.36 24.24 59.6 0 8.07-4.57 8.04-11.28 16.96-21.42 28.49-97.56 60.47-176.6 27.48-4.66-1.95 6.07-13.13 17.18-23.24 11.1-10.1 16.16-15.15 16.16-18.18 0-3.03-7.08-3.03-24.25-3.03-18.18 0-27.27 3.03-31.3 9.1-4.05 6.05-6.02 11.18-16.89 16.5-21.46-10.03-49.68-25.79-66.64-76.06 28.14-7.25 42.51-30.6 43.12 18.14.15 12.12 1 17.17 5.05 17.17 9.09 0 20.16-15.72 22.03-26.57 2.45-14.3 11.38 2.75 29.48-4.74 6.6-2.73 12.83-2.26 13.24-6.6.4-4.34-8.52-7.2-16.27-10.57-25.64-11.15-41.1-29.4-49.81-53.6-2.7-7.45-2.43-13.5-6.8-13.46-4.5.04-6.25 9.02-12.2 16.4-12.56 15.58-10.37 24.43-37.88 34.72-5.04-16.17-3.65-41.71-.3-57.46 9.7-45.53-15.64-73.71-38.46-86.2-11.1-6.07-27.27-9.09-41.41-9.09-38.39 0-60.43 28.3-59.6 60.6.51 19.8 18.77 50.08 37.38 50.51 8.07.19 20.43-14.1 26.07-35.36 2.32-8.77-1.75-18.81-1.75-26.9 0-9.08 5.08-24.1 15.07-22.59 33.65 5.12 44.46 33.5 40.7 57.55-6.32 40.39-49.61 55.7-85.96 55.3-32.9-.36-86.16-28.9-79.16-55.02 4-14.92 17.31-46.98 17.35-73.99.02-17.17 3.03-20.2 22.22-24.24 17.17-3.03 22.22-8.08 23.23-19.2v-14.13c0-7.07-2.02-11.11-2.02-20.2 0-12.13 2.02-27.28 6.06-35.36 2.02-4.04 2.02-6.06 2.02-8.08 0-3.03-1-5.05-5.05-5.05-13.13 0-31.3 27.27-44.44 59.6l-5.05 14.14a19.52 19.52 0 0 1-7.07-12.12c-15.2-65.37-28.29-129.97-91.14-163.65 3.51-27.99 9.98-54.52 18.4-79.9l460.6 530.59s-5.55-230.18-5.55-271.35V295.99c23.86 5.06 48.02 3.53 77.84-2.35-15.7 17.07-30.22 37.13-30.33 57.38-.25 43.44 21.83 93.39 35.83 107.57 3.55 3.6 15.85 17.38 26.26 32.33 12.75 18.3 17.66 30.72 15.25 40.73-11.85 49.28-52 36.3-51.61-4.37.13-13.29-2.02-18.18-4.04-18.18-1.01 0-3.03 3.03-6.06 10.1-7.07 15.15-10.1 27.27-10.1 36.36 0 15.15 11.1 27.27 33.33 27.27 17.17 0 45.38-13.63 51.73-30.3 12.13-31.88-11-49.96-22.44-73.74-.87-1.82 1.01-4.04 3.03-4.04 9.1 0 24.24 15.15 39.4 38.39l12.12 17.17-2.02-27.27c-3.03-29.3-8.08-44.45-19.2-44.45-2.01 0-6.06 2.02-8.08 2.02-1 0-1 0-1-1 0-3.04 4.03-4.05 4.03-8.09 0-7.07-7.07-19.2-11.1-19.2-3.04 0-10.1 7.08-12.13 7.08-1 0-1-1.01-1-2.02 0-3.03 6.05-14.14 17.16-30.3 11.12-15.15 15.15-25.25 15.15-42.43 0-24.24-5.04-71.71-17.17-71.71-8.08 0-15.15 17.17-15.15 43.43 0 31.31-10.1 49.5-29.29 49.5-19.2 0-30.8-17.18-30.3-38.39.6-25.7 32.85-58.88 53.62-66.2 29.04-10.23 51.26-43.87 56.46-88.34 3.18-27.25 5.07-51.51 6.58-59.6 1.52-8.08-10.6-58.58-10.6-72.72 0-8.08 1-12.12 5.05-15.15 6.06-5.05 10.1-14.14 10.1-22.23 0-10.1-7.07-22.22-17.17-22.22-7.07 0-11.11 11.11-11.11 35.35 0 16.17-1.9 24.96-.04 33.97C913.87 13.88 882.68 4.78 801.7 7.08c-30.88.88-54.62 5.34-79.8 33.34-8.78 9.76-12.12 25.25-15.15 31.3a11 11 0 0 0-1 5.06c0 3.03 2.01 5.05 6.05 5.05 5.05 0 9.1-3.03 9.1-7.07 0-11.11 28.28-42.43 37.37-42.43 3.03 0 5.05 2.02 5.05 4.05 0 3.03-3.03 5.05-3.03 8.08 0 4.04 4.04 9.09 9.09 9.09 4.04 0 9.09-3.03 11.1-6.06 12.13-19.2 21.22-27.28 36.37-27.28 4.04 0 28.28 3.04 28.28 7.08 0 2.02-5.05 4.04-15.15 7.07-14.14 5.05-20.2 15.15-20.2 24.24 0 11.1 9.1 22.22 24.24 22.22 8.08 0 18.19-3.03 18.19-8.08 0-2.02-2.02-4.04-2.02-6.06 0-1.01 1-2.02 2.01-2.02 2.02 0 4.04 2.02 7.07 2.02 10.1 0 22.25-10.43 31.32-11.11 23.6-1.8 17.28 13.53 29.49 16.82 13.73 3.7 18.5 6.58 26.45 17.14 28.45 37.77 19.17 159.4-43.02 184.1-11.09-8.64-19.23-9.92-30.1-13.01-10.35-2.96-16.06-6.9-18.17-23.24-1.43-11.06 14.14-20.2 27.27-20.2 4.04 0 7.07 1.01 11.1 1.01 8.09 0 16.17-8.08 16.17-15.15s-8.08-7.07-17.17-7.07c-8.08 0-18.18 1.01-22.22 4.04-1.01 1.01-2.02 1.01-3.03 1.01-1.01 0-2.02-1-2.02-3.03 0-6.06 7.07-10.1 13.13-10.1h3.03c20.2 0 44.44-41.41 44.44-66.67 0-13.13-7.07-22.22-18.18-22.22-4.04 0-8.08 2.02-8.08 7.07 0 9.1 17.17 9.1 17.17 18.18 0 6.06-15.73 32.8-29.3 35.36-35.13 6.62-48.51 28.7-49.48 54.54-.64 16.88 1.19 47.4 29.29 54.55 10.62 2.7 16.94 4.94 17.1 12.83-31.68 5.05-56.3 3.9-77.22-1.5v-33.47c0-65.1 3.16-116.76 44.45-127.85 32.8-8.81 33.67-7.59 33.67-12.98 0-3.98-5.18-2.76-11.27-2.76-4.62 0-55.54 4.06-79.5 4.78-2.3.06-4.56.11-6.74.11l-1.36-.01c-20.57-.14-79.76-4.88-84.76-4.88-2.28 0-4.44-.17-6.24-.17-3-.01-5.03.45-5.03 2.93 0 5.4 1.49 4.35 33.67 12.98 41.63 11.15 44.63 62.43 44.63 126.23v18.8c-27.06-15.98-50.74-39.1-83.58-62.26-57.57-40.6-124.13-40.97-142.06-39.85 0-3.03 9.12-10.05 28.28-19.2 25.28-12.06 76.25-55.76 84.34-83.54 8.08-27.77-10.6-56.86-22.72-56.86-5.05 0-28.29 3.03-28.29 7.07 0 1.01 3.03 3.03 9.1 5.05 9.09 3.03 13.13 10.1 13.13 18.18 0 16.16-15.16 35.36-35.36 35.36-13.13 0-30.3 32.32-37.37 39.4-1.01 1-1.01 1-1.01 2.01 0 2.02 5.05 4.04 11.11 4.04 9.09 0 13.13 1.01 13.13 4.04 0 4.04-4.97 11-21.87 18.7-13.91 6.33-32.4 17.9-47.03 25.04-4.71 2.3-21.92 7.93-17.97 1.72 1.63-2.56 4.05-8.08 11.12-17.17 21.2-27.28 33.17-69.78 38.42-101.2 1.16-6.97 6.6-17.73-1.4-23.37C497.6-8.02 421.5-1.32 392.6 22.23c-18.67 15.23-24.24 21.22-27.27 53.54-1 10.1-2.02 17.17-2.02 22.22 0 15.15 5.05 17.17 18.18 24.24 9.1 4.04 15.16 6.06 19.2 6.06 9.09 0 15.15-10.1 15.15-16.16 0-4.04-2.02-8.08-7.07-8.08-11.11 0-20.2-18.18-20.2-35.35 0-31.31 25.25-46.47 62.62-46.47 20.2 0 34.34 5.06 34.34 11.12 0 2.02-2.02 4.04-5.05 6.06-9.09 5.05-17.17 36.36-17.17 56.56 0 10.1 2.02 19.2 10.1 19.2 3.03 0 16.16-9.1 20.2-9.1 1.01 0 2.02 1.01 2.02 3.03 0 10.1.1 35.4-26.25 61.77-7.07 7.07-23.16 21.98-27.28 22.07-3.03.07-10.1-9.1-10.1-14.14 0-6.06 11.11-9.1 11.11-13.13 0-2.02-4.04-4.04-11.11-4.04-21.21 0-54.55 23.23-54.55 34.34 0 3.03 5.05 5.05 9.1 5.05 3.02 0 4.04-1 4.04-3.03 0-3.03 6.06-5.33 14.14-5.05 15.53.53 13.34 19.19 10.1 24.02a881.58 881.58 0 0 0-32.06 51.61c-64.5-75.78-116.2-136.48-119.66-140.36-18.27-20.41-20.4-24.62-31.05-24.9-6.4-.18-15.85 1.06-33.7 1.06h-.72c11-17.3 31.47-48.82 39.45-49.42 2.01-.16.97 7.69.97 13.75 0 7.07 0 10.1 5.05 10.1 17.17 0 40.4-15.15 44.45-27.27 4.04-11.11 7.07-14.15 17.17-14.15 5.05 0 14.14 2.03 20.2 2.03 13.13 0 19.2-4.04 19.2-10.1 0-15.16-21.22-23.24-37.38-23.24-16.16 0-36.37 5.05-55.56 15.16-24.24 12.12-41.79 37.95-46.28 47-3.74 7.52-19.1 29.1-19.1 29.1C196.25 52.6 173 1.14 110.8.01Zm44.46 154.74c26.4 19.22 38.88 54.6 38.88 134.76v149.63c-4.04.17-8.14.37-12.34.63-12.74.8-41.61-10.1-48.78-12.49-11.1-4.04-18.5-10.18-19.19-13.13-1.44-6.1.94-11.23 4.24-16.38 6.86 3.71 19.07 5.27 24.04 5.27 15.15 0 37.32-17.2 34.97-28.06-2.08-9.62-21.12 1.73-27.08-4.32-8.62-8.74-28.27 3.42-34.65 14.73l-.13-.27c-2.82-3.28-6.94-6.32-12.5-8.35-10.1-4.03-15.15-14.14-15.15-25.25 0-8.08 2.02-15.15 8.08-22.22 3.03-4.04 5.05-7.07 7.07-7.07 2.02 0 4.04 3.03 7.07 8.08 3.03 5.05 9.1 10.1 13.13 10.1 17.17 0 42.43-36.36 42.43-54.54 0-6.06-.4-8.93-6.3-7.5-5.62 1.37-12.9 10.18-22.75 12.44-9.82 2.25-18.35 2.23-11.65-5.8 10.18-12.19 14.11-25.68 12.77-39.66-3.16-32.84-15.4-46.92-14.96-27.99.42 17.75-7.97 33.48-27.82 50.33C67.1 291.05 64 333.76 74.25 360.97c9.37 24.86 18.13 20.75 21.71 32.25 1.33 4.25 6.54 11.65-5.97 12.94-44.18-17.8-58.85-104.73-52.04-150.74 7.36-49.68 41.43-79.5 84.97-84.7 11.22-1.34 22.36-7.82 32.34-15.97Zm387.64 18.84c19.98-.43 41.08 3.9 65.87 11.27 46.03 13.67 75.79 54.01 68.7 106.06-8.7 63.73-48.07 87.5-94.13 86.49-32.07-.7-45.09-39.93-45.27-66.29-.15-21.21 5.05-38.38 27.27-38.38 8.08 0 25.25 4.04 37.37 4.04 10.1 0 17.18-8.08 17.18-18.18 0-12.13-16.17-20.2-40.4-20.2-20.21 0-27.5 1.85-37.38 16.15-30.99 44.88-26 89.84 8.12 131.54 4.48 9.17 4.07 22.69 8.72 27.59 10.4 10.99 10.88 25.02 40.32 26.66 7.83.44 26.23-22.29 26.28-31.84.02-5.31-19.7-3.78-25.46 1.98-2.9 2.9-5.42 3.39-5.6 1.1-.2-2.3-1-7.64-1.82-11.87-.88-4.63.82-6.73 6.03-7.44l-.16-.29c2.4-.02 4.8-.02 7.2-.05 17.43 0 46.82-18.52 56.57-26.6 15.03-2.82 22.24-1.06 28.77 2.72 26.6 15.4 32.58 36.9 18.3 59.78-8.09 12.98-27.16 12.43-41.81 8.6-5.4-1.41-14.16-.24-19.46 2.6-11.07 5.92-22.83 44.47-15.73 51.56 2.5 2.5 16.7 4.05 31.58 3.45 31.52-1.28 33.99 3.67 12.06 24.16-12.39 11.57-14.72 17.14-13.46 32.16 1.91 22.69 7.73 24.79 24.8 8.95 9.97-9.24 13.9-10.48 13.43-4.9-.87 10.3-11.06 17.48 1.8 28.92 12.75 11.34 30.07 9.53 40.58 5.87 12.86-4.48-11.78-8.41-17.7-14.63-27.87-29.26-12.53-68.73-5.28-90.22 8.53-25.24 16.54-54.33 17.79-64.65 2.98-24.72-8.65-51.56-26.87-62.02-12.33-7.07-28.83-11.36-27.07-23.78 2.18-15.35 27.48-61.46-7.56-119.43 37.51 32.7 66.27 54.35 92.28 67.56v117.25l-.06 322.78-.01.35c-.01 0-223.15-262.55-372.98-438.63 2.57-4.87 5.13-9.75 7.75-14.54 7.84-14.31 10.37-30.85 26.53-30.85 8.08 0 13.13 11.12 17.17 38.39 4.04 28.28 9.1 42.42 15.15 42.42 5.05 0 10.1-8.08 15.15-24.24 5.05-15.15 14.14-34.34 19.2-42.42 3.02-4.05 5.04-7.08 5.04-10.1 0-10.1-32.32-20.2-43.43-20.2h-7.07c-2.02 0-2.02 0-2.02-1.02 0-4.04 4.06-9.4 16.83-18.7 27.4-19.96 51.2-28.38 76.9-28.93Zm-310.28 71.39 104.5 120.37c-11.25 30.94-18.6 60.37-22.5 88.6-21.9-8.3-48.76-13.55-82-14.9V244.97Zm3.34 212.74c22.17-.32 45.43 2.58 64.93 9.03 4.12 1.37 7.91 3.06 11.72 4.74-4.76 52.84 2.24 101.76 17.46 149.14-9.57-2.75-18.46-15.46-27.35-36.79-24.24-58.58-29.3-66.66-37.38-70.7-2.01-1.01-4.04-2.02-5.05-2.02-2.02 0-4.04 1-4.04 4.04 0 7.07 23.24 43.43 23.24 52.52v2.02c-2.03 4.04-11.12 42.43-11.12 57.58 0 11.1 4.04 16.16 14.14 22.22l17.18 11.11 8.08-11.11c3.03-4.04 8.08-7.07 11.11-7.07 5.05 0 13.32 4.35 19 26.24 23.74 91.38 40.16 124.98 79.29 143.91-60.9 2.3-116.38 15.2-166.17 49.98-5.93-8.07-9.92-18.4-12.66-30.4a157.75 157.75 0 0 0 31.04-9.93c26.18-11.68 48.15-41.3 48.49-70.71.14-12.12-9.1-33.33-21.21-42.42-8.08-6.07-13.13-13.14-13.13-17.18 0-4.04-4.04-7.07-9.1-7.07-7.07 0-9.08 4.04-9.08 9.1 0 6.05 5.04 13.13 13.13 15.14 8.08 1.01 13.13 8.08 13.13 16.16 0 11.12-3.03 13.14-18.19 13.14-9.09 0-13.13 0-13.13 2.02 0 1 1.01 3.03 4.04 4.04 10.1 6.06 14.15 19.19 14.15 31.31 0 19.2-8.5 28.98-22.8 38.51-4.09 2.73-10.98 4.66-19.64 5.75-2.92-19.52-3.42-42.53-3.42-67.58V457.85c1.12-.03 2.21-.11 3.34-.13Zm-41.83 4.94v291.4c0 24.02-.43 46.27-3.18 65.28-42.52-5.28-90.5-22.81-98.88-55.74 6.44-3.4 11.83-.42 20.08-.6 21.3-.48 35.01-27.64 35.01-55.93 0-17-11.39-43.53-24.24-51.51-13.6-8.45-26.14-16.78-42.42-19.2-2-.29-2.02 2.03-2.02 7.08 0 5.05 4.07 11.02 11.1 13.13 13.17 3.95 38.4 30.3 38.4 38.38 0 2.02-3.04 3.03-5.06 3.03-6.06 0-13.13-8.08-19.19-8.08-7.07 0-11.11 8.09-11.11 25.26v20.2c0 9.09 0 12.12-3.03 12.12-2.02 0-5.08.01-7.07-3.03-60.81-92.88-33.7-180.7 22.2-236.38 11.53-11.49 25.03-25.6 38.8-25.31-.33 16.56-16.6 27.13-24.67 50.2-1.46 4.18-2.07 5.96-1.95 6.75-1.34 2.9-2.06 6.48-2.06 10.8 0 24.24 21.21 66.67 48.48 86.87 6.06 4.04 8.09 6.06 10.1 6.06 2.03 0 2.03-2.02 2.03-8.08 0-6.06-5.05-15.15-12.13-20.2-8.08-6.06-13.13-15.16-13.13-25.26 0-9.09 4.05-18.18 12.13-25.25 8.08-7.07 13.13-17.17 13.13-25.25 0-8.08-6.06-18.18-15.15-18.18-5.06 0-9.1 3.03-9.1 8.08 0 3.03 4.05 5.05 4.05 8.08 0 5.05-10.1 13.13-13.14 13.13-2.02 0-2.02-2.02-2.02-7.07 0-5.9-3.83-8.45-10.3-9.65 12.41-23.2 15.62-26.57 26.89-49.17 5.01-10.06 19.09-17.48 37.45-21.95Zm137.79 19.18c62.48 41.68 73.36 130.97 77.87 192.91 2.42 33.25-2.03 86.87-15.16 86.87-22.7-29.39-32.47-82.81-44.48-124.22-2.26-7.78-2.6-13.7-3.65-17.43-14.05-50-17.72-95.68-14.58-138.13ZM503.72 700c5.05 0 8.08 1.01 8.08 4.04 0 1.01-1 3.04-2.01 5.06-2.03 4.04-4.05 16.16-4.05 27.27v15.15c0 8.08-1 11.11-4.04 11.11-9.08 0-12.12-16.16-12.12-28.28 0-17.17 6.06-34.35 14.15-34.35Z"/></svg>
