<svg viewBox="0 0 1000 1000"><path d="M311.5.8c-23.67-.53-41.58 3.7-56 8.94-12.57 4.57-15.76-.52-32.36 6.52C128.89 56.2 108.4 137.7 160.92 214.89c6.93 10.19 6.4 14.1 3.02 12.24-44.75-24.56-55.04-45.03-70.47-89.63-4.3-12.45-.7-29.56 8.79-34.33 7.55-3.79 4.6-13.04 15.8-24.3 10.22-10.26 14.42-31.97 15.9-37.22 1.03-3.6-.24-6.09-5.17-1.65-4.7 4.21-9.9 6.17-14 6.1-4.1-.08-10.5 3.86-13.48 9.2-18.68 33.35-18.2 15.68-20.25-3.14-.4-3.64-4.43-6.74-9.96-6.83-6.58-.12-9.22-2.35-11.92-6.1-13.3-18.5-39.52 1.19-48.5 13.36C-2.84 70.96-3.54 82.2 8.73 82.44c5.08.1 9.16.27 10.42 3.35 5.91 14.4 20.87-22.57 31.94-13.26 35.36 29.74 18.8 73.11 50.15 113.56-6.24-3.94-13.92-1.85-18.08 1.16-5.44 3.94-6.85 1.04-4.83-6.61 4.35-16.52-9.22-15.2-13.38-24.1-4.84-10.35-11.53-6.34-24.9 2.7-33.61 22.7-34.98 48.3-33.53 63.19 1.11 11.46 11.92 26.55 21.66 27.82 14.01 1.82 26.05 1.87 5.85-11.6-19.3-12.9-20.66-18.94-7.06-31.26 10.92-9.9 22.74.09 44.51-1.83 9.44-.82 9.03-6.82 15.58-9.77 6.08-2.73 16.01-1.75 23.4 6.16 7.26 7.76 25.4 25.26 55.77 42.53 6.5 3.7 15.46 6.79 15.4 10.87-.08 5.37-2.52 2.47-13.3.9-24.14-3.54-53.6 1.58-81.47 10.17-29.88 9.22-49.07 41.82-60.95 63.85-18.56 34.44-28.78 80.23 3.56 111.2 15.64 14.96 34.36 21.94 52.27 27.27 13.7 4.08 16.73 6.09 16.82.4.04-2.66-1.92-4.89-4.36-4.95-7.4-.18-55.46-24.92-61.7-52.86-7.68-34.3 9.87-41.8 23.8-25.37 1.75 2.05 2.73 5.85.13 14.42-4.87 16.06-4.11 16.89 17.67 19.23 20.3 2.19 19.1-6.2 1.14-30.68-15.12-20.6-27.14-53.43-18.15-71.33 7.97-15.86 15.46-22.87 15.28 1.56-.2 27.71 8.7 37.4 15.41 40.16 3.28 1.35 6.12-2.8 6.83-10 1.6-16.42 4.13-18.06 13.23-8.56 10.31 10.76 16.54 10.21 16.72-1.46.08-5.3-.96-9.69-7.37-11.5-6.13-1.75-38.12-18.47-33.52-27.87 3.52-7.2 9.46-12.15 19.95-10.5 16.28 2.55 20 .08 27.38-9.73 9.65-12.83 37.4-12.5 48.51-8.46 3.1 1.12 6.16 2.18 9.22 3.2-43.92 61.53-71.89 137.91-71.89 226.9 0 97.36 37.95 191.6 100.7 265.37-59.5 13.96-110.83 29.35-141.4-21.22 14.4-19.58 26.6-32.98 29.08-44.41 6.37 6.55 14.74 9.21 20.97 10.06 13.45 1.82 17.66-.53 11.86-8.59-9.1-12.66-11.48-34.53-21.9-36.64-12.28-2.48-17.17 4.5-33.3 6.5-9.91 1.23-13.62 6.4-22.04 31.42-5.56 16.54-11.6 30.06-13.4 30.05-31.55-35.57-7.4-106.3 42.7-107.22 8.52-.16 13.05-11.82 13.1-16.03.1-6.23-1.23-6.57-7.13-1.86-8.59 6.87-23.74 1.95-20.38-6.62 9.14-23.32 9.05-26.9-.8-30.33-14.2-4.95-30.24 6.76-41.15 30.05-11.97 25.53-18.7 22.33-18.43-7.45.35-40.98 39-62.92 65.05-52.37 21.99 8.92 32.1 5.2 19.25-10.8-5.18-6.44-14-9.08-24-9.27-19.06-.35-42.34 8.26-52.46 16.56C1.38 556.39-4.43 592.78 7.43 639.98c-8.87 19.75-.21 64.79 8.48 82.62 15.75 32.3 58.52 67.49 123.87 70.14 16.62.68-2.53 10.9-15.84 26.06-14.34 16.33-27.77 36.42-32.49 62.76-1.75 9.75-10.23 5.4-14.06 2.8-13.08-8.85-11.03-26.94-2.5-34.22 8.35-7.15 4.86-14.33-13.97-6.29-13.5 5.77-19.27 16.52-21.93 40.66-2.22 20.25 6.44 30.21 22.36 29.75l25.15-.73-1.93 14.65c-2.8 21.23-9.52 31.03-23.38 34.08-15.2 3.34-19.87-1.04-11.5-10.79 5.36-6.26 4.4-9.63-6.14-21.33-6.88-7.64-13.78-21-15.35-29.7-1.56-8.7-4.92-15.9-7.45-15.98-2.56-.08-3.35 6.13-1.79 14 1.97 9.87.74 14.9-4.04 16.59-4 1.41-8.1 12.2-9.86 25.93-3.81 29.77 4.84 49.43 23.3 52.91 7.32 1.38 15.47 2.9 18.13 3.39 11.01 2.02 35.3-17.34 38.35-30.57 1.76-7.64 5.5-17.13 8.29-21.08 4.52-6.4 5.6-6.36 9.76.32 2.57 4.14 3.63 10.26 2.35 13.62-1.28 3.35-.35 11.67 2.07 18.48 5.42 15.25 20.77 16.8 30.68 3.08 6.57-9.09 10.71-16.66-12.93-52.87-39.41-60.35 32.94-142.2 91.1-146.97-25.47 12.35-66.89 50.85-75.57 97.7-6.67 35.96 6.74 73.68 28.12 88.51 30.06 20.86 71.44 24.77 143.25 6.03 34.28-8.95 60.37 40.18 113.02 21.39 13.03-5.64 10.51-20.26-5.77-33.49-24.17-19.64-15.1-29.58 13.63-13.68 20.32 11.24 39.16 31.85 24.43 45.1-2.79 2.51-.57 8.11 10.88 3.18 6.94-3 19.14-14.17 8.02-28.09-5.64-7.06-14.58-17.36-17.6-25.01-3.5-8.83-10.17-15.66-18.56-16.96-54.65-8.49-92.54-11.07-149.97 33.9-10.52 8.24-39.64 13.17-34.3-.83 3.65-9.53 27.65-22.08 31.45-26.63 35.65-42.7-8.53-91.14-53.53-90.12-21.1.47-9.32 10.45 13.34 12.55 29.94 2.79 46.53 31.09 30.85 52.68-4.01 5.52-10.3 8.58-6.62-3.12 5-15.87-5.54-14.54-7.79-26.39-1.54-8.09-14.9-12.07-19.69-4.55-1.69 2.65-7.72 6.72-13.25 5.28-11-2.86-15.62 3.2.5 13.7 25.19 16.38 27.95 45.06.18 58.6-31.05 15.15-54.92-2.3-67.01-25.61-26.72-51.52 18.22-114.95 75.37-134.74 73.76 74.64 174.85 123 286.65 123 88.74 0 202.73-34.82 283.86-123.6 12.26 6.13 20.57 13.4 22.62 40.53 1.04 13.72-.35 24.76-17.68 41.71-12.53 12.26-19.56 15.61-22.82 28.2-2.16 8.34 7.34 14.04 24.25 16.63 6.69 1.03 20.69-4.5 26.76-4.74 6.07-.24 11.4 5.42-6.56 20.24-4.41 3.64-28.49 14.1-46.13 12.68-38.56-3.13-44.64-51.1-36.83-64.38 9.39-15.95-.69-18.8-13.72-4.16-14.28 16.03-14.98 34.52-2.1 55.37 11.68 18.9 28 30.92 51.7 34.82 14.05 2.32-42.69 5.57-66-6.9-10.14-5.42-29.33-16.46-42.86-24.1-25.13-14.2-41.91-15.95-49.28-12.87-7.2 3-11.97 4.88-18.68.3-9-6.18-13.18-6.4-25.57-1.4-19.94 8.04-38.13 24.76-51.22 47.06-10.61 18.08-19.3 21.65-15.98 25.4 3.29 3.74 24.8-4.11 42.15-21.1 24.72-24.18 41.32-31.31 34.75-14.91-1.89 4.7-2.65 7.97-2.37 12.05.32 4.63 2.89 7.77 9.89 15.11 8.8 9.25 15.53 12.99 19.64 9.23 24.81-22.71 30.6-24.04 46.18-24.67 11.76-.46 35.55-1.91 53.8 12.35 10.66 8.33 16.07 14.31 21.33 7.12 2.62-3.59 9.77-4.94 35.72-3.96 52.36 1.98 96.5-34.52 101.77-85.73 2.89-28.1-12.63-58.2-29.15-77.16-12.75-14.63-16.1-21.27-11.29-22.72.94-.28 1.88-.4 2.8-.35 21.6 12.97 60.59 38.49 71.22 64.19 0 1.14-3.67 1.96-8.15 1.82-4.48-.15-10.86 4.6-12.3 9.79-7.2 25.73-.36 26.63-1.63 61.75-1.27 35.46-.46 47.23 4.22 47.38 3.43.12 8.6-5.87 11.5-13.3 10.9-27.93 16.62-53 15.73-63.73-.94-11.28 10.92-20.52 15.42-13.53 12.93 20.04 3.8 27.1 2.57 48.5-.5 8.81-.73 20.37 4.67 28.13 4.76 6.84 1.39 15.21-.4 19.87-2.67 7 2.88 8.53 9.85 1.23 35.9-37.61 20.61-60.96-6.19-107.92 9.8-3.47 23.16-.94 29.96 7.32 6.15 7.46 7.11 6.02 9.4-13.36 5.34-45.26-9.47-62.32-41.43-37.5-6.1 4.72-12.1 9.5-16.19 15.4-19.3-26.14-49.37-46.09-70.2-61.24 33.86 11.13 63.04 9.19 88.23-3.12 31.56-15.42 39.97-35.26 43.65-101.19 3.21-57.4-.85-91.93-28.93-118.53-7.6-7.19-15.75-24.12-22.64-24.09-2.3.01-4.46 1.9-6.41 6.67-5.74 13.98-7.45 19.47 14.43 39.25 14.95 13.51 16.97 17.6 12.38 24.98-3.03 4.86-10.86 9.45-17.4 10.2-28.48 3.3-33.28 27.4-9.01 45.32 17.36 12.82 32.5 43.57 25 50.79-3 2.9-7.38.73-11.95-5.93-9.63-14.03-32.22-20.03-43.4-17.83-17.84 3.5-17.74 18.67-29.62 27.44-21.36 15.77-18.27 15.73 2.65 11.64 8.46-1.66 11.43-4.18 23.37-12.08 8.5-5.63 11.2 10.16 12.87 22.32 4.5 32.44-17.37 40.76-45.94 35.94-19.53-3.29-29.97-.64-47.46-8.97-.46-.22-.93-.41-1.39-.62 54.1-65.42 90.93-157.38 90.93-282.38 0-91.67-33.81-172.32-85.83-236.42a65.28 65.28 0 0 1 29.41-2.9c29.48 3.93 41.56 16.4 41.4 54.74-.07 18.47 2.51 28.5 9.25 35.85 5.15 5.62 10.61 15.24 12.13 21.38 5.43 21.87 20.8 12.62 31.18-18.76 6.52-19.7 12.51-23.22 19.8-10.88 8.76 14.82-6.24 44.2-15.61 55.9-11.3 14.09-26.48 55.9-4.32 56.73 15.95.59 18.05 12.28 4.65 26.16-9.83 10.19-19.65 34.22-19.7 48.22-.04 11.22 12.6 6.52 19.99-6.83 10.01-18.1 32.5-25.07 37.14-45.07 17.81-76.83 12.48-181.46-88.84-216.96-25.92-9.08-35.73-17.54-17.74-22.68 4.74-1.35 15.55-5.27 24.02-8.72 13.05-5.3 17.47-5.15 28.9.95 16.47 8.8 42.81 9.91 50.88 2.13 7.43-7.17 7.61-22.07.5-42.49-4.86-13.99-7.33-15.65-21.88-14.7-9.02.6-17.98-.52-19.9-2.47-5.8-5.85 13.59-22.73 25.83-22.5 17.24.33 24.2-16.11 16.57-39.21-6.4-19.43-22.53-30-29.36-19.26-4.53 7.11-14.71 1.8-14.68-7.66.01-3.7 4.7-14.4 10.4-23.8 11.3-18.55 25.01-23.33 20.66-7.2-3.07 11.4 5.73 13.23 10.35 2.22 5.77-13.73 2.34-28.12-7.6-30.67-20.17-5.18-38.1-6.32-50.2 9.02-17.47 22.13-14.47 62.06-11.34 91.24 2.87 26.74 1.89 87.89-44.63 99.1-8.95 2.16-3.87-4.06 2.82-12.29 40.3-49.6 28-118.05 9.11-141.44-22.36-27.7-64.44-55.33-116.43-49.48-25.72 2.9-42.34-4.48-60.87-4.66-11.12-.11-22.92 2.36-37.79 11.19-20.86 12.38-28.38 14.52-34.93-.67-6.07-14.05-24.25-12.67-32.8-9.5-14.54 5.4-18.58 24.62-8.64 40.34 11.91 18.85-3.65 14.55-18.27 7.84-10.77-4.93-21.52-16.5-23.7-27.6-4.27-21.74-10.55-30.5-17.03-17.56-6.12 12.21-17.84 15.96-4.02 30.33 60.2 62.63 130.7 36.51 167.1 7.78 24.02-18.96 32.5-15.57 49.07-16 7.81-.2 7.54 5.15-8.68 13.23-16.53 8.24-46.47 33.34-49.4 49.36-1.57 8.61 1.53 20.94 11.98 15.8 7.83-3.86 14.32-12.3 14.49-18.51.23-8.42 11.24-24.42 16.75-24.32 1.9.04 1.58 4.7 0 10.57-10.85 40.24 1.53 54.33 26.03 63.43 31.56 11.72 77.37-5.84 92.8-26.83 9.26-12.6 15.36-23.42 24.3-9.12 13.64 21.8 12.43 64.1-24.05 101.58-8.25 8.47-12.78 4.2-21.22 14.3-3.36 4-6.19 10.7-14.53 18.74-79.99-91-197.14-145.35-301.9-145.35-105.67 0-227.94 54.55-308.64 152.53-11.21-10.82-21.06-25.02-30.92-42.48-32.66-57.8-49.2-117.86 39.45-171.71 39-23.7 63.43 17.24 53.27 32.45-3.22 4.8-11.02 6.5-17.6 5.13-6.15-1.3-12.34-.54-13.75 1.66-3.26 5.1-2.66 22.8 12.1 29.34 11.15 4.95 30.74 4.1 17.03 21.56-15.82 20.16-39 17.23-53.55 4.18-6.5-5.82-9.3-13.67-1.15-21.55 4.54-4.4 4.43-5.68-.48-5.77-3.96-.07-5.33-3.69-3.68-9.66 3.46-12.5-1.47-15.18-12.98-7.06-9.09 6.4-12.82 12.82-1.68 36.08 20.36 42.52 73.38 36.64 100.5 10.29 22.17-21.55 20.98-36.29 6.8-61.61-6.42-11.45-9.3-16.66-8.14-17a170.2 170.2 0 0 1 8.9 7.46c49.36 44.38 131.57 30.8 156.22-.16 10.58-13.28 13.29-36.82 3.26-47.27-13.5-14.05-44.8-19.4-34.84 1.66 3.86 8.16 7.43 12.19 7.31 23.22-.11 10.32-19.1 16.52-23.38-3.24-3.23-14.94-32.69-13.05-38.73 5.06-4.77 14.3 8.14 20.66 16.4 26.11 11.66 7.7-6.24 13.27-17.15 11.55-46.16-7.3-76.5-32.36-89.62-60.38-2.04-4.35 10.32-6.58 31.63-4.6 20.55 1.9 29.81.8 33.98-4.06 3.15-3.68 4-7.66 1.9-8.86-.74-.43-13.9-.43-17.8-.86-6.12-.68-11.9-1.05-17.36-1.17zM806.04 53c23.53.44 47.07 8.13 47.02 19.73-.03 5.76-2.06 6.16-9.82 1.9-11.3-6.2-12.99-.63-4.59 15.18 4.12 7.74 3.4 11.85-3.3 19.02-12.45 13.3-17.7 11.1-15.85-6.62 1.24-11.94-.47-16.03-7.33-17.52-16.13-3.5-30.1 2.85-38.66 17.61-9.9 17.06-16.29 18.16-23.73 4.1-7.11-13.45 1.8-34.83 19.02-45.65 9.03-5.67 23.14-8.01 37.24-7.75zm-295.82 82.92c104.57 0 191.57 50.15 243.95 140.89-41.16 11.38-60.6-3.44-112.08-36.5-15.4-9.9-38-24.96-69.06-26.83-13.26-.8-12.44 8.04.96 12.47 20.04 6.62 35.36 24.99 48.04 45.9 12.24 20.2 8.16 24.98-11.25 13.35-6-3.6-14.13-7.46-21.63-.21-9.58 9.24-4.99 38.72 5.85 51.46 12.4 14.56 28.78 35.28 6.13 60.96-13.94 15.8-27.17 31.28-44.84 40.22-2.38 1.2-6.25 1.38-8.34.62-3.92-1.4-9.73-4.58-9.53-7.39.37-5.33 5.4-5.53 11.28-13.16 11.95-15.5 16.68-31.07 16.8-43.8.05-6.55-1.17-16.96-7.8-25.35-10.33-13.1-10.24-11.3-16.87 5.57-3.13 7.98-7.46 14.02-12.31 18.31-4.86-1.43-10.7-18.53-14.17-32.68-4.75-19.43-3.08-41.3-.88-50.07 3.86-15.44 27.11-13.47 23.73.43-2.53 10.37 5.63 8.25 14.05 2.77 17.59-11.45 16.04-15.73 10.78-29.96-2.97-8.02-12.73-10.67-22.14-11.3-10.55-.7-29.31 1.7-35.67 7.07-3.71-11.37-1.75-17.85-.18-29.35 1.22-9.05 7.3-11.14 11.79-17.37 4.91-6.82 8-13.2 3.58-23.51-6.37-14.85-19.05-18.32-31.34-16.43-19.23 2.95-30.66 15.35-32.83 30.01-1.5 10.12 3.54 12.47 8.88 16.15 13.08 9.01 16.54 5.45 14.3-5.81-1.23-6.18 2.93-11.99 8.8-14.33 3.71-1.47 9.32-.8 10.25 5.37.9 6-.1 10.76-2.9 18.45-3.2 8.7-5.26 24.47-1.36 37.33-4.13-2.41-10.5-3.69-15.86-4.17-31.37-2.86-54.05 7.7-56.53 19.57-.96 4.59 3.62.82 12.24 8.87 7.28 6.8 18.1-2.94 34.61-2.58a31.62 31.62 0 0 1 26.04 14.74c2.3 3.77 5.76 20.7 5.94 38.94.25 24.85 2.2 40.55-2.73 41.3-5.53-3.88-9.97-10.45-12.16-19.7-1.11-4.68-3.2-19.53-7.72-19.5-1.94.01-3.87 2.88-5.37 8.6-1.82 6.9-8.02 13.57-10.28 17.84-12.92 24.37-.03 43.1 10.62 52.23 7.34 6.3 12.54 10.1 4.32 14.94-1.87 1.1-6.92.74-10.55-3.42-17.24-19.77-31.83-24.24-47.36-34.92-11.08-7.61-14.02-14.07-3.53-18.29 11.33-4.56 11.01-20.1 10.27-30.9-1.03-14.83-9.74-56-20.54-54.26-4.02.65-10.9 14.79-16.05 29.26-6.23 17.51-11.7 23.4-18.83 22.14-8.87-1.56-13.5-27.86-10.34-51.97 3-22.88 27.34-50.87 50.43-53.6 20.45-2.41 19.64-14.8 9.69-14.52-31.67.92-54.42 19.04-70.4 29.2-23.84 15.15-52.19 27.59-75.63 28.26a126.3 126.3 0 0 1-16.61-.58c45.35-83.53 130.52-140.76 252.34-140.76zM618 240.5c55.14 29.1 82.44 70.23 143.77 50.26 29.4 57.03 45.98 128.57 45.98 212.58 0 115.93-22.44 205.68-65.05 267.46-1.7.21-3.3.36-5.04.6-32.37 4.52-61.17 35.1-100.91 35.88-14.25.28-25.23-6.1-28.9-12.05-3.1-5.04-4.82-11.72 8.16-9.32 44.6 8.25 81.18-26.14 79.17-59.67-4.46-74.1-53.15-134.33-120.88-188.21 5.72-8.3 11.74-16.98 13.64-25.36 7.65 23.25 45.23 62 66.02 43.12 31.93-29 22.9-33.93-.18-40.03-11.32-2.99-17.63-9.84-19.74-17.7 2.74-1.91 9.2-5.35 16.13-2.84 49.75 18.04 79.75 52.97 68.31 89.06-13.46 42.49-12.51 83.76 13.85 115 10.79 12.77 28.25 18.21 28.3 8.88.02-2.61-4.34-7.22-9.69-10.24-25.34-14.31-24.04-54.06 2.68-82.95 23.11-24.98 27.5-35.27 27.67-64.9.17-29.7-5.52-40.18-25.5-38.73-12.37.9-18.83 12.17-24.4 26.33-17.1-22.04-38.66-36.5-67.86-47.14 21.92-8 50.9-13.7 54.43-32.04 3.1-16.84 15.7-18.43 19.4-2.45 2.35 10.18 5.95 13.08 12.12 4.61 12.98-17.8 7-51.13-16.62-60.98-30.04-12.53-45.12-32.51-15.79-63.72 6.07-6.46 3.05-14.85-3.75-14.82-1.57.01-3.34.47-5.25 1.5-18.73 10.12-27.28 34.49-25.45 49.45 1.52 12.47 6.6 28.25 11.19 35.07 6.9 10.22 10.63 18 11.4 25.18.79 7.19 2.23 22.09-13.04 31.96-7.95 5.14-42.51 22.69-56.61 16.76a31.76 31.76 0 0 1 16.66-16.52c18.18-7.89 26.2-15.94 23.89-23.56-2.31-7.63-29.08-7.1-49.33-12.84-12.13-3.43-21.88 5.33-30.54 16.93-7.61 10.18-16.49 17.67-24.3 6.67-1.74-2.43-3.9-5.87-2.21-8.7 3.37-5.64 15.33-17.95 31.24-30.87 17.75-14.42 54.35-48.5 52-63.29-.6-3.73 1.65-10.02 6.64-14.36 7.25-6.33 9.7-11.08 6.11-23-2.85-9.47-14.5-23.63-18.81-27.74-13.93-13.3-28.42-39.88-28.91-43.27zm-264.13 19.18c4.96-.77-1.21 10.63-3.61 19.6-10.59 39.54 2.73 71.39 22.89 92.9 8.48 9.06 39.96 29.72 48.08 32.84 7.04 2.7 31.32 18.63 35.59 30.33 1 2.73 1.32 5.67 1.29 8.5-.1 10.55-7.52 9.35-26.81-4.33-12.8-9.09-20.57-11.17-34.86-9.36-22.66 2.88-29.88 7.35-44.56 27.58-12.8 17.66-11.77 19.62 10.15 28.26 10.33 4.07 18.43 12.15 12.1 16.75-5.58 4.06-11.44 5.35-16.84 6.53-3.18.7-6.63 1.75-10.08 3.03-39.84-19.63-56.18-50.63-36.19-81.64 17.2-26.67 21.4-56.28 10.2-85.3-4.89-12.65-12.12-24.35-27.35-29.17a11.7 11.7 0 0 0-2.61-.57 4.33 4.33 0 0 0-.67 0c-3.59.27-2.03 5.54 6.26 19.16 12.42 20.38 15.05 34.77 13.42 45.36-1.84 11.92-5.12 22.24-14.94 25.4-13.03 4.2-10.6-17.87-20.27-19.31-7.46-1.11-20.01 41.95-6.14 74.15 16.1 37.38 42.38 52.36 64.3 58.4-25.73 7.04-48.54 36.45-51.34 72.01-2.06 26.13 13.18 33.95 8.8 81.56-1.74 18.88 6.79 12.2 12.24 4.98 5.19-6.88 6.27-34.39 17.54-25.61 5.11 3.98 6.54 6.31 6.83 10.83 1.84 27.87-4.77 51.37-18.3 68.23-68.12-107.91-89.32-246.67-89.32-295.34 0-53.07 11-103.73 32.55-147.8 23.04 1.49 44.02-1.38 61.86-9.25 20.45-9.03 32.44-16.05 38.64-18.4.44-.16.82-.27 1.15-.32zm282.22 60.99c3.25.18 6.06 2.41 7.65 6.66 1.4 3.75.19 9.05-2.7 11.77-4.22 4-6.73 3.83-12.87-.88-6.32-4.82-6.74-6.88-2.45-11.88 3.4-3.97 7.12-5.85 10.37-5.67zM515.03 451.72c14.45.09 30.8 5.63 38.12 15.06 16.45 21.23 13.71 48.24-5.72 62.87-19.68 14.81-48.68 8.6-62.95-6.03-21.95-22.5-12.9-60.82 17.15-70.13a45.04 45.04 0 0 1 13.4-1.77zm1.74 24.84c-7.23-.03-14.22 2.28-17.64 7.3-5.59 8.22-5.96 21.86 10.47 28.32 19.31 7.6 20.71 7.12 17.59-5.88-2.52-10.5-1.74-9.94 8.53-9.15 12.33.95 3.43-10.54.14-13.81-4.37-4.36-11.85-6.74-19.09-6.78zm-143.63 40.19c12.23-.26 7.48 16.2-1.31 18.23-16.2 3.74-13.16 11.62 7.56 19.71 24.9 9.72 45.53 9.35 55.23-1 9.62-10.28 26.77-18.29 30.3-12.14-.23.06 5.43 5.47 4.8 5.07-37.01 27.33-70.64 61.36-87.9 102.06-29.18 68.83-21 97.78 3.6 123.27 19.03 19.7 50.86 19.08 69.1 16.3 11.6-1.77-4.6 14.26-25.37 20.78-16.78 5.27-31.88 7.08-48.91 4.51-25-20.55-46.4-45.44-64.65-72.62 12.92-15.56 17.46-34 20.5-52.16 5.47-32.85-7.13-70.34-21.76-116.03-3.43-10.7 2.12-21.54 8.44-28.79 6.37-7.3 24.42-26.64 50.37-27.2zm190.26 33.34c23.16 13.59 70.05 53.19 69.63 102.45-.13 15.59-23.85 13.67-24.85 39.3-.4 10.27 14.44 33.22 26.15 41.28 10.79 7.43 13.05 7.59 19.56 1.3 8.52-8.2 20.08-11.05 21.05-3.67 3.72 28.29-13.06 38.03-27.25 44.68-23 10.78-39.22.54-45.36-5.85-14.14-14.71-16.3-7.3-14.29 5.85 1.27 8.28 3.35 11.73 7.99 20.15 18.41 33.43 74.9 21.88 105.82-.03 6.47-4.6 17.61-8.44 30.6-10.95-45.24 56.84-110.05 86.16-192.28 86.16-58.44 0-106.83-18.12-146.77-47.07 33.32 1.04 64.07-11.66 82.97-43.54 5.7-9.6 10.2-19.48 8.7-23.98-1.9-5.75-4.05-6.69-10.06-.98-5.5 5.2-10.17 7.78-13.13 14.85-3.65 8.72-9.09 10.43-24.74 9.96-10.68-.32-25.07-3.36-31.98-6.75-16.68-8.19-13.7-21.22 5.13-22.4 32.32-2 36.62-4.34 36.78-19.97.11-10.34-4.98-20.37-16.75-33.02-22.6-24.3-29.7-50.06-18.64-73.78 13.4-28.72 43.37-56.74 68-71.1 2.44.75 7.86 3.63 11.6 3.68-.03 2.24-.41 9.6-6.86 14.48-23.1 17.52-32.16 48.9-15.8 82.72 3.2 6.6 9.1 12.35 13.08 9.7 4.21-2.78 6.7-8 9.6-12.77 3.93-6.43 11.65-10.79 18.05-13.62-1.9 30.86-1.82 50.32.14 79.85 2.62 39.43 13.53 67.58-.3 64.93-10.5-2-15.16 5.39-19.77 10.07-4.59 4.66-3.26 11.33-17.83 20.94-9.69 6.38-7.97 15.86 8.21 14.03 6.83-.78 12.01-11.6 17.5-16.14 9.47-7.84 20.3-15.1 20.8-7 .15 2.54.64 12.27-2.34 17.34-3.22 5.48-6.55 9.68-7.13 18.34-.99 14.66 1.46 15.85 28.03 11.35 17.2-2.9 17.44-7.3 7.58-21.98-20.62-30.73-14.6-35.74 17.68-20.43 6.03 2.86 12.99 4.04 16.7 1.93 2.88-1.64-6.9-15.07-9.31-24.36-2.51-9.68-1.08-15.6-7.51-17.85-4.56-1.58-12.37.21-19.1 6.5-6.12 5.73-11.63 10.8-12.89 2.14-6.54-44.9-9.44-85.64-6.4-124.9.83-10.83 6.74-16.52 11.13-15.03 6.27 2.14 10.22 5.1 13.69 11.55 2.57 4.77 5.27 14.48 8.64 11.75 25.2-20.35 27.56-65.34 12.14-76.56-14.65-10.66-17.6-20.55-7.92-31.07.72-.79 1.55-1.68 2.31-2.48zM365.54 942.76c4.93.1 14.63 10.64 14.55 17.02-.03 2.9-4.45 5.13-9.83 4.95-9.38-.31-13.68-14.42-6.5-21.34a2.39 2.39 0 0 1 1.78-.63z"/></svg>
