<svg viewBox="0 0 1000 1000"><path d="M691.65.01v.01c-25.12.23-45.92 7.43-62.63 21.66-16.55 14.12-15.8 13.72-20.12 6.56-26.35-43.77-93.53-6.83-102.46 10.52-4.1 7.97-6.68 7.54-16.96-3.17-30.2-31.46-79.25-27.68-102.03-.23-33.7-41.7-90.67-45.43-128.04-14.03-22.8 19.16-22.53 26.2-14 44.37 7.83 16.7 17.52 18.54 33.42 6.37 17.6-13.48 17.92-18.73 1.05-16.81-11.86 1.34-13.33-.01-13.33-12.27 0-18.45 24.4-25.39 58.07-17.02 31.81 7.9 33.95 35.5 45.9 54.14 6.42 10.03 11.17 8.2 14.99 2.35 2.46-3.78 4.5-9.93 4.55-13.68.04-4.26 6.25-.97 16.61 8.77 15.87 14.94 35.2 13.38 27.08 3.05-27.34-34.77-21.61-46.2 16.05-42.26 16.6 1.74 32.7 25.93 41.26 47.59 3.38 8.55 3.92 21.44 3.78 34.88-64.77 1.4-121.31 15.92-169.53 40.22-5.48-6.85-9.77-14.13-11.66-21.36a59.66 59.66 0 0 1-.67-28.07c1.83-8.82 4.65-9.83 19.04-6.77 15.65 3.33 16.99 2.64 18.1-9.37 1.03-11.27-1.1-13.66-16.32-18.2-13.51-4.03-18.61-3.46-22.34 2.47-2.65 4.22-8.64 10.5-13.3 13.96-9.88 7.32-7.7 27.9 1.46 60.86 1.69 6.08 4.78 10.8 7.78 15.58-93.15 53.9-151.32 146.22-172.48 249.6-11.14-2.67-21.38-7.4-26.13-20.31-10.95-29.76-34.81-78.83-27.79-95.49 8.4-19.9 29.1-43.04 52.58-49.44 16.52-4.5 26.57-13.99 33.46-33.87 5.24-15.16-.52-21.16-10.13-34.27-6.54-8.92-14.95-17.89-18.66-19.94-9.02-4.98-19.88 3.83-20.5 16.64-.6 12.5 8.74 18.7 17.83 11.82 7.8-5.9 20.46 5.92 17.7 14.68-10.15 32.27-46.06 30.19-64.45 26.52-27.7-5.53-32.86-25.45-30.23-42.62 3.03-19.71 12.28-43.98 35.5-48.27 13.17-2.44 20.82-4.27 28.38-6.92 12.46-4.36 18.68-9.12-2.17-23.86-8.4-5.94-25.6-11.86-44.31 7.35a945.87 945.87 0 0 0-30.81 33.23c-14.86 17.2-20.42 14.92-19.09-7.79.74-12.64 5.22-28.1 22.5-55.85C63.52 67.37 75.7 53.64 93.04 49c12.76-3.42 18.84.08 19.48 8.22.55 7.06 6.47 11.8 13.6 12.35 6.58.51 16.16-.87 21.78-9.5 3.84-5.9-7.2-17.5-20.77-24.65-14.09-7.42-28.8-9.46-39.02-7.04-9.7 2.29-19.31 6.13-30.85 17.66C29.78 78.19 1.53 123.7-.34 155.99c-2.83 48.75-5.84 108.8 23.7 164.3 17.69 33.24 44.02 38.2 64.31 92.05 11.53 30.6 13.55 34.15-15.38 119.32a113.42 113.42 0 0 0-4.62 18.13c-1.43 9.04-1.05 15.48-1.86 23.35-.15 1.52-1.96 2.13-4.29 2.13-9.75 0-37.4-24.16-42.25-36.93-7.68-20.2-5.6-48.23 8.29-65 16.59-20.02 24.95-19.12 21.47 2.33-2.65 16.32-2.31 16.8 10.88 15.3 12.22-1.4 13.77-3.5 15.02-20.42 1.22-16.66-.27-19.83-12.82-27.24-6.45-3.82-10.32-5.74-14.03-5.92-3.72-.17-7.5 1.07-13.24 4.7-44.83 28.3-50.9 78.02-21.64 120.67 13.48 19.64 44.56 36.03 64.6 59.52 14.57 17.1 30.67 41.95 72.78 42.96 2.99.07 5.58-.47 8.46-.58C214.1 784.8 331.29 862.13 462.92 872.98c-7.03 14.3-18.31 36.37-21.34 38.5-2.35 1.66-12.6-10.67-26.29-12.54-11.27-1.55-25.51-2.75-40.12 4.33-20.66 10-22.22 9.72-29.65-5.38-9.65-19.66-38-20.16-73.85-1.32-15.14 7.95-19.03 19.14-24.87 26.46-6.57-3.94-12.8-35.73-6-35.73 7.78 0 28.17-19.04 28.17-26.3 0-3.22-2.73-6.77-6.06-7.88-6.97-2.34-27.86 5.8-27.86 10.84 0 5.97-26.27 14.04-38.23 11.74-25-4.8-40.28-30.74-18.1-30.74 15.51 0 25.93-12.34 19.2-22.76-7.42-11.51-22.71-11.97-32.95-.98-9.42 10.1-23.74 9.46-31.74 9.48-7.15.02-18.35.55-21.78-11.85-2.78-10 19.08-29 34.62-30.17 12.97-.97 29.8-13.82 29.8-22.74 0-9.04-7.31-11.12-12.18-3.47-1.93 3.02-15.06 3.61-35.43 1.6-27.94-2.77-34.76-5.41-49.95-19.36-20.76-19.06-27.81-48.18-15.95-65.85 8.79-13.1 21.16-13.49 37.27-1.19 22.75 17.38 31.63 9.59 10.77-9.44-10.07-9.19-17.74-11.2-44.83-11.76C14.6 655.4 3.42 662.8-1.3 709.25c-2.6 25.57 5.09 56.57 30.04 69.65 10.44 5.47 26.91 12.33 38.96 12.87 9.95.45 25.51 3.41 34.51 1.82 1.05.86-2.18 4.4-4.84 9.45-13.83 26.31 1.66 16.69-17.3 22.24C16.7 843.82-27.28 923.8 9.2 974.47c4.83 6.7 13.56 13.9 17 18.03 7.43 8.93 12.63 9.36 24.66 2.06 10.7-6.49 7.51-17.06-7.5-40.89-25.6-40.64 8.05-69.43 41.18-80.06 32.17-10.33 34.34-9.36 59.89-3.25 20 4.79 36.45 21.5 55.42 21.64 15.84.1 16.76.83 14.39 12.89-1.4 7.09 2.57 21.44 4.36 26.44 5.26 14.69-1.29 18.66-25.93 31.7-20.12 10.64-25.72 11.64-44.02 7.88-27.1-5.57-44.47-20.19-44.47-37.46 0-12.9.61-13.23 19.4-10.31 21.61 3.35 22.8 1.83 11.55-14.83-9.9-14.65-21.22-14.7-37.37-.19-11.22 10.1-12.48 14.3-10.85 36.43 1.56 21.23 13.89 32.01 28.55 40.14 30.57 16.95 78.08 23.45 112.98-3.9 15.52-12.15 22.82-11.47 41.26-2.98 26.25 12.08 47.43 21.1 79.46 21.1 19.6 0 40.7.75 70.03-20.22 23.35-16.69 20.59-15.59 25.1-23.4 1.56 3.95 12.36 12.53 3.83 23.93-12.88 17.21 58.07 34.87 49.7 3.47l-8.8-33.02c-3.16-11.87-16.99-20.06-21-23.02-6.42-4.74-6.16-7.6 2.1-24.1 5.32-10.6 14.73-20.42 24.94-28.08 2.51 0 4.83-.32 7.32-.36 12.24 10.7 39 39.77 41.36 46.52-8.36 2.64-17.18 5.94-21.67 9.75-9.7 8.23-10.9 11.6-10.79 22.6.1 10.56 2.08 21.1 8.35 31.66 11.48 19.29 23.37 14.11 24.28-8 .42-10.37 14.2-29.22 16.12-26.9 33.26 51.32 120.6 57.16 160.35 28.68 8.86-6.35 13-4.5 24.13 3.03 47.11 31.82 119.24-6.28 126.56-43.7 3.08-15.77.87-29.6-7.14-41.83-6.1-9.31-11.11-11.93-19.31-10.19-20 4.24-32.88 12.43-32.88 20.9 0 11.88 7.05 14.57 21.47 8.2 16.56-7.33 18.93-3.9 9.7 14.05-8.58 16.72-23.17 22.1-47.74 17.62-12.88-2.34-28.84-6.65-32.96-18.14 3.7-10.13 6.01-23.25 20.35-48.63 9.01-15.94 24.17-26.52 32.03-30.98 12.6-7.15 17.36-3.9 48.05-1.98 74.98 4.69 88.8 39.85 85.16 78.2-1.55 16.36-8.22 33.05-12.31 37.44-9.4 10.1-9.41 18.48-.04 28.54 9.6 10.3 28.25 5.62 36.97-6.58 62.6-87.65 5.06-176.63-70.63-181.78-20.25-1.38-20.69-6.03-13.3-24.9 4.19-10.7 5.27-10.07 12.1-7.47 16.54 6.28 18.48 5.68 34.75 8.43 11.98 2.02 35.13-2.99 45.13-10.62 11.4-8.7 22.28-22.9 22.28-38.27 0-25.84-2.27-32.15-17.95-52.88-9.88-13.08-13.72-17.1-17.29-21.72-7.32-9.48-20.05-22.46-17.83-1.4.61 5.75 12.88 15.7 8.72 32.02-9.5 37.18-41.2 48.96-91.4 34.35-7.46-2.17-14.9 1.38-27.95 13.34-19.9 18.21-14.99 25.61 10.72 16.19 29.22-10.71 40.09 16.96 14.05 35.76-10.52 7.6-21.01 9.72-49.38 9.98-19.8.18-33.51.46-39.05 3.28-19.11 9.75 8.86 10.58 16.22 16.78 11.05 9.3 19.96 11.8 4.42 18.7-14.02 6.2-36.77 28.8-43.17 49.06-7.47 23.62-7.63 33.51-18.3 18.5-8-11.27-17.9-17.93-35.06-23.18-9.93-3.04-32.29-3.55-41.33 8.17-11 14.25-5.87 23.49-32.26 20.84-19.95-2-28.92-.67-39.03 5.76-13.1 8.34-13.05 5.35-32.49-12-10.69-9.55-16.4-18.86-20.8-28.7 137.53-11.55 235.24-84.4 289.75-183.29 5.68.97 10.2 2.86 16.53 3.3 42.01 2.94 61.2-21.02 75-37.64 6.9-8.3 11.65-12.69 14.01-17.94 11.75-26.2 22.78-20.15 43.16-40.54 42.5-42.49 33.49-114.97 15.53-141.41-20.45-30.1-36.89-22.21-44.34-20.9-17.08 2.98-26.15 17.7-21.7 35.19 2.83 11.08 3.39 11.54 10.03 8.2 8.46-4.24 13.97-14.69 11.34-21.5-2.38-6.15 13.48-14.36 19.2-7.25 21.86 27.19 16.74 90.68 7.59 106.88-2.85 5.04-26.54 27.18-36.25 33.02-.28-1.43-2.16-17.52-6.82-31.25-42.32-124.55-9.67-141.3 18.1-201.21 27.79-59.91 41.85-90.24 50.98-119.42 16.84-53.82 5.51-114.24-4.73-135.25-13.32-27.38-39.8-52.25-62.33-63.82-9.76-5.02-19.2-7.59-27.85-7.8-14.42-.37-26.66 5.78-34.6 17.88-6.61 10.06-6.38 13.56 1.38 20.4 13.6 12.01 20.1 11.31 40.13 1.58 15.67-7.6 38.03.75 45.77 17.2 12.3 26.15 13.7 43 15.04 70.86l-11.57-15.05c-30.19-39.23-60.71-35.38-71.68-31.93-9.73 3.05-12.34 6.47-10.96 12.97 1.98 9.29 29.6 7.7 46.86 27.22 12.9 14.57 18.5 23.15 18.75 23.57 18.37 32.05-9.58 37.12-38.74 54.82-7.78 4.73-27.94 8.7-40.74 4.52-11.34-3.7-30.77-22.22-25.55-31.06 1.88-3.2 7.74-4.15 13.56-5.54 15.82-3.78 14.79-16.9-1.8-22.96-14.02-5.13-20.77-.07-27.1 20.32-7.87 25.36 17.33 55.82 46.93 55.58 28.75-.24 54.94 21.69 59.45 34.97 17.07 50.29-40.34 91.07-35.9 114.08.33 1.73 1.22 4.02.74 7.01-3.73 23.07-5.02 37.42-4.79 50.64-6.6-1.29-10.45-4.66-13.66-8.91-12.6-132.24-90.16-234.18-195.28-287.22.89-1.19 1.54-1.4 2.45-2.65 20.17-27.8 25.29-61.09-.47-74.47-24.13-12.54-61.38 2.69-41.36 16.9 5 3.55 13.88 5.29 19.75 3.86 13.03-3.18 18.49 7.4 12.9 20.47-2.22 5.18-6.52 16.78-11.72 27.64a382.31 382.31 0 0 0-148.66-32.13c1-18.08 2.77-35.28 5.74-45 3.82-12.53 20.22-44.68 41.78-44.68 19.21 0 24.06 9.3 16.47 31.62-6.8 20.03-3.95 23.1 12.05 12.92 12.08-7.68 12.54-7.62 12.54 1.7 0 18.9 9.1 14.7 21.05-9.72 18.59-37.96 28.38-45.93 56.39-45.93 27.98 0 34.26 6.26 18.64 18.55-20.97 16.5-13.83 27.6 13.03 20.42 30.22-8.07 51.52-19.06 46.3-26.17C731.24 3.4 719.8-.17 691.65 0Zm96.9 61.36c-33.36 0-61.16 27.8-61.16 61.17 0 33.37 27.8 61.2 61.17 61.2 33.37 0 61.19-27.83 61.19-61.2 0-33.37-27.82-61.17-61.2-61.17Zm-578.4 2.23C176.8 63.6 149 91.4 149 124.77c0 33.37 27.8 61.18 61.17 61.18 33.37 0 61.17-27.81 61.17-61.18 0-33.37-27.8-61.17-61.17-61.17Zm276.98 103.45c2.16 0 4.13.3 6.26.35-.05 2.61-.47 6.94-.37 9.07 1.05 21.19 1.73 43.66-.15 42.64-28.94-15.67-41.4-39.24-92.13-25.64-9.88 2.65-20.76.9-31.57-2.62 33.4-15.37 72.62-23.8 117.96-23.8Zm23.15 1.33c32.37 2.57 61.69 10.5 87.99 23.03-25.14 3.45-45.9 6.42-52.16 8.83-8 3.08-18.13 8.77-22.54 12.64-10.78 9.47-9.69 2.4-13.02-30.7-.4-3.95-.02-9.39-.27-13.8Zm-162.2 33.56c2.82 1.19 6.58 3.62 8.87 4.52 34.71 13.57 67.83-7.37 102.26 13.6 7.94 4.83 25.4 19.92 27.86 30.51 4.52 19.52 8.44 72.05 4.23 72.05-1.88 0-9.82-10.1-17.63-22.43-12.77-20.14-17.26-23.3-44.37-31.18-24.39-7.1-35.92-8-60.12-4.65-29.94 4.14-29.94 4.14-29.31 22.66.43 12.56-6.58 19.93-10.67 26.5-2.85 4.58-7.63 13.81-9.44 22.45-3.02 14.47-2.54 15.32 6.08 10.84 5.15-2.68 19.7-14.76 32.34-26.86 22.98-22 22.99-22 52.6-18.74 39.12 4.3 52.07 11.56 66.37 37.27 14.39 25.86 9.07 34.5-8.74 14.17-16.9-19.3-41.97-34.87-67.35-32.3-69.66 7.07-23.78 12.84 11.76 18.1 23.43 3.47 66 34.95 69.44 46.92 2.81 9.77-6.53-3.68-19.6-12.76-12.6-8.76-41.77-19.62-64.48-19.68-20.5-.05-25.17 1.57-38.85 13.55-15.22 13.33-15.9 13.5-32.37 8.2-9.24-2.97-19.08-5.49-21.87-5.58-7.37-.25-20.4 24.57-23.9 43.85-3.48 19.27 6.35 31.95 26.77 31.22 9.78-.35 17.79-1.34 17.79-2.18 0-.85-4.15-6.79-9.22-13.2-17.4-22.05 4.84-40.55 31.61-26.29 6.8 3.63 13.3 6.6 14.44 6.6 1.15 0 3.36-7.12 4.9-15.8 1.97-11.14 6.61-18.24 15.73-24.1 23.88-15.33 39.25-5.59 16.01 10.15-12.77 8.65-13.47 12.55-4.23 23.58 6.52 7.78 6.8 7.74 17.06-2.23 5.74-5.58 12.65-13.86 15.35-18.42 3.7-6.23 7.96-7.8 17.29-6.34 13.25 2.06 28.98 30.82 34.36 40.14 3.76 6.52 3.6 14.4 5.62 18.73 1.13 2.41 2.25 5.05.27 4.52-5.3-1.43-38.33-4.57-54.83-1.15-8.77 1.83-10.9 5.45-10.9 18.63 0 14.91 1.25 16.39 13.94 16.39 7.67 0 21.41-3.03 30.54-6.73 26.6-10.8 26.77 2.16 19.53 16.64-8.45 16.9-9.8 30.2-5.5 35.23 14.82 17.34-17.78 30.3-46.7 18.56-13.38-5.42-16.66-9.36-16.66-19.98 0-8.13 3.74-15.5 9.7-19.1 13.36-8.1 12.64-16.3-1.21-12.41-28.2 7.93-96.82.48-107.16.44-23.17-.11-46.72 18.42-46.72 25.62 0 6.89 11.25 27.6 14.99 27.6 3.97 0 10.09-15.1 8.84-21.85-4.7-25.46 13.34-24.13 39.03 2.88 20.31 21.37 23.4 22.11 47.02 11.23 16.2-7.46 17.23-7.38 27.25 2.35 10.16 9.87 10.18 10.1.73 10.1-5.33 0-22.71 6.3-38.64 13.98-15.92 7.68-42.4 10.67-62.46 16.8-21.27 6.5-38.17 17.32-54.56 28.22-9.26-34.58-14.2-72.15-16.51-111.06 10.64.43 18.4-1.88 27.97-8.96 14.87-11 9.2-13.28 10.74-26.45.65-5.58 13.94-35.04-16.55 1.58-7.06 8.49-13.57 14-23.32 13.78-.18-6.35-1.09-12.35-1.09-18.77 0-116.42 39.24-205.07 115.67-250.96Zm272.33 1.53c71.66 44.23 116.48 126.03 135.6 225.18-2.94.96-5.26 2.2-8.57 2.95-15.94 3.61-29.9 3.26-32.58 1.65-8.27-4.96 3.49-14.85 5.13-27.48 4.76-36.57-30.6-45.14-55.26-42.25-24.82 2.9-29.06-26.61-73.74-19.96-12.47 1.86-38.62 10.62-59.94 32.28l-22.25 22.63 1.1-23.89c.66-14.38 6.45-34.97 14.56-51.75 13.06-27.03 14.13-27.94 35.28-30.35 28.88-3.29 41.1-1.7 52.6 2.3 9.33 3.24 23.4 10.57 35.15 18.83l-40.96-1.35c-35.35-1.16-56.88 11.05-80.34 35.66-16.87 17.7-9.86 19.6 11.5 3.12 10.02-7.73 26.18-15.26 35.9-16.74 9.7-1.47 25.28-4.63 34.61-7 9.33-2.38 29.92-1.11 36.23-.56 6.73.58 13.76-2.56 16.97-7.58 4.63-7.23 2.7-10.9-12.29-23.53-9.77-8.23-26.34-21.94-27.32-27.11-1.6-8.47-5.31-9.35-37.15-8.75-31.63.6-35.9 3.22-49.48 13.77-11.6 9.02-25.36 42-25.4 34.16-.06-14.27 1.78-26.62 3.12-39.01 2.36-21.8 13.23-44.56 29.51-49.39 35.94-10.66 58.8-11.23 78.02-15.83Zm333.94 18.92c13.26-.18 12.67 10.33 6.4 33.73-7.43 27.72-15.55 33.17-19.77 21.87-1.75-4.69-4.89-14.85-11.87-21.84-5.92-5.91-20.05-8.2-15.75-13.64 4.92-6.22 8.83-12.28 22.8-16.48 7.8-2.34 13.77-3.58 18.19-3.64ZM43.39 249.85c3.62.33 6.04 2.1 8.77 4.35 8.79 7.23 15.19 9.2 22.06 6.83 16.16-5.6 21.1 2.44 6.88 13.02-6.24 4.63-14.19 16.82-18.11 28.6-6.07 18.16-21.08-4.16-27.41-34.83-2.13-10.28-2.4-16.8 3.73-17.78a16.3 16.3 0 0 1 4.08-.2Zm561 104.86c4.7.3 10.3 1.74 15.12 5.11 20.88 14.6 17.15 26.43 37.4 21.8 25.48-5.8 56.96 3.16 38.67 31.9-11.15 17.52-5.23 30.2 12.28 34.29 5.58 1.3 12.94 1.41 29.52 1a77.01 77.01 0 0 0 21.82-3.36c4.88 30.63 8.24 62.19 8.24 95.32 0 34.91-4.39 66.63-11.23 96.3-11.06-6.5-23.18-13.3-32.12-18.4 16.77-1.95 34.27-8.31 23.52-10.33-12.34-2.33-26.5-6.86-29.85-27.24-1.9-11.53-21.71-23.5-29.36-26.89-13-5.75-45.28-10.48-55.96-9.57-30.83 2.64-43.43-10.22-24.56-25.06 10.7-8.41 11.18-8.39 19.12 1.13 6.72 8.07 11.3 9.2 26.18 6.5 9.92-1.8 18.03-5.16 18.03-7.46 0-8.45 19.72-23.02 31.17-23.02 13.9 0 21.7 16.16 12.15 26.23-13.91 14.67-2.91 13.54 8.36 7.73 14.57-7.5 13.77-24.5 10.49-34.95-5.52-17.57-36.8-39.35-52-37.59-12.11 1.41-29.85 7.06-39.24 17.4-8.86 9.78-22.49 8.75-30.85-2.85-7.03-9.74-7.36-9.76-19.5-1.17-13.07 9.25-16.63 23.14-6.75 26.34 4.4 1.42 4.7 6.64 1.2 20.38-4.15 16.36-7.67 19.54-22.76 18-49.11-4.96-32.81-18.5-32.81-30.48 0-8.44-3.45-19.04-7.66-23.56-6.02-6.46-6.5-10.32-2.24-18.03 6.2-11.24 16-12.61 25.35-3.54 9.73 9.45 31.76 13.63 36.09 6.84 5.36-8.43 2.41-33.3-4.45-37.54-8.14-5.02-37.4-4.74-37.4.37 0 2.28-4.22 5.22-9.38 6.53-21.32 5.42-13.75-24.13 11.43-44.57 13.31-10.81 20.17-10.5 28.68 1.3 4.95 6.86 11.17 9.32 20.87 8.24 11.45-1.27 13.6-3.51 12.5-13.05-.73-6.33-4.51-14.95-8.41-19.13-5.47-5.87-5.72-8.82-1.34-13.19 1.19-1.19 4.98-2.03 9.68-1.73Zm-483.7 84.12c2.51.35 6.85 1.17 10.33 1.7a446.2 446.2 0 0 0-5.39 68c0 45.88 7.99 88.34 21.81 127.2-66.7-11.68-50.27-102.03-43.28-131.79 1.33-5.64 6.91-16.42 12.28-43.22 2.96-14.84 2.13-14.51 4.25-21.9Zm551.91 29.99c1.56-.08 3.14.07 4.75.46 9.18 2.25-8.3 6.76-15.93 11.26-19.13 11.28-28.87 14.2-17.52 2.84 1.94-1.93 7.85-5.14 14.62-9.23 4.9-2.96 9.41-5.11 14.08-5.33Zm201.33 11.84c4.42 4.06 9.34 8.59 12.4 11.65 1.6 11.8 5.76 17.21 8.4 37.45 4.1 31.3 28.8 129.7-46.02 134.81-4.27.3-8-.9-12.12-1.05 24.87-54.44 37.62-115.24 37.62-177.25 0-1.9-.26-3.71-.28-5.61Zm-510.88 20c7.81 0 14.2 2.48 14.2 5.5 0 3.04-6.39 5.52-14.2 5.52-7.8 0-14.21-2.48-14.21-5.51s6.4-5.52 14.21-5.52Zm159.09 53.39a125.4 125.4 0 0 1 40.88 6.28c31.48 10.38 48.03 20.54 61.6 44.5 7.26 12.83 23.8 35.97 23 48.24-.69 10.7-5.87 38.66-14.39 51.29-4.24 6.28-14.42 15.94-24.85 22.34-23.3 14.29-37.06 4.1-55.85-5.94-22.54-12.03-30.01-18.85-33.44-30.43-2.42-8.21-3.08-16.22-1.46-17.79 1.62-1.57 11.8.58 22.63 4.79 10.83 4.2 24.42 6.3 29.84 7.65 12.02 3 20.57-5.85 28.88-12.24 15.4-11.86 8.72-19.65-10.61-12.57-20.5 7.52-42.48-2.2-19.5-14.1 15.56-8.07 20.97-17.78 21.5-23.72 1.36-15.64-14.07 1.58-30.8 4.04-12.4 1.82-30.03 8.79-41.17 2.63-.55-16.85-1.97-28.07-3.89-46.39-1.53-14.7 5-20.6 7.63-28.58Zm-69.48 3.51c3.78-.55 2.55 2.48-2.16 8.5s-12.68 9.54-17.2 10.96c-4.69 1.48-14.76 8.3-22.29 18.44-7.53 10.15-14.88 13.9-13.47 8.75 7.51-27.5 30.07-43.03 55.12-46.65Zm38.68.47c1.22 19.77-1.62 32.36 4.76 69.69-8.6-2.82-18.14-2.73-22.21-1.23-14.64 5.4-25.6-.84-25.6-10.06 0-8.22-5.76-8.69-13.58-1.1-9.03 8.78-6.94 18.13 6.84 30.54 12.12 10.9 12.25 17.93.33 17.93-12.68 0-8.12 15.78 6.62 22.92 13.46 6.52 16.13 6.58 22.41.48 3.93-3.81 16.15-13.23 24.2-14.6-2.23 8.42-2.67 10.96-5.1 22.8-3.9 18.87-24.3 38.1-40.96 42.56-19.4 5.2-35.66-3.47-45.7-20.94-15.44-26.84-16.68-31.85-13.42-52.35 2.94-18.45 16.92-20.94 27.16-45.87 11.64-28.33 47.07-44.72 74.25-60.77Zm126.3 3.13c16.16-1.62 38.91 19.48 40.68 29.13 4.84 26.52-.19 25.46-8.89 10.1-9.47-16.72-12.6-18.35-22.29-26.1-9.68-7.75-25.4-11.53-9.5-13.13ZM364 589.88c.94 2.74-5.8 18.5-.96 28.1 2.92 5.78 12.78 16.59 4.86 25.08-7.18 7.71-9.6 7.66-45.6-1.05-9.76-2.36-6.44 21.79 1.88 43.32 13.3 34.42 42.56 87.18 78.99 89.05 17.3.88 56.26-14.2 68.15-24.84 16.88-15.1 12.86-2.62-6.07 18.85-24.96 28.32-21.48 38.2 7.59 21.53 17.55-10.07 20.18-7.42 15.88 15.72-1.33 7.2-4.49 14.94-7.17 22.59-111.75-11.8-185.06-90.35-221.58-199.7 22.3-12.56 45.35-25.18 74.37-31.98 13.42-3.14 23.93-3.84 29.66-6.67Zm313.24 31.02c5.95.73 15.49 4.09 34.23 13.64 12.51 6.38 25.72 16.44 39.62 25.86-31.55 103.2-109.26 166.28-231.94 168.91-2.3-11.78-2.74-22.91-.22-31.58 2-6.88.35-12.43 3.53-13.55 3.18-1.11 11.17 2.21 24.53 3.29 16.14 1.3 27.46-4.67 28.2-8.46.77-3.89-2.1-8.08-12.88-3.51-14.53 6.15-34.93-12.73-35.21-26.74-.25-12.14 2.32-10.6 12.46-1.59 21.17 18.8 46.44 21.47 76.94 20.34 40.33-1.5 67.12-20.53 88.33-62.45 17.1-33.77 18.17-41.03 6.43-39.87-18.43 1.82-21.6-.5-38.18-1.12-5.77-.21-12.83-15.28-13.41-30.53-.11-2.79-.96-9.05 4.88-10.42 4.38-1.02 6.74-2.95 12.69-2.22ZM368.3 675.73c3.66-.14 7.39 2.5 7.62 8.07.95 23.62 8.65 33.28 18.42 43.37 11.9 12.31 8.19 10.66-7.64 3.64-15.11-6.7-27.83-33.38-25.66-46.4.91-5.5 3.6-8.53 7.26-8.68Zm295.5 3.9c7.3 1.67.9 21.21-3.31 28.42-6.8 11.67-40.44 33.8-43.53 29.96-2.65-3.3 24.27-21.83 31.66-30.57 9.26-10.96 10.54-28.86 15.18-27.8ZM39.13 698.28c3.96.22.7 22.02 9.61 35.14 8.86 13.04 28.37 22.43 22.94 27.77-4.3 4.23-24.56-4.55-34.1-24.04-6.8-13.9-4.04-34.1-.65-37.56.91-.94 1.63-1.35 2.2-1.31Zm930.51 10.02c2.33-1 2.04 4.38 2.04 11.88 0 8.86-4.34 14.57-19.2 21.18-8.58 3.82-42.8 14.85-43.8 5.77-.23-2.04 9.86-6.28 21.92-9.41 15.42-4 22.07-8.12 29.57-15.22 3.93-3.73 5.76-12.6 9.47-14.2ZM864.3 821.45c19.22 0 69.98 8.58 73.73 22.56 3.6 13.43-31.75-3.65-51.1-8.41-11.25-2.78-36.06-4-43.68-7.6-7.62-3.61 1.85-6.55 21.05-6.55ZM84.05 849c3.2-.1 4.37 2.12 2.51 6.8-1.53 3.89-14.11 1.83-32.73 18.62-21.3 19.22-29.82 36-29.43 20.96.42-16.35 9.05-24.16 21.68-32.54 9.96-6.6 33.85-13.72 37.97-13.84Zm592.76 52.74c5.66-.12 14.57 8.39 22.07 23.22 13.88 27.44 11.8 26.64-2.98 38.98-21.57 18.01-90.35 5.57-107.72-22.05 9-4.68 25.23-11.75 48.96-9.02 27.5 3.17 33.85-.8 34-21.2.04-6.73 2.27-9.87 5.67-9.93Zm-357.87 9.2c8.54 1.13 15.51 5.14 15.68 15.02.33 19.1 5.38 20.81 27.83 9.4 11.27-5.74 31.26-10.91 44.65-11.57 23.82-1.17 23.94-1.07 22.15 12.31-1.37 10.29-8.22 19.33-19.73 25.36-40.23 21.06-75.34 20.38-112.93 4.26-15.39-6.6-27.34-12.06-33.16-14.68 13.6-7.39 13.86-17.48 22.44-27.79 5.63-6.75 24.96-13.37 33.07-12.3Z"/></svg>
