<svg viewBox="0 0 1000 1000"><path d="M958.42 73.99c-25.78 0-72.8 33.37-72.8 84.43 0 28.3 17.7 49.04 41.96 49.04 14.66 0 27.8-9.6 27.8-23.26 0-11.12-9.1-19.72-23.75-21.23-11.13-1.01-19.72-14.16-19.72-22.25 0-35.39 26.8-50.55 48.53-55.1 4.55-1.01 7.08-3.54 7.08-6.07 0-3.03-3.03-5.56-9.1-5.56zm-88.98 0c-25.78 0-72.8 33.37-72.8 84.43 0 28.3 17.7 49.04 41.96 49.04 14.67 0 27.81-9.6 27.81-23.26 0-11.12-9.1-19.72-23.76-21.23-11.12-1.01-19.72-14.16-19.72-22.25 0-35.39 26.8-50.55 48.54-55.1 4.55-1.01 7.07-3.54 7.07-6.07 0-3.03-3.03-5.56-9.1-5.56z"/></svg>
