<?xml version="1.0" encoding="UTF-8"?>
<svg version="1.0" xmlns="http://www.w3.org/2000/svg" xmlns:xlink="http://www.w3.org/1999/xlink" x="0px" y="0px" viewBox="0 0 1000 1000">
<path d="M 903.23242 0 C 898.7423 -0.026055008 893.05344 0.61080031 885.20312 1.6484375 C 869.00089 3.7899647 853.45919 9.5664746 846.59375 16.001953 C 840.27379 21.925997 827.92085 27.610727 819.14258 28.632812 C 802.28555 30.595505 799.07978 26.431931 809.45703 16.054688 C 814.18165 11.330279 814.24884 8.2957213 809.72656 3.7734375 C 805.20428 -0.74877511 800.42348 -0.07373897 790.37891 6.5078125 C 773.84003 17.344215 773.78545 20.586698 789.88867 35.714844 C 800.74046 45.90955 806.13716 47.245686 824.57812 44.296875 C 836.68475 42.360961 854.12318 43.347466 863.71094 46.511719 C 890.50784 55.355445 909.36587 102.90638 884.60352 120.61328 C 882.11137 122.39535 879.58774 124.06408 877.0332 125.63086 C 868.19221 118.25307 858.39969 110.99187 846.79688 105.72852 C 832.2984 99.151589 802.93112 81.873817 789.66211 73.371094 C 783.37498 69.342297 758.81948 60.781639 735.09375 54.347656 C 711.36801 47.913816 691.95508 41.043126 691.95508 39.080078 C 691.95508 34.278325 720.77239 16.388672 731.55859 16.388672 C 738.15225 16.388672 738.75367 14.93922 734.0918 10.277344 C 726.04268 2.2282238 644.89972 2.8934834 636.86719 11.074219 C 632.40552 15.618082 633.36095 20.191494 642.68555 26.748047 C 664.60343 42.159366 653.26266 48.352645 633.13086 47.822266 C 623.78431 47.576057 607.91098 49.043576 592.87891 51.332031 C 580.94122 53.149363 577.15371 56.273415 569.67969 58.277344 C 562.20568 54.08887 552.95003 49.697257 546.97656 44.289062 C 505.06448 6.3428155 440.06389 -7.5357903 353.81836 38.566406 C 340.19439 45.849052 326.69403 54.748047 321.60156 54.748047 C 309.63553 54.748047 299.79297 40.282528 299.79297 28.142578 C 299.79297 9.5459259 282.86038 -8.5955533 263.15625 13.353516 C 239.86332 39.300402 224.17147 40.917844 198.44922 20.021484 C 176.86166 2.4840941 164.77372 -2.5592545 154.11914 1.5292969 C 143.24464 5.7021733 144.3112 13.72838 157.625 27.900391 C 163.86733 34.545044 182.25611 50.1462 166.62109 57.130859 C 160.73722 61.242486 111.19743 4.2540049 75.548828 4.3847656 C 31.251927 4.5480028 0.3885574 21.060951 5.1757812 86.080078 C 7.4217889 116.58536 13.759514 125.66287 34.945312 130.85156 C 45.840258 133.5199 51.589353 131.13925 62.396484 119.48438 C 76.509739 104.26378 79.483522 89.374372 71.066406 76.066406 C 67.298703 70.109458 62.968274 69.573794 51.537109 73.654297 C 40.221108 77.693707 36.89969 82.168251 37.0625 93.144531 C 37.405711 116.25286 26.543919 105.87711 24.755859 81.388672 C 20.95105 29.279815 70.119047 18.541131 116.2832 61.929688 C 136.66343 81.084922 166.25041 94.202031 200.5293 87.701172 C 215.88236 84.789467 228.07916 73.712534 229.66602 71.21875 C 231.25288 68.724967 240.22764 46.665583 257.26172 47.882812 L 283.85352 49.783203 L 297.50977 62.439453 C 305.02139 69.401037 313.75754 75.96085 316.92188 77.015625 C 320.64769 78.257567 317.93888 83.605971 316.20117 93.416016 C 315.40565 97.90701 314.71873 103.5339 314.35938 109.88867 C 245.92115 110.74388 170.65435 112.37929 110.57227 112.66406 C 99.262894 112.66406 103.86987 124.19336 111.98438 124.19336 C 141.27114 124.19336 227.57169 127.61216 227.20312 224.38086 L 227.20312 367.52344 C 202.15235 367.71911 179.19841 367.86914 165.50977 367.86914 C 142.33336 367.86914 140.49817 363.30253 129.92578 359.70312 C 123.66486 357.57156 118.55539 337.17797 129.52148 333.06836 C 156.32344 323.02413 158.30361 317.28636 164.9707 272.19336 C 170.25255 236.46997 175.36584 224.76057 181.19922 218.43164 C 181.19922 218.43164 198.058 213.47266 201.69922 209.39258 C 208.03527 202.29283 202.25355 196.93032 197.57031 196.15039 C 184.18528 193.92105 154.77228 206.94785 151.9043 233.88477 C 151.08313 241.59752 137.57768 231.90135 129.0625 217.48633 C 120.56583 203.10258 120.63756 202.45634 131.03125 199.73828 C 139.28748 197.57923 141.42007 193.46733 140.125 182.21094 C 138.66847 169.55158 135.56341 167.04196 117.8125 164.17969 C 103.92338 161.94009 93.303722 155.98001 85.285156 145.92383 C 68.386257 124.73055 58.766801 134.97826 70.099609 162.10156 C 80.400078 186.75416 80.612512 185.13934 66.216797 184.56445 C 30.567908 183.14097 3.9200646 223.48406 10.738281 263.75195 C 19.578375 315.96093 60.460799 341.38889 92.824219 318.7207 C 114.9492 303.22378 102.47293 261.30658 76.876953 265.14258 C 59.804134 267.70125 53.146405 283.05673 64.330078 294.08203 C 73.305206 302.93015 74.038506 302.88996 81.236328 293.17969 C 88.628795 283.20752 88.759766 283.22018 88.759766 293.84766 C 88.759766 323.81173 57.042018 318.91098 43.658203 286.87891 C 37.401844 271.90532 37.187645 265.21838 42.457031 249.39062 C 45.984366 238.79544 53.399013 226.00929 58.935547 220.97656 C 72.874953 208.30552 104.8754 209.15964 122.04102 222.66211 C 138.79092 235.8376 139.47808 241.93311 124.46289 244.14258 C 108.24357 246.52917 106.57502 257.90844 121.88086 261.75 C 129.05909 263.55159 136.18368 270.04619 137.86719 276.32227 C 144.4392 300.8225 141.22293 310.03653 122.17773 321.27344 C 107.52897 329.91643 97.996557 339.82618 102.64062 352.52344 C 104.65994 358.04421 116.62132 364.18141 67.916016 359.76367 C 47.227549 357.88714 31.196188 355.40676 27.785156 352.57617 C 21.887677 347.68213 0 354.91362 0 361.75586 C -1.7763568e-15 370.18081 11.766484 384.5652 16.34375 381.73633 C 19.292846 379.9136 31.125018 378.39351 47.109375 380.39062 C 70.829341 383.35424 80.047038 387.63733 97.257812 403.69141 C 121.12841 425.95768 128.05395 435.39995 112.55859 459.04883 C 106.06243 468.9632 98.774314 473.26562 88.480469 473.26562 C 75.677172 473.26562 73.849405 471.38855 74.703125 459.11523 C 75.451509 448.35707 72.238123 443.27315 61.306641 437.91406 C 53.398111 434.03693 46.927734 427.38966 46.927734 423.14258 C 46.927734 413.51119 63.843999 406.36597 66.658203 414.80859 C 69.931423 424.62823 78.300781 421.95374 78.300781 411.08789 C 78.300781 398.35188 54.52801 391.74787 42.505859 401.14453 C 18.042281 420.26557 19.575447 442.61814 47.148438 468.84766 C 69.418781 490.03292 89.424712 494.56178 110.62305 483.2168 C 118.94316 478.76396 120.83981 478.98446 119.09961 484.20508 C 114.7625 497.21632 89.505213 511.19248 67.03125 513.01562 C 50.622418 514.3467 41.056967 518.58898 32.585938 528.29688 C 13.861943 549.75481 12.36772 565.79096 26.554688 593.00586 C 41.862737 622.37111 49.24852 628.55386 74.164062 632.85742 C 120.54908 640.86958 158.74455 584.03757 123.54492 559.38281 C 110.25975 550.07752 93.093424 549.45544 84.576172 557.97266 C 75.907577 566.64132 76.71392 585.70304 86.078125 593.47461 C 97.460717 602.92136 109.67383 595.93591 109.67383 579.98047 C 109.67383 568.04652 110.80723 567.04606 117.76953 572.82422 C 138.36968 589.92082 109.34428 622.48375 78.927734 616.40039 C 65.541213 613.72314 59.712971 608.77675 54.09375 595.32812 C 41.534383 565.26928 56.842777 539.13773 89.890625 534.22461 C 96.508214 533.24082 109.67912 522.21553 119.43945 509.48828 C 136.28572 487.52107 136.94019 484.99846 134.5293 451.30273 C 133.09478 431.25284 127.09766 414.37732 122.16016 406.8418 C 111.50309 390.57703 121.05055 387.49365 140.37109 404.41797 C 178.79971 438.0806 196.10879 476.68312 192.37891 507.91992 C 184.61274 572.95963 171.59609 602.93928 107.06055 651.20508 C 70.348623 678.6617 65.024423 681.2056 63.556641 671.98633 C 61.504139 659.09401 35.990096 647.50832 22.902344 651.66211 C 10.29006 655.66519 -2.0024923 684.23391 5.6113281 691.84766 C 9.45773 695.69413 12.88301 694.03539 17.007812 686.32812 C 20.251262 680.26763 26.351835 675.30859 30.564453 675.30859 C 39.886923 675.30859 48.784723 679.58995 40.523438 692.81836 C 35.241944 701.27544 35.630025 704.24422 42.736328 709.74023 C 50.64258 715.855 50.26351 718.56794 38.15625 742.55078 C 30.897179 756.93004 19.375139 777.40915 15.308594 786.66211 C -0.50341035 822.64018 1.2767885 848.59299 11.876953 882.06445 C 17.234652 898.98223 29.522975 920.22229 41.138672 930.29492 C 43.334113 932.19872 51.446708 938.08934 58.542969 944.9082 C 65.505621 951.59864 68.0268 954.09315 67.083984 959.60938 C 60.438405 998.4961 81.592967 1006.6788 113.70312 995.17578 C 120.34508 992.79645 115.7572 982.42776 114.59766 980.67773 C 112.79009 977.94971 103.36936 973.24461 98.777344 984.38477 C 95.572638 992.15933 88.448191 989.31791 86.630859 979.89844 C 85.75556 975.36163 85.953901 972.02823 88.488281 972.11133 C 91.022731 972.1948 90.626314 965.00481 87.607422 956.13281 C 83.243818 943.30914 79.907666 941.16989 70.75 942.45898 C 58.898351 944.12724 39.608772 899.94554 38.943359 884.73242 C 38.563042 876.03641 40.259969 875.36415 46.787109 880.78125 C 53.272014 886.16323 54.736115 885.59512 55.248047 877.5 C 55.588552 872.11516 55.4976 865.66892 55.044922 863.17578 C 54.592317 860.68271 56.837115 850.72124 60.033203 841.03711 C 67.827781 817.41949 62.530053 802.34961 46.433594 802.34961 C 35.508522 802.34961 33.756364 799.95146 34.009766 785.35547 C 34.172077 776.00893 45.098782 760.50453 48.53125 750.49414 C 53.515399 735.95862 57.767018 732.06459 69.648438 731.16016 C 77.831025 730.53734 90.341135 726.21794 97.449219 721.56055 C 107.75816 714.80586 111.93097 714.38537 118.07031 719.48047 C 124.70093 724.98346 123.79321 727.92905 111.51367 740.74609 C 95.537077 757.42214 96.0504 758.0042 119.50977 749.82617 C 140.09469 742.65021 154.28866 718.30699 146.43945 703.64062 C 135.5606 683.31332 105.32843 684.18346 88.193359 705.31641 C 78.498478 717.27333 69.767494 714.25967 74.953125 700.74609 C 78.217799 692.2386 127.0631 667.01041 141.04688 666.60938 C 156.27116 666.173 195.17294 637.50865 205.26758 616.95508 C 218.54442 589.92244 226.09639 538.91253 216.44531 491.67773 C 202.35891 422.73546 169.54686 406.95144 111.51367 377.05664 C 125.65947 376.47556 132.65432 378.54883 205.69336 378.54883 C 212.60698 378.54883 219.8417 378.48776 227.20312 378.41016 L 227.20312 775.62891 C 227.20312 797.94623 224.84298 817.33021 219.32812 833.61328 C 217.58706 832.66104 215.76261 831.71741 213.81836 830.76953 C 211.01597 829.4033 205.75091 825.33984 201.75195 825.33984 C 197.75307 825.33984 187.03902 822.2589 177.94531 818.49219 C 164.54526 812.9417 161.71182 809.059 162.99414 798.01172 C 165.02777 780.49291 185.34216 775.85546 189.55078 791.94922 C 192.70571 804.01367 209.02148 806.7716 209.02148 795.24023 C 209.02148 791.14705 202.92962 780.55908 195.48438 771.71094 C 180.63777 754.06679 161.06722 750.66725 143.51758 762.68555 C 137.84494 766.57027 126.27656 771.43586 117.80859 773.49805 C 105.29495 776.5455 100.71055 774.99212 93.328125 765.20508 C 81.050577 748.92836 75.87982 755.97055 83.392578 778.73438 C 87.645507 791.621 96.150472 801.26915 111.13867 810.20703 C 133.14251 823.32854 133.17469 823.15836 107.29688 831.18555 C 103.11303 832.4834 94.785599 843.15581 88.792969 854.90234 C 73.780271 884.32963 78.59532 906.81127 105.02344 930.6875 C 121.95988 945.98857 129.17123 945.23548 148.69531 944.1582 C 184.45089 942.18526 175.57654 932.6991 175.0332 929.875 C 174.48993 927.05097 162.29931 930.88114 153.11914 932.63672 C 133.57497 936.37358 91.270889 917.02327 96.359375 882.44141 C 112.45441 842.23441 143.58104 834.53202 158.12305 834.24023 C 158.12305 834.24023 195.74852 834.49166 210.62305 843.80273 C 211.82285 844.55378 212.98444 845.35532 214.11719 846.19531 C 198.56944 877.27389 167.64663 894.01342 113.4707 894.64844 C 112.20325 894.66329 110.92777 894.67076 109.63477 894.66797 C 102.69221 894.66797 100.1725 905.49023 109.16016 905.49023 L 255.73633 905.49023 C 256.48865 915.03892 253.6963 926.56167 252.70898 930.50977 C 241.43992 929.83702 234.68606 929.02282 226.87695 931.28906 C 207.34902 936.95628 193.29297 942.71496 193.29297 948.92773 C 193.29297 957.22114 201.80263 956.47771 214.95312 947.03516 C 227.35345 938.13132 235.29572 935.46186 248.58203 938.73828 C 246.66207 952.4302 207.59847 971.56681 185.62305 970.06641 C 151.27336 967.72112 116.95826 950.56411 101.58398 958.51758 C 97.806735 960.47173 96.792319 966.9928 99.341797 969.20312 C 113.42436 981.41265 113.49612 964.1474 130.2832 967.16016 C 146.35558 970.04465 166.22506 983.75271 184.86523 983.42773 C 221.86004 982.78297 249.29705 956.65786 258.09961 941.71289 C 266.75546 941.34703 294.42377 975.9375 329.78906 975.9375 C 374.90108 975.9375 376.64844 976.37758 376.64844 987.70312 C 376.64738 994.17378 379.27312 999.4668 382.48438 999.4668 C 385.69518 999.4668 387.1332 994.91361 385.67773 989.34766 C 384.15504 983.52517 386.09035 978.05512 390.23438 976.46484 C 394.19586 974.94464 396.87584 976.36489 396.19141 979.62109 C 394.36055 988.33106 419.71545 1000.3198 426.2168 993.81836 C 429.72277 990.31239 429.12496 987.13071 424.41016 984.2168 C 420.25872 981.65115 418.68911 975.66502 420.59375 969.66406 C 425.61679 953.83788 404.64122 945.22465 372.00781 949.71289 C 357.31047 951.73427 347.98042 958.80651 345.41406 960.48047 C 331.0108 969.87502 319.95384 967.58211 307.18359 960.77344 C 294.81253 948.06052 285.51542 935.98634 297.01367 933.70508 C 300.12216 933.08838 298.79601 948.6357 307.06641 947.75 C 321.68106 946.18486 318.5781 938.71646 330.18945 935.32031 C 341.80066 931.9241 350.58991 935.17337 366.23633 924.08008 C 371.14057 920.60295 332.46308 913.24989 311.9043 916.38672 C 303.23257 917.70993 294.70274 923.5174 292.05469 926.05078 C 275.31105 942.06911 299.51094 956.31528 293.19141 953.67969 C 285.90713 950.64171 279.87592 939.1647 262.74805 932.47852 C 266.21781 922.58688 268.48454 915.70358 265.9668 905.49023 L 376.75977 905.49023 C 381.49546 907.61545 386.29587 909.28448 388.54297 909.50195 C 391.41885 909.78028 404.85376 914.96074 418.40039 921.01562 C 441.60685 931.38796 495.15555 943.99451 500.93359 940.44531 C 502.38741 939.55227 517.37438 937.35388 534.24023 935.56055 C 551.10608 933.76729 569.56569 929.80722 575.25977 926.75977 C 584.34457 921.89777 585.18787 922.55461 582.15039 932.125 C 579.64635 940.01444 580.95624 943.03125 586.88477 943.03125 C 591.39238 943.03125 595.13387 940.09094 595.19727 936.49609 C 595.26123 932.90131 599.91333 924.07636 605.53711 916.88672 C 611.16096 909.69709 615.81551 900.51319 615.87891 896.47656 C 615.94287 892.43999 625.68806 894.39509 638.65039 880.14844 C 645.54444 872.57136 653.42955 861.59661 660.44922 850.47266 C 695.77515 883.08732 734.55832 904.17715 779.43555 904.14258 C 773.52098 925.54895 770.33111 903.69429 762.39062 926.85547 C 740.84794 909.90692 740.71566 930.98862 746.16602 945.32422 C 751.36255 958.99214 751.64092 958.12381 741.19531 960.85547 C 734.11151 962.70784 733.23837 964.25986 737.10742 968.12891 C 740.97654 971.99803 744.02907 971.16443 751.41406 964.22656 C 756.57726 959.37595 762.95424 955.4082 765.58398 955.4082 C 768.21372 955.4082 770.39228 953.13994 770.42578 950.36719 C 770.46417 947.23919 771.61268 946.85884 773.45117 949.36523 C 778.27336 955.9393 796.03991 963.53451 803.67773 962.16992 C 826.20796 958.14489 835.9787 924.725 815.55859 912.02148 C 808.12631 907.39785 799.2207 915.79833 799.2207 924.46094 C 799.2207 928.50584 802.12264 929.41342 809.30273 927.61133 C 817.12878 925.64715 818.83224 926.66075 819.38477 932.01367 C 820.14519 939.38164 820.10425 946.69681 813.71094 953.58789 C 810.88227 956.63662 802.46563 955.2293 797.35742 953.94727 C 789.48393 951.97111 786.55955 949.00496 788.47852 935.32031 C 790.96497 917.58983 783.83954 920.53719 786.54492 912.42383 C 787.21971 910.40017 788.0846 907.49385 789.28711 904.07812 L 902.18359 904.07812 C 872.28932 897.23194 845.32897 884.39422 820.63086 867.34766 C 831.61185 864.89347 845.1098 865.63128 855.09961 858.625 C 872.5853 846.36148 874.99548 828.85425 875.08008 816.62891 L 875.19531 799.85547 C 904.73305 826.10347 924.9209 900.57864 886.58984 947.5332 C 859.6077 980.58561 688.6561 1015.9764 659.91602 940.82031 C 649.64326 913.95681 658.30558 904.29688 675.125 904.29688 C 686.28667 904.29687 687.592 906.06895 684.75586 917.36914 C 682.02192 928.2621 683.33858 930.44141 692.66211 930.44141 C 716.20638 930.44141 709.98542 897.90838 685.25391 891.70117 C 670.27162 887.94087 636.61188 895.2323 637.58789 922.53516 C 640.95056 1016.6074 813.22082 1006.6349 855.22656 984.08398 C 890.2418 965.28599 911.972 942.81152 915.89062 931.54688 C 918.95966 922.72429 927.29918 917.50558 927.49219 930.6543 C 927.65778 941.9401 929.89519 948.18845 934.88867 951.29688 C 941.47214 955.39504 942.20249 953.73933 943.94141 930.75586 C 944.98158 917.00718 949.38868 898.42259 952.19141 889.22461 C 962.05195 856.86489 949.33846 832.74108 935.89453 819.14453 C 929.95425 813.13687 923.39801 808.22266 921.32422 808.22266 C 914.58954 808.22266 886.69605 797.23267 879.99805 789.16211 C 870.91275 778.21489 876.16455 775.05334 892.87891 781.4082 C 900.65455 784.36449 912.7795 786.7832 919.82227 786.7832 C 935.00305 786.7832 968.92448 766.05095 969.01758 756.7168 C 969.05319 753.12195 972.61203 750.18164 976.92578 750.18164 C 987.25916 750.18164 986.89109 740.27822 976.11523 728.37109 C 963.41876 714.34159 942.96107 715.69468 942.84961 730.57227 C 942.77091 741.08242 941.58667 740.5022 931.74023 725.125 C 925.67823 715.65795 922.23165 706.39928 924.08203 704.54883 C 931.4443 697.18656 971.44366 691.53595 982.7207 694.38477 C 991.37626 696.57131 995.64763 694.40913 998.11328 686.58984 C 1005.6247 662.76953 984.15496 635.50977 957.88281 635.50977 C 945.27117 635.50977 935.37846 647.5871 945.27148 650.90625 C 948.87075 652.1138 954.43678 658.03111 957.64062 664.05664 C 964.60007 677.1451 952.05271 687.43555 937.49219 687.43555 C 926.9963 687.43555 895.96411 703.75712 895.91211 709.30469 C 895.89395 711.26781 900.6483 714.38847 906.47656 716.23828 C 932.31433 724.43889 938.42395 759.52098 916.0957 771.4707 C 907.52653 776.05673 903.23025 774.64424 892.20703 763.62109 C 884.81478 756.22884 876.73367 750.18164 874.25 750.18164 C 871.76633 750.18164 869.73438 747.01643 869.73438 743.14844 C 869.73437 739.28039 865.07278 731.89659 859.375 726.74023 C 850.40842 718.62551 847.77247 718.34126 839.76758 724.62305 C 834.68094 728.61474 828.16691 734.8643 825.29102 738.51172 C 821.22291 743.67128 815.99823 741.90675 801.75977 730.56055 C 791.69426 722.53964 776.99738 712.66982 769.08008 708.66602 C 764.72025 706.46132 762.26624 704.15933 755.09961 699.46484 C 849.08174 720.52344 924.87742 629.24484 964.76562 562.77148 C 979.48597 538.24009 1000.3249 449.95878 999.41016 408.78906 C 995.92612 251.97008 957.76817 195.25772 891.14844 137.81445 C 890.23235 137.02455 889.25059 136.16313 888.32031 135.35156 C 890.64724 133.82162 892.67604 132.3357 894.34961 130.91016 C 900.22523 125.90535 936.22666 102.98725 951.55664 102.96875 C 969.27828 102.94604 985.95703 116.00535 985.95703 129.9043 C 985.95703 140.2631 978.18058 142.89101 972.88477 134.32227 C 968.90897 127.88921 964.67172 127.83417 954.79102 134.08398 C 948.23305 138.23207 948.47822 140.37343 956.52734 149.26758 C 964.24963 157.80065 968.49186 158.72062 980.63281 154.48828 C 988.73634 151.66332 996.58472 144.69173 998.07422 138.99609 C 1003.8641 116.85522 996.57968 95.625382 976.48633 86.162109 C 959.78528 78.296525 950.42492 80.848833 938.82617 86.667969 C 927.20528 92.498216 905.90078 110.63608 906.33594 107.41406 C 907.10939 101.68623 906.59454 96.182219 906.33594 88.580078 C 905.98482 78.253329 900.09421 56.828297 897.11719 51.265625 C 892.90201 43.3895 893.41297 41.152344 899.42383 41.152344 C 903.66914 41.152344 908.59567 43.504977 910.37305 46.380859 C 914.96548 53.8115 921.43886 52.869738 930.91602 43.392578 C 941.89992 32.408678 941.40026 29.439562 925.72656 12.527344 C 917.18871 3.3149051 913.1107 0.057321017 903.23242 0 z M 432.21289 25.607422 C 433.60859 25.529418 434.56607 25.685207 434.99219 26.111328 C 436.4594 27.578611 434.87579 31.563742 431.47266 34.966797 C 421.44283 44.996699 424.34452 59.120645 438.31641 68.275391 C 454.86796 79.120411 467.11523 74.549455 467.11523 57.527344 C 467.11523 41.760138 474.13606 40.679798 488.66211 54.212891 C 497.51922 62.464491 502.38515 63.28727 517.55859 59.097656 C 530.55888 55.508147 537.95682 55.846446 543.29102 60.273438 C 553.86519 69.049219 551.56875 70.388883 538.75 83.015625 C 527.82585 93.776106 525.10397 96.292308 520.0293 100.71289 C 515.03202 105.0709 509.75071 109.9946 504.3418 115.31641 C 490.92557 113.10568 476.68658 111.57029 461.58789 110.78711 C 454.03042 110.3951 445.51717 110.0992 436.27539 109.87891 C 425.42109 61.40342 357.6983 74.585722 376.60938 85.505859 C 387.441 91.76058 407.93785 74.953062 423.79102 105.68945 C 424.62839 107.31296 424.35993 108.52226 423.54102 109.64844 C 398.29801 109.2555 368.54777 109.32566 336.57031 109.64062 C 337.52863 90.665488 343.58143 72.35061 353.87305 60.75 C 364.31826 48.976295 418.72112 26.36146 432.21289 25.607422 z M 680.14648 58.15625 C 719.84774 58.461827 796.23246 84.149574 858.7207 135.01367 C 838.46604 143.59487 816.66628 147.59338 793.91602 151.05078 C 788.09981 151.93463 770.5183 148.29145 754.70117 142.17383 L 725.94141 131.05078 L 750.7793 126.32227 C 775.13555 121.68411 785.17778 112.26562 765.76758 112.26562 C 760.2007 112.26563 754.68876 107.55292 753.08594 101.42383 C 748.97702 85.711245 721.39054 89.201206 719.04297 105.73047 C 718.12401 112.20113 716.81446 117.49414 716.13281 117.49414 C 715.45109 117.49414 703.52189 106.90616 689.625 93.964844 C 675.72826 81.023522 662.33209 70.435547 659.85547 70.435547 C 657.37892 70.435547 655.35352 68.049676 655.35352 65.134766 C 659.12607 60.386306 667.8873 58.061892 680.14648 58.15625 z M 597.82422 66.925781 C 612.01038 66.953375 632.586 72.530927 651.03906 79.144531 C 670.72268 86.199129 677.24727 91.816383 684.53711 107.98242 C 695.65041 132.62718 692.67493 136.75069 674.24023 122.25 C 661.72716 112.40719 658.37435 111.9118 644.15234 117.80273 C 629.02277 124.06962 628.33299 125.60281 631.55664 145.80078 C 635.31672 169.36029 650.60547 197.09958 654.08203 186.66992 C 657.56421 176.22345 667.5116 179.23594 682.71289 195.3418 C 703.75675 217.63786 729.38683 219.15988 752.42578 199.48047 C 762.30413 191.04256 770.38672 182.0841 770.38672 179.57422 C 770.38672 171.50088 748.22521 174.71832 741.62109 183.75 C 733.73948 194.52878 717.11832 197.50885 711.77344 189.10156 C 707.35791 182.15615 705.09214 139.50195 709.32812 139.50195 C 710.80503 139.50195 716.09999 141.74195 721.09375 144.47852 C 738.65564 154.10233 766.29101 160.45991 781.8125 163.46484 C 801.23389 167.22478 829.02528 161.86738 850.91211 153.40625 C 858.15801 150.60509 864.71323 147.80948 870.52539 145.06836 C 896.17011 167.99226 918.73924 195.43513 934.37305 227.39258 C 944.6575 248.41521 973.95074 332.74261 969.4375 337.25586 C 967.96131 338.73201 961.2093 330.81866 958.76758 328.51758 C 952.44612 322.56041 940.36363 319.41568 930.81055 328.96875 C 920.73742 339.04185 920.04293 372.78325 929.63867 385.90625 C 938.73459 398.3459 946.2224 387.88149 938.52148 373.49219 C 930.37051 358.26207 936.46027 350.80198 955.48047 355.625 C 961.34974 357.11333 965.50528 349.06712 974.41211 354.88477 C 979.09976 426.98554 968.37699 478.59336 932.48047 545.4707 C 931.08968 548.06172 923.71997 557.9898 916.26953 564.45508 C 915.78538 557.33397 907.70836 545.88916 906.33594 541.20898 C 901.5176 524.7785 887.09328 509.32359 862.66211 492.55078 C 855.24265 487.45708 846.4683 474.26169 843.16211 463.22656 C 838.04962 446.16242 838.52933 441.05698 846.37305 429.08594 C 854.26676 417.03856 858.66111 415.23813 876.87695 416.58203 C 893.98253 417.84392 899.73223 421.03168 906.16992 432.82617 C 913.6012 446.4407 913.44606 448.04599 904.0293 455.04883 C 890.88243 464.8255 882.32461 464.78369 890.45898 454.98242 C 898.2401 445.60669 893.29281 436.45312 880.44336 436.45312 C 862.26705 436.45312 863.10097 468.19166 881.43945 474.36133 C 903.41145 481.75346 927.02201 447.91642 916.30469 424.39453 C 908.70291 407.71037 893.9932 397.33533 870.67969 392.21484 C 845.88045 386.768 819.90628 405.46669 812.74023 433.92578 C 806.06644 460.42951 809.87582 476.84584 826.97656 495.27734 C 839.69887 508.98959 861.58142 512.72287 870.91016 518.08203 C 892.51801 530.49531 893.14414 548.34309 894.51562 578.46875 C 895.06966 587.60882 897.84243 596.26063 890.75586 611.67188 C 890.14208 613.0067 887.4861 620.78747 883.35938 628.66602 C 870.44249 653.32638 842.49319 675.08197 814.83203 682.00781 C 800.45276 685.60814 784.1694 691.10312 778.23047 691.25781 C 747.13014 692.06723 770.83994 688.49225 792.19531 677.82812 C 804.06349 671.90152 814.29644 659.98422 824.35156 640.37695 C 832.46307 624.55974 835.73326 615.73369 831.61914 620.76562 C 820.75147 634.05764 786.07422 656.67071 786.07422 650.46484 C 786.07422 647.55926 790.78023 638.80583 796.5332 631.01367 C 803.03798 622.20327 807.97467 605.27725 809.58789 586.25 C 811.4941 563.76686 803.82589 564.72104 818.91992 551.38867 C 830.21748 541.40969 847.33612 531.74979 847.38672 537.80664 C 847.57667 560.09259 878.98021 525.94115 855.24023 518.38867 C 840.53791 513.68553 815.30604 515.9138 804.74219 548.3125 C 798.90746 566.20675 796.13919 553.53367 795.01953 503.78711 C 794.10328 463.07491 792.00451 452.07321 782.65234 438.96289 C 766.55795 416.40123 762.43554 381.16078 772.96484 356.14844 C 777.63547 345.05316 780.21579 334.73345 778.69922 333.2168 C 772.26546 326.78308 732.03697 365.05119 728.55664 376.52539 C 721.49884 399.79412 719.28949 385.69514 715.32031 373.18945 C 711.17806 360.13827 715.37329 325.88126 728.00195 281.45898 C 735.99509 253.34229 762.45155 225.05166 816.01758 220.94531 C 810.25164 232.09536 813.9337 237.23403 818.74023 242.26953 C 824.22577 248.01637 829.81701 251.94329 851.82812 248.64258 C 885.20815 243.63692 893.83056 250.50612 900.54102 269.75586 C 907.8409 290.6961 902.62328 323.65559 890.23242 334.86914 C 884.94388 339.65523 870.16445 344.74773 857.39062 346.1875 C 837.23931 348.45884 833.33442 347.25059 827.88086 337.06055 C 822.85099 327.66224 823.0095 324.42209 828.67188 320.83398 C 839.1843 314.17251 843.58984 315.22442 843.58984 324.39648 C 843.58984 329.9165 847.45321 332.12988 855.35547 330.93164 C 861.39297 330.01608 872.77821 304.07331 864.125 292.08789 C 854.59671 278.89026 821.0967 275.18285 810.03125 297.9707 C 763.64909 393.48807 983.93275 386.24768 892.61719 232.5 C 867.19598 204.36173 853.67541 200.12468 804.44336 208.50391 C 743.75686 218.83268 703.93111 247.73623 684.01172 295.25977 C 682.20998 237.51342 654.767 181.23584 594.51172 146.19141 C 597.05638 128.81345 595.59334 110.12745 588.96484 92.486328 C 584.08873 79.509182 579.82762 72.754929 584.61719 69.712891 C 587.7014 67.753964 592.27311 66.914984 597.82422 66.925781 z M 564.56836 79.238281 C 570.41336 79.013546 575.89278 83.656898 580.10352 97.242188 C 584.42404 111.18165 585.89457 126.19272 584.42773 140.67969 C 565.66847 131.07483 544.03448 123.40301 519.35742 118.1543 C 523.4633 114.30729 527.62536 110.54075 531.83984 106.87891 C 539.1005 100.5703 552.60003 79.698454 564.56836 79.238281 z M 369.66016 128.24609 C 385.61411 128.23433 401.97905 128.31284 415.9043 128.71094 C 418.45214 136.80553 425.84375 135.25586 425.84375 135.25586 C 440.53752 164.60103 393.22469 187.97182 372.59961 180.24219 C 351.56432 172.35875 340.35375 151.32428 337.29102 128.30664 C 347.14824 128.30259 358.22132 128.25453 369.66016 128.24609 z M 437.6543 129.84375 C 443.92151 130.40494 448.55219 131.14706 450.56055 132.15625 C 459.54317 136.67 467.99178 141.35079 475.93555 146.17773 C 422.9428 209.76385 376.62602 302.81447 447.77539 361.25195 C 452.12347 364.82315 454.87466 373.52792 464.50195 375.42188 L 446.85352 371.94922 C 437.14753 370.03978 422.36806 368.47852 414.00977 368.47852 C 409.06722 368.47852 404.84919 368.22725 400.05078 368.31445 C 401.24102 356.6732 392.77087 335.27413 391.68555 332.34766 C 378.55976 296.95665 368.20959 270.4375 354.19141 270.4375 C 342.78425 270.4375 345.88691 279.13408 359.49414 288.96289 C 365.65521 293.41313 385.31143 327.55299 375.20703 366.4043 C 371.64601 366.50492 368.63938 366.25391 362.53906 366.25391 C 362.53906 366.25391 343.80374 366.43717 337.60742 366.50195 L 336.39258 191.7207 C 339.98074 195.948 344.10237 199.83522 348.83008 203.25781 C 363.32729 213.753 394.62852 209.05472 407.63281 197.69727 C 429.51507 178.58605 443.85192 159.95455 442.67578 145.15039 C 442.16953 138.77868 438.12445 135.38498 437.6543 129.84375 z M 486.31445 152.75977 C 511.03065 169.10704 530.32302 186.97086 545.01562 205.69727 C 539.80952 208.5472 534.08325 210.82084 527.82617 212.41016 C 510.48763 216.81421 490.35742 244.27148 490.35742 244.27148 L 491.66602 232.72656 C 492.38584 226.3764 504.33928 217.8077 496.75195 213.20508 C 493.4907 211.22672 489.55171 217.02042 485.22656 221.93164 C 482.42048 225.11789 475.3743 225.35048 471.06055 227.00586 C 466.01038 228.94377 473.18842 247.70251 473.16992 260.43359 C 473.15382 271.30831 459.35579 291.10454 456.33398 301.98633 C 452.02522 317.50214 452.51049 325.11846 458.57812 337.28125 C 470.67969 361.53939 455.85153 357.11939 437.81445 331.0918 C 409.44849 276.37009 438.3194 209.30676 486.31445 152.75977 z M 550.2168 212.625 C 635.61238 331.69325 542.74095 481.73408 474.04688 500.14062 C 462.58909 503.21074 445.57262 504.55268 426.18945 504.7793 C 413.08161 486.9413 401.99874 466.87674 402.69531 449.9707 C 403.15611 438.7876 409.56048 428.96252 414.27734 427.22852 C 418.8932 425.53162 424.03836 422.12284 425.70898 419.6543 C 427.3796 417.18576 437.43207 413.75607 448.04883 412.0332 C 472.5414 408.05863 488.03125 420.46704 488.03125 444.06055 C 488.03125 462.5385 480.06619 473.05469 466.07031 473.05469 C 454.1765 473.05469 454.08286 468.26659 465.80859 459.60352 C 472.71712 454.49939 473.4866 451.34785 468.94922 446.74219 C 460.10528 437.76492 443.33006 445.13244 442.32812 458.43359 C 441.16802 473.83481 449.97292 483.51172 465.14258 483.51172 C 503.3673 483.51172 512.49642 409.30447 474.95898 403.71875 C 469.20729 402.86285 462.12722 400.67777 459.22656 398.86328 C 453.7856 395.45991 417.06362 402.41441 401.73242 410.17578 C 396.78125 412.6823 393.53259 409.17981 392.76953 403.86719 C 392.00648 398.55461 393.82437 386.60226 397.96875 380.05273 C 413.29746 379.73677 417.40948 381.54883 473.4668 381.54883 C 531.72989 381.54883 543.28314 380.27587 542.93359 373.70703 C 541.05152 338.32798 526.40148 364.72804 520.00781 365.53125 C 483.00972 370.17935 463.47673 341.5461 471.18164 309.82617 C 483.40805 259.49232 484.50153 279.54323 498.00977 280.91992 C 515.9383 282.74711 532.59795 274.54413 532.49805 261.48828 C 532.29664 235.3251 532.6273 249.93366 520.0918 257.84375 C 517.04271 259.76777 505.98666 258.08506 505.43164 253.11523 C 505.03744 249.58619 517.08825 224.44858 547.41797 213.7168 C 548.36154 213.38292 549.29314 213.01288 550.2168 212.625 z M 337.68945 378.33984 C 343.18303 378.52407 348.63039 378.74938 353.98438 379.04102 C 360.09707 379.37415 367.27233 379.91405 370.88477 379.22266 C 372.26232 382.64827 365.60656 393.07599 361.23242 400.24023 C 355.66882 409.35258 356.21067 412.0681 364.87891 418.49414 C 370.47969 422.64627 378.87112 418.96552 384.05469 417.32031 C 389.01249 415.74676 392.30487 417.05561 393.23438 419.45312 C 385.07236 439.7143 376.62799 465.84888 400.71289 492.64062 C 403.61161 495.86509 404.03554 500.31885 403.08984 504.58398 C 381.72317 504.01217 359.08235 502.48341 338.53906 500.60938 L 337.68945 378.33984 z M 668.95898 379.09375 C 668.93742 381.81877 668.94143 384.57054 668.98633 387.35938 L 669.23828 403.04492 C 669.85961 441.64519 699.51507 487.27912 742.05859 511.97656 C 750.92247 517.12223 761.09018 525.9992 764.65234 531.70312 C 770.81847 541.57669 770.11121 541.90025 749.91602 538.48828 C 733.93835 535.78885 726.65874 536.9507 720.41406 543.19531 C 708.23672 555.37272 697.18359 553.4703 697.18359 539.19531 C 697.18359 520.41181 686.38328 493.21156 671.43945 474.36133 C 655.55331 454.32235 649.21745 453.1817 642.21484 469.10156 C 639.37607 475.55541 632.781 481.64027 627.56055 482.62305 C 612.15685 485.52291 582.33232 521.0746 582.29102 536.79883 C 582.21367 566.56917 618.39035 606.32111 650.625 594.80469 C 674.90562 586.12997 673.24137 550.34363 651.45703 532.21484 C 640.347 522.9692 635.6611 521.86955 626.92969 526.46094 C 603.1427 538.9692 608.10353 556.71484 635.38672 556.71484 C 652.45848 556.71484 651.0299 565.36657 632.5957 572.25977 C 595.74411 586.03971 581.97315 521.178 621.87305 501.26367 C 638.01409 493.20755 641.36271 494.62878 660.55078 505.62695 C 683.97205 519.05144 692.85987 535.87487 689.53516 560.49219 C 688.2836 569.75959 689.49342 578.72345 692.22266 580.41016 C 694.95189 582.09695 697.18359 587.87545 697.18359 593.25195 C 697.18359 606.39005 711.27322 619.74666 721.13867 615.96094 C 727.85177 613.38489 727.41719 611.3322 718.37305 602.90625 C 705.48059 590.89514 705.1323 586.32008 715.86914 569.93359 C 725.60141 555.08029 749.73995 548.46331 764.79688 556.52148 C 787.28558 568.55713 798.17781 608.06018 784.25586 627.09961 C 777.83541 635.88016 776.89908 634.80611 773.73633 615.02734 C 770.1721 592.73819 754.70117 583.28838 754.70117 603.40039 C 754.70117 617.28389 740.8205 629.91797 725.56836 629.91797 C 715.80354 629.91797 712.87109 632.69748 712.87109 641.94531 C 712.87109 653.60531 721.46699 666.51953 729.22852 666.51953 C 731.32383 666.51953 736.7263 662.83411 741.23242 658.32812 C 745.83297 653.7275 755.74027 650.86067 763.82812 651.79102 L 778.23047 653.44727 L 761.63867 670.44141 C 745.20119 687.27737 715.01685 684.87666 658.01367 673.60742 C 611.93295 602.14933 569.19252 534.46072 517.37891 503.95117 C 589.87394 493.3354 644.04414 441.67886 668.95898 379.09375 z M 754.35352 457.36719 C 766.47887 457.36719 771.48534 465.46025 782.58789 503.00586 C 791.94825 534.65981 787.06047 542.75507 773.2207 518.52148 C 767.97225 509.33136 757.82405 495.48302 750.66797 487.74609 C 736.16378 472.06486 737.94683 457.36719 754.35352 457.36719 z M 338.77344 513.55078 L 385.62891 514.88086 C 387.40904 515.92551 389.17761 517.01659 390.93945 518.13281 C 386.55389 519.50255 380.87442 521.22619 377.29688 523.57031 C 335.22782 551.13496 343.70606 629.55295 391.66797 634.00586 C 406.74811 635.40591 445.91437 621.2894 446.85547 593.84375 C 447.82172 565.66236 399.32397 551.50059 395.48633 578.55664 C 393.99704 589.05638 395.443 590.10355 407.31836 587.12305 C 415.33686 585.11057 424.07942 586.40846 428.78125 590.31055 C 435.79333 596.13012 435.50808 598.02055 426.31836 606.58203 C 413.41593 618.60219 391.19234 617.32319 376.32422 605.58984 C 358.47723 591.50578 369.23836 562.67763 378.21484 549.15625 C 387.60877 535.00623 395.4151 527.48919 406 528.66797 C 431.57846 548.24843 455.34262 574.99107 478.29492 605.24805 C 480.75214 622.36957 477.06149 641.14373 470.5293 656.77734 C 467.00118 665.22137 464.27446 670.63212 461.93359 675.87109 C 429.53584 647.22047 373.19408 645.34179 342.83594 676.79102 C 341.35493 678.32525 340.02893 679.66145 338.77344 680.91211 L 338.77344 513.55078 z M 491.81445 623.57227 C 542.63806 694.20315 590.37183 778.87972 646.27734 836.61133 C 621.17469 871.15397 575.84157 900.7951 547.42188 910.55859 C 517.59476 920.80558 469.89415 921.90326 442.27344 912.97656 C 433.78823 910.23425 426.10818 907.30424 421.00195 905.49023 L 477.10547 905.49023 C 485.00282 905.49023 481.99867 895.94922 477.10547 895.94922 C 387.48289 895.94922 338.77344 863.53729 338.77344 775.62891 L 338.77344 706.23047 C 378.23275 740.25895 411.70602 739.03156 461.05273 701.23633 C 466.36819 710.95535 468.46754 713.53358 475.92773 724.80664 C 491.91815 748.96988 492.05348 789.79914 479.55273 816.14258 C 469.6939 836.91851 466.91126 839.03954 442.20703 844.61133 C 418.81703 849.88663 401.87801 839.67644 393.89648 815.49219 C 389.45987 802.04919 389.68851 795.48884 394.88867 787.16211 C 404.33599 772.03439 414.38017 773.57388 413.19727 789.96875 C 412.08751 805.35044 424.63465 816.30164 437.64648 811.30859 C 450.66543 806.31269 448.67104 778.64903 434.58008 768.7793 C 408.91124 750.8002 384.36384 763.11704 375.50195 798.42578 C 369.23192 823.40756 410.87354 871.75195 438.66211 871.75195 C 453.46157 871.75195 486.32442 852.03018 493.32617 838.94727 C 496.16559 833.64171 498.48828 824.71382 498.48828 819.10742 C 498.48828 810.80098 501.63439 809.17721 515.48242 810.33789 C 528.5382 811.43212 532.07546 813.9126 530.74414 821.04297 C 526.23567 845.18933 557.3468 873.27744 582.48633 867.75586 C 601.3309 863.61688 602.20649 856.16071 584.63086 849.47852 C 567.4995 842.96513 563.67002 831.99968 570.61914 809.35742 C 580.89617 775.87171 555.11893 744.81232 526.18164 755.81445 C 513.23355 760.73735 512.60734 761.95904 520.71094 766.49414 C 525.74366 769.31069 529.86133 777.38104 529.86133 784.42773 C 529.86133 794.52565 527.15712 797.24023 517.09766 797.24023 C 502.10412 797.24023 500.15627 791.84688 498.47461 769.97266 C 497.79802 761.17167 497.25655 738.85626 491.6582 723.03906 C 485.35291 705.22298 477.11574 697.53382 472.89258 689.87891 C 479.44814 679.30438 483.82055 666.52347 486.24219 656.94141 C 486.24219 656.94141 489.93897 645.46751 490.64648 639.51953 C 491.30798 633.95851 491.68455 628.65209 491.81445 623.57227 z M 398.07031 665.67188 C 417.26873 665.47458 437.32729 672.88347 452.86133 690.6875 C 425.65406 723.09515 368.41216 734.10725 343.94922 691.58203 C 355.65938 675.88704 376.31211 665.89548 398.07031 665.67188 z M 667.96094 688.97461 C 720.69015 697.68858 730.48379 694.9051 763.86523 721.31445 C 797.63746 748.03301 814.06255 754.24147 819.63477 779.61133 C 822.47525 792.5441 820.50756 799.01431 809.90625 811.61328 C 798.9059 824.68643 797.85094 828.42987 803.78125 833.35156 C 822.87723 849.19974 853.263 815.92775 846.125 786.98633 C 843.66918 777.029 844.35142 775.18478 848.85547 779.60742 C 852.15839 782.85059 856.916 794.61585 859.42773 805.75195 C 864.3579 827.61007 860.16582 843.99962 841.99805 851.84961 C 833.11472 855.68795 820.66818 852.57534 808.86523 858.7832 C 752.99005 816.01618 708.83745 751.94675 667.96094 688.97461 z M 965.53125 898.01758 C 953.42866 897.87969 953.25744 906.5331 963.61719 926.83984 C 975.15818 949.46208 969.00417 973.44967 950.47461 960.42773 C 937.76375 951.49498 930.15175 975.17472 945.17969 984.82031 C 954.68762 990.92298 984.7528 999.5117 988.34766 999.5918 C 996.32399 999.769 997.65177 997.13053 989.68164 984.22852 C 979.01858 966.96725 980.88465 969.32622 992.29688 945.85938 C 1009.4098 910.67021 993.52423 904.3125 981.66211 900.97852 C 974.92451 899.08484 969.56545 898.06354 965.53125 898.01758 z M 564.33984 951.64062 C 551.97063 952.03349 541.76345 959.49099 537.04688 974.28906 C 534.53642 982.16532 527.97335 986.35024 531.78906 990.16602 C 535.60476 993.98173 529.37596 999.10585 531.94922 999.38867 C 534.52263 999.67148 539.70281 992.54861 543.45898 983.55859 C 549.45567 969.20618 549.50914 976.68132 564.26758 978.98438 C 575.88584 980.79728 581.33121 979.26982 581.90625 974.03711 C 582.36384 969.87326 584.71453 968.01092 587.12891 969.89648 C 589.54335 971.78204 589.79307 977.83707 587.68359 983.35352 C 582.24698 997.57075 598.76429 1005.2334 609.51367 993.48047 C 616.75123 985.56724 616.19698 983.06374 604.60742 971.38672 C 591.24102 957.91943 576.70906 951.24776 564.33984 951.64062 z M 482.72266 957.02148 C 480.79861 956.96174 478.80527 957.24338 476.75195 957.93164 C 471.46035 959.70539 465.57556 967.99466 461.13867 972.00195 C 452.1666 980.10519 454.59502 989.43034 466.75 993.55664 C 472.71635 995.582 475.62472 992.60572 478.29492 981.74219 C 481.35875 969.27712 479.47271 968.15902 487.57617 968.16602 C 492.78203 968.1688 506.16391 977.6413 504.37891 988.18164 C 503.72931 992.01728 508.4488 1001.4359 510.90234 999.14062 C 512.83412 997.33342 510.7957 990.7736 509.45312 985.99414 C 506.24643 974.57956 496.19099 957.4397 482.72266 957.02148 z "/>
</svg>
