<svg viewBox="0 0 1000 1000"><path d="M489.05 0c-3.56.07-6.93.79-9.12 2.87-15.04 14.3-8.35 34.68-2.93 48.28 3.41 8.53 22.44 16.25 42.18 13.16-5.5 2.59-10.08 7.65-14.07 13.27-7.5.71-14.86 1.9-22.1 3.4-16.04-26.29-41.85-46.59-64.07-57.86-22.35-11.35-65.5-21.33-96.98-2.6-17.4 10.33-13.64 55.73-3.4 72.58 10.38 17.07 16.29 14.72 13.47-5.28-3.34-23.62 1.11-28.91 19.33-23 7.91 2.56 15.47 7.96 16.76 11.98 3.41 10.58 11.45 12.28 31.1 6.65 16.77-4.81 17.28-5.44 16-19.62-.72-8.04-.21-14.65 1.13-14.65 27.34 6.39 40.68 19.31 51.79 35.54-102.26 29.27-172.85 132.1-172.85 205.14 0 76 22.97 121.96 62.71 158.63a361.48 361.48 0 0 1-33.13 9.05c-16.45 3.66-30.46-2.51-43.19-3.8-19.69-1.98-24.02-6.22-35.25-16.91-17.05-16.25-16.03-25 2.9-25 13.45 0 14-.58 13.32-13.8-.71-14.13-12.63-27.81-24.23-27.81-8.13 0-16.94 9.4-21.9 23.4-4.98 14 3.74 35.72 19.12 47.6 11.3 8.76 13.05 18.47 2.51 14.08-3.87-1.62-22.2-4-43.25-9.35-21.06-5.37-41.29-13.93-42.36-15-1.1-1.03 1.07-3.58 4.84-5.66 3.77-2.09 5.93-6.21 4.76-9.2-3.23-8.25-46.81-26.13-57.17-23.47-12.47 3.21-11.76-7.77 1.02-16.01 13.47-8.67 19.75-8.1 38.43 3.5 20.16 12.5 26.93 12.45 39.03-.36 10.46-11.13 8.14-18.76-7.15-23.53-9.58-3-9.87-8.12-.66-11.6 4.61-1.74 9.38.24 13.93 5.75 3.8 4.6 11.99 8.74 18.18 9.15 10.3.72 11.27-.4 11.27-12.92 0-15.78-6.59-18.96-40.33-19.57-36.3-.6-48.54 3.4-73.3 24.02-21.15 17.62-23.57 18.72-24.78 11.18-.71-4.58.54-13.53 2.8-19.89 3.29-9.31 2.1-17.17-6.15-40.38-10.23-28.81-12-36.56-16.05-70.83-1.61-13.77-.5-19.8 4.58-24.8 6.28-6.18 7.41-6.1 17.03 1.34 12.82 9.9 15.28 9.9 25.38-.02 5.42-5.33 7.36-11 5.84-17-3.77-14.78 4.48-30.5 16-30.5 8.26 0 10.45 2.45 12.68 14.05 2.73 14.28 10.66 16.78 13.16 4.12 3.05-15.52-3.52-25.95-21.36-33.96-21.94-9.81-23.03-9.81-41.92-.35-16.28 8.16-36.84 34.7-36.84 47.52 0 4.28-1.76 8.85-3.92 10.16-5.56 3.38-9.62-15.7-6.1-28.66 1.61-6 3.71-17.05 4.65-24.56C52.47 131.71 74.44 90.21 82.95 87c3.4-1.3 9.13.18 12.69 3.25 3.55 3.09 12.24 6.82 19.3 8.27 11.5 2.4 14.57.85 30.11-15.4 10.72-11.2 20.82-18.09 26.5-18.09 5.04 0 9.15-1.56 9.15-3.45 0-5.63-38.36-8.97-50.56-4.4-19.2 7.19-20.84-2.15-2.37-13.6 18.72-11.63 38.82-13.2 52.07-4.06a34.28 34.28 0 0 0 16 5.48c75.54 1.43 60.16 100.19 6.5 91.25-30.69-5.11-33.8-27.51-5.45-33.26 19.69-3.98 23.98-7.68 24.07-20.8.07-9.16-9.57-12.64-35.25-12.66-16.21 0-27.32 19.86-26.2 41.7 1.25 24.72 24.8 47.83 60.93 44.2 29.42-2.95 30.87-.83 32.13 7.9 2.74 18.96-14.78 26.05-36.62 14.85-7.72-3.95-16.3-4.85-27.93-2.89-16.4 2.75-22.52 10.2-24.88 26.1-2.11 14.38 1.44 20.93 10.13 20.91 6.53-.02 12.8 4.13 14.21 6.39 2.88 4.56-10.98 17.02-30.6 27.5-11.9 6.35-12.65 7.95-10.16 21.79 3.77 21 10.12 26.4 27.3 23.24 16.4-3.03 33.35-15.06 29.6-21.02-1.44-2.24-8.02-5.17-14.68-6.46-14.8-2.92-11.78-10.32 3.3-17.09 15.26-6.83 27.8-6.46 39.24-9 23.28-5.16 57.47-60.14 40.15-88.66-11.13-18.32-14.72-23.9-7.93-46.36 13.35-44.1-12-76.32-39.67-87.43-53.47-21.47-134.5-3.37-178.67 85.08-1.27 2.53-5.3 9.06-8.5 10.07-3.2 1-5.93-2.78-3.65-4.96 11.06-10.46 28.3-49.86 36.94-66.23 4.06-7.72 8.5-30.42 3.73-37.24-5.2-7.47-22.15-3.45-30.5.43-7.75 3.59-12.04-7.16-22.05-7.36-10.02-.18-12.2 7.16-17.65 34.07-4.84 24.05-4.29 30.26 1.8 36.2 6.3 6.14 6.82 3 13.68-5.9 4.57-5.93 9.73-8.62 13.67-7.15 5.71 2.16 5.62 4.42-.86 22.5-3.95 11.05-11.23 24.33-16.2 29.52-7.78 8.13-8.2 13.48-8.53 38.59-1.17 87-39.58 155.6 31.77 221.28 6.46 5.92 20.78 6.35 20.78 11.29 0 1.79-8.15 9.02-18.1 16.06-25.5 18-37.07 39.45-41.88 77.72-3.36 26.64-3.02 32.74 2.15 38.36a15.33 15.33 0 0 1 3.48 14.88c-3.95 12.2 11.37 10.8 19.77-1.8 5.27-7.93 5.97-13.95 3.33-28.74-4.03-22.54-2.38-32.6 5.34-32.6 3.66 0 5.74 4.2 5.74 11.6 0 9.07 2.8 12.98 12.76 17.86 11.72 5.75 13.37 5.71 20.16-.32 9.51-8.45 9.26-22.74-.76-44.42-9.33-20.23-10.14-33.48-2.46-39.76 7.04-5.74 12.44.23 19.55 21.6 6.64 19.97 25.63 29.84 43.83 24.8 8.62-2.37 11.04-6.16 6.32-10.83-7.84-7.79-.56-10.77 13.34-3.46 29.5 15.49 85.49 20.82 100.48 24-10.77 4.04-14.56 6.98-25.76 10.53-8.81 2.8-19.74 6.23-24.2 8.01-36.81 14.74-46.23 19.74-59.71 31.63-14.54 12.83-17.05 13.58-47.16 14.2-33.78.7-42.37 4.4-48.82 21.08-5.92 15.26 2.52 21.69 25.54 19.51 13.25-1.25 19.3-.35 19.3 2.88 0 7.18-23.08 25.84-31.95 25.84-4.29 0-16.39-8.92-26.89-19.81-10.5-10.9-20.85-19.82-23-19.82-7.35 0-14.64 13.82-14.69 27.75-.05 18.6 10.03 29.53 32.76 35.54 16.42 4.3 21.3 4.04 37.8-2.15 10.5-3.95 21.84-11.65 25.49-17.29 27.13-42.18 75.56-95.36 86.82-95.36-48.88 54.15-71.2 114.19-75.07 177.9-4.6-2.41-6.57-4.87-10.9-9.65-24.57-27.17-63.9-.05-68.15 21.99-14.64 75.9 25.04 124.6 67.12 159.4 17.57 14.54 33.92 9.6 51.94-12.77 16.9-21 57.44-80.52 46.9-125.1-2.17-9.2-10.5-15.37-14.36-21.24-9.92-15.04-28.45-23.3-43.76-15.69-6.39 3.18-6.15 5.94-12.97 7.27-1.05-57.26 34.57-150.29 87.3-183.66 4.27 7.63-24.23 52.47-30.2 58.8-5.93 6.29-4 31.38 3.56 45.94 9.34 17.98 28.49 38.91 41.86 45.73 17.14 8.72 52.1 3.43 73.05-11.07 33.51-23.21 37.43-90.7 5.84-100.55-6.25-1.96-10.93.16-17.77 7.98-12.42 14.18-11.76 20.14 2.92 26.12 20 8.15 26.55 29.85 13.34 44.2-9.44 10.26-14 9-12.64-3.51 1.78-16.42-10.82-16.7-19.38-.38-11.78 22.4-21.68 19.46-31.75 9.39-7.81-7.8 8-23.2-2.3-17.28-3.52 2.02-5.37 3.5-7.27 8.14-5.64 13.79-7.02 13.65-14.97-1.49-7.54-14.32-11.07-35.18-5.94-35.18 1.92 0 6.37-1.07 9.87-2.4 5.2-1.96 5.92-.25 3.95 9.44-3.1 15.31 3.34 19 18.13 10.41 8.76-5.08 12.35-10.8 14.3-22.76 2.23-13.71.9-17.16-7.64-26.04-12.03-12.5-9.75-10.36-24.4-2.59-7.77 4.11-15.16 6.46-16.42 5.2-1.26-1.21 4.36-14.89 12.51-30.33 15.13-28.77 20.2-32.84 53.92-43.58 7.54-2.4 21.5-3.91 31.02-4.36 18.66-.86 26.38-3.73 40.74-6.46l-9.3 13.4c-8.76 12.63-9.64 17.5-7.54 32.7 2.91 21.2 11.22 23.78 26.48 23.78 24.1 0 29.22-7.27 16.26-23.1-15.61-19.08-14.6-24.97-14.63-37.63 0-2.9 1.8-11.48 6.7-13.2 4.1-1.44 11.02-4.58 16.98-7.13 39.84 30.92 92.58 56.66 154 92.11 54.93 31.72 158.4 87.06 158.4 180.05 0 88.04-46.1 130.83-108.59 143.66a316.53 316.53 0 0 1-20.96-31.32c-17.56-29.95-18.96-36.06-4.96-21.21 14.85 15.74 35.38 20.19 54.87 11.9 8.92-3.8 15.69-9.44 15.69-13.07 0-8.15-11.74-18.52-22.17-19.58-15.8-1.62-18.77-.15-16.12 8.04 7.67 23.78-36.7 1.69-45.32-22.56-5.24-14.8-3.91-21.42 5.78-56.27 18.76-67.4 106.7-75.48 103.93-7.6-1.26 30.45-19.39 35.45-34.16 15.08-6.6-9.12-11.74-11.9-21.95-11.9-15 0-20.4 4.85-23.35 21-2.95 16.07 7.66 28.7 29.81 30.32 54.17 3.95 77.47-47.93 67.38-75.32-19.38-52.68-79.42-56.12-136.56-46.3 5.73-18-2.72-34.58-22.83-36.71-11.47-1.22-33.56-7.2-27.89-23.25 2-5.61 8.54-6.96 15.35-9.69 11.7-4.68 14.27-9.17 5.45-11.77-35.79-10.5-50.29 15.25-48.9 41.87.87 16.91 13.47 30.57 23.86 33.37 23.43 6.28 25.37 7.14 18.78 14.95-3 3.56-11.76 7.18-21.06 6.05-38.62-4.7-41.1-14.84-37.87-43.38 1.65-14.65.18-21.65-4.41-26.17-8.15-8-18.96-5.8-20.6 4.2-2.85 17.4-4.23 18.99-10.87 11.45-13.39-15.22 10.32-44.87 23.21-39.06 8.78 3.95 23.14-5 23.14-13.76 0-8.05-7.54-12.17-22.17-12.17-15.92 0-22.19 4.29-30.96 21.18-10.18 19.63-10.86 42.3-1.67 56.07 9.55 14.34 4.79 18.94-12.3 11.92-16.3-6.68-24.82-3.88-35.12 11.57-8.82 13.23-8.35 22.85 1.74 35.45 14.45 18.06 34.6 10.3 23.98-9.22-5.39-9.93-1.5-26.39 6.01-23.93 40.78 13.41 89.24 52.4 132.46 26.48 12.08-7.24 37.55-11.85 40.75-6.79 1.42 2.25-1.26 7.18-6.75 8.08-21.32 3.5-48.16 24.43-64.22 41.28-16.39 17.2-30.5 20.21-46.78 11.3-42.72-23.4-84.9-4.9-79.94 28.42 3.32 22.4 10.9 25.28 14.34 4.17 5.2-31.77 29.33-2.84 51.23 19.08 10.84 10.82 43.22 3.46 45.17-22.13 1.53-19.84 26.93-34.36 26.03-27.47-4.38 33.66-20.39 85.3-43.5 128.12a422.95 422.95 0 0 1-94.7-39.77c-48.11-27.77-55.76-58.48-67.78-79.34-4.13-7.16-9.7-16.8-18.8-18.9-6.01-1.38 6.29 29.14 11.35 51.09 7.09 30.69 13.28 61.08 18.14 92.22 3.5 22.35-4.75 17.73 21.61 25.86 11.7 3.61 47.9 12.98 92.73 21.31a95.44 95.44 0 0 1-18.85 14.41c-30.04 17.02-65.6 24.41-73.05 3.83-3.73-10.25-15.81-9.88-26.19 1.06-7.54 7.96-7.73 9.3-1.94 13.46 5.59 4.02 4.74 5.45-6.5 10.96-22.25 10.92-45.53 3.02-71.97-14.53-43.5-28.94-18.3-100.34 23.06-89.36 37.75 10.02-6.92 14.54-7.5 26.08-.45 9.12 12.51 16.4 26.7 18.53 23.49 3.53 39.98-14.43 30.11-29.62-30.55-47-74.99-44.33-110.66 1.13-8.63 10.99-18.63 14.15-26.2 5.19-6.32-7.5-16.33-3.5-16.33 6.52 0 11.95 12.25 34.85 18.66 34.85 3.1 0 9.05-5.49 13.21-12.2 9.09-14.7 11.8-11.63 11.8 13.28 0 20.95-8.75 30.62-27.66 30.62-15.2 0-22.26-7.4-28.33-29.72-6.35-23.26-16.9-33.37-35.05-33.55-16.46-.18-22.47 10.12-2.12 31.77 9.01 9.59 18.85 22.94 13.23 23.84-5.51.86-39.42-15.7-48.21-26.7-6.68-8.34-8.4-15.43-7.72-31.78.72-17.34-.8-22.81-8.6-30.96-11-11.53-22.76-12.87-25.67-2.97C.75 860.5.02 873.42.24 885.41c.48 27.3 9.15 40.37 33.31 50.13 22.46 9.09 23.86 17.23 2.95 17.23-16.41 0-33.16 8.98-33.16 17.77 0 10.13 20.77 22.35 35.76 21.08 15.96-1.35 21.21-9.12 8.81-13-28.12-8.8 15.37-13.37 48.07-6.93 40.12 7.9 68.53 3.84 84.49-19.81 23.04 26.1 61.35 41.55 95.61 35.72 20.03-3.41 26.74-3.6 35.97 3.33 11.6 8.7 24.5 6.9 41.4 1.1 14.67-5.03 18.1-19.42 4.64-19.42-13.82 0-8.92-5.87 14.2-17.02 23.58-11.38 30.78-13.1 29.13-6.98-3.86 14.4 32.24 42.13 67.52 47.31 14.58 2.16 42.72 6.82 56.1-3.86 3.76-3.03-7.72-9.02-23.52-12.02-11.67-2.23-12.08-10.12-.72-12.92 14.1-3.49 46.44 8.04 61.05 21.71 13.94 13.07 22.02 14.76 21.91 4.58-.09-9.84-3.8-13.96-22.1-24.46-21.03-12.08-73.28-13.77-93.69-3.06-16.02 8.44-30.78 5.86-41.44-8.16-6.66-8.76-6.2-13.2 1.35-18.83 2.38-1.8 5.11-6.01 8-11.49 36.15 5.75 75.39 10.16 111.14 10.16 20.57 0 41.25-2.22 61.53-6.23a256.13 256.13 0 0 0 21.15 14.9c2.33 1.47 3.35 3.09 4.46 5.56 2.2 4.9 5.87 8.93 8.19 8.93 6.3 0 18.3 15.23 14.05 17.82-2.04 1.26-7.34.03-11.75-2.7-13.82-8.47-15.82 1.7-1.26 13.54 18.13 14.77 35.29 3.73 36.46-8.18.9-9.07-9.48-16.05-23.46-24.33-2.4-1.41 44.85-1.54 68.22 1.89 24.8 3.62 30.87 8.7 21.93 18.4-8.86 9.64-5.78 12.06 18.44 14.34 34.46 3.25 40.56-3.91 17.25-23.34-6.16-5.11-14.6-9.87-22.87-14.62l33.96-6.4c28.47-5.36 38.52-6.78 54.2 5.28 9.45 7.25 8.2 16.23.36 16.23-3.33 0-6.03 2.22-5.99 4.94.25 21.2 47.7 23.56 54.44 2.72 5.17-16.04-14.05-35.41-35.16-35.41-13.32 0-7.45-7.2 7.86-9.64 10.95-1.74 21.23.1 37.3 6.73 25.36 10.45 40.17 23.48 38.77 34.54-2.25 17.71 1.95 23.13 23.24 26.52 12.87 2.07 14.8 1.17 18.5-8.4 8.7-22.43-28.77-47.92-45.55-57.22-20.2-11.18-57.15-19.74-99.36-8.3-5.28 1.43-2.46-1.25 7.48-7.73 74.76-48.84 107.01-50.43 111.95-37.78 1.3 3.34-.56 9.28-4.17 13.18-9.5 10.35-8.13 13.82 7.94 12.43 25.3-2.15 38.64-25.16 18.25-46.38-7.95-8.29-28.4-6.46-41.7-3.1-9.38 2.37-22.7 8.06-28.98 10.16 35.77-31.77 56.84-72.82 72.6-117.96 3.66-10.47 9.05-21.9 12.14-25.35 5.7-6.33 4.8-22.42 3.17-28.52-8.18-30.55 19.93-93.55-11.54-185.18-12.63-36.8-21.1-49.79 1.44-75.44 8.47-9.64 12.56-16.75 12.56-26.2 0-7.31-1.45-14.36-5.81-13.07-6.66 1.97-16.55 12.17-20.52 23.9-3.6 10.72-8.08 19.48-9.89 19.48-5.56 0-16.19-35.92-16.19-54.64 0-12.47 1.47-16.96 5.05-15.52l11.95 4.75c4.92 1.96 10.95-1.6 20.9-12.27 18.4-19.76 19.88-27.14 8.12-40.9-11.4-13.3-15.15-37.7-3.59-61.75 5.87-12.16 3.95-17.83-5.83-17.83-12.48 0-33.57 14.78-41.25 28.9-10.5 19.3-14.68 51.23-11.41 87.5 1.77 19.9 4.48 39.74 6 44.1-23.1-26.92-60.39-99.18-43.71-134.15 1.61-3.37 5.92-9.15 8-13.73 4.13-1.06 8.13-.82 9.59 2.84 3.26 8.13 6.64 7.4 17.32-3.77 10.7-11.2 15.36-45.75 6.84-49.3-11.53-4.84-30.84 19.23-35.11 25.34-6.02 8.61-7.7 17.05-5.51 20.9-1.5 3.78-4.1 8.57-4.81 7.22-24.54-45.8 3.05-96.58 16.55-105.09 14.07-8.85 17.26-9.55 14.1 5.96-2.08 10.27-1.07 11.83 9.21 13.96 22.26 4.67 31.54 12.46 34.97 29.44 1.8 8.85 5.02 16.08 7.2 16.08 3.15 0 18.57-8.22 27.55-14.68 4.54-3.28-.85-43.38-6.7-49.72-5.98-6.5-5.92-7.47.63-12.17 4.34-3.12 6.57-8.88 5.72-14.79-1.54-10.66-6.31-11.45-40.69-6.6-10.53 1.49-19.15 1.25-19.15-.49 0-4.77 11.78-15.04 33.93-29.56 26.17-17.16 30.3-23.82 21.01-33.9-6.74-7.33-6.78-8.46-.53-17.85 3.68-5.49 6.1-14.12 5.36-19.15-1.25-8.61-3.08-9.15-31.53-9.3-27.23-.12-31.15.85-39.65 9.87-14.08 14.94-20.56 33.53-20.25 58.16.38 31.99-6.35 34.7-12.74 5.12-5.32-24.61-19.71-44.36-40.23-55.16-4.45-2.34-8.07-6.68-8.07-9.68 0-13.75-57.77 3.83-76.29 23.21-9.96 10.41-17.3 38.14-12.22 46.2 4.43 7.06 15.47 1.46 19.92-10.08 2.95-7.58 6.77-10.02 15.74-10.02 14.06 0 24.61 3.5 24.61 8.15 0 1.85 5.42 11.23 12.05 20.9 14.09 20.5 30.63 32.57 37.62 27.4 2.62-1.94 9.3-3.41 14.84-3.23 8.56.23 10 2.06 9.55 12.17-.3 6.55-10.95 31.27-12.57 36.17-4.73 1.16-10.33-3.06-17.01-12.77a83.88 83.88 0 0 0-56.92-35.36c-25-3.53-37.76 7.18-45.97 38.6-6.24 23.92-4.84 34.82 4.44 34.82 6.07 0 6.82-3.02 5.69-23.01-.83-14.45 9.06-32.5 17.79-32.5 3.08 0 10.5 5.72 16.47 12.7 9.3 10.87 10.52 15.15 8.51 29.63-2.03 14.49-1.13 17.6 6.1 21.4 6.86 3.59 10.5 2.98 18.98-3.23 5.76-4.24 11.48-11.87 12.7-16.97 3.02-12.54 10.52-14.18 16.3-3.57 3.68 6.79.1 11.54-.41 24.14-5.4 136.08 28 159.84 76.46 253.01 3.8 7.3 7.25 17.4 9.16 21.76-23.91-36.62-63.5-66.63-103.28-89.48-7.54-4.32-4.65-15.13-2.23-25.67 2.75-11.95 1.8-18.23-4.72-30.76-8.31-16.01-26.89-34.1-40.31-39.25-8.89-3.41-9.1-6.54-1.12-16.91 4.35-5.66 10.47-7.74 21.94-7.45 12.35.32 16.44-1.28 18.34-7.18 4.8-14.85-18.22-35.5-33.89-33.19-15.95 2.39-31.73 19.06-34.53 30.03-1.17 4.56 4.74 7.86 7.29 12.1 4 6.67 6.53 12.87 5.62 13.76-.92.9-7.9-.12-15.5-2.26-18.48-5.2-17.94-5.35-23.47 6.57-4.24 9.16-3.7 11.67 4.22 19.93 4.97 5.22 18.48 12.2 30.04 15.49 22.87 6.53 31.97 14.07 28.33 23.44-3.29 8.4-12.71 7.46-36.48-3.56-11.3-5.24-29.61-10.8-40.69-12.38-11.09-1.55-22.88-5.08-26.2-7.8-3.32-2.76-12.39-8.14-20.16-11.98-17.72-8.76-20.95-13.59-13.75-20.64 6.88-6.77 1.78-18.42-11.04-25.17-11.56-6.08-27.62 1.2-27.62 12.5 0 11.37 12.2 30.9 21.04 33.67 3.94 1.24 7.18 4.07 7.18 6.32 0 6.35-39.83-.2-59.9-9.88-9.66-4.66-20.91-12.63-24.99-17.73-7.32-9.15-7.25-9.48 6.72-28.61 7.79-10.63 14.25-23.44 14.37-28.45.36-14.52 8.05-26.94 16.66-26.94 7.25 0 7.72 1.88 5.33 21.79-1.54 12.94-1.04 21.79 1.24 21.79 7.68 0 16.39-17.99 16.24-33.57-.18-22-11.3-34.28-33.15-36.58-14.46-1.5-19.2-.01-30.9 9.73-8.32 6.91-8.98 7.54-10.74 13.27-1.85 5.97-.36 7.82 2.05 16.3 3.9 13.64 4.02 20.1.57 26.43-7.09 13.03-11.1 10.02-13.4-10.1-1.44-12.62-6.04-18.72-9.92-24.61a29.49 29.49 0 0 1-4.45-22.98c1.87-7.46 12.85-13.67 20.77-19.43 6.6-4.81 22.04-16.6 13.14-21.5-18.38-10.06-24.86 15.52-35.45 24.7 3-25.57 5.44-42.32 8.04-55.94 69.75 9.26 133.15 62.27 164.02 121.55a280.76 280.76 0 0 1 16.78 38.6c2.05 5.95 4.47 13.4 13.02 15.86 8.32 2.4-8.87-122.25-9.84-130.45-1.5-12.77-4.69-17.54-18.4-24.07-15.67-7.49-65.82-47.93-154.45-56.47 1.5-2.8 2.85-5.7 4.72-8.46 9.35-13.82 20.95-16.47 29.98-16.47 3.98 0 7.43 3.62 8.18 8.61 1.58 10.54 18.81 16.91 36.81 13.59 7.13-1.31 20.18-8.6 29-16.19 18.71-16.03 21.98-16.62 34.8-6.23 9.33 7.58 9.38 7.94 2.45 20.14-9.26 16.33-8.9 19.4 2.01 16.8 10.58-2.51 22.28-11.8 27.84-22.02 5.78-10.6-5.45-39.22-23.1-46.58-22.33-9.33-43.2-14.72-66.52-15.4-19.67-.58-25.16 1.11-43.74 13.4C588.56 27 577.93 32.7 577.1 33.34c-16.86 12.51-26.64 27.84-32.94 43.62a360.3 360.3 0 0 0-18.95-.54l-.42.02c2.37-1.62 4.9-3.56 6.73-4.22 15.08-4.67 13.7-37.62 22.2-48.6 13.11-16.88 12.57-21.98-2.33-21.98-9.42 0-13.87 2.77-19.15 11.85-8.54 14.79-16 15.27-17.68 1.17-1.04-8.74-3.87-11.54-15.38-13.6A54.01 54.01 0 0 0 489.05 0zm155.97 34.43a8.62 8.62 0 0 1 3.36.9c2.2 1.16-.07 6.56-4.4 11.01-9.03 9.25-19.69 11.76-21.72 3.04-1.75-7.43 13.83-15.69 22.76-14.95zm309.4 18.6c2.58-.13 4.3 1.45 4.26 5.07-.01 2.73-6.37 11-14.1 18.38-15.62 14.93-18.6 9.78-6.05-10.46 4.92-7.94 11.6-12.82 15.88-13zm-97.24.12c5.75 0 20.91 15.94 20.91 21.95 0 8.63-4.97 6.68-15.11-5.96-9.64-12.03-11.07-16-5.8-16zm-327.12 58.48c1.8.05 3.57.28 5.35.39-2.59 17.72-3.63 34.34-6.59 45.48-3.23 12.15-7.38 5.28-9.89-.59-2.51-5.85-13.59-32.2-16.78-38.68-.54-1.04-.54-2.2-.8-3.32a105.68 105.68 0 0 1 28.71-3.28zm-40.67 6.94c1.54 2.46 2.69 4.67 4.4 7.2 5.02 7.47 16.24 28.72 16.74 32.83-1.97 2.35-5.89.4-19-6.18-23.5-11.79-44.75-8.1-44.75 7.76 0 3.84 4.68 10 10.4 13.7 9.52 6.11 11.05 6.15 17.45.44 13.23-11.76 34.88-6.98 41.54 9.16 7.36 17.82 10.7 45.6 6.15 51.11-2.96 3.58-2.69 7.88.9 14.49 5.03 9.19 3.12 18.07-3.84 18.07-7.72 0-16.17-13.17-16.17-25.16 0-12.03-7.86-29.98-17.91-35.22-9.07-4.73-27.29-6.05-25.67 5.5.93 6.64-1.8 9.54-12.58 13.15-18.6 6.2-23.63 14.6-16.54 27.6 6.63 12.18 14.74 13.17 18.28 2.23 4.12-12.83 17.51-10.98 25.7 12.26 4.52 12.93 21.14 19.7 24.54 19.98 3.4.29 17.66 3.2 31.95 3.72 19.8.71 27.62.48 32.43 6.22 10.02 11.98 27.5 22.33 36.1 24.8 12.6 3.58 18.72 6.56 12.7 10.22-2.2 1.33-12.88 3.47-23.74 4.72-16.66 1.94-21.11 1-28.33-6.1-10.68-10.52-18.88-10.57-45.35-.3-11.55 4.47-26.39 7.59-33 6.92-10.7-1.05-12.56-3.28-16.96-20.46-6.1-23.74-13.39-29.4-23.1-17.91-8.22 9.73-8.88 18.99-2.37 33.03 4.85 10.44 31.18 18.7 52.4 18.73 14.73.04 1.29 15.57-5.57 21.13-2.15 1.76-5.38 4.45-7.86 6.52-46.74-25.87-81.45-61.07-80.41-130.85.84-55.41 40.2-110.39 91.47-129.3zm465.49 21.76c8.58 0 28.04 16.38 28.04 23.6 0 6.16-6.34 5.02-12.44-2.2-2.96-3.5-9.52-7.92-14.61-9.83-11.45-4.29-12.08-11.57-1-11.57zm-754.76 57.8c2.87-.19 6.75.76 10.82 3.26 6.09 3.71 13.82 5.69 18.35 4.29 5.53-1.74 7.88-.63 7.88 3.73 0 8.74-28.97 8.44-39.47-2.76-4.44-4.72-2.4-8.2 2.42-8.53zM38.15 222.11c1.07.14 1.86 2.15 2.19 6.64 2.22 30.64.34 65.16 11.61 86.87a38.38 38.38 0 0 1 3.8 14.88c0 4.38-2.76 8.94-5.81 7.97-20.91-6.57-26.2-31.98-28.72-45.05-3.48-18.05 11.06-72.08 16.93-71.31zm924.63 72.53c2.19.22 3.53 5.84 5.78 21.06 2.87 19.47-1.9 25.41-9.4 11.66-4.05-7.46-3.38-26.9 1.07-31.28.99-.97 1.81-1.5 2.55-1.44zm-271.12 43.39c13.31-.36 22.32.98 18.54 4.2-1.87 1.6-13.32 6.96-25.47 11.95-42.8 17.59-47.96 25.6-32.54 50.44 14.59 23.53 33.47 26.26 46.5 6.71 9.7-14.52 5.51-21.36-11.3-18.69-7.74 1.24-14.98.4-16.43-1.92-2.9-4.63 14.18-24.5 21.05-24.5 2.46 0 11.6-3.64 20.3-8.11 19.03-9.75 44.9-7.79 73.15 5.55 18.3 8.61 23.87 18.72 16.51 29.88-3.05 4.63-7.04 4.33-25.2-1.8-11.88-4.01-23.33-8.72-25.42-10.46-4.93-4.07-22.38-4.13-22.38-.09 0 1.7 3.02 7.3 6.7 12.48 6.28 8.81 6.24 9.7-.77 14.75-4.12 2.95-9.63 5.37-12.28 5.37-6.64 0-11.26 33.44-5.96 43.17 2.33 4.3 7.9 8.95 12.38 10.35 7.6 2.37 39.58 5.15 32.19-4.13-.52-.64-4.67-6.06-10.38-11.66-16-15.74-11.23-19.93 22.8-19.9 24.09.03 30.94-1.62 46.05-17.11 15.5-15.89 16.95-17.13 28.15-12.64 44.17 17.77 91.32 63.36 129.36 165.13-16.08-23.37-34.64-47.47-75.08-57.97-8.08-2.09-11.85-10.06-3.05-12.94 3.4-1.12 3.33-6.1-3.18-15.08-8.2-11.31-23.07-19.5-35.18-19.24-4.13.07-8.4 1.15-11.42 3a35.4 35.4 0 0 1-15.47 4.48c-14.74 0-6.12 21.74 9.7 24.45 4.25.73 8.54 3.71 9.5 6.64 1.44 4.18-3.67 4.9-24.4 3.4-25.13-1.84-26.57-1.44-34.72 9.38-10.23 13.62-10.34 14.95-1.83 24.2 8.78 9.5 21.6 9.15 41.82-1.2 13.64-7 18.24-7.67 26.57-3.96 11.77 5.28 9.22 12.4-4.42 12.4-13.1 0-22.26 3.92-22.26 9.48 0 2.57 4.98 10.38 11.08 17.34 12.03 13.77 15.24 13.77 42.48.25 16.34-8.1 26.46-25.27 19.14-32.47-6.46-6.37-4.74-12.38 3.9-10.44 92.75 20.76 73.66 210.18 20.13 286.45 18.35-54.59 12.42-92.32 6.03-119.35-7.7-32.49-18.54-67.49-10.05-73.97 7.33-5.58 5.37-17-.18-19.92-3.37-1.8-8.13.67-10.53 2.6-4.94 4-6 9.77-3.83 26l4.04 30.13c-17.71-37.05-60.85-36.11-73.25-5.44-3.27 8.08 15.67 10.41 20.07 2.7 4.93-8.68 24.62-8 33.02 1.13 4.82 5.24 7.4 16.6 8.58 37.87 1.66 29.9 1.53 30.37-7.26 27.76-10.86-3.23-18.73-9.69-11.78-9.69 8.98 0 4.92-7.23-8.74-15.52-29.38-17.86-41.34-4.5-18.67 20.85 14.33 16.07 14.36 16.21 4.04 26.39-11.88 11.67-8.9 20.35 7.05 35.14 19.53 18.1 47.34 15.46 49.36-3.55.81-7.41 11.22-3.23 8.5 5.6-9.43 30.4-12.86 57.1-49.42 91.8-10.82 10.26-25.56 18.7-41.91 30.7 3.36-16.7 13.96-25.25 17.7-30.85 10.64-15.96 12.74-40.28 5.96-54.87-12.9-27.8-18.9-32.56-23.43-18.6-1.45 4.56-7.3 12.51-13 17.7-8.52 7.77-9.88 11.68-7.73 22.3 3.25 16 9.39 23.5 19.19 23.5 12.15 0 8.81 9.9-9.57 28.45-18.66 18.85-56.07 41.09-80.05 43.32-19.12 1.77-79.34 2.87-95.08-3.85a204.98 204.98 0 0 1-16.64-8.02c94.24-26.81 173.34-99.06 173.34-219.01 0-158.2-134.94-240.2-235.92-285.8-26.26-11.87-52.8-22.48-77.22-34.6 14.6-14.82 70.43-1.8 66.7-16.3-2.23-8.64.59-10.31 7.5-5.74 2.66 1.74 7.99.3 11.74-2.92 3.73-3.25 14.05-6.79 22.92-7.88 8.87-1.08 29.17-5.31 45.1-9.4 13.56-3.47 31.24-5.48 44.56-5.8zm-139.83 355.3c3.34.23 2.03 5.11-2.46 10-8.94 9.72-25.93 57.88-25.97 73.59 0 6.8-4.3 19.69-6.17 29.54-3.7 19.39-5.59 37.2-20.79 34.64-8.61-1.47-10.55 2.82-6.64 14.97 3.77 11.72 11.81 6.75 21.58-6.14 4.37-5.78 10.08-15.68 12-26.67 2.55-14.63 9.62-3.3 12.12 4.18a224.11 224.11 0 0 0 26.72 54.73c-32.07 3.66-67.38.61-102.72-8.02 1.47-3.16 3.05-6.97 4.4-9.26 31-53.7 29.31-114.41 43-128.1 9.4-9.4 33.09-44.3 44.93-43.46zM77.4 708.8c29.65-1.49 82.46 62.77 64.46 87.61-4.45 6.16-8.85 22.3-18.98 21.99-9.02-.29-9.6-1.24-6.33-8.8 2.15-4.99 9.37-12.35 10.53-19.74 2.05-12.9 1.01-24.36-7-24-10.59.48-19.25 16.42-20.92 18.81a243.84 243.84 0 0 0-9.6 15.78c-1.64 3.14-8.87 9.7-12.79 9.06-8.49-1.34-5.08-20.1 3.74-25.22 3.05-1.77 9.44-10.73 14.21-19.92 8.38-16.1 8.5-17.1 3.23-26.74-4.66-8.57-7.8-10.25-21.84-11.76-14.9-1.6-16.24-2.48-11.95-7.5 3.5-4.1 7.91-9.3 13.24-9.57zm834.69 30.66c5.38 0 7.21 4.79 4.07 10.68-3.14 5.88-7.55 10.7-9.8 10.7s-4.07-4.82-4.07-10.7 4.41-10.68 9.8-10.68z"/></svg>
