<svg viewBox="0 0 1000 1000"><path d="M370.87 0c-14.77.2-19.43 9.43-10.39 23 12.22 18.43 9.72 21.84-15.88 21.84-19 0-27.33-2.88-42.2-14.53C279.02 12.03 267.47 9 222.05 9.24c-29.54.2-42.2 2.79-65.87 13.66-16.07 7.37-32.53 16.12-36.57 19.44-12.22 10.06-23.24 6.79-26.18-7.7-5.1-25.02-49.6-38.97-75.15-23.48C-3.28 24.2-4.82 30.41 5.38 63.9c8.86 29.1 19.83 40.42 24.59 25.3 1.44-4.56 5.77-14.04 9.57-21.07 3.85-7.02 6.93-18.38 6.93-25.21 0-15.73 13.96-14 19.4-5.49 2.93 4.62 2.11 12.08 1.39 14.68-.72 2.6-6.26 19.92-16.94 30.6-7.02 7.03-21.07 28.1-29.5 50.38C9.29 163.69.15 200.59-3.8 344.89-4.96 387.88 1 407.75 8.37 429.3c6.3 18.34 23.33 132.28 137.85 142.04 5.58.49 14-.38 20.98-.48v40.61c0 13.43 1.83 25.75 2.98 38.5-5.05 7.65-8.08 10.92-12.7 18.28a19.82 19.82 0 0 0-1.3-4.57c-2.07-39.02-28.34-62.74-68.28-74.44-19.58-5.77-37.1 4.82-44.36 11.12-13.14 11.35-20.45 9.14-23.77 14.58-3.03 4.95 8.61 3.7 17.47 5.96 8.75 2.27 24.58 13.04 28.38 18.87 4.57 6.92-3.8 5.29-11.74 3.5-16.36-3.7-29.54 4.53-46.77 29.17-11.74 16.79-13.66 24.15-9.86 38.06 2.55 9.52 9 20.64 14.24 24.73 8.57 6.73 10.68 6.4 20.79-2.7 13.47-12.17 13.09-17.13-1.4-16.98-8.51.05-13.18-4.9-15.78-14.53-3.37-12.8 7.6-27.28 13.62-31.76 5.05-3.8 17.22-13.8 25.5-10.4a189.58 189.58 0 0 0 36.8 11.75c22.62 3.9 46.87 16.5 43.99 43.06-12.37 41.38-19.44 53.56-20.84 89.98-1.25 33.34 6.5 55.14 14.15 77.18 6.6 18.86 26.46 45.42 37.82 51.87a176.1 176.1 0 0 0 45.57 16.65c32.23 6.06 68.8 8.08 114.51 3.56 23.58-2.31 33.2-5.06 54.13-6.21-36.32 32.86-144.49 42.2-210.41 16.99-32.1-12.27-53.94-12.9-42.34-25.5 9.96-10.88 9.1-20.84-2.75-31.43-6.78-6.06-19.72-27.42-26.99-34.16-15.88-14.82-16.65-13.86-30.65-28.82-16.84-17.95-19.63-31.85-9.1-45.57 8.57-11.11 16.22-10.63 20.07 1.25 3.61 11.17 12.18 8.18 12.18-4.18 0-4.62-2.75-14.2-6.12-21.32-7.21-15.3-21.89-16.65-47.53-4.33-14.92 7.17-17.23 10.68-18.53 28.3-1.3 17.12.34 21.31 10.97 28.19 7.6 4.9 12.42 12.51 12.42 19.49 0 14.58-3.52 14.43-15.5-.53-13.86-17.37-18.62-14.92-18.62 9.62 0 20.98 6.74 38.2 16.36 43.74 7.03 4.09 22.66 11.26 33.73 14.15 4.52 1.2 16.99 4.9 24.5 14.19 7.5 9.24 11.06 18.19 8.8 16.84-22.28-13.47-33.2-14.43-44.27-12.9-8.95 1.26-12.08 3.04-14.2 6.4-3.03 4.82-9.62 6.21-11.54.97-4.24-11.36-18.96 7.21-23.05 29.06-3.42 18.52-2.98 19.73 7.9 19.73 6.34 0 9.71-2.8 11.54-4.1 36.9-25.88 103.83.63 122.84 4.58 181.06 37.38 250.69-19.2 265.84-27.81a366.98 366.98 0 0 0 19.83-12.03c22.27-3.47 53.31.33 78.38 5.92-4.96 1.92-10.01 3.99-15.2 6.44-47.4 22.14-41.96 41.29-19.64 23.58 16.17-12.8 38.74-12.9 49.75-20.4 3.37-2.31 7.22-4 11.26-5.2 10.1 2.89 19.35 10.2 26.28 14.73 25.6 16.6 24.73-.77-3.04-16.75 31.47 1.98 68.23 19.73 84.74 26.47 42.96 17.7 96.42 21.31 157.82 13.61 46.96-5.92 85.93-13.47 99.98-20.35 15.26-7.5 20.7-7.99 35.27-3.27 9.48 3.08 18.48 7.6 20.02 10.1 1.54 2.4 9.91 4.43 18.62 4.43 14.77 0 15.83-1.1 16.26-17.13.39-13.38-1.78-18.04-10-21.17-10.25-3.85-10.16-4.1 2.45-8.95 20.6-7.99 21.12-14.77 1.83-22.71-16.4-6.74-18.62-6.6-31.13 2.21a95.85 95.85 0 0 1-26.13 12.56c-16.36 4.04-21.65-9.86-13-33.63 5.59-15.11 7.61-16.5 21.08-14.25 8.18 1.35 18.63 3.61 23.15 4.96s16.07-2.5 25.55-8.61c13.71-8.76 17.32-14.15 17.32-26.08.1-11.07-2.5-15.74-9.62-17.56-9.34-2.41-11.89 1.25-10.1 14.57 1.1 8.67-12.71 7.46-16.13-1.4-3.56-9.04 6.26-25.44 17.18-28.86 9.77-3.03 24.59-37.39 20.6-47.64-3.28-8.46-9.63-9.62-14-2.6-1.7 2.65-7.03 4.82-11.9 4.82-5.33 0-11.4 5.96-15.2 14.96-3.41 8.23-19.87 28.4-36.47 44.75-26.8 26.42-39.12 44.65-47.73 70.78-1.44 4.38.43 11.93 4.19 16.84 3.75 4.86 6.88 11.21 6.97 14.05-16.65 35.41-98.83 36.09-128.61 35.7 100.51-32.14 116.73-99.84 126.06-143.2 8.04-37.57-1.1-69.28 23.05-81.02 10.73-5.2 4.57-2.98 20.55-6.11 14.57-2.89 17.17-2.7 25.6 2.16 16.93 9.82 22.27 10.1 26.75 4.82 4.18-4.91 2.11-16.8-10.2-26.28-7.7-5.91-14.34-10.39-24.6-10.39-14.9 0-20.78 2.36-33.67 5.78-14.44 3.84-15.88 7.6-27.67 32.81a529.23 529.23 0 0 0-62.5-133.47c.43-6.11 1.05-12.08 1.2-18.29.14-7.46 0-4.38.14-11.3 6.45 4.13 15.02 6.25 28.87 5.62 24.2-1.05 42.1 5.87 32.1 12.37-6.64 4.33-7.32 29.2-1.06 40.9 6.1 11.4 30.89 10.82 48.02-1.2 12.75-8.95 14.82-9.1 31.42-2.27 9.81 4.05 19.15 10.73 20.74 14.92 3.46 8.9-7.27 17.08-18.91 14.34-4.53-1.06-13.09 1.44-19 5.53-10.83 7.5-10.83 7.46-.3 15.88 9.67 7.75 12.03 7.84 29.35 1.16 15.11-5.87 19.97-10.93 24.4-25.5 6.45-21.18 3.6-31.14-24.3-61.6-7.9-8.66-59.42-22.13-65.34-22.7-42.73-4-77.61-10.4-70.73-13 4.04-1.49 21.65-6.44 39.07-10.97 17.42-4.52 37.58-11.2 44.8-14.87 7.21-3.65 14.33-4.71 15.82-2.4 2.55 4.09 25.7 9.24 51.49 11.45 9.33.82 11.64-1.64 13.76-9.62 1.4-5.15-8.18-8.86-13.95-7.7-15.6 3.03-15.6 3.03-6.6-10.92 4.96-7.65 11.84-15.64 15.26-17.8 3.36-2.08 6.2-9.15 6.2-15.7 0-9.9-1.82-11.4-10.97-9.14-6.06 1.5-25.21 5.97-30.7 9.24-13.56 8.04-12.8 15.74-29.1 22.47 19.24-32.23 33.34-58.9 47-90.94 58.37-136.6 1.93-263.67-11.88-315.35-5.3-19.73-12.6-31.18-12.7-35.51-.24-9.72 3.56-10.1 9.72-13.14 15.54-7.8 24-6.01 24 5.3 0 14.05 7.8 6.25 13.82-13.77 8.42-28.14-1.93-50.28-19.73-50.37-4.1 0-8.95.48-13.38 3.6-20.93 14.78-32.81 57.99-29.64 67.18 3.56 10.34-1.78 5.43-19.39-12.27-39.7-39.94-78.24-53.12-136.5-53.8-43.4-.53-74.59 25.84-113.75 39.31a26.8 26.8 0 0 1-18.29-2.02c-8.8-4.62-8.95-5.96-2.07-19 6.93-13.24 6.74-14.4-3.17-19.59-3.61-1.92-8.66-3.41-13.9-2.7-10.6 1.45-35.08 6.46-32.1 15.74 1.3 4.14 2.84 10.01 2.84 13.28 0 3.27 4.86 14.73 14.29 21.7 33.15 24.54 75.2 23.1 111.15-1.15 13.42-9 22.32-11.36 37.2-13-3.9 3.04-9.63 5.06-14.3 10.45-10.1 11.74-11.88 21.55-19.34 30.89-11.74 14.67-10.59 15.4 4.33 13.13 7.8-1.1 15.88-8.18 23.48-13.32 7.7-5.25 47.78-19.83 62.84-19.64 26.03.3 44.27.97 81.8 22.48a81.75 81.75 0 0 1 23.38 20.59c-.96 0-1.1-.15-2.4-.1l-10.59.05c-8.08 0-40.18 1.59-103.64 1.59-63.52 0-107.78-1.59-115.82-1.59l-10.58-.05c-8-.05-8.8.2-8.8 2.65 0 4.57-.4 8.61 1.63 8.61 54.95-.2 78.38 79.97 81.07 129.87 2.07 37.05 4.04 62.65 5.4 107.25l-.15.2a5164.38 5164.38 0 0 1 1.83 122.78v67.18c0 3.03-.48 5.63-.48 8.66-1.35-.77-4.2-1.45-5.3-2.07a1890.35 1890.35 0 0 1-63.37-38.01c.48-.87 1.06-1.74 1.98-2.65 2.3-2.26 3.56-6.16 2.88-8.66-.72-2.55.53-4.57 2.84-4.48 2.26 0 3.7 2.75 3.13 6.02-1.01 6.25 9.1 8.23 13.38 2.55 1.44-1.93 5.96-3.37 10.1-3.37s11.93-3.08 17.32-6.74c8.28-5.77 8.8-7.21 3.56-10.1a45.18 45.18 0 0 0-17.56-3.47c-6.26 0-11.36-1.44-11.36-3.03 0-6.4 11.36-10.2 25.99-8.7 20.54 2.06 19.3-3.18-2.89-12.28-18.28-7.45-18.28-7.45-32.62-.19-21.22 10.78-25.12 16.17-24.73 34.55.1 6.78-.44 11.36-2.22 14.05-64.86-41.96-123.75-90.36-151.66-151.57 14.43 11.26 27.52 22.81 48.16 33.06 11.46 5.63 24.78 12.99 37.78 15.25 21.4 3.7 26.27 2.02 51.53-17.8 29.78-23.34 52.78-64.04 43.01-76.12-2.11-2.65-4.13-4-6.06-4.1-4.33-.14-8.52 6.17-14.05 19.93-7.31 18.24-1.25 18.1-70.54 1.68-19.87-4.71-25.88-4.04-32.24 3.76-5.67 6.83-6.4 11.45-2.5 16.26 9.14 11.26-1.25 13.8-13.18 12.37-13.96-1.69-31.76-5.59-50.28-26.23-9.24-10.25-6.26-24-5.06-25.21 1.45-1.44 10.4-.53 19.83 2.02 23.29 6.35 37.43-3.22 37.43-25.36 0-22.9-11.4-24.92-28.1-4.95-13.76 16.45-21.65 15.2-14.58-3.66 14.78-39.4 36-87 88.63-74.1 13.33 3.32 39.17 12.17 36.96 35.85-1.45 15.2-16.22 25.6-38.16 24.3-10.87-.63-18.72-2.9-17.32-5.06 4.23-6.73-3.37-23.1-10.78-23.1-4.9 0-6.73 4.82-6.1 15.65.95 16.84 7.3 22.13 13.85 25.2 19.3 8.91 50.66 8.72 68.9-9.47 17.61-17.66 15.69-43.98 7.41-53.8-15.64-18.52-24.25-35.22-18.14-35.22 2.7 0 12.6 3.61 22.04 8.04 9.43 4.47 18.33 6.93 19.77 5.53 5.92-5.82-4.61-19.05-17.13-21.5-7.36-1.45-20.25-9.82-28.67-18.63-19.92-20.83-45.95-29.73-62.07-21.22-6.4 3.37-11.65 10.01-11.65 14.68 0 10.15 18.86 24.4 26.42 19.97 2.89-1.73 2.21.58-1.5 5.1-4.27 5.2-10.24 3.66-16.26 5.3-53.6 14.52-53.55 70.05-71.4 92.09-6.11-3.76-1.93-58.03 6.35-82.04 13.28-38.6 31.32-68.8 48.98-82.09 20.02-15.01 20.55-16.94 6.93-25.3-8.66-5.3-11.55-5.1-18.9 1.44-8 7.12-8.9 7.12-11.7-.1-1.68-4.28-3.08-16.36-3.08-26.85 0-13.8-3.27-22.28-11.93-30.8-14.05-13.9-35.75-15.73-40.13-3.41-1.69 4.62-6.16 12.03-9.96 16.36-6.02 6.93-5.92 9.96.72 22.61 9.86 18.82 9.72 27.72-.67 31.62-5.4 2.07-11.02-.34-15.98-6.84-6.73-8.8-8.66-9.14-16.94-3.22-9 6.5-8.75 7.41 6.65 26.56 8.75 10.92 17.94 19.82 20.4 19.82 2.4 0 4.47 5.54 4.47 12.32 0 6.79 2.26 16.55 5.05 21.65 2.75 5.1 5.92 18.48 7.08 29.7a5138.7 5138.7 0 0 0 5.29 50.51c1.73 16.5 1.44 30.03-.72 30.03-12.51-16.7-31.47-41.04-48.26-57.74-19.92-19.82-29.35-43.2-17.37-43.2 2.6 0 5.77 4.51 6.83 8.32 4.09 14.14 13.71 15 16.84 3.03 4.38-17.08-1.59-28.78-19.87-46.2-28.58-27.33-39.46-33.3-36.96-40.46.73-2.17-.81-5.58 3.47-6.4 11.79-2.31 19.82-13.28 14.15-17.03-6.98-4.67-20.21 2.3-23.58 10.73-2.65 6.4-4.81 13.7 4 28.48 9.42 15.69 4.42 16.6-18.53 33.2-23.96 17.32-41.24 40.9-37.68 51.49 1.01 2.98 6.3.48 12.13-5.63 5.67-6.02 13.66-15.3 36.52-9.82-12.66 9.67-19.35 10.15-35.03 25.31a35.46 35.46 0 0 0-9.77 23.1c-.24 13.42 3.95 24.68 11.3 35.94 7.37 11.21 40.57 23 57.12 6.45 14.53-14.53 11.5-17.33-10.87-9.63-20.93 7.22-23.58 6.7-23.58-4.38 0-5.29-2.16-9.62-4.86-9.62-7.99 0-5.53-17.18 3.66-25.3a38.97 38.97 0 0 1 28.39-9.44c18.52.96 27.71 5.73 45.23 26.85 10.82 13.09 19.48 25.12 23.62 30.5 7.8 10.16 4.38 22.76-7.07 18.39-33.83-12.85-45.52-4.96-32.05 21.65 6.98 13.86 9.1 14.87 24.83 11.93 27.19-5 26.37 16.6-.38 37.05-14.1 10.78-35.9 3.66-37.2-3.37-.48-2.4-5.2-12.03-12.36-21.31-12.51-16.27-14-16.75-35.32-11.45-27.48 6.83-35.13 1.34-26.95-19.35 4.96-12.5 3.85-17.6-5.1-24-10.82-7.7-12.41-6.74-16.36 23.71-5.87 45.23 19.54 76.37 54.28 85.46 25.79 6.74 58.7 3.85 83.96-17.85a283.3 283.3 0 0 1-16.36 33.49c-22.8 35.94-60.62 58.22-101.72 74.2-32.62 12.7-24.58 6.63-23.48 1.34 6.26-28.87 5.63-31.7-7.8-36.71-8.65-3.28-20.63-1.93-34.63 3.85a62.46 62.46 0 0 0-20.12 12.17c.24-111.92.77-188.28.77-244.82 0-31.46 19.1-93.4 74.1-93.2 1.93 0 1.59-4.04 1.59-8.61 0-2.45-.82-2.7-8.8-2.7l-10.6.1c-8.03 0-42.62 1.54-106.14 1.54-63.46 0-115.96-1.54-124-1.54l-10.58-.1c-7.99 0-8.8.25-8.8 2.7 0 4.52-.34 8.61 1.63 8.61 54.95-.2 92 45.8 92 77.28 0 28.39.2 92.1.39 129.43-3.18-1.73-6.26-3.6-9.72-4.67-17.42-5.15-19.54-4.71-27.43 5.63-5.68 7.36-9.72 9.34-12.03 5.68-5.77-9.29-21.17-6.01-31.27 6.64-5.3 6.69-11.17 22.86-13 36-2.74 19.62-1.49 26.74 6.98 40.26 5.63 9.05 13.67 17.71 17.8 19.25 10.93 4.14 4.58 10.92-11.16 12.03-7.5.48-19 1.3-25.64 1.92-14.82 1.26-25.17-17.12-28.4-50.71-3.36-33.97 9.63-63.42 34.84-79.25 24.54-15.4 32.43-24.15 32.43-36.28 0-7.46-2.4-8.66-12.22-6.2-7.7 1.92-12.17.96-12.17-2.55 0-9.05 15.97-18.29 31.75-18.48 31.28-.34 32.72-39.94 1.93-55.67-21.6-10.97-35.32-8.57-51.1 9-14.34 15.97-23.72 16.36-25.4-16.36-2.27-43.98 29.1-111.4 83.24-126.45 39.36-10.93 48.4-14.97 58.6-6.3 19.2 16.3 66.02 28.19 89.3 18.42 10.35-4.33 11.22-6.83 6.6-15.3-9.14-16.8-3.51-17.95 31.85-6.4 18.77 6.16 39.17 11.26 45.33 11.3 15.25.2 46-16.06 53.5-28.38 8.52-13.81-3.85-32.14-23.58-34.98a44.78 44.78 0 0 0-6.88-.53zm419.1 44.46c2.7 0 4.81 1.01 4.81 3.75 0 5.3-8.76 6.26-14.53 9.39-4.86 2.64-25.17 17.12-24.2 12.5 1.68-8.6 20.2-20.78 25.55-23.52a19.92 19.92 0 0 1 8.32-2.12zm-278.93 20.6c1.34-.1 3.75 1.97 8.32 6.1 7.22 6.45 8.42 10.69 4.86 17.23-2.55 4.81-4.71 16.94-4.76 27.04-.1 21.56-9.24 40.47-10.01 20.7a947.9 947.9 0 0 1-.34-64.39c.34-4.38.58-6.59 1.93-6.69zM933.2 113.7c12.03 19.1 18.77 41.38 25.21 61.59 4.96 15.54 2.89 37.24-4.42 34.3-22.76-20.54-51.97-23.9-59.19-22.85-14.34 2.16-1.1 14.2 7.85 15.88 12.75 2.4 17.75 11.16 15.78 12.99-1.44 1.44-12.8 3.22-25.26 3.9-27.86 1.63-34.26 7.31-29.93 26.6 3.03 13.77 23.24 20.02 31.37 24.74 11.7 6.73 13.62 21.75 15.25 28.39 2.07 8.03 5.49 11.06 10.35 9.23 4.62-1.78 21.65-7.93 27.9 2.03 8.38 13.37 20.31 32.04 15.64 64.95-3.75 26.32-8.37 34.02-12.99 43.16-15.4 30.41-43.1 19.68-54.08 7.94-14.53-15.59-9.48-24.15 5.44-43.3 13.18-17.04 13.18-34.98-.05-47.5-13.14-12.46-28.58-16.6-31.08-8.37-1.06 3.47-.68 7.41.81 8.76 5.63 5.15-4.18 9.24-11.88 4.96a56.49 56.49 0 0 0-34.98-4.81c0-13.38.77-34.65.77-52.5.29-16.12 1.2-109.51 35.12-139.54 18.38-16.36 43.7-28.67 71.22-28.58.72 0 .96-.96 1.15-1.92zm5.49 122.65c5.38.38 16.3 10.82 24.05 26.22 9.24 18.38 9.48 23.92 10.97 33.2 2.7 16.5-7.89 6.93-9.96-.96-2.88-10.92-5.58-13.04-11.93-21.22a109.6 109.6 0 0 1-15.1-26.13c-2.56-8.03-1.3-11.4 1.92-11.11zm-879.14.72c9.58 0 7.84 6.06-6.5 23.1-17.94 21.36-24.05 19.24-10.87-3.85 6.02-10.59 13.86-19.25 17.37-19.25zm561.66 93.73c.92-.29.77 2.21-.19 7.12-1.1 5.53-5.05 11.98-8.37 17.18-5.87 9.29-6.02 9.29-7.41-1.59a25.45 25.45 0 0 1 7.99-19.58c2.4-2.07 5.67-2.4 7.98-3.13zm-222.68 12.03c7.31.62 19.4 10.44 15.2 13.14-1.73 1.15-9.81 3.07-17.94 4.33-11.93 1.78-14 .33-11.07-7.7 2.02-5.49 6.5-10.4 13.81-9.77zm-283.5 0c2.5 0 4.57 2.16 4.57 4.81s-3.37 4.81-7.6 4.81c-4.19 0-6.26-2.16-4.57-4.8 1.63-2.66 5.1-4.82 7.6-4.82zm43.54 4.9c2.75.1 5.49 1.45 8.18 3.42.24 47.4.49 69.92.49 149.89v46.72c-41.2 1.54-81.32-12.56-107.35-57.84-12.51-21.75-11.07-22.95 21.55-21.65 29.55 1.2 30.41.86 46.73-17.66 16.07-18.28 16.5-19.92 13.47-47.92-1.73-16.46-.92-34.65 1.92-42.06 3.47-8.9 9.05-13.18 15.01-12.9zm352.5 7.03c19.4 48.46 67.32 98.79 120.49 140.5 11.45 9 28.58 19.4 46.43 30.07-1.68 1.35-3.7 2.9-5.2 4.38-2.83 2.8-7.3 5.1-10 5.1-6.79 0-23 18.67-23 26.47 0 8.32 11.83 27.76 16.93 27.76 2.17 0 5.1-2.4 6.45-5.34 1.54-3.22 5.58-4.72 10.2-3.7 4.24.9 11.84-1.11 16.9-4.48 7.88-5.2 8.5-7.22 4.42-14.1-4.81-7.99-8.47-23.24-8.66-31.23 29.35 17.57 59.61 36.1 73.66 52.93 1.4 1.59 1.93 2.55 3.18 4.14-9.62 140.4-65.54 239.52-176.54 266.18-27.9-43.3-43.93-92.48-27.43-128.95 6.88-15.3 10.93-14.87 33.3-38.74 28.77-30.65 65.34-30.79 82.66-19.63 17.57 11.31 30.27 24.4 23.72 49.7-4.08 15.84-10.92 25.03-23.19 31.19-17.32 8.7-17.32 8.7-23.96-7.65-12.17-30.08-45.66-18.72-47.3 16.07-.82 17.03.87 18.52 23.05 20.98 36.04 3.94 108.5-18.48 96.52-77.23-27.95-136.99-208.49-39.65-198.77 58.8 3.47 35.22 18.1 69.57 35.22 100.22a295.33 295.33 0 0 1-38.3 2.7c-7.21 0-13.76-1.16-20.78-1.59.38-.96 1.06-1.68 1.44-2.7 42.34-125.2-27.43-241.68-137.32-215.07-32.67 7.94-71.07 50.95-54.28 94.93 11.3 29.64 38.59 58.7 88.63 59.57 6.35.1 11.07-10.44 15.11-8.62 4.04 1.93 6.11 10.25 14.53 6.84 8.18-3.37-.91-53.7-10.49-60.39-11.3-7.99-31.75 4.52-28.96 17.7 2.55 11.84-11.4 22.29-22.72 17.09-27.13-12.51-43.5-25.6-41.18-57.21 1.1-14.58 5.15-19.73 7.84-26.8 5.2 8.85 7.07 21.12 25.17-8.18 6.59-10.68 7.21-15.2 23.14-15.45 60.91-.91 123.66 47.78 99.94 164.66a159.17 159.17 0 0 1-10.16 31.37c-122.5-18.28-206.7-106.92-206.7-279.85v-5.14c13.95-14.97 27.66-30.22 42.77-44.08 21.46-12.32 43.55-3.66 40.61 25.8-1.59 16.01-.1 19.96 8.47 21.84 7.22 1.58 12.17-1.25 16.36-9.39 3.27-6.4 9.05-11.64 12.85-11.74 5.29-.04 4.76 3.95-2.4 17.33-8.81 16.45-8.67 17.6 2.01 19.96 8.42 1.88 11.45.48 15.2-9.04l1.64-4.62a120.68 120.68 0 0 0 4.81-36c-.62-17.8-2.4-20.4-17.46-26.07-9.29-3.47-21.27-2.65-27.86-1.83-26.61 3.51-17.47-14-12.03-17.18 31.76-18.57 51.1-25.79 76.65-45.23 9.62-7.36 16.45-10.87 14.34-1.06-1.88 8.42-3.85 21.46-5.05 26.32-5.92 23.44.77 51.73 15.4 76.99 12.4 21.56 12.8 35.46 12.8 38.5 0 6 7.35 11.35 11.15 8.13 1.35-1.16 2.41-19.44-2.4-30.8-9.14-21.41-11.26-27.62-.63-59.18 7.12-21.17 4.57-29.79-8.75-29.79-12.51 0-15.06-13.85-6.11-31.56 4.18-8.23.86-13.23-.73-21.17 3.23-6.55 26.76-42.15 38.4-68.33a197.9 197.9 0 0 0 2.17 18.29c7.8 47.05 57.78 86.9 52.59 97.38-1.54 1.5-6.88.3-11.89-2.69-11.3-6.69-16.7-.43-14.43 16.65 2.7 20.3 6.59 27.23 21.17 37.82 11.98 8.66 14 12.46 12.36 23-1.54 10-4.8 13.47-15.54 16.3-11.06 2.94-15 2.17-20.88-4.18-4-4.33-8.13-10.1-9.14-12.9-1.1-2.78-3.56-3.65-5.58-1.87-4.81 4.33 5.53 40.27 13.28 45.9 10.49 7.56 15.88 26.47 10.3 36.33-4.67 8.23-5.2 8.33-10.6 1.4-6.1-7.99-14.9-5.58-14.9 4.14 0 9.38 10.91 11.16 25.16 4.18 20.16-9.86 25.84-37.24 9.72-46.77-10.5-6.25-1.54-13.18 5.53-13.18 11.16 0 28.73-15.5 36.23-27.67 9.29-15.01 10.68-21.07 8.28-36.28-3.27-20.69-10.59-36.37-30.94-66.01-12.8-18.63-35.6-49.42-39.46-61.02-1.92-5.87-7.89-28.2-7.45-33.92zm365.2 9.14h1.55c2.6 1.16 6.06 3.7 6.93 7.13 1.15 4.52 3.46 10.73-5.78 18.66-12.99 11.17-10.97-10-10.92-12.8.05-4.71 2.31-11.45 6.6-12.7.52-.19 1.05-.29 1.58-.33zm-51.76.82c11.16 2.6 22.42 12.6 24.78 31.61 3.46 27.58 4.28 30.32 19.92 44.7 23.86 21.95 39.5 18.72 60.14 17.33-4.23 42.1-33.68 70.58-98.64 96.95-4.9 1.97-5.2 1.64-9.04 2.89 1.92-97.68 2.55-148.68 2.88-193.43zm-222.88 2.4c1.44.2 2.21 2.75 1.73 5.64-.43 2.88-3.56 4.8-6.93 4.28-3.36-.53-4.13-3.08-1.73-5.68 2.4-2.55 5.54-4.47 6.93-4.28zm-506.42 4.53c7.7 0 9.04 2.98 7.74 16.99-2.55 28.1-11.4 26.56-15.15-2.7-1.5-11.45 0-14.29 7.4-14.29zm206.9 80.6c.67-.05 1.3.04 1.92.28a4.81 4.81 0 0 1 2.8 6.26 4.92 4.92 0 0 1-6.26 2.89 4.81 4.81 0 0 1-2.75-6.26 4.76 4.76 0 0 1 4.33-3.17zm-36.96 8.03c1.59.2 2.55.68 5.3.29 6.1-.82 13.18.39 15.68 2.74 3.37 3.13 3.03 3.76-1.25 2.46-3.13-.97-7.27 2.35-9.14 7.36-2.7 7.12-.48 10.3 10.05 14.24 13.1 4.9 14.97 7.31 4.53 15.06a239.72 239.72 0 0 1-25.26 16.07v-17.42c0-22.95.04-21.55.1-40.8zM543.13 493c2.4 0 4.33 2.74 4.33 6.16 0 3.37-1.92 6.16-4.33 6.16s-4.33-2.8-4.33-6.16c0-3.37 1.93-6.2 4.33-6.2zm-83.87.24c-1.2-.67 2.7 1.06 3.7 3.32 1.36 2.98.78 6.26-1.24 7.36-5.4 2.89-9.96-5.29-5.25-9.33.97-.87 3.42-.72 2.8-1.35zm-350.76 133c2.74 0 5.63.1 8.6.43 8.86.96 12.33 5.72 17.43 23.96 3.75 13.52 4.76 18.77 2.6 18.86-1.02 0-2.65-1-5-2.89-4.82-3.7-9.15-8.37-9.63-10.24-.58-1.93-4.81.14-10.59 1.82-6.3 1.83-8.7-.67-9.77-8.37-1.1-8.51-2.2-13.09-5.67-12.17-3.08.82-6.16-.72-6.88-3.37-1.26-4.62 7.21-7.84 18.9-8.04zm705.86 35.7c.44.77 1.06 1.68 1.45 2.45 18.62 36.04 49.9 101.29 41.23 141.8-13.09 1.5-28.63 4.48-55.62 10.54-43.98 9.81-78.33 45.8-85.98 76.98 16.98 7.22 24.34.15 50.61-13.23 12.03-6.1 63.76-1.06 80.74-35.84 6.4 54.85-93.53 120.29-152.19 104.6-22.08-5.92-48.45-25.45-72.65-50.86 98.3-39.21 170.8-124.67 192.46-236.44zM173.65 684.7C195.83 808.36 277.1 893.43 417.25 916c-2.97 1.2-5.91 3.36-8.94 4.08-58.66 13.33-139.4 20.79-170.43 16.46-18.96-2.65-25.07-4-36.38-13 28.54 3.28 75.55 4.34 87.96-28.14 2.8-6.4-54.42 1.25-73.95-26.23-12.9-18.09-36-36.28-53.85-40.03-9-1.87-12.99-12.17-15.68-20.6-12.9-40.6 3.46-84.24 27.67-123.84zm634.99 145.16c3.46 0 6.3 3.85 6.3 8.47 0 8.66-41.67 21.17-49.22 14.87-5.4-4.47 34.4-23.34 42.92-23.34zm122.6 24.98c1.78.14 2.88.62 2.88 1.54 0 1.73-4.42 5.87-9.76 9.14-7.99 4.95-9.77 4.8-9.77-.63 0-3.7 4.38-7.84 9.77-9.24 2.7-.67 5.15-.96 6.88-.81zm-763.85 6.35a16.26 16.26 0 0 1 7.22 1.92c14.14 7.41 12.32 8.33 20.6 14.63 14.28 10.87 22.12 24.88 63.75 24.4-40.8 16.35-70.88.48-81.9-3.23-13.09-4.33-15.59-10.1-18.57-15.25a16.22 16.22 0 0 1-1.1-13.23c1.72-6.36 5.62-9.15 10-9.2zm425.93 47.1c13.76 16.99 26.99 31.28 36.95 38.16-8.66 1.83-44.27-13.95-98.11-1.59-50.04-23.53-66.88-15.1-76.02-20.54 1.1-1.01 2.07-2.5 3.17-3.56 11.98.81 24.2 1.3 36.9 1.3 33.98 0 66.55-4.82 97.1-13.77z"/></svg>
