<svg viewBox="0 0 1000 1000"><path d="M476.86 8.38c-21.69 14.15-50.81 31.48-55.19 68.83-42.66-21.5-71.05-27.53-167.77-34.69 2.78-8.7 13.82-5.73 17.72-7.24 7.89-3.07 15.22-8.4-10.17-18.13-32.81-12.59-61.06-13.35-61.8 8.83-.17 4.29 3.2 12.64 7.4 17.66-50.1 2.82-74.38 12.02-100.1 22.28C74 79.06 43.81 69.65 63.43 55.98c13.55-9.43 5.48-25.7-14.12-28.56-22.45-3.28-32.2.61-40.03 15.62-9.37 17.98-9.43 48.83 0 45.29 3.77-1.42 7.56-.38 8.48 2.32 1.12 3.3 7.25 2.84 18.16-1.37 9.07-3.5 24.47-5.75 34.26-4.94-75.74 50.22-89.8 217.3-32.32 347.6 18.5 41.94 34.41 46.86 7.25 42.54-21.14-3.36-37.9 6.51-37.9 22.35 0 13.8 3.64 24.43 12.03 30.76 5.96 4.49 11.71 4.29 14.98 16.73 3.18 12.16-.29 21.37-7.77 27.47-8.14 6.63-19.54 31.17-18.03 41.34 1.21 8.2 3.54 9.59 10.75 6.53 5.06-2.14 10.72-8.12 12.6-13.3 1.88-5.18 6.39-17.85 13.63-22.72 40.2-27.01 32.44-59.33 35.95-94.65 16.57 48.46 5.96 79.9-15.89 105.87-21.95 26.09-8.24 30.41-1.27 29.59 7.35-.87 10.6 8.53 23.55 1.86 7.68-3.93 15.11-7.13 16.54-7.13 5.97 0 1.99 9.71-7.77 18.69-10.91 10.1-39.11 13.26-44.28 4.95-5.29-8.54-9.45-5.06-25 20.8-10.78 17.9-15.37 31.43-15.37 45.26 0 24.85 7.32 23.3 23.85-5.04 8.94-15.31 19.54-24.78 39.61-35.46 36.94-19.65 45.2-31.38 53.45-58.97C162.9 495.4 65.53 448.6 39.18 394.58c77.05 84.7 178.97 117.04 270.03 102.84 31.22-4.87 67.5-25.17 99.1-51.82l55.87 79.68c-24.97 26.93-193.93 225.78-203.85 238.58-33.11 42.72-96.24 121.39-180.7 122.47-5.41.32-8.4 11.62-.97 11.52 0 0 307.12.32 307.44 0 .38-.3 9.01-8.37.13-9.5-71.67-20.8-100.56-74.84-69.75-113.43L488.31 559.7l84.06 119.88c81.14 113.35 81.58 124.5 79.18 144.33-2.97 24.66-63.09 53.79-90.07 56.3-1.88.21-2.88 2.5-3.48 5.17-16.84-11.3-32.57-23.5-45.5-37.6 11.68-9.25 19.6-12.25 23.6-22.14l8.61 8c8.9 8.25 11.2 14.64 5.7 23.11-4.38 6.76 0 5.95 6.18-1.13 2.88-3.32 4.6-7.57 4.04-10.73-.56-3.13 1.03-7.91 3.5-10.74 4.95-5.67 6.32-24.86.16-29.96-6.83-5.65-12.24-7.52-18.13-3.54-3.52 2.38-7.17 4.31-7.92 4.31-2.46 0 1.45-11.15 5.39-15.5 11.15-12.32 16.53-24.57 15-34.45-2.16-13.82-4.94-15.82-14.8-10.53-4.52 2.45-9.88 3.79-11.9 3.07-5.1-1.81-4.98-8.96 0-10.96 2.18-.88 7.93-6.9 12.72-13.36 13.22-17.84 10.88-41.34-2.92-29.08-4.56 4.05-4.39 3.94-3.17-3.68 2.72-17.02-2.61-27.74-11.7-28.3-24.19-1.46-28.34 3.63-13.9 5.83 5.5.84 9.44 1.25 12.9 3.48 5.13 3.28 4.84 39.02-.99 51.1-7.96 16.57-11.18 30.24-12.1 53.13-.55 13.32-3.45 21.78-9.72 38.84-4.76-39.13-14.62-72.12-28.06-93.17-7.04-11.02 3.8-5.97 1.32-34.47-1.54-17.67-1.27-20.68 1.81-24.3 2.3-2.7 5.11-3.68 8.02-3.02 7.02 1.62 10.26-3.97 5.9-10.46-3.97-5.9-7.76-6.45-15.57-2.15-3.67 2.02-6.1 2.32-7.53.9-3.99-3.94-7.83.33-9.69 10.54-1.43 7.9-1.27 11.15.88 13.99 1.56 2.05 2.83 4.4 2.83 5.32 0 2.62-6.97-.7-9.9-4.67-3.54-4.8-7.8-4.65-14 .5-3.07 2.56-4.9 1.13-6.65 2.89l-5.47 5.54c-4.02 4.07 6.7 8.05 6.11 11.45-1.1 6.33 3.44 11.87 12.65 15.4 6.45 2.46-.45-1.8 15.78 15.07 7.25 7.53 19.52 33.6 4.43 22.88-18.57-13.18-25.87-4.8-25.31 7.84.41 9.44 13.21 28.12 16.6 31.2 3.76 3.42-4.77 6.78-7.37 5.28-5.4-3.09-18.32 0-24.95 7.32-6.59 7.26-7.85 25.28-2.2 31.72 16.46 18.76 20.51 22.62 23.33 22.62 5.7 0 6.14-4.68 1.13-13.23 0 0-4.37-5.17-4.9-8.36-3.14-18.9 27.46-33.92 42.9-4.62.69 1.29 1.23 14.99 4.7 18.33-1.36 6.4-6.2 9.72-9.1 14.28-8.7 13.67-33.64 41.75-67.1 58.3-65.72-1.8-94.21 39.6-122.2 44.93-57.26 10.9-118.87-4.97-145.33-23.35-21.95-15.25-44.83-14.4-66.6-28.43-60.5-38.99-55.15-140.97 7.3-181.18.89.75-2.5 13.02-7.4 27.13-4.88 14.1-8.46 29.9-7.89 35.09 2.69 24.42 8.88 39.82 20.66 50.82 12.02 11.2 40.22 21.2 50.9 18.1 2.6-.77 7.94-1.92 11.85-2.54 3.92-.63 7.84-4.46 8.6-8.54 1.13-6.05-2.03-6.94-17.29-4.9-15.04 2-20.7.47-29.15-7.9-9.05-8.97-10-13.57-7.29-33.25 2.69-19.4 1.65-24.3-6.8-32.71-7.9-7.86-10.66-5.28-9.99-9.93 4.7-32.5 30.96-45.6 65.14-42.95 20.1 1.57 38.86 36.54 39.74 45.8 2.49 26.25-15.89 39.14-30.28 38.01-15.38-1.2-22.2-15.42-22.2-25.72 0-3.5 2.68-5.53 5.95-4.15 21.96 8.93 22.6 8.93 22.6.63 0-10.25-13.82-21.81-22.67-21.56-20.16.57-27.83 22.9-24.83 31.85 15.15 45.15 67.45 42.53 86.1 7.95 7.69-14.26 2.05-29 7.12-52.29 8.55-39.23-14.62-61.18-16.12-72.96-1.26-9.93 10.15-9.04 15.81-5.27 5.38 3.58 8.32 1.67 9.98-9.43 6.17-41.13 52.42-80.08 86.15-71.56 26.98 6.82 9.94 43.15-8.98 47.25-7.37 1.6-13.4 4.64-13.4 7.15 0 5.93 38.68 5.81 49.49 0a859.57 859.57 0 0 1 19.72-10.22c10.44-5.2 11.8-7.88 11.45-22.34-.4-16.15-.13-16.43 11.27-14.18 11.45 2.26 15.55.54 8.87-11.25-33.82-59.65-92.77-46.4-141.82-1.24-13.37 12.31-23.58 21.62-23.92 20.3-2.03-7.92-2.6-15.28-4.35-20.03-3.56-9.68-2.34-11.3 11.73-15.79 24.23-7.71 22.8-17.32-3.4-23.22-4-.9-7.88-1.38-11.63-1.3l-.01.01c-11.25.23-21.15 5.44-28.3 18.84-10.38 19.5-11.2 55.86-2.8 79.87-.57 2.52-5.32 12.03-3.72 23.51 4.53 32.43 21.12 35.75 21.12 63.72 0 19.69-1.62 17.47-11.68 6.6-15.12-16.33-30.62-31.35-73.87-26.72-91 9.72-138.47 122.07-78.65 207.77 6.09 8.73 28.4 29.22 46.94 34.61-3.4 1.67-11 4.72-17.68 7.5-6.33 2.64-11.35 6.35-19.3-.18-5.97-4.9-10.65-4.35-26.12 2.98-20.37 9.63-27.64 22.07-19.13 32.25 6.1 7.3 42.76 1.35 48.5-7.92 7.07-11.41 22.4-28.7 63.59-11.1 43.3 18.52 182.05 44.81 244.53 4.6 12.4-7.98 29.78-17.57 47.67-26.72 21.27.1 32.75 8.2 31.93 14.57-1.2 9.3-7.33 13.08-6.32 18.23 1.5 7.61 23.9 22.3 28.79 9.97 4.82-12.13 18.59-9.81 24.48-3.5 2.8 2.98 11.83 6.3 20.08 7.35 27.57 3.48 32.5-1.03 32.46-29.68 0-14.78-.83-15.87-7.91-10.91-16.64 11.65-26 10.9-36.12-2.94-7.46-10.22-14.25-13.14-20.72-10.48-6.47 2.66-11.46 3.39-15.4 2.3-8.43-2.33-16.79-8.06-27.14-10.8 41.33-22.64 55.46-53.7 66.08-67.66 17.56 30.94 70.76 68.9 111.3 89.77-36.52-2.75-16.38 16.05-39.11 30.91-10.95 7.16 14.63 6.51 27.65 1.52 72.17-27.66 65.25.28 184.6 4.3 55.75 1.88 112.86-25.14 156.67-9.35 27.52 9.92 43.62 12.71 43.62 7.45 0-9.62-12.7-22.28-28.76-28.66-10.32-4.11-20.1-9.93-18.75-12.12 33.47-54.34 64.64-108.46 35.06-172.39-23.63-51.07-86.16-80.29-134.29-74.25-46.11 5.79-74.2 36.3-61.27 75.6 12.09 36.78 62.72 39.8 77.06 29.63 20.54-14.58 18.6-34 6.9-48.74-11.66-14.7-35.37-15.33-44.08-1.14-4.34 7.08-2.51 10.93 10.7 22.77 8.73 7.82 14.82 15.94 12.93 17.14-22.35 14.19-64.55-23.06-50.08-50.3 27.84-52.4 105.84-34.42 122.92 17.4 8.05 24.43 8.33 33.76-9.12 24.47-9.34-4.97-12.39-3.9-25.46 9.12-12.5 12.48-13.73 15.57-7.71 19.54 13.7 9.06 16.73 11.72 30.13 26.45 13.13 14.42 13.25 15.18 5.36 27.16-3.58 5.44-8.22 8.41-13.24 10.23-23.75-7.7-79.22-28.95-123.95-71.5-6-8.37-19.64-30.47-96.97-134.57l-133.93-191c5.37-6 23.92-27.85 34.24-39.76 2.03 1.4 4.2 3.66 6.12 4.49 25.9 11.2 43.34 45.31 63.85 47.81 19.4 2.36 25.74-1.4 34.06-1.28 6.75.1 57.66 7.07 88.87 3.8 22.97-2.41 13.99 9.99 5.97 18.4-5.77 6.05-29.13 15.33-59.8 14.77-25.99-.47-37.56 5.86-26.27 20.65 5.99 7.83 17.03 20.85 10.09 25.45-6.79 4.49-8.6 10.81-8.59 29.14 0 29.82 10.57 29.74 19.48 0 6.48-21.63 8.15-23.07 27.2-23.78 11.17-.43 71.84-32.32 75.41-34.38 23.75-13.72 28.75-28.7 26.76-40-2.75-15.58-3.67-19.5 12.82-25.04 28.87-9.7 68.08-31.62 88.49-59.23-11.27 21.44-31.43 60.11-47.35 75.6-34.06 33.16-37.23 39.96-47.18 101.22-3.55 21.82-12.41 27.08-16.74 9.95-2.95-11.64-3.6-11.8-16.7-5.08-13.52 6.94-20.92 22.47-21.54 45.1-.22 8.63-4.43 13.63-15.73 18.58-8.5 3.72-15.44 8.4-15.44 10.39 0 5.63 39.32 7.02 49.9 1.76 23.6-11.73 46.23-38.23 53.95-65.55 12.8 39.22 37.92 34.88 60.68 77.56 4.74 8.9 13.55 20.15 20.95 24.38 12.86 7.34 14.62 6.56 17.06-4.77 2.19-10.18 7.66-14.16 18.46 9.6 4.27 9.4 7.53 33.36 14.21 21.22 3.1-5.63 8.01-20.54.78-37.71-10.99-26.13-35.06-37.86-65.5-50.48-62.36-25.85-66.1-108.64-28.5-139.6 7.56-6.24 8.73-6.37 2.06 4.71-12.12 20.16-9.66 66.13 7.67 84.64 25 26.7 85.9 42.18 85.9 22.05 0-17.26-5.52-24.03-19.65-24.03-8.19 0-13.9-3.68-16.76-7.32-15.72-20.12-3.96-43.04 18.16-44.65 26.64-1.93 1.81-31.03 1.9-51.06.03-9.55 3.16-16.29-1.48-17.24-4.13-.84-3.64 5.3-8.42 12.49-5.64 8.45-15.24 14.38-24.82 16.12-11.26 2.05-21.73 12.98-23.78 16.28 2.3-8.3 3.67-12.48 4.98-20.28 3.23-19.15 10.05-33.32 24.67-57.88 75.42-126.75 59.43-294.12-45.9-358.61-34.63-21.2-30.18-26.13 15.14-11.96 42.54 13.3 59.82 9.79 66.33-13.5 6.65-23.87 6.8-23.44-9.23-31.68-19.83-10.19-50.91-1.4-33.31 9.41 7.21 4.44 5.7 10.98-3.72 15.98-5.9 3.16-16.63 1.79-35.22-4.44-14.7-4.93-46.63-10.39-71.03-12.03-27.28-1.83-46.2-5.47-49.17-9.2-15.38-19.42-57.46-21.97-68.83-9.1-7.55 8.54 2.94 18.95 11.1 22.1-43.65 2.72-98.02 15.58-119.92 39.42 1.65-5.37 5.99-20.2 2.9-32.53-5.47-21.72-19.74-39.44-41.72-40.57-3.57-.2-16.67 3.22-22.73 10.68-8.88 10.94-17.83 48.8-2.64 34.41 1.82-1.72 8.02 0 13.85 3.75 9.33 6.03 11.31 6.05 16.32 0 3.14-3.79 7.68-5.68 10-4.26 5.85 3.6 7.41 35.17-.78 45.16-23.6 28.8-42.08 72.67-40.96 136.09.13 7.22 6.75 16.8 13.13 14.07 8.18-3.5 6.46-31.4 15.04-27.53 8.77 3.95 6.2 17.6 16.95 22.66 15.27 7.18 23.85.92 12.63-36.3-2.05-6.84 5.04-17.32 6.69-28.22 3.69-24.43-4.86-31.7-17.2-14.56-15.65 21.75-21.4 14.85-8.84-16.01 18.9-46.38 68.04-83.86 117.53-68.67 11.53 3.54 18.84 22.53 10.25 22.71-6.45.13-10.51 3.06-12.12 7.23-31.2 0-80.53-.09-80.62 0-.38.3-9.02 8.37-.14 9.5 71.68 20.8 100.58 74.84 69.76 113.44L560.86 388.49c-14.36-16.55-25.82-40.41-17.98-76.69 1.72-7.97 11.39-11.6 12.03 2.14.79 17.13 26.24 12.23 29.5-5.52 2.13-11.54-23.36-34.35-34.59-30.67-48.2 15.82-31.1 84.8-3.89 129.43l-30.25 37.9-48.33-68.92c13.21-23.55 20.24-47.1 15.23-67.26-1.93-7.71-3.78-29.26-19.32-27.07-15.86 2.23-17.94 12.35-18.89 15.24-7.04 21.47 20.8 13.42 22.92 34.03.38 3.62-4.19 14.7-11.86 28.07l-21.32-30.41c-81.14-113.35-81.57-124.49-79.18-144.33 2.98-24.66 63.1-53.8 90.08-56.3 1.23-.14 2.1-1.26 2.77-2.64 4.24 3.85 8.63 7.31 12.67 11.67 21.99 23.72 27.14 60.53 14.26 58.16-1.98-.37-6.13-3-9.38-5.92-15.04-13.48-27.75 7.1-17.02 27.62 2.93 5.61 4.49 14.9 3.51 20.65-2.63 15.49 5.47 19.45 14.05 6.87 7.17-10.51 7.73-10.55 12.25-1.1 1.17 2.46 1.17 8.6 7.45 10.72 10.2 3.44 10.26-5.66 12.42-12.8 20.8-68.99-6.27-120.85-50.56-147.14-20.46-12.14-4.47-36.44 6.76-44.19 9.32-6.43 23.86-1.76 21.91 6.51-1.95 8.3 2.96 9.84 20.28 6.32 9.5-1.93 13.8-6.14 16-15.58 2.42-10.48 0-15.56-13.1-26.44-6.67-5.54-14.1-10.07-18.9-11.83-.52-.19-.99-.63-1.54-.63h-.37c-.73 0-1.21-.25-1.6 0ZM736.83 62.7c44.75-.1 110 1.08 161.36 48.63-19.65-.02-69.6.03-138.7 0 0-.16.06-.24.07-.4.8-10.98-2.4-15.78-16.82-25.2-20.57-13.41-23.02-22.99-5.91-23.03Zm-433.44 6.74c42.29 2.18 87.66 13.32 127.14 41.78-27.04-.54-69.46-.8-121.31-.73-75.33.1-126.83.47-160.7.64 27.06-23.16 63.17-36.97 103.84-40.59a365.71 365.71 0 0 1 51.03-1.1Zm-127.93 3.2c-28.34 11.97-46.72 31.25-53.06 36.92-.56.5-1 1.16-1.55 1.68-1.84 0-18.98.08-19.1.07-6.43 0-7.84 15.92-2.3 16.48 0 0 3.56 1.1 4.8 1.45-17.37 22.57-29.53 51.9-36.56 91.4-3.98 22.33-18.2 30.36-39.43 57.2-2.55-134.32 30.7-188.59 147.2-205.2Zm736.03 51.38A195.2 195.2 0 0 1 933 154.36c5.75 9.95 9.3 27.19 3.66 37.65-9.86 18.3-17.77 23.24-24.25 32.28-6.48 9.03-5.46 11.46-4.2 23.6.77 7.46 4.67 16.79 8.64 20.74 6.46 6.43 6.93-9.31 14.83-16.41 14.1-12.67 11.76 5.67 6.33 31.1-6.55 30.72-42.81 36.12-66.55 8.96-8.73-10-15.82-14.51-26.46-18.93-27.92-11.58-40.05-4.8-50.58 27.27-6.08 18.55-33.8 11.2-40.4-1.54-9.34-17.99-16.02-18.01-25.3 0-10.34 20.05 3.43 40.12 27.05 39.5 17.7-.45 22.17 9.74 5.9 12-29.27 4.06-61.37-5.7-79.1 19.32-9.33 13.15-16.87 26.39-17.19 29.1-1.23 10.6 17.42 6.3 28.11-6.5 10.53-12.61 7.43-13.05 52.96-6.07 75.42 11.56 173.34-11.3 215.1-93.25-7.77 92.56-35.05 126.9-108.8 159.7-50.55 22.46-123.4 31.94-177.56 17.41-8.38-2.25-13.61-6.47-1.61-17.5 5.65-5.19 19.08-5.5 19.78-7.94 1.8-6.33-21.58-28.98-32.51-31.45-15.65-3.54-42.3-8.64-48.13.97-4.06 6.66-8.31 6.47-17.58 1.42C654.02 347.33 733 254.52 740.13 245.32c31.85-41.1 91.7-114.74 171.37-121.3Zm-785.83 12.82c27.64 10.23 71.95 30.04 109.9 66.14 6 8.36 19.64 30.47 96.97 134.56l60.7 86.56c-15.46 7.6-32.04 9.9-48.74 1.33-36.42-18.7-57.11 7.48-62.33 11.76-13.24 10.84 6.1 17.71 10.85 19.16 10.26 3.12 15.03 15.27 5.88 17.9-53.74 15.38-155.92-17.67-210.04-62.44-35.64-29.48-46.54-54.84-54.9-71.77 41.76 42.39 90.11 62.19 124.64 70.53 40.51 9.78 119.92-22.45 107.7-72.7-2.21-9.13-9.68-15.67-12.28 3.12-2.72 19.63-18.74 33.84-33.42 27.89-9.3-3.77-19.72.32-20.59-9.59-.48-5.4 2.88-11.3 7.31-13.06 16.41-6.51 21.31-11.75 23.83-25.38 2.03-11.03.22-18.12-3.02-17.82-5.65.53-8.6 8.01-10.05 11.44-7.82 18.48-17.13 19.93-41.34 6.26-19.83-11.2-37.55-10.44-45.38-2.28-23.3 24.28 12.76 40.75 9.35 59.85-89.95-29-107.4-77.08-61.98-125.92 13.43 33.24 39.14 41.6 72.06 41.41 36.97-.22 46.15-10.77 46.15-17.19 0-8.54 3.39-4.14 9.09-8.68 18.47-14.72 17.71-58.77-19.97-76.42-32.02-15-33.5-7.98-17.98 7.13 76.66 74.64-79.5 99.27-68 4.99a144.49 144.49 0 0 1 25.59-66.78Zm346.9 73.51c5.41.68 7.21 5.62 4.94 10.5-2.26 4.86-6.36 8.2-9.06 7.21-2.73-.99-4.46-5.97-4.02-11.41.34-4.23 2.72-6.97 8.14-6.3Zm347.48 112.88c3.65.13 6.29 1.02 7.15 3.57 1.39 4.06-1 7.25-9.27 9.07-8.17 1.81-17.55.82-20.62-2.39-3.1-3.22 1.28-8.21 9.38-9.15 5-.57 9.7-1.23 13.36-1.1ZM155.02 347.5c2.43-1.07 9.86 3.69 16.8 10.26 5.05 4.75 14.66 5.62 12.56 11.86-2.19 6.5-9.03-2.8-15.6-4.85-11.34-3.53-18.34-9.6-17.41-13.75.54-2.39 1.9-2.75 3.65-3.52ZM60.39 513.27c3.38 0 5.82 2.4 5.7 5.47-.13 3.05-2.8 12.06-5.7 20.08-4.64 12.95-5.27 12.39-5.61-5.43-.33-11.04 2.24-20.12 5.6-20.12ZM496.27 686.1c-2.99.66-7.63 17.65-5.33 21.9 3.56 6.62 9.1 45.85 7.77 54.98-.76 5.25.2 10.3 2.3 13.25 4.27 6.02 4.52-1.61 4.86-4.33.63-4.93 1.71-25.34 2.27-45.32.94-33.57.62-36.6-3.8-39.03-2.31-1.27-5.07-2.11-8.06-1.45Zm426.66 52.5c.97.1 2.65 1.11 5.18 3.29 70.67 60.9 24.3 176.74-37.7 194.32-97.32 27.6-223.64 12.02-313.41-39.13 77.68 1.56 325.9-.2 327.72-.06 2.99 0 4.76-3.51 5.39-7.25 2.1-1.31 4.19-2.61 6.27-4.75 29.92-30.73 38.74-93.22 13.25-130-6.17-8.9-9.63-16.74-6.7-16.42Z"/></svg>
