<svg viewBox="0 0 1000 1000"><path d="M476.48.13c-22.06 14.34-51.69 32-56.12 69.97-43.38-21.83-72.26-28.02-170.58-35.26 2.8-8.86 14.01-5.87 17.99-7.37 8.05-3.12 15.48-8.53-10.33-18.44-33.35-12.81-62.1-13.56-62.8 8.96-.17 4.37 3.25 12.87 7.49 17.96-50.91 2.87-75.61 12.25-101.75 22.68-33.5 13.36-64.2 3.78-44.26-10.1 13.79-9.62 5.57-26.14-14.34-29.07-22.81-3.33-32.76.65-40.74 15.9-9.52 18.25-9.55 49.64 0 46.05 3.85-1.46 7.72-.39 8.64 2.35 1.14 3.36 7.4 2.9 18.48-1.37A93.86 93.86 0 0 1 63 77.34C-14.05 128.4-28.36 298.3 30.1 430.79c18.8 42.63 34.97 47.65 7.37 43.25-21.51-3.42-38.56 6.62-38.56 22.72 0 14.04 3.72 24.86 12.22 31.28 6.07 4.57 11.93 4.37 15.26 17.02 3.26 12.38-.33 21.73-7.92 27.93-8.25 6.74-19.88 31.67-18.32 42.04 1.24 8.34 3.59 9.74 10.92 6.65a26.72 26.72 0 0 0 12.8-13.53c1.96-5.28 6.52-18.15 13.89-23.1 40.84-27.48 32.98-60.33 36.57-96.25 16.81 49.28 6.03 81.25-16.17 107.65-22.32 26.53-8.4 30.93-1.3 30.08 7.5-.88 10.75 8.67 23.95 1.9 7.83-3.98 15.35-7.24 16.82-7.24 6.06 0 2.02 9.87-7.92 19-11.08 10.27-39.76 13.46-45 5.02-5.39-8.67-9.62-5.15-25.43 21.15C8.31 684.55 3.65 698.3 3.65 712.38c0 25.29 7.46 23.7 24.25-5.12 9.12-15.58 19.88-25.2 40.28-36.04 37.58-19.98 45.95-31.94 54.36-59.97 34.71-115.93-64.3-163.51-91.1-218.43C109.8 478.92 213.4 511.78 306 497.37c31.74-4.95 68.76-25.42 100.9-52.5l56.7 80.83c-25.41 27.37-197.2 229.57-207.27 242.57-33.7 43.45-97.87 123.46-183.75 124.53-5.54.33-8.57 11.83-.98 11.74 0 0 312.26.32 312.58 0 .4-.33 9.16-8.51.13-9.65-72.87-21.19-102.24-76.1-70.92-115.37L488.12 560.7l85.45 121.89c82.52 115.24 82.98 126.58 80.53 146.76-3.03 25.06-64.14 54.69-91.58 57.23-2.05.23-3.1 2.87-3.65 5.83a253.43 253.43 0 0 1-46.15-38.78c11.87-9.45 19.88-12.48 23.99-22.52l8.77 8.15c9.02 8.37 11.37 14.86 5.8 23.46-4.47 6.88 0 6.06 6.25-1.14 2.94-3.36 4.7-7.7 4.11-10.92a15.06 15.06 0 0 1 3.59-10.92c5.02-5.76 6.42-25.25.16-30.47-6.94-5.73-12.45-7.62-18.45-3.58-3.58 2.4-7.3 4.36-8.05 4.36-2.5 0 1.47-11.3 5.48-15.74 11.34-12.51 16.82-25 15.25-35.03-2.18-14.02-5.02-16.07-15.06-10.7-4.56 2.48-10.03 3.85-12.09 3.1-5.18-1.82-5.08-9.09 0-11.14 2.22-.88 8.05-7.01 12.94-13.56 13.43-18.15 11.08-42.04-2.96-29.6-4.67 4.15-4.47 4.02-3.26-3.74 2.8-17.27-2.61-28.2-11.87-28.75-24.6-1.5-28.84 3.69-14.14 5.93 5.6.85 9.58 1.28 13.13 3.52 5.22 3.36 4.9 39.7-1 51.99-8.12 16.81-11.41 30.73-12.33 54-.55 13.53-3.48 22.16-9.87 39.5-4.86-39.76-14.86-73.33-28.52-94.74-7.17-11.21 3.85-6.06 1.3-35.07-1.56-17.92-1.27-21.02 1.86-24.7 2.35-2.74 5.22-3.72 8.15-3.07 7.17 1.63 10.43-4.04 6-10.62-4.01-6.03-7.9-6.55-15.81-2.19-3.75 2.06-6.2 2.35-7.66.92-4.07-4.01-7.98.32-9.87 10.72-1.44 8.02-1.3 11.34.9 14.21 1.57 2.09 2.88 4.5 2.88 5.41 0 2.67-7.08-.72-10.07-4.76-3.59-4.89-7.92-4.72-14.25.52-3.1 2.61-4.95 1.14-6.74 2.94l-5.54 5.63c-4.11 4.14 6.8 8.18 6.19 11.64-1.11 6.45 3.49 12.06 12.87 15.64 6.55 2.51-.49-1.82 16.04 15.32 7.36 7.7 19.84 34.19 4.5 23.3-18.9-13.42-26.3-4.88-25.75 7.96.42 9.61 13.46 28.58 16.88 31.74 3.85 3.45-4.82 6.88-7.5 5.34-5.47-3.12-18.6 0-25.35 7.47-6.68 7.36-7.99 25.68-2.22 32.26 16.72 19.07 20.86 22.98 23.7 22.98 5.8 0 6.25-4.76 1.14-13.46 0 0-4.44-5.25-4.96-8.47-3.2-19.23 27.9-34.52 43.6-4.73.73 1.3 1.25 15.25 4.8 18.64-1.4 6.52-6.32 9.91-9.26 14.54-8.86 13.88-34.22 42.43-68.24 59.28-66.81-1.82-95.79 40.25-124.24 45.66-58.24 11.08-120.88-5.05-147.77-23.72-22.32-15.52-45.6-14.67-67.72-28.91-61.5-39.67-56.06-143.34 7.43-184.24.88.78-2.58 13.26-7.53 27.6s-8.6 30.38-8.02 35.66c2.74 24.83 9.03 40.51 21 51.69 12.21 11.4 40.9 21.57 51.75 18.38 2.64-.75 8.08-1.92 12.05-2.54a11.54 11.54 0 0 0 8.74-8.7c1.17-6.16-2.05-7.08-17.57-4.99-15.32 2.05-21.05.49-29.66-8.02-9.19-9.12-10.16-13.82-7.4-33.8 2.74-19.75 1.67-24.73-6.9-33.27-8.05-7.99-10.86-5.38-10.17-10.1 4.79-33.05 31.48-46.38 66.22-43.68 20.44 1.6 39.54 37.16 40.42 46.58 2.54 26.69-16.17 39.8-30.77 38.65-15.64-1.24-22.59-15.68-22.59-26.17 0-3.55 2.71-5.6 6.07-4.2 22.32 9.09 22.97 9.09 22.97.65 0-10.43-14.08-22.17-23.07-21.94-20.5.59-28.29 23.3-25.23 32.4 15.39 45.89 68.58 43.25 87.54 8.08 7.83-14.5 2.09-29.5 7.24-53.19 8.7-39.89-14.86-62.18-16.4-74.18-1.3-10.1 10.34-9.19 16.07-5.37 5.48 3.65 8.48 1.72 10.17-9.58 6.26-41.82 53.29-81.42 87.57-72.75 27.45 6.91 10.1 43.87-9.12 48.04-7.5 1.63-13.62 4.73-13.62 7.27 0 6.03 39.33 5.9 50.32 0a879.31 879.31 0 0 1 20.04-10.4c10.62-5.28 12.03-8.01 11.67-22.71-.43-16.43-.13-16.69 11.44-14.4 11.66 2.27 15.84.55 9.02-11.45-34.38-60.65-94.31-47.19-144.18-1.27-13.62 12.52-23.99 22-24.34 20.66-2.06-8.08-2.61-15.54-4.4-20.4-3.62-9.8-2.38-11.47 11.92-16.03 24.61-7.83 23.14-17.6-3.48-23.63a49.28 49.28 0 0 0-11.8-1.3c-11.47.22-21.51 5.53-28.78 19.16-10.56 19.81-11.4 56.8-2.87 81.22-.58 2.54-5.4 12.22-3.78 23.88 4.6 32.99 21.48 36.38 21.48 64.8 0 20.04-1.63 17.76-11.86 6.71-15.39-16.62-31.16-31.87-75.13-27.18-92.56 9.9-140.79 124.17-79.98 211.29 6.2 8.86 28.88 29.69 47.72 35.2-3.46 1.69-11.18 4.79-17.96 7.62-6.45 2.67-11.54 6.42-19.62-.2-6.1-4.98-10.82-4.43-26.56 3.04-20.73 9.77-28.1 22.42-19.46 32.78 6.2 7.44 43.48 1.37 49.31-8.05 7.17-11.6 22.82-29.16 64.66-11.27 44.03 18.8 185.12 45.56 248.67 4.66 12.58-8.12 30.25-17.86 48.43-27.15 21.65.1 33.31 8.31 32.5 14.8-1.24 9.45-7.5 13.3-6.45 18.54 1.53 7.72 24.3 22.65 29.3 10.14 4.88-12.36 18.9-9.98 24.86-3.59 2.84 3.06 12.06 6.45 20.44 7.5 28.02 3.55 33.04-1.05 32.98-30.18 0-15.03-.82-16.13-8.02-11.08-16.95 11.83-26.46 11.08-36.73-3-7.6-10.4-14.5-13.36-21.09-10.66-6.55 2.7-11.63 3.46-15.64 2.35-8.57-2.38-17.08-8.22-27.6-10.99 42.04-23.04 56.38-54.59 67.2-68.8 17.86 31.45 71.93 70.08 113.19 91.26-37.16-2.77-16.69 16.33-39.8 31.45-11.14 7.27 14.87 6.62 28.13 1.53 73.36-28.12 66.32.33 187.73 4.4 56.64 1.9 114.72-25.58 159.27-9.51 28 10.1 44.32 12.9 44.32 7.56 0-9.78-12.9-22.65-29.2-29.14-10.53-4.17-20.47-10.1-19.1-12.32 34.06-55.27 65.74-110.29 35.66-175.28-24.02-51.95-87.6-81.64-136.56-75.5-46.87 5.86-75.42 36.92-62.25 76.87 12.26 37.39 63.75 40.48 78.32 30.12 20.89-14.8 18.9-34.55 7.04-49.54-11.87-15-35.98-15.61-44.85-1.17-4.4 7.2-2.54 11.08 10.89 23.14 8.9 7.95 15.05 16.23 13.16 17.43-22.74 14.44-65.63-23.46-50.94-51.17 28.33-53.25 107.62-34.97 125 17.73 8.17 24.84 8.47 34.32-9.26 24.87-9.52-5.05-12.62-3.98-25.91 9.29-12.71 12.68-13.95 15.84-7.83 19.88 13.92 9.2 17.02 11.9 30.64 26.85 13.36 14.67 13.46 15.45 5.44 27.64a26.86 26.86 0 0 1-12.77 10.6c-23.37-7.5-80.47-28.88-126.72-72.91-6.1-8.48-19.98-30.96-98.62-136.82L540.7 479.42c6.68-7.4 20.72-23.66 34.54-39.67a37.34 37.34 0 0 0 6.52 3.85c26.3 11.4 44.03 46.05 64.89 48.6 19.75 2.4 26.17-1.44 34.64-1.31 6.85.1 58.64 7.17 90.35 3.88 23.36-2.45 14.24 10.13 6.1 18.7-5.88 6.16-29.67 15.58-60.82 15-26.4-.46-38.2 5.96-26.73 21.02 6.1 7.95 17.34 21.18 10.27 25.88-6.88 4.56-8.74 10.98-8.74 29.65 0 30.31 10.76 30.22 19.82 0 6.58-22.03 8.28-23.46 27.67-24.21 11.34-.43 73.04-32.85 76.65-34.97 24.15-13.95 29.24-29.17 27.22-40.68-2.77-15.84-3.72-19.81 13.03-25.42 29.33-9.87 69.23-32.17 89.95-60.26-11.4 21.84-31.93 61.14-48.1 76.92-34.64 33.66-37.87 40.6-47.97 102.89-3.59 22.16-12.62 27.54-17.02 10.1-3-11.83-3.68-12-16.98-5.15-13.75 7.04-21.28 22.81-21.9 45.86-.23 8.8-4.53 13.85-16 18.9-8.64 3.78-15.71 8.5-15.71 10.56 0 5.7 39.99 7.14 50.74 1.8 24-11.94 47-38.89 54.86-66.66 13.03 39.86 38.55 35.46 61.7 78.87 4.81 9.03 13.78 20.47 21.3 24.77 13.04 7.47 14.87 6.68 17.34-4.85 2.22-10.33 7.8-14.4 18.78 9.77 4.33 9.55 7.66 33.9 14.43 21.58 3.17-5.74 8.15-20.9.82-38.36-11.18-26.56-35.66-38.46-66.62-51.33-63.42-26.27-67.2-110.45-29-141.94 7.72-6.35 8.9-6.48 2.12 4.8-12.32 20.5-9.81 67.23 7.82 86.04 25.42 27.14 87.3 42.92 87.3 22.42 0-17.54-5.6-24.45-19.97-24.45a21.35 21.35 0 0 1-17.01-7.43c-15.97-20.43-4.04-43.77 18.44-45.4 27.09-1.95 1.86-31.54 1.96-51.91 0-9.72 3.2-16.56-1.53-17.5-4.2-.88-3.68 5.37-8.54 12.67a39.66 39.66 0 0 1-25.26 16.4c-11.44 2.08-22.1 13.2-24.18 16.55 2.35-8.44 3.71-12.7 5.05-20.63 3.3-19.45 10.23-33.9 25.1-58.86 76.68-128.86 60.42-299.05-46.68-364.63-35.2-21.54-30.66-26.56 15.42-12.15 43.25 13.52 60.82 9.97 67.43-13.7 6.75-24.3 6.91-23.85-9.38-32.26-20.18-10.33-51.76-1.4-33.9 9.58 7.37 4.53 5.8 11.18-3.75 16.27-6.03 3.2-16.91 1.79-35.82-4.53-14.95-5.02-47.42-10.56-72.22-12.22-27.73-1.86-47-5.55-50-9.36C773.49 3.16 730.7.55 719.16 13.66c-7.69 8.66 2.97 19.26 11.28 22.48-44.39 2.74-99.66 15.84-121.96 40.1 1.7-5.48 6.1-20.57 2.94-33.09-5.54-22.1-20.05-40.12-42.37-41.26-3.65-.2-16.95 3.26-23.14 10.85-9.03 11.12-18.12 49.6-2.7 35 1.85-1.75 8.18 0 14.1 3.79 9.46 6.16 11.51 6.19 16.63 0 3.16-3.85 7.75-5.77 10.1-4.3 5.97 3.64 7.56 35.75-.75 45.92-24.02 29.26-42.79 73.88-41.65 138.35.13 7.33 6.84 17.1 13.36 14.34 8.31-3.59 6.52-31.94 15.29-28.03 8.9 4.04 6.29 17.92 17.2 23.04 15.55 7.3 24.29.94 12.88-36.9-2.12-6.94 5.12-17.6 6.78-28.67 3.75-24.87-4.96-32.27-17.5-14.83-15.9 22.13-21.74 15.09-8.97-16.3 19.23-47.13 69.16-85.26 119.48-69.8 11.74 3.58 19.17 22.9 10.43 23.1-6.61.13-11.01 3.03-12.61 7.33-31.52 0-81.58-.06-81.67 0-.4.33-9.16 8.5-.13 9.68 72.87 21.12 102.2 76.1 70.91 115.3l-125.47 157.2c-14.54-16.82-25.94-41.66-18.02-78.35 1.76-8.12 11.6-11.8 12.25 2.18.78 17.4 26.66 12.42 29.98-5.64 2.19-11.73-23.76-34.9-35.16-31.19-48.99 16.1-31.84 86.5-4.17 131.9l-30.54 38.26-48.76-69.52c13.63-24.11 20.2-48.3 15.1-68.96-1.96-7.82-3.85-29.76-19.63-27.5-16.13 2.27-18.25 12.54-19.23 15.47-7.17 21.84 21.19 13.66 23.3 34.62.4 3.68-4.23 14.96-12.05 28.51L433 325.84c-82.48-115.24-82.94-126.58-80.5-146.75 3.03-25.1 64.14-54.69 91.58-57.26 1.44-.17 2.45-1.44 3.17-3.2 4.23 3.91 8.47 7.99 12.54 12.39 22.36 24.11 27.6 61.56 14.5 59.15-2.01-.4-6.25-3.06-9.54-6.03-15.32-13.69-28.23 7.2-17.3 28.1a39.1 39.1 0 0 1 3.58 20.98c-2.68 15.74 5.54 19.79 14.27 6.98 7.3-10.7 7.86-10.73 12.45-1.11 1.17 2.5 1.17 8.73 7.56 10.88 10.37 3.52 10.43-5.73 12.65-13.03 21.15-70.1-6.39-122.87-51.43-149.6-20.8-12.32-4.53-37.02 6.88-44.9 9.48-6.52 24.28-1.8 22.29 6.61-1.96 8.47 3 10 20.63 6.42 9.65-1.96 14.01-6.22 16.26-15.84 2.45-10.66 0-15.84-13.33-26.89A75.38 75.38 0 0 0 480.03.72c-.52-.2-.97-.65-1.53-.65h-.39c-.75 0-1.24-.23-1.63 0zM740.8 55.34c45.75-.1 112.86.3 165.23 49.44H763.87l.06-.39c.79-11.18-2.44-16.04-17.1-25.62-20.93-13.65-23.4-23.4-6.03-23.43zm-467.36 6.52c49.96-1.24 107.65 7.53 156.27 42.7-27.86-.5-72.35-.66-123.68-.63-76.69.1-129.16.5-163.54.66 27.5-23.6 64.33-37.58 105.72-41.27 8.12-.71 16.56-1.23 25.23-1.46zm-103.45 3.58c-28.8 12.22-47.48 31.81-53.9 37.55-.59.55-1.14 1.17-1.73 1.7l-19.26.1c-6.52 0-7.99 16.16-2.35 16.74l4.83 1.47c-17.64 22.94-29.99 52.8-37.13 92.95-4.04 22.68-18.48 30.86-40.08 58.14C17.76 137.53 51.59 82.36 170.03 65.48zm747.97 51.76a198.15 198.15 0 0 1 22.33 31.35c5.86 10.1 9.45 27.64 3.71 38.26-10.04 18.64-18.05 23.66-24.67 32.82-6.58 9.2-5.54 11.67-4.24 24.02.79 7.56 4.73 17.08 8.77 21.09 6.55 6.52 7.04-9.45 15.09-16.69 14.34-12.87 11.96 5.77 6.42 31.62-6.65 31.25-43.54 36.73-67.66 9.12a64.53 64.53 0 0 0-26.92-19.23c-28.35-11.8-40.74-4.89-51.43 27.7-6.2 18.87-34.35 11.41-41.06-1.56-9.52-18.28-16.3-18.32-25.75 0-10.5 20.4 3.49 40.77 27.5 40.15 18-.45 22.56 9.91 6 12.22-29.75 4.11-62.38-5.8-80.43 19.62-9.45 13.37-17.14 26.86-17.47 29.6-1.24 10.78 17.73 6.42 28.58-6.62 10.72-12.8 7.56-13.26 53.88-6.16 76.68 11.73 176.25-11.47 218.68-94.84-7.89 94.12-35.62 129.06-110.61 162.4-51.4 22.85-125.48 32.5-180.56 17.73-8.5-2.28-13.82-6.58-1.63-17.8 5.74-5.27 19.43-5.6 20.11-8.08 1.86-6.45-21.93-29.46-33.05-31.97-15.9-3.58-43.02-8.8-48.95.98-4.17 6.88-8.02 7.27-17.8 1.83 59.49-69.33 140.48-164.85 147.35-173.72 32.37-41.71 92.95-117 173.81-123.84zm-798.84 13.03c28.22 10.6 74.08 31.65 112.01 67.76 6.1 8.48 19.95 30.96 98.6 136.82l61.85 88.22c-15.74 7.76-32.69 9.88-49.7 1.14-37.02-19.03-58.08 7.6-63.4 11.97-13.45 11.01 6.2 17.99 11.06 19.45 10.43 3.2 15.28 15.55 5.96 18.22-54.62 15.64-158.52-17.96-213.57-63.49-36.24-29.98-47.32-55.73-55.83-73a267.87 267.87 0 0 0 126.78 71.73c41.17 9.94 121.9-22.81 109.5-73.91-2.27-9.3-9.87-15.94-12.5 3.16-2.78 19.98-19.04 34.41-34 28.35-9.45-3.81-20.04.33-20.92-9.74-.5-5.48 2.93-11.48 7.43-13.27 16.69-6.61 21.67-11.96 24.25-25.81 2.05-11.21.2-18.41-3.1-18.12-5.74.55-8.73 8.15-10.2 11.63-7.95 18.78-17.44 20.28-42.04 6.36-20.18-11.4-38.17-10.6-46.15-2.28-23.7 24.67 12.97 41.39 9.51 60.85-91.45-29.5-109.18-78.39-63.03-128.09 13.7 33.83 39.83 42.34 73.27 42.14 37.6-.23 46.93-10.95 46.93-17.47 0-8.7 3.45-4.23 9.25-8.83 18.78-15 18-59.77-20.3-77.7-32.6-15.25-34.06-8.14-18.28 7.24 77.96 75.9-80.83 100.93-69.16 5.08 3.26-26.6 12.32-49.4 25.75-68.44zm352.96 75.26c5.54.65 7.37 5.7 5.05 10.65-2.31 4.96-6.48 8.35-9.22 7.34-2.77-.98-4.56-6.06-4.07-11.6.32-4.3 2.77-7.08 8.24-6.4zM825.4 320.24c3.75.13 6.42 1.04 7.3 3.65 1.4 4.14-1 7.37-9.45 9.22-8.28 1.83-17.83.82-20.96-2.44-3.16-3.26 1.3-8.34 9.55-9.29 5.09-.58 9.85-1.27 13.56-1.14zm-676.17 24.7c2.45-1.1 10 3.75 17.08 10.43 5.12 4.83 14.9 5.7 12.78 12.06-2.25 6.62-9.2-2.86-15.88-4.95-11.53-3.59-18.64-9.75-17.7-13.98.56-2.41 1.96-2.77 3.72-3.59zM53 513.48c3.46 0 5.93 2.45 5.8 5.58-.13 3.1-2.83 12.25-5.8 20.43-4.7 13.17-5.34 12.58-5.7-5.54-.33-11.21 2.28-20.47 5.7-20.47zm443.24 175.74c-3.06.68-7.79 17.95-5.44 22.29 3.62 6.71 9.25 46.6 7.92 55.9-.78 5.34.2 10.49 2.31 13.49 4.37 6.09 4.6-1.63 4.96-4.44.65-5.02 1.72-25.74 2.28-46.08.97-34.12.65-37.22-3.85-39.66a11.64 11.64 0 0 0-8.21-1.5zm433.79 53.38c1.01.13 2.7 1.14 5.28 3.36 71.86 61.92 24.7 179.7-38.33 197.6-99.14 28.1-228.33 12.55-319.62-39.7 80.7 1.53 332.33-.32 334.16-.16 3 0 4.89-3.4 5.54-7.14a34.49 34.49 0 0 0 6.35-5.05c30.41-31.29 39.37-94.8 13.46-132.19-6.29-9.06-9.77-17.01-6.84-16.72z"/></svg>
