<svg viewBox="0 0 1000 1000"><path d="M958.73.26c-23.3-.2-30.83 7.23-29.09 28.67 1.75 21.5-9.25 22.95-29.25 3.84-15.73-15.03-55-16.53-81 1.27-78.9-11.05-122.53-29.34-214.53 39.05-15.6 15.04-25.39 25.2-21.18 15.8 7.55-16.82 32.8-45.63 44.73-51.03 32.14-14.53 33.83-32.65 2.91-31.04-10.24.54-21.08 2.39-24.08 4.1-3 1.72-12.77.68-21.7-2.31-25.43-8.52-29.69-2.26-30.16 44.25-.22 21.6-2.46 42.83-4.98 47.19-2.51 4.35-7.22 24.63-10.45 45.07-3.24 20.44-15.63 40.34-18.78 41.55-8.2 3.14-11.02-38.48-33.7-64.05-10.19-11.5 10.6-23.58 3.71-42.58-6.89-19.01-14.46-28.98.24-37.9 9.92-6.02 11.67-9.66 9.16-19.14-5.19-19.6-11.49-22.38-44.4-19.55-27.06 2.32-30.97 3.91-38.8 15.83-10.56 16.07-6.3 26.02 16.44 38.45 16.38 8.94 35.6 36.4 29.46 42.08-2 1.86-8.03-7.34-17.55-16.38-40.8-38.75-86.6-75.13-226.76-64.64-5.52.41-21.78-6.7-40.5-1.85-34.73 9.01-60.94 20.73-83.92 21.04-13.64.18-38.37-.13-30.33-8.16 2.74-2.75 6.64-12.16 2.7-16C52.05-.65 41.66-.48 26.01 4.9c-11.28 3.88-13.94 7.8-14.93 21.58-2.83 39.53 36.02 38.48 70.8 38.36 22.9-.09 67.97-5.06 84.96-7.88C105.73 81.4 88.16 107 74.2 122.74c-8.36 9.42-20.44 26.86-22.4 26.97-6.4.35-8.97-16.47.14-25.57 13.49-13.47 10.09-22.5-6.32-16.82-9.24 3.2-19.78 5.36-24.93-.48-9.2-10.45-25.37-11.34-24.9-1.37.18 3.62 3.02 8.13 4.84 10.08 6.97 7.49-.28 13.55 6.86 30.56 6.03 14.34 22.65 12.45 27.55 31.67C-1.35 250.63-3.36 276-4.42 334.68c-.9 49.02 12.59 69.9 24.98 88.58 15.04 22.66 16.02 29.3 5.27 35.31-8.78 4.92-4.12 17 5.18 13.44 3.25-1.25 13.51 13.37 27.05 26.69 87.53 86.14 186.2 71.83 239.87 38.07 26.18-16.47 44.07-50.75 44.07-80.9 0-36-14.93-71.21-41.53-75.15-22.75-3.37-44.23 6.86-44.23 21.05 0 5.04 2.63 15.58 8.57 17 5.95 1.42 10.81.43 10.81-2.2 0-2.64 7.75-5.37 16.75-3.25 47.66 11.2 27.35 82.87-.56 83.49-6.49.14-14.71-1.14-14.71-7.48 0-5.17-6.33-12.49-14.06-16.26-12.62-6.17-14.83-5.9-21.62 2.57-11.4 14.23-13.98 31.04 1.79 35.3 20.4 5.53 16.93 17.8 6.12 20.6-67.09 17.37-138.62-7.92-165.36-54.35-7.89-13.7 1.6-16.77 13.55-3.55 10 11.05 21.91 7.49 40.69 10.86 26.86 4.82 16.5-19.24 5.19-36.09-12.06-17.96-55.67-29.93-70.38-43.63-16.85-15.68-42.5-29.36-38.69-97.13 3.07-54.4 69.1-79.58 93.92-77.25 16.22 1.53 32.68 24.95 23.3 47.34-14.9 35.52-15.23 41.78-3.21 61.8 12.5 20.8 19.41 23.2 26.5 9.2 6.22-12.32 12.15-5.14 14.44 11.15 2.2 15.56 26.18 36.4 39.7 34.48 10.28-1.45 4.89-15.27-12.48-31.94-10.54-10.11-11.28-23.63-5.98-109.4 1.26-20.34-.8-30.44-7.87-38.6-14.24-16.44-41.91-30.1-57.75-28.5-22.25 2.22-81.84 12.25-104.66 45.65 12.02-40.81 34.79-75.83 63.67-104.27 11.66.16 89.4 5.02 158.25 116.02 41 66.1 72.3 117.8 114.7 187.2 26.57 43.49 48.35 69.1 60.9 109.2-8 9.48-18.03 17.7-32.06 25.59-18 10.14-18.22 12.8-16.5 5.83 4.71-19.28-14.08-41.22-18.5-40.54-1.56.24-5.94 5.18-9.76 10.98a25.84 25.84 0 0 0-3.36 21.7c2.76 9.86 3.42 14.87 7 19.64-45.52 7.8-78.5 14.45-114.41 27.17-2.96-10.27-4.4-13.31-8.28-11.85-1.32.5-2.94 1.52-4.98 2.94-3.86 2.68-7.81 10.1-9.97 18.06-35.89 15.43-84.97 42.03-93.9 49.1 0-13.27-1.45-14.78-14.2-14.78-15.57 0-18.33-7.74-8.43-23.6 4.9-7.83 4.16-10.77-4.74-19.06-19.68-18.34-7.58-42.43 14.41-28.7 8.8 5.5 11.9 4 6.16-7.23-23.8-46.63-74.35 5.52-63.54 25.83 5.36 10.05 6.35 15.42 2.72 19.04-18.1 18.11-24.98-41.93-7.5-65.57 13.74-18.6 9-28.58-13.52-28.5-23.07.1-42.57 9.23-43.02 21.97-2.02 56.04 22.9 97.83 70.85 110.68 20.96 5.61 32.8 23.72 15.94 32.12-69.49 34.66-123.01 163-73.14 254.32-9.27 3.85-15.8 19.03-13.42 29.07 3.35 14.14 23.68 25.46 36.42 22.17 11.82-3.05 19.6-18.26 18.56-28.45 31.39 23.23 69.94 32.21 107.56 32.32 125.31.37 164.45-16.32 225.23-48.45 9.47-5 18.53-9.1 20.13-9.1 6.46 0 2.21 9.72-9.26 21.2-16.26 16.26-13.33 27.17 8.7 32.38 21.89 5.18 31.88 1.79 31.88-10.82 0-11.3 10.52-12.67 19-2.46 4.61 5.57 7.42 5.93 12.62 1.62 5.28-4.39 8.12-3.51 13.55 4.23 4.37 6.25 10.17 8.92 16.02 7.4 14.43-3.78 15.77-14.6 2.59-32.91-31.3-43.5-78.45-52.25-128.12-28.4-63.6 30.55-104.84 38.95-168.36 39.97 51.06-18.36 101.44-35.48 134.28-69.73 18.91-.13 78.4-1.54 156.06-1.54 80.07 0 144.23 1.53 160.89 1.59 16.66.05 17.7-.17 17.7-2.62 0-4.52.46-8.56-2.06-8.56-68.76.18-128.3-35.96-128.3-114.52 0-45.3-.3-71.12-.4-156.48-.08-69.36-3.35-84.47 21.33-129.9 22.1 23.48 47.9 44.66 72.22 61.05-3.7 4.82-12.01 10.51-15.8 17.86-9.3 18.01-4.62 23.25 23.28 9.99 17.87-8.5 23.72-7.92 34.14-3.52 7.25 3.07 58.3 22.64 115.89 52.77-4.2 1.01-9.9 1.66-15.98 2.2-45.13 4.02-46.6 22.03-31.78 31.93 14.78 9.87 12.55 13.35-19.79 30.9-14.95 8.1-30.82 19.6-35.26 25.52-.4.54-.98 1.26-1.45 1.87.99-6.64 2.25-14.03 3.85-22.25 6.15-31.71 1.74-43.04-26.84-69-15.17-13.8-25.53-17.27-44.77-15.05-28.8 3.33-44.3 15.33-56.8 44-7.07 16.21-6.63 21.1 2.25 24.66 9.54 3.82 11.77 2.5 16.07-9.58 3.84-10.81 9.12-14.55 23.07-16.4 22.49-2.96 27.68 6.14 18.82 33-4.7 14.3-3.57 26.95 3.6 40.15 9.64 17.74 11.45 18.4 22.75 8.11 12.16-11.06 18.26-7.64 17.46 8.21-52.4 123.97 70.64 206.96 141.96 225.1-68.77 6.85-105.49.45-168.15-24.67-16.95-6.8-40.62-23.91-58.78-24.99-46.33-2.74-77.26 44.02-58.92 65.48 4.28 5.01 30.55-14.95 30.55-19.06 0-7.97 19.28-5.03 31.85 4.85 15.95 12.55 22.38 11.96 33.35-3.1 6.58-9.03 4.1-11.5 9.17-12.6 10.26-2.2 18.05 10.74 27.33 15.65 71.56 37.91 223.58 27.88 267.24-10.19 19.52-17.02 24.09-17.5 24.09 3.36 0 25.04 25.88 40.21 41.66 24.43 6.81-6.8 7.38-31.73.96-41.67-3.07-4.74-4.62-5.12-4.67-1.17-.03 3.25-4.38 5.92-9.63 5.92-7.97 0-9.09-2.18-6.71-13.03.86-3.91 1.52-6.48 2.22-9.27l-1.59-1.22c-13.56-10.81 3.68-36.83 7.93-45.06 40.47-78.58 18.29-140.8-31.75-188.75-12.08-11.58-21.6-15.18-10.26-16.53 44.9-5.37 60.52-58.17 62.79-80.26 5.2-50.37-6.55-56.11-16.76-81.73-7.9-19.81-16.08-24.13-33.37-17.6-23.92 9.02-17.94 27.27 8.94 27.27 11.46 0 10.76 17.6 8.63 28.78-5.76 30.12-16.87 12.16-27.27 7.22-17.01-8.1-19.63 12.19-17.96 26.29 3.71 31.33 11.22 30.7 20.37 32.69 7.85 1.7 24.37-7.57 18 14.4-4.5 15.52-18.12 42.15-60.05 18.99-15.7-8.67-30.14-16.69-44.56-24.66 5.5-22.62-3.9-61.71-17.44-66.6-8.14-2.94-11.92 16.75-4.73 24.55 10.54 11.41 8.35 23.1-3.51 28.07-48.84-26.59-94.06-49.64-147.84-70.04-5.7-2.2-7.4-6.36-5.06-12.37 5.5-14.22.91-40.02-7.72-43.36-6.35-2.46-8.61.03-12 13.13-1.58 6.07-2.9 16.89-8.49 21.92-21.1-17.85-47.04-34.63-71.08-60.37 2.61-4.34 4.83-8.16 7.84-13.05 44.14-71.71 103.86-165.93 133.5-211.1 42.63-64.97 85.36-118.02 171.77-123.2 22.68 22.17 44.02 49.75 62.65 84.97 13 24.57 17.83 31.99-8.88 40.52-4.83-.25-9.82.64-14.82 3-6.17-3.54-16.86-10.62-27.85-18.56-15.18-10.96-38.55-23.03-51.94-26.83-23.28-6.6-25.73-6-55.81 13.66-33.5 21.89-35.86 25.8-32 53.22 4.15 29.67 21.85 23.69 28.47-9.63 3.73-18.78 24.18-36.25 34.67-29.63 7.17 4.51 6.8 6.44-4.3 22.96-10.21 15.18-12.01 22.6-11.43 46.95.59 24.45 3.45 31.65 18.54 46.59 9.8 9.72 18.87 16.91 20.13 15.98 5.27-3.87-2.5-27.03-9.54-28.43-10.03-2-11.65-19.22-3.45-36.8 8.36-17.93 14.66-20.27 34.54-12.85 17.48 6.52 27.71-1.75 25.6-20.68-1.77-15.87 8.08-16.19 21.15-5.38-6.78 8.7-6.34 26.87 5.03 58.16 13.33 36.7-.29 52.85-10.27 61.43-5.59 4.8-10.57 14.08-11.07 20.63-.9 11.8-.78 11.85 12.7 4.84a212 212 0 0 0 24.93-15.66c9.35-7.08 11.86-7.21 10.78-1.22-19.97 110.19-82.68 126.28-177.55 101.96-3.97-1.02-7.98-.8-12.14-6.38-6.17-8.3-5.7-16.79 1.8-32.59 5.75-12.1 8.14-26.9 5.53-34.12-5.2-14.37-22.23-24.54-31.33-18.7-10.62 6.8-22.2-2.11-15.6-15 2.47-4.83 33.74-24.69 47.8-21.15 20.37 5.11 25.33 4.28 24.34-4.06-.53-4.52-1.67-7.22-5.35-9.06-3.67-1.85-9.83-3.36-20.49-3.94-47.57-2.56-70.86 20.87-79.7 44.6-8.24 22.13-4.02 45.26-1.3 57.26 6.85 30.25 55.84 56.99 75.84 62.97 180.88 54.14 257.39-84.4 235-257.75-9.91-76.63-67.48-141.86-114.06-176.1-9.5-6.98-22.75-12.13-21.63-13.25 1.12-1.11 12.5.28 25.31 3.1 40.25 8.89 59.42 10.33 69.93 5.24 5.6-2.72 16.56-6.86 24.38-9.2 12.48-3.76 14.38-6.68 15.66-24.22C1000.56 13.11 987.4.49 958.73.26ZM277.15 50.9c57.99-2.4 116.67 15.69 164.24 59.3-19.24-.46-49.08-.72-87.02-.77h-43.02c-88.44.12-169.08.7-188.65.76 43.92-35.53 98.76-56.98 154.45-59.29Zm457.83 4.69c49.04-1.8 100.7 14.18 147.02 53.98-27.25-.03-158.42-.16-237.72-.13-25.24.02-37.76.06-42.16.12 36.03-31.9 83.02-52.15 132.86-53.97Zm-141.56 62.53c.63.38.86.9 2.08 1.05 69.32 20.12 103.14 77.5 66.8 134.14l-31.9 49.7c-4.05-8.21-7.12-18.94-9-34.4-6.08-50.09-15.57-73.4-34.62-78.31-12.92-3.33-28.1-2.48-40.05 1.66-16.9 5.84 2.85-11.05 6.19-18 10.01-20.86 24.05-39.5 40.5-55.84Zm-141.16 2.82a268.96 268.96 0 0 1 39.42 52.93c13.22 20.54 3.23 23.76-21.77 23.76-21.07 0-37.62 10.53-37.73 24-.03 4.88-1.95 11.63-4.25 15-2.47 3.6-2.23 11.28.58 18.73 3.95 10.5 2.58 16.62-8.13 36.23-1.12 2.05-1.61 3.7-2.58 5.7l-42.04-75.42c-31.74-56.94 15-89.24 72.79-94.62 2.15-.24 3.22-3.12 3.71-6.31Zm110.09 86.84a8.1 8.1 0 0 1 3.34 2.03c8.48 7.85 9.1 41.31.93 49.75-9.86 10.17-13.77 37.38-6.54 45.44 9.71 10.85 22.3 7.88 27.74-6.54 2.72-7.23 5.9-13.15 7.04-13.15 1.15 0 6.53 8.75 11.96 19.45 4.5 8.87 7.42 13.77 11.66 16.81l-67.94 105.87a242.4 242.4 0 0 1-15.16-30.82c6.33-15.68 6.6-25.02 2.9-33.53-14.78-34.08-9.37-77.9-5.44-105.86 4.04-28.71 3.76-31.05 14.83-41.3 7.2-6.67 11.24-9.1 14.68-8.15Zm-66.55 4.38c2.83.89 5.46 14.12 5.9 29.7.43 15.46-4.29 65.04-4.56 77.11-.23 9.85-4.76 36.57-3.75 50.08 1 13.52 1.81 18.94 9.14 26.56a871.55 871.55 0 0 0-13.2 30l-59.3-106.4a32.28 32.28 0 0 0 5.03-5.4c4.27-6.02 11.46-10.95 15.99-10.95 11.67 0 33.3-19.8 33.3-30.49 0-4.94-4.27-12.92-9.48-17.74-5.2-4.83-9.46-12.57-9.46-17.22 0-9.3 22.26-27.8 30.39-25.25Zm23.64 209.8c3.91 9.91 9.43 19.77 15.66 29.53l-16.77 26.13-13.2-23.68c4.67-11.74 9.27-22.86 14.3-31.98Zm-75.4 143.22c3.5 18.82 5.38 40.97 5.34 68.55-.1 76.97-.48 96.97-.48 145.53 0 65.87-40.93 101.44-94.51 111.32 19.88-27.84 29.78-65.56 23.25-120.13 2.48-1.73 5.14 1.78 9.74 8.49 7.86 11.45 9.66 12.3 19 8.96 15.17-5.42 32.57-21.88 35.52-33.6 1.42-5.64-.5-15.9-4.26-22.8-5.46-10.02-5.11-14.43 1.71-21.94 6.44-7.08 6.86-9.69 1.7-10.6-4.01-.7-11.2 5.7-17.44 15.53-8.43 13.28-12.23 15.86-18.48 12.51-20.3-10.87-8.42-50.7 16.82-56.45 18.17-4.13 24.32-12.83 13.27-18.75-8.23-4.41-35.83 9.46-52.34 26.3-8.37 8.52-19.65 53.02-16.28 64.18l.1.42a362.64 362.64 0 0 0-3.76-7.72c-9.17-18.32-25.58-33.1-47.97-43.19-9.17-4.13-9.76-5.57-5.58-13.68 7.39-14.36-3.87-29.63-30.33-41.16a146.93 146.93 0 0 1-13.92-6.72c37.76-11.9 70.2-16.01 98.86-25.65-14.32 15.27-21.73 53.42-9.08 45.93 4.23-2.5 15.87-6.69 25.88-9.3 21.66-5.67 24.59-10.18 24.59-28.08 0-8.87-2.07-13.54-4.24-20.18 17.17-6.5 31.1-16.23 42.88-27.77Zm-217.62 79.67c1.39 3.13 3.73 5.88 7.36 9.23 14.34 13.26 15.55 26.9 2.34 26.55-5.44-.15-19.89 3.2-32.1 7.44-20.02 6.94-23.33 9.87-33.6 29.7-10.92 21.1-11.53 42.07-1.4 48.32 2.63 1.63 6.84.74 9.33-1.99 3.34-3.65 8.53 1.5 19.77 19.66 8.38 13.53 20.4 27.62 26.73 31.3 15.84 9.2 59.38 8.43 62.56-1.11 1.76-5.3.4-7.82-5.25-9.7-12.51-4.16-13.34-12.08-2.43-23.29 7.93-8.15 9.21-14.29 5.63-26.82-5.64-19.73-11.64-24.02-24.54-17.56-7.45 3.73-8.9 8.17-6.09 18.5 4.8 17.58-7.11 30.17-23.13 24.46-21.76-7.76-25.87-17.21-17.67-40.64 6.3-17.98 9.52-27.43 27.4-32.58 106.85-30.75 133.32 107.44 100.9 150.65-5.13.46-15.29-.56-26.15-2.8-28.34-5.86-37.53-4.02-53.32 10.62-10.07 9.33-9.93 15.06.79 31.94 4.43 6.98 2.12 11.57 13.7 15.9-31.36 36.29-119.08 64.1-179.38 37.07-28.11-39.23-9.45-44.4 3.92-49.86 13.3-5.43 13.19-10.19 20.57.34 11.3 16.09 42.93 23.23 45.85 10.36 1.22-5.37 1.67-24.04 1-41.49-.96-25.4 1.09-34.04 10.32-43.34 13.4-13.5 11.93-19.17-4.37-16.82-11.89 1.72-37.47 7.32-59.08 37.41-34.02 47.4-44.9 42.87-58.8 76.08-5.74-2.2-15.64-10.09-24.95-21.88 4.85-15.51 10.38-37.33 18.25-54.92 10.57-23.63 20.84-33.72 41.75-52.32 20.64-18.35 27.54-51.03 12.32-59.18-12.15-6.5-14.9-11.75 2.33-24.07 36.27-25.91 78.54-48.15 119.44-65.16Zm615.98 11.69c31.63 19.9 62.04 43.38 84.85 70.45 7.29 8.65 14.16 16.7 20.3 25.08-27.4 18.76-14.71 34.03-19.12 51.65-5.6 22.4-7.16 43.65-10.03 35.71-7.09-19.6-31.03-11.3-54.17 14.74-31.24 35.13-47.39 49-67.96 16.08l-11.36-18.18-.75 21.95c-.91 26.92 10.48 40.62 37.97 45.67 35.43 6.52 90.97-19.84 106.8-50.22 1.94-3.7 11.15-27.55 14.9-47.2 3.95-20.62 13.63-41.51 24.4-27.18a125.86 125.86 0 0 1 3.07 17.47c3.87 38.66-24.1 91.74-40.91 112.94-14.6 18.4-38.5 26.11-40.34 27.46-56.02.63-133.9-25.42-175.07-74.92 10.81 1.3 12.02-.4 23.5-7.41 7.17-4.38 15.32-13.59 18.11-20.47 4.76-11.74 4.24-12.75-8.54-16.35-7.49-2.11-15.47-6.2-17.73-9.11-5.11-6.55-23.57-16.06-32.9-15.65-4.32.2-4.58 4.5-6.5 8.7-5.74-63.05 37.35-130.83 120.53-113.79 29.92 6.13 53.56 31.5 48.22 44.81-4.45 11.1-40.23 27.06-40.27 17.96-.11-26.53-22.24-40.84-33.31-21.53-7.4 12.9 1.9 43.06 14.9 48.28 31.08 12.5 71.48-6.7 75.55-35.9 1.42-10.16 4.62-14.23 11.15-14.16 12.6.15 17.3-21.7 9.84-35.7-6.25-11.7-28.74-19.86-66.94-24.28-12.81-1.48-14.64-3.23-11.27-10.77 2.2-4.94 10.2-11.08 17.78-13.64 1.78-.6 3.56-1.46 5.3-2.5Z"/></svg>
