<svg viewBox="0 0 1000 1000"><path d="M834.3 0c-1.02 0-1.99.06-2.92.1-16.4.64-39.77 5.33-43.86 7.98-5.94 3.86-15.54 4.73-45.25 5-31.76.28-65.2 3.57-81.07 7.95-54.07 14.96-80.23 19.45-76.31 13.1 2.65-4.28-15.23-19.91-22.73-19.91-1.95 0-10.7 6.58-19.49 14.6-12 10.94-19.12 13.9-28.57 11.88-25.21-5.47-26.15-6.37-23.11-21.64C493.03 8.92 492 4.4 487.68 4.4c-10.42 0-18.07 10.96-18.07 25.86 0 7.75-2.16 18.13-4.83 23.1-4.05 7.59-3.25 8.62 4.9 6.48 5.36-1.4 15.2 1.03 21.85 5.4 17.08 11.17 55.27 10.1 80.93-2.3 11.65-5.63 28.98-11.5 38.54-13.05 19.16-3.12 19.4-1.99-2.65 26.72-4.85 6.3-9.15 13.04-13.7 19.66-100.6-.15-213.49-.38-225.72-.27-16.16.16-37.97-2.45-59.31-5.5-11.45-17.5-27.8-34.48-50.15-50.44-9.13-6.49-15.26-13.28-14.27-14.3.2-.2.55-.33 1.01-.39 7.11-.91 42.82 13.58 56.42 23.25 7.75 5.53 29.17 13.67 47.57 18.11 15.25 3.66 26.93 6.98 31.93 8.8 9.82 1.31 17.3 1.76 22.94 1.72 1.93-1.36 5.73-2.47 11.84-3.17 22.34-2.58 39.69-43.97 26.2-62.45-8.98-12.27-17.73-4.81-17.73 15.16 0 14.61-1.6 16.9-11.9 16.9-7.7 0-17.05-6.22-26.42-17.58-11.49-13.92-17.39-17.23-28.43-15.96-11.02 1.28-14.95 5.04-18.6 17.81-3.11 10.99-6.85 15.33-11.6 13.5a45.78 45.78 0 0 0-12.74-2.79c-3.15-.06-11.16-4.28-17.78-9.34-10-7.7-13.4-13.93-5.84-16.75 19.36-7.2 22.1-11.1-54.29-5.9-68.4 4.67-110.8 8.65-138.32 22.55-23.52 11.9-23.46 11.9-40.48-1.5C37.6 10.9 11.86 3.15 3.88 11.18c-5.36 5.35-4.68 9.93 3.9 26.44 5.73 10.98 13.62 21.2 17.53 22.69 10.05 3.87 2.22 32.58-6.04 45.4-23.75 36.97-54.77 178.36 49.86 306.32-11.44 28.2-27.27 41.48-35.25 98.6-1.54 11-5.88 24.96-9.62 15.74-3.9-9.58-15.5-7.24-21.71 4.37-13.6 25.39-2.98 112.18 17.52 143.51 9.04 13.75 8.32 38.17-1.19 41.29-4 1.3-6.13-3.16-6.13-12.86 0-13.65-7.3-24.51-12.8-19.02-3.58 3.6-3.34 56.31.32 62.2 5.12 8.27 9.01 6.46 26.03-12.08 12.62-13.75 15.93-21.61 15.93-37.72v-20.35l11.38 10.7c14.44 13.57 16.35 13.4 20.17-1.76 3.74-14.92-13.57-46.8-41.96-77.25-20.04-21.48-22.8-33.1-12.39-51.9 5.41-9.73 7.17-10.33 12.27-4.2 3.29 3.95 7.6 16.79 9.62 28.55 2.45 14.4 6.39 21.89 12.07 22.98 5.96 1.14 7.6-.65 5.53-6.04-.9-2.34-.93-6.45-.39-11a163.57 163.57 0 0 0 14.18 22.04c10.44 13.83 20.29 27.48 21.9 30.32 5.01 8.76 83.68 28.5 96.92 24.34 6.88-2.18 80.04-33.5 91.2-51.4 22.84-36.7 24.34-61.15 3.64-89.3-8.16-11.07-18.9-22.03-23.88-24.35-7.5-3.5-6.6 2.28 5.22 33.45 15.91 42 16.09 51.08 2.16 71.2-11.18 16.16-19.57 17.3-19.72 2.68-.14-13.2-6.59-24.83-16.7-30.08-6.57-3.43-8.68-.68-12.96 16.98-7 28.82-35.11 53.82-62.37 55.44-22.79 1.36-56.42-15.29-70-34.65-12.22-17.38-6.51-21.61 13.35-9.83 8.22 4.87 23.45 9.11 33.84 9.43 31.53.97 62.28-22.1 40.76-30.58-6.11-2.43-5.65-5.92 2.2-15.7 12.97-16.2 8.76-32.84-11.31-44.59-18.56-10.9-33.44-12.79-47.15-5.53-4.55 2.44-9 5.87-13.4 10.33-16.66 16.96-15.83 29.19 1 14.46 21.54-18.85 38.95 3.33 19.53 24.89-17.14 19.06-40.64 18.34-59.37-1.83a41.86 41.86 0 0 0-5.47-4.95c-1.6-2.49-4.48-4.9-9.04-8.21l-13.09-9.55c3.9-6.05 8.3-11.95 9.35-18.88 6.15-40 18.7-69.9 34.59-90.8 112.98 82.3 204.42 62.68 307.77-24.6 8.45.25 16.78 1.56 20.07 3.25 6.62 3.4 59.28-7.05 62.74-12.46.78-1.17-6.42-8.51-15.96-16.26-11.45-9.31-19.9-12.66-24.83-9.82-5.75 3.31-9.43 3.12-10.75.84 43.2-52.28 81.2-114.83 123.09-169.28 14.84-19.28 29.68-41.4 45.25-63.03h30.05c38.95 0 52.77-.78 31.24 29.27l-371.5 518.25c-22.52-2.2-45.2-2.34-68.38-1.6-83.34 2.67-136.78 36.22-172.28 81.01C10 807 6.9 814.63 10.16 841.6c3.74 30.82 11.14 68.36 18.11 91.85 4.34 14.72 3.76 20-3.47 31.02-8.4 12.85-8.37 13.61 1.45 23.42 8.2 8.18 13.63 9.49 28.29 6.74 15.73-2.96 17.72-4.85 15.07-14.15a484.68 484.68 0 0 1-6.02-24.25c-1.61-7.44-4.88-13.51-7.26-13.51-2.35 0-4.28-3.31-4.28-7.36 0-10.73 3.52-9.31 23.52 9.56 39.98 37.72 48.88 37.27 111.04 20.7 22.5-6.02 59.23-24.8 64.04-19.96 2.1 2.1-4.09 10.12-13.78 17.87-9.66 7.73-15.72 15.95-13.42 18.25 9.35 9.43 56.67 10.05 70.76.95 17.86-11.5 60.53-9.67 74.84 3.22 5.84 5.27 20 10.77 31.43 12.19h.02c48.21 5.98 62.3-6.56 17.4-15.52-13.62-2.73-30.47-11.12-37.44-18.7-12.35-13.4-33.24-31.83-73.73-32.8-52.92-1.25-36.23-7.1-96.39 7.72-17.95 4.44-36.66 9.7-41.57 11.73-43.68 37.77-129.4-54.92-118.2-79.05 19.57 8.28 27.6 5.34 32.1-11.76 2.8-10.55 2.54-21.34-.71-29.48-2.8-7.05-5.55-25.9-6.1-41.87-.97-28.23-.44-29.5 18.29-45.23 21.94-18.42 29.3-15.97 20.68 6.85-8.24 21.87-1.36 27.7 26.29 22.24 17.78-3.5 22.9-7.17 29.8-21.28 4.55-9.37 7.23-20.74 5.93-25.24-3.21-11.06 16-25.88 35.8-23.76 19.25 2.1 37.18 3.2 54.54 4.68L162.52 852.7c-40.4 56.36-51.96 52.02 23.13 52.02 18.99 0 344.38-2.42 351.37-2.38 68.02.31 82.98 2.38 176 2.38 93.6 0 84.8 4.88 99.56-50.2 13.44-50.11 36.09-152.28 46.93-203.19-16.1 26.08-43.87 72.54-96.07 143.34-23.18 31.43-39.98 58.03-214.13 58.03H296.08l83.06-115.63a295.99 295.99 0 0 1 41.53 26.95c6.62 5.14 21.23 15.64 27.98 21.62 5.94 5.26-.39 13.05-5.2 13.03-7.06-.06-11.68 1.44-22.86-9.74-7.07-7.07-15.61-11.26-19.74-9.66-9.74 3.72-17.37 26.76-14.28 42.98 2.6 13.47 8.96 17.35 12.25 7.48 2.38-7.17 31.86-10.58 35.83-4.17 5.55 8.97 23.31 4.94 35.33-8.03 13.98-15.09 25.31-5.25 70.78 8.5 63.83 19.27 179.72 1.09 184.24-84.85 2.22-41.92-36.22-97.17-96.79-98.67a40.16 40.16 0 0 0-25.23 7.81c-8.57 6.29-19.34 10.6-23.88 9.54-12.58-2.84-16.7 4.64-13.88 25.1 2.6 18.95 35.1 36.22 56.28 41.03 11.84 2.69 12.42-10.14.48-18.15-12.44-8.33-10.94-28.35 2.8-38 15.96-11.19 26.51-8.65 32.22 7.74 2.49 7.17 8.64 14.59 13.88 15.15 39.8 4.33 40.82 66.99 7.71 73.67-214.34 43.33-173.56-241.2 15.25-228.19 5.72.4 9.62 1.58 14.68 1.56 7.34-.06 11.76 5.73 21.1 23.95l12.88 25.22-9.54 10.13c-12.37 13.1-6.43 19.9 14.94 17.02 23.7-3.18 29.54-11.92 21.73-32.52-10.6-27.97-9.25-32.27 5.78-18.27 18.58 17.33 19.38 29.56 3.62 55.73-9.48 15.76-16.9 22.44-26.52 23.92-17.64 2.72-16.03 9.6 3.47 14.78 19.74 5.21 40.5-7.1 34.93-20.68-4.38-10.7 1.68-16.05 9.74-8.61 4.28 3.93 5.37 11.23 3.62 24.07-2.78 20.37-5.18 23.23-31.37 37.52-9.95 5.45-18.66 12.74-19.32 16.24-1.42 7.6 17.41 6.17 20.88-1.56 1.28-2.92 6.72-5.88 12.03-6.58 22.22-3 32.9-18.79 38.03-44.65 12.66-63.42-20.3-120.34-101.84-127.37-5.2-.45-9.27.21-18.95-1.56 30.9-7.32 124.24-11.2 159.72 22.78 4.9 4.68 11.16 10.17 15.77 16.03 7.87 9.93-7.4 12.85-8.6 24.57-2.56 24.91.05 25 6.85 31.04 7.83 6.98 9.74 18.97 24.96 38.52 15.95 20.47 10.7 20.94 2.3 33.73-10.4 15.87-2.08 27.2 9.95 13.63 24.89-28.04 15.54-68.9 4.42-82.12-19.26-22.92-20.8-28.21-8.59-35.34 6.7-3.91 11.75-1.5 36.8 26.72 25.05 28.21 29.96 58.08 28.13 78.55-1.85 20.45-3.9 26.81-6.68 20.84-5.63-12.06-9.35-10.81-19.55 6.46-11.43 19.32-29.35 28.08-39.77 19.46-6.33-5.26-7.51-4.66-7.51 3.83 0 13.53 11.3 23.97 30.37 28.18 13.2 2.88 17.53 1.4 26.59-9.1 5.93-6.9 11.68-15.3 12.8-18.67 1.24-3.64 7.91-6.62 8.46-2.14 7.34 60.89-22.8 144.16-91.04 106.13-9.71-5.46-8.4-9.31 6.43-21.33 17.27-14.02 17.31-14.4 2.24-23.1-24.75-14.27-41.28-11.19-47.05 8.79-6.03 20.95.49 40.78 18.77 57 12.37 10.96 11.96 11.3-8.88 7.46-23.2-4.3-25.76-.53-16.82 24.9 5.65 16.1 14.57 16.85 46.6 3.94 51.6-20.8 71.4-24.99 77.03 4.7 3.4 17.92 1.56 18.86-17.52 8.89-7.8-4.07-14.6-5.07-16.24-2.42-1.56 2.53-6.86 4.58-11.76 4.58a21.42 21.42 0 0 0-14.51 6.72c-7.3 8.8 3.23 17.97 22.33 19.43 16.7 1.29 21.66 15.54 6.78 19.44-5.57 1.46-21.71-1.62-35.87-6.82-59.53-16.14-97.6-15.81-137.28-1.77-14.37 5.08-20.16-38.58-74.23-11.98-20.72 10.19-41.8 22.9-64.95 29.46-33.49 9.5-64.1-8.72-61.32-29.52.86-6.38-1.55-13.16-5.37-15.01-10.38-5.06-34.96-2.61-35.8 3.58-.38 2.98-7.22 2.83-15.18-.35-8.4-3.35-14.84-3.17-15.3.4-.46 3.36-8.58 7.64-18.06 9.5-17.1 3.34-37.64-3.32-64.26-20.88-6.95-4.56-14.64-6.76-17.12-4.87-6.54 5 9.39 23.6 22.22 33.07 10.32 7.6 35.48 17.85 51.68 24.03 41.97 16 94.39 35.38 168.5 10.06 45.57-15.56 59.67-30.45 50.98-14.13-3.23 6.07-9.4 13.92-13.69 17.44-6.6 5.42 17.8 6.96 25.5 8.34 45.95 8.26 110.02-51.02 191.69-14.41 56.16 10.05 53.35 9.95 71.62 2.4 17.45-7.23 25.12-27.27 25.16-65.83 0-20.44-2.2-25.9-15.5-38.34-14-13.06-14.6-14.76-6.16-17.04 5.18-1.4 13.71-11.8 18.97-23.07 8.1-17.35 21.3-64.55 21.3-98.22 0-32.74 5.85-106.03-62.49-155.32-9.87-7.1-15.5-21.09-16.86-26.33-2.2-8.41-.68-9.13 13.16-6.13 41.42 8.96 50.93 8.9 54.49-.4 2.2-5.74.66-11.05-4.24-14.63-6.82-4.99-6.86-6.31-.32-11.73 8.36-6.93 5.57-14.84-5.22-14.84-3.95 0-9.56 6.08-12.46 13.52l-5.26 13.5-7.5-11.05c-6.03-8.94-12.1-11.06-31.46-11.06-20.8 0-21.4-2.45-21.4 6.23 0 14.55.5 32-19.03 14.8-11.1-9.73-50.26-28.7-62.27-29.77-5.96-.53-10.32-2.9-8.38-5.98 8.96-14.33 28.9-19.86 63.76-38.71 19.59-10.58 52.58-36.32 62.84-29.97 5.14 3.2 4.79 6.44-1.8 16.5-8.5 13-10.94 27.72-4.51 27.45 2.02-.1 7.73-3.23 12.7-7.01 5.68-4.29 15.22-5.8 25.78-4.1 15.27 2.48 16.78 1.65 16.78-9.34 0-13.24-8.66-30.92-24.2-37.02-13.67-5.35-22.55-.07-33.46-.66a93.98 93.98 0 0 1 13.56-20.29c67.08-79.25 78.98-233.56 19.72-309.23-8.53-10.9-16.86-20.21-16.86-22.1 0-1.87-5.8-11-12.87-20.3-10.58-13.82-11.78-18.2-6.78-24.22 3.37-4.05 11.22-7.36 17.47-7.36 8.72 0 11.7 3.12 12.91 13.5.92 7.98 4.54 13.51 8.84 13.51 8.45 0 12.02-13.05 7.97-29.17-2.38-9.48-6.98-11.62-30.15-14.02-3.54-.37-7.09-.58-10.57-.68-24.4-.62-45.76 5.24-45.76 13.43 0 2.98 6.97 12.62 15.5 21.43 12.96 13.37 14.48 17.2 9.27 23.5-3.43 4.15-8.07 6.4-10.27 5.02-6.87-4.24-9.89 6.16-5.27 18.27 2.41 6.37 10.7 14.84 18.42 18.83 19.66 10.2 41.1 29.77 41.1 37.54 0 9-14.39 8.18-17.87-.93-1.56-4.05-7.54-7.38-13.28-7.38-6.31 0-9.4-9.87-12.9-14.92-17.81-25.9-44.43-46.29-62.1-52.98-15.08-5.73-17.87-15.49-20.07-19.13-3.74-6.19 2.03-12.8 3.78-18.1 4.05-12.37 25.82-18.56 7.4-25.44C840.57.18 837.32-.04 834.3 0zm-95.34 33.88c30.78 0 20.97.74 37.17 18.42 13.48 14.7 16.83 22.34 16.61 37.92-.04 2.14.2 3.9.3 5.84l-14.22.02c-2.92 0-39.06.27-54.37.37 0 0-60.91-.06-98.86-.14 11.39-12.87 23.48-25.04 36.96-35.52 13.2-10.24 39.56-26.9 76.4-26.9zm-530.5 1.76c2.49-.06 4.75-.06 6.81.03 4.09.2 7.4.88 10.05 2.57 24.28 15.33 42.16 31.5 55.15 47.97-12.04-1.91-26.04-4.19-33.71-5.07a58.22 58.22 0 0 0-8.47-.44c-17.33.52-18.74 11.95-24.15 33.49a1401.1 1401.1 0 0 1-24.92 86.09c-17.08-18.17-25.79-23.56-44.38-27.38a1761.04 1761.04 0 0 1-37.27-8.04c-7.11-1.68-18.02-.02-24.27 3.66-11.88 7.05-16.51 23.85-7.6 27.6 6.76 2.84-5 28.97-12.75 28.38-2.92-.23-29.64 7.11-36.65 18.58-6.3-43.6-4.96-84.41 14.7-123.98 6.2-12.43 15.7-20.59 18.4-19.67 2.7.91 4.68 10.87 4.43 22.1-.55 22.8.9 23.87 15.83 11.72 16.55-13.47 28.72-35.96 27.2-50.4-1.13-10.76 2.15-15.45 17.33-24.84 23.57-14.6 28.63-17.78 63.43-21.34a160.07 160.07 0 0 1 12.7-.82c2.95-.08 5.64-.18 8.13-.21zm618.77 37.3c3.56.12 8.24 2.44 14.97 4.11 14.16 3.51 35.54 32.21 35.54 34.57 0 11.88-8.62 12.27-16.47 4.4-4.1-4.07-7.05-3.97-11.41.39-4.58 4.6-4.58 7.2 0 11.8 9.8 9.8 6.7 18.66-6.53 18.66-6.85 0-13.7 3.3-15.26 7.38-1.56 4.05-6.78 7.36-11.61 7.36-12.19 0-16.26 29.79-12 45.68 4.87 18.07 18.76 37.84 29.02 37.84 10.71 0 14.84-10.68 6.48-16.79-11.17-8.18-15.65-34.4-7.06-41.54 10.6-8.8 44.82-1.55 57.8 12.23 17.87 19.03 62.54 12.8 55.98-7.82-4.37-13.75 5.06-17.73 17.21-7.8 17.37 14.14 18.7 93.79.27 116.03-1.22 1.46-4.87-6.33-6.56-14.02-3.8-17.34-23.99-29.68-36.1-22.1-4.54 2.84-8.98 12.4-9.86 21.24-1.51 15.42-.97 16 13.52 13.88 17.1-2.53 17.25-2.33 9.23 10.52-5.26 8.41-6.47 8.59-11.55 1.65-8.4-11.49-12.66-.27-5.26 13.95 14.96 28.86 21.83 66.98 2.1 84.63-3.32 2.98-16.2 17.72-24.06 22.25-20.57 11.88-31.02 17.98-25.82 8.73 28.62-50.79 7.57-124.6-41.73-151.25-22.55-12.17-33.38-14.35-42.12-11.7-6.41 1.93-17.82 1.4-25.4-1.17-3.44-1.17-6.17-1.85-8.66-1.87-6.33-.06-10.99 4.3-21.29 16.75-31.99 38.63-34.37 59.31-10.1 87.66 10.98 12.86 15.77 15.82 21.94 13.58 9.43-3.4 4.99-13.07-11.93-26.04-6.7-5.14-10.77-14.49-10.9-25.12-.34-28.23 13.43-28.62 22.37-.6 7 21.98 17.83 18.79 17.27-5.12-.24-9.58 2.6-20.72 6.33-24.73 11.49-12.45 35.18-21.95 44.16-17.73 11.18 5.26 6.43 14.84-8.22 16.6-16.35 1.94-20.17 13.5-6.62 19.86 12.76 5.98 12.74 6.29-.93 17.91-10.73 9.1-18.7 35.02-10.46 34.08 2.65-.31 9.74-7.79 15.74-16.59 8-11.76 16.43-17.21 31.68-20.5 18.89-4.1 20.74-3.41 24.48 5.78 12.85 31.72 15.01 68.04-7.52 97.01-2.61 3.35-7.07 5.51-11 7.54-8.1 4.19-19.79 14.37-27.65 20.84-37.33 30.63-78.81 34.15-128.31 40.34-7.27-5.06-11.43-15.1-11.1-17.25.35-2.28 8.04-5.14 17.1-6.33 9.05-1.2 12.61-2.96 7.92-3.91-4.71-.98-9.81-7.52-11.35-14.6-1.72-7.95-6.58-13.4-12.78-14.34-17.39-2.63-31.8-19.47-29.52-34.54 2.36-15.66-5.18-25-12.9-15.97-2.85 3.33-7.91 14.86-11.22 25.6-8.2 26.55-.14 48.57 24.05 65.73 15.85 11.23 21.42 15.36 20.93 17.91-89.07 1.91-149.98 90.96-153.14 147.84-2.53 45.72 15.33 85.43 49.8 108.08 29.75 19.55 89.3 19.08 118.35 5.25 15.02-7.12 15.44-7.55 15.44 1.62 0 6.72-7.75 13.36-25.78 22.08-57.85 28-158.5 12.15-160.88-24.61-.69-10.28-6.22-79.32-26.9-64.19-5.78 4.23-1.22 8.14-.68 14.5.5 5.95-7.28 6.01-9.77 5.45-3.9-.86-6.76-4.11-7.97-17.22-1.17-12.89 4.81-28.66 12.91-39.55 11.1-14.91 3.64-20.1-14.72 1.6-8.04 9.5-9.15 25-8.82 35.19.64 20.38 3.97 26.1 18.83 34.66 7.79 4.44 9.43 7.36 13.98 14.21 1.85 2.77.47 3.8.7 9.58.28 6.82-12.42 5.03-13.43 5.1-9.88.78-25.77-8.82-34.74-17.5a285.7 285.7 0 0 0-46.43-36.5L776.33 184l33.3-46.35c25.43-34.12 32.88-40.12 6.17-41.15 3.4-17.49 6.3-23.72 11.43-23.54zm72.2 65.6c3.7.61 9.66 9.55 17.59 26.67 13.65 29.48 9.93 36.51-8.92 16.82-8.68-9.05-13.05-18.96-13.05-29.71 0-9.68 1.52-14.26 4.38-13.79zm-537.14 1.22h201.96a195.83 195.83 0 0 1-11.6 14.58c-21.35 23.76-47.21 65.04-77.77 109.71a208.73 208.73 0 0 1-16.43 3.43c-15.9 2.73-30.05 3.39-31.47 1.44-1.42-1.95.06-4.24 3.31-5.14 12.05-3.3 25.4-14.4 26.83-25.6 2.13-16.52-12.65-17.73-18.83-.73-5.64 15.58-8.06 7.7-11.85 3.31-6.63-7.65-12.82-8.56-20.33-3.05-9.76 7.18-10.29 6.68-13.38-12.86-4.64-29.2 9.4-46.71 33.82-42.2 16.26 3 18.97 12.27 5.45 18.72-13.28 6.35-10.94 14.45 4.27 14.78 17.45.37 33.88-15.71 30.84-25.43-12.9-41.4-85.29-34.59-93.54 11.97-6.86 38.76 13.12 78.17 61.38 85.74a46.02 46.02 0 0 0 25.2-3.11c-17.44 24.65-36.29 49.65-56.7 72.79a18.85 18.85 0 0 0-.5-.82c-2.6-3.97-3.11-9.05-1.13-11.3 6.35-7.08 12.52-36.16 8.96-42.13-2.38-4-4.87-2.26-8.2 5.68-2.63 6.31-8.63 12.31-13.3 13.32-6.46 1.42-8.57 9.33-8.86 33.32-.23 19.8-4.01 28.82-7.2 33.65-60.86 57.87-133.9 92.98-221.02 57.15-22.26-9.15-43.62-26.38-54.33-38.92 5-7.46 15.61-18.44 21.77-24.6 11.16-11.16 32.03-22.3 54.81-34.08 2.54 14.63 12 26.2 15.84 29.92 3.4 3.29 3.35 7.34-.2 11.62-5.84 7.09 1.66 24.67 9.66 22.65 2.43-.63 10.32 1.5 17.53 4.7 7.22 3.2 16.1 5.05 19.74 4.14 3.64-.92 10.7.49 15.68 3.11 10.84 5.77 58.26-1.46 65.87-10.02 4.76-5.34 4.52-6.3-2.18-8.6-4.14-1.43-13.53-1.1-20.85.73-7.8 1.95-17.47.56-23.31-3.31-5.47-3.64-9.21-6.95-8.3-7.36.92-.4 14.84-4.52 30.97-9.16 27.06-7.82 29.94-9.73 38.16-25.5 4.87-9.37 8.43-18.82 7.89-21-1.03-4-15.77-6.27-22.14-3.39-8.32 3.78-11.04 1.97-7.67-5.06 7.78-16.4-15.58-30.63-40.04-24.4-6.8 1.72-10.09 5.88-10.13 12.78-.1 12.65 9.8 19.94 13.05 9.62 1.83-5.8 3.7-6.41 10.24-3.31 19.4 9.23 18.9 36.86-.74 41.86-4.22 1.05-8.37 4.17-9.25 6.92-2.63 8.37-16.82 9.44-41.4 3.11-39.7-10.22-35.75-24.18-40.05-39.59 22.41-11.68 44.84-24.12 60.58-38.03 49.19-43.46 83.58-101.26 76.16-158.47a154.8 154.8 0 0 1 32.73-3.58zm-55.17 10.28c3.96 44.73-20.19 87.2-52.67 117.46-55.2 51.45-120.81 61.54-171.99 120.15-29.48-29.97-43.05-77.54-50.31-112.2l.17-.24c2.14-19.84 16.55-30.2 30.61-30.96 27.15-1.46 52.7 34.39 53.55 51.66.84 17.6-9.93 26.35-21.67 17.53-4.79-3.59-10.22-6.37-12.07-6.2-6.53.59-1.4 20.7 5.8 22.73 4.01 1.13 14.76.64 23.91-1.1 14.8-2.81 16.73-5.1 17.53-20.94.7-14.22 3.2-18.11 12.46-19.44 27.03-3.87 24.32-25.14-5.18-40.56-10.1-5.3-21.71-7.94-25.82-5.94-5.51 2.73-28.43-13.22-27.69-22.88.78-10.18 5.02-14.35 19.5-19.14 11.54-3.82 17.32-8.38 15.38-12.15-1.91-3.74-.51-4.97 3.66-3.22a11.78 11.78 0 0 1 6.73 10.01c-.07 17.26.96 19.87 8.07 20.41 4.67.37 7.88-4.15 8.47-11.82.7-8.92 3-11.43 8.23-8.96 6.2 2.94 5.63 5.46-3.75 16.7L139 224.16l11.7 9.02c15.6 12.03 16.01 11.88 19.29-6.82 2.41-13.86 8.17-18.03 15.15-13.06l-.67 2.1c-7.9 24.03-24.73 56.86-17.87 55.93 10.36-1.4 17.35-11.78 22.9-19.2a669.16 669.16 0 0 1 12.42-15.93c3.76 5.18 7.52 9.34 9.82 9.6 4.08.43 6.25-.78 6.56-3.43.37-3.27-2.73-9.21-7.85-16.61 27.71-33.1 58.87-61.36 96.66-75.75z"/></svg>
