<svg viewBox="0 0 1000 1000"><path d="M951.058.024v.008c-6.416.612-9.963 11.619-13.96 28.906-8.901 38.552-20.19 1.025-63.6 2.848-50.536 2.122-66.703 69.33-40.2 91.137 14.825 12.195 29.896 11.154 51.954-3.59 11.222-7.505 12.096-9.9 6.038-16.347-8.938-9.506-18.622-9.62-27.357-.326-6.066 6.447-11.758 9.506-16.735-.73-21.133-43.458 30.78-64.86 67.878-42.608 7.945 4.767 8.994 15.822-.04 18.877-6.617 2.24-6.911 4.866-1.644 15.067 5.482 10.622 8.533 8.739 23.365 9.541 23.719 1.287 37.952 69.905 34.448 109.362 0 0-11.007-8.032-17.462-12.711-18.988-13.753-41.618-18.75-41.618-9.184 0 2.665 8.524 14.097 18.948 25.403 10.594 11.495 25.566 23.412 28.036 30.269-8.818 19.05-11.988 33.82-32.89 46.98 2.657-12.012.603-26.448-4.962-42.599-10.05-29.169-15.015-36.1-34.464-56.562-23.516-24.747-52.573-36.255-76.32-39.032-75.243-8.794-117.202 82.346-214.254 17.2-15.186-10.192-53.555-54.408-53.555-67.62 0-8.378 1.256-9.502 5.68-5.085 7.342 7.345 33.404 7.345 40.745 0 9.104-9.104 6.693-17.216-9.335-31.536-18.738-16.743-15.969-29.065 6.566-29.173 8.548-.04 18.69-2.053 22.531-4.484 5.883-3.722 5.192-6.316-4.417-16.54-10.15-10.806-14.785-12.053-42.5-11.453-38.182.83-40.95 8.548-43.981 44.394-2.523 29.82-.16 69.198 23.567 95.042 50.051 54.5 93.612 84.737 161.157 72.193-3.587 29.963 2.701 62.611 29.594 78.012 23.85 13.657 36.2 9.994 45.284 1.072 13.367-13.128 17.633-14.96 24.168 2.356 3.3 8.743 8.723 14.181 14.073 14.133 18.027-.147 19.37-11.936 22.472-23.655 3.364-12.711-6.705-21.986-12.036-26.765-1.216-5.283 2.931-11.027 1.25-20.017-1.127-6.026-10.128-14.22-13.664-11.348-3.404 2.768 2.92 9.692-.23 17.001-5.776 13.434-18.177 13.28-13.021-.159 4.071-10.606-6.102-20.243-21.371-20.243-17.375 0-21.292 7.099-11.874 21.475 8.612 13.148 9.482 18.789 2.9 18.789-2.49 0-7.281 3.738-10.65 8.302-5.716 7.75-7.213 7.468-21.677-5.005-26.892-23.183-16.648-51.613-2.693-68.427 10.014-12.06 22.83-20.374 27.707-22.218 70.822-26.813 128.075 26.845 140.107 86.505 5.323 26.377-15.424 49.138-22.88 52.928-41.407 19.782-86.231 25.899-175.965 29.407-9.526.369-13.467-.898-8.66-12.088 2.963-6.908 9.24-16.398 13.943-21.081 6.558-6.535 7.416-10.618 3.698-17.566-7.687-14.368-33.916-31.66-53.26-35.115-24.172-4.314-23.557 5.752 1.219 19.901 21.434 12.243 13.24 38.281 6.618 44.907-6.575 6.574-12.994 16.307-28.784 22.444-25.105 9.76-71.458 10.971-109.89 42.865-8.612 7.15-15.909 13.359-21.335 23.353-4.807-3.774-8.171-6.602-10.71-8.385-6.911-4.862-11.146-9.033-11.082-10.384.055-1.35 6.98-5.649 15.389-9.557 14.101-6.555 15.221-8.716 14.34-27.822-.584-12.66-.533-17.276 1.418-16.501L506.5 321.348c.866 9.498-1.132 16.326-7.09 28.688-5.335 11.07-10.316 20.128-11.071 20.128-.755 0-1.517-15.159-1.692-33.686-.175-18.534-1.228-34.606-2.344-35.722-1.112-1.113-8.691 3.575-16.827 10.419-13.299 11.186-14.487 14.32-11.825 30.98 2.427 15.174 1.565 18.535-4.747 18.535-4.238 0-7.71-2.13-7.71-4.735 0-8.342-11.727-5.065-18.035 5.037-9.966 15.96-2.915 28.116 16.303 28.116h16.588c-1.497 9.66-10.475 19.19-19.714 29.939-19.278-19.286-59.74-48.685-90.736-60.625-11.615-4.473-15.992-3.266-19.341-13.312-3.61-10.828-1.935-15.817 10.713-31.786 17.423-21.99 14.36-25.196-21.18-22.142-14.789 1.271-24.295 4.72-27.17 9.86-7.429 13.267-1.212 30.892 8.675 41.423 8.608 9.168 14.84 13.14 19.317 17.28-72.28.464-185.403-12.724-228.582-51.97 1.54-29.336 16.624-49.734 27.762-67.311 17.538-27.675 58.492-52.625 91.415-49.36 32.926 3.27 63.06 21.939 63.465 52.68.394 29.67-28.509 63.053-54.234 51.561-16.862-7.682-19.424-17.3-7.706-29.014 5.406-5.414 9.923-4.214 9.844-14.494-.088-11.044-13.693-10.829-23.79-1.51-6.976 6.435-12.99 22.48-19.433 21.645 14.284-52.788-6.694-23.456-21.987-29.693-12.068-4.918-17.597 16.672-14.46 35.092 3.79 22.193 16.414 37.875 42.234 30.888 17.916-4.85 23.898 7.099 38.96 5.816 46.445-3.94 60.221-37.864 64.785-71.57 2.054-15.182-3.027-26.582-11.122-35.766 68.586 12.91 144.493-12.143 175.715-86.056 11.182-26.464 22.853-41.634 17.458-70.441-4.012-21.43-30.745-40.796-49.888-42.615-4.56-.437-14.396-.755-17.244 4.918 0 0-6.749 7.217-5.664 11.28 2.006 7.52 12.437 8.232 19.472 12.887 10.717 7.09 18.352 15.099 17.784 18.007-3.067 15.654-11.536 21.025-20.505 18.622-7.587-2.034-13.76-4.433-19.345-13.168-7.786-12.184-7.953 3.285-10.666 9.994-4.767 11.786-1.764 29.84 8.549 38.162 10.316 8.326 13.716 9.633 24.783 7.42 7.63-1.53 9.986 5.22 7.913 11.436-17.626 52.8-85.067 80.793-174.528 56.65-39.556-10.674-80.145-8.616-112.643 12.687-30.71 20.128-44.35 50.369-52.625 65.456-4.719 8.604-10.312 19.17-11.885 30.289-9.136-2.9-18.574-11.377-21.641-17.47 2.054-15.246 7.678-31.418 18.451-44.689 3.635-4.48 14.726-13.136 24.533-19.325 24.871-15.703 25.94-31.167-3.801-27.318-17.192 2.225-26.996 6.622-31.7 13.057-5.23 7.15-15.229 17.415-27.25 37.44-28.914-57.02-6.788-89.708 15.727-116.282 9.343-11.031 17.963-18.734 22.603-15.453 14.16 10.01 29.188 9.673 36.64-.826 4.068-5.728 6.833-13.784 6.153-17.903-1.605-9.685 31.135-22.84 44.152-17.717 13.11 5.168 24.847 33.368 14.638 44.963-5.303 6.026-8.755 5.45-21.978-3.484-8.52-5.76-10.579-19.63-17.689-14.447-5.827 4.25-9.2 13.891-9.2 26.11 0 17.105 2.026 20.14 17.657 26.293 20.231 7.968 33.86.051 42.468-8.56 19.754-19.75 18.721-40.133 15.993-54.882-4.358-23.52-13.57-51.402-73.409-50.345-9.732.17-17.434-.81-29.983-11.194C76.542 5.116 43.206-3.87 36.54 2.173c-2.224 2.014.823 8.151 11.826 11.615 12.21 3.841 21.153 17.32 12.779 22.006-3.075 1.724-21.514-11.201-29.49-14.14-13.94-5.13-52.205-5.685-26.015 11.9 6.455 4.334 13.049 14.63 15.146 22.197 3.393 12.251 5.585 13.415 19.921 10.559 18.058-3.591 20.414-.239 7.536 10.98-32.029 27.897-51.608 56.037-52.07 121.409-.166 23.91 9.03 47.322 20.383 69.253-5.987 30.114-8.54 75.637 7.821 101.807 13.462 21.53 63.216 69.82 88.424 59.783 4.647-1.847 8.286-8.604 8.286-14.884 0-14.738 10.777-10.154 33.606-2.05 28.295 10.046 71.783 13.1 106.815 1.04 16.74-5.763 10.674 1.82-7.654 10.559-19.83 9.454-22.579 27.004-6.05 38.583 14.046 9.84 16.954 9.323 18.745-3.29 1.22-8.58 5.899-11.507 24.013-15.006 24.12-4.66 28.203-11.123 13.025-20.605-13.466-8.41-11.89-12.433 8.294-21.212 14.992-6.522 24.31-15.603 31.933-16.664l.35-.544c34.305 5.958 51.553 24.175 60.677 33.137 9.919 9.732 23.655 17.875 1.243 17.875-11.074 0-18.38 2.308-18.713 5.92-.302 3.256-1.192 10.188-1.97 15.4-1.983 13.188 23.099 8.632 33.351-.326 8.203-7.162 12.648-8.342 17.256-12.048 13.132 7.893 28.132 32.966 26.074 46.83-2.852 19.245-6.57 43.508-10.618 77.833-6.872-3.376-12.819-1.243-22.952-3.075-13.073-2.36-16.342 3.218-3.476 19.576 7.222 9.176 7.162 13.41 16.525 9.851 7.837-2.975 8.684 8.267 8.032 25.673-.612 16.299 9.86 54.39 15.69 63.287 0 11.544-1.906 11.687-19.352 1.383-18.28-10.801-25.371-4.076-17.999 17.073 5.418 15.547 7.174 13.494 29.062 7.626 10.645-2.848 9.18 8.656-10.28 29.074-32.101 33.677-45.349 38.503-53.02 18.479-15.46-40.35-20.723-59.918-20.663-72.395.08-16.446 11.158-41.646 21.728-42.159 31.834-1.537 38.838-5.422 31.31-17.355-14.876-23.587-54.44-35.802-57.575-17.776-3.718 21.375-5.859 23.397-13.374 12.664-9.764-13.935-16.108-13.001-36.792 5.402-22.745 20.235-20.14 33.006 5.895 28.843 14.992-2.395 18.181-1.235 22.888 8.318 16.267 28.355 10.007 46.071 25.014 83.618 8.894 22.252 19.27 29.804 9.311 32.37-1.636.42-5.744 2.74-8.425 2.963-9.335-12.54-10.507-22.197-17.574-34.44-8.993-15.571-26.57-37.14-31.393-27.862-10.328 19.882-1.652 34.194 1.978 43.116 3.723 9.128 9.828 22.706 10.166 26.726-3.389 1.656-24.339-2.65-31.032-4.537-69.662-19.663-57.81-81.948-101.12-110.176-10.065-6.566-8.397-19.909 4.68-25.867 21.18-9.653 12.215-22.734-11.948-17.427-9.665 2.125-14.094 5.959-14.094 12.195 0 10.515-8.235 11.532-20.136 2.503-10.205-7.746-10.495-18.03-1.033-36.327 7.043-13.617 6.896-14.17-5.045-18.71-6.76-2.57-13.89-4.683-15.837-4.683-1.947 0-9.303-6.006-16.342-13.351-9.713-10.141-16.962-18.988-13.764-35.572 6.63-34.329 24.509-63.668 51.167-63.768 42.118-.158 63.053 28.013 25.737 33.984-17.061 2.725-18.956 4.409-18.956 16.794 0 9.494 4.04 16.768 13.029 23.477 0 0 7.643 10.348 13.025 9.724 4.262-.496 4.382-5.228 8.278-9.851 4.56-5.422 8.295-12.684 8.295-16.148 0-11.345 9.287-12.381 23.063-2.57 7.44 5.3 14.884 8.278 16.545 6.618 7.555-7.555.194-19.957-27.41-52.136-31.142-36.295-45.137-27.485-74.452-20.498-34.917 8.322-46.143 44.176-53.428 79.006-2.348-12.414-4.41-37.936-7.444-45.527-14.07-35.199-37.395-52.276-46.846-52.276-12.71 0-19.496 6.853-19.496 19.7 0 11.36 2.964 15.177 16.005 20.627 22.05 9.216 24.982 19.874 9.811 35.703-6.8 7.103-14.062 20.076-16.135 28.831a1171.903 1171.903 0 0 1-5.545 22.563c-.974 3.65 5.692 11.822 14.808 18.162 13.09 9.104 20.55 11.019 35.425 9.068 10.368-1.358 19.596-4.743 20.521-7.515 2.539-7.611 12.132-6.062 20.1 3.25 4.795 5.596 6.53 15.463 5.347 30.344-1.66 20.886-2.606 22.217-17.967 25.097-8.922 1.672-17.716.214-20.43.44C5.24 658.813-27.226 740.817 12.68 787.162c15.5 18.002 33.653 24.152 63.99 21.407 33.685-3.051 44.426-10.348 44.426-28.474 0-19.385-14.53-24.239-32.029-10.693-4.469 3.46-4.643 6.252-.66 11.05 7.644 9.208-7.229 14.023-22.22 7.19C52.374 781.35 48 772.075 51.77 757.052c2.73-10.872 10.05-15.85 39.715-27.008 18.273-6.868 19.93-18.471 5.915-41.459-5.204-8.529-10.447-14.78-9.466-17.387 1.359-3.603 6.364-3.277 14.138-4.981 12.496-2.745 66.385 5.704 66.385 10.407 0 1.005-5.323 7.576-11.838 14.599-13.934 15.027-14.983 22.701-3.555 25.99 4.56 1.311 12.02 3.925 16.58 5.8 6.5 2.677 8.307.993 8.426-7.754.048-3.77.246-5.724.596-6.832-1.045-8.986 6.713-9.92 6.713-9.92l.095.017c.691-.453 1.26-.85 2.288-1.454 3.138-1.835 5.085-4.81 12.56-2.2 19.108 6.665 34.5 76.633 63.272 93.845 5.839 3.496-1.836 10.777-8 10.288-11.48-.913-13.574 19.06-3.206 30.52 9.86 10.892 22.364 11.702 30.436 1.978 4.71-5.673 4.695-8.557-.08-14.32-3.289-3.973-5.045-9.05-3.047-10.166 18.849-10.51 29.356 4.032 62.076-.154 3.074 11.559 10.963 20.735 16.85 24.763 5.871 4.016 11.56 6.753 26.861 14.26l26.309 12.903-14.638 11.468c-10.368 8.115-13.92 14.22-12.168 20.934 2.904 11.102 14.182 12.032 27.147 2.224 12.922-9.772 27.616-8.651 42.758 3.258 10.968 8.631 12.588 12.723 10.356 26.467-4.23 26.074-21.967 41.284-22.126 18.968-.04-5.863-2.026-13.756-4.421-17.542-3.734-5.903-6.09-5.954-16.505-.381-15.496 8.294-15.5 20.556 0 30.706 14.9 9.76 13.613 14.125-2.816 20.16-19.838 7.284-55.295 9.902-71.407-11.799-10.498-14.149-10.876-32.918.505-36.529 15.293-4.854 10.884-11.845-7.468-11.845-12.505 0-24.279 1.06-31.163 14.205-9.625 18.376-32.692 37.88-62.02 19.301-4.846-3.07-3.523-14.888 1.76-21.768 6.753-8.79-9.386-10.01-12.064-10.912-25.883-8.672-42.003-.227-67.553 2.439-22.392 2.336-24.382 16.47-10.125 30.52 15.738 15.511 12.576 28.218-7.02 20.504-28.123-11.07-44.54-25.244-51.85-42.9-3.448-8.335-8.163-10.428-16.787-11.838-25.184-4.123-14.797 6.133-6.681 16.77l13.601 17.829c-25.526-11.035-56.39-12.795-68.999-10.948-12.036 1.768-15.33.31-18.416 20.894-3.3 22.007 2.086 36.069 13.78 35.898 2.94-.04 12.56-6.435 21.38-14.213 17.597-15.512 31.23-17.716 45.931-7.416 5.28 3.694 22.269 11.011 37.76 16.247 24.458 8.266 63.53 15.03 72.952 6.586 10.376-9.3-16.08-37.499-4.536-52.308 8.993-11.543 18.51-8.377 29.566-8.711 7.635-.238-5.91 3.722 6.423 32.652 10.813 25.36 62.6 27.556 77.73 10.932 18.956-20.823 18.92-30.177 34.929-8.23 16.91 23.174 39.48 22.96 52.37 21.684 15.469-1.529 32.157-5.315 46.326-10.272 2.94 4.449 1.756 10.71 1.287 12.918-1.669 7.889 37.69 5.287 40.307-2.67 1.033-3.13-2.534-9.47-7.92-14.081-12.132-10.384-12.172-13.844-.327-35.938 7.325-13.672 9.47-26.722 9.47-57.63 0-29.101-8.17-49.825-23.265-60.578-18.67-13.295-42.13-34.706-42.13-40.398 11.73-6.73 21.958-13.18 29.684-21.109 8.862-9.097 15.604-17.983 17.697-17.983s3.813 7.337 3.813 16.299c0 17.851 4.588 23.174 16.152 18.737 5.303-2.034 7.523-9.049 7.523-23.703 0-11.44 1.796-20.807 3.996-20.807s10.197 5.343 17.769 11.87c6.737 8.183 14.864 9.946 26.717 16.652-.516 2.534-3.857 9.144-9.629 16.036-48.859 58.369-42.027 93.031-36.33 136.266 2.22 16.854 2.538 24.97 11.32 34.32 10.202 10.857 10.774 13.435 5.268 23.723-3.4 6.348-4.886 14.877-3.32 18.96 3.626 9.454 28.43 9.812 36.135.52 3.65-4.389 10.432-5.958 18.67-4.313 7.119 1.422 21.05-.803 30.956-4.942 9.907-4.14 21.888-7.52 26.627-7.52 10.975 0 16.533-8.747 9.82-15.46-3.723-3.722-3.71-6.92.087-11.48 6.554-7.905 18.209.239 18.209 12.727 0 11.95 13.518 21.451 27.89 19.608 17.493-2.245 22.213-7.4 29.033-31.755 4.302-15.365 8.16-21.025 13.617-19.98 9.629 1.85 10.785 23.206 2.165 39.826-3.523 6.785-6.395 14.11-6.395 16.286 0 6.412 67.362 1.323 91.649-6.923 12.302-4.171 24.513-7.588 27.13-7.588 2.622 0 11.6-4.79 19.957-10.645 8.362-5.852 16.04-11.123 17.062-11.719a308.33 308.33 0 0 0 21.251-9.676c.946-.366 1.665-.576 2.713-1.01 29.042-12.031 64.876 6.13 76.908 38.977 5.089 13.887 16.676 17.41 20.919 6.356 6.621-17.256-23.254-50.937-52.943-59.684-6.4-1.887-11.091-2.995-15.492-3.158-6.467-.238-12.577 1.696-22.416 6.01-7.754 2.57-19.083 6.892-35.238 13.673-4.664-5.621-4.823-8.751-.668-12.902 3.015-3.02 5.478-6.964 5.478-8.767 0-5.9-14.396-8.978-22.686-4.85-36.136 17.982-46.226 24.799-47.731 32.243-2.014 9.97-9.22 15.504-20.338 15.611-5.498.044-8.843-5.573-11.043-18.606-1.736-10.269-5.955-21.006-9.379-23.85-8.68-7.202-54.607-12.25-54.607-6.002 0 2.689-6.193 11.52-13.76 19.623-9.772 10.459-16.247 13.788-22.309 11.464-10.765-4.131-29.896-25.57-30.094-33.72-.103-4.31-2.483-4.847-7.929-1.8-4.278 2.395-11.73 3.313-16.572 2.05-10.46-2.738-11.957 6.057-1.7 9.994 10.911 4.183 8.723 28.362-3.552 39.23-11.261 9.979-43.322 14.877-47.977 7.341-1.514-2.45 3.559-11.055 11.273-19.123 18.936-19.818 14.817-30.126-11.257-28.219-15.81 1.156-19.806 3.357-20.982 11.575-1.907 13.399-21.757 17.419-31.707 6.424-8.866-9.796-5.295-21.71 11.174-37.285 9.192-8.699 18.002-11.515 38.92-12.437 14.873-.655 29.543-2.737 32.593-4.624 7.969-4.925-6.7-19.893-26.523-27.063-19.968-7.218-19.98-11.126.044-21.574 8.767-4.58 24.696-14.439 35.405-21.903 16.013-11.166 22.444-13.017 36.208-10.435 15.11 2.836 16.445 4.314 13.692 15.27-3.511 13.994 3.54 20.405 22.595 20.512 13.55.076 21.86-12.433 13.684-20.616-7.428-7.428-13.672-25.176-.985-28.481 57.956-15.087 119.535-84.793 139.548-115.777 5.895 1.859 7.65.345 5.068 13.235-1.549 7.735-1.557 17.32-.047 21.304 1.533 3.988 7.388 7.253 13.02 7.253 8.974 0 9.904-1.906 7.449-15.392-1.541-8.465-4.1-19.75-5.665-25.073-1.31-4.45-4.838-5.204.731-11.337 9.641 1.509 32.355-1.156 38.047.007 22.142 4.529 24.315 7.44 21.856 29.28-2.88 25.522 10.447 45.96 24.747 37.956 5.64-3.154 13.236-3.329 21.367-.497 10.17 3.548 13.697 9.073 18.186 28.514 6.55 28.374 2.133 37.07-18.821 37.07-11.067 0-13.633-2.05-13.633-10.893 0-12.87-8.183-22.269-19.385-22.269-12.855 0-14.292 12.93-3.702 33.248 8.46 16.235 12.04 18.206 25.57 18.857 21.915 1.057 46.332-13.7 54.706-31.262 18.193-38.17 3.087-86.632-23.782-110.033-15.62-13.605-24.362-19.536-46.409-23.874-11.106-2.184-22.253-3.114-31.699-2.979-8.286.12-21.506 1.788-32.136 4.084 12.99-12.116 24.792-14.408 29.169-39.795 1.231-7.15-.31-20.954-5.375-26.535-9.2-10.13-4.341-10.28 7.556-22.249 5.474-5.505 24.27-33.602 26.757-5.414 1.474 16.672 50.19 49.42 48.165 27.155-1.37-15.063 16.648-12.775 19.925-16.744 4.58-5.553-5.68-21.776-10.55-33.78-4.513-11.123-30.878-13.017-31.998-31.302 13.534-20.013 20.767-21.717 27.528-27.266 3.258-2.673 11.226-5.6 17.713-6.503 6.904-.96 12.485-5.283 13.474-10.435 2.03-10.654-4.513-16.45-19.13-18.63-14.619-2.177-16.605 3.353-24.617 14.912-9.03 13.03-34.984 27.953-41.805 46.675-1.056-21.645-10.439-37.638-26.348-47.06-24.45-14.483-52.2-32.367-117.322 3.638-8.572 4.74-21.884 8.45-25.872 9.876-3.992 1.43-6.066 5.906-4.62 9.954 1.446 4.048 7.933 5.454 14.424 3.138 8.58-3.066 13.982 3.452 13.982 17.586 0 14.32 1.669 18.805 6.344 17.013 3.496-1.343 7.742-5.39 13.756-.87 6.618 4.973 16.803 2.046 21.514-4.338 3.639-4.925.457-16.12-6.09-20.922-5.767-4.234-11.876-7.718-11.845-10.55.35-32.625 45.555-38.301 70.81-17.157 34.11 28.561 32.641 58.48 12.037 78.453-15.377 14.905-33.483 26.877-35.111 37.34-1.327 8.545 2.224 18.432 12.739 30.65 6.53 7.588 6.475 9.288-1.597 18.944-11.512 13.769-21.443 13.554-26.082 15.97-4.406-.994-3.04-6.158-.91-22.027 1.994-14.873.667-18.805-7.873-23.377-13.395-7.166-33.63-4.565-39.68 5.104-7.614 12.175-.472 23.15 15.075 23.15 13.232 0 13.864.922 12.934 18.949-.536 10.419-4.409 20.826-6.657 24.628-22.376 41.836-66.032 81.003-122.149 104.726-13.387 5.66-39.874 9.295-43.532 7.65 4.051-4.881 1.573-.444 7.805-10.677 7.357-12.068 9.041-20.668 9.482-36.966.274-10.074-13.089-37.265-17.649-37.265-5.89 0-21.47 23.19-24.108 32.244-4.906 16.83-7.702 27.083-15.412 41.236-15.588-5.084-25.383-9.362-31.954-13.871 9.78-19.313 17.14-24.918 23.41-45.404 9.064-29.621 5.72-49.947 3.94-58.468-2.928-14.006 8.342-18.912 24.493-19.357 17.597-.48 19.09-19.623 2.133-27.345-11.412-5.204-13.685-4.6-22.126 5.823l-9.402 11.615-10.352-12.962c-5.688-7.138-14.817-12.973-20.279-12.973-12.496 0-25.51 19.226-22.026 32.545 3.05 11.663 2.2 11.393 17.307 5.649 12.72-4.835 24.986 3.88 26.241 15.432 6.213 57.106-6.951 61.4-27.83 98.696-6.061-.103-12.393-9.458-21.089-12.779-22.697-8.671-31.063-19.929-17.875-24.068 29.792-9.343 34.54-14.976 25.145-29.816-3.575-5.653-5.446-5.458-12.1 1.195-4.33 4.33-11.162 7.877-15.174 7.877-5.998 0-6.57-3.165-3.218-17.768 2.249-9.772 2.642-27.357 2.014-45.92-1.148-33.705.183-28.406 13.717-31.115 8.782-1.755 14.534-6.463 16.338-13.367 3.674-14.05-3.667-22.177-17.614-19.511-10.96 2.093-14.01-1.288-15.32-9.768-5.363-34.687-14.67-54.262-16.899-63.005-2.224-8.751 20.875-43.35 23.54-49.817 4.322 3.682 13.506 7.877 14.304 14.578.834 6.952 5.196 17.467 9.228 13.693 8.799-8.247 18.55-13.442 29.427-15.09 4.695-.712-8.223-9.526-20.382-14.54-11.722-4.834-21.316-10.308-21.312-12.167 0-1.855 5.14-8.127 12.334-14.808 41.614-38.651 80.98-40.86 114.927-38.64 20.076 1.316 37.082 3.477 53.96 13.546l-9.466 7.047c-9.287 6.912-9.168 7.373 6.447 23.556 8.76 9.073 14.638 18.583 13.057 21.14-4.628 7.489 10.813 10.758 20.942 4.43 10.05-6.276 12.116-15.425 4.545-20.1-2.606-1.613-4.731-5.768-4.731-9.236 0-4.719 9.918-6.387 39.445-6.633 21.692-.18 47.806-1.466 55.41-2.094 15.293-1.259 36.084-2.963 39.921 2.523 4.092 5.831 10.102 10.455 13.3 10.908 107.66 15.293 144.957-131.146 113.37-184.324-5.88-9.89-6.694-7.185-3.806-27.11 5.8-40.018-10.185-83.709-21.117-122.705-2.606-9.295.155-14.853 13.049-25.753 21.8-18.423 21.871-31.087.218-31.087-13.744 0-16.723-2.185-19.452-14.213C960.289 5.192 956.4.516 952.32.04a6.006 6.006 0 0 0-1.263-.016zm-277.442 278.3c2.875-.306 9.096 1.14 10.856 2.01 3.364 1.668 6.455 3.07 9.637 9.017 2.7 5.053 3.309 10.106 1.35 11.234-2.47 1.418-7.023-6.757-12.354-12.187-5.33-5.434-15.043-9.482-9.49-10.074zm295.404.854c1.97 48.478-18.8 85.504-76.653 110.303l2.848-13.212c2.304-10.71.755-14.161-8.147-18.249-13.574-6.232-19.93-4.318-19.147 5.347 1.974 24.446-41.054 24.013-72.963 25.502-46.08 2.145-69.746-8.834-78.863-13.756-5.426-2.927-6.82-8.687 13.117-7.837 55.553 2.363 127.456-10.336 182.643-38.095 30.46-15.32 47.505-31.675 57.161-50.003zm-917.977 27.17c6.77 4.882 12.354 8.088 21.204 15.691 3.591 28.442 10.52 40.728 20.514 57.599-4.322 0-24.148-22.257-35.06-39.656-7.031-11.21-6.53-24.525-6.658-33.633zm39.302 24.029c55.45 38.039 155.687 53.53 222.724 49.078-27.361 12.85-63.04 20.302-91.908 21.61-46.17 2.089-87.927-11.64-104.181-26.754-14.535-13.518-25.371-30.384-26.635-43.934zm386.03 39.787c2.605 0 4.73 2.133 4.73 4.739s-2.125 4.73-4.727 4.73a4.743 4.743 0 0 1-4.735-4.73c0-2.606 2.126-4.74 4.731-4.74zm-4.39 35.19a3.51 3.51 0 0 1 2.328.187c1.013.441 2.014 1.374 3.047 2.868 7.531 10.884 9.72 13.347 18.59 23.719-6.499 11.32-13.768 22.11-21.14 32.859-7.008-11.98-12.708-22.094-24.1-35.092 3.296-4.17 7.912-10.197 12.862-16.66 3.396-4.429 6.022-7.289 8.413-7.88zm4.727 124.7c12.207 25.319 17.16 106.25 13.287 138.45-.91 7.547-5.68 10.527-7.277 5.998-23.73-67.263-15.583-101.4-6.014-144.445zm451.81 141.167c4.243.342 8.648 1.72 8.648 1.72 16.962 3.257 37.201 22.968 37.201 30.118 0 9.975-4.993 7.647-31.878-16.044-11.075-9.756-23.834-8.417-21.458-13.585.556-1.208 1.843-1.843 3.456-2.118a16.799 16.799 0 0 1 4.028-.09zM64.189 689.204c7.436-.167 17.1 1.1 15.802 7.96-2.73 14.38-20.184 14.797-30.273 27.66-10.487 13.362-29.539 52.855-30.54 9.998-.433-18.52 20.438-42.456 38.802-45.13 1.494-.218 3.726-.437 6.205-.488zm487.196 81.353c7.877 6.546 14.645 11.253 27.683 14.844-4.35 7.607-33.745 26.778-38.297 27.945-8.398 2.106-13.967 1.28-16.589-2.272 8.66-14.757 17.856-27.568 27.203-40.517zm-152.446 20.81c8.183 9.252 19.091 22.265 30.492 32.291 5.092 4.477-10.55 3.587-27.513-8.405-9.82-6.94-19.257-14.697-19.853-18.066 5.923-1.39 11.913-3.813 16.874-5.82z"/></svg>
