<svg viewBox="0 0 1000 1000"><path d="M987.22 0c-35.79.4-33.68 34.81-33.93 51.85-.03 1.85-1.58 3.13-3.45 2.91-5-.56-10.87-1.98-10.28-14.32.27-5.87-7.05-8.65-10.86-4.13-23.98 28.47-26.08 74.55-74.16 78.37 38.15-37.01-12.37-62.56-53.55-51.62-13.5 3.58-41.56-63.06 45.77-14.14 7.11 3.98 14.33-6.02 9.24-12.33-2.88-3.56-5.62-6.61-7-10.93 39.83 11.36 62.75 9.17 73.89-6.28 3.38-4.7-.8-11.17-6.53-10.02-36.82 7.41-101.84-2.96-120.41-1.05-21.37 2.2-36.51 34.78-27.4 52.02 5.96 11.27 18.32 21.07 30.37 17 59.74-20.17 52.48 33.74 19.53 40.38-38.52 7.76-66.86-2.1-104.78 5.76C683.85 129.63 832.48-19.69 551.8 12.2a164.3 164.3 0 0 1-24.09 1 145.2 145.2 0 0 0-12.64-.05c-8.27.56-5.79 13.93 1.7 17.46 19.44 9.17 44.4 2.84 55.1 7.83-33.25 73.81 74.58 43.36 41.45.43C600.3 22 657 32.34 677.69 36.16c19.12 3.53 47.97 30.31 8.74 43.61-19.99-21.9-27-29.6-34.14-31.28-6.89-1.62-12.63 5.38-9.71 11.75 4.58 10.01 10.13 22.08 12.42 29.47 5.72 18.45-6.23 23.58 31.94 37.6 0 0-149.3 28.84-183.55 161.7-1.39-1.93-2.63-77.62-2.63-77.62v-18.84c20.72 1.73 22.75-27.54 18.13-30.31-4.18-2.5-10.81 14.21-15.5 12.3-5.56-2.25-5.86-12.82-9.12-19.6-1.3-2.69-8.75-4.5-9.67-1.67-1.98 6.09-.78 19.22-4.88 18.99-5.46-.32-8.63-10.79-17.46-11.04-8.25-.24 2.08 36.9 27.41 31.52v19.37L493 270s1.22 15.4-2.15 19.86c-16.27-45.13-40.4-64.35-87.84-117.4-3.8-6.37-6.48-10.76-2.75-17.56 1.85-3.36 7.11-4.15 12.59-1.88 6.72 2.78 9 1.91 8.03-3.04-.69-3.47-11.04-7.25-22.08-9.51-8.32-1.7-16.43-1.34-21.06.41-11.51-26.08-17.75-45.33-15.47-56.86.95-4.8-.7-9.68 2.59-13.35 11.2-12.54 17.92-30.83 33.37-31.12 6.07-.11 10.36 4.97 9.52 10.9l-.45 3.22a8.87 8.87 0 0 0 8.79 10.12c37.7-.47 67.13-64.86 11.6-63.42C385.6 1.48 365.1 32.6 349 68.71c-26.97-55.73-97.3-65.74-172.63-27.46-20.5 10.41-22.1 22.89 3.57 8.31 9.13-5.19 17.8-1.35 21.08.24 55.02 26.84 79.53 1.22 65.41-2.65-11.81-3.23-14.46-13.82-6.27-14.85 36.3-4.56 56.63 9.67 79.3 42.97 15.45 22.7 20.7 50.5 32.7 72.33-2.19 9.03 7.38 19.49 20.36 29.4.63.48.75.93 1.23 1.49 3.5 5.36 8.2 10.3 11.88 13.74-6.24-.68-92.79-35.05-162.1-30.76-61.11 3.79-67.3 1.49-101.38-9.88 3-7.2 9.93-7.77 13.46-15.32 3.35-7.16-6.12-16.74-13.8-18.92-20.95-5.93-44.85 4.26-59.85 2.1-50.89-7.35-69.38-68.48-20.51-91.9 39.42-18.9 44.32 44.49 9.7 9.62-4.2-4.23-11.43-3.91-14.72 1.05-7.3 11.01 7.81 20.47 12.58 22.62 41.8 18.83 84.45-30.83 49.32-53.34C53.63-33.97-98.22 127 173.92 174.29c1.03 4.18-51.95 31.78-85 63.77C71.57 224 71.57 215.8 77.11 195.78c-21.79-2.57-28.57 4.18-32.3 28-1.42 9.08-8.49 19.94-16.28 24.87-24.47 15.47-29.77 32.72-14.1 56.55 17.38-27.97 17.47-28.02 41.84-22.86-125.49 216.4 28.4 320.88 71.15 339.89-26.93 74.72 68.32 56.26 47.54 13.55 16.87 2.99 54.26 10.55 63.04 10.67 128.8 1.87 169.16 48.1 128.73 105.89-14.23 20.35-5.35 77.58 17.83 84.86 38.73 12.16 26.29-23.36 24.41-30.35-1.34-5.03-4.51-15.92-6.02-17.87-4.7-6.1-6.74 8.07-10.5 12.74-2.64 3.26-12.8 4.58-15.15-6.7-1.5-7.15 9.83-57.82 21.73-60.99 15.17-4.03 37.46-4.12 48.7 21.3 7.24 16.37 14.09 25.39 21.02 30.19-3.49.91-6.51 1.99-9.37 2.78-21.59 5.95-41.06-13.77-50.88-19.46-2.33 2.38 10.64 64.63 38 52.82 13.26-5.72 21.97-18.83 33.9 1.27-24.92 14.06-21.35 29.93 8.05 45.95-10.57 34.44-135.17 81.23-162.81 85.56-38.2 5.98-47.06-1.3-50.45-6.19-15.84-22.82-49.6-2.73-70.02-6.1-23.86-3.92-50.26-7.2-70.95-68.2-5.43-16 3.1-15.33 6.13-26.52 2.38-8.83.9-12.08-5.27-17.97-6.03-5.75 5.28-26.5 8.7-32.98 12.37-23.42 39.58-42.56 58.56-50.09 19.93-7.9.57-12.4-12.38-8.82-9.28 2.56-13.6 8.31-19.58 12.47-3.98 2.78-7-3.26-3.74-11.09 3.73-8.9 8.45-13.66 6.85-13.68-9.35-.09-34.83 26.03-31.77 31.79 1.48 2.8 5.39 3.2 2.54 6.73-11.38 14.17-18.76 21.72-24.6 34.74-7.02 15.68-10.63 44.32-46.26 42.12-28.7-1.78-28.01-25.1 2.84-37.24 6.44-2.53 11.51-7.2 11.51-16.63 0-7.49 2.93-16.54 6.51-20.13 3.58-3.57 5.45-16.65 5.2-23.32-.56-15.15-10.3 2.27-17.64 15.61-5.67 10.3-15.25 15.83-20.03 17.5-13.75 4.81-19.37 1.1-13.7-20.06 4.38-16.33 16.08-32.43 37.35-36.24 9.94-1.77 21.16-17.83 22.87-36.87 1.42-15.7-7.51-21.78-11.32-8.33-7.23 25.52-41.88 38.94-37.93 32.22 19.88-33.79 11.1-90.94-7.32-96.67-29.72-9.26-55.2 2.96-26.45 12.43 27.3 8.99 26.16 51.7 12.86 77.12-45.92 87.76-27.01 199.57 59.63 157.99 10.13-4.87 17.3 2.02 21.28 14.45 7.66 23.99 15.97 49.77 40.33 74.79C-31.25 893.42 1 997.85 17.93 999.3c44.61 3.84 61.3-9.16 65.56-18.73.76-1.7-.63-3.61-2.52-3.6-11.72.06-17.4-.19-23.78-.98-20.94-2.58 4.78-37.44 20.36-27.96 145.98 88.82 382.8-13.58 410.51-44.34-8.88 12.45-17.48 33.6-30.95 39.44-55.63 24.12 15.71 79.82 27.49 13.53 26.32 56.73 85.2 22.56 36.43-7.15-25.82-15.74-30.31-19.05-8.71-44.6 137.49 140.26 368.14 49.91 411.28 39.8 25.12-.45 15.8 20.5 5.59 28.69a2.52 2.52 0 0 0 1 4.41c4.73 1.2 8.66 2.1 11.97 2.88 47.94 11.17 68.72-54.6 2.6-53.37-28.96.54-157.8 40.96-180.65 25.58 57.15-9.26 107.43-34.38 132.04-90.92 23.83 21.08 39.87 25.08 57.88 15.27 25.83-14.07 35.52-46.31 36.9-76.23 1.42-30.6-13.55-133.5-24.45-162.91-10.3-27.79 13.72-76.5 23.8-98.7 2.07-4.58-3.63-8.69-7.44-5.35-8.7 7.64-25.44 34.29-42.32 68.6l-13.14-21.25c-25.1 48.04 25.22 75.25 21.82 110.35-38.55-37.13-36.45 19.3-24.6 29.59 63.85 55.5 40.74 138.6-6.22 122.34 51.11-23.38.21-122.34-63.83-118.49-1.7.1-2.25 2.14-.76 2.97 36.34 20.2 93.31 193.66-108.39 207.99 28.3-21.45 44.98-48.79 49.42-59.96 1.21-3.06-5-12.23-21.4-3.73-24.14 12.51-8.97 30.54-72.94 36.65-16.77 1.6-19.8 15.85-10.21 30.36 2.91 4.42 9.78 14.73 12.53 19.57-50.33 21.35-176.62-47.19-191.93-92.88 25.97-19.8 3.03-39.4 14.04-38.99 14.05.53 29.43-2.04 39.59-9.31 12.47-8.93 33.48-21.85 31.02-61-19.05 15.77-40.77 38.49-66.9 32.13l-17.8-3.14C542.19 775.1 558.35 675 627.9 726.24c9.48 6.98 19.34 14.32 20.59 22.04 4.66 28.74-6.9 20.24-11.7 14.75-24.55-28-19.26 45.11 19.21 24.02 18.06-9.9 16.65-49.34 2.6-68.85-11.9-16.5-16.83-29.2-14.8-40.88l.48-2.4c2.55-9.82 10.18-19.04 23.03-29.35 0 0 72.2-50.1 184.42-63.1-33.94 87.49 92.82 65.62 43.2-9.3-2.16-3.25-5.64-8.47-2.49-10.24 120.44-53.99 132.72-238 70.82-335.85 1.47-1.37 11.04 3.85 20.11 8.91a8.58 8.58 0 0 0 12.64-9.07c-3.64-19.54-20.88-23.79-38.15-25.06 3.8-13.41 9.26-27.5 9.3-35.25.08-11.4-13.94-22.06-24.09-27.26-5.16-2.65-11.19 2.23-9.23 7.63 4.84 13.3-2.13 22.49-1.27 33.78-17.82-7.92-28.59-18.34-40.74-26.83-12.33-8.61-26.02-15.32-39.12-22.86 62.06-9.24 120.9-39.62 126.42-91.1.97-9.08 22.22-15.53 20.8-29.17-.4-3.9-7.6-10.86-12.71-10.8ZM756.1 133.8c66.78-2.39 137.42 26.02 163.51 67.31-14.82 10.13-35.34 17.64-38.79 28.7-2.55 8.22-.24 12.74 6.8 25.68 2.85 5.25 10.16 6.34 14.26 1.97 14.15-15.09 28.12-43.38 35.75-31.91 77 115.7 31.86 221.6-7.7 220.75-8.56-14.83-20.07-24.97-39.34-15.19-20.21 10.26-9.2 25.9-8.26 40.47.53 8.32-4.7 19.88-6.15 24.41-7.56 23.66-67.25 39.46-101.07-8.44 18.8-7.16 35.72-12.47 51.4-20.21 5.3-2.62 10.86-10.84 10.76-17.47-1.09-72.95 33.08-79.6 60.98-59.88 5.48 3.87 15.4 8.5 22.55 12.3 2.24 1.2 5.01.5 6.36-1.63l.07-.1a8.62 8.62 0 0 0-1.9-11.42c-11.12-8.76-25.2-17.6-35.76-25.14-27.79-19.85-60.53 25.06-70.92 24.04-7.22-.72-2.28-15.76 1.4-24.86 1.22-3.02-1.7-6.04-4.82-5.02-16.33 5.34-51.13 24.16-28.49 62.77 15.29 26.06-16.31 49.97-23.23 49.97-18.64-40.58-18.54-77.45-1.8-108.58 11.2-20.82 68.18-32.25 84.82-35.62a4.64 4.64 0 0 0 1.97-8.23c-11.3-8.8-54.61-8.23-31.77-21.22 20.8-11.83 42.82 9.62 54.36 20.45 12.66 11.9 24.92 14.95 36.55 4.42 8.73-7.91 19.98-25.75 24.74-36.31 1.4-3.1-1.96-6.23-5.03-4.7-10.9 5.42-21.4 11.88-29.06 16.06a15.46 15.46 0 0 1-12.45 1.03c-22.86-7.89-46.81-21.85-82.44-11.46-61.2 17.85-47.51 39.76-59.3 70.2-60.05 155.15 105.43 258.5 218.46 99.78-19.95 78.36-82.3 99.14-165.98 119.64-41.84 10.25-81.2 26.3-106.5 24.04-21.52-1.91-53.32-.21-80.66 9.54-21 7.48-17.9-6.52-13.33-16.22 11.26-23.92-24.43-31.09-35.24-25.98-17.2 8.13-37.08 8.83-42.82-16.57-1.42-6.31-4.3-12.63-7.86-13.8-1.28-.42-2.28-.5-3.02-.12-2.2 1.13-2.73 6.49.03 18.57 13.54 59.15 55.62 80.94 96.03 68.37 43.42-13.5 80.88-17.39 92.66-13-68.23 25.8-77.75 54.16-70.26 97.82-78.07-40.78-86.6 46.92-123.56 67.46-3.01-13.76-8.02-42.29-2.86-63.1.96-3.9 1.02-8.36 3.83-11.25 20.87-21.47 14.35-39.92 4.28-48.79-7.51-6.62-7.36-17.09-14.78-17.36-7.42-.28-9.7 12.45-18.65 19.17-11.88 8.92-16.76 30.04 5.13 48.38a13.03 13.03 0 0 1 4.45 9.98c-.64 31.9.15 61.3.3 66.54-7.76-3.3-15.72-17.04-21.24-28.81-7.67-16.37-23.05-31.94-43.91-34.25-17.47-1.94-15.46-1.78-20.76-16.77-8.58-24.23-21.59-35.17-47.9-47.8 52.38-3.51 94.12-24.22 117.89-62.53 5.18-8.35 7.87-19.05 9.67-22.32 3.1-5.63-.79-11.7-6.32-13-3.7-.87-7.42 2.32-14.2 10.96-11.94 15.27-22.58 17.71-52.23 12-14.96-2.89-17.79-1.98-20.5 6.53-3.18 10.04 4.06 28.8 13.58 35.15 3.05 2.03 7.87 4.23 1.85 8.47-17.4 12.27-34.43 12.47-52.89 13.55-20.7 1.2-66.04 3.52-142.62-13.62-78.3-17.52-160.1-60.05-174.1-159.81 49.82 85.05 132.66 52.46 152.69 30.66 26.27-28.58 26.41-55.78 21.01-70.71-3.46-9.57.38-10.92.98-27.78.87-24.1-7.84-47.98-15.74-70.68-16.12-46.3 5.14-51.28 12.72-70.77 2.46-6.34-3.87-12.82-10.36-10.55-19.51 6.85-28.51 23.26-31.57 37.55-3.78 17.69 7.14 38.46 12.23 60.52l-11.95-4.7a14.67 14.67 0 0 0-15.92 3.5c-14.62 15.25-11.95 19.8 8.32 36.68 6.14 5.12 10.86 11.92 20.12 22.3h-19.54c-4.7 0-8.88 3.05-10.21 7.5-7.25 24.02 8.2 38.38 25.38 52.21 12.92 10.41 9.6 24.15 5.1 27.98-36.7 31.26-92.85 16.68-112.9-9.22 23.47 7.76 53.7-14.63 45.92-37.87-17.67-52.77-21.8-100.1-26.08-100.97-4.68-.95-10.19 8.2-13.93 46.66-.27 2.71-4.22 2.84-6.84 2.44-19.56-3.02-8.45 24.07-4.82 28.9 9.02 12.04 25.57 17.27 34.21 29.66 13.03 18.69-8.65 30.42-29.45 22.99-3.6-1.3-3.84-2.12-8.19-5.57-49.64-39.45-6.68-138.8 15.08-183.9 30.18 4.49 32.99 23.32 46.08 37.63 18.91-16.23-10.69-62.5-6.8-67.74 104.68-141.22 343.14-63.82 374.31 38.7-10.88 1.99-23.33 4.13-33.23.97-5.57-1.79-19.28-11.8-22.36-18.37-5.43-11.59-15.97-8.26-2.05 21.94 6.53 14.15 23.47 34.74 54.66 29.35-17.41 17.81-7.93 41.46 5.64 50.12 11 7.02 15.17 9.05 5.2 18.26-5.25 4.83-17.77 11-24.31 11.85-4.19.54-13.69-.06-13.58-4.7.15-6.48-7.03-10.52-12.67-7.2-6.63 3.93-14.05 7.15-16 6.45 14.54-10.94 24.05-47.55 3.92-47.13-36.3.76-12.24 39.95-39.23 16.48-7.73-12.28-3.23-44.53 16.37-57.45 6.32-4.16 1.85-13.74-5.59-12.22-67.76 13.85-31.65 176.37 87.84 108.64 1.9-1.07 5.46-1.58 5.95.52 2.6 11.25-10.64 14.17-3.3 21.53 3.53 3.53 13.06 3.3 16.23-.05 3.96-4.18 11.49-14.98 7.51-26.73-2.54-7.52-1.5-4.95 4.07-1.54 128.25 78.52 175.96-46.43 141.33-87-10.78-12.62-31.65-5.89-31.96 10.6-.49 25.64 28.53 37.12 22.46 46.76-26.99 23.47-11.78-27.96-31.43-23.62-19.66 4.34-18.42 43.33-3.87 54.27-1.95.7-2.74 1.4-9.37-2.52-5.64-3.33-21.75 2.07-9.28 18.13-18.01.19-70.38-17.7-83.3-34.2-1.84-2.35-2.96-4.94-.5-6.61 28.34-28.13 22.2-38.7 8.29-54.84 4.66-4.6 9.62-1.5 19.4-.91 33.9 2.07 50.33-30.6 39.91-48.99-10.93-19.3-11.75-5.81-15.6-.39-11.63 16.4-31.69 24.95-46.08 19.89 33.04-118.85 148.25-161.15 222.15-118.05 13.17 6.1 22.87 12.98 7.63 28.28-4.8 4.83-6.93 16.6-4.38 22.84 1.9 4.7 13.3 8.01 20.36 7.82 24.57-.67 49.9-19.18 75.03-2.54 3.05 2.03 6.95-1.08 5.62-4.47a172.8 172.8 0 0 0-17.57-33.4c-4.6-6.88-11.41-14.54-27.52-15.05-37.97-1.21-70.66-30.3-103.9-32.81 19.6-8.3 41.43-12.52 63.7-13.32ZM179.06 534.66c-6.46.13-11.68 5.96-8.95 22.36-16.62-2.24-19.9 30.93 9 19.13 12.48 20 37.41-11.27 13.86-19.04 9.29-9-3.83-22.66-13.9-22.45Z"/></svg>
