<svg viewBox="0 0 1000 1000"><path d="M833.66 0c-11.62 0-24.71 2.37-31.98 5.25-7.28 2.88-23.6 8.05-36.3 11.51-22.14 6.04-23.6 5.82-36.74-5.24C715.2.19 700.23-2.81 685.5 2.85c-10.66 4.1-9.23 10.14 5.49 23.11 15.7 13.85 40.81 19.7 50.37 11.76 3.76-3.13 22.25-6.6 41.06-7.7 28.7-1.66 32.8-1 25.47 4-29.74 20.3-54.64 43.15-54.64 50.09 0 4.43-2.32 10.37-5.13 13.18-3.35 3.35-3.5 6.1-.4 8.02 2.58 1.6 13.83-4.69 25.63-13.07 62-44.04 116.71-17.56 117.1 37.6.1 13.05-13.82 39.47-18.63 39.47-10.26 0-20.34-12.7-22.91-28.8-4.2-26.34-27.87-47.06-36.95-32.36-1.6 2.6-8.3 4.72-14.9 4.72-10 0-11.55 1.74-9.51 10.58 1.97 8.57-1.66 13.28-19.05 24.7-17.77 11.68-21.67 16.84-22.58 30-2.47 35.82 25.69 71.69 53.1 67.62 18.66-2.77 19.72-8.5 2.36-12.82-28.88-7.18-43.29-35.35-25.84-50.54 18.92-16.45 53.98-12.76 49.89 5.25-.94 4.13 1.5 11.69 5.41 16.77 6.2 8.05 8.94 8.51 21.57 3.74 14.22-5.38 16.96-.22 8.99 9.85-24.6 31.1-52.01 63.75-68.97 97.33-20.08 39.76-20.1 35.4-52.04 14.24-33.13-21.96-98.15-37.1-85.82-62.83 1.05-2.19 2.97-3.26 6.6-1.87 3.62 1.4 10.23-.16 14.68-3.41 6.9-5.05 7.25-7.6 2.24-17.3-3.23-6.26-11.98-16.29-19.4-22.3-9.12-7.36-13.52-15.26-13.52-24.2 0-7.77-3.06-14.45-7.4-16.12-12.7-4.88-16.8-3.17-13.96 5.78 1.7 5.33-.9 11.86-6.75 17.17-13.91 12.6-12.06 33.49 4.63 52.53 17.9 20.41 17.7 24.4-1.18 24.21-8.4-.09-16.32.38-17.62 1.02-1.29.64-15.54 1.5-31.7 1.91-20.9.53-29.33-.98-29.33-5.2 0-3.28-6.37-10.63-14.12-16.37-7.75-5.73-14.08-12.04-14.08-14 0-1.95 9.85-4.17 21.85-4.96 29.74-1.95 34.44-10.68 18.52-34.18l-12.37-18.23 9.68-10.3c6.7-7.14 13.29-9.56 21.6-7.97 10.44 2 11.8.84 10.42-8.9-1.32-9.38-4.27-11.24-18.02-11.24-16.8 0-42.27 9.3-42.28 15.42 0 1.88-5.13 9.36-11.4 16.65-13.06 15.22-20.47 48.44-12.56 56.35 5.8 5.82 7.07 22.1 1.7 22.1-54.4-22.78-88.15-134.48-57.17-173.8 5.88-7.45 23.05-42.51 25.6-42.51 1.19 0 10.05 4.22 19.7 9.4 22.92 12.3 43.53 12.57 43.53.57 0-4.86-3.2-11.47-7.08-14.7-19.61-16.29 2.97-16.4 26.04-.16 21 14.78 51.46 30.56 92.57 12.74 19.42-8.41 21.27-24.56 3.54-20.18-6.46 1.6-16.83 4.89-23.35 5.78-28.46 3.88-64.07-22.94-98.56-28.32-17.82-2.78-27.25.22-45.49 9.76-21.72 11.37-41.62 32.16-41.62 43.46 0 10.8-7.58 4.11-21.16-18.68-7.75-13-16.22-26.63-18.8-30.27-10.9-15.38-67.07-9.4-96.8 10.3-10.26 6.79-22 11-27.06 9.68-18.87-4.94-19.83 4.7-1.26 18.92 27.4 20.97 30.5-20.94 43.98-8.3 60.26 56.45 56.08 5.27 78.21 11.55 8.55 2.43 18.95 18.08 16.36 27.06-22.52 77.93 20.68 227.6 139.2 209.44-.04 1.94-12.37 9.44-27.43 16.68-20.08 9.65-29.15 17.18-34.01 28.24-7.92 17.99-24.98 21.82-47.33 10.66-8.12-4.06-21-7.37-28.64-7.37-13.82 0-13.9.12-10.74 21.16 2.57 17.2 1.81 21.16-4 21.16-4.3 0-9.45-7.75-12.97-19.53l-5.86-19.5-3.75 13.64c-4.97 18.18 2.85 39.94 20.02 46.71 28.06 11.05 37.7-2.11 53.19-7.2 10.32-3.4 3.39 18.21-12.21 29.74-11.93 8.82-10.22 23.35-5.78 37.11 8.18 25.32 14.65 67.37 1.75 100.96l-5.08 13.26-7.98-15.3c-7.47-14.34-8.56-14.85-17.9-8.3-8 5.6-10.01 12.03-10.26 32.63-.16 14.12-3.55 33.45-7.53 42.97-3.97 9.53-7.24 19.18-7.24 21.45 0 21 58.04-37.6 65.8-66.45 5.22-19.43 10.48-28.37 12.73-17.9 8.91 41.37 20.9 60.13 43.74 80.68 27.92 25.13 32.37 43.72 9.36 39.1-9.9-1.97-21.11.79-38.4 9.49l-24.42 12.29c-15.3-7.74-23.15-29.5-4.76-42.2 10.52-7.27 6.5-10.86-9.44-10.86-8.73 0-18.63 3.28-21.98 7.32-8.23 9.94-14.48 42.08-4.96 58.96 11.76 20.84 54.68 27.9 81.42 10.95 19.45-12.33-4.61 23.2-21.48 22.5-4.35-.18-7.78 1.68-7.78 5.5 0 5.07-4.7 6.5-18.22 5.48-10.05-.75-20.5-2.73-23.2-4.39-11.89-7.36-9.13 7.48 4.23 22.7 8.08 9.22 12.61 16.77 10.06 16.77-10.76 0-30.86-14.32-39.07-27.83-12.02-19.78-16.62-18.21-16.27 5.49.27 18.81 1.55 20.65 21.52 31.21 21.18 11.2 28.94 9.6 56.93 1.3 51.88-15.35 74.1-75.23 94.93-122.8 32.24 23.6 99.13 36.93 132.53 16.36 18.32-11.3 25.15-9.06 28.56-.17 4.81 12.56 27.88 8.42 41.18-7.4 6.69-7.96 12.16-16.35 12.16-18.64 0-2.28 8.37-6.4 18.6-9.15 21.5-5.8 26.82-11.8 18.88-21.37-6.08-7.33-18.03-6.04-48.01 5.21-21.22 7.97-22.3 3.29-3.79-16.56 19.2-20.57 21-29.7 11.72-59.24-7.93-25.26-13.36-31.37-17.5-19.78-5.03 14.12-8.57-2.46-4.55-21.32 4.33-20.37 4.18-20.76-7.57-20.3-14.88.57-20.42 15.35-13.55 45.12 12.66 54.88-17.93 126-66.37 131.96-29.24 3.6-66.36-1.13-66.36-10.34 0-2.13 7.93-7.9 17.62-12.85 24.74-12.64 48.17-44.52 48.17-65.6 0-8.65-34.25-43.17-42.84-43.17-7.98 0-9.2 10.46-2.45 20.8 6.66 10.16 6.41 11.68-3.13 20.42-5.67 5.19-15.06 10.89-20.87 12.66-15.34 4.65-14.5 24.9 1.18 28.84 6.46 1.63 11.72 4.6 11.72 6.6 0 6.68-27.36 13.64-35.12 13.22-13.61-.74-9.18-3.65-12.37-20.5-8.21-43.41-15.79-69.36-54.36-96.57-44.98-31.72-33.19-151.22 26.4-201.65 6.78-5.73 18.14-7.95 25.85 2.6 5.35 7.33 7.46 7.68 13.87 2.36 8.62-7.17 9.85-19.73 2.64-26.94-3.4-3.4-3.03-6.3 1.19-9.44 10.18-7.59 16.03-12.31 38.61-13.14 23.27-.85 46.05 2.4 70.15 12.53 6.7 2.82 17.09 5.72 17.09 8.02s-4.38 1.36-10.13 1.5c-41.56 1.02-80.6 16.1-109.9 39.8-34.47 27.88-34.42 50.7-39.56 66.04-3.37 10.08 15.6 6.15 31-8.8 8.33-8.07 14-17.6 12.62-21.2-3.16-8.23 13.46-30.62 20.51-29.82 12.04 1.38 7.08 7.36 2 19.45-1.46 3.45-5.88 8.95-3.95 12.7 4.28 8.35 11.75-4.33 16.07-2.28 6.64 3.15 7.84 17.67 19.73 2.03 7.4-9.71 10.94-10.61 8.88-32.14-1.71-17.76-.76-25.25 4.06-26.65 56.21-16.4 83.63 1.5 101.16 12.98 9.4 6.15 21.57 11.64 20.26 21.16-11.58 84.4 4.37 135.53 57.05 202.1 7.82 9.89 14.33 25.67 13.63 52.5-1.23 47.5-12.99 90.52-45.7 126.62-4.65 5.15-13.4-9.69-11.47-14.73 3.1-8.06-13.3-10.19-18.14-2.36-1.6 2.6-7.93 4.72-14.04 4.72-11.63 0-32.08 21.14-29.22 30.2.88 2.8 6.23 7.16 11.88 9.72 5.66 2.55 9.73 5.97 9.08 7.57-2.34 5.69-14 18.5-26 29.9l-15.1-10.66c0-18.66-2.32-24.86-13.18-35.27-7.25-6.96-15.41-12.66-18.15-12.66-2.74 0-10.58-4.38-17.42-9.76-7.56-5.96-21.18-12.7-51.43-10.5-19.85 1.44-55.94 27.48-47.32 61.68 5.93 23.54 18.37 26.9 14.65 3.95-1.97-12.15-.68-19.21 4.6-24.5 13.24-13.25 28.1-21.13 34.78-18.43 7.42 3 23 34.25 23 46.14 0 12.74 21.93 9.9 31.04-4.02 7.23-11.04 8.43-11.36 16.15-4.36 4.59 4.15 7.32 13.78 11.2 18.96 2.85 3.81 15.7 2.45 12.93 8.35-130.11 132.82-366.37 151.97-505.2-9.9-16.28-15.77-31.18-28.48-26.45-32.06 28-27.89 25.63-63.38 22.5-77.02-3.33-14.51-5.57-19.09 4.92-19.09 14.81 0 24.21-15.3 24.21-39.47V634.2c0-27.9-28.9 34.04-66.65-10.1-14.65-17.12-10.01-24.8 7.57-15.66 7.01 3.64 16.62 5.6 21.36 4.35 12.8-3.34 35.73-28.9 30.44-33.9-4.86-4.58-36.79-10.1-64.17-11.1-16.77-.61-19.18-1.22-21.8-22.05-7.54-59.7 7.03-84.07 46.83-93.06 3.33-.76 7.92 1.17 14.48 3.9 8.54 3.57 17.78 5.99 20.55 5.38 7.5-1.67 9.47 40.7-8.1 53.38-9.16 6.61-22.78 4.37-22.78-5.57 0-10.58-21.98-8.1-24.83 2.8-2.63 10.1 8.61 40.17 29.75 37.64 77.16-9.23 58.33-152.3 2.77-167-4.06-1.06-7.55-8.97-13.43-11.22-7.53-2.88-14.51-13.95-23.6-37.44-7.1-18.35-12.94-34.53-12.94-35.93 33.22-1.1 45.07-9.43 64.82-39.95 4.54 0 4.01 36.76-.73 50.53-4.34 12.6 3.8 14.23 18.75 3.75 8.9-6.24 9.39-9.26 5.58-34.1-4.71-30.7-12.26-39.02-35.44-39.02-12.97 0-17.38 2.88-25.4 16.48-11.67 19.8-26.04 21.86-30.43 4.35-3.9-15.56 1-20.1 23.4-21.6 13.9-.94 19.33-3.84 23.23-12.42 4.35-9.55 3.47-12.41-6.02-19.57l-11.1-8.38 10.61-5.7c5.83-3.12 12.24-5.48 17.86-2.4 12.32 6.74 15.33 10.4 15.26-5.9-.07-17.4-6.97-22.95-33-17.3-76.26 16.58-80.08 99.32-38.4 165.17 11.62 18.38 1.81 22.77-13.11 4.31-67.37-83.32-94.13-190.3-44.6-261.63 5.76-8.3 12.96-13.7 37.6-15.47 11.4-.8 14.37 1.04 15.58 9.6 1.44 10.08 3.54 10.59 43.46 10.59 23.5 0 29.34-11.94 29.34-14.45 0-2.52 8.04-4.76 17.62-1.87 26.19 7.9 39.14 13.32 64.09 9.8 1.04-.14-9.14-10.48-23.85-18.71-13.54-7.58-36.58-16.54-45.17-14.24-8.7 2.32-22.2 1.22-14.4-7.16 10.63-11.44 34.26-13.44 22.3-29.63C214.13.75 200.09.15 187.17.16c-25 .04-53.6 10.8-78.69 29.63-18.85 14.14-41.74 22.3-33 11.75 3.66-4.4 4.4-11.7 2.03-20.54-2.83-10.63-7.2-14.42-19.45-16.93C39.52.27 22.92 5.5 18.72 16.48c-4.56 11.9-3.41 41.43 1.91 49.36 3.98 5.93 6.55 4.83 16.15-6.88C53.4 38.7 55.48 46.8 41.91 76.42c-51.78 107.48-2.9 215.88 78 297.8-5.65.12-15.78-.11-31.7-.8-13.22-.59-25.7-16.89-44.26-32.84-7.73-6.64-8.68-16.22-10.95-24.95-6.1-23.36-21.52 0-19.65 10.62 3.6 20.44 8.66 35.85 19.57 35.85 8.45 0 29.78 13.88 29.78 19.37 0 2.29-6.2 4.15-13.8 4.15a34.2 34.2 0 0 0-16.6 4.52c-5.5 3.4-11.54-1.65-16.23.85-2.86 1.53-2.32 8.75 1.71 8.75 9.16 0 9.31 5 .45 16.72-7.54 9.98-10.18 67.92-3.1 67.92 6.86 0 13.42-10.82 17.06-28.2 4.67-22.33 5.51-22.44 15.99-19.05 14.54 4.72 22.53-9.22 38.57-11.63 12.6-1.9 23.46-16.24 21.08-26.62-3.97-17.32 22.5-13.96 65.27 8.3 23.22 12.1 27.78 25.3 8.54 24.79-19.81-.54-52.9 10.14-76.7 24.74-16.1 9.87-25.35 20.75-38.74 45.57-9.68 17.94-17.58 35.44-17.58 38.9 0 3.46-7.75 14.23-17.2 23.92-14.16 14.51-42.26 28.3-26.3 67.02 17.96 43.53 15.85 25.19 33.7-20.34 6.85-17.47 13.03-27.26 15.62-24.66 4.74 4.75 13.03 59.18 15.14 99.49.75 14.23 2.64 29.03 4.23 32.91 4.12 10.08-3.67 20.06-14.04 17.99-8.75-1.75-10.65-12.61-6.06-34.26 2.94-13.85-13.26-15.24-19.4-1.67-2.73 6-8.3 17-12.34 24.45-4.04 7.44-7.63 19.7-7.97 27.23-.54 11.64 2.68 15.58 21.48 26.36l22.1 12.7 8.99-9.65c12.24-13.15 19.61-27.77 19.61-38.81 0-18.32 13.15-15.12 23.2 5.65 10.85 22.45 13.67 51.13 4.06 41.5-8.5-8.5-11.71-6.93-14.69 7.29-1.66 7.93-8.58 19.08-20.3 24.7-65.23 31.28-87.17 95.4-22.79 162.03 13.56 14.03 26.11 12.4 38.05 10.45 8.69-1.4 17.08-.48 18.64 2.04 6.17 10 46.16-12.39 51.35-28.73 1.6-5.04 8.08-13.2 14.4-18.19 7.28-5.73 10.45-11.83 8.63-16.6-3.63-9.45-20.09-9.85-23.64-.57-1.47 3.81-8.9 10.06-16.52 13.88-14.76 7.37-14.8 7.33-19.86-16.12-1.4-6.46-5.65-15.99-9.48-21.16-6.13-8.28-8.22-8.68-17.3-3.13-8.44 5.17-10.98 5.21-14.07.2-2.99-4.83-5.8-4.27-13.3 2.53-7.39 6.69-8.5 10.63-4.85 17.45 2.59 4.85 2.88 8.8.6 8.8-41.92-17.48-15.25-67.9 4.12-83.79 34-27.9 54.4-45.12 65.67-48.87 26.83 32.61 75.72 87.83 137 122.64 8.41 4.78 7.44 7.54-1.3 24.7-5.11 10.04-11.34 18.23-13.87 18.23-2.53 0-4.64 5.02-4.64 11.15 0 9.64 2.76 11.45 20.26 13.43 28.36 3.2 50.21-.72 50.21-9 0-5.77 1.19-5.65 7.41.58 8.08 8.08 18.1 8.75 46.63 3.13l18.76-3.7-13.18-5.42c-7.28-2.99-16.26-5.45-19.94-5.45-3.69 0-9.35-4.22-12.57-9.4-3.23-5.17-10.44-9.4-16-9.4-5.56 0-11.11-2.71-12.37-5.98-1.66-4.34 3.13-7.92 15.95-4.2 98.9 28.8 156.47 27.32 253.1-1.7 17.43-5.23 18.2-2.13 19.65 15.01 1.34 15.84 3.22 17.87 22.22 24.17 19.29 6.42 21.13 6.3 27.1-1.87 10.17-13.93 40.2-11.8 56.72 4.03 15 14.4 29.93 16.12 49.8 5.74 7.4-3.86 16.4-7 19.98-7 4.02 0 6.51-5.12 6.51-13.39 0-7.4 4.16-17.17 9.36-21.89 11.2-10.15 12.1-16.44 2.28-16.44-3.93 0-9.49 5.1-12.33 11.36-10.15 22.29-39.92 18.55-70.15-8.8-17.83-16.12-19.76-16.7-57.21-17.25-21.3-.3-40.78-.12-43.3.37 86.3-67.77 150.05-138.41 228.07-118.65 37.63 25 63.35 38.76 67.5 53.42-19.18 8.98-28.99 12.02-30.3 34.35-.9 15.2-9.33 35.8-16.24 35.8-2.94 0-7.66-2.32-10.46-5.12-2.8-2.81-9.92-4.4-15.83-3.54-24.1 3.53-12.1 22.74 22.87 36.54 0 0 16.31 12.96 24.33 9.56 5.27-2.22 3.68-8.85 6.6-15.83 5.47-13.12 8.56-15.42 18.14-13.59 12.85 2.46 17.38-6.75 17.5-35.48.04-10.44 2.03-15 5.94-13.67 3.75 1.25 5.97 11.79 6.15 29.09.35 33.97-8.83 46.93-39.84 56.15-49.65 14.76-67.93 33.65-27.18 28.08 10.89-1.5 30.75-9.84 45.45-8.06 40.47 4.9 37.83-1.03 46.55-41.3 9.4-43.4-5.85-83.52-41.75-109.9-12.88-9.47-25.8-21.74-23.44-21.53 34.1 3.18 67.8-18.8 79.1-39.43 16.51-30.12 27.53-85.51-43.7-119.7-5.4-2.6-4.76 4.53-13.02 12.44-16.32 15.66-6.5 26.65 10.66 32.64 19 6.63 14.76 18.66.57 30.15-6.01 4.88-14.15 7.11-20.18 5.53-6.67-1.74-12.3.33-16.48 6.06-10.42 14.27-7.54 23.4 8.91 28.24 18.56 5.48 23.16 26.3 7.37 23.24-41.77-8.11-55.46-22.6-108.64-14.81-15.8 2.3-3.91-6.62 5.12-20.18 44.54-66.92 31.44-110.19 40.81-120.24 9.64-10.34 18.48-25.54 21.86-32.15 6.72-13.16 16.8-19.57 28.6-27.38l-2.97 18.06c-2.71 16.47-1.84 18.6 10.05 24.05 11.28 5.17 13.88 4.89 18.96-2.08 3.24-4.43 5.86-13.6 5.86-20.34 0-14.44 7.77-23.52 20.1-23.52 7.5 0 8.37 2.29 5.62 15.26-1.78 8.4-3.55 17.4-3.9 19.98-.37 2.59 4.99 5.39 11.87 6.18 15.15 1.76 33.73-8.07 13.3-45.61-25.2-46.34-96.63-22.04-122.14 28.65-2.09 4.14-2.1 8.46-4.68 8.46-2.84 0 0-14.14 4.15-39.84 11.98-74.22-17.52-138.53-66.16-190.22l22.3-28.4c28.26-36.03 37.04-37.38 32.67-4.93-3.82 28.38 14 43.98 33.9 43.1 58.58-2.63 50.84 82.03-1.51 55.5-8.65-4.39-14.3-3.38-17.9.28-7.34 7.43 26.3 37.52 41.94 37.52 17.44 0 44.56-12.5 44.56-20.55 0-3.82 5.26-13.23 11.72-20.92 6.46-7.68 11.76-17.52 11.76-21.85 0-13.13-9.2-26.04-18.56-26.04-12.12 0-23.72-4.86-23.72-9.93 0-2.3 3.03-4.19 6.76-4.19 13.04 0 12.44-9.47-1.59-24.5-11.03-11.8-18.08-15.18-31.9-15.3-21.3-.18-26.43-11.72-9.28-20.9 8.49-4.56 13.8-4.79 21.04-.9 5.32 2.85 15.1 5.16 21.73 5.16 6.63 0 12.04 2.14 12.04 4.72 0 7.73 6.39 5.42 20.02-7.24 16.84-15.63 17.46-38.54 1.47-53.59-13.45-12.65-19.25-10.38-23.12 9-3.38 16.95-16.11 18.99-29.09 4.63-10.11-11.18-36.97-3.26-53.26 6.15-37.28 21.52-49.37 48.03-79.15 79.87 1.07-11.97 4.69-17.18 9.93-27.06 25.6-48.22 61.25-93.72 83.01-110.06 10.56-7.93 7.5-11.13 20.06-2.9 11.83 7.77 13.4 7.8 21.24.7 11.72-10.62 28.57-9.6 41.46 2.52 15.25 14.34 17.64 8.67 8.96-21.24-6.46-22.22-9.43-26.26-21.2-28.85-9.44-2.07-19.76.09-33.29 7-10.8 5.51-20.82 8.84-22.3 7.37-4.75-4.77 8.94-25 20.51-30.28 7.83-3.57 11.32-9.06 11.43-18.15.1-7.16 3.19-18.35 6.88-24.82 3.7-6.46 6.8-17.54 6.88-24.65.19-14.59 3.7-15.94 16.84-6.31 14.28 10.45 20.88.8 20.88-30.48 0-29.2-6.26-40.46-20.26-30.88C929.24 48.4 916 66.6 919.47 114l-8.5-12.98c-7.07-10.8-7.66-15.85-3.5-29.99 10.46-35.54 10.7-54.36.7-60.62-12.85-8.04-26.5 1.07-33.62 22.46l-5.5 16.52-11.22-24.7C847.5 2.03 845.28 0 833.66 0Zm-51.1 393.47c35.52 35.08 54.58 79 57.12 146.2 1.36 35.92-6.2 30.16-29.05-8.13-22.68-38-31.6-88.7-28.08-138.07Zm-681.28 101c2.74-.19 2.68 5.39 1.63 16.96-5.74 62.9 2.26 97.2 33.77 141.28 14.58 20.4 48.33 86.01 14.36 121.17-10.64-17.95-15.57-23.9-27.3-36.82-12.86-14.16-33.53-38.53-15.83-35.44 13.75 2.4 13.17-13.93-1.3-35.32-25.86-38.24-35.89-126.9-17.82-157.51 5.54-9.4 9.75-14.14 12.49-14.32Zm364.66 56.72c34.43 21.34 62.37 53.77 60.83 99.73-42.35-31.47-59.36-79.91-60.83-99.73Z"/></svg>
