<svg viewBox="0 0 1000 1000"><path d="M221.45 13.17c-.97 0-2.92 1.95-5.85 6.83-2.93 4.88-11.7 7.8-16.59 7.8v-.97c-40.97-10.73-94.63 11.7-94.63 49.76 0 11.7-3.9 17.56-12.69 17.56-14.63 0-25.36-16.59-25.36-32.2-.98-.97-.98-1.95-.98-2.93 0-12.68 30.25-3.9 30.25-16.58 0-9.76-10.74-14.63-33.17-14.63-26.35 0-39.03 13.65-39.03 40 0 34.14 15.61 51.7 33.17 30.24 8.78-10.73 6.83-12.68 14.64-3.9 4.87 5.85 18.98 10.9 20.48 14.63 15.67 38.87 39.01 56.59 75.23 63.78-18.45 3.97-37.18 9.4-48.88 9.4-24.4 0-23.42 2.92-42.93 2.92-10.73 0 5.85-13.66 5.85-17.56 0-5.85-10.73-7.8-19.51-7.8-12.68 0-37.07 20.48-37.07-3.9 0-9.76 2.92-15.62 8.78-17.57 11.7-3.9 11.7-10.73-3.9-10.73-14.64 0-22.45 9.75-22.45 28.3 0 31.21 6.43 44.91 29.03 51.03 28.63 7.74 59.04-1.08 77.43-9.57-5.53 8.54-30.57 37.81-67.43 62.92C28 272.16 1.2 289.68.04 301.95c-1.37 14.57 27.26-2.92 32.14-4.87-7.8 15.6-20.49 26.34-20.49 64.39 0 18.53 4.72 42 7.8 51.7 12.05 37.87 36.97 69.88 57.5 79.18 30.6 13.85 63.71 81.75 46.9 72.05-4.22-2.44-10.73-8.78-13.66-8.78-3.9 0-11.7 5.85-12.68 5.85-4.88 0-7.8-1.95-7.8-5.85 0-2.93 14.63-.98 14.63-6.83 0-2.93-5.86-4.88-18.54-4.88-15.6 0-19.51 2.93-13.66 12.68 0 2.93 1.95 6.83-.97 6.83-6.83 0-11.71-8.78-15.61-26.34-3.9-18.54-8.79-27.32-13.66-27.32-5.86 0-13.66 13.66-13.66 20.5 0 5.85 3.9 10.72 10.73 14.63 6.83 3.9 9.76 6.83 9.76 8.78 0 1.95-11.71 10.73-11.71 12.68 0 1.95 1.95 4.88 6.83 8.78 8.78 8.78 35.12 13.66 45.85 2.93 4.88-4.88 8.78-6.83 11.71-6.83 6.83 0 14.63 11.7 14.63 19.51 0 13.66-38.05 11.7-38.05 23.41 0 15.62-18.53-15.6-18.53 6.84 0 27.31 43.9 17.56 58.54 6.82-15.61 29.27-20.5 34.15-46.83 39.03-14.64 2.93-29.27-14.64-29.27-23.42 0-3.9-2.93-5.85-9.76-5.85s-6.83 2.93-6.83 7.8c.98 1.96 1.95 6.84 1.95 8.79 0 9.75-20.49-10.74-20.49 3.9 0 13.66 27.32 28.3 41.96 28.3 53.65 0 99.39-52.25 96.33-103.87-2.19-37.13-19.62-65.87-46.58-89.31 15.43 9.32 40.22 12.53 49.76 14.73 3.31 4.52 7.89 11.6 12.16 13.18 5.1 1.89 16 7.67 24.84 1.41 4.65-3.28 4.9-4.88 1.03-6.45-6.52-2.65-7.63-8.34 1.4-11.32 40.95-13.54 78.95-60.37 75.36-93.5-6.96-64.42-45.7-78.8-73.51-92.3-15.44-7.48-16.12-13.83-9.39-13.95 13.42-.22 26.94-12.28 25-22.28-1.37-7-6.36-8.8-24.94-8.94-17.3-.14-25.21-2.38-30.04-9.49-9.14-13.46 9.25-26.39 21.04-23.99 16.73 3.4 9.03-12.22 2.67-13.5-29.24-5.9-50.23 26.94-47.06 44.11 3.95 21.4 8.21 26.7 31.63 39.86 6.76 3.8 11.26 7.2 13.57 9.9-52.68 3.37-66.61 36.44-66.69 70.09-.05 21.46 19.52 62.44 37.08 62.44 2.92 0 3.9-.98 3.9-3.9 0-13.66-15.61-24.4 10.73-24.4 13.66 0 53.66-11.7 53.66-24.39 0-4.88-10.73-14.63-15.61-14.63-.98 0-10.73 5.85-11.7 5.85-3.91 0-13.67-26.34-15.62-26.34v17.56c0 14.64-8.78 31.22-22.44 31.22-15.6 0-23.41-24.39-23.41-40.97 0-26.35 38.22-41.94 63.41-39.03 35.35 4.08 65.59 44.79 65.37 79.03-.2 31.21-37.07 80-80.98 80-65.36 0-135.6-26.35-135.6-98.54 0-9.76 4.87-9.76 10.72-9.76 4.88 0 26.35 19.52 33.17 15.61 17.57-8.78.98-31.22-13.65-45.85C49.74 340 42.9 326.34 42.9 313.66c0-8.78 2.93-14.63 7.8-17.56 7.81-5.85 8.79-3.9 16.6 4.88 6.82 10.73 15.6 14.63 24.38 14.63 5.86 0 24.4-3.9 24.4-10.73 0-1.95-5.86-6.83-16.6-15.6-35.11-25.37-25.36-36.1 5.86-67.33 18.54-18.53 34.57-31.27 48.78-34.14 89.3-18.05 167.94 38.16 192.68 53.5 25.06 15.53 44.4 62.6 58.06 87.96 5.85 12.69 12.36 28 20.84 37.46-10.57-2.57-16.61-5.08-26.15-5.46-21.33-.86-37.08 9.31-47.34 30.48-9.42 19.43-9.83 36.04-.58 23.53 2.04-2.76 8.86-7.35 15.16-10.2 9.34-4.2 12.75-3.68 18.54 2.85 12.74 14.39 28.6 6.89 26.12-12.35-.91-7.07.1-12.14 2.14-12.63 14-3.34 19.49-1.84 38.1 8.76 18.6 10.6 32.93 15.66 54.39 15.62 28.87-.06 58.78-9.76 58.78-29.28 0-6.82-4.88-12.68-13.66-17.56-5.85-3.9-9.75-5.85-10.73-5.85-2.93 0 3.9 23.41 3.9 25.37 0 12.68-14.58 16.81-38.95 15.93-66.31-2.38-106.83-85.4-89.83-148.62 1.83-6.8 14.64-14.63 14.64-10.73 1.95 2.93 4.87 3.9 9.75 3.9 34.15 0 10.73-30.24-5.85-30.24-2.93 0-6.83 1.95-10.73 4.88-3.9 3.9-6.83 5.85-6.83-.98 0-18.54 8.2-37.78 22.44-59.51 22.84-34.87 34.21-42.17 54.89-64.57 10.94-11.86 44.62-15.43 50.47-15.43 10.74 0 25.37-4.88 25.37-13.66 0-6.83-29.25-5.04-26.72-9.21 9.95-16.46 109.42-26.67 97.2-9.36-3.65 5.17-10 10.76-10 13.69 0 22.44 35.13 29.27 49.76 14.63 8.79-7.8 24.55-16.68 58.34-13.58 35.94 3.3 45.53 11.34 52.89 16.5 20.96 14.74 71.7 56.58 31.22 8.79-8.2-9.68-21.25-17.6-30.25-23.41-8.2-5.3-11.7-9.76-11.7-11.71 0-5.86 30.34-.54 37.07.97 33.07 7.43 73.72 36.9 102.72 82.93 15.88 25.2 26.06 40.98 26.06 47.8 0 9.76-17.56-.97-22.44-.97-17.56 0-20.49 38.05-1.95 38.05 1.95 0 2.93.98 2.93 1.95 0 6.83-16.59 15.61-4.88 18.54 18.54 5.85 7.8 20.49-8.78 25.36-12.68 4.88-20.49 10.74-3.9 10.74 12.68 0 37.07-11.71 37.07-26.34 0-3.9-1.95-9.76-1.95-10.74 0-12.68 21.56-13.39 24.4-1.5 43.11 180.77-9.66 204.7-66.66 279.07-4.73-18.5-9.63-38.72-12.8-56.4s-7.6-33.37-13.37-47.76c-11.54-28.78-28.49-52.37-51.67-76.31 13.91-2.92 27.61-2.97 38.84-.84 35.57 6.75 50.04 18.87 50.04 57.9 0 20.48-2.93 30.24-8.78 30.24-10.73 0-11.71 9.75-3.9 9.75 16.58 0 38.05-26.34 38.05-49.75 0-2.93-.98-5.86-.98-8.78 0-5.86 12.68-7.81 12.68-5.86 6.83 0 3.9-5.85 2.93-13.66-4.88-16.58-8.78-40.97-22.44-49.75-13.66-6.83-40 3.9-26.34 16.58 5.85 4.88 8.78 8.78 8.78 12.68 0 9.76-5.74 3.73-11.7 0-28.46-17.77-60.96-17-87.77-9.09a658.47 658.47 0 0 0-11.47-10.77.64.64 0 0 0-.1-.2c-9.65-13.51 7.4-32.45 28.32-30 31.97 3.76 51.31-10.32 51.31-32.2 0-7.55-2.1-13.73-4.68-13.73a4.7 4.7 0 0 0-4.7 4.69c0 2.58-5.27 4.69-11.71 4.69-15.85 0-14.88-3.22 7.03-23.45 13.95-12.87 18.75-20.95 18.75-31.52 0-18.4-11.27-28.9-18.04-16.8-4.24 7.57-9.15 7.73-9.76-5.6-.95-21.03-11.9-27.3-25-31.66-16.03-5.35-36.28 7.18-36.28 22.44 0 17.94 5.1 25.63 17 25.63 9.72 0 10.9-1.64 8.37-11.72-2.57-10.22-1.4-11.72 9.07-11.72 10.03 0 13.72 2.55 15.1 16.46 2.5 24.8-2.12 55.28-27.44 72.01-16.35 10.8-34.32 20.51-34.3 46.36-.08.4-.13.8-.13 1.21-2.14-1.86-4.26-3.7-6.59-5.77-14.7-12.22-38.5-39.18-82.85-52.92-44.2-13.69-18.53-8.78-48.78-30.24-7.8-4.88-15.6-11.7-21.46-20.49-4.88-7.8-15.61-27.32-3.9-27.32 13.65 0 9.75-9.75-5.86-9.75-12.68 0-39.02 11.7-39.02 22.44 0 3.9 9.75 11.7 31.22 23.41 18.53 9.76 24.39 16.59 24.39 18.54-5.86 0-43.9-5.85-48.78-5.85-24.4 0-42.93 15.6-42.93-17.57 0-20.48-18.54-40.97-38.05-40.97-11.7 0-4.88 7.8 2.93 10.73 5.85 1.95 9.75 7.8 9.75 16.58 0 8.79-2.92 12.69-8.78 12.69-6.83 0-13.66-4.88-19.51-16.59-4.88-6.83-15.6-18.53-15.6-8.78 0 11.7 27.3 42.93 39.02 42.93 31.21 0 9.75 19.51-8.79 38.05-37.07 35.12-63.41 89.76-13.65 117.07 6.82 4.88 17.56 11.71 17.56 2.93 0-3.9-2.93-6.83-7.8-6.83-12.7 0-22.45-22.44-22.45-35.12 0-17.56 15.61-8.78 26.34-.98 10.74 9.76 12.69 14.64 12.69-4.88 0-9.75-2.93-16.58-8.78-19.5-19.52-5.86-4.88-28.3 7.8-42.94 19.51-22.43 46.83-34.14 80-34.14 40.98 0 40 14.63 11.71 26.34-18.53 8.78-29.27 16.59-33.17 24.4-4.88 8.77-9.76 14.63-15.61 18.53-3.9 1.95-4.88 6.83-4.88 12.68 0 17.56 5.86 29.27 15.61 37.07 10.73 10.74 1.95-15.6 1.95-19.5 0-11.71 3.9-17.57 11.71-17.57 5.85 0 17.56 18.54 17.56 24.4 0 3.9-6.83 9.75-6.83 12.68 0 9.75 11.71 20.48 22.44 20.48 5.85 0 12.68-4.88 12.68-11.7 0-.98-2.92-6.83-2.92-8.79 0-3.9 2.92-9.75 9.75-16.58 8.78-8.78 13.66-15.61 13.66-21.47 0-8.77-4.88-2.92-9.75 1.96-10.74 10.73-39.03 17.56-39.03-4.88 0-26.34 24.53-57.75 60.49-54.64 56.7 4.91 103.61 46.78 141.06 82.72-16.12 6.73-29 15.67-35.7 23.63-1.33-12.25-23.4-33.18-36.09-46.83-25.37-22.44-40-34.15-42.93-34.15-6.83 0 2.93 15.61 9.76 22.44a42.8 42.8 0 0 1 8.78 26.34c0 1.95-1.95 18.54-1.95 19.51 0 12.69 8.78 22.44 21.46 22.44 7.8 0 12.68-4.88 12.68-14.63 0-5.86 5.86-8.78 7.8-8.78V340c1.96.97 6.84 9.75 9.77 15.6v5.86c0 9.75-11.22 26.02-12.69 36.1-9.16 62.81 8.2 91.97 49.31 119.64 0 0-11.95.24-24.92 2.31-17.34 2.77-28.16 7.6-30.78 14.96-1.27 3.58 1.28 6 7.37 1.63 4.48-3.23 10.76-5.09 22.44-5.86 12.98-.85.68 9.37-14.64 21.47-52.62 41.55-19.5 101.67 21.47 106.34 32.95 3.76 70.24-11.71 70.24-52.69 0-14.63-10.73-22.44-23.41-24.39-7.8.98-10.74 3.9-10.74 11.71 0 8.78 3.9 13.66 13.66 15.61 10.74 2.93 9.76 5.86 5.86 14.64l-24.4 11.7v-12.68l-11.7 10.73c-2.93 2.93-8.78 4.88-12.68 7.8-8.78-3.9-18.54-6.82-22.44-9.75-12.69-7.8-18.54-13.66-18.54-17.56 0-1.95 24.4 6.83 24.4-4.88 0 6.83 19.5-9.75 20.48-11.7.98-6.84-1.95-17.57-5.86-17.57-1.95 0-8.77 12.69-8.77 18.54 0-1.95-10.74 3.9-13.66 1.95-10.74-2.93-13.66-19.51.97-19.51 8.78 0 3.9-5.86 3.9-10.73 0-5.86 4.88-13.66 14.64-23.42 12.68-12.68 26.34-19.51 41.95-19.51 28.3 0 48.43 4.74 66.24 16.03 4.64 59.89-14.37 107.73-31.2 132.3-38.13 20.53-64.3 29.23-84.8 32.16 3.57-9.04-6.2-35.66-40.97-28.3-6.83-4.87-24.4-9.75-30.25-9.75-7.8 0-17.56-18.54-17.56-27.32 0-5.85 21.47-12.68 21.47-18.53 0-4.88-6.83-7.8-19.52-7.8-15.6 0-22.44 8.77-22.44 25.36 0 17.56 4.88 35.12 15.61 40h9.76c0 .97-5.85.97-15.61.97-16.58 0-18.54 1.95-12.68 10.74 13.65 24.38 55.45 27.2 72.2 2.92 2.76-4.01 1.7-7.34 3.56-7.91 22.7-7.04 32.44 11.8 23.2 24.23-30.6 18.63-44.66 43.05-55.59 72.1-115.53 6.38-227.67-48.86-233.62-154.76 19.51 0 29.27-2.93 29.27-11.7 0-3.91-4.88-8.79-12.68-13.67-14.95-6.64-13.8-9-2.4-24.83 6.16-8.57 37.12-36.7 61.9-37 15.48-.18 18 3.64 22.45 7.2 5.38 4.3 2.91 8.3-4.88 8.78-7.85.49-12.68 7.8-12.68 13.66 0 20.49 12.68 31.22-7.8 40.97-6.84 3.9-9.76 6.83-9.76 7.8 0 4.89 3.9 6.84 11.7 6.84 13.66 0 26.35-9.76 40-30.25 10.74-16.58 25.37-27.31 25.37 2.93 0 26.34-26.34 49.76-48.78 51.7-18.54 1.96-17.56 8.79-19.51 28.3v10.73c0 5.86 0 8.78.97 8.78.98 0 8.78-11.7 10.73-11.7 12.13 16.55 9.83 42.77 47.8 42.92 16.6.07 54.64-45.85 24.4-45.85-4.88 0-6.83 4.88-6.83 12.68 0 14.64-9.76 21.47-28.3 21.47-7.8 0-11.7-4.88-11.7-15.61 0-19.52 11.7-44.88 35.12-75.13 7.8-9.75 12.68-20.48 12.68-30.24 0-42.93-46.06-69.64-81.98-66.1-31.11 3.07-65.92 27.77-81.1 57.85-.52-4.31-2.3-6.55-4.84-10.82-9.95-16.69 12.87-28.22 14.19-35.93.99-5.77 3.9-10.73 13.66-14.63 14.63-5.86 20.49-12.69-.98-12.69-33.17 0-50.73 11.71-30.24 27.32 3.9 2.93-5.63 14.35-7.8 26.34-25.37-38.05-96.03-78.66-157.5-78.66-46.69 0-85.16 40.04-100.48 61.09-25.14 34.53-41.26 90.65-40.7 157.81.26 30.63 4.22 56.53 11.97 81.05-4.37 2.5-9.52 5.38-22.16 8.34s-36.03.2-50.17-10.1c8.63-1.04 18.95-2.63 25.02-6.08 8.35-4.74 13.2-13.1 13.2-19.4 0-9.68-1.59-10.63-13.02-7.7-14.32 3.65-39.14 4.02-42.53.64-1.18-1.18.73-8.17 4.25-15.53 7-14.64 26.37-20.72 32.81-10.3 2.93 4.75 5.23 4.96 9.33.86s2.44-7.4-6.73-13.41c-6.3-4.13-10.56-5.86-16.14-5.49-3.35.22-7.18 1.2-12.21 2.86-8.9 2.94-19.46 9-23.47 13.45-10.5 11.7-15.11 39.7-6.97 52.85 19.4 31.37 62.62 34 83.14 31.83a98.1 98.1 0 0 1-9.04 7.97c-7.8 6.83-19.51 21.46-28.3 21.46-6.82 0-8.77-1.95-9.75-8.78-1.95-14.63-22.44-3.9-32.2-3.9-8.78 0-14.63-6.83-17.56-22.44-4.87-18.54-12.68-28.3-12.68-3.9 0 30.24 4.88 48.78 17.56 51.7 19.51 6.83 30.25 10.74 30.25 14.64 0 1.95-1.95 5.85-5.86 10.73-15.6 22.44-3.9 64.4 10.73 78.05 10.74 11.7 40.98 23.42 64.4 23.42 20.48 0 47.8-27.32 47.8-47.81 0-8.78-8.78-15.61-16.58-15.61v.98c-9.76 3.9-1.96 12.68-1.96 20.48 0 14.64-17.56 30.25-32.2 30.25-15.6 0-23.4-5.86-23.4-18.54 0-4.88 11.7-29.27 11.7-35.12 0-4.88-8.78-8.78-11.7-13.66V888.3L96.56 900c-10.73 11.71-12.62 21.22-15.6 2.93-6.22-38.01 43.88-66.49 75.64-99.28 3.3 8.15 7.28 16.45 12.16 25.13 26.67 47.47 56.58 87.8 110.24 108.3 16.59 6.83 4.88 7.8-17.56 9.75-40 5.86-59.51 15.61-59.51 30.25 0 6.83 3.9 10.73 12.68 10.73 11.71 0 18.54-4.88 20.5-14.64.97-7.8 10.72-11.7 28.28-11.7 24.4 0 62.76 2.17 115.13 12.68 83.22 16.7 170 16.7 238.15-39.43 13.18-10.86 32.57-40.8 37.44-52.89 5.77 2.43 10.34 5.1 13.1 7.78 6.42 6.18 1.88 8.05-4 10.31-4.05 1.56-7.37 8.08-7.37 14.5 0 6.43-4.19 15.47-9.3 20.1-11.85 10.72-16.3 37.23-6.87 40.85 3.75 1.44 9.7-1.31 13.2-6.11 4.45-6.09 7.45-7.02 9.88-3.08 4.34 7.01 35.6 7.5 39.85.62 6.16-9.97 9.14-60.55 3.36-56.98-3 1.86-2.81 10.59-3.58 14.85-2.12 11.8-9.84 17.7-19.93 17.7-6.1 0-6.06-2.47.35-17.8 9.63-23.04 5.4-28.58-5.95-38.9-15.67-14.22-23.07-10.45-14.68-20.58 17.65-21.31 25.96-34.37 34.4-61.67-1.14 103.68 72.71 141.65 131.71 155.12 53.73 12.27 97.36-15.39 149.27-16.58.98-.03 4.88.97 5.86.97 10.73 0 15.6-2.93 15.6-7.8 0-13.66-26.34-1.96-31.22-.98h-22.43l19.5-16.59c17.57-14.63 28.3-63.41 16.6-95.6-7.81-18.54-41.96-46.84-65.37-46.84-19.52 0-40 10.74-40 29.27 0 12.69 13.65 28.3 26.34 28.3 11.7 0 10.73-22.44-.98-22.44-4.88 0-7.8-1.96-7.8-6.83 0-9.76 11.7-18.54 21.46-18.54 8.78 0 18.54 5.85 31.22 18.54 10.73 12.68 16.59 20.49 16.59 21.46 0 .98-10.73 1.95-15.61 1.95-11.71.98-17.57 6.83-17.57 21.46 0 9.76 3.9 15.62 12.69 17.57 8.78 1.95 11.34 10.91 13.66 25.36 5.6 34.93-74.48 60.1-76.1 43.9-.68-6.79 40-43.9 13.66-43.9-.98 0-1.95 0-1.95.98H880c3.9-13.66 10.73-24.4-4.88-24.4-8.78 0-5.85 11.72-5.85 24.4-.98 1.95-1.95 4.88-2.93 7.8-11.7 24.4-29.03 40.16-49.43 38.22-27.14-2.58-51.01-20.88-62.05-30.32-7.93-6.78-5.95-12.02.88-19.23 8.41-8.86 28.32 7.55 53.25-2.31 24.92-9.87 25.62-52.71 4.67-64.4-6.46-3.6-10.5-6.67-18.32-7.18-5.88-.38 5.91 5.42 9.53 9.2 8.13 8.5 10.74 32.12-4.87 32.12-4.88 0-9.58-4.97-14.64-14.63-5.67-10.83-13.66-16.59-23.41-16.59-13.66 0-26.34 12.68-26.34 25.37 0 8.78 3 33.79-3.01 27.02-14.06-15.82-21.38-40.68-21.38-60.2 0-12.3-1.73-19.86-1-26.62 74.52-4.28 104.7-39.78 132.5-79.63 4.88 3.9 3.13 8.7 4.1 17.47.98 25.37 9.76 38.05 24.4 38.05 10.73 0 22.44-7.8 22.44-19.51 0-2.93-14.64 9.76-15.61 9.76-3.9 0-16.59-15.61-16.59-20.5 0-2.92 1.79-6.02 4.88-8.77 14.47-12.87 15.75-42.62-2.84-53.5 12.98-22.81 29.7-52.17 27.37-122.33 3.53 7.36 7.66 37.29 10.6 42.17-29.45 113.62 3.21 121.96 30.4 141.81 18.63 13.61 45.7 30.87 54.47 33.8 10.73 0-.97-24.4-3.9-34.15-3.9-7.8-14.64-34.14-20.49-41.95-6.83-7.8-25.37-12.68-25.37 2.93 0 8.78-1.96 8.27-4.87 3.9-3.07-4.6-18.73-2.55-22.38-9.96-16.35-33.2-5.9-54.74-1.85-80.08 2.93 6.83 6.66 10.04 14.47 14.92 10.73 4.88 15.61 10.73 15.61 16.58 0 7.8 13.66 16.59 22.44 16.59 2.93 0 4.88-3.9 4.88-11.7 0-13.67 5.85-11.72 17.56-11.72v.98c10.73 0 15.6-6.83 15.6-19.51 0-3.9-6.82-30.25-12.67-30.25v1.95c.97 3.9 1.95 4.88 1.95 9.76 0 10.73-3.9 15.61-10.74 15.61-5.85 0-13.65-8.78-24.39-25.37-6.83-9.75-17.56-4.88-28.29-4.88-15.6 0-21.7-32.2-21.46-46.82.35-21.7 23.5-34.1 41.95-47.81 0 25.36 11.7 51.7 36.1 51.7 8.78 0 19.51-8.77 19.51-16.58 0-3.9-8.78-5.85-11.7-2.92v.97c-13.67 0-1.96-28.3 2.92-38.05 2.93-5.85 3.9-10.73 3.9-14.63 0-3.9-22.43-17.03-17.56-25.37 32.33-59.67 23.4-133.51 9.8-196.82-5.85-27.2-3.94-40.97-9.16-51.14-6.58-12.81-16.68-18.67-23.14-34.69-5.88-14.56-27.72-47.32-37.99-57.84 0-4.88 8.92-.95 24.58.9 12.6 1.5 35.1-2.77 44.7-21.39 6.98-13.58 1.26-25.57-7.81-38.05-6.55-9-23.42-13.66-33.17-13.66-14.64 0-33.18 4.88-33.18 16.59 0 7.8 25.37 26.34 32.2 14.63 3.9-6.83 20.49-8.78 20.49 2.93 0 14.63-8.83 21.14-26.34 22.44-32.63 2.42-43.2-13.21-61.53-26.45-21.6-15.6-51.13-25.62-72.43-28.94 11.14-2.67 32.5-4.13 44.2-3.15h10.73c10.73 0 16.59-.97 16.59-2.93 0-7.8-55.94-11.81-71.49-6.7-13.88 4.58-97.06 6.6-150.47 1.83-83.17-7.44-119.49 11.06-184.88 69.26V72.68c-1.95-10.73-6.83-16.58-14.63-16.58-7.8 0-15.61-4.88-22.44-13.66-10.74-14.63-34.15-21.46-70.25-21.46-22.44 0-40 3.9-50.73 10.73-9.76 5.85-38.05 15.6-38.05-2.93 0-13.66-16.59-1.95-16.59 4.88 0 26.34 33.18 15.6 55.62 15.6 28.29 0 46.82 5.86 53.65 16.6 9.76 16.58 17.57 8.77 34.15-4.88 7.8-6.83 13.82-11.98 18.54-10.74 18.67 4.94 32.6 23.09 31.37 36.7-2.1 23.03-13.68 46.4-23.57 63.8-34.45 60.58-30.43 102.89-26.41 144.38-6.65-12.98-37-62.43-37-95.6 0-5.86-6.83-.98 5.85-13.66.98-3.9 4.88-7.8 10.73-13.66 5.86-3.9 8.78-7.8 8.78-9.76 0-7.8-1.95-11.7-4.87-11.7-11.71 0-25.43 9.45-31.2 32.44-3.54 14.13.6 26.9 6.03 41.85 1.66 4.59.36 7.61-4.39 4.23-20.91-14.9-79.7-45.14-168.5-64.53-34.52-7.54-76.1-27.66-76.1-63.75 0-24.4 13.66-37.08 41.96-37.08.97 0 3.9 0 6.83.98h12.68c8.78 0 13.66-2.93 13.66-12.68 0-8.78-2.93-13.66-9.76-13.66-2.93 0-4.88-.98-4.88-1.95 0-8.78 13.66-2.93 22.44 0 10.73 4.87 18.54 6.82 25.37 6.82 7.8 0 16.58-6.82 16.58-15.6 0-3.9-7.8-14.64-12.68-14.64Zm586.1 323.76c31.96 32.63 54.53 66.57 60.41 109.3.8 5.8-7.47 6.95-12.35 6.95-9.76 0-14.64-7.8-14.64-22.44 0-9.76-24.39-27.32-34.14-27.32-.98 0-1.96 1.95-1.96 6.83 0 6.83-3.9 9.76-12.68 9.76-10.73 0-16.58 11.7-16.58 21.46 0 5.85 3.9 17.56 9.75 17.56.98 0 1.95-2.93 1.95-8.78 0-8.78 2.93-12.68 9.76-12.68 12.68 0 22.44 9.75 29.27 28.29 3.9 10.73 9.75 16.59 16.58 16.59 3.9 0 17.57-9.76 22.44-9.76 13.66 0 17.53 25.37 17.53 45.85-79.83 1.5-130.55-29.67-133.63-84.87-3.1-55.78 26-84.88 58.28-96.74ZM284.87 506.97c56.62-.62 117.34 34.28 143.4 79.87 2.63 6.3-10.73 11.7-12.68 16.58-4.88-17.56-11.7-27.31-29.27-27.31-24.39 0-17.56 34.14 3.9 23.41 6.83-2.93 18.54 9.76 22.44 12.68-2.92 3.9-7.8 7.8-15.6 12.69-11.71 7.8-17.57 16.58-17.57 26.34 0 8.78 5.86 12.68 15.61 12.68 7.8 0 10.74-2.92 3.9-2.92-6.82-.98-10.73-3.9-10.73-6.83 0-1.95 13.66-.98 17.57-.98 5.85 0 8.78-1.95 8.78-6.83 0-11.7 21.66-17.56 34.34-17.56 4.15 59.6 27.6 75.37 27.12 104.4-.27 16.34 1.95 26.33-6.83 31.21-4.88 2.93-6.83 4.88-7.8 4.88-.98 0-2.93-8.78-5.86-25.37-1.95-8.78-19.51-20.49-30.24-20.49-11.71 0-2.93 17.57-2.93 26.35 0 7.8-16.58-14.64-16.58.97 0 4.88 2.92 9.76 9.75 13.66 6.83 5.86 2.93 9.76-4.88 15.61-16.58 12.68-21.46 40.98.98 48.78h9.75c4.88 0-5.85-15.6-5.85-18.53 0-10.74 10.73-17.56 33.17-21.47 26.34-4.88 37.08-15.6 37.08-47.8 0-8.78.5-13.58.05-17.65 32.94 31.52 67.69 51.44 106.7 61.78-8.76-.5-18.29-.16-26.75-.23-20.49-.18-30.25 5.85-30.25 17.56 0 7.8 11.71 1.95 11.71 9.76 0 9.75-17.56 8.78-17.56 1.95 0-2.93-10.73-1.95-11.7-.98v.98c-6.84 0 0-10.73 0-14.64 0-2.92-11.72 5.86-19.52 12.69-16.59 14.63-28.3 30.24-30.24 46.83v24.39l11.7-26.34c8.78-19.52 19.51-29.27 33.17-29.27 6.83 0 41.96 12.68 47.8 12.68 19.52 0 7.81-26.34 0-38.05-8.77-9.76 3.91-8.39 28.3-8.09 43.86.55 73.48 2.27 100.5-.69-11.54 23.49-16.83 67.72-59.52 70.25-18.5 1.09-11.7-28.3-2.93-36.1 2.93-2.93 7.8-6.83 1.95-6.83-18.53 0-27.31 14.63-27.31 43.9 0 21.46 3.9 32.2 8.78 32.2 4.87-.98 3.04-4.58 7.31-14.42 2.32-5.33 10.23-8.37 16.1-7.05 2.86.65 5.6 1.38 8.25 2.15-18.88 36.3-47.1 63.13-72.19 68.82-25.09 5.69-21.54-.29-12.58-10.19 10.52-11.62 10-17.63-2.52-29.3-6.35-5.91-11.53-9-17.82-8.96-8.08.06-17.98 5.31-34.5 16.44-23.13 15.59-27.74 16.96-48.82 14.48-12.8-1.5-28.6-6.23-35.12-10.5-19.97-13.09-23.06-.68-4 16.06 10.92 9.58 15.16 17.62 11.82 18.58-7.03-.62-25.9-1.75-29.79-2.16-85.67-8.98-143.42-25.22-215.42-127.13a141.72 141.72 0 0 1-16.36-29.73c10.44-12.77 17.26-26.35 16.36-41.49 7.52 12.96 12 16.18 14.36 26.06 5.15 21.52 12.36 14.16 11.98-6.54-.14-7.59-2.66-14.32-5.29-20.82-6.22-15.38 9.36-27.66 10.17-40.65.7-11.34 1.94-40.97-24.39-40.97h-11.7c-9.76 0-18.72-23.2-18.99-28.1 1.71-21.6 5.23-25.25 7.34-31.8 2.77-8.6 5.63-10.47 12.24-1.8 6 7.85 7.7 8.17 11.63 2.17 2.53-3.86 6.01-5.62 7.73-3.9 5.14 5.14-2.5 13.31-12.44 13.31-11.15 0-12.3 8.69-1.69 12.76 4.64 1.78 12.39-1.9 19.97-9.48 11.07-11.08 11.77-13.74 6.58-25.13-5.3-11.63-6.53-12.1-14-5.44-6.93 6.18-9.11 6.3-14.2.74-2.2-2.4-3.6-5.07-2.28-8.56 20.82-55.13 62.37-77.09 106.4-77.57ZM155.1 654.4c2.93 9.76 8.27 20 11.7 27.07 10.9 22.38 8.03 72.12-6.58 97.88-13.88-47.27-9.55-91.54-5.12-124.95Zm673.88 52.52c-20.2 35.2-65.98 72.55-117.46 74.23-.1-3.06.3-6.5 2.61-11.87 21.61-50.2 69.55-59.47 114.85-62.36ZM533.16 926.16c2.37.11 3.74 1.43 3.74 4.04 0 2.3-2.69 6.22-5.97 8.7-3.28 2.49-10.93 4.77-17 5.09l-11.04.57 11.79-9.28c7.8-6.13 14.53-9.3 18.48-9.12Z"/></svg>
