<?xml version="1.0" encoding="UTF-8"?>
<svg version="1.0" xmlns="http://www.w3.org/2000/svg" xmlns:xlink="http://www.w3.org/1999/xlink" x="0px" y="0px" viewBox="0 0 1000 1000">
<path d="M 113.596 889.398 L 113.294 902.178 M 679.111 807.968 C 684.453 812.261 657.72 859.19 638.651 880.148 C 625.688 894.395 615.943 892.439 615.879 896.476 C 615.816 900.513 611.162 909.698 605.538 916.887 C 599.914 924.077 595.261 932.901 595.197 936.495 C 595.133 940.09 591.392 943.031 586.885 943.031 C 580.956 943.031 579.647 940.014 582.151 932.125 C 585.188 922.555 584.344 921.897 575.259 926.759 C 569.565 929.807 551.107 933.767 534.241 935.561 C 517.375 937.354 502.387 939.552 500.933 940.445 C 495.155 943.994 441.607 931.389 418.401 921.016 C 404.854 914.961 391.418 909.78 388.542 909.501 C 385.666 909.223 378.607 906.579 372.856 903.626 L 414.967 903.71 C 417.165 903.717 428.687 908.585 442.273 912.976 C 469.893 921.902 517.594 920.806 547.421 910.559 C 586.647 897.083 658.109 845.741 664.098 795.905 Z M 452.861 690.687 C 419.722 652.705 365.991 662.039 343.948 691.583 C 368.411 734.108 425.654 723.094 452.861 690.687 Z M 490.646 639.519 C 489.938 645.467 486.242 656.941 486.242 656.941 C 483.821 666.523 479.449 679.304 472.893 689.879 C 477.116 697.534 485.353 705.223 491.659 723.039 C 497.257 738.856 497.797 761.173 498.474 769.974 C 500.155 791.848 502.105 797.24 517.098 797.24 C 527.158 797.24 529.862 794.526 529.862 784.428 C 529.862 777.381 525.744 769.312 520.711 766.495 C 512.608 761.96 513.233 760.738 526.181 755.815 C 555.119 744.813 580.896 775.872 570.619 809.357 C 563.67 832 567.499 842.964 584.63 849.478 C 602.206 856.16 601.332 863.616 582.487 867.755 C 557.347 873.277 526.235 845.19 530.743 821.043 C 532.075 813.913 528.538 811.432 515.482 810.338 C 501.634 809.178 498.489 810.801 498.489 819.107 C 498.489 824.714 496.166 833.642 493.326 838.947 C 486.324 852.03 453.462 871.751 438.662 871.751 C 410.874 871.751 369.233 823.408 375.503 798.427 C 384.365 763.118 408.911 750.799 434.58 768.778 C 448.67 778.648 450.666 806.313 437.647 811.309 C 424.635 816.302 412.088 805.35 413.198 789.969 C 414.381 773.574 404.337 772.033 394.89 787.161 C 389.689 795.488 389.459 802.048 393.896 815.491 C 401.878 839.676 418.817 849.886 442.207 844.611 C 466.912 839.039 469.693 836.919 479.552 816.143 C 492.053 789.799 491.918 748.969 475.928 724.806 C 468.468 713.533 466.368 710.955 461.052 701.236 C 408.362 741.592 373.77 740.262 330.663 698.832 C 323.87 691.382 323.875 696.433 342.835 676.79 C 373.194 645.341 429.536 647.221 461.933 675.872 C 464.274 670.633 467.001 665.221 470.529 656.777 C 481.379 630.81 484.414 596.173 464.402 574.85 C 411.99 519.003 398.981 517.876 378.215 549.156 C 369.238 562.677 358.477 591.505 376.324 605.589 C 391.192 617.322 413.415 618.602 426.318 606.581 C 435.507 598.02 435.793 596.131 428.781 590.311 C 424.079 586.409 415.337 585.11 407.318 587.123 C 395.443 590.103 393.996 589.056 395.486 578.556 C 399.323 551.5 447.822 565.662 446.856 593.843 C 445.915 621.289 406.748 635.406 391.667 634.006 C 343.706 629.553 335.228 551.135 377.297 523.57 C 383.635 519.417 396.726 517.173 397.136 515.492 C 450.103 528.962 500.432 557.25 490.646 639.519 Z M 782.587 503.006 C 771.485 465.46 766.478 457.368 754.353 457.368 C 737.946 457.368 736.163 472.064 750.667 487.745 C 757.823 495.482 767.973 509.332 773.221 518.522 C 787.061 542.755 791.948 534.66 782.587 503.006 Z M 409.184 506.547 L 409.184 506.547 Z M 580.103 97.2421 C 567.271 55.8393 542.647 97.4884 531.841 106.878 C 459.804 169.469 401.243 260.541 437.814 331.092 C 455.852 357.12 470.679 361.54 458.577 337.282 L 458.577 337.282 C 452.51 325.119 452.026 317.503 456.334 301.987 C 459.356 291.105 473.154 271.308 473.17 260.434 C 473.188 247.703 466.011 228.943 471.061 227.005 C 475.375 225.35 482.42 225.118 485.226 221.932 C 489.551 217.021 493.491 211.226 496.752 213.205 C 504.34 217.807 492.386 226.376 491.666 232.726 L 490.357 244.271 C 490.357 244.271 510.487 216.815 527.825 212.411 C 578.097 199.642 594.201 142.726 580.103 97.2421 Z M 531.79 990.166 C 527.974 986.35 534.536 982.166 537.047 974.29 C 546.48 944.694 577.874 944.453 604.606 971.388 C 616.196 983.065 616.752 985.568 609.515 993.481 C 598.765 1005.23 582.247 997.571 587.683 983.354 C 589.793 977.838 589.543 971.781 587.129 969.896 C 584.714 968.01 582.365 969.874 581.907 974.038 C 581.332 979.27 575.886 980.798 564.268 978.985 C 549.509 976.682 549.455 969.206 543.458 983.558 C 539.702 992.548 534.524 999.672 531.95 999.389 C 529.377 999.106 535.606 993.982 531.79 990.166 Z M 945.18 984.82 C 930.152 975.174 937.764 951.496 950.475 960.429 C 969.004 973.451 975.158 949.462 963.617 926.84 C 949.804 899.764 954.712 893.405 981.663 900.979 C 993.525 904.313 1009.41 910.67 992.297 945.859 C 980.884 969.326 979.019 966.968 989.682 984.229 C 997.652 997.131 996.324 999.769 988.347 999.592 C 984.753 999.512 954.688 990.922 945.18 984.82 Z M 504.378 988.182 C 506.163 977.641 492.782 968.168 487.576 968.165 C 479.472 968.158 481.358 969.276 478.294 981.742 C 475.624 992.605 472.715 995.582 466.749 993.556 C 454.594 989.43 452.167 980.105 461.139 972.002 C 465.576 967.995 471.46 959.705 476.752 957.931 C 493.178 952.425 505.789 972.95 509.454 985.995 C 510.796 990.774 512.835 997.334 510.903 999.142 C 508.45 1001.44 503.729 992.017 504.378 988.182 Z M 582.291 536.798 C 582.333 521.074 612.157 485.523 627.561 482.623 C 632.781 481.64 639.375 475.556 642.214 469.102 C 649.217 453.182 655.553 454.322 671.44 474.361 C 686.383 493.212 697.184 520.411 697.184 539.194 C 697.184 553.469 708.236 555.373 720.414 543.196 C 726.658 536.951 733.938 535.79 749.916 538.489 C 770.111 541.901 770.818 541.576 764.652 531.702 C 761.089 525.998 750.923 517.121 742.059 511.976 C 699.515 487.278 669.86 441.645 669.239 403.045 L 668.986 387.359 C 667.321 283.897 711.341 224.35 804.443 208.504 C 853.675 200.125 867.195 204.361 892.616 232.5 C 983.932 386.247 763.648 393.488 810.03 297.971 C 821.096 275.183 854.597 278.891 864.126 292.089 C 872.779 304.074 861.393 330.017 855.355 330.932 C 847.453 332.131 843.59 329.916 843.59 324.396 C 843.59 315.224 839.184 314.172 828.671 320.833 C 823.009 324.421 822.851 327.663 827.881 337.061 C 833.335 347.251 837.24 348.459 857.392 346.188 C 870.165 344.748 884.944 339.654 890.232 334.868 C 902.623 323.655 907.842 290.695 900.542 269.755 C 893.831 250.505 885.207 243.636 851.827 248.642 C 829.816 251.943 824.226 248.017 818.74 242.27 C 813.934 237.235 810.251 232.096 816.017 220.946 C 762.451 225.052 735.994 253.342 728.001 281.458 C 715.372 325.881 711.178 360.139 715.321 373.19 C 719.29 385.696 721.499 399.793 728.557 376.525 C 732.037 365.05 772.266 326.783 778.7 333.217 C 780.216 334.734 777.636 345.052 772.965 356.148 C 762.436 381.16 766.558 416.401 782.653 438.963 C 792.005 452.073 794.104 463.075 795.02 503.788 C 796.14 553.534 798.907 566.207 804.742 548.313 C 815.305 515.914 840.537 513.686 855.24 518.389 C 878.98 525.941 847.577 560.093 847.387 537.807 C 847.336 531.751 830.217 541.41 818.92 551.389 C 803.826 564.721 811.494 563.767 809.588 586.25 C 807.974 605.277 803.038 622.204 796.534 631.014 C 790.781 638.806 786.074 647.559 786.074 650.464 C 786.074 656.67 820.752 634.059 831.619 620.767 C 835.733 615.735 832.463 624.559 824.351 640.376 C 814.296 659.983 804.064 671.901 792.196 677.827 C 770.841 688.491 747.13 692.068 778.23 691.259 C 784.169 691.104 800.453 685.608 814.832 682.008 L 814.832 682.008 C 842.493 675.082 870.442 653.326 883.359 628.666 C 887.486 620.788 890.142 613.007 890.756 611.672 C 897.843 596.261 895.07 587.608 894.516 578.468 C 893.144 548.343 892.518 530.495 870.91 518.082 C 861.581 512.723 839.7 508.989 826.977 495.276 C 809.876 476.845 806.067 460.429 812.741 433.925 C 819.907 405.466 845.88 386.768 870.679 392.215 C 893.993 397.335 908.703 407.71 916.305 424.394 C 927.022 447.916 903.412 481.754 881.44 474.362 C 863.101 468.192 862.267 436.452 880.443 436.452 C 893.293 436.452 898.241 445.606 890.46 454.982 C 882.326 464.783 890.883 464.825 904.03 455.048 C 913.447 448.046 913.601 446.44 906.17 432.826 C 899.732 421.031 893.983 417.843 876.878 416.581 C 858.662 415.238 854.267 417.039 846.373 429.087 C 838.529 441.058 838.049 446.162 843.161 463.226 C 846.468 474.261 855.243 487.458 862.663 492.551 C 887.094 509.324 901.518 524.779 906.336 541.209 C 907.709 545.889 915.786 557.333 916.27 564.454 C 923.721 557.989 931.09 548.062 932.481 545.471 C 968.377 478.593 979.099 426.985 974.411 354.884 C 965.505 349.067 961.35 357.114 955.481 355.626 C 936.46 350.803 930.371 358.263 938.522 373.493 C 946.223 387.882 938.735 398.346 929.639 385.906 C 920.043 372.783 920.737 339.043 930.81 328.97 C 940.364 319.417 952.447 322.56 958.768 328.517 C 961.21 330.818 967.961 338.733 969.437 337.256 C 973.95 332.743 944.658 248.416 934.373 227.393 C 868.107 91.9366 677.303 37.5079 655.353 65.1353 C 655.353 68.0502 657.379 70.4351 659.856 70.4351 C 662.333 70.4351 675.729 81.0235 689.626 93.9648 C 703.523 106.906 715.451 117.494 716.132 117.494 C 716.814 117.494 718.124 112.2 719.043 105.73 C 721.39 89.2003 748.976 85.7106 753.085 101.423 C 754.688 107.552 760.201 112.266 765.768 112.266 C 785.178 112.266 775.135 121.683 750.779 126.322 L 725.942 131.051 L 754.701 142.174 C 770.518 148.292 788.101 151.934 793.917 151.05 C 826.715 146.066 857.54 139.966 884.604 120.614 C 909.366 102.907 890.508 55.3559 863.711 46.5122 C 854.123 43.3479 836.685 42.3606 824.578 44.2965 C 806.137 47.2453 800.741 45.9105 789.89 35.7158 C 773.786 20.5876 773.841 17.3448 790.38 6.50837 C 800.424 -0.0731838 805.204 -0.748852 809.726 3.77336 C 814.248 8.29564 814.182 11.3297 809.457 16.0541 C 799.08 26.4314 802.286 30.5949 819.143 28.6322 C 827.922 27.6101 840.275 21.9269 846.595 16.0028 C 853.46 9.56736 869.001 3.78903 885.203 1.6475 C 910.324 -1.67294 913.308 -0.87185 925.727 12.5281 C 941.4 29.4403 941.899 32.4095 930.915 43.3934 C 921.438 52.8705 914.966 53.8119 910.374 46.3813 C 908.596 43.5054 903.669 41.1524 899.423 41.1524 C 893.413 41.1524 892.902 43.3902 897.118 51.2663 C 900.095 56.829 905.986 78.254 906.337 88.5807 C 906.595 96.1829 907.11 101.686 906.337 107.414 C 905.902 110.636 927.206 92.4976 938.827 86.6674 C 950.426 80.8483 959.784 78.2974 976.485 86.163 C 996.579 95.6263 1003.86 116.855 998.074 138.996 C 996.585 144.691 988.736 151.663 980.632 154.488 C 968.491 158.72 964.25 157.802 956.527 149.268 C 948.478 140.374 948.233 138.232 954.791 134.084 C 964.672 127.834 968.908 127.89 972.884 134.323 C 978.18 142.892 985.956 140.263 985.956 129.904 C 985.956 116.005 969.279 102.947 951.557 102.969 C 936.227 102.988 900.226 125.905 894.35 130.91 C 886.547 137.556 871.441 145.471 850.913 153.407 C 829.026 161.868 801.234 167.224 781.812 163.464 C 766.291 160.459 738.655 154.102 721.093 144.478 C 716.1 141.741 710.805 139.502 709.329 139.502 C 705.093 139.502 707.357 182.156 711.773 189.101 C 717.117 197.508 733.74 194.528 741.621 183.749 C 748.225 174.718 770.387 171.502 770.387 179.575 C 770.387 182.085 762.305 191.042 752.426 199.48 C 729.388 219.159 703.757 217.638 682.713 195.342 C 667.511 179.236 657.564 176.223 654.082 186.669 C 650.605 197.099 635.316 169.36 631.556 145.8 C 628.333 125.602 629.022 124.07 644.152 117.803 C 658.374 111.912 661.727 112.407 674.24 122.25 C 692.675 136.751 695.651 132.627 684.538 107.982 C 677.248 91.8161 670.723 86.1991 651.04 79.1445 C 625.366 69.943 595.582 62.7485 584.616 69.7136 C 579.827 72.7556 584.089 79.5097 588.965 92.4868 C 607.642 142.193 585.479 200.25 547.419 213.717 C 517.089 224.448 505.037 249.586 505.432 253.115 C 505.987 258.085 517.043 259.768 520.092 257.844 C 532.627 249.934 532.297 235.325 532.498 261.488 C 532.598 274.544 515.939 282.747 498.011 280.92 C 484.502 279.543 483.407 259.492 471.181 309.825 C 463.476 341.545 483.009 370.178 520.007 365.53 C 526.401 364.727 541.052 338.327 542.934 373.707 C 543.283 380.275 531.729 381.55 473.466 381.55 C 417.409 381.55 413.297 379.737 397.968 380.053 C 393.824 386.603 392.007 398.554 392.77 403.866 C 393.534 409.179 396.781 412.683 401.732 410.177 C 417.063 402.415 453.786 395.46 459.227 398.863 C 462.128 400.678 469.207 402.863 474.959 403.719 C 512.496 409.304 503.366 483.512 465.142 483.512 C 449.972 483.512 441.169 473.834 442.329 458.433 C 443.331 445.132 460.105 437.765 468.949 446.742 C 473.487 451.348 472.717 454.499 465.809 459.603 C 454.083 468.266 454.176 473.054 466.07 473.054 C 480.066 473.054 488.031 462.538 488.031 444.06 C 488.031 420.467 472.541 408.059 448.049 412.034 C 437.432 413.757 427.379 417.186 425.708 419.655 C 424.037 422.123 418.894 425.531 414.278 427.228 C 409.561 428.962 403.157 438.788 402.696 449.971 C 401.29 484.097 447.87 531.109 462.252 546.652 L 397.135 515.492 C 402.369 510.6 406.547 499.132 400.713 492.642 C 376.628 465.85 385.072 439.715 393.234 419.454 C 392.305 417.056 389.013 415.746 384.055 417.32 C 378.871 418.965 370.48 422.647 364.879 418.494 C 356.211 412.068 355.668 409.352 361.232 400.24 C 365.606 393.076 372.261 382.649 370.884 379.223 C 367.271 379.915 360.096 379.374 353.983 379.041 C 305.463 376.398 250.255 378.548 205.693 378.548 C 132.654 378.548 125.66 376.476 111.515 377.057 C 169.548 406.952 202.359 422.736 216.446 491.678 C 226.097 538.913 218.544 589.923 205.267 616.956 C 195.173 637.509 156.271 666.174 141.047 666.61 C 127.063 667.011 78.218 692.238 74.9533 700.746 C 69.7677 714.259 78.4985 717.273 88.1934 705.316 C 105.328 684.183 135.561 683.314 146.44 703.641 C 154.289 718.308 140.095 742.651 119.51 749.827 C 96.0508 758.005 95.5367 757.421 111.513 740.745 C 123.793 727.928 124.701 724.983 118.07 719.48 C 111.931 714.385 107.759 714.806 97.4499 721.561 C 90.3418 726.218 77.8313 730.538 69.6487 731.161 C 57.7672 732.065 53.5146 735.959 48.5305 750.494 C 45.098 760.504 34.1718 776.009 34.0095 785.356 C 33.7561 799.952 35.5089 802.349 46.434 802.349 C 62.5305 802.349 67.8276 817.419 60.0331 841.036 C 56.837 850.72 54.5924 860.684 55.045 863.177 C 55.4977 865.67 55.5893 872.115 55.2488 877.5 C 54.7369 885.595 53.2713 886.164 46.7864 880.782 C 40.2593 875.365 38.5629 876.036 38.9432 884.732 C 39.6086 899.945 58.8976 944.128 70.7492 942.46 C 79.9069 941.171 83.2446 943.309 87.6083 956.132 C 90.6271 965.004 91.0235 972.195 88.489 972.111 C 85.9547 972.028 85.7555 975.361 86.6308 979.898 C 88.4481 989.317 95.5733 992.159 98.778 984.385 C 103.37 973.244 112.79 977.951 114.598 980.679 L 114.598 980.679 C 115.757 982.429 120.344 992.797 113.702 995.176 C 81.5923 1006.68 60.4382 998.496 67.0838 959.61 C 68.0266 954.093 65.5063 951.598 58.5437 944.907 C 51.4474 938.088 43.334 932.2 41.1386 930.296 C 29.5229 920.223 17.2349 898.982 11.8772 882.065 C 1.27705 848.593 -0.504314 822.641 15.3077 786.663 C 19.3742 777.41 30.8971 756.93 38.1562 742.551 C 50.2635 718.568 50.642 715.856 42.7357 709.741 C 35.6294 704.245 35.2411 701.275 40.5226 692.818 C 48.7839 679.59 39.8868 675.308 30.5643 675.308 C 26.3517 675.308 20.2513 680.267 17.0079 686.327 C 12.8831 694.035 9.45786 695.694 5.61146 691.847 C -2.00236 684.233 10.2896 655.666 22.9019 651.663 C 35.9897 647.509 61.5041 659.093 63.5566 671.986 C 65.0244 681.205 70.3477 678.662 107.06 651.206 C 171.595 602.94 184.614 572.959 192.38 507.919 C 196.11 476.682 178.799 438.081 140.371 404.419 C 121.05 387.494 111.502 390.578 122.159 406.843 C 127.097 414.378 133.095 431.253 134.529 451.303 C 136.94 484.999 136.286 487.521 119.44 509.488 C 109.68 522.215 96.509 533.241 89.8914 534.225 C 56.8436 539.138 41.5344 565.269 54.0938 595.328 C 59.713 608.777 65.5421 613.723 78.9286 616.4 C 109.345 622.484 138.37 589.92 117.77 572.823 C 110.807 567.045 109.674 568.047 109.674 579.981 C 109.674 595.937 97.4603 602.921 86.0777 593.474 C 76.7135 585.702 75.9071 566.642 84.5757 557.973 C 93.0929 549.456 110.26 550.077 123.545 559.382 C 158.745 584.037 120.549 640.869 74.1637 632.857 C 49.2481 628.553 41.8627 622.371 26.5546 593.006 C 12.3676 565.791 13.8623 549.756 32.5863 528.298 C 41.0574 518.59 50.6217 514.346 67.0305 513.015 C 89.5045 511.192 114.763 497.217 119.1 484.206 C 120.84 478.985 118.943 478.764 110.623 483.216 C 89.4244 494.561 69.4188 490.033 47.1484 468.847 C 19.5754 442.618 18.0429 420.266 42.5065 401.145 C 54.5286 391.748 78.3012 398.352 78.3012 411.088 C 78.3012 421.953 69.9317 424.628 66.6585 414.809 C 63.8443 406.366 46.9282 413.512 46.9282 423.143 C 46.9282 427.39 53.3989 434.038 61.3075 437.915 C 72.239 443.274 75.4507 448.357 74.7023 459.115 C 73.8486 471.389 75.6769 473.267 88.4802 473.267 C 98.774 473.267 106.062 468.963 112.559 459.048 C 128.054 435.4 121.129 425.958 97.2586 403.691 C 80.0478 387.637 70.8288 383.354 47.1088 380.39 C 31.1245 378.393 19.2933 379.914 16.3442 381.737 C 11.7669 384.566 -2.21328e-06 370.181 -2.21328e-06 361.756 C -2.21328e-06 354.913 21.888 347.683 27.7855 352.577 C 31.1965 355.407 47.2268 357.887 67.9153 359.763 C 116.621 364.181 104.661 358.045 102.642 352.524 C 97.9975 339.827 107.529 329.916 122.178 321.273 C 141.223 310.036 144.439 300.822 137.867 276.321 C 136.184 270.045 129.059 263.551 121.881 261.749 C 106.575 257.908 108.244 246.529 124.463 244.142 C 139.478 241.933 138.791 235.838 122.041 222.663 C 104.876 209.16 72.8753 208.305 58.9359 220.976 C 53.3994 226.009 45.9835 238.795 42.4562 249.39 C 37.1868 265.218 37.4011 271.905 43.6574 286.878 C 57.0412 318.91 88.759 323.811 88.759 293.847 C 88.759 283.22 88.6278 283.208 81.2354 293.18 C 74.0376 302.89 73.3055 302.929 64.3304 294.081 C 53.1467 283.056 59.8036 267.701 76.8764 265.143 C 102.472 261.307 114.949 303.223 92.8244 318.72 C 60.4609 341.388 19.5779 315.962 10.7378 263.753 C 3.91961 223.485 30.5673 183.141 66.2162 184.564 C 80.6119 185.139 80.401 186.755 70.1005 162.102 C 58.7677 134.979 68.3869 124.731 85.2858 145.924 C 93.3043 155.98 103.923 161.94 117.812 164.179 C 135.563 167.042 138.668 169.551 140.125 182.211 C 141.42 193.467 139.287 197.578 131.03 199.738 C 120.637 202.456 120.565 203.102 129.062 217.486 C 137.577 231.901 151.084 241.597 151.905 233.884 C 154.773 206.947 184.186 193.92 197.571 196.15 C 202.254 196.929 208.034 202.293 201.698 209.393 C 198.057 213.473 181.199 218.431 181.199 218.431 C 175.366 224.76 170.252 236.471 164.97 272.194 C 158.303 317.287 156.324 323.023 129.522 333.068 C 118.556 337.177 123.665 357.571 129.926 359.703 C 140.498 363.302 142.334 367.869 165.51 367.869 C 212.29 367.869 362.539 366.254 362.539 366.254 C 368.64 366.254 371.646 366.505 375.207 366.404 C 385.312 327.553 365.656 293.414 359.495 288.963 C 345.887 279.135 342.785 270.438 354.192 270.438 C 368.21 270.438 378.559 296.957 391.685 332.348 C 392.77 335.274 401.241 356.672 400.051 368.314 C 404.849 368.226 409.067 368.478 414.01 368.478 C 422.368 368.478 437.148 370.04 446.854 371.949 L 464.502 375.421 C 454.874 373.527 452.123 364.823 447.775 361.252 C 356.485 286.272 458.577 154.304 520.029 100.713 C 525.104 96.2924 527.826 93.776 538.75 83.0156 C 551.569 70.3888 553.865 69.0491 543.29 60.2733 C 537.956 55.8463 530.558 55.5084 517.558 59.0979 C 502.384 63.2875 497.518 62.4649 488.661 54.2133 C 474.135 40.6802 467.116 41.7598 467.116 57.527 C 467.116 74.5491 454.869 79.1199 438.317 68.2749 C 424.345 59.1201 421.443 44.996 431.473 34.9661 C 434.876 31.563 436.46 27.5781 434.992 26.1109 C 430.447 21.5656 365.399 47.7591 353.873 60.7508 C 327.579 90.3887 328.796 163.826 372.599 180.242 C 393.224 187.971 440.538 164.601 425.844 135.256 C 425.844 135.256 416.219 137.276 415.15 124.679 C 414.08 112.083 427.008 111.926 423.791 105.689 C 407.938 74.9527 387.44 91.7598 376.608 85.5051 C 355.624 73.3879 441.323 58.4706 437.617 128.114 C 437.264 134.744 442.119 138.139 442.676 145.15 C 443.852 159.954 429.516 178.585 407.634 197.697 C 394.629 209.054 363.327 213.753 348.83 203.258 C 310.66 175.625 311.877 117.829 316.201 93.4161 C 317.939 83.6061 320.647 78.2575 316.921 77.0155 C 313.757 75.9608 305.022 69.402 297.51 62.4404 L 283.853 49.7831 L 257.261 47.8828 C 240.227 46.6656 231.253 68.7258 229.666 71.2196 C 228.08 73.7134 215.883 84.7902 200.53 87.7019 C 166.251 94.2027 136.664 81.0843 116.284 61.929 C 70.1194 18.5405 20.9504 29.279 24.7552 81.3878 C 26.5433 105.876 37.4057 116.252 37.0625 93.1439 C 36.8997 82.1676 40.222 77.6943 51.538 73.6548 C 62.9692 69.5743 67.2983 70.1088 71.066 76.0657 C 79.4831 89.3737 76.5102 104.264 62.3969 119.484 C 51.5898 131.139 45.8406 133.52 34.9457 130.851 C 13.7599 125.663 7.42245 116.586 5.17644 86.0803 C 0.389217 21.0612 31.2522 4.54767 75.5491 4.38443 C 111.198 4.25367 160.736 61.2428 166.62 57.1311 C 182.255 50.1465 163.868 34.5449 157.626 27.9003 C 144.312 13.7283 143.245 5.70301 154.119 1.53013 C 164.774 -2.55842 176.861 2.48327 198.448 20.0207 C 224.171 40.917 239.863 39.3002 263.156 13.3533 C 282.86 -8.59578 299.794 9.54613 299.794 28.1428 C 299.794 40.2827 309.636 54.7485 321.602 54.7485 C 326.694 54.7485 340.195 45.8489 353.819 38.5663 C 440.064 -7.53595 505.064 6.34371 546.976 44.29 C 552.949 49.6981 562.207 54.0886 569.681 58.2771 C 577.155 56.2731 580.942 53.1496 592.879 51.3322 C 607.911 49.0438 623.784 47.5766 633.131 47.8228 C 653.263 48.3532 664.603 42.1598 642.685 26.7484 C 633.36 20.1919 632.406 15.6175 636.868 11.0737 C 644.9 2.89293 726.042 2.2288 734.092 10.2779 C 738.753 14.9398 738.153 16.3887 731.559 16.3887 C 720.773 16.3887 691.955 34.2793 691.955 39.081 C 691.955 41.0441 711.367 47.9144 735.093 54.3482 C 758.819 60.7822 783.375 69.3426 789.662 73.3714 C 802.931 81.8741 832.298 99.1517 846.796 105.729 C 864.902 113.942 878.63 127.021 891.149 137.815 C 957.769 195.259 995.927 251.97 999.411 408.789 C 1000.33 449.959 979.486 538.24 964.765 562.771 C 924.877 629.245 849.081 720.522 755.099 699.464 C 762.266 704.158 764.72 706.461 769.08 708.666 C 776.998 712.67 791.695 722.539 801.76 730.56 C 815.999 741.907 821.222 743.672 825.29 738.512 C 828.166 734.865 834.681 728.614 839.767 724.623 C 847.772 718.341 850.409 718.626 859.375 726.74 C 865.073 731.897 869.735 739.28 869.735 743.148 C 869.735 747.016 871.767 750.181 874.251 750.181 C 876.735 750.181 884.815 756.229 892.207 763.622 C 903.23 774.645 907.527 776.056 916.096 771.47 C 938.424 759.521 932.314 724.439 906.476 716.238 C 900.648 714.388 895.894 711.269 895.912 709.306 C 895.964 703.758 926.997 687.435 937.493 687.435 C 952.054 687.435 964.6 677.145 957.64 664.057 C 954.437 658.031 948.87 652.113 945.271 650.906 C 935.378 647.587 945.27 635.509 957.882 635.509 C 984.154 635.509 1005.62 662.769 998.112 686.589 C 995.647 694.408 991.377 696.571 982.721 694.385 C 971.444 691.536 931.445 697.186 924.083 704.548 C 922.233 706.398 925.678 715.658 931.74 725.125 C 941.587 740.502 942.772 741.083 942.85 730.573 C 942.962 715.696 963.419 714.341 976.115 728.37 C 986.891 740.278 987.259 750.181 976.926 750.181 C 972.612 750.181 969.053 753.122 969.018 756.717 C 968.925 766.051 935.003 786.783 919.823 786.783 C 912.78 786.783 900.656 784.364 892.88 781.408 C 876.166 775.053 870.912 778.215 879.998 789.163 C 886.696 797.233 914.59 808.222 921.324 808.222 C 923.398 808.222 929.955 813.137 935.895 819.145 C 949.339 832.741 962.052 856.865 952.192 889.224 C 949.389 898.422 944.981 917.007 943.941 930.756 C 942.202 953.739 941.473 955.394 934.889 951.296 C 929.896 948.188 927.657 941.941 927.492 930.655 C 927.299 917.506 918.96 922.725 915.891 931.548 C 911.972 942.812 890.241 965.287 855.226 984.085 C 813.22 1006.64 640.95 1016.61 637.588 922.536 C 636.612 895.233 670.271 887.94 685.253 891.7 C 709.984 897.907 716.207 930.441 692.663 930.441 C 683.339 930.441 682.021 928.262 684.755 917.369 C 687.591 906.069 686.286 904.297 675.124 904.297 C 658.305 904.297 649.642 913.957 659.915 940.821 C 688.655 1015.98 859.608 980.586 886.59 947.534 C 924.921 900.579 904.734 826.103 875.196 799.855 L 875.081 816.629 C 874.996 828.854 872.586 846.362 855.1 858.626 C 840.792 868.661 819.278 862.798 808.287 873.203 C 793.557 887.148 788.942 905.236 786.545 912.424 C 783.84 920.537 790.964 917.59 788.478 935.321 C 786.559 949.005 789.483 951.971 797.357 953.947 C 802.465 955.229 810.882 956.636 813.711 953.587 C 820.104 946.696 820.146 939.382 819.385 932.014 C 818.833 926.661 817.129 925.647 809.303 927.611 C 802.123 929.413 799.22 928.507 799.22 924.462 C 799.22 915.799 808.127 907.397 815.559 912.021 C 835.979 924.724 826.208 958.145 803.678 962.17 L 803.678 962.17 C 796.04 963.534 778.273 955.939 773.451 949.365 C 771.613 946.858 770.465 947.239 770.426 950.367 C 770.393 953.139 768.213 955.408 765.583 955.408 C 762.954 955.408 756.577 959.377 751.414 964.227 C 744.029 971.165 740.977 971.997 737.108 968.128 C 733.239 964.259 734.111 962.708 741.195 960.855 C 751.64 958.124 751.362 958.992 746.166 945.324 C 740.715 930.988 740.847 909.906 762.39 926.855 C 770.44 903.374 773.607 926.193 779.681 903.264 C 784.299 885.828 785.516 882.111 799.257 866.475 C 813.469 850.303 830.644 856.756 841.998 851.85 C 860.166 844 864.358 827.61 859.428 805.752 C 856.916 794.616 852.159 782.851 848.856 779.608 C 844.352 775.185 843.669 777.03 846.125 786.987 C 853.263 815.929 822.878 849.199 803.782 833.351 C 797.852 828.429 798.906 824.687 809.907 811.613 C 820.508 799.014 822.475 792.544 819.634 779.611 C 814.062 754.241 797.638 748.032 763.866 721.314 C 721.444 687.752 717.432 701.422 614.496 678.595 C 614.496 678.595 591.275 654.673 640.371 670.04 C 709.018 684.251 743.574 688.945 761.639 670.442 L 761.639 670.442 L 778.231 653.448 L 763.827 651.791 C 755.74 650.861 745.832 653.727 741.232 658.328 C 736.725 662.833 731.324 666.52 729.229 666.52 C 721.468 666.52 712.87 653.605 712.87 641.945 C 712.87 632.697 715.804 629.919 725.569 629.919 C 740.821 629.919 754.701 617.284 754.701 603.401 C 754.701 583.289 770.171 592.739 773.736 615.028 C 776.898 634.807 777.834 635.881 784.255 627.1 C 798.177 608.061 787.286 568.558 764.798 556.522 C 749.741 548.464 725.602 555.081 715.869 569.934 C 705.132 586.321 705.48 590.895 718.372 602.907 C 727.416 611.332 727.851 613.384 721.138 615.96 C 711.272 619.746 697.184 606.39 697.184 593.252 C 697.184 587.875 694.951 582.096 692.222 580.41 C 689.492 578.723 688.284 569.76 689.535 560.493 C 692.86 535.876 683.972 519.052 660.551 505.628 C 641.363 494.63 638.015 493.207 621.873 501.264 C 581.974 521.178 595.744 586.04 632.596 572.261 C 651.03 565.367 652.459 556.715 635.387 556.715 C 608.104 556.715 603.143 538.969 626.93 526.461 C 635.662 521.87 640.347 522.969 651.457 532.214 C 673.241 550.343 674.906 586.129 650.625 594.804 C 618.39 606.32 582.214 566.569 582.291 536.798 Z M 130.283 967.161 C 113.496 964.148 113.424 981.413 99.3411 969.204 C 96.7916 966.993 97.806 960.472 101.583 958.518 C 116.958 950.564 151.274 967.722 185.624 970.067 C 207.599 971.567 246.663 952.431 248.583 938.739 C 235.297 935.462 227.354 938.132 214.953 947.036 C 201.803 956.478 193.292 957.222 193.292 948.929 C 193.292 942.716 207.349 936.956 226.876 931.289 C 234.686 929.022 241.441 929.837 252.71 930.51 C 254.164 924.695 259.556 902.437 251.728 894.278 C 241.786 883.916 231.348 856.776 210.623 843.802 C 195.748 834.491 158.123 834.24 158.123 834.24 C 143.581 834.532 112.454 842.234 96.3595 882.441 C 91.271 917.023 133.575 936.374 153.12 932.637 C 162.3 930.882 174.49 927.051 175.033 929.875 C 175.577 932.7 184.451 942.185 148.695 944.158 C 129.171 945.235 121.96 945.989 105.024 930.688 C 78.5957 906.812 73.7808 884.33 88.7935 854.903 C 94.7861 843.156 103.112 832.483 107.296 831.186 C 133.174 823.158 133.143 823.328 111.139 810.206 C 96.1509 801.268 87.6451 791.621 83.3922 778.734 C 75.8795 755.97 81.0509 748.929 93.3285 765.206 C 100.711 774.993 105.294 776.546 117.808 773.498 C 126.276 771.436 137.845 766.57 143.518 762.686 C 161.067 750.667 180.638 754.066 195.485 771.71 C 202.93 780.558 209.022 791.147 209.022 795.24 C 209.022 806.771 192.705 804.014 189.55 791.95 C 185.341 775.856 165.028 780.493 162.995 798.012 C 161.712 809.059 164.546 812.941 177.946 818.491 C 187.04 822.258 197.752 825.34 201.751 825.34 C 205.75 825.34 211.016 829.403 213.819 830.769 C 238.588 842.845 245.762 853.94 263.528 898.077 C 269.448 912.785 266.994 920.376 262.749 932.478 C 279.876 939.164 285.907 950.641 293.191 953.679 C 299.511 956.315 275.311 942.069 292.054 926.051 C 294.702 923.517 303.232 917.709 311.904 916.386 C 332.463 913.249 371.14 920.603 366.235 924.08 C 350.589 935.173 341.801 931.924 330.19 935.32 C 318.579 938.716 321.681 946.186 307.066 947.751 C 298.796 948.636 300.123 933.088 297.014 933.705 C 285.516 935.986 294.812 948.06 307.183 960.773 C 319.954 967.582 331.012 969.874 345.415 960.48 C 347.981 958.806 357.31 951.734 372.008 949.713 C 404.641 945.225 425.616 953.838 420.593 969.664 C 418.689 975.665 420.258 981.651 424.41 984.216 C 429.125 987.13 429.724 990.313 426.218 993.818 C 419.716 1000.32 394.361 988.33 396.192 979.62 C 396.876 976.364 394.195 974.944 390.234 976.464 C 386.09 978.054 384.155 983.525 385.677 989.348 C 387.133 994.914 385.696 999.468 382.485 999.468 C 379.274 999.468 376.647 994.174 376.648 987.703 C 376.648 976.377 374.901 975.938 329.789 975.938 C 294.423 975.938 266.755 941.347 258.1 941.713 C 249.297 956.658 221.86 982.783 184.865 983.428 C 166.225 983.753 146.355 970.046 130.283 967.161 Z"/>
</svg>
