<svg viewBox="0 0 1000 1000"><path d="M476.86 8.38c-21.69 14.15-50.81 31.48-55.19 68.83-42.66-21.49-71.06-27.54-167.77-34.69 2.78-8.7 13.82-5.73 17.72-7.24 7.89-3.07 15.22-8.4-10.17-18.13-32.81-12.59-61.06-13.35-61.8 8.82-.17 4.3 3.2 12.65 7.39 17.66-50.09 2.83-74.37 12.03-100.1 22.3-32.94 13.12-63.12 3.71-43.5-9.95 13.55-9.44 5.48-25.7-14.12-28.57-22.44-3.28-32.2.61-40.03 15.61-9.37 17.99-9.43 48.84 0 45.3 3.77-1.42 7.56-.38 8.48 2.32 1.12 3.3 7.26 2.84 18.16-1.37 9.07-3.5 24.47-5.75 34.26-4.94-75.74 50.22-89.8 217.3-32.32 347.6 18.5 41.93 34.42 46.86 7.25 42.54-21.14-3.36-37.9 6.51-37.9 22.35 0 13.8 3.64 24.43 12.03 30.76 5.95 4.49 11.71 4.28 14.98 16.73 3.18 12.15-.29 21.37-7.78 27.47-8.13 6.63-19.53 31.17-18.02 41.34 1.21 8.2 3.54 9.59 10.75 6.53 5.06-2.14 10.72-8.12 12.6-13.3 1.88-5.18 6.4-17.85 13.63-22.72 40.2-27 32.44-59.33 35.96-94.65 16.56 48.46 5.95 79.9-15.9 105.87-21.95 26.1-8.25 30.41-1.27 29.59 7.35-.87 10.6 8.53 23.55 1.86 7.68-3.93 15.1-7.13 16.54-7.13 5.97 0 1.99 9.7-7.77 18.68-10.91 10.11-39.1 13.26-44.28 4.96-5.29-8.54-9.45-5.07-25 20.8-10.78 17.9-15.37 31.43-15.37 45.26 0 24.85 7.32 23.3 23.85-5.04 8.94-15.31 19.54-24.78 39.61-35.46 36.94-19.65 45.2-31.38 53.45-58.97 34.13-114-63.25-160.8-89.6-214.8 77.05 84.69 178.97 117.03 270.03 102.83 78.44-12.24 190.4-120.1 173.37-188.51-1.93-7.72-3.78-29.27-19.32-27.09-15.86 2.24-17.94 12.36-18.89 15.25-7.04 21.47 20.81 13.42 22.93 34.03 1.37 13.36-60.68 126.25-122.81 94.33-36.42-18.71-57.11 7.48-62.33 11.76-13.24 10.84 6.1 17.71 10.84 19.16 10.26 3.12 15.04 15.27 5.9 17.89-53.75 15.4-155.93-17.66-210.05-62.43-35.64-29.48-46.54-54.84-54.9-71.77 41.76 42.4 90.11 62.19 124.65 70.53 40.5 9.78 119.9-22.45 107.7-72.7-2.22-9.13-9.69-15.67-12.3 3.11-2.7 19.64-18.73 33.85-33.41 27.9-9.3-3.77-19.71.32-20.59-9.59-.48-5.4 2.88-11.3 7.31-13.07 16.41-6.5 21.31-11.74 23.83-25.38 2.03-11.02.22-18.11-3.02-17.81-5.65.53-8.59 8.01-10.05 11.44-7.82 18.47-17.13 19.93-41.34 6.26-19.83-11.2-37.55-10.43-45.38-2.28-23.3 24.29 12.76 40.75 9.35 59.85-89.95-29-107.4-77.08-61.98-125.92 13.43 33.24 39.15 41.6 72.06 41.41 36.97-.22 46.15-10.77 46.15-17.19 0-8.54 3.4-4.14 9.09-8.68 18.48-14.72 17.71-58.77-19.97-76.41-32.02-15-33.5-8-17.98 7.12 76.66 74.64-79.5 99.27-68 4.99 9.77-80.14 72.51-125.99 152.29-133.08 63.9-5.68 148.03 1.83 208.1 66.62 21.98 23.72 27.13 60.54 14.25 58.16-1.98-.36-6.13-3-9.38-5.92-15.04-13.48-27.76 7.1-17.03 27.62 2.94 5.61 4.5 14.9 3.53 20.65-2.63 15.49 5.46 19.46 14.05 6.87 7.16-10.51 7.72-10.55 12.23-1.1 1.17 2.46 1.18 8.6 7.46 10.72 10.2 3.44 10.27-5.66 12.42-12.8 20.8-68.99-6.27-120.85-50.56-147.14-20.46-12.13-4.47-36.44 6.76-44.19 9.32-6.43 23.86-1.77 21.91 6.51-1.95 8.3 2.96 9.84 20.28 6.32 9.5-1.93 13.81-6.14 16-15.58 2.42-10.48 0-15.56-13.1-26.44-6.67-5.54-14.1-10.07-18.9-11.82-.52-.2-.99-.64-1.54-.64h-.37c-.73 0-1.21-.25-1.6 0Zm91 1.74c-3.56-.19-16.66 3.22-22.72 10.68-8.89 10.94-17.84 48.8-2.65 34.42 1.82-1.73 8.03 0 13.86 3.74 9.33 6.03 11.31 6.05 16.32 0 3.14-3.78 7.68-5.68 9.99-4.26 5.86 3.6 7.42 35.17-.77 45.16-23.6 28.8-42.08 72.67-40.96 136.09.13 7.22 6.75 16.8 13.13 14.07 8.18-3.5 6.46-31.4 15.04-27.53 8.76 3.95 6.2 17.6 16.95 22.66 15.27 7.18 23.86.91 12.64-36.3-2.06-6.84 5.03-17.32 6.68-28.22 3.68-24.43-4.86-31.7-17.2-14.56-15.65 21.75-21.4 14.85-8.84-16.01 18.9-46.38 68.04-83.86 117.53-68.67 11.53 3.54 18.84 22.54 10.25 22.71-11.28.23-16.29 8.52-11.04 18.26 4.35 8.06 9.81 9.97 27.84 9.95 27.74-.04 34.4-4.07 35.65-21.38.8-10.98-2.4-15.78-16.82-25.2-20.57-13.42-23.02-23-5.91-23.03 55.66-.13 143.43.42 196.17 91.66 5.75 9.95 9.3 27.2 3.66 37.65-9.86 18.3-17.77 23.24-24.25 32.28-6.49 9.03-5.45 11.46-4.2 23.6.77 7.46 4.68 16.79 8.64 20.74 6.46 6.43 6.93-9.31 14.83-16.41 14.1-12.67 11.76 5.67 6.34 31.1-6.56 30.72-42.82 36.12-66.56 8.96-8.73-9.99-15.82-14.51-26.46-18.92-27.92-11.59-40.05-4.8-50.58 27.26-6.09 18.55-33.8 11.2-40.4-1.54-9.34-17.98-16.02-18.01-25.3 0-10.34 20.05 3.42 40.12 27.05 39.5 17.7-.45 22.17 9.74 5.9 12-29.27 4.06-61.37-5.7-79.1 19.32-9.33 13.15-16.87 26.38-17.19 29.1-1.23 10.6 17.42 6.3 28.11-6.5 10.53-12.61 7.43-13.05 52.96-6.07 75.42 11.56 173.34-11.3 215.1-93.25-7.77 92.56-35.05 126.9-108.81 159.7-50.55 22.46-123.4 31.94-177.55 17.42-8.38-2.25-13.61-6.48-1.61-17.5 5.65-5.2 19.08-5.51 19.78-7.95 1.8-6.32-21.57-28.97-32.51-31.45-15.64-3.54-42.29-8.64-48.13.97-4.57 7.51-8.3 7.56-20.58.16-17.18-10.35-63.15-38.47-49.26-102.73 1.72-7.97 11.39-11.6 12.03 2.14.79 17.13 26.24 12.23 29.5-5.52 2.13-11.54-23.36-34.35-34.59-30.67-67.79 22.25-6.88 150.59 30.55 166.77 25.9 11.2 43.34 45.31 63.85 47.81 19.4 2.36 25.74-1.4 34.06-1.29 6.75.1 57.66 7.08 88.87 3.8 22.97-2.4 13.98 10 5.97 18.4-5.77 6.06-29.13 15.34-59.8 14.78-26-.47-37.56 5.86-26.27 20.65 5.99 7.84 17.03 20.85 10.1 25.45-6.8 4.49-8.61 10.82-8.6 29.14 0 29.82 10.57 29.75 19.48 0 6.48-21.63 8.15-23.07 27.2-23.78 11.17-.43 71.84-32.33 75.4-34.39 23.76-13.72 28.76-28.68 26.77-40-2.75-15.57-3.66-19.48 12.82-25.03 28.87-9.7 68.08-31.62 88.49-59.23-11.27 21.44-31.43 60.11-47.35 75.6-34.06 33.16-37.23 39.96-47.18 101.22-3.54 21.82-12.4 27.08-16.74 9.95-2.95-11.65-3.6-11.8-16.7-5.08-13.52 6.94-20.92 22.47-21.54 45.1-.22 8.63-4.43 13.63-15.73 18.58-8.5 3.72-15.44 8.4-15.44 10.38 0 5.64 39.32 7.03 49.9 1.77 23.6-11.73 46.23-38.23 53.95-65.55 12.8 39.22 37.92 34.88 60.68 77.56 4.74 8.9 13.55 20.15 20.95 24.37 12.86 7.35 14.62 6.58 17.06-4.76 2.19-10.18 7.66-14.16 18.46 9.6 4.27 9.4 7.53 33.36 14.21 21.22 3.1-5.63 8.01-20.54.78-37.71-10.98-26.13-35.06-37.86-65.5-50.48-62.36-25.85-66.1-108.64-28.51-139.6 7.57-6.24 8.74-6.37 2.07 4.71-12.12 20.16-9.66 66.13 7.67 84.63 25 26.7 85.89 42.19 85.89 22.06 0-17.26-5.5-24.03-19.64-24.03-8.19 0-13.9-3.68-16.75-7.32-15.72-20.12-3.97-43.04 18.15-44.65 26.64-1.93 1.82-31.03 1.9-51.07.03-9.54 3.16-16.27-1.48-17.22-4.13-.84-3.64 5.3-8.42 12.47-5.63 8.46-15.24 14.38-24.82 16.13-11.26 2.04-21.73 12.98-23.78 16.28 2.3-8.3 3.66-12.48 4.98-20.28 3.22-19.15 10.04-33.32 24.66-57.88 75.43-126.75 59.44-294.12-45.9-358.6C869.91 67 874.37 62.08 919.7 76.25c42.54 13.3 59.82 9.8 66.33-13.5 6.65-23.86 6.8-23.44-9.23-31.68-19.83-10.19-50.91-1.4-33.31 9.41 7.21 4.44 5.7 10.98-3.72 15.98-5.9 3.16-16.63 1.78-35.22-4.45-14.7-4.92-46.63-10.38-71.03-12.02-27.28-1.84-46.2-5.47-49.17-9.2-15.38-19.42-57.46-21.97-68.83-9.1-7.55 8.53 2.94 18.94 11.1 22.1-43.66 2.72-98.02 15.59-119.92 39.42 1.65-5.37 5.98-20.2 2.89-32.52-5.46-21.73-19.73-39.45-41.71-40.58Zm-392.4 62.53c-28.35 11.96-46.72 31.23-53.05 36.9-27.34 24.47-45.45 59-54.72 111.1-3.98 22.32-18.2 30.34-39.43 57.18-2.56-134.31 30.7-188.58 147.2-205.18Zm297.1 137.7c5.4.68 7.2 5.62 4.93 10.5-2.26 4.86-6.35 8.2-9.05 7.21-2.73-.99-4.46-5.97-4.02-11.41.34-4.23 2.72-6.97 8.13-6.3Zm347.47 112.87c3.66.13 6.3 1.03 7.16 3.58 1.39 4.06-1 7.25-9.27 9.07-8.17 1.81-17.55.82-20.62-2.39-3.1-3.22 1.28-8.21 9.38-9.15 5-.57 9.7-1.23 13.36-1.1ZM155.02 347.5c2.43-1.08 9.86 3.7 16.8 10.27 5.04 4.74 14.67 5.61 12.56 11.86-2.19 6.5-9.03-2.8-15.6-4.86-11.34-3.53-18.35-9.59-17.41-13.75.53-2.38 1.9-2.75 3.65-3.52ZM60.39 513.27c3.37 0 5.82 2.4 5.7 5.47-.14 3.05-2.8 12.06-5.7 20.08-4.64 12.95-5.28 12.39-5.61-5.43-.33-11.04 2.24-20.12 5.6-20.12Zm160.14 21.02h-.01c-11.24.23-21.16 5.44-28.3 18.84-10.38 19.5-11.2 55.86-2.8 79.87-.57 2.52-5.32 12.03-3.72 23.5 4.53 32.44 21.13 35.76 21.13 63.73 0 19.69-1.63 17.46-11.69 6.6-15.12-16.33-30.62-31.35-73.87-26.73-91 9.73-138.47 122.08-78.65 207.78 6.09 8.72 28.4 29.22 46.94 34.61-3.4 1.67-11 4.72-17.68 7.5-6.33 2.64-11.34 6.35-19.3-.18-5.97-4.9-10.65-4.34-26.12 2.98-20.37 9.63-27.64 22.07-19.13 32.25 6.1 7.3 42.75 1.35 48.5-7.92 7.07-11.41 22.4-28.7 63.59-11.1 43.3 18.52 182.05 44.81 244.53 4.6 12.4-7.98 29.78-17.58 47.67-26.72 21.28.1 32.75 8.2 31.93 14.57-1.2 9.3-7.34 13.08-6.32 18.23 1.5 7.61 23.9 22.3 28.79 9.97 4.82-12.13 18.59-9.81 24.48-3.5 2.8 2.98 11.83 6.31 20.08 7.35 27.57 3.49 32.5-1.03 32.46-29.68 0-14.78-.82-15.87-7.9-10.92-16.65 11.66-26.02 10.9-36.14-2.92-7.45-10.23-14.24-13.15-20.71-10.49-6.47 2.66-11.46 3.39-15.4 2.3-8.43-2.33-16.79-8.06-27.14-10.8 41.33-22.65 55.46-53.7 66.08-67.66 17.56 30.94 70.76 68.9 111.31 89.77-36.53-2.75-16.39 16.05-39.13 30.91-10.94 7.16 14.64 6.5 27.66 1.52 72.17-27.66 65.25.29 184.6 4.3 55.75 1.88 112.86-25.14 156.67-9.35 27.53 9.92 43.62 12.72 43.62 7.45 0-9.62-12.7-22.28-28.76-28.66-10.32-4.11-20.1-9.93-18.76-12.13 33.48-54.34 64.65-108.44 35.07-172.38-23.63-51.07-86.16-80.29-134.3-74.25-46.1 5.79-74.18 36.3-61.26 75.6 12.1 36.78 62.72 39.8 77.06 29.64 20.54-14.58 18.6-34 6.9-48.75-11.66-14.7-35.37-15.33-44.08-1.14-4.34 7.08-2.51 10.93 10.7 22.76 8.73 7.83 14.82 15.95 12.93 17.15-22.35 14.19-64.55-23.06-50.08-50.3 27.84-52.4 105.84-34.41 122.92 17.41 8.05 24.42 8.33 33.75-9.12 24.46-9.34-4.98-12.39-3.9-25.46 9.12-12.51 12.48-13.73 15.57-7.71 19.54 13.7 9.06 16.73 11.72 30.13 26.45 13.12 14.42 13.25 15.18 5.36 27.16-11.62 17.64-32.18 15.8-52.79-2.54-4.2-3.74-18-7.12-24.05-4.81-7.3 2.79 5.55 10.24 15.23 17.12 18.12 12.9 26.58 15.92 37 17.2 10.4 1.3 21.78 2.83 32.9-8.58 29.92-30.73 38.72-93.22 13.24-130-8.23-11.87-11.63-21.84-1.52-13.13 70.68 60.9 24.3 176.74-37.69 194.32-123.91 35.14-295.8 1.18-377.91-88.45 11.67-9.24 19.58-12.24 23.59-22.13l8.61 8c8.9 8.25 11.2 14.64 5.7 23.11-4.38 6.76 0 5.95 6.18-1.13 2.88-3.32 4.6-7.57 4.04-10.73-.56-3.13 1.03-7.91 3.5-10.74 4.95-5.67 6.32-24.86.16-29.96-6.82-5.66-12.24-7.52-18.13-3.54-3.52 2.38-7.17 4.31-7.92 4.31-2.46 0 1.45-11.14 5.39-15.49 11.15-12.32 16.53-24.58 15-34.46-2.15-13.82-4.93-15.82-14.8-10.53-4.52 2.45-9.88 3.79-11.91 3.07-5.08-1.81-4.97-8.95 0-10.96 2.2-.88 7.94-6.9 12.73-13.36 13.22-17.84 10.88-41.34-2.92-29.08-4.56 4.06-4.39 3.94-3.17-3.68 2.72-17.02-2.61-27.74-11.7-28.3-24.19-1.46-28.34 3.64-13.9 5.83 5.5.84 9.43 1.25 12.9 3.48 5.13 3.28 4.84 39.02-.98 51.1-7.97 16.57-11.19 30.24-12.12 53.13-.53 13.31-3.44 21.78-9.7 38.84-4.77-39.12-14.63-72.12-28.06-93.16-7.05-11.03 3.79-5.98 1.3-34.48-1.54-17.66-1.26-20.68 1.82-24.3 2.3-2.7 5.11-3.68 8.02-3.01 7.02 1.6 10.26-3.98 5.9-10.47-3.97-5.9-7.76-6.45-15.57-2.15-3.66 2.02-6.1 2.33-7.54.91-3.98-3.95-7.82.32-9.68 10.54-1.43 7.9-1.27 11.14.88 13.98 1.56 2.05 2.83 4.4 2.83 5.32 0 2.62-6.97-.7-9.9-4.67-3.55-4.8-7.8-4.66-14 .5-3.07 2.56-4.9 1.13-6.65 2.89l-5.47 5.54c-4.02 4.07 6.7 8.05 6.11 11.45-1.1 6.33 3.44 11.87 12.65 15.4 6.46 2.46-.45-1.8 15.78 15.07 7.24 7.53 19.52 33.6 4.43 22.89-18.57-13.19-25.87-4.81-25.31 7.83.41 9.44 13.21 28.12 16.6 31.2 3.76 3.42-4.77 6.78-7.38 5.28-5.38-3.09-18.3 0-24.94 7.32-6.58 7.26-7.85 25.28-2.2 31.72 16.46 18.76 20.51 22.62 23.33 22.62 5.69 0 6.13-4.68 1.13-13.23 0 0-4.37-5.17-4.9-8.36-3.14-18.9 27.46-33.91 42.91-4.62.68 1.3 1.22 14.99 4.7 18.33-1.37 6.4-6.21 9.73-9.11 14.28-8.7 13.67-33.63 41.75-67.1 58.31-65.72-1.8-94.22 39.59-122.2 44.92-57.27 10.9-118.87-4.97-145.33-23.35-21.95-15.25-44.83-14.4-66.6-28.44-60.5-38.98-55.14-140.96 7.3-181.17.89.75-2.5 13.02-7.4 27.14-4.88 14.1-8.46 29.88-7.89 35.08 2.7 24.42 8.88 39.82 20.66 50.82 12.02 11.21 40.22 21.2 50.9 18.09 2.6-.76 7.94-1.9 11.85-2.53 3.92-.63 7.85-4.46 8.6-8.54 1.13-6.05-2.03-6.94-17.28-4.9-15.05 2-20.72.46-29.16-7.9-9.04-8.97-10-13.57-7.29-33.24 2.69-19.4 1.65-24.31-6.8-32.73-7.9-7.85-10.66-5.27-10-9.92 4.7-32.5 30.97-45.6 65.15-42.95 20.1 1.56 38.86 36.54 39.74 45.79 2.49 26.26-15.89 39.15-30.28 38.02-15.38-1.2-22.2-15.42-22.2-25.72 0-3.5 2.68-5.53 5.95-4.14 21.96 8.92 22.6 8.92 22.6.62 0-10.25-13.82-21.8-22.67-21.56-20.16.57-27.83 22.9-24.83 31.85 15.14 45.16 67.45 42.53 86.1 7.95 7.69-14.26 2.05-29 7.12-52.29 8.55-39.23-14.63-61.18-16.12-72.95-1.26-9.94 10.15-9.05 15.81-5.28 5.38 3.58 8.32 1.67 9.98-9.43 6.17-41.13 52.42-80.08 86.15-71.56 26.98 6.82 9.94 43.15-8.98 47.25-7.37 1.6-13.4 4.64-13.4 7.15 0 5.93 38.67 5.81 49.48 0a857.49 857.49 0 0 1 19.72-10.22c10.44-5.2 11.82-7.87 11.46-22.34-.4-16.15-.13-16.43 11.26-14.18 11.46 2.26 15.56.54 8.88-11.25-33.82-59.64-92.78-46.4-141.82-1.24-13.37 12.32-23.58 21.62-23.92 20.3-2.03-7.92-2.6-15.28-4.35-20.03-3.56-9.68-2.34-11.3 11.74-15.79 24.22-7.71 22.8-17.32-3.41-23.22-4-.9-7.88-1.37-11.63-1.3Zm275.74 151.8c-2.99.67-7.63 17.65-5.33 21.9 3.56 6.63 9.11 45.86 7.78 55-.77 5.24.19 10.3 2.3 13.24 4.27 6.03 4.5-1.61 4.85-4.33.63-4.93 1.71-25.34 2.27-45.33.94-33.57.62-36.6-3.8-39.02-2.31-1.27-5.07-2.11-8.07-1.45Z"/></svg>
