<svg viewBox="0 0 1000 1000"><path d="M834.3 0c-1.02.02-1.99.05-2.93.1-16.39.65-39.77 5.33-43.86 7.98-5.94 3.86-15.53 4.74-45.26 5-31.75.28-65.17 3.56-81.05 7.96-54.08 14.95-80.24 19.44-76.31 13.1 2.63-4.27-15.23-19.92-22.74-19.92-1.93 0-10.7 6.57-19.49 14.6-11.99 10.95-19.13 13.91-28.55 11.87-25.23-5.47-26.17-6.36-23.12-21.63 2.03-10.14 1-14.66-3.33-14.66-10.4 0-18.06 10.96-18.06 25.87 0 7.74-2.17 18.13-4.82 23.09-4.06 7.57-3.27 8.61 4.9 6.48 5.35-1.4 15.18 1.02 21.85 5.39 17.07 11.19 55.26 10.1 80.92-2.3 11.65-5.62 29-11.5 38.54-13.04 19.16-3.11 19.4-1.99-2.65 26.72-20.43 26.6-38.08 58.16-55.69 77.73-21.36 23.75-47.21 65.05-77.77 109.71a209.73 209.73 0 0 1-16.44 3.43c-15.88 2.74-30.04 3.38-31.47 1.44-1.43-1.94.06-4.25 3.3-5.14 12.07-3.3 25.4-14.4 26.84-25.6 2.12-16.52-12.64-17.74-18.81-.72-5.65 15.57-8.08 7.69-11.87 3.31-6.63-7.66-12.82-8.59-20.34-3.06-9.75 7.17-10.28 6.66-13.38-12.87-4.62-29.18 9.43-46.7 33.84-42.19 16.27 3 18.97 12.27 5.46 18.72-13.3 6.34-10.96 14.45 4.25 14.77 17.45.37 33.88-15.7 30.85-25.42-12.92-41.41-85.3-34.58-93.55 11.98-6.86 38.76 13.12 78.17 61.37 85.74a46.21 46.21 0 0 0 25.21-3.12c-17.42 24.64-36.28 49.64-56.69 72.78a18.5 18.5 0 0 0-.5-.8c-2.61-3.98-3.12-9.06-1.13-11.3 6.34-7.1 12.52-36.17 8.96-42.14-2.37-4-4.88-2.26-8.2 5.69-2.64 6.3-8.63 12.3-13.3 13.31-6.48 1.42-8.58 9.33-8.86 33.32-.24 19.8-4.02 28.83-7.22 33.64-60.84 57.88-133.89 93-221 57.17-22.26-9.16-43.64-26.4-54.34-38.94 5.01-7.45 15.62-18.44 21.77-24.59 11.16-11.16 32.04-22.3 54.82-34.06 2.54 14.61 12 26.17 15.84 29.89 3.4 3.29 3.34 7.35-.2 11.63-5.85 7.08 1.65 24.67 9.66 22.64 2.43-.62 10.32 1.5 17.54 4.7 7.22 3.2 16.1 5.07 19.72 4.15 3.64-.93 10.7.48 15.68 3.12 10.86 5.75 58.27-1.47 65.88-10.03 4.75-5.34 4.51-6.3-2.18-8.6-4.14-1.43-13.53-1.11-20.86.72-7.8 1.94-17.47.56-23.3-3.31-5.48-3.64-9.22-6.95-8.3-7.35.91-.4 14.85-4.53 30.95-9.17 27.08-7.81 29.96-9.73 38.17-25.5 4.89-9.37 8.44-18.81 7.89-20.98-1.02-4.02-15.78-6.28-22.14-3.4-8.3 3.77-11.03 1.98-7.68-5.07 7.8-16.39-15.55-30.62-40.04-24.4-6.78 1.73-10.06 5.88-10.12 12.8-.08 12.63 9.81 19.93 13.06 9.61 1.82-5.8 3.7-6.41 10.24-3.3 19.39 9.22 18.9 36.85-.74 41.84-4.23 1.07-8.38 4.19-9.24 6.92-2.64 8.37-16.83 9.44-41.4 3.12-39.71-10.22-35.76-24.18-40.07-39.6 22.43-11.69 44.86-24.12 60.59-38.02 80.03-70.74 121.38-179.45 6.07-261.74-9.13-6.5-15.28-13.3-14.27-14.3.2-.2.54-.34 1.02-.4 7.09-.9 42.8 13.58 56.4 23.26 7.76 5.53 29.16 13.67 47.57 18.1 15.25 3.66 26.93 6.97 31.95 8.8 9.8 1.3 17.29 1.75 22.93 1.71 1.92-1.34 5.73-2.47 11.84-3.17 22.33-2.57 39.7-43.97 26.18-62.45-8.98-12.28-17.7-4.8-17.7 15.17 0 14.62-1.6 16.91-11.92 16.91-7.7 0-17.05-6.22-26.41-17.58-11.48-13.92-17.4-17.24-28.45-15.97-11 1.28-14.94 5.04-18.57 17.8-3.14 11-6.87 15.33-11.62 13.51-3.84-1.47-9.57-2.73-12.73-2.79-3.16-.05-11.15-4.27-17.78-9.35-10-7.7-13.4-13.91-5.85-16.73 19.36-7.22 22.12-11.1-54.28-5.9-68.41 4.65-110.82 8.64-138.31 22.54-23.53 11.9-23.48 11.9-40.5-1.5C37.6 10.9 11.88 3.16 3.86 11.18c-5.35 5.34-4.67 9.93 3.94 26.45 5.72 10.98 13.6 21.19 17.5 22.69 10.06 3.86 2.24 32.56-6.02 45.4-23.75 36.95-54.78 178.35 49.86 306.3-11.45 28.2-27.27 41.5-35.25 98.6-1.54 11-5.9 24.97-9.64 15.74-3.88-9.57-15.49-7.23-21.7 4.38-13.6 25.4-2.98 112.18 17.54 143.5 9.02 13.76 8.3 38.17-1.2 41.3-4 1.3-6.14-3.16-6.14-12.85 0-13.66-7.3-24.52-12.78-19.03-3.6 3.6-3.36 56.31.28 62.2 5.12 8.27 9.01 6.46 26.05-12.1 12.6-13.74 15.93-21.61 15.93-37.7V675.7l11.36 10.69c14.45 13.57 16.36 13.4 20.16-1.74 3.75-14.93-13.56-46.8-41.96-77.25-20.02-21.48-22.8-33.12-12.37-51.9 5.4-9.75 7.17-10.35 12.27-4.2 3.28 3.94 5.84 14.67 7.84 26.42 2.46 14.42 6.4 21.89 12.1 22.99 5.94 1.14 7.58-.66 5.5-6.05-.88-2.32-.92-6.44-.37-10.99 3.6 6.84 11.94 15.4 15.93 24.16 63.67 139.68 278.64 28.45 213.65-86.05-6.78-11.95-18.88-22.03-23.86-24.36-7.5-3.5-6.6 2.28 5.21 33.45 15.92 42.02 16.1 51.1 2.17 71.2-11.18 16.16-19.57 17.31-19.73 2.7-.14-13.2-6.58-24.84-16.68-30.1-6.59-3.42-8.68-.68-12.97 17-6.99 28.8-35.12 53.8-62.37 55.43-22.78 1.35-56.42-15.29-70.01-34.64-12.22-17.4-6.5-21.6 13.35-9.85 8.22 4.87 23.45 9.12 33.85 9.43 31.52.96 62.27-22.1 40.77-30.58-6.13-2.42-5.64-5.91 2.19-15.68 12.97-16.2 8.75-32.86-11.32-44.62-18.55-10.87-33.44-12.77-47.14-5.5-4.56 2.42-9 5.85-13.4 10.32-16.67 16.95-15.83 29.18 1 14.46 21.54-18.84 38.93 3.34 19.52 24.9-17.14 19.05-40.64 18.33-59.36-1.83a41.35 41.35 0 0 0-5.49-4.97c-1.59-2.47-4.46-4.89-9.01-8.2l-13.1-9.54c3.9-6.07 8.3-11.96 9.36-18.9 6.14-40 18.68-69.89 34.57-90.8 113 82.32 204.43 62.68 307.77-24.6 8.46.26 16.78 1.55 20.09 3.25 6.6 3.4 59.27-7.04 62.73-12.45.77-1.19-6.42-8.51-15.97-16.27-11.45-9.3-19.9-12.65-24.83-9.8-5.75 3.3-9.43 3.11-10.74.82 43.19-52.29 81.2-114.82 123.1-169.28 34.65-45.04 67.43-103.9 116.5-141.98 13.22-10.25 39.58-26.92 76.42-26.92 30.8 0 20.97.73 37.17 18.42 13.47 14.71 16.81 22.35 16.6 37.93-.46 33.34 16.34 44.03 21.46 13.66 6.81-40.34 10.02-31.28 28-26.83 14.16 3.51 35.55 32.21 35.55 34.57 0 11.87-8.63 12.26-16.48 4.4-4.07-4.07-7.05-3.97-11.4.4-4.6 4.58-4.6 7.2 0 11.79 9.8 9.8 6.7 18.66-6.54 18.66-6.84 0-13.7 3.31-15.27 7.37-1.55 4.05-6.77 7.37-11.6 7.37-12.19 0-16.25 29.77-11.99 45.67 4.84 18.08 18.75 37.84 29 37.84 10.72 0 14.85-10.67 6.5-16.78-11.19-8.18-15.66-34.41-7.08-41.53 10.61-8.8 44.84-1.58 57.8 12.21 17.88 19.04 62.54 12.8 56-7.83-4.37-13.74 5.05-17.7 17.2-7.78 17.36 14.15 18.7 93.8.26 116.02-1.22 1.47-4.86-6.32-6.56-14.04-3.8-17.3-23.98-29.66-36.08-22.08-4.56 2.85-9 12.4-9.87 21.25-1.52 15.42-.96 16 13.51 13.88 17.1-2.51 17.26-2.34 9.23 10.51-5.26 8.42-6.46 8.6-11.54 1.65-8.4-11.49-12.64-.26-5.27 13.95 14.97 28.85 21.85 67 2.12 84.63-3.34 2.99-16.2 17.71-24.08 22.25-20.56 11.88-31.02 17.98-25.8 8.74 28.62-50.79 7.56-124.6-41.75-151.25-22.54-12.18-33.37-14.34-42.12-11.71-6.39 1.93-17.82 1.4-25.39-1.15-3.44-1.16-6.18-1.87-8.66-1.89-6.33-.06-10.98 4.31-21.29 16.76-31.99 38.62-34.37 59.31-10.1 87.67 11 12.83 15.77 15.8 21.95 13.57 9.41-3.4 4.97-13.08-11.94-26.04-6.7-5.13-10.77-14.5-10.89-25.1-.34-28.26 13.43-28.65 22.35-.63 7.01 21.99 17.84 18.79 17.28-5.1-.23-9.6 2.62-20.73 6.32-24.74 11.51-12.44 35.2-21.95 44.16-17.73 11.18 5.25 6.43 14.85-8.2 16.6-16.35 1.96-20.19 13.48-6.6 19.86 12.73 5.98 12.71 6.28-.97 17.9-10.72 9.1-18.67 35.03-10.45 34.08 2.65-.3 9.73-7.76 15.73-16.58 8.01-11.76 16.45-17.22 31.7-20.51 18.86-4.07 20.73-3.4 24.46 5.78 12.87 31.73 15.02 68.05-7.5 97.02-2.6 3.34-7.09 5.51-11 7.54-8.1 4.19-19.8 14.37-27.66 20.82-37.34 30.65-78.8 34.17-128.3 40.36-7.26-5.08-11.43-15.12-11.11-17.25.34-2.29 8.04-5.14 17.1-6.34 9.06-1.2 12.62-2.96 7.91-3.92-4.7-.95-9.8-7.51-11.33-14.57-1.73-7.97-6.58-13.42-12.79-14.35-17.39-2.63-31.79-19.48-29.51-34.55 2.36-15.66-5.2-25-12.91-15.97-2.85 3.34-7.9 14.86-11.23 25.62-8.2 26.52-.14 48.56 24.05 65.71 15.85 11.24 21.41 15.36 20.93 17.9-89.06 1.93-149.96 90.98-153.12 147.86-2.54 45.72 15.32 85.43 49.79 108.06 29.76 19.56 89.3 19.1 118.35 5.29 15.02-7.15 15.45-7.57 15.45 1.6 0 6.71-7.75 13.35-25.79 22.08-57.85 28-158.5 12.16-160.89-24.62-.67-10.27-6.2-79.31-26.88-64.18-5.8 4.23-1.24 8.13-.7 14.5.52 5.95-7.26 6-9.75 5.45-3.9-.86-6.77-4.12-7.97-17.22-1.18-12.89 4.8-28.67 12.9-39.55 11.11-14.92 3.65-20.1-14.71 1.6-8.05 9.5-9.15 25-8.83 35.18.64 20.4 3.98 26.12 18.84 34.65 7.78 4.46 9.41 7.38 13.99 14.25 1.83 2.75.45 3.77.68 9.55.28 6.82-12.42 5.04-13.42 5.12-9.88.78-25.78-8.82-34.74-17.5-75.4-73.1-146.51-76.85-222.54-74.42-83.33 2.66-136.78 36.23-172.28 81.01-30.44 40.3-33.53 47.95-30.26 74.89 3.74 30.83 11.13 68.37 18.1 91.85 4.36 14.72 3.77 20-3.45 31.02-8.43 12.86-8.38 13.6 1.44 23.42 8.2 8.2 13.62 9.49 28.28 6.74 15.73-2.95 17.73-4.83 15.08-14.14a484.27 484.27 0 0 1-6.02-24.25c-1.62-7.43-4.89-13.5-7.25-13.5-2.37 0-4.3-3.33-4.3-7.38 0-10.73 3.53-9.3 23.52 9.57 39.98 37.72 48.89 37.26 111.04 20.69 22.5-6 59.23-24.78 64.04-19.97 2.1 2.11-4.1 10.16-13.77 17.89-9.68 7.73-15.72 15.94-13.43 18.25 9.33 9.41 56.66 10.05 70.76.95 17.86-11.51 60.54-9.67 74.84 3.22 5.86 5.28 20 10.75 31.42 12.18h.04c48.2 5.99 62.29-6.55 17.4-15.51-13.63-2.72-30.47-11.13-37.44-18.69-12.36-13.4-33.25-31.85-73.73-32.81-52.92-1.27-36.24-7.1-96.38 7.73-17.97 4.43-36.69 9.7-41.59 11.72-43.67 37.77-129.38-54.93-118.2-79.04 19.57 8.27 27.59 5.33 32.1-11.77 2.8-10.56 2.54-21.34-.7-29.48-2.8-7.06-5.55-25.9-6.1-41.87-.97-28.24-.46-29.5 18.28-45.23 21.94-18.42 29.3-15.98 20.69 6.86-8.25 21.85-1.35 27.69 26.3 22.23 17.75-3.5 22.88-7.18 29.77-21.28 4.57-9.38 7.25-20.74 5.95-25.24-3.22-11.06 16-25.88 35.78-23.74 74.52 8.04 129.18.81 208.03 62.01 6.63 5.15 21.24 15.65 28 21.63 5.93 5.25-.4 13.05-5.21 13.02-7.07-.05-11.7 1.44-22.87-9.74-7.06-7.07-15.6-11.25-19.75-9.66-9.72 3.74-17.36 26.75-14.25 43 2.57 13.46 8.94 17.34 12.23 7.46 2.39-7.16 31.87-10.58 35.83-4.16 5.55 8.98 23.3 4.94 35.33-8.03 13.98-15.09 25.3-5.25 70.79 8.48 63.82 19.28 179.7 1.1 184.23-84.83 2.21-41.92-36.22-97.16-96.78-98.67a40.2 40.2 0 0 0-25.23 7.81c-8.6 6.29-19.34 10.59-23.88 9.55-12.58-2.86-16.72 4.63-13.9 25.1 2.63 18.93 35.13 36.2 56.28 41.01 11.84 2.7 12.44-10.14.5-18.14-12.44-8.32-10.96-28.36 2.8-38.01 15.95-11.18 26.5-8.64 32.2 7.75 2.5 7.16 8.65 14.58 13.9 15.15 39.8 4.32 40.81 66.98 7.7 73.67-214.34 43.32-173.56-241.2 15.26-228.19 5.72.4 9.6 1.58 14.67 1.55 7.34-.04 11.75 5.74 21.08 23.96l12.91 25.22-9.56 10.13c-12.36 13.1-6.4 19.9 14.94 17.02 23.71-3.19 29.55-11.92 21.74-32.5-10.6-27.98-9.24-32.29 5.77-18.29 18.58 17.33 19.38 29.55 3.63 55.72-9.48 15.76-16.9 22.45-26.52 23.93-17.65 2.71-16.02 9.6 3.48 14.76 19.73 5.23 40.51-7.07 34.92-20.67-4.38-10.68 1.68-16.03 9.75-8.6 4.27 3.93 5.36 11.23 3.61 24.06-2.78 20.38-5.17 23.24-31.38 37.54-9.95 5.43-18.64 12.73-19.3 16.23-1.44 7.58 17.4 6.17 20.86-1.57 1.3-2.9 6.72-5.86 12.05-6.58 22.21-2.99 32.88-18.79 38.03-44.63 12.63-63.42-20.32-120.37-101.85-127.38-5.2-.45-9.26.22-18.94-1.55 30.9-7.33 124.24-11.2 159.72 22.77 4.9 4.69 11.15 10.17 15.78 16.03 7.84 9.92-7.42 12.84-8.63 24.57-2.56 24.9.07 25 6.86 31.04 7.83 6.97 9.73 18.96 24.96 38.52 15.95 20.47 10.68 20.93 2.3 33.73-10.4 15.87-2.08 27.2 9.96 13.64 24.87-28.05 15.54-68.9 4.42-82.13-19.26-22.92-20.8-28.21-8.6-35.35 6.7-3.9 11.76-1.48 36.8 26.73 25.05 28.2 29.97 58.07 28.12 78.55-1.84 20.43-3.88 26.8-6.67 20.84-5.62-12.05-9.36-10.82-19.56 6.46-11.42 19.32-29.34 28.09-39.76 19.45-6.32-5.26-7.5-4.64-7.5 3.84 0 13.52 11.26 23.97 30.38 28.17 13.18 2.9 17.52 1.41 26.56-9.1 5.94-6.9 11.71-15.3 12.83-18.65 1.22-3.66 7.9-6.63 8.44-2.16 7.35 60.9-22.8 144.16-91.03 106.12-9.72-5.42-8.4-9.3 6.42-21.31 17.27-14 17.3-14.42 2.24-23.1-24.76-14.27-41.28-11.18-47.04 8.8-6.04 20.95.48 40.76 18.76 56.98 12.36 10.96 11.96 11.32-8.88 7.45-23.2-4.3-25.77-.5-16.82 24.92 5.66 16.1 14.56 16.84 46.6 3.93 51.61-20.8 71.41-24.98 77.04 4.7 3.4 17.93 1.56 18.86-17.52 8.9-7.8-4.07-14.6-5.08-16.26-2.42-1.55 2.52-6.85 4.58-11.76 4.58-4.9 0-11.44 3.02-14.5 6.72-7.3 8.8 3.23 17.97 22.33 19.43 16.68 1.29 21.65 15.54 6.77 19.43-5.57 1.46-21.7-1.6-35.85-6.82-59.54-16.13-97.6-15.81-137.29-1.77-14.38 5.1-20.16-38.57-74.22-11.98-20.73 10.2-41.8 22.9-64.96 29.48-33.49 9.5-64.1-8.74-61.31-29.53.85-6.4-1.56-13.16-5.38-15.02-10.37-5.07-34.96-2.6-35.78 3.6-.4 2.97-7.24 2.8-15.2-.36-8.4-3.34-14.83-3.17-15.3.38-.45 3.38-8.57 7.66-18.05 9.52-17.1 3.35-37.65-3.32-64.28-20.88-6.94-4.57-14.63-6.76-17.1-4.87-6.54 5 9.38 23.6 22.22 33.07 10.33 7.6 35.48 17.84 51.68 24.02 41.96 16 94.38 35.38 168.49 10.08 45.58-15.56 59.67-30.46 50.98-14.15-3.24 6.08-9.4 13.93-13.68 17.45-6.6 5.41 17.8 6.96 25.48 8.34 45.97 8.26 110.01-51.01 191.7-14.43 56.16 10.07 53.35 9.97 71.62 2.4 17.45-7.22 25.11-27.26 25.15-65.83.02-20.42-2.19-25.88-15.5-38.32-13.99-13.07-14.6-14.75-6.14-17.05 5.17-1.4 13.7-11.78 18.96-23.06 8.11-17.36 21.3-64.56 21.3-98.23 0-32.74 5.83-106.02-62.48-155.3-9.87-7.12-15.5-21.1-16.87-26.34-2.2-8.41-.67-9.13 13.16-6.13 41.42 8.96 50.93 8.9 54.5-.39 2.2-5.74.66-11.05-4.25-14.64-6.82-4.99-6.85-6.31-.32-11.74 8.35-6.92 5.57-14.83-5.2-14.83-3.97 0-9.58 6.08-12.47 13.51l-5.27 13.51-7.49-11.05c-6.06-8.93-12.1-11.05-31.46-11.05-20.82 0-21.4-2.46-21.4 6.21 0 14.56.5 32-19.04 14.82-11.1-9.76-50.26-28.7-62.27-29.78-5.95-.53-10.3-2.9-8.39-5.97 8.96-14.35 28.91-19.89 63.77-38.72 19.58-10.57 52.57-36.31 62.84-29.96 5.14 3.18 4.8 6.43-1.79 16.49-8.52 13-10.95 27.72-4.53 27.45 2.03-.1 7.74-3.23 12.7-7 5.68-4.3 15.23-5.82 25.8-4.1 15.26 2.48 16.76 1.64 16.76-9.35 0-13.23-8.64-30.93-24.2-37.02-13.67-5.36-22.53-.08-33.44-.65 3.67-7.27 7.07-12.64 13.55-20.3 67.07-79.24 78.98-233.55 19.72-309.24-8.53-10.9-16.87-20.2-16.87-22.09 0-1.88-5.79-11-12.87-20.29-10.56-13.84-11.77-18.2-6.77-24.24 3.36-4.04 11.22-7.36 17.47-7.36 8.73 0 11.71 3.12 12.9 13.51.92 7.98 4.54 13.51 8.86 13.51 8.44 0 12-13.03 7.95-29.16-2.38-9.5-6.96-11.63-30.14-14.02a137.8 137.8 0 0 0-10.58-.68c-24.39-.63-45.77 5.22-45.77 13.41 0 2.98 6.98 12.63 15.51 21.43 12.98 13.39 14.5 17.22 9.27 23.51-3.43 4.14-8.05 6.4-10.26 5.03-6.88-4.25-9.88 6.14-5.28 18.25 2.42 6.37 10.71 14.84 18.43 18.84 19.68 10.2 41.11 29.77 41.11 37.55 0 9-14.39 8.17-17.89-.95-1.56-4.05-7.53-7.37-13.27-7.37-6.3 0-9.42-9.87-12.89-14.93-17.82-25.9-44.44-46.28-62.1-52.98-15.1-5.73-17.89-15.48-20.08-19.12-3.73-6.2 2.03-12.78 3.78-18.12 4.04-12.35 25.82-18.54 7.4-25.43-3.3-1.23-6.57-1.44-9.58-1.4ZM208.44 35.63h.01c2.48-.05 4.74-.06 6.8.04 4.1.22 7.4.88 10.06 2.57 121.26 76.57 88.9 173.56 29.12 229.26-55.2 51.44-120.8 61.52-171.97 120.13-29.5-29.95-43.06-77.53-50.34-112.18l.19-.23c2.15-19.85 16.56-30.22 30.6-30.97 27.16-1.46 52.7 34.38 53.54 51.65.85 17.62-9.92 26.35-21.66 17.55-4.78-3.6-10.22-6.39-12.07-6.22-6.53.6-1.4 20.71 5.8 22.74 4.01 1.13 14.78.64 23.92-1.1 14.81-2.8 16.73-5.1 17.52-20.94.7-14.23 3.2-18.11 12.45-19.44 27.04-3.87 24.34-25.15-5.16-40.57-10.1-5.28-21.72-7.94-25.82-5.92-5.52 2.72-28.44-13.22-27.7-22.88.78-10.2 5.03-14.36 19.5-19.15 11.55-3.82 17.34-8.39 15.39-12.16-1.92-3.73-.52-4.96 3.65-3.2 3.72 1.56 6.76 6.07 6.74 10-.08 17.25.95 19.87 8.06 20.41 4.66.36 7.9-4.14 8.48-11.81.69-8.94 2.99-11.44 8.23-8.95 6.19 2.93 5.62 5.44-3.75 16.67L139 224.17l11.72 9.02c15.6 12.03 16 11.89 19.27-6.8 3.66-21.02 14.95-20.24 26.59 1.83 4.9 9.3 11.72 17.2 15.17 17.58 4.08.44 6.25-.76 6.55-3.42.67-5.84-7.66-18.78-24.18-36.99-20.9-23.03-28.86-28.28-49.28-32.48-13.4-2.76-30.16-6.38-37.27-8.06-7.1-1.67-18.03-.02-24.27 3.68-11.88 7.03-16.5 23.84-7.59 27.59 6.75 2.83-5 28.97-12.76 28.38-2.9-.23-29.63 7.1-36.65 18.58-6.3-43.6-4.96-84.42 14.71-123.99C47.2 106.67 56.7 98.52 59.4 99.43c2.7.92 4.7 10.86 4.43 22.1-.54 22.8.9 23.87 15.83 11.72 16.56-13.47 28.71-35.97 27.2-50.39C105.73 72.1 109 67.4 124.2 58c23.56-14.58 28.62-17.77 63.43-21.33 4.5-.46 8.74-.74 12.69-.82v-.01c2.95-.07 5.66-.16 8.14-.21Zm690.98 102.9c3.7.61 9.65 9.56 17.58 26.68 13.66 29.48 9.94 36.51-8.92 16.83-8.68-9.07-13.04-18.98-13.04-29.72 0-9.69 1.51-14.26 4.38-13.78Z"/></svg>