<?xml version="1.0" encoding="utf-8"?>
<svg version="1.0" xmlns="http://www.w3.org/2000/svg" xmlns:xlink="http://www.w3.org/1999/xlink" x="0px" y="0px" viewBox="0 0 1000 1000">
<path d="M968.8,969.5c-2,0,0-10,0-15.2c0-8.6,0-16.7-5-16.7c-11.1,0-18,28-39.2,38c-14.1,7.1-31.7,3-12.6-12.2
	c27.1-21.3,31.7-33.5,31.7-38.5c0-1,0-1-1-1c-2,0-7,3-16.1,9.1c-28.1,20.3-68.3,40.6-80.4,40.6c-7,0-10,0-10-2c0-2,4-7.1,12.1-17.2
	c8-10.1,12.1-16.2,12.1-19.3c0-5.1-7-5.1-25.1-5.1c-22.1,0-29.1,3-40.2,17.2c-9,11.2-21.1,17.2-34.2,17.2c-9,0-19.1-3-27.1-9.1
	c-14.1-10.1-37.2-15.2-62.3-15.2c-25.7,0-60.3,15.2-70.4,15.2c-2.8,0-5-0.6-5-4.1c0-5.1,2.9-8.2,14.1-18.3
	c14.1-12.7,33.2-44.6,42.2-56.8c8-10.1,15.1-24.3,18.1-24.3c1,0,2,1,2,2c2,5.1,5,15.2,10,15.2c4,0,10-2,16.1-5.1
	c7-4.1,10-11.2,10-20.3c0-11.2-5-24.3-15.1-33.5c-10-10.1-22.1-21.3-22.1-40.6c0-3,10-12.2,10-24.3c0-10.1-2-18.3-3-18.3
	c-6,2-29.6,38.5-29.6,64.9c0,5.7,6.5,20.5,6.5,26.4c0,36.6-28.1,82.8-49.7,97.4c5-11.7,17.6-39.6,17.6-71c0-66.5-27-121.8-59-172.1
	c20.7-10.5,37.7-16.6,46.9-16.6c2,0,6,10.1,7,23.3c1,13.2,4,24.3,6,25.4h2c4,0,11.1-2,20.1-4.1c11.1-3,19.1-5.1,19.1-13.2
	c0-9.6-32-35.5-27.1-40.1c5.1-4.8,19.5-12.7,36.3-21.1l63.2,149.4c13,30.7,23.1,49.7,23.1,76.1c0,19.3-86.1,41.8-91.5,42.6
	c-6,0.8-5,10.1,0,10.1h321.6c5,0,6-9.3,0-10.1c-58.7-8.3-132.3-54.1-152.8-100.4L749,592.1c32.6-12.3,66-21.7,89.7-21.7
	c8.4,0,16.6-0.3,16.6,5.6c0,8.3-23.1,29.2-23.1,32.5c0,17.1,40.7,41.2,40.7,59.3c0,12.2-10.6,23.8-22.6,23.8
	c-11.1,0-13.1-15.2-16.1-15.2c-2,0-2,14.3-2,16.2c0,6.1,9,15.2,24.1,15.2c45.2,0,40.5-46,42.2-50.7c1.7-4.8,17.1-9.1,17.1-33.5
	c0-6.1-4-9.1-8-10.1c-1,0-9-4.1-10-4.1c-4,0,2,12.2,2,16.2c0,4.1-2,7.1-7,7.1c-12.3,0-29.1-17.8-29.1-26.4
	c0-10.1,11.6-29.9,26.6-29.9c16.4,0,73.9,32.5,73.9,58.3c0,14.2-15.1,31.4-27.1,37.5c-7,3-10,14.2-10,26.4c0,13.2,4,27.4,12.1,28.4
	h1c5,0,15.1-7.1,22.1-15.2l15.1-17.2c1.4,13.4,4,26.6,4,40.6c0,32.5-30.2,66.9-53.3,66.9c-21.5,0-30.2-1.2-30.2-25.4
	c0-12.2-4-21.3-10-21.3c-4,0-6,3-6,9.1c0,36,24.2,58.8,41.2,58.8c46,0,78.4-60.1,77.4-126.8c-1.4-90.2-55.3-140-136.7-140
	c-15.1,0-25.1,4.1-25.1,1c0-9.6,85.9-93.8,92.5-93.8c5,0,3,18.8,3,25.9c0,6.1,3,9.1,7,9.1c27.2,0,29.9-47.4,47.2-64.9
	c7-7.1,12.1-16.2,12.1-20.3c0-3-1-5.1-3-5.1c-25.6,0-64.1,32.4-81.4,46.7c14.1-27.9,34.2-80.1,38.7-120.7
	c2.6-23.2-0.5-13.2,15.6-13.2c14.1,0,14.1-4.1,14.1-16.2c0-18,16.1-14.8,16.1-29.4c0-11.2-8-32.4-8-48.7c0-7.8,2-16.3,2-26.4
	c0-7.1-2-14.2-8-14.2c-15.1,0-20,16.5-21.1,49.7c0,14.2-2.5,40.2-3.5,44.1c-2.5,9.6-4.8,10.7-5.5,4.1c-3.5-33-28.1-77.6-28.1-82.7
	c0-14,41.2-46.2,41.2-57.8c0-17.7-41.2-43.9-41.2-66.9c0-18.2,11.5-37.5,30.2-37.5c17.7,0,20.4,32.5,32.2,32.5
	c7.7,0,10-13.1,10-27.4c0-17.5-10-42.6-22.1-42.6c-39.2,0-64.3,54.8-65.3,54.8c-2,0-5-36.5-18.1-36.5c-23.8,0-44.2,28.5-44.2,42.6
	c0,28.4,82.4,45.7,82.4,87.2c0,14.2-8,26.9-13.1,35.5c-2,3.5-2.6,12-6,4.6c-15.8-34.7-57.3-54.3-91.5-76.6
	c-23.1-15.2-46.2-37-46.2-48.7c0-4.1,3-6.1,7-6.1c6.2,0,9.3,9.1,17.1,9.1c3.7,0,6-1.5,6-6.1C806,45.6,788.9,0,780.9,0
	c-8,0-29.1,23.2-29.1,37.5c0,13.2,7.8,30.4,26.1,53.7l19.1,24.3c0,0-6-4.1-21.1-4.1c-30.1,0-46.7,12.7-82.4,14.7
	c-9,0.5-19.1-0.5-19.1-3.5c0-3,5-10.6,17.1-12.2c11.6-1.5,17.1-8.1,17.1-12.2c0-4.3-32.2-25.1-32.2-31.4c0-8.6,30.1-29.3,30.1-39.6
	c0-5.1-4-9.1-10-9.1c-26.1,0-63.8,24.8-63.8,50.2c0,15.9,31.7,38.7,31.7,46.1c0,1.9-21.1,13.2-25.1,13.2
	c-19.1-1-17.1-11.2-19.1-46.7c-1-21.3-5-40.6-10-42.6c-10.6-4.3-4.3-22.3-17.1-22.3c-11.8,0-7.8,25.4-15.6,25.4
	c-0.3,0-30.8-32.5-43.7-32.5c-8,0-15.1,4.1-15.1,11.2s7,11.2,16.1,11.2c39.8,0,45.7,117.6,103.5,117.6c17.5,0,50.7-15.2,78.4-15.2
	c2,0,10.6,1,10.6,1c0,1-16.6,11.3-26.6,19.3c-18.8,15-40.2,39.6-47.2,39.6c-15.2,0-39.1-16.1-52.3-24.3c4.8,13.6,16.6,22.6,16.6,37
	c0,23.3,16.6,28.9,28.6,28.9c7.3,0,14.9-4.8,21.1-7.1c7,0-2,19.3-2,54.8c0,59.8,51.3,133.9,121.6,133.9c51.8,0,68.3-28.4,68.3-80.1
	c0-20.3-20.1-35.5-20.1-43.6c0-3,5-3,14.1-3c9,0,17.1-3,17.1-14.2c0-26.4-16.1-46.6-41.2-64.9c-17.1-12.2-33.2-27.4-36.2-32.5
	c-2-3-3-4.1-4-4.1c-2,0-2,3-3,10.1c0,8.1-5,14.2-10,14.2c-7,0-10,3-10,6.1c0,17.2,63.3,27.4,63.3,47.7c0,8.1-6,12.2-16.1,12.2
	c-13.1,0-25.1-10.1-35.2-10.1c-13.1,0-37.2,16.2-37.2,27.4c0,7.1,3,12.2,8,12.2c3,0,23.6-2.5,18.6-0.5c-5.6,2.3-16.6,25.9-16.6,33
	c0,23.3,19.1,46.6,38.2,46.6c7,0,14.1-3,14.1-8.1c0-10.1-34.2-24.3-34.2-39.6c0-12.2,16.1-28.4,33.2-28.4
	c25.1,0,41.2,24.3,41.2,49.7c0,14.2-5.5,54.8-37.7,54.8c-78.4,0-118.1-50.7-118.1-127.8c0-27.4,5-54.8,17.1-54.8
	c9.8,0,10.6,16.2,21.1,16.2c9.3,0,14.1-8.7,14.1-16.2c0-11.2-11.1-24.3-26.1-24.3c-12.1,0-18.1,10.1-18.1,4.1
	c0-36.5,64.8-66.9,96.5-66.9c85.2,0,150.8,89.7,150.8,184.6c0,39-22.6,120.2-33.2,120.2c-5.7,0-7.4-52.2-11.1-52.2
	c-10.4,0-15.1,63-15.1,81.1c0,33.5-24.4,49.4-50.3,78.1c-11.1,13.2-24.1,21.3-34.2,21.3c-9,0-13.1-2-13.1-8.1c0-3,1-6.1,3-11.2
	c3-10.1,12.1-26.4,19.1-36.5c8-12.2,12.1-26.4,12.1-38.5c0-10.1-3-18.3-10-18.3c-6,0-14.1-3-21.1-7.1c-5-3-8-4.1-10-4.1
	c-1,0-2,0-2,1c0,3,3,6.1,8,8.1c5,1,8,10.1,8,19.3l-1,17.2l-12.1-14.2c-8-9.1-21.1-15.2-27.1-15.2c-2,0-3,1-3,2
	c0,5.6,15.1,12.2,15.1,28.4c0,4.1-3,6.1-10,6.1c-9,0-14.1,4.1-14.1,10.1c0,6.1,5,15.2,13.1,23.3c9,8.1,13.1,15.2,13.1,21.3
	c0,5.1,12.7,21.5,1,24.3c-3.3,0.8-10.6,3.5-20.1,7.2L519.6,73l-52.3,77.1c0,0,5,2.4-2,19.3L289.2,592.6l0,0
	c-24.5-24.4-44-52.4-44-54.1c0-3,14.1,5.1,28.1,5.1c13.3,0,28.1-8.1,28.1-19.3c0-19.3-1-48.7-16.1-48.7c-5,0-14.1,8.1-18.1,8.1
	c-4,0-4-10.1-4-12.2c0-19.3,30.1-32.5,42.2-32.5c9,0,30.1-7.1,30.1-11.2c0-3-14.1-2-28.1-2c-40.2,0-66.3,16.2-66.3,54.8
	c0,8.1,1,18.3,4,29.4c2,6.1-1,9.1-6,2c-9-12.2-18.1-25.4-18.1-41.6c0-41.6,34.2-67.9,34.2-71c0-3-11.1-6.1-15.1-6.1
	c-14.1,0-24.1,9.1-29.1,23.3c-5,14.2-7,30.4-12.1,30.4c-3,0-9-12.2-9-18.3c0-11.2,1.8-23.7,5-38.5c2.7-12.2,10-23.3,10-30.4
	c0-7.1-3-15.2-3-15.2c-7,0-15.1,34.5-17.1,42.6c-3,10.1-16.1,30.4-16.1,33.5c0,13.2,34.2,82.1,67.3,125.8
	c20.1,25.4,19.1,28.4-1,16.2C158.8,517.2,99.5,399.6,99.5,320.5c0-111.6,71.4-201.8,186.9-201.8c65.3,0,108.5,62.9,108.5,112.6
	c0,74-42.2,115.6-114.6,115.6c-24.1,0-37.2-12.2-37.2-36.5c0-18.3,5-32.5,19.1-32.5c19.1,0,27.1,9.1,27.1,30.4c0,9.1,2,13.2,6,13.2
	c5,0,25.1-24.3,25.1-34.5c0-8.1-17.1-10.1-17.1-22.3c0-13.2,17.1-13.2,17.1-22.3c0-7.1-10-12.2-16.1-12.2
	c-46.2,0-59.3,42.6-88.4,42.6c-7,0-9-5.1-9-21.3c0-23.3,13.1-37.5,34.2-37.5c10,0,25.1,4.1,31.2,4.1c9,0,19.1-11.2,19.1-22.3
	c0-6.1-9-8.1-9-13.2c0-9.1,22.1-20.3,22.1-31.4c0-11.2-16.1-19.3-28.1-19.3c-6,0-10,2-10,6.1c0,4.1,8,9.1,8,15.2
	c0,9.1-12.1,19.3-27.1,19.3c-16.1,0-49.2,35.5-49.2,52.7c0,10.1-5,18.3-13.1,18.3c-3,0-5-2-5-5.1c0-4.1-3-7.1-8-7.1
	c-11.1,0-16.1,21.3-16.1,42.6c0,21.3,5,42.6,15.1,45.6c12.1,0,32.2-12.2,40.2-12.2c3,0,5,2,5,5.1c0,16.2,43.2,49.7,60.3,49.7
	c11.1,0,20.1,3,20.1,5.1s1,2,3,2c75.4,0,106.5-69,106.5-128.8c0-57.8-16.1-82.1-46.2-106.5c-9-8.1-17.1-10.1-17.1-13.2
	c0-5.1,15.1-2,21.1-2c32.2,0,94.5-57.8,94.5-72c0-4.1,4-6.1,9-6.1c11.1,0,7,22.3,13.1,22.3c7,0,16.1-20.3,16.1-36.5
	c0-12.2-13.1-12.2-32.2-12.2c-23.1,0-21.1,35.5-34.2,35.5c-8,0-10-23.3-12.1-33.5c-14.1,12.2-28.1,26.4-36.2,45.6
	c-9,25.4-20.1,33.5-45.2,33.5c-14.1,0-21.1-1-21.1-4.1c0-3,7-9.1,21.1-18.3c20.1-14.2,30.2-33.5,30.2-48.7c0-14.2-8-24.3-25.1-24.3
	c-14.1,0-24.1,4.1-24.1,7.1c0,5.1,23.1,8.1,23.1,15.2c0,14.2-49.2,30.4-49.2,58.8c0,6.1,3,11.2,3,15.2c0,6.1-7,8.1-30.1,9.1
	c-19.1,2-42.2,6.1-54.3,12.2c-10,4.1-18.1,8.1-20.1,8.1c-1,0-1-1-1-1c0-8.1,30.1-48.7,37.2-50.7c5-2,7-8.1,7-16.2
	c0-23.3-21.1-57.8-43.2-57.8c-8,0-28.1,9.1-28.1,15.2c0,9.1,36.2,14.2,36.2,26.4c0,10.1-27.1,20.3-27.1,29.4c0,3,3,6.1,9,6.1
	c4,0,6,4.1,6,10.1c0,14.2-10,38.5-21.1,47.7c-7,5.1-17.1,10.1-24.1,10.1c-12.1,0-57.3,28.4-57.3,48.7c0,2,1,3,4,3c3,0,9-2,13.1-2
	c5,0,7,2,7,5.1c0,16.2-28.1,29.4-44.2,29.4c-15.1,0-18.1-7.1-18.1-30.4c0-28.4,70.3-77.1,70.3-101.4c0-9.1-7-43.6-10-43.6
	c-4,0-14.1,30.4-18.1,30.4c-3,0-6-7.1-6-22.3c0-14.2-4-26.4-8-27.4c-4-1-10-8.1-13.1-16.2c-3-8.1-10-14.2-17.1-14.2
	C20.1,4.1,0,33.5,0,55.8c0,11.2,7,22.3,19.1,22.3c8,0,22.1-17.2,25.1-17.2S55.3,72,55.3,85.2c0,49.7-37.2,95.3-37.2,116.6
	c0,29.4,30.1,59.8,54.3,59.8c6,0,9-5.1,13.1-5.1c1,0-1,80.1-17.1,80.1c-7,0-19.1-6.1-26.1-6.1c-15.1,0-27.1,16.2-27.1,40.6
	c0,22.3,14.1,39.6,30.2,39.6c18.1,0,14.1-39.6,26.1-39.6c7,0,58.3,108.5,67.3,118.7c19.1,24.3,14.1,23.3-14.1,9.1
	c-18.1-9.1-29.1-13.2-40.2-13.2c-40.2,0-77.4,37.5-77.4,73c0,22.3,15.1,39.6,38.2,39.6c6,0,13.1-8.1,13.1-12.2
	c0-14.2-18.1-25.4-18.1-34.5c0-9.1,15.1-21.3,24.1-21.3s19.1,20.3,31.2,20.3c7,0,23.1-33.5,34.2-33.5c24.1,0,111.6,64.9,111.6,71
	c0,4.1-14.1,5.1-21.1,5.1C99.5,593.3,5,655.1,5,746.4C5,817.4,36.2,859,93.5,859c38.2,0,68.3-36.5,68.3-77.1c0-6.1-1-10.1-4-10.1
	c-8,0-14.1,14.2-14.1,20.3c0,22.3-16.1,45.6-40.2,45.6c-14.1,0-29.1-4.1-29.1-8.1c0-3,12.1-7.1,20.1-10.1
	c10-5.1,23.1-22.3,23.1-30.4c0-4.1-4-5.1-8-5.1c-5,0-17.1,17.2-40.2,17.2c-8,0-31.2-25.4-31.2-38.5c0-5.1,4-10.1,12.1-10.1
	c7,0,20.1,7.1,25.1,7.1c3,0,16.1-7.1,16.1-11.2c0-5.1-15.1-22.3-14.1-45.6c1-51.7,23.1-78.1,65.3-78.1c7,0,10,12.2,10,17.2
	c0,23.3-43.2,31.4-43.2,45.6c0,15.2,7,31.4,19.1,31.4c6,0,12.1-7.1,16.1-7.1c9,0,8,7.1,8,16.2c0,8.1,5,14.2,13.1,14.2
	c14.1,0,31.2-19.3,31.2-32.5c0-4.1-3-11.2-4-11.2c-3,0-4,23.3-13.1,23.3c-8,0-21.1-6.1-21.1-21.3c0-8.1,6-8.1,6-18.3
	c0-7.1,23.1-12.2,23.1-31.4c0-25.4-19.1-21.3-19.1-26.4c0-12.2,43.2-22.3,84.4-22.3c6.9,0,17.1,3.8,28,9.3l0,0L197,814.4
	C171,877,134.1,886,74.4,894.5c-6,0.8-5,10.2,0,10.1h230.1c5,0,6-9.3,0-10.1c-19.9-2.8-69.3-16.8-69.3-42.6
	c0-19.3,5.3-36.8,22.1-76.1l58.1-143.3c12.3,8.8,21.3,16.8,21.3,19.6c0,2-6,6.1-7,7.1c-1,1-1,3-1,6.1c0,6.1,1,15.2,3,25.4
	c3,13.2,4,20.3,7,20.3s8-10.1,16.1-30.4c2-6.1,4-15.2,9-15.2c13.2,0,28.8,4.7,45.4,13c-36.6,44-67.5,85-67.5,126.9
	c0,7.1,4,23.3,0,23.3c-1,0-7-8.1-13.1-8.1c-5,0-7-7.1-7-10.1c0-7.1,5-4.1,5-14.2c0-8.1-9-16.2-16.1-24.3c-4-4.1-1-22.3-3-22.3
	c-2,0-9,10.1-9,25.4c0,13.2,8,28.4,8,39.6c0,23.3-16.1,19.3-16.1,40.6c0,12.2,15.1,25.4,27.1,25.4c14.1,0,20.6,8.1,20.6,12.2
	c1,3,46.2,57.8,46.2,59.8c0,4.1-31.7-10.1-47.7-10.1c-49.7,0-58.8,24.8-84.9,24.8c-4,0-5.5-3.5-8.5-4.6c-5-2-9-5.1-9-8.1
	c0-6.1-39.2-17.2-60.3-17.2c-8,0-12.1,3-12.1,8.1s5,11.2,13.1,17.2c9,6.1,13.1,9.1,13.1,12.2c0,2-4,4.1-12.1,5.1c-6,1-11.1,2-15.1,2
	c-17.1,0-26.1-8.1-26.1-24.3c0-14.2-2-19.3-12.1-19.3c-4,0-10,1-18.1,2c-6,1-9,3-9,6.1c0,2,2,5.1,4,8.1c2,3,3,6.1,3,9.1
	c0,9.1-8,18.3-19.1,18.3h-4c-5-1-17.1-13.2-25.1-26.4L40.2,930l-11.1,14.2c-4,5.1-7,8.1-8,8.1c-1,0-1-1-1-3c0-3,1-9.1,2-17.2
	c1-6.1,1-12.2,1-17.2c0-15.2-4-26.4-11.1-26.4c-1,0-2,1-3,1c-4,1-9,23.3-9,47.7c0,67.3,31,62.9,132.7,62.9
	c126.8-1.7,150.8-36.5,189.9-36.5c52.3,0,56.3,36.5,154.8,36.5c42.3,0,133.7-36.5,173.9-36.5c44,0,166.8,36.5,212.1,36.5
	c100,0,136.7-4.3,136.7-55.8c0-10.3-1.7-18.3-3-27.4C992.3,928.4,976.8,969.5,968.8,969.5z M668.5,612.4
	c-17,7.7-30.7,14.4-35.3,17.4c-3,2-8.5,5.1-10.6,5.1c-3,0,0-6.6-7-16.7c-7-11.2-21.6-20.8-28.6-24.8c-4-2-7-3-9-3c-2,0-2,1-2,3
	c0,3,1,7.1,3,13.2c3,11.2,10,23.3,14.1,27.4c1,1,7.5,3.5,7.5,4.6c0,4.1,2.4,1.3-10,6.6c-11.5,4.9-22.9,10.1-34.1,15.6
	c-17.5-26.5-35.9-51.6-51.9-76.4c3-4.3,8.9-17,15-31.6h123.8L668.5,612.4z M460.3,467.5c0-26.8,15.9-58.6,32.8-85
	c17.8,22.7,34.6,49.9,34.6,73.8c0,21.6-3.9,42.2-10.7,61.9h-47.2C463.8,501.6,460.3,484.8,460.3,467.5z M502,552.7L502,552.7
	c-2.6,4.9-5.3,9.8-8.1,14.7c-2.9-4.9-5.7-9.8-8.4-14.7l0,0H502z M495.4,596.8c15.7,23,32.6,46.1,48.4,70.2
	c-23.8,12.5-46.4,26.5-67,41.9c-14.5-10.8-29.9-21-45.8-30.8C453.5,649.2,476.8,622.1,495.4,596.8z M493.5,193.7l136.7,324.5h-97.3
	c3.7-10.4,6.3-18.9,6.6-22.9c10-12.2,19.4-34.9,19.4-50.1c0-5.1-3-10.1-8-17.2c-7-10.1-13.1-22.3-13.1-26.4c0-3-2-10.1-5-10.1
	c-1,0-3,5.1-4,5.1c-1,0,0,12.2,0,12.2c-5.3-12.5-15-26.5-26.2-40.2c15.9-22.8,30.2-39,30.2-39.9c0-1-2-6.6-3-6.6s-8,2.5-12.1,6.6
	c-4.4,4.4-14.1,15.3-24.7,28.6c-8.4-9.6-17.1-18.8-25-27c-4.2-4.4-10.6-9.6-12.6-9.6c-3.6,0-4.5,8.5-4.5,13.2
	c0,2.3,15.2,16.7,32.1,36.4c-11.7,15.7-22.7,32.8-27.1,45.7c-2.3,6.8-5.5,20.3-5.5,20.3l-6-19.3c-2.3-7.4-7-14.2-10-14.2
	c-6,0-20.1,33.5-20.1,56.8c0,20.3,17.1,38.5,32.2,46.6c3.7,2.1,5.1,7,6.3,12.2h-96.7L493.5,193.7z M376.9,647c-2-1,0,0,0-5.1
	c0-4.1,7-13.2,14.1-20.3c9-9.1,14.1-17.2,14.1-23.3c0-6.1-5-9.1-13.1-9.1c-12.5,0-22.7,7.2-28.1,19.3c-7,14.2-9.6,17.9-14.1,20.3
	c-5.3,2.9-16.8-3.1-28.4-10.9l26.4-65.1h119.7l0,0c5.5,9.6,11.4,19.2,17.7,28.7c-20.3,31.2-45.2,60.2-68.5,88
	C403.5,661.7,390.2,654.3,376.9,647z M376.9,922.9c-4,0-28.1-45.6-28.1-62.9c0-62.7,35.7-120.7,75.7-173.3
	c13.7,8.3,27.8,18.8,41.4,30.7c-54.7,43.8-92,97.4-92,156.8C373.9,898.5,382.9,922.9,376.9,922.9z M477.4,978.6
	c-5,0-18.1-2-18.1-4.1c0-3.3,13.5-17.2,19.1-17.2c5.2,0,24.1,10.3,24.1,14.2C502.5,976.1,485.2,978.6,477.4,978.6z M507.5,948.2
	c-18.1,0-28.1-25.2-28.1-39.6c0-3,0-10.1,5-10.1c7.9,0,20.5,10.1,28.1,10.1c13.2,0,18.1-10.1,18.1-27.4c0-23.3-15.6-46.1-15.6-46.1
	c-4,0-12.6,15.2-15.6,23.3c-3,8-17.4,21.3-24.1,21.3c-4,0-2-13.2-2-20.3c0-9.1,6-20.8,13.1-27.9c4-4.1,9-7.1,9-11.2
	c0-8.6-19.8-18.6-22.6-27.4c-3.5-11.2-7-20.8-10-20.8c-2,0-6.3,17-7,19.8c-5,18.8-17.1,18.8-17.1,34c0,7.1,10,8.6,13.1,13.7
	c8.6,13.9,12.6,36.5,15.1,48.7l-19.6-14.2L427.1,862c-1.4,10.5-7.5,12.8-7.5,23.8c0,15.2,9.5,33,19.6,33c5.3,0,13.4-8.9,17.6-8.6
	c7,0.5,6.5,10,6.5,18.8c0,13.5-7.4,30.4-20.1,30.4c-32.8,0-51.3-49.3-51.3-92.3c0-48.5,40.4-98.5,87.1-137.5
	c44.7,43.2,81.7,100.9,81.7,149.7C560.8,915.8,538.7,948.2,507.5,948.2z M546.7,959.4c-1,0-1-1-1-2c0-4.1,5-16.2,12.1-30.4
	c9-18.3,17.1-42.6,17.1-57.8c0-61.9-34.9-109.5-83.8-149.2c20.5-16.1,41.7-29.9,60.8-40.6c30.6,48.7,55.2,102,55.2,166.5
	C607,887.4,579.9,959.4,546.7,959.4z"/>
</svg>
