<svg viewBox="0 0 1000 1000"><path d="M951.057.023v.008c-6.417.61-9.963 11.62-13.957 28.908-8.905 38.55-20.193 1.025-63.604 2.847-50.532 2.121-66.701 69.33-40.196 91.138 14.823 12.196 29.892 11.152 51.95-3.592 11.224-7.503 12.096-9.9 6.036-16.347-8.934-9.505-18.62-9.62-27.356-.326-6.063 6.45-11.757 9.507-16.735-.729-21.135-43.458 30.783-64.86 67.879-42.61 7.945 4.766 8.995 15.823-.039 18.877-6.616 2.242-6.911 4.867-1.645 15.067 5.482 10.623 8.534 8.738 23.369 9.543 23.718 1.287 37.949 69.904 34.447 109.362 0 0-11.009-8.032-17.464-12.708-18.987-13.754-41.616-18.752-41.616-9.186 0 2.664 8.525 14.096 18.946 25.401 10.596 11.496 25.566 23.412 28.039 30.266-8.821 19.056-11.989 33.825-32.896 46.985 2.659-12.015.608-26.448-4.958-42.602-10.052-29.167-15.017-36.098-34.463-56.559-23.518-24.745-52.575-36.256-76.319-39.032-75.247-8.797-117.204 82.342-214.257 17.2-15.187-10.193-53.556-54.411-53.556-67.622 0-8.375 1.258-9.503 5.679-5.082 7.343 7.342 33.405 7.342 40.747 0 9.106-9.105 6.693-17.219-9.333-31.538-18.741-16.745-15.967-29.067 6.564-29.171 8.548-.041 18.69-2.057 22.53-4.485 5.885-3.721 5.191-6.315-4.414-16.54C594.284 6.69 589.647 5.442 561.934 6.043c-38.181.828-40.95 8.547-43.983 44.394-2.523 29.82-.161 69.194 23.57 95.04 50.048 54.503 93.61 84.736 161.158 72.192-3.592 29.965 2.698 62.611 29.591 78.011 23.848 13.657 36.198 9.997 45.286 1.071 13.364-13.126 17.631-14.957 24.167 2.358 3.3 8.744 8.721 14.181 14.074 14.136 18.024-.15 19.366-11.938 22.468-23.655 3.365-12.71-6.702-21.987-12.033-26.767-1.217-5.287 2.932-11.029 1.249-20.017-1.129-6.025-10.13-14.221-13.662-11.35-3.407 2.77 2.918 9.695-.233 17.006-5.774 13.43-18.176 13.275-13.019-.163 4.07-10.606-6.101-20.241-21.374-20.241-17.371 0-21.291 7.097-11.871 21.475 8.612 13.145 9.483 18.791 2.902 18.791-2.493 0-7.283 3.734-10.652 8.301-5.716 7.749-7.212 7.468-21.677-5.004-26.893-23.186-16.649-51.616-2.692-68.429 10.013-12.062 22.828-20.374 27.705-22.22 70.822-26.81 128.075 26.846 140.109 86.506 5.32 26.377-15.426 49.138-22.879 52.928-41.411 19.779-86.234 25.897-175.969 29.405-9.523.372-13.462-.896-8.658-12.088 2.964-6.906 9.238-16.396 13.941-21.08 6.559-6.533 7.419-10.618 3.701-17.565-7.689-14.368-33.918-31.661-53.261-35.114-24.174-4.316-23.559 5.75 1.218 19.9 21.434 12.241 13.241 38.282 6.618 44.906-6.575 6.575-12.994 16.306-28.784 22.445-4.44 1.726-9.723 3.169-15.331 4.577L497.555 73.061l-52.734 77.072s4.059 3.039-2.025 19.264l-81.852 194.969c-4.568-2.246-9.057-4.292-13.344-5.943-11.614-4.473-15.993-3.266-19.342-13.313-3.61-10.83-1.933-15.817 10.714-31.786 17.42-21.99 14.359-25.197-21.18-22.143-14.791 1.272-24.294 4.722-27.17 9.861-7.426 13.269-1.211 30.892 8.674 41.422 8.608 9.17 14.841 13.142 19.318 17.278-72.283.465-185.406-12.717-228.586-51.966 1.542-29.337 16.622-49.737 27.76-67.312 17.541-27.676 58.492-52.627 91.417-49.359 32.924 3.269 63.058 21.939 63.464 52.68.393 29.668-28.508 63.051-54.231 51.562-16.863-7.684-19.424-17.303-7.712-29.016 5.412-5.412 9.928-4.215 9.845-14.493-.087-11.047-13.69-10.83-23.787-1.513-6.975 6.436-12.992 22.48-19.435 21.646 14.285-52.787-6.693-23.456-21.987-29.691-12.065-4.919-17.596 16.669-14.454 35.091 3.786 22.192 16.408 37.876 42.229 30.886 17.915-4.85 23.899 7.099 38.963 5.819 46.444-3.944 60.221-37.864 64.782-71.571 2.055-15.182-3.027-26.583-11.125-35.766 68.588 12.908 144.497-12.144 175.72-86.057 11.179-26.464 22.851-41.635 17.457-70.439C464.92 28.811 438.19 9.45 419.047 7.627c-4.563-.435-14.399-.758-17.247 4.918 0 0-6.746 7.217-5.664 11.281 2.007 7.521 12.439 8.231 19.474 12.887 10.717 7.091 18.352 15.098 17.782 18.007-3.066 15.654-11.534 21.024-20.505 18.62-7.585-2.032-13.76-4.434-19.342-13.166-7.789-12.185-7.954 3.282-10.668 9.993-4.766 11.787-1.765 29.841 8.55 38.164 10.315 8.323 13.715 9.63 24.781 7.417 7.634-1.527 9.988 5.22 7.913 11.436-17.623 52.8-85.065 80.793-174.525 56.652-39.559-10.676-80.148-8.617-112.645 12.685-30.711 20.13-44.351 50.371-52.625 65.458-4.718 8.601-10.31 19.17-11.886 30.288-9.137-2.902-18.574-11.378-21.638-17.472 2.054-15.246 7.677-31.414 18.45-44.688 3.633-4.478 14.724-13.135 24.531-19.326 24.873-15.702 25.94-31.167-3.801-27.318-17.19 2.225-26.996 6.623-31.701 13.058-5.23 7.152-15.226 17.415-27.248 37.442C2.12 176.941 24.245 144.256 46.76 117.68c9.344-11.03 17.963-18.734 22.6-15.455 14.167 10.013 29.193 9.675 36.644-.822 4.069-5.732 6.834-13.788 6.152-17.907-1.605-9.68 31.138-22.842 44.153-17.712 13.109 5.166 24.846 33.364 14.64 44.96-5.305 6.027-8.757 5.448-21.979-3.484-8.522-5.757-10.577-19.63-17.689-14.446-5.828 4.248-9.202 13.889-9.202 26.107 0 17.107 2.028 20.138 17.658 26.293 20.232 7.969 33.861.053 42.47-8.557 19.751-19.75 18.721-40.132 15.99-54.883-4.356-23.52-13.57-51.401-73.41-50.345-9.729.172-17.43-.81-29.979-11.195C76.54 5.115 43.208-3.869 36.542 2.172c-2.223 2.015.82 8.15 11.823 11.615 12.21 3.843 21.154 17.32 12.779 22.01C58.07 37.52 39.63 24.59 31.654 21.654c-13.94-5.13-52.204-5.688-26.014 11.901 6.453 4.334 13.047 14.627 15.144 22.197 3.394 12.252 5.585 13.413 19.924 10.56 18.058-3.595 20.412-.24 7.533 10.977-32.03 27.899-51.606 56.037-52.066 121.412-.169 23.903 9.029 47.319 20.38 69.251-5.987 30.115-8.54 75.637 7.821 101.806 13.462 21.53 63.217 69.822 88.423 59.787 4.645-1.849 8.286-8.606 8.286-14.889 0-14.735 10.779-10.153 33.61-2.048 28.291 10.044 71.781 13.1 106.81 1.04 16.743-5.764 10.676 1.82-7.65 10.559-19.83 9.457-22.582 27.004-6.052 38.583 14.045 9.838 16.955 9.322 18.745-3.29 1.219-8.579 5.9-11.507 24.012-15.005 24.12-4.66 28.207-11.125 13.026-20.606-13.466-8.41-11.89-12.432 8.294-21.212 14.992-6.522 24.312-15.603 31.934-16.665l.349-.543c2.567.446 4.851 1.086 7.231 1.661L222.519 694.115c-4.961-6.688-10.833-12.774-18.481-17.759-10.069-6.563-8.398-19.909 4.678-25.867 21.179-9.65 12.214-22.732-11.948-17.425-9.668 2.123-14.097 5.957-14.097 12.196 0 10.514-8.233 11.531-20.133 2.498-10.204-7.745-10.496-18.026-1.032-36.325 7.041-13.617 6.893-14.167-5.043-18.705-6.766-2.572-13.893-4.686-15.842-4.686-1.947 0-9.303-6.009-16.339-13.353-9.713-10.139-16.966-18.989-13.764-35.572 6.627-34.328 24.511-63.665 51.167-63.766 42.117-.161 63.051 28.013 25.735 33.981-17.06 2.728-18.954 4.407-18.954 16.797 0 9.495 4.037 16.768 13.026 23.477 0 0 7.645 10.346 13.027 9.722 4.26-.494 4.383-5.225 8.278-9.854 4.56-5.419 8.293-12.68 8.293-16.145 0-11.342 9.288-12.379 23.066-2.568 7.44 5.299 14.881 8.278 16.541 6.618 7.556-7.555.196-19.96-27.41-52.137-31.139-36.294-45.134-27.484-74.45-20.497-34.918 8.323-46.143 44.177-53.424 79.004-2.352-12.411-4.415-37.938-7.449-45.527-14.067-35.199-37.393-52.276-46.845-52.276-12.714 0-19.497 6.853-19.497 19.699 0 11.364 2.963 15.179 16.006 20.629 22.052 9.214 24.981 19.874 9.814 35.705-6.802 7.101-14.063 20.073-16.137 28.83-2.075 8.758-4.575 18.909-5.548 22.561-.972 3.651 5.694 11.821 14.811 18.163 13.088 9.104 20.549 11.019 35.425 9.069 10.365-1.359 19.597-4.744 20.521-7.517 2.537-7.61 12.13-6.061 20.102 3.25 4.792 5.596 6.529 15.465 5.346 30.343-1.661 20.888-2.607 22.218-17.969 25.099-8.92 1.673-17.718.214-20.428.442-78.327 6.589-110.793 88.595-70.888 134.942 15.5 18.003 33.653 24.154 63.991 21.406 33.688-3.05 44.425-10.347 44.425-28.474 0-19.387-14.531-24.239-32.027-10.691-4.468 3.46-4.643 6.249-.66 11.048 7.643 9.209-7.23 14.022-22.22 7.192-13.814-6.294-18.185-15.568-14.415-30.591 2.73-10.873 10.046-15.849 39.716-27.007 18.267-6.869 19.928-18.472 5.912-41.461-5.201-8.529-10.448-14.781-9.466-17.387 1.358-3.603 6.366-3.275 14.136-4.981 12.5-2.745 66.389 5.705 66.389 10.412 0 1.001-5.326 7.57-11.839 14.594-13.934 15.027-14.984 22.703-3.554 25.99 4.559 1.311 12.02 3.927 16.58 5.804 6.498 2.676 8.307.993 8.426-7.759.045-3.766.244-5.723.597-6.827-1.047-8.99 6.711-9.923 6.711-9.923l.093.015c.694-.452 1.259-.848 2.289-1.45 3.138-1.836 5.084-4.814 12.561-2.204 5.096 1.778 9.935 8.217 14.826 16.797l-43.106 102.683c-26.366 62.872-63.886 72-123.715 80.113-6.085 1.014-5.07 11.155 0 10.14h232.217c5.07 0 5.07-9.126 0-10.14-20.282-2.028-69.973-16.228-69.973-42.593 0-19.267 5.073-36.507 22.313-76.056l6.672-16.316c7.042 12.553 14.804 23.695 24.036 29.218 5.844 3.495-1.835 10.778-7.999 10.288-11.477-.911-13.575 19.061-3.204 30.521 9.856 10.89 22.362 11.703 30.436 1.979 4.711-5.675 4.693-8.559-.078-14.322-3.292-3.973-5.05-9.048-3.049-10.164 18.849-10.513 29.353 4.033 62.075-.155 3.072 11.556 10.965 20.736 16.852 24.765 5.868 4.014 11.554 6.753 26.859 14.26l26.309 12.902-14.64 11.467c-10.368 8.114-13.919 14.222-12.165 20.932 2.904 11.105 14.181 12.033 27.146 2.227 12.921-9.773 27.616-8.651 42.757 3.258 10.969 8.628 12.588 12.721 10.357 26.464-4.23 26.076-21.971 41.286-22.127 18.97-.039-5.862-2.026-13.755-4.422-17.542-3.734-5.903-6.089-5.954-16.502-.38-15.498 8.295-15.501 20.556 0 30.708 14.899 9.759 13.613 14.122-2.816 20.156-19.841 7.287-55.297 9.904-71.409-11.801-10.5-14.145-10.876-32.914.505-36.526 15.291-4.854 10.887-11.847-7.464-11.847-12.51 0-24.282 1.061-31.166 14.205-9.624 18.377-32.694 37.883-62.02 19.303-4.848-3.072-3.523-14.888 1.761-21.77 6.749-8.789-9.388-10.011-12.065-10.908-25.885-8.672-42.002-.229-67.552 2.436-22.393 2.335-24.383 16.471-10.125 30.522 15.738 15.511 12.575 28.218-7.021 20.505-28.126-11.071-44.542-25.244-51.85-42.904-3.448-8.332-8.162-10.427-16.789-11.839-25.186-4.122-14.796 6.137-6.68 16.773 4.534 5.942 13.6 17.829 13.6 17.829-25.523-11.034-56.388-12.797-68.995-10.947-12.039 1.766-15.332.31-18.419 20.893-3.3 22.01 2.087 36.067 13.78 35.899 2.937-.043 12.562-6.44 21.382-14.214 17.598-15.511 31.227-17.715 45.93-7.417 5.278 3.697 22.269 11.011 37.76 16.246 24.459 8.268 63.528 15.035 72.952 6.587 10.376-9.299-16.08-37.498-4.539-52.307 8.997-11.545 18.517-8.376 29.568-8.713 7.634-.233-5.91 3.725 6.424 32.655 10.812 25.36 62.598 27.555 77.731 10.932 18.955-20.823 18.918-30.178 34.929-8.232 16.907 23.173 39.477 22.959 52.369 21.685 15.468-1.529 32.158-5.315 46.326-10.272 2.935 4.448 1.754 10.708 1.287 12.918-1.669 7.892 37.689 5.292 40.305-2.669 1.03-3.132-2.535-9.47-7.921-14.082-12.13-10.385-12.169-13.843-.326-35.937 7.328-13.672 9.473-26.723 9.473-57.629 0-29.102-8.172-49.827-23.267-60.578-18.669-13.296-42.129-34.706-42.129-40.398 11.729-6.733 21.958-13.184 29.684-21.111 8.862-9.094 15.603-17.984 17.697-17.984 2.094 0 3.81 7.337 3.81 16.301 0 17.849 4.592 23.173 16.153 18.736 5.304-2.035 7.525-9.05 7.525-23.702 0-11.444 1.796-20.808 3.996-20.808s10.197 5.343 17.767 11.871c6.74 8.185 14.865 9.943 26.72 16.649-.519 2.536-3.86 9.146-9.629 16.037-48.864 58.37-42.031 93.033-36.332 136.269 2.221 16.851 2.538 24.968 11.319 34.315 10.202 10.859 10.775 13.437 5.268 23.726-3.401 6.347-4.887 14.877-3.32 18.961 3.626 9.455 28.43 9.815 36.138.52 3.648-4.391 10.429-5.961 18.667-4.314 7.118 1.423 21.05-.803 30.956-4.942 9.907-4.139 21.889-7.518 26.627-7.518 10.977 0 16.534-8.75 9.822-15.462-3.724-3.721-3.709-6.918.086-11.483 6.557-7.9 18.209.245 18.209 12.732 0 11.949 13.518 21.449 27.891 19.605 17.494-2.244 22.213-7.4 29.032-31.755 4.302-15.365 8.161-21.025 13.616-19.978 9.629 1.849 10.787 23.206 2.165 39.824-3.52 6.784-6.393 14.111-6.393 16.285 0 6.413 67.362 1.327 91.65-6.92 12.299-4.175 24.512-7.588 27.131-7.588 2.62 0 11.594-4.792 19.955-10.645 8.361-5.853 16.039-11.125 17.061-11.723a308.316 308.316 0 0 0 21.25-9.674c.948-.364 1.665-.575 2.715-1.009 29.042-12.03 64.875 6.128 76.91 38.978 5.087 13.885 16.674 17.408 20.916 6.354 6.621-17.255-23.254-50.936-52.943-59.685-6.4-1.886-11.089-2.995-15.494-3.158-6.464-.239-12.575 1.697-22.414 6.013-7.752 2.57-19.085 6.89-35.239 13.67-4.665-5.62-4.821-8.749-.667-12.902 3.015-3.016 5.478-6.962 5.478-8.767 0-5.897-14.395-8.975-22.686-4.849-36.134 17.985-46.226 24.801-47.73 32.244-2.014 9.968-9.221 15.505-20.342 15.61-5.495.045-8.839-5.572-11.041-18.605-1.735-10.27-5.952-21.004-9.38-23.849-8.677-7.202-54.603-12.252-54.603-6.005 0 2.692-6.194 11.525-13.764 19.629-9.768 10.457-16.243 13.785-22.305 11.459-10.768-4.132-29.896-25.567-30.095-33.718-.103-4.311-2.483-4.848-7.929-1.8-4.277 2.395-11.732 3.313-16.572 2.048-10.459-2.735-11.954 6.057-1.699 9.993 10.91 4.186 8.72 28.364-3.554 39.234-11.263 9.976-43.32 14.876-47.978 7.34-1.514-2.45 3.561-11.055 11.273-19.125 18.936-19.815 14.822-30.123-11.257-28.217-15.81 1.156-19.807 3.354-20.979 11.575-1.91 13.399-21.759 17.419-31.709 6.424-8.866-9.797-5.294-21.711 11.173-37.287 9.194-8.697 18.004-11.514 38.924-12.436 14.871-.654 29.539-2.736 32.593-4.624 7.968-4.924-6.704-19.894-26.526-27.062-19.968-7.219-19.979-11.129.046-21.576 8.764-4.58 24.693-14.436 35.402-21.902 16.014-11.166 22.447-13.017 36.208-10.435 15.112 2.835 16.443 4.316 13.694 15.269-3.512 13.994 3.541 20.408 22.593 20.513 13.553.075 21.862-12.436 13.685-20.614-7.43-7.429-13.673-25.177-.985-28.481 11.177-2.91 22.487-7.88 33.61-14.183l.031.078c12.169 31.437 23.321 49.69 23.321 76.056 0 19.268-87.208 42.593-92.278 42.593-6.085 1.014-5.071 10.14 0 10.14h324.503c5.07 0 5.07-9.126 0-10.14-59.83-8.113-133.854-53.747-154.136-100.394l-32.95-73.899c16.702-17.5 29.979-34.466 37.45-46.03 5.894 1.86 7.646.345 5.066 13.236-1.546 7.735-1.558 17.316-.047 21.304 1.53 3.988 7.387 7.254 13.019 7.254 8.973 0 9.905-1.906 7.448-15.392-1.541-8.467-4.097-19.752-5.664-25.076-1.311-4.451-4.837-5.201.73-11.335 9.641 1.508 32.358-1.159 38.047.008 22.145 4.529 24.317 7.439 21.856 29.28-2.877 25.522 10.447 45.959 24.749 37.955 5.639-3.154 13.234-3.332 21.367-.497 10.172 3.546 13.697 9.071 18.185 28.512 6.549 28.374 2.131 37.07-18.822 37.07-11.065 0-13.631-2.049-13.631-10.893 0-12.866-8.184-22.267-19.388-22.267-12.851 0-14.29 12.929-3.701 33.245 8.464 16.238 12.043 18.209 25.572 18.861 21.912 1.055 46.332-13.701 54.704-31.266 18.193-38.167 3.09-86.628-23.779-110.03-15.62-13.605-24.362-19.536-46.411-23.873-11.105-2.185-22.251-3.117-31.701-2.979-8.285.12-21.502 1.783-32.136 4.081 12.994-12.113 24.795-14.408 29.172-39.793 1.233-7.148-.311-20.956-5.376-26.534-9.2-10.13-4.342-10.284 7.556-22.251 5.474-5.506 24.269-33.601 26.759-5.416 1.474 16.675 50.188 49.422 48.164 27.155-1.37-15.062 16.648-12.772 19.924-16.743 4.581-5.554-5.683-21.776-10.552-33.78-4.51-11.12-30.875-13.017-31.995-31.297 13.534-20.015 20.769-21.72 27.527-27.271 3.257-2.674 11.226-5.601 17.712-6.502 6.907-.96 12.489-5.286 13.479-10.435 2.03-10.652-4.518-16.45-19.135-18.628-14.617-2.179-16.604 3.349-24.617 14.912-9.028 13.028-34.983 27.952-41.803 46.675-1.057-21.647-10.438-37.64-26.347-47.063-24.451-14.483-52.202-32.365-117.323 3.639-8.572 4.739-21.882 8.45-25.874 9.876-3.992 1.427-6.063 5.907-4.617 9.954 1.446 4.046 7.931 5.455 14.423 3.135 8.576-3.064 13.982 3.454 13.981 17.588 0 14.319 1.671 18.807 6.346 17.014 3.492-1.341 7.739-5.392 13.756-.869 6.616 4.972 16.803 2.046 21.514-4.337 3.638-4.928.454-16.121-6.09-20.924-5.77-4.235-11.877-7.72-11.847-10.552.349-32.624 45.556-38.298 70.811-17.154 34.111 28.559 32.64 58.479 12.033 78.454-15.374 14.903-33.479 26.877-35.107 37.341-1.329 8.543 2.227 18.426 12.739 30.646 6.531 7.591 6.474 9.291-1.598 18.946-11.512 13.769-21.443 13.553-26.084 15.967-4.403-.988-3.036-6.153-.907-22.027 1.995-14.871.668-18.805-7.875-23.376-13.392-7.167-33.628-4.562-39.677 5.105-7.618 12.174-.472 23.151 15.075 23.151 13.232 0 13.859.919 12.933 18.946-.536 10.422-4.408 20.828-6.656 24.633-5.824 10.887-13.158 21.571-21.708 31.872l-145.75-326.909c5.246.032 10.42.199 15.439.528 20.077 1.315 37.083 3.475 53.96 13.546l-9.465 7.045c-9.289 6.91-9.17 7.374 6.447 23.554 8.76 9.075 14.638 18.585 13.057 21.142-4.628 7.49 10.81 10.757 20.94 4.43 10.051-6.276 12.118-15.423 4.547-20.102-2.605-1.61-4.733-5.765-4.733-9.233 0-4.72 9.921-6.388 39.444-6.633 21.696-.18 47.808-1.467 55.411-2.095 15.293-1.261 36.084-2.961 39.924 2.522 4.086 5.834 10.1 10.454 13.298 10.908 107.662 15.296 144.955-131.144 113.366-184.324-5.876-9.891-6.688-7.183-3.801-27.108 5.8-40.019-10.188-83.712-21.119-122.708-2.605-9.292.155-14.85 13.05-25.75 21.799-18.425 21.869-31.088.217-31.088-13.741 0-16.725-2.182-19.45-14.213-2.19-9.712-6.075-14.389-10.156-14.865a6.011 6.011 0 0 0-1.265-.016Zm-266.23 23.981c-37.05 0-67.925 30.875-67.925 67.926 0 37.05 30.875 67.932 67.925 67.932 37.051 0 67.925-30.882 67.925-67.932 0-37.051-30.874-67.926-67.925-67.926ZM300.902 26.48c-37.051 0-67.925 30.874-67.925 67.924 0 37.051 30.874 67.925 67.925 67.925 37.05 0 67.925-30.874 67.925-67.925 0-37.05-30.875-67.924-67.925-67.924Zm170.289 167.255 79.136 186.202c-7.224 3.97-14.389 8.431-21.273 14.144-8.612 7.147-15.909 13.359-21.336 23.353-4.805-3.775-8.171-6.603-10.707-8.387-6.912-4.861-11.146-9.031-11.086-10.381.059-1.352 6.982-5.65 15.392-9.558 14.099-6.551 15.219-8.715 14.338-27.822-.584-12.66-.532-17.276 1.42-16.502L506.5 321.346c.865 9.501-1.134 16.325-7.091 28.691-5.334 11.072-10.314 20.125-11.071 20.125-.756 0-1.517-15.156-1.692-33.687-.175-18.531-1.227-34.604-2.343-35.72-1.115-1.115-8.691 3.573-16.828 10.42-13.297 11.188-14.487 14.322-11.824 30.979 2.427 15.178 1.566 18.535-4.748 18.535-4.24 0-7.712-2.127-7.712-4.733 0-8.34-11.722-5.067-18.03 5.035-9.967 15.959-2.92 28.117 16.3 28.117h16.588c-1.497 9.659-10.472 19.191-19.714 29.94-10.917-10.921-28.723-24.848-47.66-37.248l80.516-188.065Zm202.425 84.59c2.873-.306 9.096 1.14 10.854 2.01 3.366 1.665 6.455 3.071 9.636 9.015 2.705 5.053 3.312 10.106 1.35 11.234-2.468 1.419-7.021-6.756-12.351-12.188-5.33-5.432-15.044-9.481-9.489-10.071Zm295.402.854c1.972 48.477-18.798 85.501-76.653 110.301l2.847-13.212c2.305-10.708.757-14.161-8.146-18.248-13.573-6.231-19.928-4.319-19.148 5.346 1.976 24.446-41.05 24.015-72.96 25.501-46.078 2.146-69.746-8.833-78.864-13.755-5.426-2.928-6.819-8.685 13.119-7.836 55.551 2.364 127.452-10.338 182.641-38.094 30.461-15.32 47.504-31.674 57.164-50.003Zm-917.976 27.17c6.77 4.88 12.355 8.087 21.204 15.687 3.594 28.444 10.52 40.731 20.513 57.599-4.32 0-24.146-22.255-35.06-39.653-7.031-11.208-6.528-24.524-6.657-33.633Zm39.304 24.028c55.447 38.039 155.686 53.532 222.721 49.079-27.36 12.849-63.036 20.302-91.906 21.608-46.169 2.089-87.929-11.639-104.18-26.751-14.535-13.518-25.373-30.386-26.635-43.936Zm386.028 39.785c2.605 0 4.733 2.135 4.733 4.74a4.744 4.744 0 0 1-4.733 4.733 4.745 4.745 0 0 1-4.733-4.733c0-2.605 2.128-4.74 4.733-4.74Zm80.408 24.959 52.323 123.118H493.9c-3.789-12.62-7.322-21.5-8.58-26.441-2.228-8.748 20.874-43.348 23.539-49.816 4.321 3.685 13.506 7.88 14.306 14.578.83 6.956 5.193 17.469 9.225 13.693 8.8-8.244 18.556-13.442 29.428-15.09 4.694-.711-8.222-9.524-20.382-14.539-11.723-4.834-21.313-10.308-21.312-12.165 0-1.857 5.141-8.128 12.336-14.811 8.214-7.63 16.308-13.491 24.322-18.527Zm-173.99 5.097c10.337 6.622 17.32 13.743 22.049 18.387 9.916 9.734 23.654 17.876 1.242 17.876-11.074 0-18.378 2.309-18.714 5.919-.301 3.257-1.187 10.191-1.97 15.401-1.98 13.186 23.099 8.63 33.353-.326 8.201-7.163 12.647-8.343 17.255-12.049 13.134 7.894 28.131 32.966 26.076 46.83a6633.308 6633.308 0 0 0-3.802 25.983h-126.02l50.531-118.021Zm89.191 5.136a3.514 3.514 0 0 1 2.327.186c1.016.443 2.015 1.376 3.049 2.871 7.533 10.884 9.722 13.345 18.59 23.717-6.497 11.317-13.766 22.109-21.142 32.857-7.004-11.978-12.704-22.092-24.098-35.091 3.295-4.166 7.914-10.197 12.864-16.657 3.393-4.429 6.022-7.289 8.41-7.883ZM324.146 552.717h129.558c-.76 5.962-1.453 10.683-2.242 17.372-6.868-3.373-12.816-1.244-22.95-3.073-13.074-2.36-16.344 3.214-3.475 19.575 7.219 9.177 7.159 13.409 16.525 9.853 7.836-2.975 8.68 8.267 8.03 25.672-.61 16.298 9.859 54.39 15.688 63.286 0 11.545-1.904 11.686-19.35 1.381-18.279-10.799-25.372-4.075-17.999 17.076 5.419 15.546 7.175 13.492 29.063 7.627 10.643-2.851 9.181 8.654-10.28 29.071-32.102 33.677-45.348 38.506-53.021 18.48-15.459-40.349-20.721-59.917-20.661-72.394.075-16.445 11.156-41.649 21.724-42.159 31.835-1.539 38.84-5.422 31.312-17.356-14.877-23.587-54.441-35.8-57.575-17.774-3.716 21.375-5.857 23.396-13.375 12.662-9.762-13.936-16.107-13.001-36.791 5.4-22.746 20.236-20.136 33.008 5.897 28.845 14.99-2.397 18.181-1.236 22.887 8.317 16.266 28.354 10.004 46.073 25.013 83.621 8.894 22.249 19.27 29.801 9.31 32.368-1.637.422-5.742 2.741-8.425 2.963-9.336-12.54-10.507-22.198-17.573-34.439-8.991-15.571-26.569-37.139-31.391-27.861-10.332 19.878-1.655 34.192 1.979 43.114 3.719 9.127 9.826 22.705 10.163 26.728-3.39 1.653-24.339-2.65-31.033-4.539-32.059-9.049-46.646-27.208-57.498-46.838l76.49-186.978Zm147.899 0h11.296c7.19 34.817 9.718 90.341 6.657 115.787-.908 7.544-5.679 10.527-7.278 5.997-19.43-55.076-17.27-88.049-10.675-121.784Zm29.761 0h120.481l87.592 205.009c-10.354 6.031-21.153 11.668-32.624 16.518-13.389 5.661-39.875 9.292-43.532 7.649 4.048-4.881 1.57-.445 7.804-10.675 7.356-12.069 9.039-20.668 9.481-36.969.274-10.073-13.087-37.264-17.65-37.264-5.891 0-21.469 23.192-24.106 32.244-4.904 16.83-7.702 27.081-15.415 41.236-15.584-5.088-25.379-9.364-31.95-13.872 9.777-19.314 17.139-24.918 23.407-45.402 9.064-29.62 5.722-49.949 3.942-58.468-2.927-14.008 8.338-18.914 24.493-19.357 17.598-.483 19.09-19.622 2.134-27.348-11.413-5.2-13.687-4.597-22.127 5.826l-9.404 11.615-10.349-12.965c-5.689-7.135-14.816-12.972-20.281-12.972-12.496 0-25.509 19.227-22.026 32.547 3.05 11.663 2.202 11.391 17.309 5.648 12.717-4.836 24.982 3.88 26.239 15.432 6.215 57.105-6.954 61.399-27.829 98.694-6.062-.101-12.395-9.458-21.088-12.778-22.7-8.67-31.066-19.929-17.875-24.066 29.79-9.342 34.538-14.978 25.145-29.816-3.579-5.654-5.448-5.46-12.103 1.195-4.331 4.33-11.164 7.875-15.176 7.875-5.996 0-6.566-3.165-3.212-17.767 2.244-9.769 2.64-27.356 2.01-45.922-1.146-33.701.183-28.405 13.717-31.111 8.784-1.757 14.534-6.466 16.339-13.368 3.673-14.049-3.665-22.179-17.612-19.513-10.96 2.095-14.012-1.288-15.323-9.768-.12-.778-.287-1.323-.411-2.087ZM928.519 671.22c4.247.343 8.651 1.722 8.651 1.722 16.958 3.256 37.201 22.967 37.201 30.118 0 9.974-4.994 7.647-31.879-16.044-11.073-9.757-23.831-8.418-21.46-13.585.555-1.21 1.844-1.845 3.461-2.118 1.213-.204 2.609-.207 4.026-.093ZM64.185 689.204c7.437-.166 17.104 1.1 15.804 7.96-2.727 14.384-20.185 14.798-30.274 27.658-10.483 13.364-29.535 52.856-30.537 10.001-.432-18.519 20.438-42.458 38.8-45.131 1.495-.218 3.728-.433 6.207-.488Zm487.197 81.354c7.876 6.543 14.646 11.253 27.682 14.842-4.348 7.608-33.744 26.78-38.295 27.946-8.398 2.107-13.966 1.28-16.588-2.273 8.66-14.757 17.855-27.567 27.201-40.515Zm-152.445 20.808c8.181 9.252 19.09 22.266 30.491 32.291 5.094 4.479-10.55 3.589-27.511-8.402-9.819-6.942-19.257-14.697-19.854-18.07 5.925-1.386 11.913-3.815 16.874-5.819Z"/></svg>
