<svg viewBox="0 0 1000 1000"><path d="M293.09.25c-3.86.07-8.55.73-14.45 2.38-11.26 3.14-14.33 6.22-3.43 17.82 16.32 17.37 15.08 12.31-14.82 3.85C122.42-14.77 84.21 53.94 54.24 91.85c-3.1-7.38-8.07-29.34-1.99-41.27 14.61-28.68 52.9-56.05 4.94-38.33-18.57 6.86-43.34-4.51-41.77 25.07 1.04 19.66-.17 24.47-6.15 24.47-9.18 0-9.19.87-.13 22.55 5.72 13.69 12.4 20.95 11.63 10.54-.43-5.73 5.8-5.5 9.3-2 6.03 6.04-.67 62.87-7.96 67.56-6.54 4.2-12.51 24.3-7.22 24.38 7.58.12 23.72 80.18 53.18 113.12 0 7.59-19.94 6.3-37.4-2.4-14.02-7-15.88-6.98-23.9.27-8.4 7.6-8.33 8.22 1.95 18.5 6.96 6.96 20.08 9.3 32.22 15.42 39.78 20.04 46.88-4.29 56.35 1.12 23.58 13.46 80.74 81.66 86.84 115.68 1.98 11.04.29 10.78-17.16-6.67-10.81-10.8-23-18.46-29.4-18.46-13.2 0-31.65-16.1-31.65-27.62 0-4.59-3.19-10.37-5.68-14.01-22.4-32.82-70.97 8.74-80.1 23.24-2.85 4.5-9.03 10.36-8.9 27.86.1 14.3-1.17 35.56-2.85 47.21-2.6 18.18-2.06 20.37 3.83 15.48 3.78-3.13 12.78-17.37 20-31.64 7.22-14.27 15.57-27.9 18.57-30.31 11.2-9 34.94-10.87 50.93-3.63 16.04 7.26 38.53 9 48.46 23.8 7.56 11.26 7.26 11.65-9.28 17.11-15.62 5.15-17.85 4.62-30.25-7.27-12.45-11.92-14.58-12.43-30.45-7.19-12.61 4.16-18.9 10.01-24.07 22.37-3.85 9.2-6.99 17.82-6.99 19.15 0 1.32 9.05 1.22 20.1-.23l20.12-2.64-14.2 11.46c-7.8 6.3-16.85 11.45-20.1 11.48-7.56.03-20.82 13.35-28.32 28.47a187.74 187.74 0 0 1-13.54 22.33c-7.36 10.12-7.15 10.77 4.97 15.38 20.59 7.83 30.82 5.82 35.7-7.01 5.7-14.98 13.18-15.17 16.87-.45 4.13 16.45 38.43 23.34 54.47 10.94 10.22-7.9 14.87-27.05 6.57-27.05-3.5 0-7.65 2.06-9.2 4.58-4.1 6.63-40.65 2.48-45.62-5.19-7.47-11.51-2.19-24.83 14.23-35.87 13.25-8.9 20.22-10.33 40.22-8.22 29.96 3.16 39.33-1.8 31.4-16.6-4.67-8.74-4.16-11.52 3.07-16.91 7.56-5.64 9.64-5.17 16.46 3.66 17.22 22.34 23.74 68.8 11.12 79.28-3.9 3.24-7.02 9.22-7.1 13.28-.22 11.17-6.63 14.82-11.7 20.2-14.2 15.13-11.83 43.82 2.27 58.82 6.24 6.64 14 10.67 17.48 9.72 18.29-4.99 9.45 41.4-5.9 73.49-.78.22-1.58.37-2.37.6l-47.84 14.3c-16.2 4.85-17.1-.75-1.9-17.13 8.65-9.34 14.51-19.89 14.53-40.25.06-62.29-78.93-88.24-121.27-61.91C1.62 651.92-3.62 663 2.02 683.4 5.6 696.37 9.36 700.73 17.2 701c5.73.2 14.28 1.1 19 1.99 12.96 2.46 15.2-10.92 3.85-23.01-5.53-5.9-10.06-15.36-10.06-21.05 0-8.3 2.81-9.28 13.98-10.34 36.88-3.51 39.43 14.7 51.55 41.33 12.27 26.97 22.24 21.7 17.7 3.62-3.19-12.7 1.28-15.33 10.46-6.15 7.58 7.57 6.92 27.06-1.42 41.64-3.72 6.5-6.84 16.28-6.93 21.73-.1 5.93-4.9 18.96-21.05 32.39-52.6 43.73-41.97 67.28-57.65 80.18C15.14 881 20.5 914.58 26.29 939.6c9.8 42.43 25.29 51.95 73.44 45.13 30.74-4.36 49.82-13.86 59.91-29.86 3.54-5.6 3.47-9.44-.24-13.14-3.81-3.82-12.2-1.43-30.84 9.22-18.6 10.64-45.66 12.77-54.05-2.59a130.8 130.8 0 0 1-14.26-42.31c14.32-60.94 98.12-62.01 138.19-152.98a186.4 186.4 0 0 1 44.2-5.05c0 7.15.03 13.1.03 20.31.04 73.36-81.36 109.58-120.52 132.67-11.21 6.6 18.37 7.95 24.02 7.95h203.57c-1.28.47-5.74 2-5.74 2l-.36.02c-4.12 2.98-11.64 7.2-20.56 11.29-19.45 8.92-27.68 10.27-43.77 7.2-25.05-4.79-40.47-3-49.17 5.7-3.75 3.74-8.8 6.82-11.21 6.82-2.42 0-4.4 3.19-4.4 7.1 0 4.93 4.97 7.09 16.29 7.09 8.95 0 17.53 2.02 19.06 4.5 5.1 8.25-17.17 15.61-38.42 12.7-21.66-2.97-25.49.87-13.15 13.21 15.83 15.83 60.84 3.97 99.13-26.11 15.67-12.32 41.22-28.15 56.78-35.19 14.36-6.5 23.5-12.19 40.76-16.33h78.2c9.9 0 35.6-.7 66.55-1.33-4.36 3.57-9.58 12.31-10.8 17.17-5.75 22.91-37.56 29.02-77.57 14.9-27.97-9.86-56.5-10.11-76.43-.66-18.88 8.96-64.43 48.43-60.47 52.4 4.63 4.63 48.75-13 56.51-22.6 10.8-13.32 32.84-7.66 32.84 8.44 0 6.3 2.55 13.05 5.68 14.98 7.59 4.69 40.9 2.5 51.96-3.42 8.06-4.31 8.17-5.37 1.3-12.24-10.76-10.77-2.06-16.81 15.43-10.71 25.93 9.04 49.17-.93 67.27-28.87 8.54-13.18 16.66-22.84 18.04-21.47 6.63 6.64 3.2 45.5-15.33 55.54-18.88 10.22-31.57 16.52-27.91 22.94 2.5 4.4 15.18 0 15.18 0 8.35 0 20.29-3.8 25.05-8.07 3.7-3.33 8.1-12.52 9.37-15.45 1.23 2.79 6.77 14.6 11.35 17.9 5.25 3.77 30.82 8.21 30.77 2.08-.03-1.96-7.66-8.75-16.97-15.1-14.68-10-16.57-13.39-14.16-25.43 1.52-7.64 2.77-16.82 2.77-20.4 0-13.18 9.52-5.74 30.76 24.01 11.98 16.79 27.98 32.8 47.54 33.7 40.45 1.87 94.53-1.8 119.65-55.27 1.05-2.24-2.72-4.21-7.96-4.21-5.52 0-10.87 4.17-12.69 9.9-4.08 12.86-32.33 24.64-49.86 20.79-12.05-2.65-12.9-4-7.79-12.25 4.67-7.53 4.42-10.09-1.31-13.66-3.89-2.41-11.34-3.53-16.57-2.48-45.81 9.22-72.1-.96-80.93-16.11-1.4-2.41-3.2-4.8-4.74-7.2 54.08-.27 118.03.63 179.83 5.17 37.92 2.79 34.6-2.03 40.94-13.24 9.46-16.73 34.27-86.18 57.13-151.16 12.49 9.72 22.15 21.34 27.8 34.75 4.62 10.98 9.43 20.1 9.43 20.83 0 .73-7.46 8.77-16.57 17.88-20.03 20.03-22.14 32.66-4.73 28.29 15.47-3.89 15.01 2.15-1.18 15.6-12.7 10.54-12.79 10.97-3.83 17.92 12.83 9.93 34.42 8.87 48.76-2.41 14.32-11.27 19.09-8.83 11.66 5.99-2.93 5.85-5.95 15.95-6.7 22.46-1.3 11.15-3.02 11.83-29.78 11.83-23.27 0-30.34 1.96-39.21 10.82-13.35 13.35 1.5 18.66 24.18 22.73 28.93 5.2 35.53 8.3 5.32 21.9-20.76 9.35-63.63-6.81-63.63-30.42 0-13.34 14.15-32.12 24.2-32.12 12.07 0 11.22-8.63-1.2-14.05-26.17-11.43-52.83 43.66-49.03 62.43 1.84 9.12 7.5 11.25 11.94 17.65 16.66 24.06 42.65 23.37 34.12 14.7-5.64-5.72-6.4-12.4 6.08-6.8 12.15 5.45 46.13 9.3 75.18-12.64 16.99-.14 12.42 16.9 28.65 2.08 5.86-5.36 6.25-9.22 2.45-13.8-3.79-4.56-2.88-15.31 5.11-39.99 29.16-89.98-33.8-148.38-78.4-180.47 10.28-3.2 40.89 9.46 55.66 23.28 10.95 10.25 15.07 11.48 25.82 7.7 9.79-3.44 13.7-8.88 16.67-23.18 5.76-27.75 1.9-33.7-14.39-22.1-14.98 10.66-64.48 8.12-55.06 4.72 2.9-1.04 9.4-5.14 17.5-10.3 56.35-35.98 53.22-99.75 20.22-132.9-25.98-26.11-68.94-35.02-72.72-15.21-1.43 7.53.29 8.42 11.06 5.71 18.75-4.7 26.04 4.02 26.04 31.22 0 29.76 6.7 45.13 22.07 41.7 14.24-3.18 23.25 8.5 17.01 24.72-11.3 29.36-40.46 40.48-66.52 47.11-3.7.94-9.86.63-16.05-.11 6.1-17.42 13.51-38.24 18.23-51.66-7.02 10.66-18.65 28.77-32.6 49-1.87-.5-3.83-1-4.9-1.46-76.55-32.97-160.5-30.42-253.7 14.35 49.36-38.08 82.5-65.95 108.94-107.96 12.86-20.45 15.93-21.2 19.9-6.06 1.79 6.87-.48 13.95-6.55 20.42-5.12 5.44-11.3 8.99-9.3 13.13 1.56 3.21 11.75 1.63 25.91 3.25 25.6 2.93 31.08 1.5 41.4-17.65 19.48-36.13 29.58-52.72 61-43.73 17.92 5.12 29.25 18.15 23.06 32.64-15.23 35.63-3.7 33.65 2.44 28.74 9.62-7.7 18.12-23.34 11.1-44.65-9.47-28.77-26.2-46.02-43.74-45.08-21.5 1.15-26.53.32-26.53-4.4 0-2.31 5.32-5.55 11.83-7.18 13.29-3.33 14.94-10.9 5.28-24.12-6.03-8.26-8.07-8.43-26.52-2.34-11 3.62-21.15 9.9-22.57 13.95-1.42 4.04-5.51 10.78-9.1 14.97-4.91 5.76-5.32 10.75-1.64 20.42 6.52 17.15 9.66 38.38 2.51 45.15-12.66 12-22.17 13.65-18.27-2.25 1-4.08-.7-12.36-4.88-18.76-10.71-16.34-12.27-22.45-3.12-50.91 5.75-17.86 17.15-66.12 16.9-84.96-.27-20.52 11.14-33.62 30.98-41.84 19.1-7.9 29.9-1.76 31.9 18.14 2.28 22.88-6.5 35.26-22.5 31.75-9.78-2.15-14.04-.88-16.24 4.85-4.6 11.98.75 16.39 19.8 16.3 26.98-.1 34.9-9.13 40.57-46.26 2.7-17.75 1.23-23.02-11.72-41.85-12.03-17.49-16.94-21.13-26.11-19.38-16.86 3.22-14.01-7.5 6.45-24.35 34.4-28.3 35.53-29.63 30.2-34.96-8.77-8.76-41.9 10.42-69.51 40.24-14.17 15.3-20.51 25.37-21.69 22.55-9.1-45.23-54.64-103.64-113.54-139.57a120 120 0 0 1 3.33-17c2.04-7.19 4.77-14.22 13.87-28.46 9.11-14.24 15.07-14.44 19.7-23.89 38.7-79.08 122.71-130.1 173.64-97.56 13.95 8.92-6.87 24.62-37.15 25.12-14.23.23-27.4 1.94-29.27 3.8-7.68 7.69 21.52 28.08 45.67 31.9 29.92 4.73 43.94-.11 55.12-19.05 4.7-7.96 11.69-14.47 15.51-14.47 59.6 14.14 62.06 106.06 33.22 147.18-19.5 27.82-32 32.28-58.75 21.1-10.16-4.24-17.68-4.8-23.17-1.73-9 5.04-27.34-4.62-41.53-21.88-10.73-13.04-15.45-42.1-8.86-54.42 7.53-14.06 26.75-13.01 30.43 1.65 3.42 13.62 29.16 40.59 38.74 40.59 3.7 0 6.73-4.09 6.73-9.07 0-5 2.1-9.78 4.66-10.65 2.75-.93 3.49-11.43 1.8-25.65-.4-3.37-.86-5.71-1.3-8.3 4.17 4.63 8.82 9.46 14.08 14.33 6.9 6.39 5.86 18.8 9.26 22.9 9.25 11.15 20.7 6.8 14.08-8.77-40.15-94.54-159.89-45.33-149.02 11.1 1.6 8.3 1.15 14.1-1.6 14.1-4.77 0-22.69-20.09-31.92-35.8-8.66-14.74-37.7-10.72-56.9 7.89-18.82 18.25-19.86 24.73-5.55 34.75 13.75 9.63 19.12 9.32 15.93-.92-1.41-4.56-.63-11.37 1.74-15.16 6.35-10.1 24.15 3.97 31.47 18.4 24.94 49.15 50.47 57.04 58.67 35.7C797.32 277 806 279.77 806 295.8c0 9.87 4.28 22.86 27.21 13.95 41.51-16.15 105.41-6.16 102.96 44.62-.88 18.3-11.8 25.21-23.29 23.57-8.13-1.16-9.78-4.55-9.34-19.15.5-16.4-.46-17.75-12.67-17.75-11.06 0-28.09 10.13-28.09 16.7 0 1.02 5.86 7.3 13.01 13.97l13.02 12.12-10.65 2.82c-12.95 3.42-13.26 10.02-1.13 24.58 8.45 10.14 10.62 10.59 26.28 5.41 9.4-3.1 22.57-11.79 29.28-19.32 14.9-16.72 24.83-17.62 24.83-2.23 0 17.03-20.96 38.82-46.27 48.1-29.93 10.98-34.03 15.49-34.93 38.34-1.01 25.95 7.55 45.16 24.61 55.24l14 8.27v-44.4l8.28 11.34a243.16 243.16 0 0 1 13.33 20.43c2.78 5 9.17 11.3 14.2 14a734.5 734.5 0 0 1 26.79 15.7c9.7 5.93 18.75 10.79 20.1 10.79 1.36 0 2.47-14.9 2.47-33.12 0-28.66-1.23-31.97-8.46-33.13-15.04-2.4-55.46-16.08-35.11-35.7 4.16-4.02 9.19-11.67 17.37-32.23 32.25-81.03-4.38-107.03-45.84-138.78 55.56-34.33 70.26-142.66 14.51-191.24-11.29-9.83-22.9-16.34-22.9-18.35 0-5.68 53.97-8.96 57.48-3.49 1.69 2.63 6.48 3.47 10.65 1.87 5.75-2.2 7.56-9.5 7.5-30.26-.11-44.28-16.42-62.78-39.08-44.35-6.43 5.24-9.69 5.53-13.95 1.27-7.51-7.51-54.13-7.24-58.88.34-2.04 3.26-3.14 9.38-2.45 13.62 1.73 10.49-8.75 13.63-29.72 8.9-14.38-3.24-19.18-2.32-26.6 5.1-8.6 8.6-32.71 12.82-32.71 5.73 0-1.83 6.63-10.16 14.73-18.52C826.27 10.2 821.45 4.35 787.97 8c-31.73 3.46-38.75 10.3-38.75 37.81 0 11-1.3 23.37-2.87 27.5-5.01 13.05-9.7 8-11.33-8.92C729.5 6.8 664.62-9.01 639 5.18c-11.11 6.14 6.17 12.48 17.77 21.58 22.96 18 35.68 39.1 35.68 59.17 0 11.21 1.43 12.45 11.54 9.91 17.24-4.33 19.25 5 5.38 25.01-14.26 20.57-41.74 48.6-44.9 45.45 18.79-108.42-53.86-142.22-140-154.09-18.7-2.57-33.1-7-48.43 3.03-13.85 9.07-22.89 22.6-27.28 8.77-1.65-5.2-5.8-9.85-11.3-13.14-8.28-4.93-16.14 4.22-28.17-1.45-4.92-2.32-19.82-10.03-13.06 11.04 9.5 29.62 57.73 44.65 83.78 26.9 14.22-9.69 24.14-11.44 38.2-1.32 9.45 6.8.42 15.82-15.31 15.82-15.1 0-20.62 14.07-5.63 14.35 4.55.08 12.4 3.27 17.46 7.1 5.05 3.81 13.57 6.97 18.93 7l15.92-12.94c1.35-2.13 4.77-3.34 11.3-3.72 6.54-.37 16.2.1 30.03 1.35 36.09 3.27 37.72 3.93 39.1 15.8 1.1 9.58-1.05 13.07-9.47 15.32-14.6 3.9-14.07 4.04-26.8-6.57-6.9-5.74-18.22-9.3-29.57-9.3l-39.32 15.84c-19.92 16.85-21.66 33.07-3.03 28.2 6.77-1.78 9.75-.3 9.75 4.81 0 4.05-2.13 8.69-4.73 10.3-7.75 4.79-5.39 24.17 4.4 36.14 7.32 8.97 10.31 10 15.14 5.26 3.3-3.25 9.47-5.92 13.7-5.92 4.23 0 12.4-5 18.14-11.11 9.35-9.96 9.67-11.76 3.05-17.26-5.64-4.68-10.13-4.9-18.92-.9-20.7 9.44-19.52-4.64 1.6-19.07 9.99-6.83 12.8-6.87 28.15-.46a66.43 66.43 0 0 0 35.04 4.25c19.84-3.17 19.67-3.48 18.08 32.72-.67 15.22-6.82 37.9-10.97 67.42-.2 1.38-.28 2.74-.46 4.11-59.83-31.1-130.71-37.5-191.27 14.82-7 6.06-18.88 2.22-35.16-11.98-12.1-10.55-10.34-13.68 9.47-16.86 25.7-4.14 39.89-15.51 38.12-30.56-1.21-10.33-4.94-13.2-22.72-17.5-30.89-7.49-29.88-17.32 3.3-32.1 23.77-10.58 39.59-18.39 12.76-14.89-68 8.87-95.33 72.48-63.8 125.25 7.76 12.98 21.92 17.71 24.35 16.2 11.06-6.83 12.82 3.66 4.53 18.97-30.85 56.98-42.62 94.83-19.75 179.9 5.75 21.35-.87 25.87-21.75 26.01-5.85.04-10.82 1.67-11.03 3.62-2.6 23.97-1.25 32.1 6.53 39.34 19.37 18.05 41.17 11.75 41.17-11.89 0-17.08 10.42-22.86 23.66-13.14 14.83 10.88 64.12 26.57 40.04 70.1-1.9-15.18-18.29-11.36-32.46-25.37-12.85-12.7-15.67 9.88-15.98 23.28-.3 13.4-2.57 26.37-5.03 28.83-9.21 9.21-22.06 1.08-28.08-17.76-3.32-10.38-10.53-22.64-16.05-27.26-11.76-9.86-15.92-7.95-9.57 4.38 2.48 4.81 7.01 19.37 10.07 32.35 9.43 39.93 22.65 46.89 64.97 34.23 20.84-6.24 33.64-19.36 43.96-45.08 9.42-23.47 16.75-8.28 14.88 30.83-.55 11.53-18.49 30.9-24.92 26.92-8.04-4.97-23.73 3.98-32.67 18.64-6.16 10.1-9.11 12.27-9.14 6.68 0-5.12-3.63-8.28-9.48-8.28-15.01 0-11.07 12.08 9.77 29.92 20.84 17.83 20.39 19.59-6.28 24.59-17.16 3.22-17.96 2.75-25.29-14.78-7.77-18.6-18.64-29.86-29.07-30.12-8.53-.22-7.28 14.8 3.27 39.4 7.82 18.25 11.46 23.53 26 24.58 104.53 7.54 142.32-124.02 103.19-179.8-22.58-32.2-20.58-40.48 5.24-40.48 27.74 0 50.31-8.18 64.58-23.4 48.9-52.15 56.35-94.28 24.32-137.6-23.08-31.22-46.9-28.7-71.38 7.58-13.36 19.8-14.56 24.24-10.7 39.37l4.35 17.05 5.41-13.32c2.98-7.32 5.42-18.08 5.42-23.9 0-25.2 32.62-30.49 53.53-8.66 14.5 15.13 16.04 25.4 5.17 34.42-6.44 5.35-8.83 4.56-16.36-5.33-7.17-9.43-10.4-10.63-17.3-6.43-4.66 2.84-11.36 11.04-14.88 18.22-5.58 11.38-5.33 15.05 1.97 28.6 7.27 13.5 7.56 17.54 2.2 30.51-7.23 17.44-22.58 26.51-52.43 30.99-17.5 2.62-23.53 1.48-33.06-6.3l-11.65-9.5 10.43-9.79c5.74-5.39 11.86-17.4 13.6-26.72 2.71-14.4.94-19.88-11.85-36.69-8.27-10.86-16.24-23.48-17.7-28.04-2.89-8.93-11.04-11.43-11.04-3.38 0 2.7 3.38 10.05 7.5 16.34 7.08 10.8 6.81 12.37-4.73 27.49-6.72 8.82-12.23 20.8-12.23 26.63 0 17.03-11.43 8.7-16.1-11.87-24.37-107.28 38.35-209.73 131.4-216.05-18.07 7.38-26.36 15.09-37.33 22.44-11.66 7.8-24.32 20.58-28.14 28.39A287.64 287.64 0 0 1 456.03 315c-14.72 21.8-12.3 38.27 9.86 66.99 10.73 13.9 20.55 25.28 21.84 25.28 1.28 0 .9-11.52-.86-25.6-3.06-24.52-2.64-25.9 10.17-33.48 7.36-4.34 18.1-15.12 23.9-23.95 10.27-15.68 10.3-16.18 1.42-20.93-5.01-2.68-13.5-4.88-18.88-4.88-16.24 0-8.48-9.68 11.47-28.35 32.58-30.5 76.07-27.53 116.79-5.79-7.72 102.97 29.52 178.39 86.7 225.51 12.59 10.38 19.42 20.49 18.48 36.08-3.1 51.65-22.9 81.36-57.98 124.62-11.68 14.4-6.63 7.7 6.95-17.55 20.9-38.85 12.92-96.74-8.82-120.9-35.92-39.94-29.14-91.29-39.05-68.39-8.55 19.73 3.46 41.21 9.47 52.9 14.03 27.22 16.55 36.06 13.93 50-2 10.7-.95 19.38 2.51 23.8 8.27 10.6 3.53 7.4-6.3 9.86-17.64 4.43-21.97-.64-21.97-25.73 0-18.12-2.4-24.8-12.21-34.02-11.81-11.1-12.42-11.18-18.73-2.56-5.55 7.6-5.48 10.9.5 22.47 8.12 15.69 1.7 18.48-15.24 6.62-8.88-6.22-12-5.95-29.76 2.63-21.48 10.38-20.52 6.12-11.72 51.64 2.25 11.67 5.05 14.2 15.77 14.2 17.55 0 21.27-4.86 9.85-12.86-14.77-10.35-11.86-20.27 5.94-20.27 11.72 0 19.74 4.5 33.74 18.93 18.98 19.57 29.63 22.7 46.52 13.66 8.94-4.79 9.55-4.24 6.67 5.91a489.7 489.7 0 0 0-5.9 23.66c-1.51 6.86-7.85 15.2-14.09 18.54s-11.34 9.72-11.34 14.18c0 8.21-24.08 34.76-38.8 42.77-6.46 3.52-9.56 1.17-15.8-11.98-9.53-20.09-6.03-39.93 10.53-59.61 6.55-7.78 10.69-17.31 9.2-21.18-3.43-8.95-12.45-9.17-12.45-.3 0 3.7-6.98 5.8-13.53 9.69-50.3 29.92-45.1 75.1-37.24 80.78 16.98 12.25-.74 16.23-8.84 23.72-6.75 6.24-10.48 17.35-21.1 18.3-51.33 4.59-57.64 21.05-91.28 14.91-3.69-.67-11.48-3.09-17.74-3.88-23.09-2.92-33.2-.96-43.34-6.7-2.67-1.51-5.71-2.96-8.63-4.43-.18-184.28.53-364.04.53-537.22 0-76.32 46.84-101.92 106.74-101.92 2.27 0 1.87-4.87 1.87-10.32 0-2.95-.94-3.25-9.94-3.2-3 0-6.9.07-11.96.1-9.12 0-67.05 1.86-139.33 1.86-4.22 0-7.52-.1-11.73-.1 1.46-20.1-4.15-40.08-18.52-59.97 35.57 20.35 78.8 18.8 108.2-4 22.57-17.48 12.64-33.8-11.72-19.42-7.12 4.2-10.57 4.4-11.94.67-5.3-14.49-20.76-18.61-33.13-19.8-6.9-.67-11.04-5.93-22.62-5.75zm-82.62 35.43c40.15 2.13 58 37.4 56.63 72.7-61.3-.39-118.02-1.61-125.89-1.62-5.05-.03-8.97-.1-11.97-.1h-.01c-9 0-9.94.24-9.94 3.19 0 5.46-.4 10.31 1.86 10.31 46.47 0 97.67 11.56 114.8 51.53a55.35 55.35 0 0 1-12.04 6.25c-10.4 3.8-14.48 11.2-25.54-5.34-7.78-11.64-8.4-11.88-17.11-4-5 4.53-9.09 13.13-9.09 19.1 0 41.03-52.8 64.23-70.56 31.03-6.97-13.02 12.88-33.9 32.2-33.9 17.67 0 21.72-5.92 10.82-15.8-20-18.08-57.2 13.18-57.85 40.06-.6 25.18 14.13 37.47 32.74 44.71 35.98 14.02 86.16-5.08 103.3-39.67 2.78-5.6 5.12-9.03 6.92-10.86 4.12-4.2 7.68-8.38 11.38-12.57.51 3.84.8 7.85.8 12.08 0 171.36.55 344.17.7 530.05-12.33-.35-24.74.2-36.95 2.23 46.6-127.05 8.72-264.27-23.76-335.27-5.94-12.97-5.46-39.09 9.18-47.74 17.18-10.14 17.36-12.95 2.49-37.1-6.41-10.4-11.72-20.39-11.8-22.17-.08-1.78 7.34-5.95 16.48-9.25 18.85-6.82 19.4-15.18 1.13-17.36-8.2-.97-17.12 2.93-26.98 11.83-19 17.14-24.46 52.32-12.7 81.72 6.76 16.9 7.54 27.77 5.94 25.4-12.4-18.38-36.29-42.32-54.95-61.05-4.67-4.7.66-7.4 7.52-8.34 14.2-1.96 13.37-4.69 5.92-18.84-9.64-18.32-25.8-23.6-28.55-9.32-1 5.23-14.49.48-25.25-22.14-26.4-55.47-31.16-76.62-19.28-126 7.71-32.02 30-58.68 52.2-58.75 7.97-.03 25.73-1.04 37.54-7.05 15.68-7.98 48.22 1.37 49.16-.22 3.22-5.48-5.35-10.03-10.75-15.8-7.15-7.65-25.87-9.74-21.36-14.56 4.55-4.86 15.47-1.93 27.21-4.75 9.29-2.23 17.75-3.03 25.4-2.62zm436.93 238c56.84 37.73 104.38 110.11 102.49 174.83-.23 7.76-3.23 20.1-9.15 31.87-.24.47-.3 1.05-.5 1.54-81.37-49.44-96.2-144.47-92.84-208.25zm113.9 439.86c36.88-.16 72.48 8.1 99.8 23.3-32.5 45.42-75.39 96.77-112.58 106.94-44.41 12.16-115.5 18.5-182.1 21.99-28.47-28.84-63.77-53.78-95.77-67.63-16.85-7.3-7.26-15.86 17.14-18.93 31.66-3.98 34.3-3.99 56.74-.24 14.08 2.35 22.55 1.43 28.4-3.1 6.27-4.86 6-3.73-1.12 4.58 0 0-5.2 6.7-4.76 11.52.57 6.02 4.77 7.07 9.5 10.85 18.2 14.58 44.35 16.46 84.26 6.09 24.46-6.36 19.8-15.74-8.46-17.05-20.5-.96-40.35-10.9-40.35-20.21 0-5.33 23.18-14.23 36.9-14.16 21.73.11 32.71 5 38.18 17 3.3 7.24 10.71 12.64 19.91 14.47 8.06 1.62 15.77 5.82 17.12 9.36 2.8 7.27 18.42 8.7 22.53 2.05 1.49-2.41.2-9.87-2.85-16.58-7.45-16.34-1.74-20.77 11.37-8.85 5.84 5.32 13.29 8.7 16.54 7.51 9.59-3.5 6.8-17.81-5.78-29.63-13.87-13.03-42.65-16.52-86.49-10.5-16.27 2.24-29.57 2.53-29.57.64 32.74-19.92 72.7-29.25 111.43-29.42zm-208.8 35.24c2.33.37 3.54 3.31 2.7 6.54-.86 3.22-6.13 5.11-11.73 4.2-5.6-.9-6.8-3.84-2.7-6.53 4.13-2.7 9.4-4.6 11.73-4.21zM176.06 759.7c-31.27 43.84-53.49 62.13-113.94 98.23 3.03-11.4 7.6-21.13 13.42-27.7 28.43-32.18 63.07-56.84 100.52-70.53zm170.58 21.64a229.07 229.07 0 0 1 16.95 12.41c17.74 14.5 18.22 16.95 10.69 22.47-7.79 5.71-7.74 6.5.83 14.25 5.9 5.34 17.86 8.48 34.26 8.98l25.2.76-1.21-15.38c-1.1-14.18-.07-16.3 12.9-15.38 27.3 1.94 71.47 28.6 96.72 57.53-69.69 3-129.93 2.94-141.6 2.94-54.73 0-54.66-6.67-54.75-49.17-.03-13.35.03-26.11 0-39.41z"/></svg>
