<svg viewBox="0 0 1000 1000"><path d="M18.93.07C11.99-.45 4.5 1.99 1.5 9.49c-7 15 12 20 26.99 25 14 6 11 39.99 3 56.98-4 6-5 12-3 15 1 2 0 6-2 7-3 2-5 9-5 15 0 7-4 20-8 28-24 44.98-12 162.96 18 187.95 4 2 20 6 38 8 28.99 3 29.99 2 41.99-9 22-25.99 23.99-14 52.99 7 9 7 20 10 32 14l-21 10c-10 10-13 19-14 35 0 8 0 14.99 5 24.99 12 25 53.99-4 32-23-20.85-18.3-2.48-34.5 33.05-48.54a3051.69 3051.69 0 0 1-3.05 315.2c-6.05-.83-10.3-2.6-13.01-5.7-8-9-10-13-12-22-2-16 1-26 12-38 8-8 4-15.99-5-11-4 2-13 4-19 5-14 4-21 22-15 41 7.9 26.3 27.43 38.13 51.37 40.4-3.16 49.27-7.75 94.72-12.56 139.97-3 25.02-24.02 39.02-48.03 50.03-45.02 21.01-49.76 12.97-48.02 26.01.26 1.99 2 1 26.01 1 12 0 54.23-2.31 143.28-2.44 13-.02 24.9.42 37.44.63-57.32 44.31-79.22 46.35-144.49 46.35-11-10-26-13-36-12-5.99 0-11.99-2-16.99-9-3-8-1-12-9-21-8-8-13-11-20.99-23.99-6-9-3-17-1-20 5 3 10 5 18 11 19 14 19 13 21-3 1-8 3.99-14 8.99-13 12 4 11-2 0-11 3-9 20-14-21-9-6 1-8 10-23.99 13 .2-14.91-10.07-39.8 3.14-56.49 23.16-29.27 36.62-40.32 83.93-43.92 5.27-.4 9.9 5.43 14.9 17.43 3 5 4 16 2 19-7-1-13.99-3-17.99-6-15-10-22-2-22 18 0 17 4 19.99 24 15.99 12-2 24-24 28-36.99 0-7-7-29-8-33-2-5-13-11-18-17-6-3.99-11-4-54.99 7-20 7-34.99 14-45.99 31-29-14-28-15-36-21-2-3-3-7-4-10 17-5 27-11 32-16 12-11 21-11.99 40-12.99 24-1 35.99-9 38.99-17l-6-5c-4 1-12-3-16-9-8-13-27-12-35.99-3-17 16-33 8-48 9 9-25 28-46.99 55-46.99 7 0 24-9 12-9-7-1 5-6 13-8 6.99-3 20.99-10 28.99-18 14-11.99 16-16.99 16-40.98 8-40 6-26-18-20-10 3-15 13-21 16-4 1 9-10 13-35 4-64.98-11-75.98-48-94.98-130.97-25-138.96 140.98-15.99 106.98 7-5 17-23 17-31 0-22.99-23-40.98-41-31.98-10 5-13 18-1 29.99 3 3 11 14 1 20-20 10-32-18-33-22-6.99-30-4.99-54.99 40-56.99 25 3 43 11 53 38.99 9 33 10 70.99-43 112.98-28 17-25 41-19 35 3-2-1 2-5 7-8 17.99-21 43.99-24 71.98-12.99 25-7.99 32 0 32 1 5 2 9 4 13 4 7 34 22.99 41 35.98-3 7-5 16-7 25-2 10-5 20 0 31 3 6 5 6 8 14 1 3 1 5 0 7.99h-1c-7-1-12-32-16-36.99-2-3-14-2-27.99 9-9 8-28 3-31 8-10 16 24 17 39 45.99 8 15 13 18 16 4 3-16 7-22 12-26 1-1 4 1 8 3-1 4 0 10 3 19 2.99 8 14 18 19.99 23 2 2-1 15.99-10 17.99-4 1-24-7-31-5s-17.99 6-27.99 5c-17-3-26 3-30 33-3 16.99-4 22.99 5 24.99 2 0 5 3 9 6 9 5 15 3 11-11-3-15 6-17 11-3 7 18 0 17 23 18 13 0 26-4 31.99-16 7-16 11-26-10-13-22 13-24 1-22-12 3-16 3-10 47-2 7 1 35 4 66.98 7 77 7 104.98-10 142.98-37.99 5 13 17 41 22 45 14 13 41.99 24.99 47.99 20.99 2-1 2 1 4 3 10 3 12 5 38.99-9 33-16 39-23 39-46 0-21.99-7-23.99-12-4-3 16-28 37-38 33-4-2-14-1-15-13 0-19-4-19.99-7-20.99-16-4-19.99-11-28.99-10-10 2-1 12-7 25 1 3-2 2-3 2-1 1-3-3-6-11-1-5-2-11-5-15-2-2-3-13-3-20 .98-.49 1.96-1.22 2.94-1.96 27.86.63 56 1.2 84.27 1.42 23.68.18 25.75.99 26.02-1 .97-7.3-1.07-8.44-7.05-9.53-31.36-5.72-52.76-12.55-67.72-20.7 116.05-100.56 119.37-130.98 162.5-162.19 39-16 62-9 73-4-65-8-125.98 72.99-99.99 158.97 7 21 22 37 39 51 2 8 6 23.99-4 27.99-9 2-33-17-48 23-5 10-25.99 22-22.99 26 33 2 47-17.01 50-17.01 3.99-1 8.99 5 6.99 9-12 28 13 4 24 6 21 6 21 8 25 2 7-26-13-51-22-51-1-6-1-10.99 6-15.99 15 10 29.99 18 43.99 27 27 16 82.98 20 119.97 15 20-5 41-9 47-9 5 0 15.99-6 24.99-13 9-6 16-10 30-25 2 1 5 3 8 5 20 11-7 24 23 35 18.99 7 20.99 6 37.98-8 20-16 27-18 50-10 19 7 5 16 2 19-4 3-6 9-20 5-39-11-41 23.99-2 29.99 15 3 27-2 30-4 20.99-10 28.99-31 28.99-41 1-13-7-20-22-34.99-26-25-30-28-49.99-28-29-1-47 1-50 4-7.99 20-19.98 20-29.98 19 4-11 8-21.99 11-31.99 1-1 3-3 14-6 22.99-6 25.98-29 32.98-43 11.17-6.7 22.96-6.05 32.96-3.05-6 7-6.2 28.14 5.03 25.06 14.97-4.12 41 14 50 4 4-3-4-33-8-36-8-4-12-15-22-16-35.99-4-10 9-21 17-9.99-4-17.92-7.08-29.92-2.08 14.79-28.59 28.9-57.92 34.92-85.9 1 9 3 11 4 13 10 10.99 19 10 23-1 1-4 10-10 13-12 6-4 8-44 1-50-12-10-6-41.99 11-62.98 4-5 0-23-3-32-7-17-3-26-1-41.99 1-13-6-12-15 5-8 14-5 15-4 29 2 15.99 8 14.99-4 39.99-7 15-12 28.99-12 31.99 0 4-4 13-8 21v1c-1-42-8-84.99-18.99-123.98 4-9 8-19 13-28 18-13 19-11 16 6-3 12-8 18-2 18 4 0 14-10 15.99-14 1-6 3-5 9-11 5-6 11-20.99 13-31.99 4-30-11-24-47-2-3-2-5-9-5-16-1-7-5-30-10-49.99-10.99-40-14.99-45.99-10-48.99 3-2 6.01-3 9.01 15 4 18 27 23 46.99 9 14-10 17-14 14-37-2-13-16-34.99-20-41.99-9-17 17-29 12-49.99-9-37 9-45 10-61.99 0-8-23 14-22 22 2 6 1 12-12 25-20 20-28.99 41.99-38.99 77.98-7 27-12 29-15 7-14-99.99 6-131.98 34-156.98 31-26 20-48.99 28-55.99 10.99-9 26.99-96.98-31-123.97-3-1-11-2-21-2-16-1-38 2-50.99 10-13 12 15 53.99 38 53.99 14.99 0 17.99-18 10-31-9-14 13.99-15 24.99-2 6 8 8 15 6 24-5 19-11 30-18 30-4 0-14 6-23 14.99-35 31-53.99 52-22 74.99 11 8 20 6 23-10 4-14 16-24 19 4 1 8-39 52.99-49 52.99-4 0-17.99-10-29.99-22-31.99-27-49.99-60.99-18-83.98 8-6 11-20 11-35 0-20-17.99-33-37.99-51.99-28.99-28-46-26-38-18 6 7 12 15 14 36-7 0-31-18-36.99-27-15-25-96.98-27-131.97-4-11 7-23 26-4 42 12 11 24 2 34-19 13.99-28 86.98-17 99.98 11 24 51.99 17.99 143.97 78.98 175.97 3 2 26 18 61.99 13 4-3 5 1 11 53.98 4 41 10 91.99 20 116.98 10 25 13.99 43 13.99 62 0 15 9 49.98 3 59.98l-3 5c-8-20-16-49.99-19-57.99-28-66.99-52.99-92.98-56.99-95.98-6-7-12-9-13-15s6-10 9-19c7-27.99-4-40.99-37.99-65.99-25-18-36-8.99-14 11 8 8 8 35 11 54 0 6 10 14 8 15-.78.39-17.91-8.84-42.53-20.55 1.39-9.78 2.3-19.94 2.3-30.8 0-107.76-100.61-228.73-298.72-228.73-26.19 0-43.38.27-64.5.43-12.04-27.06.95-38.73 12.52-50.3 17-15 60-9 41 9-12 11-2 34 13 36 13 1 27.99-17 27.99-34l-18-26c-14-8-45-9-63.99-2-26.92 8.69-42.45 39.24-32.33 67.43-113.5 1.13-159.84 3.63-208.13 2.13 1.53-2.8 3.6-6.97 4.5-8.57 6-6 14-16 32-17.99 27-3 28.99-12 38.99-16 8-4 56 14 63.99 14 16 0 47-34 38-42-8-5-17 1-19 9-4 23-14 21-46 4-46.99-24-116.98-50.99-147.97 10-5 9 11 28 20 31 8.41 1.86 6.88 8.12 3.09 16.32h-.34c-66.04-3.06-69.3-2.35-71.02 7.55-2.12 12.23 27.4 11.81 58.94 21.28-5.7 17.52-7.47 39.5 8.33 65.82 18 20 12 17-5 23-25 10-46 12-52 60.99-7 48-14.99 60.99-37.99 57.99-19-2-26-8-23-39 3-28.99 17-50.99 43-64.98 20-11 22-16 6-23-16-8-23-3-29 1-6 3-15 12-32 16-3-39 37-71.98 44-81.98 1-3 0-35-11-7-2 3-4 5-11 7-1-9-4-26 9-32 25-12 9-33-9-54-5-4-3.99-23.98-8.99-28.98-7-8-6-8-22-14-2-.75-4.25-1.25-6.56-1.42zm148.75 118.05c.37.14.73.18 1.1.33 30.13 12.15 46.66 18.08 48.01 32.56 6.09 65.22 10.97 128.07 14.14 198.12-5.17 1.81-9.96 3.38-15.47 5.3h-1c-21-10-67-43-73-51-16.99-12-8.99-71.99 14-74.98 21-3 24-14 30 2 11 28 3 39.99-8 31-12-11-18-5-17 8 2 19.99 30 26.99 47 6 9-10 0-66-11-74-4-3-8-8-8-11s-2-6-6-7c-24.33-14.7-22.22-41.67-14.78-65.33zm202.51 11c4.55.02 9.8.26 15.86.26 8.67 0 16.82.25 25.02.48 3.44 8.53 5.93 15.18 7.35 16.6 5 13 13 16 19 21 13 11 11 14 15 19l-17 14c-18 13.99-26 30.99-14 55.98 14 29 19 15 22 2 6-23 76.98-37 94.98-19 3 3-10 27-10 34l-13-1c-11 0-28 3-40.99 9-12 6-32 6-69.99 18 0-2-1-4-1-7 0-5 2-12-6-17-11-8-12.99-11-28.99 7-7 8-6 17-5 27-9.4 2.25-13.97 3.96-22.1 6.05-.09-173.85-2.37-186.45 28.86-186.37zm59.26 1.45c156.89 8.05 222.7 62.09 227.63 168.88-20.23-6.14-41.48-12.05-64.7-17.01l-27.99-6-23-2c9-11 29-18 26-47-1-12.99-5-39.99-50.99-48.99-51.92-9.98-80.9-16.98-86.95-47.88zm138.3 162.4c33.74 1.18 62.53 7.58 89.71 16.24.02 1.17.14 2.24.14 3.42 0 7.16-.42 14.03-1.04 20.73-6.18-.35-9.68-.18-17.18-.93-174.34-14.14-237.1 47.96-258.87 164.73-15.83.15-34.23.41-39.18.41V333.31c7.45-1.56 14.74-3.42 22.1-4.88 0 5-3 5 1 23 2 10 0 12-1 13.99-6 21 7 17 27 3 14-10 18-25 13-41.99-1-4-1-5 3-8 65.98-20.25 117.63-27 161.31-25.47zm43.64 51.45c16.54.21 30.2.49 43.51.85-15.82 102.45-106.76 148.94-218.51 151.3-8.9.19-25.8.28-44.45.47 13.02-78.14 57.92-141.75 145.46-146.62 8 3 5 9-5 8-8-2-34 27-45.99 54-10 20.99-27 40.99-9 34.99 7-6 40-32 67-36 38.98-6 53.98-31.99 24.98-42.99-18-7-17.99-9-4-18 8-5 23-6 46-6zM767 358.35c8.6 1.93 16.59 3.49 26.35 6.07 9 4 10 11 9 24-1 11-12 29-19 35-6 5.99-17 6.99-22 8.99-7.99 4-7.99 6-2 10 11 8 39 8 58-2 13-7 12-11 19 0 3 6 12 8 18 6 23.99-16 39.99 55.99 48.99 77.98 3 13 8 22 13 32l-11 20c-22 21.99-20 19.99-34-10-8-16-14-32-14-36 0-9-14-25-33-38-14.99-9.99-19.99-11-51.98-8-34 3-45 4.01-55.99-8.99-10-11-12-12-19-6-12 12 6 27 24 27 16 0 18 10 4 19-20 12-3 24.99 19 13 8-4 23.99-7 36.99-8 19-1 24.99 1 32.99 10 11 13.99 11 21.99 1 30.99-6 0-18-3-24-5-39.99-14-107.98 32-73.98 30 23 1 11 2 3 16-2 5-8 38.98-3 48.98 4 12 18 3 16-11-1-7 0-13 3-15s9-7 9-12c0-11.99 13.99-15.99 47.98-12 36 4 36-4.99 45-18.99 10-16 13-6 17 3 6 13 18.99 51 12 72.99-9 28-10 37-12 113.98-2 99.98-7 110.98-71 152.97-18 12-42.99 22-52.98 25-16 3-33 2-50-1 6-4 23-14 34-20 29-15 47-38 55.99-49.99 6-6 13-12 15-18 6-17-11 3-10-14 1-20.99-1-24-15-35.99-24-19-34-15-17 9 14 20 10 35-9 57-2 1-1 1.99-6-1.01-2-2-3.86-13-.86-21 4-15-9.6-16.49-11.6-7.49-2 10 3 19 0 21s-10.53-4.5-14.53-1.5c-14 8.99-15 19.99-19 29.99-8 20-9 25 14 11 11-7 15-5 23-4 11 1-17 23-52 41.99-26.99-7-54.98-20-77.98-35 0 0-13-8-28-24-59.99-76.98-12-159.96 50-166.96 11-2 22.99-1 31.99 1 10 8 21 19 19 35-6 8.99-7 20.99-6 23.99 10 24-1 46.99-17 54.99-20 9-23 7-36.99 0-19-10-14-43-2-41 24 1 1-55.99-26-27-13 19-15 50-1 77 5 9 29 25 58 15 21-3 58.98-32 69.98-44 7-8 12-14 15-20 7-16.99 13-23 20-22 6 0 17.99 1 26.99 2 49.99 6-23-75.98 36-99.98 22.99-9 16.99-25.99-26-9.99-11 6-12 5-21 12-15 11-31 33.99-36.99 72.98-3 17-9 34-13 39s-12 16-16 25c-2 5-7 7.99-14 11.99 20-30 18-60 13-83.99-1-4-2-7-3-11 1-3 0-10.99-3-27.99-1-9-25.99-38-26.99-39.99-13-21-20-30-2-30 8 0 17-3 20-8 4-4 10-7 13-7 7.99 0 9-6 2-13-3-2.99-1-9.99 7-20.99 17-23 15.99-26-7-16-11 4-21 7-22 5-1-1 4-8 10-14.99 7-7 11-15 10-18-6-8-23-5-33 6-13 15-25 60.99-29 79.99-5 24 28 51.98 34 73.98-24-15-55-23-66.99-23-22 1-46 10-62.99 23-2 1-7 7-25 26-16-11-34.99 13-54.98 18-7 0-9-2-9-11 0-8 0-15 8-12 5 1 7-4 5-16-4-20 1-28-18-9-11 10-17 7-36-1-11-5-16-9-14-24 4-22 3-27.99-6-3.99 0 13-1 16-1 26-3.99 23.99-2.99 61.98 52 64.98 39-2 60.99-32 58.99-15-10 13-14 20-20 29-36.77 42.54-61.77 66.88-93.36 93.27-16.16-13.02-20.78-29.01-22.63-49.01-4.56-49.55-5.05-84.78-6.92-170.95 10.74-8.66 20.41-17.76 26.93-27.28 5-11 11-19 14-20 2 0 8 6 26 27 17 19.99 27.99 28 46.98 34 23 6.99 27 6.99 51 0 37.99-10 72.98-53 76.98-86 1-16-5-33.99-18-44.99-13-6 14 25 0 62.99-3 6-12 0-14-10-7-22-33.99-17-30.99-11 6 6 5 56-7 61-20 8-51.98 3-54.98 0-4-6 14.99-28 36.99-31 5 0-7-22-4-33 4-7-38-32.99-41-22.99 6 14 29 7 9 32-3 4-20.99 4-25.99 14-5 11 4 31.99-1 31.99-6 1-39-32-47-69a321.5 321.5 0 0 1 1.58-38.55c105.6 4.3 155.34 6.07 235.48-18.26 64.21-19.5 125.1-60.93 142.52-138.22zM341.45 512.97c13.98.51 23.47.9 35.75 1.4-.2 1.41-.58 2.6-.77 4.03-2 67.98-10 88.98-25 104.98-1.37 1.57-5.82 4.94-8.22 7.19-.84-38.55-1.65-75.62-1.76-117.6zm580.88 60.42c4 16 12 82.98 13 105.97 0 24-8 67-25 100.99-9 19-21 49.99-24 57.99-7.99 20-13.99 20-24.99 27.99 12-45 8-68.99 9-98.98 2-20 11-121.98 19-144.97 4-11 11-14 33-49z"/></svg>
