<svg viewBox="0 0 1000 1000"><path d="M603.12.02c-14.7.16-31.8 1.41-53.58 3.65-12.29 1.26-27.31 3.28-37.02 11.08-17.39 13.96-18.95 20.97-4.81 21.52 5.65.22 15.08 4.34 20.96 9.15 5.88 4.81 13.11 8.13 16.08 7.37 10.6-2.7 24.83-19.8 23.9-30.7-1.2-13.97 61.45-10.33 86-1.43-11.4 2.5-31.4 15.9-31.27 34.45.1 13.42 8.1 24.72 19.95 32.46 6.96 4.54 13.5 4.27 13.5 1.25 0-9.07-20.15-16.13-20.15-27.2 0-13.1 19.15-22.18 35.27-22.18 16.12 0 41.31 25.2 41.31 43.33 0 5.04-21.16 27.2-21.16 48.36 0 4.03 6.05 12.1 14.1 12.1 5.04 0 11.09 0 17.13-2.02 17.13-4.03 28.9-15.12 29.22-27.2.2-7.41 3.03-10.01 7.8-7.45 5.7 3.05 6.23 21.4 4.76 30.35-3.69 22.44-51.58 50.05-58.9 70.8-.36 1.01-.8 1.9-1.24 2.8-71.26-94.76-189.95-147.9-290.96-147.9-163.35 0-316.84 148.7-320.33 329.25-5.61 5.01-10.95 9.72-16.98 15.18-9.35-25.82 11.46-61.02 17.29-77.4 16.46-46.3 29.53-97.78 33.87-141.07 2.95-29.5 9.07-35.27 21.16-35.27 26.2 0 25.84-16.13 35.12-43.84 9.31-27.8 12.45-48.83 64.63-42.81 15.34 1.77 28.25-2.43 43.32-8.06 15.25-5.7 22.17-13.1 22.17-23.18 0-7.05-.04-8.66 3.02-10.07 4.51-2.07 13.12-4.27 28.22 5.04 6.18 3.81 9.06 6.04 11.08 6.04 2.01 0 2.01-3.02 2.01-9.07 0-12.28-23.94-25.57-43.5-26.23-1.31-.05-2.6-.04-3.85.04-22.62 1.3-24.23 24.93-40.3 31.23-37.14 14.55-61.84 7.83-98.75 5.04-18.08-1.37-26.94 16.13-28.21 47.36-.74 18.14-3.4 34.97-7.05 33.24-13.68-28.51-11.77-68.15-47.31-92.7-14.58-10.06-32.3-15.1-50.43-17.12-10.07-1-17.13-2.02-22.16-2.02C6.95 6.2 6.95 9.22 6.95 18.3c0 7.05 2.97 14.43 8.06 15.11 35.73 4.76 29.3 18.66 26.93 29.93-3.08 14.66 4.3 25.49 8.34 27.5 4.03 2.02 10.07 3.02 15.1 3.02 13.1 0 26.2-6.04 30.24-15.11l5.03-13.1c14.71 13.75 22.29 47.32 16.32 68.38-4.21 4.73-13.72 2.04-17.15-6.88-4.65-12.13-18.44-25.42-44.06-16.46-3.74 1.3-10.08 3.59-15.77 4.12-10.11.94-13.22 2.4-16.72 6.11-3.5 3.72-9.32 6.58-12.93 6.35-10.4-.65-8.08 6.86 4.54 14.67 8.9 5.5 12.97 5.94 17.55 1.9 9.28-8.18 16.53-5.77 32.54 10.8 11.31 11.72 18.62 15.85 30.96 15.08 13.47-.84 16.15 5.18 16.6 15.68 1.8 42.42-16.3 94.18-28.42 133.38C74.9 272.72 72.3 255.37 32.15 217c-20.37-19.45-18.46-44.9-27-43.78-1.09.14-1.81 2.2-2.78 5.9C-.49 190 9.97 215.6 14.7 220.78c15.94 17.47 17.95 60 4.02 76.4-6.34 7.46-8.34 13.99-5.61 18.88 2.3 4.13 5.77 12.23 7.7 18 4.47 13.38 20.93 12.13 36.1-2.75 6.1-5.98 12.47-11.03 14.16-11.22 2.55-.28 5.88 15.63 1.63 24.29-6.9 14.06-16.44 30.74-12.49 75.1-18.6 80.4-25.41 141.13-10.5 220.68-8.67-16.87-11.47-18.3-22.07-38.98-9.63-18.78-21.7 25.21-4.27 40.79 8.31 7.42 18.46 21.86 14.64 30.36-16.14 35.89 5.86 56.43 14.43 60.44 6.76 3.16 23.69 5.66 24.03 7.94 1.9 12.61-6.22 26.26-17.54 53.41-3.32 7.95-2.6 17.12-2.6 21.15 0 7.05 4.02 10.07 11.07 13.1 5.04 2.01 8.06 3.02 10.08 3.02 4.03 0 4.03-4.03 8.06-12.1 0 0 9.07-24.17 12.1-24.17 3.01 0 9.06 16.12 16.11 26.2 6.05 12.08 13.1 22.16 19.15 32.24-23.86 14.19-38.08 24.14-49.69 25.53-22.08 2.63-49.92 32.73-53.13 60.97-3.55 31.29 24.02 60.78 47.96 59.91 32.8-1.19 55.8-3.26 60.47-29.18 3.9-21.74-2.25-23.35-13.9-3.65-11.5 19.49-23.28 24.86-46.36 21.17-18.46-2.95-27.53-11.5-12.2-11.5 8.86 0 8.86-3.75 0-19.26-7.17-12.55-9.46-34.68-4.14-40 1.7-1.7 7.36 4.98 12.6 14.85 12.44 23.47 10.75 22.52 27.75 15.48 11.05-4.58 8.13-12.87 7.07-19.13-6.45-38.07 3.37-49.9 31.55-61.98 63.47 87.66 144.08 133.58 350.6 130.28 67.9-1.08 143.59-21.8 210.6-49 34.2 11.1 69.05 17.35 104.88 17.35 30.25 0 61.72-8.61 89.88-20.44 5.43 7.76 9.78 14.04 13.73 20.7 15.63 26.36 52.35 32.69 73.16 18.55 16.7-11.34 18.19-23.95 7.93-40.85-4.69-7.73-14.24-9.61-21.03-6.9-8.61 3.44-13.67 9.3-14.5 16.77-1.08 9.7-2.15 8.12-11.67 6.94-16.67-2.06-23.4-8.79-33.35-21.6 45.48-21.64 79.23-49.9 79.23-58.82 0-4.03-2.01-11.08-5.04-11.08-10.1 0-46.24 35.87-90.78 47.66-13.04-21.7-11.12-47.79-11.32-73.8 97.38-84.96 100.52-255.27 53.74-335.58-11.48-19.7-25.19-22.17-35.26-22.17h-5.04c-15.12 2.02-29.22 18.14-29.22 30.23 0 3.02 1 6.05 3.02 8.06 3.02 3.02 4.03 5.04 5.04 5.04 1 0 2.01-3.02 2.01-8.06 0-8.06 6.05-12.1 12.1-12.1 6.04 0 13.37 3.95 16.12 13.1.29.97 1.2 3.05 1 4.04-6.65 34.75-35.36 45.98-61.04 30.81-31.83-18.8-28.91-75 3.98-95.4 34.48-21.4 82.77-12 113.49-35.16 13.19-9.96 19.29-28.4 19.14-58.95-.12-24.27-5.95-46.98-30.23-63.98-16.02-11.22-34.25-19.14-42.31-19.14-2.02 0-4.03 0-4.03 2.01 0 1.01-.17 3.46 2.01 4.03 16.45 4.34 29.01 15.9 36.24 24.28 3.83 4.45 6.08 6.96 6.08 9.98 0 2.02-1 4.03-2.02 6.05-19.14 26.2-25.18 42.31-25.18 59.44 0 10.08 0 15.12 4.02 15.12 4.04 0 12.1-6.05 28.22-18.14 3.02-2.01 6.04-4.03 7.05-4.03 3 1.16-1.67 15.26-2.01 16.12-12.27 30.87-61.2 27.24-95.11 38.67-79.46 26.77-69.09 130.84-8.67 138.67 47.45 6.14 53.08-20.74 67.5-33.25 32.62 67.65 29.57 221.15-43.34 262.24-1.02-20.33 2.04-35.09 12.09-46.1 25.07-27.5 48.44-52.55 33.76-97.16-10.48-31.84-42.71-41.73-83.4-22-34.44 16.7-58.99-9.44-36.06-35.09 17.17-19.21 16.3-27.54-2.27-21.2-4.97 1.7-11.6 4.77-17.09 15.82-16.8 33.82-3.63 58.36 14.28 72.2 16 12.34 22.04 5.98 33.86 15.42 6.08 4.85 5.25 7.88-5.08 20.15-16.58 19.71-16.08 30.15 1.25 26.03 18.73-4.44 37.82-19.56 36.18-28.64-.91-5.07 3.99-9.1 14.54-11.96 19.31-5.24 27.83-2.7 23.2 10.34-21.16 59.54-99.9 66.4-123.9 54.66-29.91-14.62-52.78-36.01-31.63-68.67 13.9-21.46 12.8-23.18-3.2-19.17-19.22 4.82-32.86 23.14-30.84 48.46 2.05 25.62 15.67 30.42 19.93 44.63 2.98 9.93-18.9 7.33-31.23-5.01-13.75-13.75-24.21-18.36-45.12-19.88-12.26-.9-19.55 2.52-32.72 15.3-9.31 9.05-16.93 18.17-16.93 20.26 0 8.14 6.32 9.48 13.03 2.77 11-11 25.38-6.65 41.33 6.88 16.57 14.05 53.14 36.48 80.94 26.52 10.11-3.62 10.47-10.7 8.16-22.23-2.76-13.8-2.46-13.31 10.42-11.26 54.52 8.7 75.35 7.02 98.04-3.56 5.3-2.47 11.62-7.53 9.04.07-4.23 12.44-6.29 24.76-4.87 37.02a410.3 410.3 0 0 0-51.19 6.2c-25.23 4.8-34.25 9.08-42.31 22.17-5.04 9.07-8.07 14.11-8.07 17.13 0 5.04 6.05 5.04 20.16 5.04 18.13 0 27.2 3.02 27.2 7.05 0 3.03-7.14 6.91-17.13 13.1a624.24 624.24 0 0 1-38.26 21.8c-115.86-37.06-207.59-118.6-207.59-138.68 0-11.08 11.09-20.15 34.26-33.25 95.72-54.4 185.4-188.41 185.4-328.47 0-63.27-17.77-118.97-46.83-165.98 33.94 1.6 56.16 5.03 77.05 16.86 11.43 6.48 15.96 15.12 16.12 26.2.05 2.9-1.41 12.91-3.02 13.1-4.98-4.69-10.55-14.34-18.13-14.1-8.02.24-11.76 7.22-11.09 15.1.86 10.1 7.43 16.82 13.1 19.15 15.97 6.57.96 31.86-2.01 36.27-3.32 4.93-12.35 21.37-4.03 21.16 13.76-.35 27-20.6 30.22-26.2a69.95 69.95 0 0 0 9.07-37.28c-.38-11.83-2.01-23.5-2.01-35.26 0-8.06 1-10.08 4.03-10.08 2.01 0 6.04 1.01 11.08 4.03 12.09 6.05 18.13 15.12 18.13 33.25 0 9.07-2.01 21.16-5.03 36.28-2.02 9.06-3.03 15.11-3.03 19.14 0 3.02 1.01 4.03 3.03 4.03 2.01 0 4.03-1 8.06-2.01 5.04-2.02 8.06-3.03 10.07-3.03 3.03 0 4.03 2.02 4.03 8.06 0 15.12-8.06 25.2-21.15 25.2-9.07 0-21.17 8.05-21.17 13.1 0 1 1.01 2 2.02 3.01a18.97 18.97 0 0 0 8.06 2.02c23.18 0 69.92-31.28 54.58-80.41-26.32-84.24-85.7-91.66-177.27-100.92 36.69-14.07 89.1-28.66 117.42-24 13.1 2.16 29.64 15.34 33.48 26.99 7.99 24.2 11.09 28.21 25.2 28.21 15.1 0 27.2-16.12 27.2-30.23 0-4.03-1.01-8.06-4.03-12.09-4.03-5.04-6.05-8.06-6.05-11.08 0-2.02 2.02-4.03 5.04-4.03 4.03 0 11.08 2.01 20.15 7.05 11.08 6.05 19.15 18.14 22.17 30.23 3.02 13.1 8.06 19.14 12.09 19.14 4.03 0 11.58-6.49 8.06-20.15-9.17-35.54-47.3-67.1-83.66-66.19-30.73.77-55.45 23.05-102.74 20.85 48.86-23.09 65.98-65.77 73.18-69.8 8.89-1 20.93-4.61 32.38 12.5 11.84 17.67 17.28-14.86 30.46-16.25 6.01-.64 6.05 12.09 6.05 15.11 0 4.03 2.01 6.05 6.04 6.05 5.04 0 12.1-4.03 18.14-10.08 3.02-3.02 4.03-7.05 4.03-11.08 0-10.08-12.1-17.13-23.17-19.15-24.19-3.02-9.07-19.14 7.05-23.17 21.16-6.05 33.25-15.11 33.25-23.17 0-6.05-7.06-10.08-20.15-12.1-12.1-1-20.16-2.01-27.2-2.01-12.1 0-18.15 2.01-24.19 8.06 0 0-14.1 27.2-14.1-9.07 0-14.1-24.19-26.2-41.32-26.2-6.04 0-16.12 2.02-22.17 5.04-6.04 3.03-10.07 10.08-10.07 15.12 0 5.03 3.02 8.06 11.08 8.06 3.03 0 6.05-1.01 10.08-1.01s7.05-1 10.08-1c6.04 0 9.06 2 9.06 5.03 0 2.01-1 4.03-2.01 6.05-2.02 6.04-10.08 13.1-17.13 16.12-8.06 4.03-12.1 10.07-12.1 16.12 0 6.04 4.04 13.1 12.1 21.16 5.04 5.03 8.7 9.32 8.7 13.35-9.04 21.97-27.93 45.27-57.06 57.18-7.52 3.07-20.81 8.64-25.2 16.12-7.51 12.83-27.24 17.03-45.4 21.57 16.87-30.95 60.1-45.32 55.48-103.19-3.37-42.23-41.03-68.08-93.55-86.02C656.11 4.57 635.45-.34 603.12.02Zm-214.3 103.91c124.82 0 194.91 62.2 234.23 138.64a638.44 638.44 0 0 1-38.53 4.24c-.07-2.69.08-5.73.42-9.28 1.16-12.14-.1-18.93-3.5-18.93-2.92 0-10.75-4.28-17.4-9.51-5.72-4.5-8.9-6.77-12.05-7.01-3.14-.24-6.25 1.57-11.82 5.22-13.88 9.1-14.13 10.3-4.25 21.22 4.15 4.58 6.3 11.55 4.8 15.48-1.07 2.78 1.14 5.96-16.9 5.66-60.7-1.01-89.3 1.02-116.03-1.8-24.66-3.57-21.97-25.25-13.93-34.1 4.03-3.03 6.04-5.04 7.05-5.04 1 0 1 2.01 1 5.03 0 6.05 21.17 12.1 34.27 12.1 3.02 0 6.04 0 8.06-1.01 1 0 1-1 1-2.02 0-2.01-2.01-5.03-6.04-9.06-6.05-6.05-9.07-9.07-9.07-12.1 0-4.03 7.06-6.04 22.17-8.06 20.15-3.02 30.22-9.06 30.22-18.13 0-5.04-4.03-12.1-11.08-19.15-14.1-14.1-24.18-20.15-28.21-20.15-2.02 0-3.02 1.01-3.02 3.03 0 2.01 1 4.03 2.01 7.05 2.02 4.03 3.02 7.05 3.02 9.07 0 5.03-5.03 6.04-20.15 9.06-8.06 2.02-15.11 2.02-21.16 2.02-6.04 0-10.07 0-14.1-2.02-4.03-1-7.06-2.01-12.1-2.01-5.03 0-11.08 1-19.14 3.02-12.09 3.02-14.89 10.94-16.97 23.88-4.08 25.32 5.62 34.4 15.55 53.47-36.7 3.94-42.42 10.14-64.07 18.37v-1c0-3.03 2.02-12.1 5.04-24.19 4.03-18.13 7.05-33.25 7.05-43.32 0-10.08-3.02-15.12-7.05-15.12-5.04 0-12.1 10.08-15.12 20.15-3.02 10.08-10.07 21.16-17.12 22.17-8.06 2.02-12.1 7.05-12.1 13.1 0 5.04 4.04 11.08 12.1 12.09 8.06 1 13.1 6.05 13.1 11.08 0 6.05-1.28 9.55-22.45 19-21.92 9.8-42.11 21.03-64.67 36.64C205 190.22 301.68 103.93 388.82 103.93Zm240.1 150.54c40.55 87.12 44.04 189.02 44.04 238.38 0 125.95-86.66 240.81-217.64 240.81-28.25 0-55.08-7.6-80.08-21.02-.12-2.92-.3-5.87-.63-8.91-5.83-54.43-34.17-89.67-34.17-155.16 0-9.07 4.98-26.33 10.01-32.38-2.9 55.33 11.32 102.13 62.63 123.73-.82 13.62 3.2 20.75 14.9 25.88 14.09 6.2 32.85-4.09 33.57-20.04.14-3.04 3.9-1.64 8.65 3.12 6.96 6.96 7.46 10.53 2.58 18.35-8.7 13.93-7.53 21.93 4.29 29.31 9.25 5.78 39.5 4.63 45.87-1.74 1.3-1.3-2.34-8.74-8.1-16.52-11.6-15.69-11.54-31.77 6.65-39.2 41.36-16.93 58.54-29.94 72.67-56.18 4.02-7.47 3.41-13.15 9.65-4.85 10.09 13.44 27.34 3.47 34.3-19.83 3.5-11.69 6.4-21.54 6.43-21.89.04-.35-4.2-1.75-9.42-3.12-6.67-1.74-14.42-8.05-11.93-18.48 13.05-54.68-13.7-117.95-34.87-151.85 1 0 4.03 2.01 8.06 5.03 5.04 4.03 10.08 6.05 14.1 6.05 8.07 0 12.1-8.06 12.1-23.17 0-20.16-17.13-36.28-38.3-36.28-2 0-4.02 0-4.02 1.01 0 1 2.01 2.02 5.04 4.03 7.05 4.03 10.07 12.1 10.07 19.14 0 6.05-3.02 10.08-8.06 10.08h-1c-5.04-1-16.7-11.5-27.2-22.17-36.33-36.88-76.54-48.46-120.16-66.08 33.22 1.56 75.48 3.21 118.58 1.3.53 2.1 1.3 4.84 2.47 8.46.18.55.33 1.08.48 1.6 4.75 10.33 18.5 16.77 30.73 13.7 14.13-3.54 14.53-8.06 1.75-19.97a30.03 30.03 0 0 1-5-5.81 811.55 811.55 0 0 0 40.95-5.33Zm-265.96 3.1c3.51 8.74 3.63 30.85-3.94 36.74-9.98 7.78-14.48 14.04-10.5 31.29 2.95 12.8 7.05 17.13 36.27 26.2 28.21 9.06 49.1 18.54 45.2 34.8-3.4 14.15-8.67 17.82-25.05 18.6-1 .04-2.01-1.01-2.01-2.02 0-3.02-4.03-5.04-9.07-5.04-6.05 0-9.7 3.07-9.07 7.05 1.76 11.13 12.41 15.26 21.16 15.12 27.4-.44 49.85-13.92 50.38-34.26.52-20.2-1.8-28.67-21.16-33.25-9.8-2.32-14.1-3.02-17.13-12.09-1-3.02-1-5.04-1-7.05 0-6.05 4.02-9.07 17.12-11.09 14.1-3.02 20.15-7.05 20.15-12.09 0-7.05-12.09-14.1-34.25-15.11H413c-10.07 0-14.1 2.01-14.1 7.05v2.02c0 5.04-4.03 11.08-10.08 12.09-1 0-3.02 1-4.03 1-3.02 0-9.55-5.29-8.54-8.14 8.05-22.66 8.55-38.39 6.58-50.8 38.58 15.62 135.77 24.3 150.07 105.3.18.99 0 2.01-1 2.01-2.02 0-5.99-2.16-13.1-5.04-15.58-6.3-28.12 3-28.21 22.17-.07 14.1 4.03 28.21 9.06 30.23a5.54 5.54 0 0 1 3.03 5.03c0 8.06-10.08 25.2-21.16 30.23-5.04 3.02-8.06 10.08-8.06 15.11 0 5.04 2.01 9.07 7.05 9.07 15.11 0 44.33-28.21 46.35-45.34 2.01-13.1 6.04-19.14 12.09-19.14 3.02 0 7.05 2.01 11.08 7.05 3.03 4.03 4.03 9.07 4.03 15.11 0 17.13-10.07 39.3-22.16 43.33-9.07 3.02-14.11 5.04-14.11 8.06 0 3.02 4.03 7.05 12.1 11.08 5.03 3.03 8.05 4.03 10.07 4.03 2.01 0 4.03-1 5.03-3.02 2.02-3.02 4.03-4.03 6.05-4.03 3.02 0 5.25 3.03 5.04 7.05-1 19.17-24.96 26.84-39.3 22.17a11.6 11.6 0 0 1-8.06-11.08c0-5.04-5.04-9.07-10.07-9.07-4.03 0-7.04 2.14-6.05 6.05 6.02 23.75 25.65 27.14 37.28 27.2 32.24.17 52.24-34.27 51.39-77.58-1.05-53.04-21.24-87.15-48.31-132.27 63.28 53.53 81.86 129.15 77.57 167.18-1.78 15.78-3.46 20.3-9.5 26.96-6.87 7.57-17.37 27.99-16.57 43.13.36 6.93-3.54 13.92-5.47 17.84-14.85 30.12-32.81 33.84-60.89 42.92-14.81 4.8-19.05-23.69-5.59-38.02 15.38-16.37 12.55-26.84-3.4-26.53-5.3.1-12.08 1.4-20.12 4.08-25.6 8.54-33.55 30.1-17.4 47.27 10.5 11.19 9.05 16.02 2.25 19.01-2.69 1.18-14.81 2.68-17.05-.34-3.08-4.16-4.08-9.85-11.49-18.8-15.02-18.15-23.55-12.72-25.02 3.32-1.4 15.32-3.93 15.9-15.34 11.5-32-12.31-44.33-53.4-44.33-103.78 0-22.16 20.15-42.32 38.29-42.32 17.12 0 36.27 10.08 36.27 28.22 0 12.09-4.03 17.13-12.1 17.13-12.08 0-14.1-10.08-24.17-10.08-6.05 0-11.09 5.04-11.09 12.1 0 13.09 17.13 25.18 37.28 25.18 25.2 0 36.28-20.15 36.28-43.32 0-33.25-33.25-46.35-59.45-46.35-40.3 0-73.55 48.36-73.55 96.72 0 48.93 26 97.05 31.25 148.01-97.38-63.73-163.28-216.4-168.88-345.92 17.87-6.52 35.23-10.45 50.1-10.5 10.07-.04 19.01-.16 19.01 5.89 0 3.02-1.75 5.42-6.05 8.06-8.82 5.43-8.66 19.96-2.94 25.86 6.94 7.16 11 7.4 11 13.44 0 7.05-4.03 11.08-13.1 11.08-7.04 0-24.62-4.78-13.1 4.03 4.81 3.67 11.1 5.04 26.2 5.04 27.21 0 31.24-4.03 37.29-33.25 1-5.04 2.01-8.06 4.03-8.06 2.01 0 4.03 4.03 10.07 14.1 4.03 7.06 6.05 12.1 6.05 16.13 0 6.04-4.03 10.07-13.1 18.13-11.08 9.07-17.09 13.78-19.96 17.92-4.9 7.07 6.86 10.3 13.91 11.3 4.03 1 5.04 1 5.04 2.02 0 1-1 3.02-4.03 4.03-4.03 2.01-10.07 3.02-17.13 3.02-14.1 0-28-5.52-34.3-8.28-5.44-2.39-9.96-13.84-13.05-12.88-2.9.9-2.74 3.56-1.01 9.07 2.72 8.65 22.34 23.42 46.33 25 29.16 1.93 58.46-26.01 58.46-62.28 0-48.36-42.32-84.58-99.75-84.64-19.54-.02-33.36 4-50.38 7.99 0-3.08.11-6.12.22-9.16 50.12-39.24 124.69-70.83 172.4-72.9ZM94.1 417.5c8.98 173.7 137.64 302.68 258.13 337.25-13.38 28.36-40.36 51.46-62.16 51.46-5.04 0 3.02-7.05 3.02-21.16 0-15.11-9.07-23.17-16.12-23.17-13.1 0-42.32 25.19-54.4 25.19-9.08 0-17.14-5.04-17.14-13.1 0-7.06 1.01-20.15 9.07-44.34 1-4.03 2.02-6.04 2.02-8.06 0-1 0-2.01-1.01-2.01-2.02 0-5.04 2.01-11.09 6.04-8.06 6.05-13.1 18.14-13.1 31.24 0 47.35 45.35 63.48 86.66 63.48 30.9 0 72.68-20 89.69-61.59a234.87 234.87 0 0 0 17.11 3.15c21.16 3.02 54.4 21.15 82.62 44.33 68.77 55.64 136.76 103.5 207.1 131.83-59.5 21.85-116.4 32.75-150.92 24.58-11.78-2.8-18.37-2.49-26.5-9.32-18.28-15.36-21.27-41.53-2.6-38.98 11.63 1.58 18.28 17.13 6.27 14.57-7.62-1.63-11.36 2.03-8.74 4.96 12.3 13.77 22.15 5.15 26.5 1.3 10.98-9.75 12.34-34.2-18.9-48.41-25.26-11.5-59.83-13.68-83.26-28.06-21-12.9-31.32-33.72-21.66-48.48 9.6-14.67 9.04-20.88-.59-21.03-2.22-.03-5.67-.72-7.9 1.64-28.83 30.56-9.98 83.27 19.8 98.73 19.74 10.23 23.9 22.3 7.12 22.3-14.38 0-12.2 3.42-4.69 18.07 10.25 19.98 21.6 24.2 47.2 24.44 3.84.03 12.42 2.93 19.6 9.62 1.21 1.13 5.51 4.37 17.3 8.98-20.71 2.37-60.07 6.43-81.55-7.54-37.86-24.62-68.56-43.02-89.6-56.34-23.72-15.03-9.21-23.24 6.98-20.24 6.94 1.29 20 4.11 22.16-3.02 2.36-7.74-3.45-11.18-25.93-21-61.91-27.07-124.42-31.31-169.54-17.3a586.78 586.78 0 0 1-42.31-58.43c-5.04-6.05 8.06-6.05 18.13-6.05 8.06 0 18.14 2.02 23.18 5.04 5.03 3.03 7.05 5.04 9.06 5.04 2.02 0 2.02-2.01 2.02-7.05s-3.02-11.08-7.05-12.1c-4.03-1-10.08-8.05-13.1-15.1-4.03-9.08-12.1-13.1-29.22-15.12-13.1-1-18.14-4.03-18.14-7.05 0-.96.92-1.97 1.88-3.8.53-.41 1.04-.83 1.48-1.25 2.66-2.5 5.42-6.1 8.87-9.09 9.74-8.42 8.58-19.03 5.3-28.29-4.02-11.34-6.06-25.24-4.61-30.9 5-19.55 22.51-12.46 27.1 4.3 2.3 8.38 3.85 18.03 7.64 3.31 2.68-10.43-1.32-20.2-10.3-30.57-4.4-5.1-6.75-12.56-14.81-13.78-5.66-.86-11.14 1.45-15.77 4.33-8.02 4.99-15.02 11.28-19.52 19-6.16 10.6-19.26-8.33-20.88-26.43-3.65-40.73-6.4-99.65 1.65-130.7 4.05-15.59 11.87-28.84 15.9-45.96 4.03-17.13 4.4-21.08 10.35-27.22.7-.71 1.48-1.42 2.2-2.14Zm773.93 436.06c1.03 30.1 6.22 50.93 12.76 65.54-4.4.6-8.87.97-13.38.97-28.17 0-56.14-4.02-83.16-10.69 35.9-19.45 65.29-39.2 83.78-55.82Zm-687.55 5.96c74.32-2.33 131.1 73.12 203.1 110.52-122.65-3.3-180.55-55.06-218.21-108.98 5.12-.88 10.15-1.38 15.1-1.54Z"/></svg>
