<svg viewBox="0 0 1000 1000"><path d="M291.84 1.74c-46.46.91-88.08 4.54-131.8 21.41-32.62 12.59-60.1 35.94-82.39 65.7-6.82-17.97-18.75-22.6-9.47-56.06 5.47-19.72 3.68-28.92-14.86-30.24-18.53-1.3-23.84 6.33-27.38 28.27-1.54 9.56.28 22.48 10 21.07 9.73-1.41 16.64 4.74 14.22 12.78-3.76 12.48-20.75 42.02-5.93 69.44H4.05c-5.03 0-5.03 8.84 0 9.82 14.69 1.95 27.05 5.68 37.73 10.69-26.3 62.8-37.07 136.74-29.24 202.7 9.16 77.16 48.27 119.05 80.26 134.3-27.51-4.53-76.5 9.8-88.24 28.37-8.65 13.68-4.91 15.27 10.5 8.13 15.44-7.15 36.72-6.1 47.97 2.23 30.48 22.58 39.97 26.28 54.15 20.02 8.26-3.65 13.32-10.07 13.3-16.91-.07-13.43 4.31-18.58 13.27-15.24 14.35 5.35 35.97 10.18 38.79 16.84-51.39 18.5-160.85 91.6-173.1 174.32-14 94.57 31.58 158.91 74.59 169.38 59.43 14.47 78.9 21.94 24.05-36.33-68.5-72.81-30.38-195.2 22.92-229.36 28.93-18.54 42.06 73.64 38.8 93.63-2.8-.75-8.12-3.23-12.55-3.82-17.1-2.27-27.7-7-41.85 15.67-9.52 15.26-11.27 24.15-7.48 42.5 9.11 44.15 64.27 90.26 98.19 101.89 39.13-28.03 65.49-86.85 56.7-145.26-2.69-17.92-32.77-38.04-53.49-31.13-7.4 2.47-15.63 9.24-19.95 14.23-.13-6.96.08-13.27-1.91-23.86-15.2-81-12.67-111.08 32.2-127.73l134.09 368.45c-12.17 9.05-12.5 28.34 5.34 43.1 5.93 4.92 9.54 9.27 5.95 13.23-6.14 6.78-26.2 4.72-45.9-2.21-21.2-7.45-26.55-17.98-31.11-23.98-4.93-6.47-.69-14.67 14.77-23.6 12.74-7.36 8.62-26.13 1.22-37.2-15.83-23.7-27.42-33.69-41.87-32.78-6.57.42-15.03 1.27-22.16 7.74-15.55 14.13-12.39 40.94.57 53.9 7.92 7.93 17.06 17.23 6.64 14.13-39.27-11.7-65.24-3.31-80.67 2.85-30 12-30.36 43.91-46.5 44.53-10.75.42-18.58-17.02-26.73-24.35-8.84-7.96-30.66-24.1-61.03-19.8C6 936.94.37 943.16.29 968.63c-.1 26.45 16.53 35.2 48.44 25.52 14.58-4.43 19.5-16.04 8.18-19.26-9-2.56-1.03-18.89 9.39-19.25 4.84-.17 17.52 13.3 28.17 23.96 19.13 19.14 19.84 19.37 56.73 18.05 33.14-1.18 37.3-2.4 37.26-10.82-.05-10.62-11.66-16.33-23.5-11.54-12.77 5.17-10.04-17.85 3.16-24.52 36.05-18.22 77.34-9.78 93.42 7.76 5.52 6.02-8.4 6.17-19.96 12.26-9.59 5.05-13.71 14.74-3.9 21.46 10.02 6.87 54.95 8.5 54.91 1.99 0-1.85-4.14-7.63-9.18-12.85-8.88-9.2-8.73-9.53 3.84-6.1 13.8 3.74 40.22 17.2 69.38 21.66 23.48 3.6 93.64.32 116.9-13.87 15.96-9.75 19.7-5.6 40.17 4.99 15.5 8.01 35.44 10.4 61.32 10.26 50.43-.28 88.4-43.03 116.7-36.77 11.2 2.47 10.27 7.85-2.33 16-13.6 8.8-5.09 19.72 14.87 19.08 40.48-1.3 43.64-33.2 4.13-41.38-17.68-3.66-15.77-12.19 4.13-18.53 47.16-15.03 107.26 6.42 96.8 34.52-2.17 5.87-5.26 6.7-12.35 3.29-14.58-7-25.44-4.87-25.27 4.93.1 5.65 7.7 12.33 18.16 15.73 14.59 4.74 38.94 6.86 50.56-13.26 9.17-15.89 73.72-37.6 99.63-37.54 21.03.05 22.27 17.55 1.72 20.06-16.12 1.98-17.72 3.52-16.06 15.43 1.48 10.62 5.5 13.96 20.3 16.98 10.14 2.06 24.42 2.06 31.74 0 12.36-3.5 22.7-18.14 22.23-32.2-.46-14.06-10.1-32.65-23.2-36.7-15.36-4.74-34.05-5.42-53.33-2.9 18.3-22.97 39.48-57.41 49.45-76.28 44.57-84.35 21.95-207.26.78-245.27-15.4-27.64-22.45-45.88-39.37-67.5-5.2-8.33-6-21.3-1.96-31.2 7.33-18.03 11.93-23.08 21.61-23.75 9.01-.63 12.92 2.07 14.64 10.1 1.66 7.75 5.67 10.72 13.73 10.15 13.08-.91 16.9-9.72 16.9-50.9a80.98 80.98 0 0 0-17.34-50.67c-12.33-15.93-23.44-24.62-35.55-27.83-17.3-4.58-34.35-.14-43.86 10.8-14.73 16.93-20.78 39.68-12.48 46.9 7.13 6.2 15.87-.26 15.1-11.16-.87-12.53 8.47-21.06 24.28-22.16 18.59-1.3 28.84 18.4 18.85 36.24-3.69 6.6-6.5 14.85-6.26 18.35.24 3.5-3.74 9.4-8.85 13.12-11.8 8.57-20.27 25.86-24.08 47.02-27.48-32.12-55.64-57.95-82-80.26l51.63-164.4c9.63-30.65 23.1-57.07 39.12-77.48-1.5 13.7.7 29.6 7.35 44.94l16.23 37.4c5.65 13.03 7.43 23.67 5.52 33.06a435.42 435.42 0 0 0-3.93 22.22c-.67 4.94-5.54 9.85-11.88 11.98-26.3 8.85-44.02-26.64-21.27-42.59 5.36-3.75 8.55-9.2 7.56-12.89-2.07-7.66-17.49-.05-23.94-3.61-7.6-4.2-14.16 22.92-10.15 40.8 7.1 31.69 23.8 35.64 33.35 37.13 14.83 2.31 20.21.83 36.56-10.14 11.4-7.65 20.99-17.82 23.68-25.1 2.5-6.75 9-19.8 14.45-29.02 7.8-13.2 9.27-19.1 6.9-27.7-3.32-12.04-4.07-36.4-1.79-43.25 1.41-4.24-1.39-11.94-3.87-15.66-2.49-3.72-7.14-13.9-10.32-22.62-5.08-13.95-4.92-17.94 1.92-38.68a75.3 75.3 0 0 1 11.45-.98c6.1 0 5.03-10.8 0-9.82h-8.24C1014.48 59.1 962.06 8.04 891.42 7.53c-90.54-.66-142.9 26.46-158.66 41.44-10.2 9.7-35.55 29.74-51.97 74.8.62-15.88 4.61-34.29 10.63-40.17 11.98-11.71-6.41-38-24.74-35.37-9.58 1.38-18.35-2.58-21.4-9.67-2.86-6.6-15.45-15.38-27.99-19.53-25.77-8.52-59.17 10.07-63.37 35.27-2.2 13.15.59 16.49 21.08 25.25 24.95 10.67 36.28 5.95 36.52-15.23.11-9.8 3.42-15.18 12.66-12.7 29.97 8.03 43.23 25.97 34.65 58-1.78 6.63 1.61 14.43 5.11 24.5H559.46c-5.03 0-5.03 8.84 0 9.82 20.09 1.96 47.22 32.9 40.6 57.56-1 3.74-1.79 6.4-2.74 9.89-28.38-20.06-52.65-23.12-73.36-16.36 8.34-18.35 14.34-38.72 16.1-61.42 6.8-87.9-99.07-118.14-141.14-125.73-21.04-3.8-62-7.01-107.08-6.13zm36.8 16.83c108.19 1.45 195 51.27 189.96 115.54H299.7c-5.02 0-5.02 8.84 0 9.82 66.08 8.74 93.18 52.18 109.53 97.11l13.43 36.26c-5.8 3.4-11.36 6.49-16.23 9.07-28.42 15.1-64.09 19.52-67.12-11.49-2.54-26.03-14.55-42.5-31.46-43.14-8.69-.34-18.01 3.4-20.73 8.28-6.22 11.19-22.74 2.88-21.56-10.85.47-5.5 5.62-17.85 11.44-27.44 12.05-19.82 5.22-33.89-11.43-23.55-13.28 8.24-22.5 58.15-15.03 81.3 2.82 8.7 12.02 25.96 20.46 38.34 13.5 19.82 19.43 23.42 49.65 30.23 35.62 8.02 45.72.85 108.62-32.9l65.99 178.2c-8.5 23.72-18.71 51.66-28.38 78.43a288.57 288.57 0 0 0-27.06-12.15c-8.66-4.46-18.76-11.41-17.48-18.68 3.39-19.34 26.38-21.33 7.97-31.88-15.18-8.69-35.97-5.96-50.83 6.67-16.14 13.71-18.2 14.57-29.1 6.35-28.49-21.47-23.36-37.78-7.31-80.49 5.61-14.95 16.03-11.92 22.2-5.18 9.08 9.91 20.12 20.74 7.88 36.4-8.6 11.03-.48 17.84 15.65 9.23 33.05-17.64 14.2-67.24-13.89-72.9-18.08-3.65-36.32 1.47-8.78-24.4 5.82-5.46.72-9.93-7.68-10.4-17.7-1-28.7.41-38.58 13.04-4.86 6.23-1.85 27.98-7.97 40.49-11.04 22.54-18.99 75.1 25.74 111.98-10.6-.45-21.5-.6-32.41-.66L208 258.7c-26.26-70.36 11.75-110.31 54.41-114.77 6.08-.65 5.03-9.82 0-9.82H241.5c.75-1.9 1.45-3.94 2.08-6.17 5.88-20.93 2.56-34.68-11.6-48.05-6.72-6.36-14.3-10.35-22.85-11.98-14.26-2.72-31.22 1.13-51.46 11.53-15.18 7.8-40.46 16.76-52.03 17.9 20.68-23.85 45.7-43.72 76.14-55.6 15.6-6.1 32.22-10.83 45.7-14.1 13.5-3.28 44.16 9.73 48.76 20.16 3.6 8.15 3.14 9.48-4.66 13.45-15.32 7.81-19.2 15.05-12.34 23 9.98 11.55 26.8 19.84 34.99 17.25 4.1-1.3 10.6-1.47 14.42-.42 26.18 7.24 51.03 8.18 72.65.77 15.36-5.27 22.55-15.56 20.39-26.69-1.36-7-18.14-22.32-23.45-21.4-5.8 1-7.42 18.06-2.5 26.47 3.75 6.4 3.39 7.45-3 8.69C351.65 93 343.09 87.38 319 56.38 300.85 33 291.86 32.46 278.12 21.37a370.57 370.57 0 0 1 50.51-2.8zm542.07 4.47c80.62-.57 123.04 44.37 99.16 111.28l-198.87-.2c-5.03 0-5.03 8.83 0 9.81 56.49 5.52 73.59 50.78 52.84 123.26l-37.3 130.3c-26.38-21.43-49.1-40.46-64.28-60.49-3.96-5.22-6.66-12.06-9.8-18.37 6.45-8.85 13.15-11.44 18.84-4.69 5.16 6.12 26.65 4.81 35.27-2.15 3.77-3.05 7.33-14.16 7.9-24.69 1.32-24.15 8-29.78 28.2-23.73 21.5 6.44 28.89-1.3 19.06-20.01-5.97-11.38-12.65-16.9-23.83-17.59-6.7-.42-15.03.9-25.78 3.72-22.22 5.83-63.48 43.35-64.81 58.93-.16 1.86-1.99 4.7-4.04 7.74-13-42.43-12.78-97.51-1.91-145.31 9.87-2.66 21.18-4.96 35.68-6.92 5.67-.76 5.13-9.57.9-9.87-.28-.02-.58 0-.88.05H705.7c11.02-37.65 29.02-68.8 52.82-82.12 12.48-6.98 30.76-2 43.17-.18 46.3 6.82 57.1 13.87 78.1 45.96 6.54 10 16.17 21.17 16.17 21.17s5.4-27.42 2.66-40.75c-3.02-14.76-1.21-24.12-20.45-40.3-8.03-6.75-21.95-9.89-35.47-11.37 11.13-2.08 21.1-3.43 28.02-3.48zM737.94 134.06h.01-.02zm-538.28-43.3a47.22 47.22 0 0 1 16.37 3.28c19.83 7.52 23.55 24.38 4.82 21.89-15.28-2.03-23.34 8.28-21.83 18.18H164c5.23-3.51 7.07-8.97 7.87-19.01 1.22-15.36 12.52-24.43 27.8-24.33zm-44.6 6.47c1.27.04 2.27.42 2.9 1.14.85.97 1.04 2.55.41 4.78-1.44 5.12-15.06 10.45-28.01 10.98-1.06.04 2.5-3.73 7.92-8.39 6.63-5.7 12.96-8.62 16.78-8.51zM516.6 146.4c-5.76 22.53-13.32 41.28-21.9 57.1-4.76-30.78 1.27-50.28 21.9-57.1zm444.84 5.8a14.2 14.2 0 0 0-1.06 3.64c-1.32 12.72-1.41 12.76-8.83 4.5-.62-.69-1.14-1.08-1.71-1.65a97.88 97.88 0 0 1 11.6-6.49zm-291.68 13c0 1.03.12 1.95.09 3-.7 20.2-5.47 40.38-3.62 58.75-6.24-3.06-12.95-4.49-19-3.06-2.34-4.97-4.49-8.2-6.63-10.68 9.07-22.5 16.27-37.67 29.16-48zm-607.42 2.17c23.16 18.78 35.08 45.93 45.17 73.67l97.85 268.87c-100.45-28.95-147.08-52.06-161.5-129.77-1.42-7.68 5.7-16.56 10.2-28.1 11-28.2 74.1-12.64 65.56 16.15-4.45 15.02-15.33 21.44-32.34 19.08-16.12-2.23-17.63 3.1-6.61 23.38 8.33 15.34 29.67 32.38 32.35 23.06 9.02-31.37 33.74-66.88 19.1-96.06-15.72-31.3-43.79-37.34-79.31-16.68a117.48 117.48 0 0 0-17.05 11.83c-.57-4.5-1.28-7.87-1.82-12.7-4.6-40.76 4.4-98.96 28.4-152.73zm881.92 26.94c2.18.23 3.7 3.07 3.36 6.32-.34 3.25 2.3 12.66 5.88 20.91 7.33 16.95 3.57 19.31-7.09 4.47-7.45-10.38-8.95-32.4-2.15-31.7zm-388.48 9.9c10.8.79 22.75 8.34 36.07 26.9-11.95 42.45-21.55 71.76-42.86 137.56l-39.3-109.96a464.08 464.08 0 0 1-7.17-21.83c15.01-10.87 31.98-34.2 53.26-32.66zm72.42 40.1c9.15 14.56 17.17 34.22 43.56 28.55 1 15.88 5.6 30.7 12.5 44.93-15.43 15.64-29.5 35.35-38.16 50.4-37.08 64.39-45.79 119.1-37.86 166.16L563.19 408.4l65.02-164.08zm334.16 4.87c.53.04 1.12.28 1.78.73 3.86 2.68 4.62 22.78 1.36 35.8-1.1 4.41-3.26.12-4.79-9.52-2.75-17.43-2.09-27.26 1.65-27.01zm-263.7 90.07c19.95 28.85 48.78 55.59 80.88 82.62l-66.6 232.6c-2.88-2.69-5.83-5.4-8.35-8.05-22.46-23.64-44.24-41.3-56.27-84.3 3.55.82 7.84 2.13 13.1 3.93 14.7 5.03 33.77 7.75 42.34 6l15.6-3.17-13.78-7.9c-55.75-31.93-60.25-38.04-48.16-65.08 8.24-18.43 17.3-17.07 19.13 2.88 2.29 24.85 29.3 24.72 39.25-.19 7.63-19.12 30.83-27.28 27.98-9.85a7.66 7.66 0 0 0 6.1 8.7c12.9 2.42 10.93-17.49-3.55-35.85-7.72-9.8-23.73-23.85-35.6-31.22-18.2-11.33-24.64-12.08-41.58-4.9-12.37 5.24-26.03 22.99-34 40.29 4-34.64 23.14-74.48 50.18-109.46 4.64-6 9.03-11.35 13.32-17.05zM819.35 455.2c29.22 25.1 52.84 50.98 87.83 92.31 1.83 2.7 1.32 3.94.91 7.25-11.03-6.02-21.4-10.94-26.52-11.04-68.7-1.36-107.93 48.3-106.77 62.9 1.52 18.97 15.27 57.52 27.42 70.94 5.84 6.45 16.93 11.73 24.64 11.73 15.55 0 29.54-19.97 24.04-34.3-3.04-7.93-4.73-7.84-13.31.73-8.6 8.6-11.46 8.76-22.8 1.23-9.72-6.46-12.8-14.45-12.38-32.07.52-21.5 2.82-24.58 27.33-36.65 42.56-20.97 57.69-22.46 72-7.1 15.77 16.94 15.9 33.4.27 38.36-17.36 5.51-15.27 11.54 12.14 35 13.36 11.44 24.29 23.65 24.29 27.14 0 3.49 6.35 7.95 14.13 9.9 15.68 3.93 23.85 28.04 24.54 43.15 1.67 36.22-5.63 48.68-14.42 74.88-13.3 39.6-26.14 10.43-44.92-14.55-8.55-11.37-19.62-24.48-23.52-29.97-11.93-16.75-25.95-28.92-44.22-34.49a390.33 390.33 0 0 1-101.98-48.37l71.3-226.98zm-305.73 67.79 34.52 93.2a237.59 237.59 0 0 0-52.12-47.51c3.27-8.96 6.38-17.98 9.7-26.92a1201.4 1201.4 0 0 1 7.9-18.77zm-200.1 12.77c9.8.17 20.15.76 30.89 1.93-.58.87-.93 1.61-1.71 2.62-4.3 5.5-7.73 19.9-7.6 31.97.29 28.23 14.3 40.25 42.82 36.75 28.65-3.52 32.08-10.42 13.14-26.48-19.22-16.28-11.48-23.72-3.53-26.09 4.32-1.28 13.42-3.77 19.92-4.26a272.62 272.62 0 0 1 50.82 23.35c-25.27 69.62-50.58 138.27-66.5 175.57l-80.35-215.3c.74 0 1.35-.07 2.1-.06zm173.07 59.1c23.16 18.27 45 41.84 63.86 72.74 46.56 76.3-3.44 149.76-18.42 167.65-4.25-50.73-26.73-90.24-78.5-95.2-7.66-.74-14.28.28-19 2.15 17.27-49.14 34.46-98.3 52.06-147.33zm145.28 5.57c13.65 24.4 31.39 46.29 50.84 65.92 6.35 6.4 13.7 12.76 21.38 19.03l-18.6 64.97-53.62-149.92zm-563.6 44.03c-16.05 43.8-27.1 73.6-22.16 111.3 8.03 61.17 36.95 89.52 36.95 89.52-38.54-11.01-46.54-41.29-52.72-83.01-6.15-41.5 11.89-86.83 37.94-117.8zm670.82 66.26c29.2 18.83 59.88 33.74 81.35 38.71-6.35 9.5-27.5 19.32-29.74 30.88-.75 3.89 8.94 10.6 20 14.76 13.96 5.24 23.54 14.19 32.1 28.68 9.18 15.56 31.95 33.37 30.12 15.43-.36-3.5-2.28-15.29-6.28-28.16-4-12.87-16.13-44.9-1.26-36.35 20.8 11.97 72.9 76.43 63.4 98.28-12.96 29.8-39.62 60.98-53.2 66.79-25.66 10.96-40.6 15.6-49.02 7.19-10.07-10.07-27.76-18.1-40.36-22.04-19.63-6.13-18.71-14.69 6.15-17.3 26.27-2.78 39.4-20.14 25.7-43.86-12.08-20.94-44.28-20.74-68.35-6.85-12.96 7.48-27.63 16.15-17.38 33.56 12.83 21.75 5.92 26.1 3.99 28.03-2.58 2.58-10.96 3.38-17.92 4.65-8.37 1.52-36.64 10.5-60.84 26.4-38.99 25.6-64.09 35.32-71.3 22.83-4.93-8.55-3.54-9.73 13.74-11.73 22.82-2.64 21.61-17.62 15.96-26.71-4.31-6.95-12.1-15.54-23.64-17.54 8.25 18.57-4.64 26.52-19.4 24.76-20.96-2.5-37.1 8.94-24.63 22.98 6.38 7.18 8.43 10.5 8.57 14.35.46 12.15-44.9-7.24-53.43-17.44-6.36-7.61-25.1-8.8-29.14-2.51-9.65 15.04-35.77 24.16-41.93 15.95-10.23-13.64 38.22-35.6 78.48-83.05 8.13-3.07 13.65.92 17.06 7 4.03 7.19 14.6 14 25.64 10.35 14.8-4.9 28.19-33.78 25.76-55.61-1.15-10.33-1.83-17.07-7.46-17.19-4.77-.1-9.9 1.35-17.94 7.16-1.12.8-2.12 1.29-3.2 2.01 16.43-21.17 32.88-40.75 37.2-58.7a195.77 195.77 0 0 0 5.33-48.51l74.3 200.63 71.57-227.83zM144.95 732.7c2.49-.17 5.5-.03 8.96.58 16.58 2.89 38.1 12.4 45.87 23.98 6.07 9.05 10.19 15.13 20.8 22 10.94 7.1 19.84 10.72 14.3 14.67-6.03 4.3-25.09-2.2-29.73-9.17-10.65-16-17.53-24.61-25.84-31.1 1.12 20.9 5.56 36.43-11.6 56.2-8.6 9.91-15.26 11.74-16.65 4.62-.57-2.88 3.13-4.05 6.27-6.67 6.82-5.69 12.16-9.9 11.25-41.02-.8-27.86-16.65-18.39-29.97-27.49-3.85-2.63-1.11-6.06 6.34-6.6zm285.6 20.63c3.06 2.72 8.84 5.48 18.29 7.9 33.84 8.71 37.4 61.16 9.78 90.18-13.04 13.71-15.07 19.08-10.4 27.56 3.86 7.02 9.65 9.84 17.35 8.45 3.27-.6 14.84-2.44 21.38-1.35-13.63 14.44-43.94 48.72-73.42 66.81-18.41 11.3-47.54-7.34-27.62-23.78 3.77-3.11 7.24-5.27 13.7-7.4-4.79-3.84-11.05-5.2-16.97-7.12a39.19 39.19 0 0 0-11-1.97c20.83-52.68 40.1-105.9 58.92-159.28z"/></svg>
