<svg viewBox="0 0 1000 1000"><path d="M161.33 4.73v.02h.01c-1.8-.03-4.05.41-6.8 1.45-9.8 3.7-8.07 9.65-24.29 13.55-19.08 4.6-22.73 15.25-7.74 14.26 10.13-.67 11.26.61 9.58 10.97-1.39 8.62-15.86 1.38-44.95 11.37-26.75 9.18-34.57 16.8-35.52 34.47-.93 17.5 3.33 20.53 10.87 7.7 8.95-15.22 24.46-23.94 33.38-18.74 13.42 7.83-12.98 19.03-25.78 36.02-39.22 52.05-59.7 149.75-38.62 237.13-2.48 28.47-4.93 65.93 12.11 106.83-24.28 9.88-36.93 53.95-21.66 69.48 5.42 5.5 6.18 5.78-4.84 16.47-13.35 12.95-16.41 30.59-6.9 39.82 4.4 4.26 9.51 2.75 22.1-6.58 9.02-6.67 17.5-11.07 18.83-9.77-60.3 104.97 6.73 128.64 56.38 94.27 22.85-15.83 16.8-7.92 15.55.92-3.17 22.43-18.04 67-31.8 81.27-11.5 11.95-34.17 19.98-42.05 4.2-9.48-19.03-29.96-60.06-32.52-36.73-7.61 69.31 30.13 92.6 72.7 68.02 22.81-13.17 30.6-43.54 31.8-28.05 5.05 65.31 20.6 66.68 18.01 104.81-1.27 18.86-12.6 8.05-33.28 29.01-26.06 26.44-40.96 42.26-85.72 24.51-7-2.78-11.02-3.32-15 .53-9.69 9.42-6.16 17.13 13.7 29.88 16.78 10.78 13.63 22.1 38.74 25.43 17.34 2.3 30.85-3.06 31.65-.7.81 2.34 11.18 14.4 23.7 15.77 12.51 1.37 27-.5 30.04 3.05 10.26 12 48.4-7.39 62.15-23.25 15.14-17.45.86-34.83-3.65-42.72-15.39-26.9-5.14-16.9 22.27 4.77 56.41 44.63 117.9 55.6 209.71 55.33 20.47-.06 44.36-5.88 69.83-15.79 22.73 7.4 44.73 11.93 65.1 13.1 86.1 4.94 107.14-5.47 145.09-24.88 2.22-1.13 3.26 5.41 1.72 14.6-4 23.9 8.2 28.83 27.1 28.74 8.2-.04 18-1.95 21.77-4.26 5.77-3.55 5.57-5.43-1.25-12.05-21.87-21.22-20.06-50.17 4.56-73.33 17.62-16.57 20.94-13.65 9.23 8.12-12.59 23.44-9.46 41.26 9.69 55.44 20.56 15.22 43.32 23.45 53.95 19.5 7.1-2.65 7.02-3.84-.96-12.4-4.86-5.2-14.43-12.04-21.25-15.2-14.63-6.77-18.46-29.14-10.15-59.08 4.82-17.38 8.3-14.46 15.19-15.72 7.34-1.34 15.91 5.41 4.34 12.74-7.24 4.58-10.87 28.35.38 20.98 6.91-4.53-.21 7.35 9.75 16.7 46.68 43.75 119.71 42.3 149.64-22.85 19.83-43.18 18.35-53.24-29.24-31.7-68.41 30.97-67.44-13.42-89.02-27.83-11.83-7.9-8.3-18.4 3.14-21.92 10.61-3.27 10.93-35.62 7.14-48.88-2.87-10.08 13.46-67.23 16.68-58.37 1.23 3.35 1.67 14.57 1.01 24.93-2.72 42.03 12.51 68.06 36.74 62.8 19.14-4.17 36.25-41.37 27.83-60.49-4.76-10.8-11.79-8.15-18.16 6.84-10 23.56-17.9 14.94-30.79-33.6-8.7-32.79-10.09-45.48-10.44-95.27-.14-19.4.31-20.18 8.3-14.97 3.38 2.2 6.92 15.98 8.35 32.46 4.14 47.46 8.04 60.6 20.26 68 21.72 13.17 45.26 2.45 52.2-23.42 7.17-26.78 2.89-52.36-8.01-58.66-7.98-4.6-8.33-3.95-10.22 18.66-1.57 18.9-3.13 23.37-8.54 24.39-12.32 2.33-24.33-5.36-28.37-44.07-3.72-35.58-27.51-44-22.47-48.68 56.42-52.32 52.26-110.97 26.83-163.64 12.11-27.63 24.25-50.37 32.14-63.34 51.58-84.8 30.63-187.2-64.93-243.48 11.43-4.95 19.55-15.46 17.63-30.05-3.29-24.86 10.29-32.55 35.58-20.15 23.77 11.66 33.19 9.2 24.85-4.95-29.47-49.98-82.82-42.32-112.35-15.5-7.44 6.77 4.29 23.02.36 35.12-3.28 10.1-16.88 17.76-22.96 8.57C824.49 46.97 805.65 6.2 758.9 5.04c-15.59-.4-34.28 3.6-57.37 13.52-4.3 1.85-6.29 7.03-9.84 7.07-10.94.15-19.8 9.4-34 30.86-19.82 29.92-80.7 57.4-104.12 19.92-7.95-12.72-1.68-19.95 6.55-10.24 4.39 5.18 9.34 5.6 17.84 1.55 14.25-6.8 15.3-19.71 2.38-28.98-11.35-8.14-21.16-4.78-32.31 5.49-22.76 20.95-5.38 66.02 44.8 68.69 55.44 2.94 79.33-57.98 111.56-62.28 20.08-2.69 39.25 4.32 46 6.34 51.51 15.46 21.75 55.53 82.88 61.96C951.78 131.4 998.84 267.12 946.03 345.9c-6.22 9.28-14.29 24.85-22.75 44.3a355.7 355.7 0 0 0-8.95-13.19c-44.03-61.74-132.22-61.16-136.87-79.62-3.62-14.37-18.21-16.39-25.41-14.31-16.98 4.88-20.82-31.3-11.72-41.52 7.44-8.36 14.2-5.3 16.99 7.66 4.26 19.9 37.53 8.39 40.37-13.99 1.55-12.23-44.28-49.26-60.74-43.93-49.04 15.87-40.1 76.44-12.88 103.91 21.93 22.14 122.59 35.86 174.09 97.2 4.68 5.57 9.92 13.36 14.97 22.64-29.38 48.1-43.96 112.6-35.77 176.17-16.29 72.04 9.13 119.72-18.5 168.13-8.65 15.16-20.28 20.58-15.9 42.34 3.59 17.88 1.68 49.1-15.33 51.84-88.02 14.2-151.1 97.67-210.22 96.95-25.74-.3-50.66-.45-75.34-4.32 73.2-37.49 151.83-100.5 198.64-156.83 44.69-53.77 44.47-28.31 44.43-2.44-.04 19.62-61.75 36.15-44.23 40.16 38.57 8.84 73.71-21.57 91.78-71.11 20.53-56.3-28-28.85-16.24-60.61 43.72-118.13 2.34-214.33-39.86-260.58-28.12-30.83-49.44-43.79-63.5-54.66-1.8-1.4-1.62-17.07-7.2-32.56-9.75-27.14-20.9-18.7-22.64-14.77-1.56 3.56-1.47 9.86.21 13.98 4.77 11.73-7.36-3.76-21.64-11.64-16.29-8.98-57.54.85-62.93 22.8-3.85 15.65-2.08 38.45 22.4 49.21 18.42 8.1 41.6-2.66 34.39-12.86-2.26-3.2-8-3.24-13.57-.12-7.58 4.25-10.84 3.7-15.22-2.62-16.48-23.7 26.69-41.58 48.92-20.27 24.17 23.16 38.57 27.57 64.2 57.6 4.54 5.32-9.12 3.21-22.85 4.62-20.44 2.11-29.43 29.76-50.48 32.05-14.1 1.54-33.89 6.33-40.89 11.55-15.79 11.75-7.4 23.8-.65 47.51 3.67 12.9 10.32 34.72 20.78 37.08 16.47 3.72 28.7 9.5 18.46-3.1-9.88-12.15-5.2-32 1.54-44.5 4.3-7.95 14.08-24.46 25.35-22.09 11.56 2.43 10.83-29.6 31.27-34.84 20.44-5.23 46-8.2 57.76 17.09 82.13 176.53-43.4 280.54-108.7 342.01-21 19.76-47.09 42.82-76.94 64.24-23.19-.24-42.08-7-50.8-10.74 17.26-11.5 16.63-12.86 8.79-19.14-6.02-4.82-3.79-6.98 12.73-12.3 17.74-5.7 19.65-7.85 16.84-18.96-2.65-10.44-.59-13.45 12.35-18.06 17.05-6.09 19.2-21.16 19.83-32.9 1.61-30.2-.27-34.56-16.95-46.6-8.93-6.44-13.17-6.29-17.9.59-6.4 9.3-8.49 6.85-9.43-11.05-.3-5.74-2.53-10.09-4.96-9.65-44.4 8.06-54.63 19.5-49.37 55.22 4.4 29.8 17.47 37.66 29.16 17.54 5.2-8.97 4.8-12.42-2.39-20.34-4.76-5.26-7.27-11.94-5.6-14.84 4.69-8.06 19.52 1.4 28.3 18.03 7.27 13.77 6.46 17-10.73 42.7-11.14 16.65-24.41 29.99-37.24 37.6a50.05 50.05 0 0 1-7.17-5.64c-6.8-6.34-16.61-11.52-21.81-11.52-11.25 0-33.3-27.96-33.52-42.5-.08-5.63-2.53-10.24-5.43-10.24-9.08 0-2.67-24.6 8.74-33.53 10.36-8.12 10.81-7.75 9.87 7.88-.7 11.75 1.57 17.03 8.02 18.6 10.87 2.67 28.03-14.42 28.03-27.9 0-14.49-28.29-37.02-42.44-33.81-6.53 1.48-11.9.41-11.9-2.36 0-2.78-4.28-5.05-9.53-5.05-11.9 0-18.1 20.94-9.76 32.88 5.37 7.68 4.37 8.33-7.52 4.79-9.4-2.8-15.11-1.54-18.08 4.02-6.08 11.4-5.73 13.11 5.6 27.52 0 0 10.9 4.62 8.52 9.5-1.47 3.03-5.17 3.32-8.53 3.32-5.54 0-10.08 2.81-10.08 6.25 0 13.45 10.72 28.9 20.03 28.9 7.88 0 9.22 2.77 6.83 14.08-2.57 12.12-.84 14.64 12.45 18.1 8.69 2.26 18.12 1.37 21.58-2.04 4.63-4.55 6.1-2.39 5.97 8.75-.08 7.36 1.24 11.8 5.94 15.66-22.64 12.25-47.43 22.17-66.95 15.2-87.18-37.7-149.56-124.64-171.39-197.26 22.12-5.67 51.87-4.38 61.6.8 6.04 3.22 7.88 3.28 6.03.17-5.37-8.97-39.72-31.25-67.45-29.28a206 206 0 0 0-6.66.57c-.32-2.02-.64-4.03-.88-6.01-12.31-98.08-6.23-108.16 40.94-181.03 7.88-12.16 5.73-7.58 4.33 1.85-1.6 10.87 7.08 25.62 20.16 13.66 16.5-15.1 61.98-11.35 83.26-.58 15.34 7.76 17.95 11.35 19.23 26.4 2.02 23.69-9.75 49.24-22.1 48-12.8-1.29-12.53 6.3.55 16.86 8.32 6.71 18.33 7.64 34.47-7.11 54.76-50.04 17.68-107.68-4.42-125.99-8-6.63-15.46-7.5-18.14-5.05-2.68 2.45-15.43 8.04-28.33 12.43-20.51 6.98-64.12 7.57-49.06-19.47 9.68-17.39 38.11-52.22 42.38-39.42 1.42 4.23 11.84 9.17 21.03 11.96 9.19 2.78 14.14 3.58 10.98 1.8-14.3-8.11 9.47-42.11 27.57-39.43 11.43 1.69 28.7 24.91 26.86 36.12-.45 2.74 2.31 5.43 6.17 6 5.34.8 6-2.06 5.16-12.3-4.91-59.64-62.02-75.57-99.2-38.27-12.74 12.78-24.07 24.06-28.56 26.4-21.33 11.18-15.03 17.12-25.74 29.85-18.2 21.62-35.93 31.29-49.6 53.8-24.4 40.19-62.2 102.67-43.02 194.4-23 6.63-42.76 19.8-56.91 44.75 34.46-118.23 4.51-175.85-58.54-227.48-14.29-11.7 61.84-7.16 37.1-66.12-26.55-63.23 63.24-99.94 104.72-92.74 74.22 12.87 157.14-27.95 127.9-107.3-5.66-15.39-8.15-17.87-22.14-25.5-9.22-5.01-53.63 31.76-52.22 43.68 2.43 20.42 30.86 30.94 34.5 12.76 2.38-11.84 8.89-15.15 14.54-6.98 25.65 37.12-55.2 73.04-91.35 62.9-85.71-24.07-160.58-25.76-186.98 16.24-14.21-70.77 8.97-154.43 38.26-187.12 30.64-34.2 109.66-50.4 150.81-13.4 8.84 7.94 20.92 16.28 17.96 30.66-.56 2.76-.56 5.43 2.07 6.77 7.76 3.93 20.95-17.22 15.71-31.43-6.95-18.85-11.32-25.38-16.18-28.13-16.79-9.5-37.43-13.57-34.97-17.84 16.28-28.25 92.91-28.33 128.94-6.93 7.57 4.5-6.19 24.94-18.77 30.14-12.06 5-9.8 8.25-5.03 11.06 21.3 12.58 49.93-2.55 68.89-1.61 3.01.14 6.7-2.03 9.38-8.04 2.8-6.28 2.86-10.06.17-9.3-2.5.7-5.23-.97-6.06-3.7-2.42-7.9 3.08-8.38 11.05-.95 4.04 3.77 10.55 7.75 13.65 10.16 17.1 13.33 45.66 19.99 73.06-.93 26.49-20.2 21.84-62.74-3.77-69.85-21.54-5.98-27.64 24-6.62 32.5 26.42 10.66-18.36 31.32-49.6 22.88-16.75-4.51-25.2-7.21-20.2-17.73 5.46-11.5-3.72-15.78-12.18-20.42-14.17-7.78-9.45 13.95-16.23 6.42-6.1-6.78-8.92-7.59-20.75-5.59-90.87-33.05-154.42 6.32-190.95 16.43l-23.84 6.6c14.4-22.86-4.03-18.51 3.06-31.23 6.92-12.43 10.26-26.96.53-27.2zm596.25 19.52c16.8-.2 32.46 10.7 34.3 14.19 6.26 11.95-20.18 2.46-25.2 1.12-14.07-3.77-43.5-4.11-39.95-8.62 5.03-6.38 14.04-6.5 30.85-6.69zM131.9 62.79c5.45-.24 8.23 1.97 9.2 4.89 3.34 9.98-.57 11.79-7.44 13.83-4.82 1.43-26.26 5.41-19.65-6.2 2.17-3.83 8.26-11.14 15.39-12.25.89-.14 1.72-.23 2.5-.26zm-12.82 239.65c8.87.13 19.08 1.63 30.78 4.72 11.09 2.92-8.4 6.72-11.87 8.55-77.97 41.2-21.4 116.66-49.26 125.72-12.47 4.06-18.41 2.74-20.05-9.47-8.59-64-11.68-130.43 50.4-129.52zm809.07 148.03c6.69 21.25 10.04 44.84 5.47 66.66-3.18 15.16-19.27 29.4-33.31 47.65 2.41-37.36 14.07-78.14 27.84-114.31zm-875.36 25.5c27.04 32.78 84.22 91.19 63.3 138.1-14.72-5.56-31.81 11.65-31.85 34.85-4.32 2.35-12.97 3.03-19.22 1.5-16.8-4.09-16.3-23.13-2.04-47.04 43.81-73.46-27.62-71.93-10.19-127.4zM211.97 692.9c37.72 107.55 143.94 204.95 246.39 252.88-21.71 4.83-44.07 6.95-66.83 5.31-84-6.03-121.25-16.4-187.47-83.72-13.96-14.19-1.9-30.6 22.5-6.17 13.3 13.31 36.82 10.34 24.75-.3-40.27-35.56-2.08-42.72-49.9-64.34-46.02-20.79-24.89 42.51-31.2 32.97-24.6-37.2-32.78-95.1 12.18-99.28 9.48-.88 19.39-8.22 19.57-18.5.14-8.03 4.24-13.6 10-18.85zm284.27 181c5.52 1.62 9.13 1.74 11.36.33a5.9 5.9 0 0 1 3.9 4.81c1.36 9.17 3.56 9.28 20.22-1.4 16.73 6.93 35.6 18.21 28.04 25.85-19.73 11.86-40.65 22.42-62.48 30.62-17.22-6.88-34.53-16.72-52.09-30.92-6.82-5.5 29.4-25.84 51.05-29.29zm-334.02 12.65c10.99-.48 12.06 3.11 14.23 18.42 2.2 15.5.87 22.04-5.93 29.12-7.02 7.31-31.79 8.83-55.03 8.2-16-.43-42.16-3.68-39.55-6.75 3.35-3.94 33.66-4.65 40.98-13.2a719.02 719.02 0 0 0 20.58-25.13c4-5.27 13.74-10.18 24.72-10.66zm715.66 11.22c12.82-.46 23.76 12.7 33.86 16.02 18.96 6.26 28.55-16.02 52.33-13.57 5.88.61-22.97 41.56-41.33 37.98-25.89-5.07-26 9.51-51.76-10.4-10.55-8.16-2.69-27.47 1.29-28.9a18.52 18.52 0 0 1 5.61-1.13z"/></svg>
