<svg viewBox="0 0 1000 1000"><path d="M161.33 4.72v.02l.01.01c-1.8-.04-4.05.41-6.8 1.45-9.8 3.7-8.07 9.64-24.28 13.55C111.18 24.35 107.52 35 122.5 34c10.13-.66 11.26.62 9.59 10.98-1.4 8.62-15.87 1.38-44.96 11.37-26.75 9.18-34.57 16.79-35.52 34.47-.93 17.5 3.33 20.52 10.87 7.7 8.95-15.23 24.47-23.94 33.38-18.74C109.3 87.6 82.89 98.8 70.09 115.8c-2.4 3.2-4 7.94-6.27 11.47H3.86c-5.03 0-5.03 8.83 0 9.82 18.84 2.49 33.7 8.04 46.16 15.4C25.12 207 14.53 282.72 31.47 352.94 29 381.4 26.54 418.86 43.58 459.75c-24.28 9.89-36.93 53.96-21.66 69.49 5.42 5.5 6.18 5.77-4.84 16.46-13.35 12.96-16.4 30.6-6.9 39.82 4.4 4.27 9.51 2.76 22.1-6.57 9.02-6.67 17.5-11.07 18.83-9.78-60.3 104.98 6.73 128.65 56.38 94.27 22.85-15.82 16.8-7.9 15.55.92-3.17 22.44-18.04 67.01-31.79 81.28-11.51 11.95-34.18 19.98-42.05 4.2-9.49-19.03-29.97-60.07-32.53-36.74-7.61 69.32 30.13 92.6 72.7 68.03 22.81-13.17 30.6-43.54 31.8-28.05 5.06 65.31 20.6 66.67 18.02 104.81-1.28 18.86-12.61 8.04-33.28 29.01-26.07 26.44-40.97 42.27-85.73 24.52-7-2.78-11.02-3.33-15 .52-9.69 9.42-6.16 17.13 13.7 29.88 16.78 10.78 13.64 22.1 38.74 25.43 17.34 2.3 30.85-3.05 31.66-.7.8 2.35 11.17 14.4 23.68 15.78 12.52 1.37 27.02-.5 30.05 3.05 10.26 12 48.4-7.4 62.16-23.26 15.13-17.45.85-34.82-3.66-42.71-15.39-26.91-5.13-16.92 22.27 4.76 56.41 44.63 117.9 55.6 209.71 55.34 20.47-.06 44.36-5.89 69.83-15.8 22.74 7.4 44.73 11.93 65.1 13.1 86.1 4.94 107.14-5.47 145.09-24.88 2.22-1.13 3.26 5.42 1.72 14.6-4 23.9 8.2 28.84 27.1 28.75 8.2-.04 18-1.96 21.77-4.27 5.77-3.55 5.57-5.43-1.25-12.05-21.86-21.22-20.06-50.17 4.57-73.33 17.61-16.57 20.92-13.65 9.21 8.12-12.59 23.44-9.45 41.26 9.7 55.44 20.56 15.22 43.32 23.45 53.95 19.5 7.1-2.65 7.02-3.84-.96-12.4-4.86-5.2-14.43-12.04-21.25-15.2-14.63-6.77-18.46-29.14-10.15-59.08 4.82-17.38 8.3-14.46 15.2-15.72 7.33-1.34 15.9 5.42 4.33 12.75-7.24 4.58-10.87 28.35.38 20.98 6.9-4.53-.2 7.35 9.75 16.69 46.68 43.76 119.7 42.3 149.64-22.84 19.83-43.19 18.35-53.26-29.24-31.71-68.41 30.97-67.44-13.42-89.02-27.83-11.83-7.9-8.3-18.4 3.14-21.93 10.61-3.26 10.93-35.61 7.14-48.87-2.87-10.08 13.46-67.23 16.68-58.38 1.23 3.36 1.67 14.58 1 24.93-2.71 42.04 12.52 68.07 36.75 62.8 19.14-4.17 36.25-41.36 27.83-60.48-4.76-10.8-11.79-8.15-18.16 6.84-10 23.56-17.9 14.94-30.79-33.61-8.7-32.78-10.1-45.47-10.44-95.26-.14-19.4.31-20.18 8.3-14.98 3.38 2.2 6.92 15.99 8.35 32.47 4.14 47.46 8.04 60.6 20.26 68 21.72 13.16 45.26 2.45 52.2-23.43 7.17-26.77 2.89-52.35-8.01-58.65-7.98-4.6-8.33-3.96-10.22 18.66-1.57 18.9-3.13 23.36-8.54 24.39-12.32 2.33-24.33-5.37-28.37-44.07-3.72-35.59-27.51-44-22.47-48.68 56.42-52.32 52.26-110.98 26.83-163.64 12.1-27.64 24.25-50.37 32.14-63.35 41.85-68.8 35.09-148.8-19.68-206.74 13.48-8.14 27.75-13.03 42.64-13.03 6.1 0 5.03-10.8 0-9.81l-68.58-.08c-6.3-4.68-12.18-9.61-19.32-13.81 11.43-4.95 19.56-15.47 17.64-30.05-3.3-24.86 10.3-32.56 35.58-20.15 23.77 11.65 33.19 9.2 24.85-4.95-29.47-49.99-82.82-42.32-112.35-15.5-7.44 6.76 4.3 23.02.36 35.11-3.28 10.11-16.88 17.77-22.96 8.58-26.27-39.7-45.11-80.46-91.86-81.63-15.59-.39-34.27 3.61-57.37 13.53-4.3 1.85-6.28 7.02-9.84 7.07-10.94.14-19.8 9.4-34 30.85-19.82 29.93-80.7 57.4-104.12 19.93-7.95-12.72-1.68-19.95 6.55-10.24 4.4 5.17 9.34 5.6 17.84 1.55 14.25-6.8 15.3-19.72 2.38-28.98-11.35-8.14-21.16-4.79-32.31 5.48-22.76 20.96-5.38 66.03 44.8 68.7 55.44 2.94 79.33-57.98 111.56-62.29 20.08-2.68 39.25 4.33 46 6.35 51.51 15.45 21.75 55.53 82.88 61.96 12.37 1.3 23.48 4.65 34.26 8.43l-96.63-.1c-5.03 0-5.03 8.83 0 9.82 56.5 5.52 73.6 50.78 52.85 123.28l-15.22 53.16c-16.27-5.18-29.46-9.77-31.07-16.14-3.62-14.38-18.21-16.39-25.41-14.32-16.98 4.9-20.82-31.3-11.72-41.51 7.44-8.36 14.21-5.31 16.99 7.65 4.27 19.92 37.53 8.4 40.37-13.98 1.55-12.23-44.28-49.26-60.74-43.93-49.04 15.86-40.09 76.44-12.88 103.9 11.34 11.46 43.76 20.94 79.5 35.63L774.42 432.7c-26.9-28.91-47.67-42.06-61.32-52.61-1.8-1.4-1.61-17.07-7.19-32.57-9.76-27.13-20.92-18.7-22.64-14.77-1.57 3.57-1.48 9.86.2 13.99 4.78 11.73-7.35-3.76-21.64-11.64-16.29-8.98-57.53.84-62.93 22.8-3.85 15.64-2.08 38.45 22.4 49.2 18.42 8.1 41.61-2.66 34.4-12.85-2.27-3.2-8-3.25-13.58-.12-7.58 4.25-10.84 3.69-15.22-2.62-16.48-23.7 26.69-41.58 48.92-20.28 24.18 23.16 38.57 27.57 64.2 57.61 4.54 5.31-9.12 3.2-22.84 4.62-20.45 2.1-29.44 29.75-50.5 32.05-14.1 1.54-33.88 6.33-40.88 11.55-15.79 11.75-7.4 23.8-.65 47.5 3.67 12.91 10.32 34.72 20.78 37.09 16.47 3.72 28.71 9.5 18.46-3.1-9.88-12.15-5.2-32 1.54-44.5 4.3-7.95 14.08-24.46 25.36-22.09 11.55 2.43 10.82-29.61 31.26-34.84 14.5-3.71 31.39-5.79 44.29 2.06l-81.44 284.4-122.32-342 74.18-187.23c20.8-52.45 27.8-67.58 99.69-77.26 5.67-.77 5.13-9.59.89-9.88-.28-.02-.58 0-.87.06H559.34c-5.03 0-5.03 8.83 0 9.82 20.09 1.95 47.23 32.9 40.6 57.56-16.76 62.34-25.08 86.95-51.06 167.2l-39.32-109.97c-25.3-70.72-24.35-110.34 18.31-114.8 6.08-.64 5.03-9.81 0-9.81H299.54c-5.03 0-5.03 8.83 0 9.82 66.09 8.73 93.19 52.17 109.54 97.12l86.04 232.35c-33.03 92.15-79.54 221.67-103.48 277.8l-98.1-262.82c16.92-14.54 61.5-10.9 82.55-.24 15.34 7.76 17.95 11.36 19.23 26.41 2.03 23.69-9.75 49.24-22.1 48-12.8-1.29-12.53 6.29.56 16.85 8.31 6.72 18.32 7.64 34.46-7.1 54.77-50.04 17.68-107.69-4.42-126-8-6.62-15.46-7.5-18.14-5.05-2.68 2.45-15.43 8.05-28.33 12.44-20.5 6.98-64.12 7.57-49.06-19.48 9.68-17.38 38.12-52.21 42.39-39.41 1.41 4.23 11.83 9.17 21.02 11.95 9.19 2.79 14.14 3.59 10.98 1.8-14.3-8.1 9.48-42.1 27.57-39.43 11.43 1.7 28.7 24.92 26.86 36.12-.45 2.74 2.31 5.44 6.17 6 5.34.8 6-2.05 5.16-12.3-4.91-59.63-62.02-75.56-99.2-38.26-12.73 12.77-24.07 24.06-28.56 26.4-21.33 11.17-15.03 17.11-25.74 29.84-7.01 8.34-13.76 14.28-20.42 20.48l-42.39-113.58c73.32 11.05 153.25-29.45 124.47-107.59-5.67-15.38-8.16-17.86-22.15-25.48-9.22-5.02-53.63 31.75-52.21 43.66 2.42 20.43 30.85 30.95 34.5 12.77 2.37-11.84 8.88-15.15 14.53-6.98 25.65 37.11-55.2 73.03-91.35 62.9-5.88-1.66-11.15-2.29-16.92-3.72l-15.17-40.66c-25.76-69.01 10.34-108.55 51.98-114.28.08 1.67.55 3.18.16 5.04-.56 2.76-.56 5.43 2.07 6.77 7.76 3.93 20.95-17.23 15.71-31.43-6.95-18.85-11.31-25.38-16.17-28.14-16.8-9.5-37.44-13.56-34.98-17.83 16.28-28.25 92.91-28.34 128.94-6.93 7.57 4.5-6.19 24.93-18.76 30.14-12.07 5-9.8 8.24-5.04 11.06 21.3 12.57 49.93-2.55 68.89-1.61 3.02.14 6.7-2.04 9.38-8.05 2.8-6.28 2.86-10.05.17-9.3-2.5.7-5.23-.96-6.06-3.69-2.41-7.91 3.08-8.38 11.05-.95 4.04 3.77 10.56 7.75 13.65 10.16 17.1 13.33 45.66 19.98 73.06-.93 26.49-20.21 21.84-62.75-3.77-69.85-21.54-5.98-27.64 24-6.62 32.49 26.42 10.67-18.36 31.33-49.6 22.9-16.74-4.53-25.2-7.22-20.2-17.74 5.46-11.5-3.71-15.79-12.17-20.43-14.18-7.77-9.46 13.96-16.24 6.42-6.1-6.78-8.92-7.58-20.74-5.58-90.88-33.06-154.43 6.32-190.96 16.42l-23.84 6.6c14.4-22.85-4.03-18.5 3.06-31.22 6.92-12.43 10.26-26.96.53-27.2zm596.25 19.53c16.8-.2 32.46 10.69 34.3 14.19 6.26 11.95-20.18 2.46-25.2 1.11-14.07-3.76-43.5-4.1-39.94-8.62 5.02-6.38 14.03-6.49 30.84-6.68zM131.9 62.79c5.45-.24 8.23 1.97 9.2 4.89 3.34 9.98-.57 11.79-7.43 13.82-4.83 1.44-26.27 5.42-19.66-6.2 2.18-3.83 8.26-11.13 15.39-12.24a19.5 19.5 0 0 1 2.5-.26v-.01zm52.39 28.15c21.53.77 42.29 7.16 57.72 21.03 5.08 4.56 10.91 9.4 14.67 15.3H90.04c.42-.49.74-1.43 1.16-1.9 19.15-21.37 57.2-35.71 93.09-34.43zM68.27 166.41c19.04 18.37 29.94 42.73 39.06 67.8l16.54 45.43c-32.57 1.87-57.78 11.93-70.93 32.86-10.05-50.04-.94-105.74 15.33-146.1zm860.64 2.95c42.83 49.83 51.62 125.07 17.12 176.54-6.22 9.27-14.29 24.85-22.75 44.3a355.7 355.7 0 0 0-8.95-13.19c-15.84-22.22-37.26-34.87-58.59-44.74l22.85-72.74c11.8-37.52 29.34-68.64 50.32-90.17zM119.08 302.44c4 .06 9.3 1.49 13.85 2.12l4.27 11.72c-76.51 41.31-20.72 116.13-48.47 125.15-12.47 4.05-18.41 2.74-20.05-9.48-8.59-63.99-11.68-130.43 50.4-129.5zm27 38.22 67.7 186.05c-13.76 35.08-22.7 77.77-11.46 131.58-23 6.63-42.76 19.8-56.91 44.75 34.46-118.23 4.52-175.85-58.54-227.48-14.28-11.7 61.84-7.16 37.1-66.13-12.31-29.31.8-52.59 22.1-68.77zm703.16 12.31c18.15 10.6 35.28 23.2 48.92 39.43 4.68 5.58 9.92 13.37 14.97 22.64-29.38 48.1-43.96 112.61-35.77 176.18-16.29 72.03 9.13 119.72-18.5 168.12-8.65 15.17-20.28 20.59-15.9 42.35 3.59 17.88 1.68 49.1-15.33 51.84-88.02 14.2-151.1 97.67-210.22 96.95-25.74-.3-50.66-.45-75.33-4.32 35.26-18.06 71.66-42.2 105.28-68.5l20.06 54.16 30.68-97.66c15.87-15.03 30.4-30.14 42.6-44.83 44.7-53.78 44.48-28.32 44.44-2.44-.04 19.62-61.74 36.15-44.22 40.16 38.56 8.84 73.7-21.57 91.77-71.12 20.53-56.29-28-28.85-16.24-60.6 32-86.47 18.26-160.93-7.87-212.91l40.66-129.45zm78.91 97.5c6.69 21.25 10.04 44.84 5.47 66.66-3.18 15.15-19.27 29.4-33.31 47.65 2.4-37.37 14.07-78.14 27.84-114.32zm-875.36 25.5c27.04 32.78 84.22 91.19 63.3 138.1-14.72-5.56-31.81 11.64-31.85 34.85-4.32 2.35-12.97 3.02-19.22 1.5-16.8-4.09-16.3-23.13-2.04-47.05 43.81-73.45-27.62-71.92-10.19-127.4zm460.7 40.23 74.59 201.38c-3.21-.3-5.9.95-8.53 4.76-6.4 9.3-8.49 6.86-9.42-11.04-.3-5.74-2.54-10.09-4.97-9.65-44.4 8.05-54.63 19.5-49.37 55.21 4.4 29.8 17.47 37.67 29.16 17.54 5.2-8.96 4.8-12.42-2.39-20.34-4.76-5.25-7.27-11.93-5.59-14.83 4.68-8.06 19.5 1.4 28.29 18.03 7.27 13.77 6.46 17-10.73 42.7-11.14 16.65-24.41 29.98-37.24 37.6a50.05 50.05 0 0 1-7.17-5.64c-6.8-6.34-16.61-11.53-21.8-11.53-11.25 0-33.3-27.95-33.53-42.48-.08-5.64-2.53-10.26-5.43-10.26-9.08 0-2.66-24.58 8.74-33.52 10.36-8.12 10.82-7.76 9.87 7.88-.7 11.75 1.57 17.02 8.02 18.6 10.87 2.67 28.03-14.42 28.03-27.91 0-14.48-28.29-37.01-42.44-33.8-6.53 1.47-11.9.41-11.9-2.36 0-.36-1.1-.32-1.23-.65 18.76-53.75 37.3-107.57 57.15-160.93a1207.3 1207.3 0 0 1 7.9-18.76zm283.46 3.23c33.33 115.48-23.58 195.2-79.08 251.78l79.08-251.78zm-572.2 37.38 36.54 100.43c-8.79-2.91-17.78-5-26.35-4.4-2.24.17-4.45.35-6.65.58-.33-2.03-.64-4.04-.9-6.02-5.44-43.37-6.36-68.6-2.65-90.59zm43.96 120.83 51.6 141.77c-41.95-41.2-71.8-92.54-85.54-138.25 10.59-2.72 22.88-3.66 33.94-3.52zm-56.74 15.25c22.45 64 69.39 124.14 125.13 172.67l24.1 66.26c4.87-11.94 8.8-24.21 13.5-36.22 27.21 19.82 55.51 37 83.66 50.17-21.71 4.83-44.06 6.95-66.83 5.31-84-6.03-121.25-16.41-187.47-83.72-13.96-14.19-1.9-30.6 22.5-6.17 13.3 13.31 36.82 10.34 24.75-.31-40.27-35.55-2.08-42.72-49.9-64.33-46.02-20.8-24.89 42.51-31.2 32.97-24.6-37.2-32.78-95.11 12.18-99.28 9.48-.88 19.39-8.23 19.57-18.5.14-8.03 4.24-13.6 10-18.85zm399.78 88.6 24.56 66.33a660.18 660.18 0 0 1-41.65 32.64c-23.19-.24-42.08-7-50.8-10.75 17.26-11.49 16.64-12.85 8.79-19.14-6.01-4.81-3.78-6.97 12.73-12.29 17.74-5.7 19.65-7.86 16.84-18.96-2.65-10.45-.59-13.45 12.35-18.07 11.02-3.93 15-11.65 17.18-19.77zM409.54 802.1c3.37 3.75 7.12 6.56 10.8 6.56 7.88 0 9.21 2.76 6.82 14.08-2.57 12.12-.84 14.64 12.45 18.1 8.69 2.26 18.12 1.37 21.58-2.04 4.63-4.56 6.1-2.4 5.98 8.75-.08 7.36 1.23 11.8 5.93 15.65-22.64 12.26-47.43 22.19-66.94 15.2-7.27-3.13-14.1-7.08-21-10.87a4221.2 4221.2 0 0 0 24.38-65.43zm86.7 71.79c5.52 1.62 9.13 1.73 11.36.33a5.91 5.91 0 0 1 3.9 4.82c1.36 9.17 3.56 9.27 20.22-1.42 16.73 6.94 35.6 18.22 28.04 25.86-19.73 11.86-40.65 22.42-62.48 30.62-17.22-6.88-34.52-16.72-52.09-30.92-6.82-5.51 29.4-25.84 51.05-29.29zm-334.02 12.65c10.99-.48 12.06 3.1 14.23 18.42 2.2 15.49.87 22.04-5.93 29.12-7.02 7.31-31.79 8.83-55.03 8.2-16-.43-42.16-3.68-39.55-6.75 3.35-3.94 33.66-4.65 40.98-13.2a719.47 719.47 0 0 0 20.58-25.12c4-5.27 13.74-10.19 24.72-10.67zm715.66 11.22c12.82-.46 23.76 12.7 33.86 16.02 18.96 6.26 28.55-16.02 52.33-13.57 5.88.61-22.97 41.57-41.33 37.99-25.89-5.07-26 9.5-51.76-10.41-10.55-8.16-2.7-27.47 1.29-28.9a18.52 18.52 0 0 1 5.6-1.13z"/></svg>
