<?xml version="1.0" encoding="utf-8"?>
<svg version="1.0" xmlns="http://www.w3.org/2000/svg" xmlns:xlink="http://www.w3.org/1999/xlink" x="0px" y="0px" viewBox="0 0 1000 1000">
<path d="M235.173,851.875c0,25.795,49.441,39.771,69.345,42.591c5.972,0.847,5.025,10.142,0,10.142H74.373
	c-5.025,0.079-5.972-9.295,0-10.142c59.712-8.468,96.6-17.446,122.609-80.115l268.336-644.993c6.981-16.841,2.01-19.268,2.01-19.268
	l52.26-77.074l318.585,721.052c20.464,46.31,94.093,92.079,152.759,100.398c5.972,0.847,5.025,10.142,0,10.142h-321.6
	c-5.025,0-5.97-9.295,0-10.142c5.386-0.763,91.455-23.324,91.455-42.591c0-26.369-10.124-45.384-23.113-76.062l-94.471-223.111
	H347.732l-90.449,223.111C240.475,815.089,235.173,832.604,235.173,851.875z M493.459,193.697L355.772,518.221h274.365
	L493.459,193.697z"/>
</svg>
