<svg viewBox="0 0 1000 1000"><path d="M684.85 24c-37.07 0-67.93 30.9-67.93 67.92 0 37.06 30.86 67.93 67.93 67.93 37.02 0 67.92-30.87 67.92-67.93 0-37.02-30.9-67.93-67.92-67.93Zm-383.93 2.5C263.86 26.5 233 57.36 233 94.42c0 37.02 30.87 67.93 67.93 67.93 37.02 0 67.93-30.9 67.93-67.93 0-37.06-30.9-67.92-67.93-67.92Zm196.63 46.55-52.71 77.1s4.05 3.06-2.03 19.27L172.06 814.36c-26.38 62.85-63.92 71.98-123.74 80.09-6.08 1.03-5.08 11.16 0 10.16h232.22c5.09 0 5.09-9.13 0-10.16-20.25-2-69.95-16.21-69.95-42.59 0-19.26 5.05-36.5 22.29-76.07l91.28-223.08h298.12l95.34 223.08c12.15 31.46 23.31 49.7 23.31 76.07 0 19.27-87.23 42.59-92.27 42.59-6.08 1.03-5.09 10.16 0 10.16h324.5c5.08 0 5.08-9.13 0-10.16-59.83-8.1-133.87-53.75-154.13-100.38L497.55 73.09Zm-26.38 120.68L609.1 518.27H332.26l138.92-324.54Z"/></svg>
