<?xml version="1.0" encoding="utf-8"?>
<svg version="1.0" xmlns="http://www.w3.org/2000/svg" xmlns:xlink="http://www.w3.org/1999/xlink" x="0px" y="0px" viewBox="0 0 1000 1000">
<path d="M343.14,126.88v350.945c45.308-5.437,267.157,21.091,267.157-181.766
	C610.297,103.677,420.021,126.88,343.14,126.88z M691.959,656.601c-0.099-0.259-0.219-0.512-0.358-0.753
	c-3.16-5.512-31.518-166.266-348.461-151.281l3.593,382.199C755.792,928.72,715.725,718.639,691.959,656.601z M720.442,263.927
	C743.12,402.822,609.095,456.278,584.758,469.26c-3.818,2.037-3.365,7.504,0.704,8.994
	c165.135,60.485,236.316,112.384,236.316,227.919c0,213.934-180.068,222.223-365.668,222.223c-103.481,0-344.878,0-344.878,0
	c-0.748-0.02-37.361,3.343-27.105-8.289c10.368-11.758,133.605-3.608,135.856-84.065c1.419-50.693-0.161-709.92-0.161-710.039
	c0-22.624-16.287-23.864-16.287-23.864c-8.69-4.588-99.403-19.634-69.617-31.936c0,0,139.233-0.017,288.886-0.017
	C557.741,70.186,700.337,140.792,720.442,263.927z"/>
</svg>
