<svg viewBox="0 0 1000 1000"><path d="M343.14 126.88v350.94c45.3-5.43 267.16 21.1 267.16-181.76 0-192.38-190.28-169.18-267.16-169.18ZM691.96 656.6a5.3 5.3 0 0 0-.36-.75c-3.16-5.51-31.52-166.27-348.46-151.28l3.6 382.2c409.05 41.95 368.99-168.13 345.22-230.17Zm28.48-392.67c22.68 138.9-111.35 192.35-135.68 205.33a4.91 4.91 0 0 0 .7 9c165.14 60.48 236.32 112.38 236.32 227.91 0 213.94-180.07 222.23-365.67 222.23H111.23c-.75-.02-37.36 3.34-27.1-8.3 10.37-11.75 133.6-3.6 135.85-84.06 1.42-50.7-.16-709.92-.16-710.04 0-22.62-16.28-23.86-16.28-23.86-8.7-4.59-99.4-19.63-69.62-31.94l288.88-.01c134.94 0 277.54 70.6 297.64 193.74Z"/></svg>
