<?xml version="1.0" encoding="utf-8"?>
<svg version="1.0" xmlns="http://www.w3.org/2000/svg" xmlns:xlink="http://www.w3.org/1999/xlink" x="0px" y="0px" viewBox="0 0 1000 1000">
<path d="M469.845,876.674c-328.979-16.347-345.732-483.597-157.626-675.601c57.469-58.66,139.399-86.399,220.849-77.522
	c176.98,19.288,206.734,107.468,210.31,152.046c0.484,6.037,7.218,11.241,15.958,14.426c-1.38-20.853-3.099-41.691-4.06-62.564
	c-1.343-29.194-3.515-58.461-2.574-87.606c0.497-15.411-5.602-22.545-18.29-25.89c-17.316-4.566-165.807-41.29-258.997-34.488
	c-323.574,23.621-393.52,286.697-393.52,408.903c0,159.28,72.577,588.373,698.902,379.662c7.77-2.589,16.942-22.083,18.881-30.063
	c7.144-29.407,30.566-176.726,41.258-226.02C808.933,661.563,754.492,883.096,469.845,876.674z"/>
</svg>
