<svg viewBox="0 0 1000 1000"><path d="M106.27 132.7c-6 0-10.3 2.54-6.32 7.07 8.83 10.01 115.81 7.42 115.72 105.53-.14 154.46.95 202.82 0 361.9-1.5 254.4-87.53 235.25-115.72 251.53-5.22 3.02.32 7.06 6.32 7.06h16.77c91.73-.02 275.19-.18 275.19-.18 48.09-.03 103.83 0 171.1 0 174.16 0 346.23-150.96 346.23-385.2 0-193.17-151.2-345.67-377.08-347.7-18.45-.18-67.99-.02-121.68-.02H123.04Zm344.7 20.42c252.2 6.75 348.27 158.92 348.27 346.05 0 191.5-127.86 333.69-298.96 333.69-149.34 0-41.48.08-65.5 0-83.83-.3-112.65-36.04-112.65-156.25 0-64.2-1.5-129.5-1.5-183.63 0-108.28 2.54-291.92 3-303.33.82-20.16 15.17-35.89 41.5-35.89 15.83 0 72.07-1.01 85.84-.64Z"/></svg>
