<svg viewBox="0 0 1000 1000"><path d="M718.6 84.48c-7.8-2.09-24.07.91-35.45.96-100.8.38-311.66 12.87-402.5 12.87-63.55 0-124.6-5.96-133.54-5.96-6.95 0-15.9 1-15.9 6.95 0 10.71 19.45 10.08 34.14 14.77 32.01 10.22 70.83 44 70.83 79.56l1.4 606.64c.17 66.58-112.16 80.72-121.38 91.78-9.06 10.88 23.29 7.74 23.95 7.76h296.93c58.87 0 212.6-6.59 344.88 2.93 37.84 2.72 34.54-1.99 40.86-12.94 13.25-22.95 53.78-156.75 84.43-220.2-31.2 31.14-97.81 150.87-156.27 166.53-97.04 26.01-290.67 26.1-314.46 25.58l-75.14-.81c-7.5-2.01-12.98-5.36-13.19-36.51-.09-13.68.5-28.45 0-52.42l-5.01-241c-.2-9.66 1.48-17.68 12.94-17.69l199.2-.25c91.3-.1 90.41 22.01 109.77 55.54 9.55 16.55 15.74 33.07 21.7 33.07 6.95 0 5.96-11.73 5.96-11.73s-3.98-70.42-3.98-97.1c0-28.8 3.48-92.23 3.48-108.23 0-10.67-4.96-13.87-5.95-13.87-4.65 0-9.35 8.82-13.9 25.6-18.05 66.46-33.07 82.78-127.03 83.03l-193.74.52c-6.95.01-11.4-10.74-11.4-17.7V155.04c0-10.92-2.97-14.09 6.95-13.9l205.56-9.98c106.48 2.1 126.08 27.65 143.13 91.28 2.22 8.27 14.18 45.05 18.23 45.05 2.97 0 4.67-18.33 4.84-36.11.22-21.7 6.72-145-.34-146.89Z"/></svg>
