<svg viewBox="0 0 1000 1000"><path d="M716.6 84.27c-78.9 0-290.48 13.56-436.37 14.04-63.55.2-124.6-5.98-133.54-5.98-6.95 0-15.91 1-15.91 6.95 0 10.72 19.45 10.09 34.14 14.77 32 10.22 70.82 44.04 70.84 79.6l.28 606.6c.04 71.7-110.1 81.62-120.28 91.8-9.14 9.14 18.33 7.77 23.97 7.77h326.38c29.43 0 183.14-6.59 315.42 2.93 37.85 2.72 34.53-1.99 40.86-12.94C835.64 866.86 882 735.1 905.52 669.6c-23.73 35.3-96.5 150.88-154.95 166.54-97.05 26.01-332.33 25.55-356.12 25.55-54.63 0-54.65-6.51-54.65-48.05V530.97c0-11.27 5.9-17.7 12.78-17.7l196.45-.25c91.3-.12 106.78 19.18 119.67 50.9 6.36 15.66 11.7 37.72 17.66 37.72 6.95 0 5.94-11.72 5.94-11.72s-3.95-70.45-3.95-97.12c0-28.8 3.46-92.24 3.46-108.24 0-10.2-4.94-13.83-5.94-13.83-4.65 0-9.3 14.31-12.33 30.19-12 62.89-40.48 78.15-134.44 78.4l-186.52.54c-6.95.02-12.78-10.75-12.78-17.7V155.03c0-10.92 0-13.54 6.96-13.88l205.57-10c83.53-4.06 124.36 18.1 143.92 91.1 2.48 9.26 15.02 45.25 17.41 45.25 5.25 0 17.73-183.23 2.93-183.23Z"/></svg>
