<svg viewBox="0 0 1000 1000"><path d="M717.07 92.2c-27.31 0-324.88 3.9-455.6 3.9-62.45 0-109.28-5.86-118.06-5.86-6.82 0-15.6.98-15.6 6.83 0 3.9 16.58 8.78 31.21 12.69 31.22 10.73 63.42 55.6 63.42 80v536.58c.97 59.51-13.66 120-57.56 144.4-14.64 8.77-39.03 5.85-39.03 15.6 0 5.86 8.78 4.88 20.5 4.88h264.38c7.8 0 18.54.98 18.54-4.88 0-9.75-27.32-8.78-45.85-18.54C352.19 852.2 320 795.62 320 704.88V479.5c0-4.88-7.8-6.83 15.61-6.83h172.68c56.59 0 104.4 29.27 128.78 55.61 11.71 13.66 17.56 30.25 23.42 30.25 6.83 0 5.85-10.74 5.85-10.74s-3.9-64.38-3.9-88.78c0-26.34 6.83-68.29 6.83-82.92 0-9.76-4.88-12.69-5.86-12.69-6.82 0-10.73 19.52-13.65 23.42-34.15 46.83-57.56 60.49-118.05 60.49H327.8c-6.83 0-7.81-5.86-7.81-12.69V138.05c0-10.73-2.93-13.66 6.83-13.66h201.95c75.12 0 179.51 10.73 203.9 93.66.98 7.8 7.8 27.32 15.61 27.32 2.93 0 5.86-9.76 5.86-18.54 0-25.37-6.83-102.44-9.76-123.9-1.95-6.83-12.68-10.73-27.32-10.73Z"/></svg>
