<svg viewBox="0 0 1000 1000"><path d="M71.72 89.23c-8.47 0-9.33.21-9.33 2.7 0 4.63-.44 8.73 1.72 8.73 58.53-.21 91.44 50.12 91.44 82 0 68.4.92 145.6.92 312.25 0 166.7-.92 243.84-.92 312.24 0 31.83-32.9 82.16-91.44 82-2.16 0-1.72 4.1-1.72 8.74 0 2.48.86 2.7 9.33 2.7l11.33-.11c8.58 0 63.22-1.57 131.36-1.57 68.19 0 122.83 1.62 131.41 1.62h11.33c8.47.06 9.33-.16 9.33-2.7 0-4.58.38-8.68-1.72-8.68-58.59.16-91.44-50.17-91.44-82 0-56.8-.92-125.05-.76-240.6 0-22.12 1.51-25.3 4.1-27.9 2.32-2.31 4.7-3.01 47.15-3.12h340.35c42.46.1 44.83.8 47.2 3.13 2.6 2.59 4.05 5.77 4.1 27.89.11 115.55-.8 183.8-.8 240.6 0 31.83-32.91 82.16-91.44 82-2.16 0-1.73 4.1-1.73 8.74 0 2.48.86 2.7 9.39 2.7l11.27-.11c8.63 0 63.23-1.57 131.42-1.57 68.13 0 122.78 1.62 131.41 1.62h11.27c8.47.06 9.4-.16 9.4-2.7 0-4.58.37-8.68-1.79-8.68-58.53.16-91.44-50.17-91.44-82 0-68.4-.86-145.6-.86-312.24 0-166.7.86-243.84.86-312.25 0-31.88 32.9-82.21 91.44-82 2.16 0 1.78-4.1 1.78-8.73 0-2.49-.92-2.7-9.39-2.7l-11.32.1c-8.58 0-63.23 1.57-131.36 1.57-68.2 0-122.84-1.62-131.42-1.62h-11.33c-8.47-.1-9.33.16-9.33 2.7 0 4.58-.38 8.68 1.73 8.68 58.58-.21 91.44 50.12 91.44 82 0 56.16.59 121.22.8 233.86.11 60.96-.37 64.95-4.1 68.68-3.72 3.72-7.12 3.13-217.4 3.13-210.23 0-213.63.59-217.3-3.13-3.77-3.73-4.26-7.72-4.15-68.68.21-112.64.8-177.7.8-233.86 0-31.88 32.92-82.21 91.45-82 2.16 0 1.78-4.1 1.78-8.73 0-2.49-.92-2.7-9.39-2.7l-11.33.1c-8.58 0-63.22 1.57-131.36 1.57-68.19 0-122.83-1.62-131.41-1.62H71.72z"/></svg>
