<svg viewBox="0 0 1000 1000"><path d="M69.71 89.23c-8.49-.04-9.38.2-9.38 2.7 0 4.62-.38 8.73 1.76 8.73 58.56-.2 91.45 50.12 91.45 82 0 68.41.89 145.58.89 312.25 0 166.66-.89 243.82-.89 312.22 0 31.9-32.9 82.2-91.45 82-2.14 0-1.76 4.12-1.76 8.73 0 2.5.89 2.73 9.38 2.71 2.83-.02 6.52-.06 11.29-.07 8.6-.01 63.23-1.57 131.4-1.57 68.18 0 122.82 1.56 131.42 1.57 4.77.01 8.45.05 11.28.07 8.5.02 9.38-.2 9.38-2.7 0-4.62.38-8.73-1.76-8.73-58.55.18-91.45-50.12-91.45-82 0-56.8-.88-125.02-.75-240.62.02-22.1 1.5-25.27 4.1-27.86 2.33-2.33 4.71-3.02 47.17-3.12 41.48-.1 83.09-.02 170.18-.02 87.1 0 128.69-.07 170.18.02 42.45.1 44.84.79 47.18 3.12 2.59 2.6 4.07 5.76 4.1 27.86.12 115.6-.77 183.81-.77 240.61 0 31.9-32.9 82.2-91.45 82-2.14 0-1.76 4.12-1.76 8.73 0 2.5.89 2.73 9.38 2.71 2.83-.02 6.51-.06 11.28-.07 8.6-.01 63.24-1.57 131.42-1.57 68.17 0 122.8 1.56 131.4 1.57 4.78.01 8.46.05 11.3.07 8.48.02 9.37-.2 9.37-2.7 0-4.62.38-8.73-1.76-8.73-58.55.18-91.45-50.12-91.45-82 0-68.41-.88-145.57-.88-312.23 0-166.67.88-243.84.88-312.24 0-31.9 32.9-82.2 91.45-82 2.14 0 1.76-4.12 1.76-8.73 0-2.5-.89-2.75-9.38-2.71-2.83.01-6.51.06-11.28.08-8.6.01-63.24 1.58-131.41 1.58-68.18 0-122.82-1.57-131.41-1.58-4.77-.02-8.46-.07-11.29-.08-8.49-.04-9.38.2-9.38 2.7 0 4.62-.38 8.73 1.76 8.73 58.55-.2 91.45 50.12 91.45 82 0 56.17.58 121.22.79 233.89.1 60.92-.4 64.94-4.12 68.65-3.71 3.71-7.1 3.14-217.36 3.14-210.26 0-213.64.57-217.36-3.14-3.7-3.71-4.23-7.73-4.12-68.65.21-112.67.8-177.72.8-233.88 0-31.9 32.89-82.2 91.44-82 2.14 0 1.76-4.12 1.76-8.73 0-2.5-.89-2.75-9.38-2.71-2.83.01-6.51.06-11.28.08-8.6.01-63.24 1.58-131.41 1.58-68.18 0-122.82-1.57-131.41-1.58-4.77-.02-8.46-.07-11.29-.08Z"/></svg>
