<?xml version="1.0" encoding="UTF-8"?>
<svg version="1.0" xmlns="http://www.w3.org/2000/svg" xmlns:xlink="http://www.w3.org/1999/xlink" x="0px" y="0px" viewBox="0 0 1000 1000">
<path d="M 470.498 101.201 C 462.821 101.201 464.746 109.825 470.498 110.789 C 570.902 128.039 568.004 191.317 568.004 270.898 C 567.795 424.09 568.166 577.092 568.166 730.094 C 568.166 824.286 541.076 883.508 474.07 883.508 C 449.833 883.508 428.449 877.678 407.064 855.342 C 389.948 837.871 372.854 830.1 335.768 830.1 C 310.116 830.1 284.441 857.302 284.441 883.508 C 284.441 903.901 338.62 924.293 431.301 924.293 C 515.4 924.293 568.165 898.071 606.643 860.207 C 644.425 823.449 678.334 798.635 681.859 623.297 L 682.092 623.281 C 682.045 613.124 682.091 601.623 682.207 592.225 C 682.277 484.874 682.092 378.107 682.092 270.898 C 682.092 191.317 688.075 124.2 768.092 110.789 C 773.844 109.825 772.893 101.201 768.092 101.201 L 470.498 101.201 Z"/>
</svg>
