<svg xml:space="preserve" viewBox="0 0 1000 1000"><path d="M129.2 106.7c-9 0-10 .2-10 3.1 0 5.5-.3 10.4 2 10.4 56.8 0 120.7 17.2 120.7 82.6 0 182.8.7 365 .8 565.5 0 73.4-81.4 109.6-120.5 132.7-11.3 6.6 18.3 8 24 8h327c29.5 0 173.8-6.8 306.3 3 38 2.7 34.6-2.1 41-13.3 13.3-23.5 59.7-158.3 83.3-225.3C880 709.5 807 827.8 748.5 843.8c-97.2 26.6-323.3 26.1-347.1 26.1-54.8 0-54.7-6.6-54.8-49.1-.4-206.3.6-406 .6-598.7 0-76.3 46.8-102 106.7-102 2.3 0 1.9-4.8 1.9-10.2 0-3-1-3.3-10-3.2h-12c-9 0-67 2-139.2 2-72.3 0-144.3-2-153.4-2h-12Z"/></svg>