<svg height="1000mm" viewBox="0 0 1000 1000" width="1000mm" xmlns="http://www.w3.org/2000/svg">
    <path d="m773.98274 294.28094c-21.93713 48.96809-39.73305 88.12831-59.28314 134.40749-15.05588 35.64103-30.52249 75.9817-44.7981 106.35137-10.11125 21.51037-16.58106 42.65948-25.43192 62.59049-11.03981 24.85913-18.26409 39.78241-26.9262 58.02314-15.39949 32.42839-33.37571 67.50652-44.75413 93.16568-7.21064 16.26052-15.64936 33.71745-22.57998 52.76523-8.96686 24.64439-15.31537 36.06963-23.96993 62.89602-4.89152 15.16167-10.7968 29.96197-12.8622 29.93321-6.2116-.0884-11.96052-15.1868-17.84509-31.71565-2.92703-8.22242-10.23698-24.46184-21.83849-52.08106-16.76482-39.91098-33.84224-79.33487-48.5769-117.21824-7.6642-19.70488-19.90551-44.38235-25.14803-55.90044-15.71106-34.51832-36.49611-88.35531-52.62681-124.7507-18.94915-42.75458-32.72006-79.25164-50.27521-114.92799-19.49765-39.62399-22.57273-52.35844-34.73254-80.09562-10.3655-23.64428-26.6023-53.67113-33.73283-57.62389-3.47501 39.18296-7.58182 90.70567-10.25546 114.09035-3.78375 33.09431-7.34886 54.81296-12.33866 128.18759-3.40329 50.04529-4.75165 62.6426-8.5962 121.10083-1.41781 21.55886-4.30109 75.0388-3.60821 120.26893 1.40574 91.76778 11.80548 120.48588 39.49343 132.25232 13.96722 5.93559 51.2329 15.00354 54.86428 19.832 2.06028 2.73945-1.00358 5.168-13.66273 5.168h-194.49769c-14.524819 0-13.158769-3.66675 2.17463-11 42.69585-20.41943 47.99027-49.53797 56.39143-86.62125 2.7948-12.33643 6.86713-58.26555 9.30016-78.77646 5.23211-44.10752 8.71569-75.16891 10.22425-94.56581 4.67081-60.05624 6.22522-100.34527 8.36623-122.73593 5.26195-55.02888 11.57016-169.93378 13.07874-233.85928 1.64822-69.84331 3.64782-112.2652-1.91816-123.15602-9.92506-19.42014-18.04763-23.83743-36.77903-33.12572-18.40434-9.1261-48.92725-9.27577-61.59681-9.45269-7.77913-.10905-11.914459-.33922-12.074367-3.9133-.233727-5.223998.120256-7.79354 14.931992-7.79354h203.803465c15.53745 0 26.91903 48.65708 34.8998 70.26928 16.85837 45.65318 35.42509 91.0075 46.67168 118.65296 22.733 55.88039 29.45683 74.13326 49.85529 124.11667 19.58619 47.99345 31.73227 70.37361 45.35166 100.48475 11.12468 25.62214 29.15469 66.67182 59.33729 126.57516 10.52887 20.89726 16.90623 33.76072 30.53211 57.87444 18.94679-27.40712 32.96535-63.56969 50.51267-105.11178 16.93823-40.10001 23.85806-57.15346 40.06047-98.17586 16.64408-42.14009 25.06152-58.59258 35.76538-85.6664 12.52997-31.6918 18.94178-43.0346 31.93472-74.69083 16.81955-40.98037 20.77319-51.62382 29.59607-76.78121 16.29174-46.45325 33.30278-102.88786 36.93155-147.43787.7999-9.78676 1.01231-10.10931 15.87511-10.10931h198.99399c7.18156 0 3.80966 9.18883-2.05072 9.36818-65.81547 2.01425-88.78359 41.45806-95.88572 51.89537-22.35463 32.85244-21.14803 76.13378-11.37872 166.75031 2.11858 19.65107 5.41111 59.9818 7.84867 89.58238 7.60479 92.35647 9.85205 186.14469 15.55613 265.30565 4.30039 59.68083 18.20451 120.117 21.98423 145.19245 2.80159 18.58925 10.40647 39.46148 32.63664 53.09265 4.7831 2.93272 18.5647 7.40594 23.3477 9.5002 8.971 3.92841 16.11987 1.11011 15.6907 9.54985-.17198 3.3823-5.72081 4.76296-12.32593 4.76296h-281.66132c-14.82761 0-.15861-9.01585 9.33908-12.35507 10.43132-3.66747 21.05596-6.66784 48.86489-18.59697 16.22665-6.96071 36.98004-22.77965 38.66874-66.08729 1.50322-38.55077-.33172-75.39115-1.1432-98.30856l-6.9849-200.56093c-2.87686-82.55416-11.41993-151.55052-20.74523-210.80366z" stroke-width="4.75626"/>
</svg>
