<svg height="1000mm" viewBox="0 0 1000 1000" width="1000mm" xmlns="http://www.w3.org/2000/svg">
    <path d="m766.08314 302.6353c-13.94466 32.00308-32.50062 82.38863-51.38354 126.05313l-188.46026 435.79193c-16.39639 37.91469-13.31672 38.85861-30.70729-1.78244l-233.19798-544.97405c-10.15631-23.73489-32.6509-65.70462-33.73283-57.62389-6.22505 46.49389-9.25387 92.17762-10.95784 115.65289l-23.48441 323.54144c-9.30017 128.12711 4.02334 152.79524 39.13715 176.70569 12.54404 8.54175 51.2329 15.00354 54.86428 19.832 2.06028 2.73945-1.00358 5.168-13.66273 5.168h-194.49769c-14.524819 0-13.174313-3.69934 2.17463-11 41.91182-19.93518 47.99027-49.53797 56.39143-86.62125 2.7948-12.33643 6.11713-49.96881 9.74729-96.28611l32.46064-414.16541c5.45883-69.64916 2.40927-131.75116-3.15671-142.64198-9.92506-19.42014-18.04763-23.83743-36.77903-33.12572-18.40434-9.1261-48.92725-9.27577-61.59681-9.45269-7.77913-.10905-11.914459-.33922-12.074367-3.9133-.233727-5.223998.120256-7.79354 14.931992-7.79354h201.157635c15.53745 0 32.38651 52.70409 41.34902 73.92797l194.78561 461.26669c9.4747 22.4368 15.45556 36.0806 29.30397 61.06294 6.8586 12.37282 13.49332-3.61373 54.36773-103.39612l137.35664-335.3143c19.18129-46.82527 27.87046-97.31779 36.93155-147.43787 1.74691-9.662755 1.01231-10.10931 15.87511-10.10931h198.99399c7.18156 0 3.80966 9.18883-2.05072 9.36818-65.81547 2.01425-88.78359 41.45806-95.88572 51.89537-22.35463 32.85244-20.16872 71.30096-16.70484 117.8334l33.314 447.52762c2.16371 29.06645 11.5057 134.7258 50.03779 154.56242 6.83717 3.51983 15.47743 7.27853 23.3477 9.5002 9.4251 2.66057 16.11987 1.11011 15.6907 9.54985-.17198 3.3823-5.72081 4.76296-12.32593 4.76296h-281.66132c-14.82761 0-.15861-9.01585 9.33908-12.35507 10.43132-3.66747 21.05596-6.66784 48.86489-18.59697 16.22665-6.96071 32.22052-15.75668 38.21743-58.68033 5.28249-37.81008 4.8688-80.6176 4.2346-93.04446l-18.1539-355.71769c-1.56352-30.63639-12.59731-82.46959-22.40094-59.97018z" stroke-width="4.75626"/>
</svg>
