<?xml version="1.0" encoding="UTF-8" standalone="no"?>
<svg
   xmlns:dc="http://purl.org/dc/elements/1.1/"
   xmlns:cc="http://creativecommons.org/ns#"
   xmlns:rdf="http://www.w3.org/1999/02/22-rdf-syntax-ns#"
   xmlns:svg="http://www.w3.org/2000/svg"
   xmlns="http://www.w3.org/2000/svg"
   xmlns:sodipodi="http://sodipodi.sourceforge.net/DTD/sodipodi-0.dtd"
   xmlns:inkscape="http://www.inkscape.org/namespaces/inkscape"
   width="1000mm"
   height="1000mm"
   viewBox="0 0 1000 1000"
   version="1.1"
   id="svg8"
   inkscape:version="1.0.1 (3bc2e813f5, 2020-09-07, custom)"
   sodipodi:docname="Initials-Fill2.svg">
  <defs
     id="defs2">
    <clipPath
       clipPathUnits="userSpaceOnUse"
       id="clipPath1013">
      <rect
         style="opacity:1;fill:#008000;stroke-width:1.1589;stroke-linecap:round;stroke-dashoffset:10.0157;paint-order:fill markers stroke"
         id="rect1015"
         width="942.72699"
         height="922.50299"
         x="78.162735"
         y="88.562119"
         transform="rotate(-0.8)" />
    </clipPath>
  </defs>
  <sodipodi:namedview
     id="base"
     pagecolor="#ffffff"
     bordercolor="#666666"
     borderopacity="1.0"
     inkscape:pageopacity="0"
     inkscape:pageshadow="2"
     inkscape:zoom="0.20526726"
     inkscape:cx="1889.7638"
     inkscape:cy="1940.5265"
     inkscape:document-units="mm"
     inkscape:current-layer="layer3"
     inkscape:document-rotation="0"
     showgrid="false"
     inkscape:snap-global="true"
     inkscape:window-width="1920"
     inkscape:window-height="1009"
     inkscape:window-x="0"
     inkscape:window-y="0"
     inkscape:window-maximized="1"
     lock-margins="false"
     fit-margin-top="0"
     fit-margin-left="0"
     fit-margin-right="0"
     fit-margin-bottom="0"
     inkscape:snap-bbox="true"
     inkscape:bbox-paths="true"
     inkscape:bbox-nodes="true"
     inkscape:pagecheckerboard="false">
    <inkscape:grid
       type="xygrid"
       id="grid1000"
       originx="-101.50465"
       originy="-119.61943" />
  </sodipodi:namedview>
  <metadata
     id="metadata5">
    <rdf:RDF>
      <cc:Work
         rdf:about="">
        <dc:format>image/svg+xml</dc:format>
        <dc:type
           rdf:resource="http://purl.org/dc/dcmitype/StillImage" />
        <dc:title />
      </cc:Work>
    </rdf:RDF>
  </metadata>
  <g
     inkscape:groupmode="layer"
     id="layer3"
     inkscape:label="letter"
     style="display:inline">
    <path
       style="display:inline;fill:#000000;stroke-width:4.75626"
       d="m 773.98274,294.28094 c -21.93713,48.96809 -39.73305,88.12831 -59.28314,134.40749 -15.05588,35.64103 -30.52249,75.9817 -44.7981,106.35137 -10.11125,21.51037 -16.58106,42.65948 -25.43192,62.59049 -11.03981,24.85913 -18.26409,39.78241 -26.9262,58.02314 -15.39949,32.42839 -33.37571,67.50652 -44.75413,93.16568 -7.21064,16.26052 -15.64936,33.71745 -22.57998,52.76523 -8.96686,24.64439 -15.31537,36.06963 -23.96993,62.89602 -4.89152,15.16167 -10.7968,29.96197 -12.8622,29.93321 -6.2116,-0.0884 -11.96052,-15.1868 -17.84509,-31.71565 -2.92703,-8.22242 -10.23698,-24.46184 -21.83849,-52.08106 -16.76482,-39.91098 -33.84224,-79.33487 -48.5769,-117.21824 -7.6642,-19.70488 -19.90551,-44.38235 -25.14803,-55.90044 -15.71106,-34.51832 -36.49611,-88.35531 -52.62681,-124.7507 -18.94915,-42.75458 -32.72006,-79.25164 -50.27521,-114.92799 -19.49765,-39.62399 -22.57273,-52.35844 -34.73254,-80.09562 -10.3655,-23.64428 -26.6023,-53.67113 -33.73283,-57.62389 -3.47501,39.18296 -7.58182,90.70567 -10.25546,114.09035 -3.78375,33.09431 -7.34886,54.81296 -12.33866,128.18759 -3.40329,50.04529 -4.75165,62.6426 -8.5962,121.10083 -1.41781,21.55886 -4.30109,75.0388 -3.60821,120.26893 1.40574,91.76778 10.2287,118.87771 39.49343,125.85249 14.77221,3.52061 57.50307,11.65853 54.86428,19.23162 -0.9321,2.67399 -21.47168,4.87157 -46.47106,5.26006 -41.18976,0.64009 -54.19569,-0.11738 -113.4362,1.24793 -61.73477,1.4228 -83.449772,6.22315 -46.07853,-12.11422 41.73422,-20.4782 43.69697,-42.76353 56.39143,-79.84681 4.09661,-11.9673 6.86713,-58.26555 9.30016,-78.77646 5.23211,-44.10752 8.71569,-75.16891 10.22425,-94.56581 4.67081,-60.05624 6.22522,-100.34527 8.36623,-122.73593 5.26195,-55.02888 11.57016,-169.93378 13.07874,-233.85928 1.64822,-69.84331 2.14727,-106.11605 -1.91816,-112.04352 -8.57484,-12.50244 -18.04763,-22.24993 -36.77903,-31.53822 -18.40434,-9.1261 -48.92725,-7.15911 -61.59681,-7.33603 -7.77913,-0.10905 -11.85235,-2.82398 -11.78213,-7.85439 0.0775,-5.52932 -1.30969,-7.63986 45.1589,-8.28271 41.41688,-0.57309 81.89776,-1.28437 116.37781,-1.61112 33.83126,-0.31976 62.59002,0.29663 63.25651,1.75757 8.99702,19.72147 16.3357,38.12423 24.31647,59.73643 16.85837,45.65318 38.50675,90.43167 50.90501,118.65296 24.26487,55.23245 29.45683,74.13326 49.85529,124.11667 19.58619,47.99345 31.73227,70.37361 45.35166,100.48475 11.12468,25.62214 29.15469,66.67182 59.33729,126.57516 10.52887,20.89726 16.90623,33.76072 30.53211,57.87444 18.94679,-27.40712 32.96535,-63.56969 50.51267,-105.11178 16.93823,-40.10001 23.85806,-57.15346 40.06047,-98.17586 16.64408,-42.14009 25.06152,-58.59258 35.76538,-85.6664 12.52997,-31.6918 18.94178,-43.0346 31.93472,-74.69083 16.81955,-40.98037 20.77319,-51.62382 29.59607,-76.78121 16.29174,-46.45325 33.30278,-102.88786 36.93155,-147.43787 0.7999,-9.78676 1.19131,-12.13995 15.87511,-9.84017 7.69988,1.20591 39.98548,-0.20141 86.55541,-0.66799 42.63651,-0.42694 82.02339,-1.96865 108.78909,-6.59216 14.94057,-2.58089 9.1088,13.57056 9.1088,13.57056 -1.8794,30.89328 -9.6934,24.83216 -16.2449,12.84431 -9.9052,-18.12469 -29.8982,-0.34754 -67.17402,22.26137 -44.70309,27.11426 -41.12486,95.7121 -31.35555,186.32863 2.11858,19.65107 5.41111,59.9818 7.84867,89.58238 7.60479,92.35647 9.85205,186.14469 15.55613,265.30565 4.30039,59.68083 18.20451,120.117 21.98423,145.19245 2.80159,18.58925 10.40647,39.46148 32.63664,53.09265 4.7831,2.93272 18.5647,7.40594 23.3477,9.5002 8.971,3.92841 16.25277,1.07136 15.6907,9.54985 -1.1217,16.9235 -39.5285,3.70483 -79.5301,3.66694 -50.74725,-0.0491 -95.45524,-0.88822 -132.14133,-0.0785 -63.96836,1.4036 -129.53613,11.3317 -72.97674,-11.18055 7.73983,-3.08073 21.59262,-7.71118 48.86489,-20.71364 15.93791,-7.59859 36.98004,-20.66298 38.66874,-63.97062 1.50322,-38.55077 -0.33172,-75.39115 -1.1432,-98.30856 l -6.9849,-200.56093 C 791.84973,422.53702 783.30666,353.54066 773.98136,294.28752 Z"
       id="path925"
       sodipodi:nodetypes="sssssssssssssssscsssssssssssssssssssssssscscssssssssssssssssssssssssssss" />
  </g>
</svg>
