<svg viewBox="0 0 1000 1000"><path d="M788.57 61.37c-33.38 0-61.18 27.8-61.18 61.18 0 33.37 27.8 61.18 61.18 61.18 33.36 0 61.18-27.81 61.18-61.18 0-33.37-27.82-61.18-61.18-61.18ZM210.16 63.6c-33.37 0-61.17 27.8-61.17 61.17 0 33.37 27.8 61.18 61.17 61.18 33.37 0 61.18-27.81 61.18-61.18 0-33.37-27.81-61.17-61.18-61.17Zm294.77 56.72c-246.94 0-379.3 187.99-379.3 388.2 0 219.13 173.52 365.95 369.28 365.95 246.94 0 379.3-187.98 379.3-388.2 0-219.13-173.51-365.95-369.28-365.95Zm-17.8 46.72c185.76 0 280.3 167.96 280.3 373.73 0 174.64-85.65 289.2-255.83 289.2-185.76 0-279.19-170.18-279.19-377.07 0-173.52 86.76-285.86 254.72-285.86Z"/></svg>
