<svg viewBox="0 0 1000 1000"><path d="M473.4 83.35c-198.1 0-239.14 5.5-305.18 2.45-66.04-3.06-69.3-2.35-71.02 7.55-2.4 13.88 35.74 10.66 71.58 25.1 30.13 12.15 46.66 18.08 48.01 32.56 6.26 67.11 11.33 131.46 14.48 203.99 4.85 111.56 3.84 215.6-3 327.17-3.16 51.52-8 98.55-13 145.57-3 25.02-24.02 39.03-48.03 50.03-45.03 21.01-49.76 12.97-48.02 26.02.26 1.98 2 1 26.01 1 12 0 54.23-2.32 143.28-2.45 50.38-.08 96.43 2.07 145.13 2.44 23.68.18 25.75.99 26.01-1 .98-7.3-1.06-8.45-7.04-9.54-86.28-15.73-98.68-39.54-102.19-77.63-4.72-51.26-5.05-84.91-7.09-177.96-.9-41.42-1.77-80.81-1.88-125.68 143.94 5.27 191 11.54 283.03-16.4 76.02-23.08 147.64-76.71 147.64-184.48S671.5 83.35 473.4 83.35Zm-103.2 45.78c4.53 0 9.78.25 15.85.25 195.56 0 271.55 57.78 271.55 183.25 0 125.48-98.16 181.34-221.22 183.94-19.03.4-83.04 1-95.05 1v-174.6c0-182.86-2.93-193.93 28.86-193.85Z"/></svg>
