<?xml version="1.0" encoding="UTF-8"?>
<svg version="1.0" xmlns="http://www.w3.org/2000/svg" xmlns:xlink="http://www.w3.org/1999/xlink" x="0px" y="0px" viewBox="0 0 1000 1000">
<path d="M 350.64 808.603 C 350.214 877.925 396.197 879.977 446.283 888.664 C 453.256 889.868 458.659 891.947 459.018 893.816 C 459.556 896.446 458.704 902.554 458.659 904.399 C 458.614 906.244 393.552 904.547 313.849 903.518 C 234.146 902.484 157.695 904.869 145.364 904.885 C 121.756 904.916 120.142 905.845 119.805 903.717 L 119.805 903.717 C 118.079 890.839 122.675 899.049 168.277 877.501 C 191.616 866.478 212.758 852.705 215.717 828.458 C 242.24 594.002 239.594 379.065 216.524 151.331 C 216.457 140.361 178.635 116.517 134.781 114.195 C 96.1295 112.145 95.6587 106.372 97.4972 95.2027 C 99.1787 84.9389 102.474 84.1049 149.87 86.8266 C 235.223 91.7321 264.615 84.7192 464.892 85.1765 C 671.132 85.1765 779.891 204.5 771.91 328.616 C 764.063 401.944 711.376 471.155 624.32 497.709 C 514.171 531.309 449.916 513.932 338.377 513.932 L 339.52 498.605 C 339.52 498.605 340.619 499.48 436.105 497.848 C 574.368 495.489 649.027 443.452 658.174 300.181 L 658.174 300.181 C 652.838 170.962 519.238 132.4 451.53 131.196 C 418.102 130.604 382.409 130.454 372.231 131.19 C 354.071 132.499 345.125 131.047 345.125 147.617 C 337.458 165.161 341.269 773.194 350.618 808.604 Z M 464.893 84.6758 C 264.604 84.2184 235.217 91.2316 149.898 86.3281 C 126.197 84.967 113.536 84.4815 106.459 85.6523 C 102.921 86.2377 100.734 87.2585 99.3477 88.8535 C 97.9608 90.4485 97.4283 92.5305 97.0039 95.1211 C 96.5426 97.9237 96.2111 100.427 96.6211 102.684 C 97.0311 104.94 98.2299 106.929 100.682 108.537 C 105.585 111.754 115.405 113.667 134.756 114.693 C 156.6 115.85 176.961 122.374 191.846 129.965 C 199.288 133.761 205.362 137.826 209.557 141.6 C 213.752 145.373 216.01 148.878 216.025 151.334 L 216.025 151.357 L 216.027 151.381 C 239.095 379.088 241.739 593.984 215.221 828.402 C 213.756 840.393 207.812 849.776 199.303 857.57 C 190.792 865.365 179.714 871.546 168.064 877.049 C 145.291 887.809 132.806 891.123 126.133 893.387 C 122.796 894.519 120.84 895.386 119.82 896.945 C 118.801 898.505 118.876 900.542 119.311 903.783 L 119.311 903.789 L 119.312 903.795 C 119.36 904.094 119.433 904.392 119.619 904.662 C 119.805 904.932 120.094 905.138 120.445 905.27 C 121.148 905.532 122.141 905.596 123.854 905.611 C 127.279 905.642 133.568 905.4 145.365 905.385 C 157.758 905.369 234.155 902.984 313.844 904.018 C 353.693 904.532 389.882 905.213 416.119 905.535 C 429.238 905.696 439.868 905.768 447.229 905.684 C 450.909 905.641 453.769 905.561 455.727 905.432 C 456.705 905.367 457.454 905.292 457.988 905.197 C 458.255 905.15 458.466 905.1 458.652 905.025 C 458.745 904.988 458.834 904.947 458.932 904.865 C 459.029 904.783 459.155 904.623 459.16 904.41 C 459.181 903.551 459.404 901.536 459.557 899.438 C 459.709 897.34 459.802 895.161 459.508 893.721 C 459.377 893.043 458.865 892.499 458.148 891.986 C 457.431 891.473 456.474 890.989 455.316 890.527 C 453.001 889.604 449.882 888.778 446.369 888.172 C 421.307 883.825 397.338 881.124 379.771 870.939 C 362.205 860.755 350.928 843.156 351.141 808.605 L 351.145 808.086 L 351.051 808.09 C 350.505 805.889 349.952 801.699 349.43 795.496 C 348.891 789.103 348.375 780.751 347.883 770.73 C 346.899 750.688 346.012 723.966 345.236 692.84 C 343.97 642.041 343.085 578.887 342.453 514.502 C 451.335 514.931 515.63 531.387 624.465 498.188 C 711.699 471.579 764.538 402.201 772.406 328.67 L 772.408 328.658 L 772.408 328.648 C 776.409 266.435 751.141 205.415 699.062 159.977 C 646.984 114.538 568.109 84.6758 464.893 84.6758 Z M 464.891 85.6758 L 464.893 85.6758 C 567.916 85.6758 646.541 115.478 698.406 160.73 C 750.269 205.98 775.388 266.675 771.41 328.574 C 763.58 401.696 711.047 470.732 624.174 497.23 C 515.528 530.373 451.428 513.929 342.443 513.502 C 342.396 508.693 342.332 504.055 342.289 499.23 C 344.025 499.281 346.529 499.333 352.004 499.34 C 364.22 499.354 388.369 499.164 436.113 498.348 C 505.306 497.167 558.662 483.559 595.879 452.24 C 633.095 420.922 654.093 371.931 658.672 300.213 L 658.674 300.188 L 658.674 300.16 C 655.999 235.381 621.134 193.261 578.502 167.256 C 535.87 141.251 485.482 131.299 451.539 130.695 C 418.106 130.103 382.463 129.949 372.195 130.691 C 363.134 131.345 356.348 131.278 351.676 133.219 C 349.34 134.189 347.536 135.7 346.361 138.018 C 345.186 140.336 344.625 143.43 344.625 147.617 C 344.357 148.299 344.15 149.306 343.943 150.891 C 343.724 152.573 343.518 154.787 343.322 157.506 C 342.93 162.943 342.583 170.395 342.277 179.586 C 341.666 197.967 341.221 223.299 340.934 253.312 C 340.359 313.34 340.409 392.098 340.99 471.414 C 341.057 480.49 341.199 489.154 341.279 498.217 C 341.268 498.216 341.213 498.217 341.201 498.217 C 340.409 498.189 339.999 498.162 339.801 498.143 C 339.754 498.138 339.755 498.138 339.73 498.135 L 339.092 497.625 L 337.838 514.432 L 338.377 514.432 C 339.455 514.432 340.384 514.481 341.453 514.484 C 342.085 578.883 342.971 642.052 344.238 692.865 C 345.014 723.996 345.9 750.723 346.885 770.779 C 347.377 780.807 347.893 789.168 348.434 795.58 C 348.974 801.993 349.528 806.436 350.135 808.732 L 350.146 808.779 C 349.976 843.426 361.462 861.48 379.27 871.805 C 397.11 882.148 421.173 884.816 446.197 889.156 L 446.199 889.156 L 446.199 889.158 C 449.659 889.756 452.727 890.571 454.945 891.455 C 456.055 891.897 456.952 892.359 457.566 892.799 C 458.181 893.239 458.478 893.654 458.527 893.91 L 458.527 893.914 L 458.527 893.916 C 458.771 895.106 458.709 897.292 458.559 899.365 C 458.416 901.329 458.224 903.092 458.182 904.121 C 458.096 904.148 457.997 904.18 457.814 904.213 C 457.352 904.295 456.62 904.37 455.66 904.434 C 453.74 904.561 450.888 904.641 447.217 904.684 C 439.874 904.768 429.248 904.696 416.133 904.535 C 389.902 904.213 353.709 903.532 313.855 903.018 C 234.139 901.984 157.632 904.369 145.363 904.385 C 133.553 904.4 127.229 904.641 123.861 904.611 C 122.178 904.596 121.227 904.495 120.795 904.334 C 120.579 904.253 120.503 904.182 120.443 904.096 C 120.385 904.01 120.337 903.872 120.301 903.643 C 119.873 900.451 119.875 898.687 120.656 897.492 C 121.438 896.296 123.156 895.453 126.453 894.334 C 133.047 892.097 145.661 888.74 168.49 877.953 C 180.18 872.432 191.342 866.216 199.977 858.307 C 208.612 850.398 214.719 840.774 216.215 828.52 L 216.215 828.516 L 216.215 828.514 C 242.74 594.036 240.094 379.073 217.025 151.328 C 217.007 148.299 214.511 144.711 210.225 140.855 C 205.939 137 199.804 132.901 192.301 129.074 C 177.294 121.421 156.818 114.861 134.809 113.695 C 115.507 112.672 105.766 110.676 101.23 107.701 C 98.9629 106.214 97.9726 104.537 97.6035 102.506 C 97.2345 100.475 97.5323 98.0654 97.9902 95.2832 C 98.4066 92.7419 98.9184 90.8728 100.104 89.5098 C 101.289 88.1467 103.203 87.2045 106.623 86.6387 C 113.463 85.507 126.148 85.9655 149.842 87.3262 C 235.228 92.2336 264.626 85.2184 464.891 85.6758 Z M 403.145 131.197 C 417.519 131.216 434.81 131.399 451.521 131.695 C 485.286 132.296 535.551 142.228 577.98 168.109 C 620.406 193.989 655.005 235.754 657.672 300.184 C 653.099 371.717 632.195 420.373 595.236 451.475 C 558.271 482.582 505.166 496.169 436.096 497.348 C 388.354 498.164 364.21 498.354 352.006 498.34 C 346.513 498.333 343.994 498.279 342.279 498.229 C 342.199 489.159 342.057 480.488 341.99 471.406 C 341.409 392.095 341.359 313.341 341.934 253.322 C 342.221 223.313 342.664 197.986 343.275 179.619 C 343.581 170.436 343.928 162.992 344.318 157.578 C 344.513 154.871 344.72 152.672 344.936 151.021 C 345.151 149.371 345.398 148.242 345.584 147.816 L 345.625 147.721 L 345.625 147.617 C 345.625 143.52 346.182 140.58 347.252 138.469 C 348.322 136.358 349.89 135.044 352.061 134.143 C 356.401 132.34 363.168 132.344 372.268 131.688 C 377.313 131.323 388.77 131.178 403.145 131.197 Z M 339.98 499.154 C 340.234 499.174 340.514 499.194 341.166 499.217 C 341.184 499.217 341.27 499.218 341.289 499.219 C 341.332 504.042 341.396 508.677 341.443 513.484 C 340.564 513.482 339.799 513.442 338.914 513.441 L 339.98 499.154 Z"/>
</svg>
