<svg viewBox="0 0 1000 1000"><path d="M388.82 103.93c271.04 0 284.14 293.2 284.14 388.92 0 125.95-86.66 240.81-217.64 240.81-153.15 0-265-222.67-265-393.96 0-136.02 104.8-235.77 198.5-235.77Zm418.14 861.48c86.66 0 183.38-70.53 183.38-85.65 0-4.03-2.01-11.08-5.04-11.08-12.09 0-61.46 51.39-117.88 51.39-162.22 0-318.4-130.99-318.4-157.19 0-11.08 11.09-20.15 34.26-33.25 95.72-54.4 185.4-188.41 185.4-328.47 0-211.59-198.5-338.54-354.67-338.54-165.24 0-320.4 152.14-320.4 335.52 0 199.5 158.18 344.6 291.18 363.74 21.16 3.02 54.4 21.15 82.62 44.33 110.83 89.67 219.65 159.2 339.55 159.2Z"/></svg>
