<svg viewBox="0 0 1000 1000"><path d="M525.2 76.41c-132.25-.2-229.9 127.46-229.9 213.45 0 154.92 94.9 185.25 234.4 265.79 54.93 31.72 158.4 87.05 158.4 180.04 0 185.65-204 171.8-337.72 94.6-48.1-27.76-55.75-58.47-67.78-79.32-4.13-7.16-9.7-16.82-18.79-18.9-6.01-1.39 6.28 29.12 11.34 51.07 7.08 30.7 13.3 61.1 18.15 92.23 3.5 22.35-4.75 17.73 21.61 25.87 22.92 7.07 139.59 36.34 232.12 36.34 126.54 0 259.23-75.66 259.23-231.09 0-158.22-134.93-240.2-235.91-285.81-84.18-38.03-174.1-61.12-172.42-172.8 1.05-69.4 62.48-138.3 132.13-136.24 76.18 2.26 147.33 59 180.64 122.99a280.75 280.75 0 0 1 16.78 38.57c2.05 5.96 4.47 13.42 13.01 15.87 8.34 2.4-8.86-122.26-9.83-130.46-1.51-12.76-4.69-17.53-18.4-24.07-17.5-8.36-77.88-57.97-187.06-58.14Z"/></svg>
