<svg viewBox="0 0 1000 1000"><path d="M81.5 104.38c-7.97-.03-8.8.21-8.8 2.67 0 4.55-.37 8.61 1.64 8.61 54.96-.2 91.99 45.82 91.99 77.29 0 67.5.88 143.63.88 308.09v110.4c0 187.1 110.06 310.62 328.96 310.62 179.77 0 321.28-133.23 324.93-322.84 4-208 4.61-207.94 4.61-315.43.28-16.13 1.23-109.51 35.11-139.53 18.42-16.32 43.7-28.68 71.19-28.59 2 0 1.64-4.06 1.64-8.6 0-2.47-.83-2.71-8.8-2.68-2.66.02-6.1.06-10.58.08-8.07 0-40.14 1.56-103.62 1.56-63.48 0-107.75-1.56-115.82-1.56-4.48-.01-7.93-.06-10.59-.08-7.97-.04-8.8.2-8.8 2.67 0 4.55-.37 8.6 1.64 8.6 54.96-.2 78.37 79.97 81.1 129.87 2.04 37.1 4.03 62.65 5.38 107.26l-.17.19a5164.1 5164.1 0 0 1 1.84 122.78v.27c.02 9.42.05 18.93.04 27.79v1.51c-.02 12.46-.06 24.7-.06 37.63 0 190.77-75.82 317.96-243.36 317.96-149.2 0-256.8-88.05-256.8-283.72v-76.1c0-164.44.87-224.73.87-292.23 0-31.46 19.11-93.4 74.07-93.2 2.01 0 1.65-4.06 1.65-8.61 0-2.47-.84-2.72-8.8-2.68-2.67.02-6.11.06-10.6.07-8.06.01-42.66 1.56-106.14 1.56-63.48 0-115.94-1.55-124.01-1.56-4.48 0-7.93-.05-10.59-.07Z"/></svg>
