<svg viewBox="0 0 1000 1000"><path d="M362.6 29.2c-33.94 0-62.21 28.28-62.21 62.21s28.27 62.2 62.2 62.2c33.94 0 62.21-28.27 62.21-62.2 0-33.93-28.27-62.2-62.2-62.2zm290.71 0c-33.93 0-62.2 28.28-62.2 62.21s28.27 62.2 62.2 62.2c33.93 0 62.21-28.27 62.21-62.2 0-33.93-28.28-62.2-62.2-62.2zM126.46 195.42h-.06c-7.12-.04-7.86.18-7.86 2.38 0 4.06-.33 7.69 1.47 7.69 49.08-.18 82.14 40.92 82.14 69.02 0 60.27.8 128.26.8 275.12v98.6c0 167.08 98.28 277.37 293.75 277.37 160.53 0 286.9-118.97 290.17-288.3 3.57-185.73 4.11-185.69 4.11-281.67v-.01c.26-14.4 1.09-97.79 31.36-124.6 16.45-14.57 39.03-25.6 63.57-25.52 1.8 0 1.47-3.63 1.47-7.7 0-2.2-.75-2.4-7.87-2.37-2.37 0-5.45.05-9.45.07-7.2 0-35.84 1.4-92.53 1.4s-96.22-1.4-103.43-1.4c-4 0-7.08-.06-9.45-.07v-.01c-7.12-.04-7.86.2-7.86 2.39 0 4.06-.33 7.68 1.47 7.68 49.08-.18 69.97 71.41 72.42 115.97 1.81 33.13 3.6 55.95 4.8 95.78l-.15.17a4618 4618 0 0 1 1.56 92.3c0 5.62.11 11.26.11 17.35v60C737 757.42 669.3 871 519.7 871c-133.23 0-229.34-78.63-229.34-253.36V549.7c0-146.85.8-200.68.8-260.96 0-28.1 17.06-83.41 66.14-83.24 1.8 0 1.47-3.62 1.47-7.68 0-2.2-.75-2.43-7.86-2.4-2.38.02-5.46.06-9.45.08-7.21 0-38.1 1.4-94.8 1.4-56.68 0-103.53-1.4-110.74-1.4-4 0-7.08-.06-9.45-.07z"/></svg>
