<?xml version="1.0" encoding="utf-8"?>
<!-- Generator: Adobe Illustrator 24.1.2, SVG Export Plug-In . SVG Version: 6.00 Build 0)  -->
<svg version="1.0" id="Layer_1" xmlns="http://www.w3.org/2000/svg" xmlns:xlink="http://www.w3.org/1999/xlink" x="0px" y="0px"
	 viewBox="0 0 1000 1000" enable-background="new 0 0 1000 1000" xml:space="preserve">
<path d="M991.832,132.414c0,0-312.356-0.293-312.656-0.001c-0.3,0.292-8.428,7.822-0.126,8.876
	c55.188,7.01,75.737,36.093,63.157,85.099c-0.635,2.476-218.252,490.285-218.252,490.285
	c-0.545,1.177-250.006-454.89-246.542-515.947c1.918-33.806,39.619-56.208,66.144-55.043c5.253-0.474,5.253-13.271,0.791-13.271
	c-62.579-1.55-333.834,0.13-335.687,0c-6.282,0-7.664,12.559-2.249,13.006c0,0,102.7,15.571,124.461,40.127
	s340.458,630.065,358.657,681.877c0.648,1.843,268.626-575.947,308.349-646.85s158.219-76.738,193.123-77.388
	C996.076,142.883,998.873,132.291,991.832,132.414z"/>
</svg>
