<svg viewBox="0 0 1000 1000"><path d="M737.85 127.21a3.4 3.4 0 0 0-.89.06H559.33c-5.03 0-5.03 8.83 0 9.82 20.1 1.95 47.23 32.9 40.6 57.56-16.75 62.34-25.07 86.95-51.06 167.21l-39.31-109.98c-25.3-70.72-24.35-110.33 18.31-114.79 6.08-.65 5.03-9.82 0-9.82H299.54c-5.03 0-5.03 8.83 0 9.82 66.09 8.74 93.19 52.18 109.54 97.12l86.04 232.35c-33.03 92.15-79.54 221.67-103.48 277.8L207.83 251.88c-26.27-70.38 11.75-110.33 54.42-114.79 6.07-.65 5.02-9.82 0-9.82H3.85c-5.03 0-5.03 8.83 0 9.82 66.09 8.74 87.13 52.18 103.48 97.12l253.88 697.6c53.18-130.5 95.3-264.9 144.4-396.84a1210.1 1210.1 0 0 1 7.89-18.78l153.92 415.63 211.17-672.29c22.88-72.8 67.18-122.2 116.95-122.2 6.1 0 5.03-10.81 0-9.82l-224.64-.24c-5.02 0-5.02 8.83 0 9.82 56.5 5.52 73.6 50.78 52.85 123.27L685.39 743.6 563.07 401.58l74.18-187.23c20.8-52.45 27.8-67.58 99.7-77.26 5.66-.77 5.12-9.58.88-9.88z"/></svg>
