<svg viewBox="0 0 1000 1000"><path d="M737.95 134.06a3.9 3.9 0 0 0-.89.05h-177.6c-5.03 0-5.03 8.84 0 9.82 20.09 1.96 47.22 32.9 40.6 57.56-16.76 62.33-25.08 86.93-51.06 167.18l-39.3-109.96C484.4 188 485.33 148.39 528 143.93c6.08-.65 5.03-9.82 0-9.82H299.7c-5.02 0-5.02 8.84 0 9.82 66.08 8.74 93.18 52.18 109.53 97.11l86.03 232.32C462.22 565.5 415.73 695 391.79 751.12L208 258.7c-26.26-70.37 11.75-110.32 54.41-114.78 6.08-.65 5.03-9.82 0-9.82H4.05c-5.03 0-5.03 8.84 0 9.82 66.08 8.74 87.12 52.18 103.47 97.11l253.84 697.51c53.18-130.49 95.3-264.86 144.38-396.8 2.94-7.15 5.5-13.24 7.89-18.76l153.9 415.56 211.14-672.19c22.88-72.8 67.18-122.19 116.94-122.19 6.1 0 5.03-10.8 0-9.82L771 134.11c-5.02 0-5.02 8.84 0 9.82 56.5 5.52 73.59 50.78 52.84 123.26L685.5 750.35 563.2 408.39l74.17-187.2c20.8-52.45 27.8-67.58 99.67-77.26 5.68-.77 5.13-9.58.9-9.87z"/></svg>
