<svg viewBox="0 0 1000 1000"><path d="M309.22 110.5c-97.26.12-206.28.91-207.47.81-6.43 0-7.84 15.91-2.3 16.48 0 0 77.8 19.72 136.12 75.2 5.99 8.35 19.63 30.46 96.96 134.55l131.65 187.74c-24.98 26.93-193.93 225.78-203.85 238.58-33.11 42.72-96.24 121.38-180.7 122.47-5.41.32-8.4 11.62-.97 11.52 0 0 307.12.32 307.44 0 .38-.3 9.01-8.37.13-9.5-71.67-20.8-100.56-74.84-69.75-113.43l171.83-215.23 84.06 119.88c81.14 113.35 81.58 124.49 79.18 144.33-2.97 24.65-63.09 53.79-90.08 56.3-5.38.6-5.38 16.82-.72 16.82 64.12 1.96 342.07-.15 343.97 0 6.43 0 7.85-15.92 2.3-16.48 0 0-77.8-19.72-136.12-75.19-5.99-8.36-19.63-30.47-96.96-134.56l-133.93-191c34.34-38.24 190.59-222.17 200.12-234.47 33.11-42.72 96.24-121.38 180.7-122.47 5.41-.32 8.4-11.62.97-11.52h-.02c-.06 0-307.08-.32-307.4 0-.39.3-9.03 8.37-.14 9.5 71.67 20.8 100.57 74.84 69.75 113.44l-168.32 210.8-81.56-116.31c-81.14-113.35-81.57-124.49-79.18-144.33 2.98-24.65 63.1-53.8 90.08-56.3 5.39-.61 5.39-16.81.73-16.81-24.05-.74-78.17-.9-136.52-.82Z"/></svg>
