<svg viewBox="0 0 1000 1000"><path d="M306.01 103.943c-98.889.13-209.745.932-210.95.831-6.545 0-7.982 16.178-2.344 16.755 0 0 79.112 20.054 138.405 76.456 6.095 8.5 19.969 30.978 98.595 136.818l133.859 190.896C438.18 553.076 266.388 755.272 256.3 768.285c-33.667 43.441-97.855 123.43-183.733 124.531-5.508.326-8.552 11.818-.99 11.717 0 0 312.282.326 312.608 0 .384-.31 9.164-8.51.13-9.657-72.874-21.145-102.255-76.1-70.922-115.34l174.722-218.847 85.467 121.891c82.501 115.253 82.951 126.585 80.517 146.758-3.025 25.066-64.153 54.689-91.592 57.244-5.475.619-5.475 17.104-.74 17.104 65.203 1.988 347.82-.157 349.75 0 6.544 0 7.985-16.185 2.35-16.759 0 0-79.119-20.05-138.412-76.449-6.094-8.503-19.965-30.978-98.595-136.818L540.68 479.44c34.921-38.875 193.794-225.9 203.486-238.405 33.667-43.438 97.855-123.426 183.733-124.528 5.508-.326 8.552-11.82.994-11.72h-.026c-.062 0-312.243-.326-312.572 0-.385.31-9.171 8.513-.137 9.657 72.874 21.148 102.261 76.107 70.928 115.35L515.94 444.146 433 325.873c-82.502-115.25-82.945-126.578-80.51-146.755 3.028-25.066 64.159-54.698 91.6-57.25 5.47-.619 5.473-17.094.737-17.094-24.45-.743-79.483-.912-138.819-.83z"/></svg>
