<svg viewBox="0 0 1000 1000"><path d="M354.35 109.43h-43c-98.25.13-208.38.94-209.57.84-6.5 0-7.94 16.07-2.34 16.64 0 0 88.31-3.53 162.72 116.42 41 66.1 72.3 117.8 114.7 187.2 42.4 69.41 72.67 93.23 72.52 203.2-.1 76.97-.48 96.97-.48 145.53 0 78.73-58.2 114.7-126.96 114.52-2.51 0-2.06 4.04-2.06 8.56 0 2.45 1.03 2.67 17.7 2.62 16.66-.06 80.83-1.59 160.9-1.59 80.06 0 144.22 1.53 160.88 1.59 16.66.05 17.7-.17 17.7-2.62 0-4.52.46-8.56-2.06-8.56-68.76.18-128.3-35.96-128.3-114.52 0-45.3-.3-71.12-.4-156.48-.1-85.35-5.8-87.73 42.84-166.73 44.14-71.71 103.86-165.93 133.5-211.1 44.38-67.65 88.74-122.52 182.53-123.73 5.48-.32 8.5-11.74 1-11.64-.09 0-174.53-.18-261.9-.14-29.12.02-48.56.06-48.64.14-.38.3-9.1 8.46-.13 9.6 69.32 20.1 103.14 77.5 66.8 134.13L518.32 477.62 375.76 221.87c-31.74-56.94 15-89.24 72.79-94.62 5.44-.61 5.44-16.98.73-16.98-18.22-.55-53.53-.79-94.9-.84h-.03Z"/></svg>
