<svg viewBox="0 0 1000 1000"><path d="M355.64 112.77h-42.62c-97.37.13-206.52.93-207.71.83-6.44 0-7.86 15.93-2.31 16.5 0 0 87.52-3.5 161.27 115.39 40.64 65.5 71.66 116.75 113.69 185.54 42.02 68.79 72.02 92.4 71.87 201.4-.1 76.27-.47 96.1-.47 144.23 0 78.03-57.69 113.69-125.84 113.5-2.49 0-2.04 4-2.04 8.49 0 2.43 1.02 2.65 17.54 2.6 16.52-.06 80.11-1.58 159.47-1.58 79.35 0 142.94 1.52 159.46 1.57 16.51.06 17.54-.16 17.54-2.6 0-4.47.45-8.47-2.04-8.47-68.15.18-127.17-35.65-127.17-113.51 0-44.9-.28-70.5-.38-155.09-.1-84.6-5.76-86.95 42.45-165.26 43.75-71.07 102.94-164.46 132.32-209.23 43.98-67.04 87.95-121.43 180.9-122.62 5.43-.32 8.44-11.64 1-11.54-.09 0-172.98-.18-259.57-.14-28.87.02-48.13.06-48.22.14-.37.3-9.02 8.38-.13 9.5 68.7 19.94 102.23 76.82 66.2 132.95L518.16 477.7l-141.3-253.48c-31.46-56.44 14.88-88.45 72.15-93.79 5.38-.6 5.38-16.83.72-16.83-18.06-.55-53.05-.78-94.07-.83Z"/></svg>
