<svg viewBox="0 0 1000 1000"><path d="M367.21 109.43h-43c-98.24.13-208.37.94-209.57.84-6.5 0-7.93 16.07-2.33 16.64 0 0 88.3-3.53 162.71 116.42 41 66.1 72.3 117.8 114.7 187.2 42.4 69.41 72.67 93.23 72.52 203.2-.1 76.97-.47 96.97-.47 145.53 0 78.73-58.2 114.7-126.97 114.52-2.5 0-2.05 4.04-2.05 8.56 0 2.45 1.02 2.67 17.7 2.62 16.66-.06 80.82-1.59 160.89-1.59 80.06 0 144.22 1.53 160.88 1.59 16.66.05 17.7-.17 17.7-2.62 0-4.52.46-8.56-2.05-8.56-68.77.18-128.31-35.96-128.31-114.52 0-45.3-.29-71.12-.4-156.48-.1-85.35-5.8-87.73 42.84-166.73 44.15-71.71 103.86-165.93 133.5-211.1 44.39-67.65 88.75-122.52 182.53-123.73 5.48-.32 8.5-11.74 1-11.64-.08 0-174.52-.18-261.89-.14-29.12.02-48.56.06-48.64.14-.38.3-9.11 8.46-.14 9.6 69.32 20.1 103.15 77.5 66.8 134.13L531.19 477.62 388.63 221.87c-31.75-56.94 15-89.24 72.78-94.62 5.44-.61 5.44-16.98.73-16.98-18.21-.55-53.52-.79-94.9-.84Z"/></svg>
