<svg viewBox="0 0 1000 1000"><path d="M238.3 80.69c-17.34.53-18.75 11.97-24.15 33.52-8.6 34.29-18.63 67.62-29.67 101.2-7.9 24.02-24.74 56.86-17.88 55.93 10.37-1.41 17.36-11.78 22.92-19.21 44.62-59.67 96.9-112.37 172.78-112.37h259.02c38.94 0 52.79-.8 31.24 29.27L162.5 852.69c-40.39 56.36-51.94 52.03 23.15 52.03 18.98 0 344.37-2.42 351.37-2.39 68 .33 82.98 2.39 176 2.39 93.6 0 84.79 4.89 99.55-50.22 13.43-50.1 36.08-152.27 46.94-203.17-16.11 26.07-43.87 72.54-96.08 143.35-23.17 31.41-39.99 58.01-214.12 58.01H296.1l480.24-668.71 33.29-46.35c28.13-37.74 36.64-41.45-1.68-41.62h-.63c-7.63-.03-17.04.07-28.5.07-2.93 0-39.07.27-54.37.37 0 0-336.25-.64-355.52-.45-34.77.34-95.74-11.78-122.17-14.87a58.24 58.24 0 0 0-8.46-.44z"/></svg>
