<svg viewBox="0 0 1000 1000"><path d="M184.47 215.42c-7.54 24.12-17.98 55.72-11.16 54.51 4.1-.73 14.54-14.27 20.1-21.7 44.62-59.66 93-108.47 168.88-108.47H621.3c38.95 0 52.79-.8 31.24 29.27L162.5 852.7c-40.4 56.36-51.95 52.03 23.14 52.03 18.98 0 344.37-2.42 351.37-2.39 68 .33 82.98 2.39 176 2.39 93.6 0 84.8 4.89 99.56-50.22 13.42-50.1 36.07-152.27 46.93-203.17-16.11 26.07-43.87 72.53-96.08 143.34-23.17 31.42-39.99 58.02-214.12 58.02H296.09l480.24-668.71 33.29-46.35c28.13-37.74 36.64-41.45-1.68-41.62h-.63c-7.62-.03-17.04.07-28.5.07-2.93 0-39.07.27-54.36.37 0 0-403.54-.45-422.81-.45-99.57 0-64.18-50.03-117.17 119.42Z"/></svg>