<svg viewBox="0 0 1000 1000"><path d="M484.35 882.82c-171.62 0-281.28-160.5-281.28-398.35 0-220.1 109.95-377.2 320.8-356.63 184.59 18.01 215.15 110.84 218.82 156.06.5 6.14 7.3 11.3 16.68 15.4-2.09-21.56-2.86-43.14-4.17-64.68-1.82-29.8-4.5-60.6-3.13-90.35.71-15.42-5.06-23.1-18.75-26.7-17.59-4.62-140.67-42.08-269.9-32.61-181.52 13.3-388.28 183.3-388.28 399.5 0 520.74 500.62 480.13 711.77 374.06 14.7-7.38 17.37-17.67 19.8-27.5 7.35-29.76 31.54-175.46 41.96-226.8-31.6 51.18-95.55 278.6-364.32 278.6Z"/></svg>
