<svg viewBox="0 0 1000 1000"><path d="M511 170c5 0 7 3 7 8l-25 206c0 4-5 5-9 2-38-29-71-65-71-106 0-52 41-105 98-110zm33 260c-12-9-15-4-13-19l28-227c0-2 2-6 5-5 32 13 66 43 82 103 4 15 21 25 26 25s10-16 10-25c0-35-8-73-14-107-2-10-8-19-18-22-15-3-39-11-79-14-5-1-7-4-6-7l4-26c1-8-5-17-13-17-14 0-28 5-29 17l-4 26c-1 3-4 5-10 6-123 8-177 104-177 162 0 80 62 135 131 183 12 9 12 14 12 17l-33 269c0 3-5 3-8 2-72-36-103-148-112-148-11 0-20 8-20 16 2 36 20 115 31 138 2 5 0 9 14 12 24 6 47 16 83 22 3 0 6 4 6 7l-10 79c-2 9 7 15 16 15 11 0 23-3 25-15l9-76c1-5 6-6 9-6 149 0 205-109 205-189 0-102-99-160-150-196zm-28 97c1-5 1-7 4-5 25 17 84 77 84 127 0 94-35 127-109 132-5 0-9-1-8-10z"/></svg>
