<?xml version="1.0" encoding="UTF-8"?>
<svg version="1.0" xmlns="http://www.w3.org/2000/svg" xmlns:xlink="http://www.w3.org/1999/xlink" x="0px" y="0px" viewBox="0 0 1000 1000">
<path d="M 359.967 87.9492 C 350.853 87.9108 349.902 88.1638 349.902 90.6699 C 349.902 95.2969 349.479 99.4219 351.777 99.4219 C 414.612 99.2259 447.289 149.715 447.289 181.717 C 447.289 250.368 448.293 327.807 448.293 495.064 C 448.293 662.322 447.289 739.759 447.289 808.41 C 447.289 840.412 414.612 890.901 351.777 890.705 C 349.478 890.705 349.902 894.83 349.902 899.457 C 349.902 901.963 350.853 902.214 359.967 902.178 C 363.005 902.159 366.948 902.105 372.068 902.105 C 381.294 902.095 431.904 900.52 504.48 900.52 C 577.057 900.52 627.668 902.096 636.895 902.105 C 642.014 902.125 645.958 902.16 648.996 902.178 C 658.11 902.216 659.061 901.963 659.061 899.457 C 659.061 894.83 659.482 890.705 657.184 890.705 C 594.349 890.901 561.674 840.412 561.674 808.41 C 561.674 739.759 560.67 662.322 560.67 495.064 C 560.67 327.807 561.674 250.368 561.674 181.717 C 561.674 149.715 594.349 99.2253 657.184 99.4219 C 659.483 99.4219 659.061 95.2969 659.061 90.6699 C 659.061 88.1635 658.11 87.9111 648.996 87.9492 C 645.958 87.9636 642.014 88.0032 636.895 88.0215 C 627.668 88.0311 577.057 89.6172 504.48 89.6172 C 431.904 89.6172 381.294 88.0342 372.068 88.0215 C 366.948 88.0168 363.005 87.9675 359.967 87.9492 Z"/>
</svg>
