<?xml version="1.0" encoding="UTF-8"?>
<svg version="1.0" xmlns="http://www.w3.org/2000/svg" xmlns:xlink="http://www.w3.org/1999/xlink" x="0px" y="0px" viewBox="0 0 1000 1000">
<path d="M 583.754 106.969 C 574.851 106.927 573.918 107.182 573.918 109.625 C 573.918 114.161 573.579 117.61 575.756 118.189 C 669.029 143.189 649.766 178.931 615.396 213.301 C 610.351 218.346 598.254 230.781 598.254 230.781 L 373.889 459.641 C 364.901 468.812 349.723 481.375 341.271 481.375 C 335.237 481.375 335.238 464.474 335.238 458.439 L 335.238 200.51 C 335.238 169.193 349.751 119.957 438.205 119.957 C 440.466 119.957 440.057 115.915 440.057 111.393 C 440.057 108.934 439.123 108.692 430.191 108.734 C 427.224 108.749 423.367 108.777 418.35 108.791 C 409.319 108.805 356.209 110.361 285.166 110.361 C 214.123 110.361 149.144 108.805 140.113 108.791 C 135.096 108.791 131.251 108.749 128.27 108.734 C 119.352 108.692 118.42 108.934 118.42 111.393 C 118.42 115.915 118.009 119.957 120.256 119.957 C 222.828 119.957 238.629 169.193 238.629 200.51 C 238.558 396.878 238.728 593.275 238.629 789.629 C 238.629 820.96 222.828 892.852 120.256 892.852 C 118.009 892.852 118.42 896.88 118.42 901.416 C 118.42 903.861 119.366 904.115 128.27 904.072 C 131.251 904.058 135.096 904.002 140.113 904.002 C 149.144 903.988 214.123 902.434 285.166 902.434 C 356.195 902.434 409.319 903.988 418.35 904.002 C 423.352 904.016 427.224 904.058 430.191 904.072 C 439.109 904.115 440.043 903.861 440.043 901.416 C 440.043 896.88 440.452 892.852 438.205 892.852 C 349.751 892.852 335.237 820.96 335.223 789.629 C 335.223 721.116 335.223 652.531 335.152 583.947 L 334.742 583.947 C 335.011 567.511 335.238 550.863 335.238 533.297 C 335.238 524.846 334.036 507.945 340.07 507.945 C 346.105 507.945 358.668 518.346 367.84 528.465 L 598.197 782.732 L 598.154 782.746 C 598.154 782.746 609.079 794.858 614.152 800.355 C 614.294 800.511 614.492 800.723 614.619 800.879 L 621.6 808.58 C 667.501 859.216 663.855 869.604 577.365 892.781 C 575.189 893.361 575.529 896.823 575.529 901.346 C 575.529 903.805 576.476 904.044 585.379 904.002 C 588.361 903.988 592.204 903.932 597.207 903.932 C 606.238 903.918 685.28 902.377 756.309 902.377 C 827.352 902.377 880.475 903.932 889.506 903.932 C 894.509 903.946 898.368 903.988 901.35 904.002 C 910.267 904.044 911.199 903.805 911.199 901.346 C 911.199 896.823 911.609 892.781 909.348 892.781 C 814.817 882.224 776.56 823.815 692.289 733.947 L 675.26 715.787 L 446.332 471.709 C 438.149 462.989 434.531 456.278 440.297 449.975 C 517.36 365.718 574.327 309.852 649.285 245.098 C 719.777 187.226 789.874 134.117 893.689 118.189 C 895.908 117.85 895.527 114.161 895.527 109.625 C 895.527 107.166 894.593 106.926 885.676 106.969 C 882.708 106.983 878.837 107.025 873.834 107.039 C 864.803 107.053 811.679 108.607 740.65 108.607 C 669.607 108.607 604.628 107.053 595.598 107.039 C 590.586 107.039 586.748 106.983 583.768 106.969 L 583.754 106.969 Z"/>
</svg>
