<svg viewBox="0 0 1000 1000"><path d="M695.49 102.8c-3-.01-5.03.45-5.03 2.93 0 5.4 1.49 4.35 33.67 12.98 41.63 11.15 44.63 62.43 44.63 126.23v154.34l-.06 322.78-.01.35c-.02-.01-494.08-581.35-505.57-594.2-18.27-20.41-20.4-24.62-31.05-24.9-6.4-.18-15.85 1.06-33.7 1.06-27.4 0-114.81-.5-159.45-.5-16.68 0-15.21 2.02-15.21 6.08 0 6.03 2.02 5.22 14.05 8.44C145.8 147.34 194.14 131.6 194.14 289.5v464.54c0 63.8-3.01 115.08-44.63 126.24-32.19 8.62-33.68 7.58-33.68 12.97 0 3.98 5.19 2.76 11.28 2.76 5 0 64.19-4.74 84.76-4.87l1.36-.02c2.18 0 4.44.06 6.73.12 23.97.72 74.89 4.77 79.5 4.77 6.1 0 11.28 1.22 11.28-2.76 0-5.39-.87-4.16-33.67-12.98-41.29-11.09-44.45-62.74-44.45-127.84V244.98L812.8 913.31s-5.55-230.18-5.55-271.35v-395.4c0-65.1 3.15-116.76 44.44-127.85 32.8-8.81 33.67-7.59 33.67-12.98 0-3.98-5.18-2.76-11.27-2.76-4.62 0-55.54 4.06-79.5 4.78-2.3.06-4.56.11-6.74.11l-1.36-.01c-20.57-.14-79.76-4.88-84.76-4.88-2.28 0-4.44-.17-6.24-.17Z"/></svg>
