<?xml version="1.0" encoding="UTF-8"?>
<svg version="1.0" xmlns="http://www.w3.org/2000/svg" xmlns:xlink="http://www.w3.org/1999/xlink" x="0px" y="0px" viewBox="0 0 1000 1000">
<path d="M 390.9 109.369 C 307.848 109.228 194.376 112.267 110.572 112.664 C 99.2629 112.664 103.87 124.193 111.984 124.193 C 141.271 124.193 227.572 127.612 227.203 224.381 L 227.203 775.629 C 227.203 852.692 199.171 894.861 109.635 894.668 C 102.692 894.668 100.173 905.49 109.16 905.49 L 477.105 905.49 C 485.003 905.49 481.999 895.949 477.105 895.949 C 387.483 895.949 338.773 863.537 338.773 775.629 L 338.773 513.551 L 385.629 514.881 C 526.852 597.756 609.587 909.307 783.646 904.078 L 902.184 904.078 C 712.69 860.682 640.969 576.725 517.379 503.951 C 719.062 474.418 778.918 127.247 461.588 110.787 C 442.889 109.817 418.585 109.416 390.9 109.369 Z M 369.66 128.246 C 405.397 128.22 443.503 128.61 450.561 132.156 C 683.235 249.074 559.796 477.164 474.047 500.141 C 446.418 507.544 386.688 505.002 338.539 500.609 L 335.951 128.309 C 346.099 128.309 357.748 128.255 369.66 128.246 Z"/>
</svg>
