<svg viewBox="0 0 1000 1000"><path d="M525.21 76.4c-132.26-.2-229.9 127.46-229.9 213.45 0 154.92 94.9 185.25 234.39 265.79 54.93 31.72 158.4 87.05 158.4 180.04 0 157.12-150.95 168.83-261.65 128.6-115.39-41.91-134.03-87.72-146.97-111.25-9.41-17.14-14.14-23.6-15.75-22.46-4.81 3.4 18.45 75.14 27.39 131.94 4.62 29.35-2.56 30.86 23.8 39 12.4 3.82 107.12 29.12 202.53 36.06 153.06 11.12 288.81-75.66 288.81-231.09 0-158.22-134.93-240.2-235.9-285.81-84.18-38.03-174.11-61.12-172.42-172.81 1.05-69.39 62.47-138.3 132.12-136.23 76.18 2.26 147.33 59 180.64 122.99a280.6 280.6 0 0 1 16.78 38.58c2.06 5.96 4.47 13.42 13.02 15.87 8.33 2.4-8.86-122.26-9.84-130.47-1.5-12.75-4.68-17.52-18.4-24.06-17.5-8.36-77.87-57.97-187.05-58.14Z"/></svg>
