<?xml version="1.0" encoding="utf-8"?>
<svg version="1.0" xmlns="http://www.w3.org/2000/svg" xmlns:xlink="http://www.w3.org/1999/xlink" x="0px" y="0px" viewBox="0 0 1000 1000">
<path d="M969.825,321.481c14.069,0,14.069-4.056,14.069-16.227c0-17.98,16.081-14.806,16.081-29.409
	c0-11.154-8.041-32.433-8.041-48.677c0-7.752,2.01-16.314,2.01-26.369c0-7.099-2.01-14.197-8.041-14.197
	c-15.073,0-20.044,16.539-21.104,49.693c0,14.197-2.495,40.192-3.518,44.114c-2.513,9.636-4.819,10.689-5.526,4.058
	c-3.519-32.96-28.141-77.582-28.141-82.653c0-13.997,41.204-46.194,41.204-57.806c0-17.74-41.204-43.894-41.204-66.933
	c0-18.156,11.481-37.523,30.15-37.523c17.737,0,20.385,32.452,32.16,32.452c7.65,0,10.05-13.061,10.05-27.382
	c0-17.458-10.05-42.594-22.11-42.594c-39.195,0-64.32,54.763-65.326,54.763c-2.01,0-5.025-36.508-18.091-36.508
	c-23.84,0-44.22,28.496-44.22,42.594c0,28.394,82.411,45.743,82.411,87.216c0,14.197-8.041,26.874-13.066,35.493
	c-2.036,3.499-2.638,11.991-6.029,4.566c-15.838-34.681-57.285-54.258-91.455-76.569c-23.116-15.212-46.232-36.964-46.232-48.677
	c0-4.058,3.016-6.086,7.037-6.086c6.235,0,9.344,9.129,17.085,9.129c3.7,0,6.029-1.508,6.029-6.086
	C806.01,45.634,788.925,0,780.884,0c-7.999,0-29.144,23.168-29.144,37.523c0,13.182,7.783,30.363,26.131,53.748l19.094,24.339
	c0,0-6.031-4.056-21.106-4.056c-30.148,0-46.732,12.677-82.408,14.705c-9.032,0.513-19.097-0.508-19.097-3.548
	c0-3.043,5.045-10.585,17.085-12.172c11.559-1.52,17.087-8.111,17.087-12.169c0-4.33-32.16-25.099-32.16-31.437
	c0-8.646,30.148-29.33,30.148-39.551c0-5.071-4.019-9.129-10.05-9.129c-26.09,0-63.817,24.817-63.817,50.2
	c0,15.911,31.657,38.67,31.657,46.145c0,1.897-21.114,13.185-25.123,13.185c-19.097-1.015-17.085-11.157-19.097-46.652
	c-1.004-21.296-5.025-40.564-10.05-42.594c-10.6-4.278-4.333-22.311-17.085-22.311c-11.758,0-7.83,25.354-15.576,25.354
	c-0.334,0-30.847-32.452-43.719-32.452c-8.038,0-15.075,4.058-15.075,11.157s7.037,11.154,16.081,11.154
	c39.757,0,45.704,117.64,103.515,117.64c17.524,0,50.737-15.212,78.389-15.212c2.012,0,10.553,1.015,10.553,1.015
	c0,1.013-16.599,11.278-26.632,19.268c-18.793,14.965-40.201,39.551-47.235,39.551c-15.154,0-39.128-16.136-52.26-24.339
	c4.799,13.561,16.582,22.576,16.582,37.016c0,23.326,16.584,28.904,28.644,28.904c7.329,0,14.948-4.769,21.104-7.101
	c7.035,0-2.01,19.27-2.01,54.763c0,59.834,51.254,133.868,121.605,133.868c51.757,0,68.339-28.397,68.339-80.117
	c0-20.283-20.1-35.495-20.1-43.609c0-3.04,5.025-3.04,14.072-3.04c9.044,0,17.085-3.043,17.085-14.2
	c0-26.367-16.081-46.65-41.207-64.905c-17.085-12.169-33.164-27.382-36.179-32.452c-2.01-3.043-3.016-4.056-4.019-4.056
	c-2.01,0-2.01,3.043-3.016,10.142c0,8.114-5.025,14.197-10.05,14.197c-7.035,0-10.05,3.043-10.05,6.086
	c0,17.24,63.314,27.382,63.314,47.665c0,8.111-6.029,12.169-16.079,12.169c-13.066,0-25.125-10.142-35.176-10.142
	c-13.066,0-37.185,16.225-37.185,27.382c0,7.099,3.016,12.169,8.041,12.169c3.016,0,23.616-2.535,18.591-0.508
	c-5.597,2.261-16.582,25.861-16.582,32.96c0,23.326,19.094,46.65,38.191,46.65c7.035,0,14.069-3.043,14.069-8.111
	c0-10.142-34.17-24.341-34.17-39.553c0-12.169,16.079-28.394,33.164-28.394c25.125,0,41.207,24.339,41.207,49.693
	c0,14.197-5.528,54.763-37.688,54.763c-78.389,0-118.087-50.708-118.087-127.782c0-27.382,5.025-54.763,17.085-54.763
	c9.839,0,10.619,16.227,21.104,16.227c9.277,0,14.072-8.656,14.072-16.227c0-11.154-11.056-24.339-26.131-24.339
	c-12.06,0-18.091,10.142-18.091,4.056c0-36.508,64.799-66.933,96.482-66.933c85.156,0,150.75,89.655,150.75,184.573
	c0,39.016-22.613,120.176-33.166,120.176c-5.737,0-7.376-52.228-11.056-52.228c-10.433,0-15.073,63.05-15.073,81.13
	c0,33.468-24.438,49.438-50.251,78.089c-11.056,13.184-24.119,21.296-34.17,21.296c-9.047,0-13.066-2.028-13.066-8.111
	c0-3.043,1.006-6.086,3.016-11.157c3.016-10.142,12.06-26.367,19.094-36.508c8.041-12.169,12.06-26.369,12.06-38.538
	c0-10.142-3.016-18.253-10.05-18.253c-6.029,0-14.069-3.043-21.104-7.101c-5.025-3.04-8.041-4.056-10.05-4.056
	c-1.006,0-2.01,0-2.01,1.015c0,3.04,3.013,6.083,8.038,8.111c5.025,1.015,8.041,10.142,8.041,19.27l-1.004,17.24l-12.062-14.2
	c-8.038-9.126-21.104-15.21-27.135-15.21c-2.01,0-3.013,1.013-3.013,2.028c0,5.578,15.073,12.169,15.073,28.394
	c0,4.058-3.013,6.086-10.048,6.086c-9.047,0-14.072,4.056-14.072,10.142c0,6.083,5.025,15.212,13.066,23.326
	c9.044,8.111,13.066,15.21,13.066,21.296c0,5.071,12.731,21.501,1.004,24.339c-15.608,3.777-116.51,47.414-130.65,56.791
	c-3.029,2.008-8.541,5.071-10.553,5.071c-3.013,0,0-6.591-7.035-16.733c-7.035-11.154-21.607-20.788-28.641-24.846
	c-4.022-2.028-7.035-3.043-9.047-3.043c-2.01,0-2.01,1.015-2.01,3.043c0,3.043,1.006,7.099,3.016,13.185
	c3.016,11.154,10.05,23.324,14.069,27.382c1.006,1.013,7.538,3.548,7.538,4.563c0,4.056,2.387,1.34-10.05,6.591
	c-11.53,4.87-22.942,10.092-34.143,15.646c-17.495-26.483-35.917-51.631-51.895-76.356c7.508-10.909,33.82-75.638,35.022-88.971
	c10.05-12.169,19.359-34.891,19.359-50.104c0-5.071-3.016-10.142-8.041-17.24c-7.035-10.142-13.063-22.311-13.063-26.367
	c0-3.043-2.01-10.142-5.025-10.142c-1.006,0-3.016,5.071-4.022,5.071c-1.004,0,0,12.169,0,12.169
	c-5.293-12.462-15.009-26.453-26.168-40.185c15.885-22.794,30.19-39.031,30.19-39.932c0-1.013-2.01-6.591-3.016-6.591
	s-8.041,2.535-12.06,6.591c-4.38,4.42-14.128,15.304-24.716,28.555c-8.391-9.617-17.102-18.847-25.032-27.033
	c-4.215-4.353-10.553-9.636-12.563-9.636c-3.636,0-4.522,8.512-4.522,13.184c0,2.256,15.213,16.653,32.104,36.449
	c-11.709,15.727-22.731,32.762-27.078,45.696c-2.282,6.792-5.528,20.283-5.528,20.283l-6.031-19.268
	c-2.304-7.366-7.035-14.197-10.048-14.197c-6.031,0-20.1,33.465-20.1,56.791c0,20.283,17.085,38.536,32.16,46.65
	c3.666,2.114,5.148,6.985,6.299,12.169l14.945,34.48c5.467,9.624,11.409,19.179,17.656,28.724
	c-20.297,31.209-45.199,60.23-68.523,88.006c-13.095-7.705-26.418-15.153-39.722-22.412c-2.012-1.015,0,0,0-5.071
	c0-4.058,7.035-13.185,14.069-20.283c9.044-9.129,14.069-17.24,14.069-23.326c0-6.083-5.025-9.126-13.063-9.126
	c-12.489,0-22.726,7.247-28.141,19.268c-7.035,14.197-9.636,17.896-14.069,20.283c-12.604,6.787-60.5-36.179-60.5-36.179
	c-24.458-24.373-44.021-52.389-44.021-54.08c0-3.043,14.069,5.071,28.141,5.071c13.262,0,28.138-8.114,28.138-19.268
	c0-19.27-1.004-48.68-16.079-48.68c-5.025,0-14.072,8.114-18.091,8.114s-4.019-10.142-4.019-12.169
	c0-19.268,30.148-32.452,42.21-32.452c9.044,0,30.148-7.099,30.148-11.157c0-3.04-14.069-2.028-28.138-2.028
	c-40.201,0-66.33,16.227-66.33,54.763c0,8.114,1.004,18.255,4.019,29.409c2.01,6.086-1.006,9.129-6.031,2.03
	c-9.044-12.172-18.088-25.354-18.088-41.581c0-41.579,34.17-67.945,34.17-70.988c0-3.043-11.056-6.086-15.075-6.086
	c-14.069,0-24.119,9.129-29.144,23.326c-5.025,14.197-7.035,30.425-12.06,30.425c-3.016,0-9.047-12.172-9.047-18.255
	c0-11.157,1.789-23.735,5.025-38.538c2.672-12.211,10.05-23.324,10.05-30.422c0-7.101-3.016-15.212-3.016-15.212
	c-7.035,0-15.075,34.48-17.085,42.594c-3.016,10.142-16.079,30.422-16.079,33.465c0,13.185,34.17,82.145,67.336,125.754
	c20.098,25.354,19.094,28.394-1.006,16.225c-76.38-45.635-135.675-163.275-135.675-242.379
	c0-111.555,71.355-201.813,186.929-201.813c65.326,0,108.54,62.877,108.54,112.57c0,74.031-42.21,115.613-114.568,115.613
	c-24.122,0-37.185-12.169-37.185-36.511c0-18.253,5.025-32.452,19.094-32.452c19.094,0,27.135,9.129,27.135,30.425
	c0,9.129,2.01,13.185,6.031,13.185c5.025,0,25.123-24.339,25.123-34.48c0-8.114-17.085-10.142-17.085-22.311
	c0-13.184,17.085-13.184,17.085-22.311c0-7.099-10.05-12.169-16.079-12.169c-46.229,0-59.295,42.594-88.439,42.594
	c-7.035,0-9.047-5.071-9.047-21.298c0-23.326,13.066-37.523,34.172-37.523c10.048,0,25.123,4.056,31.154,4.056
	c9.044,0,19.094-11.154,19.094-22.311c0-6.083-9.044-8.111-9.044-13.182c0-9.129,22.11-20.283,22.11-31.44
	c0-11.154-16.081-19.268-28.141-19.268c-6.029,0-10.05,2.028-10.05,6.086c0,4.056,8.041,9.126,8.041,15.21
	c0,9.129-12.06,19.27-27.135,19.27c-16.079,0-49.245,35.495-49.245,52.736c0,10.142-5.025,18.253-13.066,18.253
	c-3.016,0-5.025-2.028-5.025-5.071c0-4.056-3.013-7.099-8.038-7.099c-11.056,0-16.081,21.298-16.081,42.594
	c0,21.298,5.025,42.594,15.075,45.637c12.06,0,32.16-12.169,40.201-12.169c3.016,0,5.025,2.028,5.025,5.071
	c0,16.225,43.214,49.693,60.298,49.693c11.056,0,20.1,3.043,20.1,5.071c0,2.028,1.006,2.028,3.016,2.028
	c75.374,0,106.53-68.961,106.53-128.797c0-57.804-16.081-82.145-46.229-106.484c-9.047-8.114-17.085-10.142-17.085-13.185
	c0-5.071,15.073-2.028,21.104-2.028c32.16,0,94.47-57.806,94.47-72.003c0-4.056,4.019-6.083,9.044-6.083
	c11.056,0,7.035,22.311,13.066,22.311c7.035,0,16.079-20.283,16.079-36.511c0-12.169-13.063-12.169-32.16-12.169
	c-23.113,0-21.104,35.495-34.17,35.495c-8.041,0-10.05-23.326-12.06-33.468c-14.069,12.169-28.141,26.369-36.179,45.637
	c-9.047,25.354-20.1,33.468-45.226,33.468c-14.069,0-21.106-1.015-21.106-4.058c0-3.043,7.037-9.126,21.106-18.253
	c20.1-14.2,30.15-33.468,30.15-48.68C366.826,10.142,358.785,0,341.7,0c-14.069,0-24.119,4.056-24.119,7.099
	c0,5.071,23.113,8.114,23.113,15.212c0,14.197-49.245,30.425-49.245,58.819c0,6.086,3.016,11.157,3.016,15.212
	c0,6.086-7.035,8.114-30.15,9.129c-19.094,2.028-42.21,6.083-54.27,12.169c-10.05,4.056-18.091,8.111-20.1,8.111
	c-1.004,0-1.004-1.013-1.004-1.013c0-8.114,30.148-48.68,37.185-50.708c5.025-2.028,7.035-8.114,7.035-16.225
	C233.161,34.48,212.054,0,189.945,0c-8.041,0-28.138,9.126-28.138,15.212c0,9.126,36.179,14.197,36.179,26.367
	c0,10.142-27.135,20.283-27.135,29.409c0,3.043,3.016,6.086,9.044,6.086c4.022,0,6.031,4.056,6.031,10.142
	c0,14.197-10.05,38.536-21.106,47.665c-7.035,5.071-17.085,10.142-24.119,10.142c-12.06,0-57.285,28.394-57.285,48.677
	c0,2.028,1.006,3.043,4.022,3.043c3.013,0,9.044-2.028,13.063-2.028c5.025,0,7.037,2.028,7.037,5.071
	c0,16.225-28.141,29.409-44.222,29.409c-15.073,0-18.088-7.099-18.088-30.425c0-28.394,70.349-77.074,70.349-101.413
	c0-9.129-7.035-43.609-10.05-43.609c-4.019,0-14.069,30.425-18.088,30.425c-3.016,0-6.031-7.099-6.031-22.311
	c0-14.197-4.019-26.367-8.041-27.382c-4.019-1.015-10.05-8.114-13.063-16.227c-3.016-8.111-10.05-14.197-17.085-14.197
	C20.1,4.056,0,33.465,0,55.776c0,11.157,7.035,22.313,19.094,22.313c8.041,0,22.11-17.243,25.125-17.243
	s11.056,11.157,11.056,24.341c0,49.693-37.185,95.327-37.185,116.625c0,29.409,30.15,59.834,54.27,59.834
	c6.029,0,9.044-5.071,13.066-5.071c1.004,0-1.006,80.117-17.087,80.117c-7.035,0-19.094-6.086-26.129-6.086
	c-15.075,0-27.135,16.227-27.135,40.566c0,22.311,14.069,39.551,30.15,39.551c18.088,0,14.069-39.551,26.129-39.551
	c7.035,0,58.291,108.514,67.336,118.656c19.094,24.339,14.069,23.324-14.069,9.126c-18.091-9.126-29.147-13.185-40.201-13.185
	c-40.201,0-77.386,37.523-77.386,73.019c0,22.311,15.075,39.551,38.191,39.551c6.029,0,13.063-8.114,13.063-12.169
	c0-14.197-18.088-25.354-18.088-34.48c0-9.129,15.075-21.298,24.119-21.298s19.094,20.283,31.154,20.283
	c7.037,0,23.116-33.465,34.172-33.465c24.119,0,111.555,64.905,111.555,70.988c0,4.058-14.072,5.071-21.106,5.071
	c-120.599,0-215.07,61.862-215.07,153.136c0,70.988,31.154,112.57,88.439,112.57c38.191,0,68.342-36.511,68.342-77.074
	c0-6.086-1.006-10.142-4.022-10.142c-8.038,0-14.069,14.197-14.069,20.283c0,22.311-16.081,45.634-40.201,45.634
	c-14.069,0-29.144-4.056-29.144-8.114c0-3.04,12.06-7.099,20.1-10.139c10.05-5.071,23.113-22.313,23.113-30.425
	c0-4.058-4.019-5.071-8.038-5.071c-5.025,0-17.085,17.24-40.201,17.24c-8.041,0-31.154-25.354-31.154-38.538
	c0-5.071,4.019-10.142,12.06-10.142c7.035,0,20.1,7.099,25.125,7.099c3.013,0,16.079-7.099,16.079-11.154
	c0-5.071-15.075-22.311-14.069-45.637c1.004-51.72,23.113-78.087,65.324-78.087c7.037,0,10.05,12.169,10.05,17.24
	c0,23.324-43.214,31.437-43.214,45.634c0,15.212,7.035,31.44,19.094,31.44c6.031,0,12.06-7.099,16.081-7.099
	c9.044,0,8.038,7.099,8.038,16.225c0,8.114,5.025,14.197,13.066,14.197c14.069,0,31.154-19.268,31.154-32.452
	c0-4.056-3.013-11.154-4.019-11.154c-3.016,0-4.019,23.326-13.066,23.326c-8.038,0-21.104-6.086-21.104-21.298
	c0-8.114,6.029-8.114,6.029-18.255c0-7.099,23.116-12.169,23.116-31.437c0-25.354-19.094-21.298-19.094-26.367
	c0-12.172,43.214-22.313,84.42-22.313c6.895,0,17.102,3.793,28.031,9.302l34.079,20.828c12.342,8.814,21.305,16.827,21.305,19.565
	c0,2.028-6.031,6.083-7.035,7.099c-1.006,1.013-1.006,3.043-1.006,6.083c0,6.086,1.006,15.212,3.016,25.354
	c3.016,13.185,4.019,20.283,7.035,20.283s8.041-10.142,16.081-30.425c2.01-6.083,4.019-15.212,9.044-15.212
	c13.21,0,28.823,4.724,45.383,13.009c-36.601,43.953-67.493,84.985-67.493,126.943c0,7.099,4.019,23.326,0,23.326
	c-1.006,0-7.035-8.114-13.066-8.114c-5.025,0-7.035-7.099-7.035-10.142c0-7.099,5.025-4.056,5.025-14.197
	c0-8.114-9.044-16.227-16.081-24.339c-4.019-4.058-1.004-22.311-3.013-22.311c-2.012,0-9.047,10.139-9.047,25.351
	c0,13.185,8.041,28.397,8.041,39.553c0,23.324-16.079,19.268-16.079,40.564c0,12.169,15.073,25.354,27.135,25.354
	c14.069,0,20.601,8.114,20.601,12.169c1.006,3.043,46.232,57.806,46.232,59.834c0,4.058-31.659-10.142-47.738-10.142
	c-49.748,0-58.792,24.846-84.923,24.846c-4.019,0-5.528-3.548-8.541-4.563c-5.025-2.028-9.047-5.071-9.047-8.114
	c0-6.083-39.195-17.24-60.298-17.24c-8.041,0-12.06,3.043-12.06,8.114c0,5.071,5.025,11.157,13.063,17.24
	c9.047,6.086,13.066,9.129,13.066,12.169c0,2.03-4.019,4.058-12.06,5.071c-6.031,1.015-11.056,2.03-15.075,2.03
	c-17.085,0-26.129-8.114-26.129-24.341c0-14.197-2.012-19.268-12.062-19.268c-4.019,0-10.05,1.015-18.088,2.028
	c-6.031,1.015-9.047,3.043-9.047,6.086c0,2.028,2.012,5.071,4.022,8.111c2.01,3.043,3.016,6.086,3.016,9.129
	c0,9.126-8.041,18.255-19.097,18.255h-4.019c-5.025-1.015-17.085-13.185-25.125-26.369l-14.069-25.354l-11.056,14.2
	c-4.019,5.071-7.035,8.111-8.041,8.111c-1.004,0-1.004-1.013-1.004-3.04c0-3.043,1.004-9.129,2.01-17.243
	c1.006-6.083,1.006-12.169,1.006-17.24c0-15.212-4.022-26.367-11.056-26.367c-1.004,0-2.01,1.013-3.016,1.013
	C5.025,890.413,0,912.724,0,937.063c0,67.314,31.014,62.877,132.659,62.877c126.753-1.706,150.75-36.508,189.947-36.508
	c52.258,0,56.279,36.508,154.769,36.508c42.34,0,133.665-36.508,173.866-36.508c43.999,0,166.829,36.508,212.054,36.508
	c99.999,0,136.681-4.345,136.681-55.776c0-10.312-1.725-18.265-3.016-27.382c-4.672,11.588-20.159,52.733-28.141,52.733
	c-2.01,0,0-10.04,0-15.212c0-8.619,0-16.733-5.025-16.733c-11.091,0-17.995,28.048-39.195,38.031
	c-14.069,7.099-31.657,3.043-12.563-12.169c27.135-21.298,31.659-33.468,31.659-38.538c0-1.013,0-1.013-1.006-1.013
	c-2.01,0-7.035,3.04-16.081,9.126c-28.138,20.283-68.339,40.566-80.399,40.566c-7.035,0-10.05,0-10.05-2.028
	c0-2.03,4.019-7.101,12.06-17.243c8.041-10.139,12.06-16.225,12.06-19.268c0-5.071-7.035-5.071-25.125-5.071
	c-22.11,0-29.145,3.043-40.198,17.24c-9.047,11.157-21.106,17.24-34.172,17.24c-9.044,0-19.094-3.04-27.135-9.126
	c-14.069-10.142-37.185-15.212-62.308-15.212c-25.719,0-60.345,15.212-70.351,15.212c-2.802,0-5.025-0.56-5.025-4.056
	c0-5.071,2.925-8.215,14.069-18.255c14.072-12.677,33.166-44.622,42.21-56.791c8.041-10.142,15.075-24.339,18.091-24.339
	c1.006,0,2.01,1.013,2.01,2.028c2.01,5.071,5.025,15.212,10.05,15.212c4.022,0,10.05-2.03,16.081-5.071
	c7.035-4.058,10.05-11.157,10.05-20.283c0-11.157-5.025-24.339-15.075-33.468c-10.05-10.142-22.11-21.296-22.11-40.566
	c0-3.04,10.05-12.169,10.05-24.339c0-10.142-2.012-18.253-3.016-18.253c-6.031,2.028-29.647,38.536-29.647,64.905
	c0,5.707,6.532,20.459,6.532,26.367c0,36.597-28.112,82.801-49.748,97.357c5.025-11.662,17.588-39.551,17.588-70.991
	c0-66.465-26.978-121.837-58.971-172.072c20.65-10.54,37.681-16.557,46.911-16.557c2.01,0,6.031,10.142,7.035,23.326
	c1.006,13.182,4.022,24.339,6.031,25.351h2.01c4.019,0,11.054-2.028,20.1-4.056c11.054-3.043,19.094-5.071,19.094-13.185
	c0-9.597-32.018-35.453-27.135-40.059c14.881-14.034,110.773-55.39,110.773-55.39c32.648-12.271,65.952-21.684,89.725-21.684
	c8.379,0,16.582-0.329,16.582,5.578c0,8.28-23.113,29.211-23.113,32.452c0,17.106,40.701,41.173,40.701,59.327
	c0,12.169-10.553,23.834-22.613,23.834c-11.054,0-13.063-15.212-16.079-15.212c-2.01,0-2.01,14.299-2.01,16.225
	c0,6.086,9.044,15.212,24.119,15.212c45.226,0,40.466-45.951,42.21-50.705c1.742-4.756,17.085-9.129,17.085-33.468
	c0-6.086-4.019-9.126-8.041-10.142c-1.004,0-9.044-4.056-10.05-4.056c-4.019,0,2.01,12.169,2.01,16.225
	c0,4.056-2.01,7.099-7.035,7.099c-12.293,0-29.144-17.782-29.144-26.367c0-10.142,11.557-29.917,26.632-29.917
	c16.385,0,73.867,32.475,73.867,58.311c0,14.2-15.075,31.44-27.135,37.523c-7.035,3.043-10.05,14.2-10.05,26.369
	c0,13.184,4.021,27.382,12.062,28.397h1.004c5.025,0,15.075-7.101,22.11-15.212l15.075-17.243
	c1.438,13.43,4.022,26.599,4.022,40.566c0,32.452-30.15,66.933-53.266,66.933c-21.46,0-30.15-1.156-30.15-25.351
	c0-12.172-4.019-21.298-10.05-21.298c-4.019,0-6.029,3.043-6.029,9.126c0,36.003,24.173,58.821,41.204,58.821
	c45.95,0,78.421-60.146,77.386-126.767c-1.406-90.249-55.276-139.951-136.681-139.951c-15.075,0-25.125,4.056-25.125,1.013
	c0-9.557,85.927-93.807,92.461-93.807c5.025,0,3.016,18.76,3.016,25.861c0,6.083,3.013,9.126,7.035,9.126
	c27.172,0,29.866-47.38,47.235-64.905c7.035-7.099,12.06-16.227,12.06-20.283c0-3.043-1.006-5.071-3.016-5.071
	c-25.56,0-64.07,32.438-81.405,46.65c14.069-27.887,34.17-80.117,38.692-120.681C956.831,311.486,953.744,321.481,969.825,321.481z
	 M469.784,518.224c-5.984-16.629-9.493-33.438-9.493-50.705c0-26.849,15.885-58.596,32.771-84.963
	c17.845,22.732,34.565,49.923,34.565,73.806c0,21.65-3.948,42.21-10.693,61.862l-14.945,34.48c-2.571,4.94-5.29,9.822-8.136,14.653
	c-2.92-4.89-5.715-9.773-8.355-14.653L469.784,518.224z M495.434,596.823c15.689,22.967,32.611,46.073,48.42,70.169
	c-23.791,12.511-46.43,26.537-66.98,41.886c-14.472-10.788-29.9-20.994-45.819-30.761
	C453.526,649.225,476.794,622.073,495.434,596.823z M376.876,922.866c-4.022,0-28.141-45.637-28.141-62.877
	c0-62.677,35.698-120.745,75.685-173.255c13.726,8.339,27.788,18.77,41.418,30.682c-54.66,43.787-91.978,97.419-91.978,156.773
	C373.86,898.527,382.905,922.866,376.876,922.866z M477.375,978.644c-5.025,0-18.091-2.028-18.091-4.058
	c0-3.303,13.542-17.24,19.097-17.24c5.192,0,24.119,10.335,24.119,14.2C502.5,976.119,485.175,978.644,477.375,978.644z
	 M507.526,948.219c-18.054,0-28.141-25.237-28.141-39.551c0-3.043,0-10.142,5.025-10.142c7.935,0,20.535,10.142,28.141,10.142
	c13.233,0,18.091-10.102,18.091-27.382c0-23.326-15.578-46.145-15.578-46.145c-4.022,0-12.563,15.212-15.578,23.326
	c-2.976,8.007-17.396,21.296-24.119,21.296c-4.019,0-2.01-13.182-2.01-20.281c0-9.129,6.029-20.791,13.063-27.889
	c4.022-4.058,9.047-7.101,9.047-11.157c0-8.616-19.835-18.567-22.613-27.382c-3.519-11.154-7.035-20.791-10.05-20.791
	c-2.01,0-6.294,17.007-7.035,19.778c-5.025,18.76-17.085,18.76-17.085,33.973c0,7.099,10.05,8.619,13.063,13.69
	c8.603,13.888,12.563,36.511,15.075,48.68l-19.597-14.197l-20.1-12.172c-1.421,10.52-7.538,12.845-7.538,23.834
	c0,15.212,9.55,32.96,19.597,32.96c5.253,0,13.392-8.923,17.588-8.621c7.037,0.508,6.534,9.963,6.534,18.763
	c0,13.536-7.444,30.422-20.1,30.422c-32.773,0-51.254-49.348-51.254-92.287c0-48.544,40.407-98.457,87.095-137.535
	c44.737,43.203,81.743,100.943,81.743,149.707C560.789,915.767,538.68,948.219,507.526,948.219z M607.021,845.791
	c0,41.579-27.135,113.582-60.301,113.582c-1.006,0-1.006-1.013-1.006-2.028c0-4.056,5.025-16.225,12.062-30.425
	c9.044-18.253,17.085-42.591,17.085-57.804c0-61.877-34.911-109.517-83.846-149.249c20.54-16.064,41.71-29.912,60.757-40.554
	C582.401,728.062,607.021,781.312,607.021,845.791z"/>
</svg>
