<svg viewBox="0 0 1000 1000"><path d="M0 0v1000h1000V0H0zm51.4 30H485v100.8l30-6.2V30.1h433.6L703.4 275.3c-7.8 32-22.3 57.5-49.2 49.3l-93 93c6.8 3.3 16.2 8.3 27.4 15L970 51.4V485H656c9 9.1 17.5 19.2 25.3 30H970v433.6L705 683.8c-3.3 9.7-7.5 19.6-12.6 29.8L948.6 970H515V827.2a155 155 0 0 0-30 7.3V970H51.4l246.1-246.1c-4.4-8.5-8.7-19-11.7-30.9L30.1 948.6V515h406a191 191 0 0 0-33-30H30V51.4l278.5 278.5a241 241 0 0 1-3.4-46L51.4 30.1zm396.3 501-83.3 83.3c6.3 6.8 12.3 15 17.7 24.9l76.8-76.9a80 80 0 0 0-11.2-31.2z"/></svg>
