<svg viewBox="0 0 1000 1000"><path d="M745.14.16c-39.39.97-76.6 6.48-107.9 19.2-48.87 19.86-102.23 60.8-123.37 94.58-13.27 21.14-12.47 15.64-11 3.66.7-6.2 1.18-11.7-1.57-16.02-6.7-10.52-6.1-11.87 14.78-36.09 19.42-22.44 21.74-29.4 16.34-49.63-3.93-14.73-30.53-15.64-34.3-1.24-2.92 11.17-11.07 13.16-11.07 2.7 0-11.76-8.9-13.22-18.98-3.13-11.01 11-8.74 24.87 8.63 54.21 7.55 12.57 9.55 21.64 7.33 32.7-3.99 19.9-12.4-50.71-70.5-81.3-71.6-37.76-262.56-14.62-357.35 25.62-6.8 2.86-6.31 3.51-3.29-6.52 7.12-24.23 6.1-26.6-11.76-28.11C28.03 9.7 17.77 9.76 12.7 21.42c-25.68 58.64 27.46 60.3 61.88 41.86 17.53-9.39 42.83-10.41 40.03-8.85C63.5 83.35 14.97 123 22.9 153.96c4.64 17.97-15.38 45.05-8.69 76.28 10.36 48.34 59.61 89.88 113.4 67.55 28.59-11.87 12.84-49.64-3.08-71.05-4.64-6.31-4.42 19.58-2.53 33.44 2.59 18.83-12.68 27.09-31.4 24.12a50.06 50.06 0 0 1-31.13-18.56c-20.77-24.49-15.37-39.92 6.37-18.23 8.52 8.52 11.22 9.06 18.18 3.67 12.51-9.82 15.27-15 15.32-29.03.1-19.69-4.75-28.21-16.18-28.37-13.38-.22-27.79-7.29-31.02-25.52C38.76 93.76 127.12 77.63 184.3 43.7c1.07-.65 2.32 5.34 2.32 11.81 0 23.04 31.34 17.8 84.9-2.7 120.3-45.85 157.53-9.54 186.18 66.79 6.63 17.75 7.98 25.14-4.86 13.49-4.96-4.48-18.77-9.23-30.64-10.58-18.45-2.1-27.35-1.24-47.8 12.25-22.11 14.67-25.9 38.9-15.2 53.73 8.84 12.25 10.46 6.85 7.87-6.69-1.62-8.63.97-14.78 9.17-21.58 16.94-14.19 24.98-12.73 21.3 3.78a27.03 27.03 0 0 0 6.16 25.14c10.03 12.35 9.92 12.4 38.3-13.7 16.02-14.79 27.78-10.52 23.95 8.63-1.56 7.87-.75 15.64 1.84 17.26 2.58 1.56 4.69 5.93 4.69 9.66 0 4.96-6.04 6.47-23.04 5.77-24.87-1.08-44.88 9.55-53.73 28.54-6.69 14.3-41.05 30.96-63.87 30.96-18.72 0-19.26-.43-19.26-16.72 0-11.7 2.91-18.34 9.39-21.85 13.38-7.18 13.92-6.74 13.16 10.73-.6 12.68 1.3 16.03 9.71 17.27 8.2 1.08 11.65-2.21 16.08-15.7 7.33-22.17 2.96-35.07-12.84-38.03-22.55-4.32-44.5 7.55-50.17 30.8-6.96 28.48 6.74 55.03 30.42 59.83 16.73 3.4 21.74 5.28 10.52 17.8-7.06 7.77-6.85 9.66 3.02 22.98 5.94 7.98 13.5 13.43 16.89 12.14 3.4-1.3 7.55 0 9.33 2.8 5.13 8.31 13.92 6.05 28.27-7.28 10.52-9.76 14.3-16.45 12.57-30.32-4.64-36.68 17.48-97 39.65-87.88 5.07 2.1 13.22 4.7 18.72 4.7 16.62 0 11.27 12.94-8.63 20.93-25.9 10.36-33.18 28.59-22.28 55.83 10.09 25.14 21.58 26.81 21.58 3.19 0-19.8 7.55-22.18 15.43-4.86 4.85 10.63 2.9 14.4-9.82 33.56-17.91 26.86-46.5 77.09-78.33 80.32-6.58.65-17.1 1.03-20.72 1.9-5.5 1.29-15.05 4.95-15.32.64-1.13-16.46 25.36-10.14 26.49-19.53.75-5.93-3.78-4.64-11.22-13.92-8.74-10.79-15.97-14.3-32.32-15.43-20.5-1.45-29.02-7.55-29.18-20.71 0-3.56-2.8-5.56-6.15-4.43-9.01 3.08-5.02 52.17 5.18 63.44 14.02 15.49 36.03 23.9 62.58 23.9 14.02 0 25.51 1.08 25.51 2.48-51.36 52.33-64.84 143.18-70.67 215.85-3.18 39.43-2.53 77.35-4.2 83.99-1.46 5.77 1.88 9.93 6.85 9.17 33.12-4.53 51.62-2.59 77.79 5.77-9.17 15.22-25.03 23.74-40.03 32.05-2.43-3.35-3.67-11.55-8.1-15.97-12.4-12.4-25.4-12.9-35.98-1.24-10.14 11.22-10.08 15.16.49 23.2 7.39 5.71 8.15 8.25 1.19 11.38-65.98 29.5-127.91 36.9-173.82 11.87-.8-.43-.6-1.78-.7-2.8a25.24 25.24 0 0 0-.81-2.6c-2.32-4.2-9.6-11.43-18.23-17.8-21.04-15.6-26.38-29.13-21.58-54.65 3.02-16.07 4.2-17 19.42-15.21 18.18 2.16 22.17-3.02 15-19.04-4.86-10.8-19.86-18.78-31.3-16.62-7.28 1.46-7.55-1.83-1.07-13.92 3.83-7.23 2.91-10.25-4.53-14.19-24.23-12.94-41.38-.54-46.4 33.61-3.88 26.11-7.39 32.7-12.4 23.63-5.02-8.85 7.55-62.74 15.75-67.49 38.4-22.33 47.04-37.06 37.87-64.79-6.75-20.5-18.35-26.6-28.16-5.01-3.56 7.82-22.45 14.02-21.96 18.55-5.83-38.78 27.62-60.15 55.35-61.39 22.98-1.08 26.43-2.15 27.73-11.49 1.08-7.87-3.24-13.65-16.78-22.22 0 0-11.11-11.33-18.34-11.6-6.75-.22-6.53 3.5-17.91 9.6a60.64 60.64 0 0 0-26.33 28.27C43.61 544 36.76 552.47 33 552.47c-7.5 0-7.61-2.54 13.59-31.83 25.03-34.58 75.47-65.06 77.09-109.94 2.32-64.74-22.12-90.36-75.36-98.08C17 308.1.02 323.41 6.34 344.12c8.03 26.33 32.1 12.68 41.32.7 8.63 16.46 13.49 21.15 24.6 24.12 20.17 5.4 27.19 13.49 27.19 31.45 0 11.33-2.27 16.4-7.29 16.4-3.99 0-7.5-4.1-7.28-9.11 1.19-26.22-15.48-5.94-37.81-11.87-13.92-3.78-22.55.32-30.86 8.84-8.63 8.9 6.36 12.14 22.33 12.14 9.5 0 17.26 2.05 17.26 4.53 0 6.37-17.64 11.17-28.53 7.77-7.12-2.26-10.36.54-14.57 12.46-2.91 8.47-5.34 20.56-5.34 26.82 0 15.64 16.18 15.1 23.36-.7 6.47-14.14 13.86-15.76 16.61-3.62 1.73 7.66-10.14 31.5-13.05 35.06-71.21 88.1-35.55 256.85 37.22 300.43 16.51 9.88 20.66 14.79 10.36 21.04-169.23 102.23 11 248.05 105.03 143.12 12.84-14.3 12.63-38.19 7.02-38.19-1.3 0-12.95 10.9-25.73 24.28-12.84 13.27-27.14 24.16-31.83 24.16-7.72 0-7.77-.86-.87-10.79a46.56 46.56 0 0 0 7.56-22.5c0-11.59-.22-11.64-9.88-2.85-5.6 5.07-19.52 10.41-32.26 10.79-71.2 2.16-65.43-69.8-17.42-103.96 9.93-7.01 13.27-9.87 24.65-6.63 5.67 1.62 13.87.16 20.18 2.26 55.89 18.72 123.6 22.88 199.93-13.64 11.97-5.78 12.3-6.86 30.42 11.7 10.41 10.63 20.5 19.37 22.39 19.37 4.42 0 18.77-28.38 18.77-37.12 0-3.56-4.31-6.47-9.7-6.47-6.86 0-16.35-2.16-18.08-6.15 18.88-12.35 30-19.58 50.71-42.62 22.01 5.5 40.35 20.88 52.33 43.48 15.1 28.43 8.09 44.94-7.82 25.36-13.65-16.83-28.16-7.77-24.39 15.1.38 2.16-2.7 5.07-6.69 6.64-10.46 3.99-9 14.56 3.19 23.09 9.49 6.63 11.7 6.42 24.76-2.92 4.74-3.4 18.66-9.81 18.66-9.81-9.87 22.82-15.59 57.34-64.9 53.51-46.5-3.61-101.1-4.53-86.04 12.2 7.55 8.4 15.97 17.42 14.73 24.97-9.55 5.93-28.32-2.59-49.04-20.4-23.74-20.38-48.66-19.36-72.99 1.84-9.66 8.36-27.24 52.17-20.6 55.57 18.06 9.17 61.38 8.41 65.6-9.17 2.69-11.66-24.72-14.2-23.31-27.14 1.13-10.25 23.36 2 42.18 9.44 119.98 47.37 190 .43 212.55-84.42 1.51-5.78 6.15-4.97 7.93 2.42 6.58 26.92 6.48 66.03 40.14 86.64 31.94 19.53 88.74 21.58 123 13.7 28.59-6.63 41.8-18.72 52.87-35.7 16.61-25.53 27.83-30.65 32.04-14.57 1.4 5.4 4.42 9.7 6.8 9.7 7.98 0 4.31 10.1-8.2 22.66-16.24 16.19-9.6 23.15 20.87 21.7 36.69-1.74 40.14-3.79 36.69-21.59-6.04-31.56-36.74-58.64-65.65-57.94-26.92.65-31.56 2.16-36.9 12.2-3.24 5.98-12.57 14.78-20.77 19.47l-14.95 8.58 2.21-15.1c3.67-24.93-15.1-26.98-68.3-7.45-11.64 4.31-29.6 7.82-39.86 7.82-15.75 0-19.8-2.27-26-14.3-13.87-26.75-10.14-31.6 22.44-29.5 12.52.8 12.84.16 10.25-20.07-3.24-25.2-1.08-22.28-17.96-25.36-19.1-3.4-23.36-8.74-18.02-22.66 5.4-13.91 42.35-66.24 49.04-66.24 5.6 0 37.11 36.47 33.87 38.68-1.24.8-14.24 7.23-28.91 14.24-22.66 10.9-25.2 13.32-16.94 16.62 5.34 2.1 12.08 7 14.94 10.84 7.93 10.52 36.47 3.4 52.22-13.06 12.36-12.84 15-15.1 32.48-8.63 60.96 22.88 111.13 29.94 154.34 8.53 4.96 1.61 20.02 1.94 28.54 3.93 45.31 10.63 112.59 38.9 105.63 81.52-2.92 17.8-12.63 21.3-12.63 5.55 0-7.33-1.94-8.47-7.71-7.28a70.16 70.16 0 0 0-37.5 20.66c-6.74 7.07-8.73 16.4-16.72 17.75-7.44 1.24-10.63-5.56-20.07-10.46-29.29-15.27-34.2-14.03-31.12 7.71 1.62 11.49 5.6 26.33 16.77 31.5 97.65 45.59 159.47-51.84 124.62-108.7-7.01-11.49-8.8-10.63.27-19.1 10.84-10.08 17.1-33.71 12.62-47.74-3.61-11.54-18.07-12.9-26.65-2.53-3.34 3.99-9.81 15-20.28 15-6.9 0 5.13-18.35 13.86-28.06 6.53-7.23 6.91-10.14 1.95-14.94-1.84-1.73-3.35-2.7-4.86-2.75-2.53-.11-5.02 2.32-8.68 7.71-4.1 6.04-11.12 10.95-15.65 10.95-4.58 0-11.11 5.13-14.46 11.44-5.4 9.98-40.67 18.34-62.79 16.94 117.6-64.2 157.04-170.31 126.24-247.89-6.15-15.53-.49-29.94-15.86-44.93-5.08-4.86-5.4-23.47 1.07-37.71 4.43-9.71 2-16.19-1.61-22.77-5.88-10.57-30.38-25.08-49.2-12.57-5.83 3.89 6.9 6.58 11.65 12.2 8.63 10.08 2.7 17.26-4.96 15.2-29.94-8.35-39.12-30.42-23.74-52.32 2.7-3.56 6.36 1.72 14.03 2.59 33.28 3.72 13-4.86 6.04-11.5-9.39-8.95-14.46-13.91-3.24-18.23 9.55-3.67 20.72 2.32 34.69 18.45 14.56 16.78 26.6 16.62 24.6-.32-2.48-20.88-22.34-38.3-59.56-32.37-70.35 11.17-61.71 98.72-14.56 119.44 17.47 7.71 21.25 15.48 25.35 14.08 3.3-1.08 4.15-5.93 6.8-5.93 2.59 0 3.45 4.04 1.89 9-1.68 5.3 1.07 10.9 4.85 15.38 29.3 34.9 37.12 101.42 22.12 144.8-10.8 31.07-12.68 20.6-11.76-20.18.97-41.27-2.32-59.3-19.04-94.46-13.6-28.65-49.8-31.35-71.48-27.63-4.59.76-23.3 5.83-13.76 17.8 7.88 9.93 28.6 0 39.65 1.57 13.27 1.89 29.67 8.04 36.1 26.6l-14.57-2.43c-24.39-4.15-35.29 7.28-39.28 41.1-3.94 33.3 2.32 42.52 19.7 28.87 6.74-5.29 15.9-9.6 20.44-9.6 12.08 0 20.39 19.42 18.66 43.42l-1.5 21.04c-6-3.99-12.41-8.09-15.27-12.84-26.44-45.04-29.35-9.22-42.78 4.43-14.84 14.94-8.53 23.68 2.86 34.41 12.94 12.14 18.28 38.1-4.86 53.3-65.98 43.43-129.47 35.45-183.96 15.76-11.06-4-11.11-5.07-3.67-16.46 4.32-6.52 7.83-13.92 7.83-16.4 0-8.04-30.97-9.7-39.55-2.15-7.01 6.14-9.87 6.1-23.03-.7-7.77-4.05-18.88-14.79-21.2-19.16 14.78-14.83 68.56 4.16 86.42-17.64 3.88-4.8-5.93-90.09-7.71-127.31-5.13-104.5-61.5-141.13-62.8-160.6-.05-1.3 5.4 0 11.87 3.02 9.33 4.26 15.37 3.78 28.16-2.32 22.93-10.84 33.93-20.77 37.44-45.8 4.2-29.94 0-47.58-22.39-53.2-22.6-5.76-32.31 0-13.76 15.6 11.33 9.44 11.71 7.44 9.34 13.6-1.78 4.69-6 7.98-9.34 7.28-10.95-2.38-36.46 21.2-36.46 33.71 0 7.55-2.16 10.9-6.05 9.23-3.34-1.4-16.34-2.32-26.38-8.15-50.7-29.5-92.24-72.83-93.54-101.31-.6-13.81 9.01-12.4 14.57 2.32 4.58 11.98 17.15 20.66 22.38 15.43 1.46-1.46 3.78-11.44 5.24-22.23 2.42-18.12-7.83-29.62-18.34-39.7-10.52-10.15-26-14.2-21.04-20.18 33.87-41 86.69 6.9 82.75 34.36-8.95 61.99-6.96 63.99 4.1 80.66 7.4 11.16 2.8 27.4 21.85 10.57a58.8 58.8 0 0 0 19.31-42.73c.16-12.57 1.19-14.08 7.01-9.28 7.18 6 34.64 9.28 50.71-6.47 15.11-14.83 7.88-61.34-1.78-80-10.4-20.23-19.52-26.33-26.54-17.86-4.53 5.5-3.67 11.06 4.21 26.49 16.72 32.8 3.67 60.42-11.81 50.22-37.07-24.27-63.23-94.67-133.41-76.12-13.76 3.62-14.35 8.9-14.35-2.2 0-11.6 21.04-37.23 33.07-40.36 5.93-1.56 16.61 4.75 31.5 18.61 8.96 8.36 12.73 24.06 22.55 21.04 4.32-1.35 2.54-14.24 4.48-24.22 2.48-12.84 6.04-18.94 12.68-15.91 22.38 10.08 14.24 63.87 18.5 59.01 16.56-18.93 7.55-68.5-3.67-81.24-21.47-24.33-57.88-33.66-74.4-12.79-14.88 18.94-35.27 39.55-40.45 33.72-5.02-5.56-.06-13.27 6.31-21.52 47.2-60.96 107.73-117.6 179.59-109.52 50.22 5.61 60.74 9.55 83.62 20.13 31.88 14.83 49.36 17.53 71.58 11 20.77-6.04 23.74-19.8 4.21-26-30.2-9.71-48.28-19.26-27.78-18.88 4.9.16 27.56 4.48 38.46 7.01 32.05 7.4 65.76 15.97 76.5 81.08 2.7 16.4-5.34 25.36-23.95 3.3-22.45-26.55-10.52 5.01-11.82 7.98-4.58 10.73-12.03 4.26-18.99 6.04-7.33 1.89-7.28 5.07-1.72 21.15 7.55 22 2.15 33.66-17.37 37.54-9.93 2-14.03 6.37-16.51 17.75-4.37 19.85-.97 22.23 15.48 10.74 18.13-12.68 39.81-14.68 58.1-26.44 10.52-6.69 25.79-42.24 25.79-55.67 0-7.01 1.35-11.44 3.02-9.71 4.37 4.37 33.07 44.72 32.31 98.4-.64 44.56.54 102.55-61.71 116.1-14.03 3.07-22.44-9.23-13.06-18.62 3.02-3.02 5.5-11.7 5.5-19.37 0-11.86-1.45-13.43-10.2-10.68-8.62 2.75-9.7 1.73-6.9-6.9 4.64-14.73-9.7-13.33-19.63 1.89-8.9 13.59-16.94 12.24-13.17-2.16 3.67-14.2 24.28-25.84 39.17-22.12 15.27 3.83 30.1 19.96 30.1 32.74 0 5.18 2.65 8.47 5.94 7.4 7.28-2.43 16.99-20.45 8.36-43.1-13.33-34.91-79.41-36.15-94.09 1.18C804.64 385.5 1000.25 384.37 994 320.7c-3.02-30.37 12.63-38.3 10.14-96.67-2.86-69.05-22.98-89.93-29.29-96.24-1.83-1.83-3.29-8.58-3.29-14.94 0-11.5-16.94-35.93-46.77-67.5-18.29-19.41-10.58-20.98 19.63-4.1 24.98 13.98 29.14 14.84 25.52 5.24-1.5-3.77.54-9.6 4.53-12.95 19.8-16.34-10.79-41.26-34.85-28.37-9.33 5.02-23.84 9.76-73.36 3.07A774.57 774.57 0 0 0 745.14.16zM477.13 356.6c3.77 0 3.88 6.47 3.45 19.63-.97 30.43 3.24 60.96 3.78 92.25.32 23.47 1.4 50.6-9.01 71.7-19.42 39.16-29.73 70.56-54.92 69.05-11.17-.76-42.67 15-50.82 27.4-5.93 9.01-4.15 17.6 3.56 17.6 10.58 0 8.9 13.26-2.42 19.36-5.35 2.86-9.72 8.3-9.72 12.14 0 5.71 1.9 3.99 13.33 1.61 44.45-9.17 75.47-34.14 86.15-88.85 2.7-14.08 21.26-48.06 24.28-45.1-7.55 77.47-33.61 151.06-69.27 186.01a144.36 144.36 0 0 0-55.02-5.93c-21.58 1.78-28.11-.16-25.74-7.77 1.51-4.64 2.75-27.51 2.86-50.87.22-49.63 6.42-75.9 17-71.86 7.33 2.8 40.35-19.2 40.35-26.86 0-2.38-3.4-4.32-7.56-4.32-4.1 0-13.91-3.29-21.84-7.39-11.87-6.1-11.12-8.15-9.6-16.4 8.2-44.34 34.09-86.64 63.97-117.71 18.56-19.31 37.88-44.72 43.05-56.21 5.13-11.39 10.25-17.16 13.76-17.48h.38zm22.12 1.35c10.14 13.64 30 42.88 60.8 58.53 34.41 17.48 62.41 47.1 91.54 135.24-5.18-.1-15.53.92-17.15 1.46-14.03 4.58-21.96 13.16-21.42 36.25.54 23.95 26.27 59.34 28.38 40.73.37-3.56 4.2-7.17 7.5-10.73 4.85-5.3-2.7-28.92 7.98-27.57 2.26 9.87 10.09 113.45 2.16 118.09-21.58 12.62-37.06-2.16-71.21 18.99-23.52-25.47-52.87-41.38-60.53-94.73-1.62-11.7 3.13-15.1 8.3-1.46 15.06 39.54 57.68 68.4 92.42 62.58 11.87-2.05 18.88-5.83 18.88-10.3 0-5.4-5.67-6.8-24.12-5.94-17.69.76-26.7-1.3-33.87-7.82-14.03-12.73-12.41-15.38 10.35-16.3 24.44-.96 24.82-1.29 19.2-15.85-4.68-12.14-22.33-21.96-58.8-34.15-28.32-9.5-44.34-41-48.38-54.38-5.18-16.94-9.17-76.44-9.71-87.4-1.95-38.3-4.32-108-2.32-105.19zm-4.32 218.1c14.03 109.03 37.76 125.7 77.3 166.37-26.32 29.84-40.45 40.46-66.08 92.58-8.95-49.31-37.38-67.11-68.62-89.4 44.5-65.27 55.94-122.67 57.4-169.55zm-74.28 55.35c1.34.22 2.32 1.19 3.4 3.5 1.4 2.98-3.94 7.72-8.8 9.72-4.85 2.1-8.85 1.08-8.85-2.27s3.89-7.93 8.85-9.7c2.43-.92 4.1-1.52 5.4-1.25zM88.23 702.5c6.8 5.02-.81 8.2-5.94 15.06-7.01 9.17 6.9 26.75-10.25 18.12-13.05-6.53 9.34-38.14 16.19-33.18zM62.98 959.71c5.07-.05 15.05 4.64 16.18 10.63.87 4.64-.21 8.36-2.42 8.3-7.34-.26-20.94-9.97-20.94-14.94 0-2.7 2.16-3.88 7.18-3.99z"/></svg>
