<svg viewBox="0 0 1000 1000"><path d="M743.1.16c-39.37.96-76.55 6.46-107.91 19.2-48.87 19.86-102.2 60.83-123.37 94.58-13.26 21.13-12.44 15.63-11.01 3.67.74-6.24 1.18-11.71-1.54-16.02-6.67-10.54-6.11-11.92 14.8-36.08 19.44-22.47 21.74-29.44 16.32-49.65-3.94-14.74-30.52-15.68-34.3-1.22C493.18 25.78 485 27.77 485 17.35c0-11.78-8.85-13.25-18.95-3.15-11 10.99-8.77 24.86 8.66 54.19 7.47 12.58 9.5 21.65 7.29 32.7-3.98 19.9-12.41-50.71-70.49-81.32-71.65-37.74-262.65-14.6-357.36 25.65-6.78 2.88-6.29 3.53-3.31-6.55 7.13-24.18 6.13-26.58-11.73-28.08-13.12-1.1-23.37-1.02-28.46 10.62-25.64 58.64 27.46 60.33 61.9 41.87 17.52-9.4 42.82-10.42 40.04-8.85-51.08 28.92-99.68 68.58-91.71 99.5 4.63 17.97-15.4 45.1-8.7 76.33 10.37 48.3 59.68 89.87 113.4 67.54 28.58-11.87 12.82-49.63-3.05-71.07-4.68-6.3-4.46 19.57-2.55 33.47 2.58 18.8-12.71 27.06-31.42 24.12-12-1.9-22.16-7.96-31.14-18.57-20.74-24.52-15.33-39.94 6.39-18.22 8.5 8.5 11.23 9.05 18.16 3.63 12.53-9.8 15.28-14.97 15.35-28.99.1-19.7-4.76-28.24-16.2-28.4-13.37-.2-27.76-7.26-31.02-25.53-13.31-74.5 74.94-90.58 132.22-124.53 1.08-.64 2.29 5.3 2.29 11.78 0 23.04 28.79-1.55 83.36-19.18 94.77-30.63 159.6-2.3 193.3 83.34 6.94 17.63 2.42 25.1-10.47 13.44-4.96-4.48-18.75-9.26-30.64-10.6-18.45-2.07-27.31-1.22-47.75 12.29-22.14 14.63-25.9 38.89-15.22 53.7 8.84 12.24 10.45 6.87 7.87-6.66-1.66-8.64.95-14.83 9.14-21.65 16.98-14.14 24.98-12.7 21.34 3.87-2.13 9.67-.3 17.09 6.16 25.08 10.02 12.37 9.88 12.43 38.26-13.69 16.07-14.79 27.82-10.54 23.98 8.67-1.57 7.85-.75 15.58 1.82 17.18 2.58 1.59 4.7 5.94 4.7 9.68 0 5.01-6.03 6.54-23.01 5.82-24.9-1.07-44.92 9.54-53.76 28.5-6.67 14.32-41.05 31-63.89 31-18.71 0-19.23-.46-19.23-16.79 0-11.64 2.88-18.32 9.38-21.8 13.4-7.17 13.93-6.73 13.14 10.73-.58 12.7 1.3 16.02 9.71 17.22 8.2 1.17 11.65-2.18 16.1-15.66 7.32-22.17 2.97-35.01-12.85-38.04-22.52-4.3-44.47 7.55-50.16 30.84-6.94 28.46 6.75 55 30.41 59.8 16.7 3.4 21.78 5.32 10.5 17.77-7.05 7.8-6.81 9.68 3.04 23 5.9 7.98 13.5 13.45 16.9 12.15 3.38-1.3 7.59-.04 9.35 2.81 5.14 8.31 13.88 6.05 28.28-7.3 10.52-9.75 14.28-16.44 12.54-30.28-4.62-36.74 17.49-97.01 39.68-87.88 5.02 2.07 13.2 4.66 18.7 4.66 16.61 0 11.26 13-8.64 20.96-25.92 10.37-33.18 28.55-22.27 55.8 10.06 25.14 21.54 26.85 21.54 3.2 0-19.82 7.53-22.17 15.44-4.82 4.84 10.62 2.95 14.4-9.8 33.5-17.94 26.9-46.48 77.1-78.3 80.35-6.64.67-17.14 1.03-20.72 1.87-5.55 1.3-15.07 5-15.37.65-1.12-16.45 25.34-10.1 26.52-19.51.75-5.92-3.75-4.65-11.24-13.94-8.72-10.81-15.96-14.26-32.3-15.43-20.49-1.46-29.04-7.52-29.19-20.69-.04-3.55-2.8-5.54-6.13-4.41-9.03 3.05-5.04 52.15 5.14 63.4 14.04 15.52 36.07 23.94 62.58 23.94 14.05 0 25.55 1.1 25.55 2.45-51.39 52.39-64.87 143.19-70.7 215.87-3.15 39.43-2.52 77.34-4.18 83.96-1.45 5.78 1.85 9.93 6.85 9.24 33.13-4.6 51.63-2.62 77.79 5.74-9.21 15.19-25.05 23.69-40.04 32.03-2.42-3.34-3.67-11.55-8.06-15.94-12.46-12.46-25.46-12.91-36.02-1.25-10.15 11.22-10.06 15.15.47 23.23 7.4 5.68 8.19 8.23 1.2 11.34-66 29.48-127.9 36.87-173.8 11.88-.8-.44-.62-1.8-.69-2.85-.3-1.03-.56-1.83-.84-2.57-6-9.93-20.68-13.96-32.08-17.27-35.23-10.23-20.82-28.13-14.22-52.02 4.17-15.07 5.36-15.85 19.76-12.92 17.08 3.47 21.32-1.08 15.76-16.95-3.74-10.68-17.38-19.44-28.4-18.28-7.1.75-7.1-2.38.02-13.35 4.26-6.57 3.6-9.5-3.17-13.88-22-14.28-39.33-3.84-46.88 28.25-5.78 24.56-7.08 31.44-11.9 22.24-11.87-22.6-1.1-59.92 6.64-64.41 36.45-21.2 44.63-35.17 35.95-61.46-6.4-19.4-17.4-25.25-26.72-4.75-3.38 7.42-21.3 13.34-20.85 17.61-5.55-36.8 35.64-56.03 61.3-57.18 21.22-.95 24.39-1.99 25.61-10.62 1.04-7.28-3.01-12.63-15.53-20.56 0 0-10.24-10.48-16.92-10.72-6.26-.23-6.06 3.24-16.57 8.85a56.08 56.08 0 0 0-24.37 26.15c-4.3 9.52-12.8 8.2-16.55 8.2-7.48 0-7.62-2.51 13.59-31.82 25.02-34.59 60.97-63.17 68.04-101.19 11.85-63.71-23-92.29-64.14-102.46-30.7-7.6-50.44 6.47-44.14 27.13 8.02 26.33 32.08 12.71 41.32.73 8.67 16.46 13.45 21.14 24.6 24.12 20.18 5.4 27.17 13.5 27.17 31.47 0 11.31-2.25 16.36-7.27 16.36-4 0-7.49-4.1-7.26-9.1 1.17-26.23-15.53-5.94-37.86-11.92-13.9-3.72-22.53.38-30.81 8.9-8.66 8.89 6.33 12.12 22.32 12.12 9.5 0 17.28 2.03 17.28 4.52 0 6.4-17.68 11.22-28.55 7.77-7.11-2.26-10.36.52-14.54 12.5-2.95 8.47-5.37 20.54-5.37 26.8 0 15.6 16.14 15.1 23.35-.72 6.43-14.1 13.88-15.73 16.62-3.62 1.75 7.67 4.96 18.88-9.71 34C-26.45 562.02-10.14 736 70.3 797.16c15.29 11.62 19.81 17.2 9.53 23.4-169.24 102.24 11 248.07 105.05 143.17 12.82-14.3 12.6-38.2 7-38.2-1.32 0-12.91 10.9-25.75 24.22-12.85 13.32-27.14 24.22-31.78 24.22-7.75 0-7.82-.88-.89-10.77 4.15-5.92 7.55-16.06 7.55-22.55 0-11.55-.21-11.61-9.9-2.84-5.6 5.07-19.53 10.44-32.23 10.82-71.21 2.12-65.42-69.85-17.4-104 9.88-7.02 13.23-9.87 24.64-6.6 5.62 1.62 13.86.14 20.14 2.24 55.92 18.72 123.62 22.9 199.95-13.65 12-5.75 12.29-6.85 30.44 11.74 10.38 10.62 20.45 19.33 22.38 19.33 4.41 0 18.75-28.35 18.75-37.09 0-3.59-4.35-6.52-9.68-6.52-6.86 0-16.37-2.07-18.08-6.1 18.89-12.35 29.96-19.57 50.73-42.63 22 5.52 40.33 20.9 52.3 43.46 15.1 28.45 8.08 44.98-7.85 25.34-13.6-16.79-28.11-7.74-24.34 15.2.33 2.07-2.67 5.03-6.7 6.57-10.46 4.01-9 14.55 3.16 23.07 9.53 6.68 11.72 6.42 24.76-2.86 4.78-3.4 18.68-9.85 18.68-9.85-9.87 22.83-7.85 61.04-57.2 57.22-46.48-3.6-101.07-4.53-86.05 12.2 7.55 8.4 21.4 14.8 7.06 21.25-10.27 4.63-28.33-2.55-49.03-20.35-23.75-20.42-48.68-19.37-73.03 1.81-9.62 8.36-27.24 52.15-20.58 55.55 18.07 9.23 61.38 8.42 65.56-9.18 2.76-11.65-24.67-14.18-23.26-27.09 1.13-10.28 23.32 1.96 42.16 9.4 119.97 47.4 190 .44 212.54-84.38 1.55-5.82 6.15-4.98 7.97 2.43 6.58 26.89 6.43 66 40.13 86.62 31.93 19.53 88.7 21.6 122.94 13.67 28.6-6.61 41.85-18.72 52.9-35.7 16.61-25.48 27.83-30.64 32.05-14.52 1.39 5.33 4.45 9.69 6.8 9.69 7.99 0 4.33 10.08-8.2 22.61-16.24 16.24-9.59 23.16 20.9 21.73 36.63-1.73 40.14-3.8 36.7-21.6-6.07-31.56-43.17-60.16-65.7-57.94-50.6 4.98-38.56 27.57-79.88 43.78l2.2-15.1c3.66-24.92-7.77-30.48-61.02-10.95-11.66 4.28-29.6 7.78-39.85 7.78-15.75 0-19.78-2.23-26.02-14.3-13.83-26.74-10.13-31.6 22.46-29.5 12.49.81 12.82.16 10.23-20.08-3.21-25.17-1.11-22.23-17.97-25.28-19.09-3.46-23.34-8.8-18-22.7 5.36-13.95 42.34-66.27 49.03-66.27 5.61 0 37.12 36.5 33.9 38.68-1.24.83-14.25 7.26-28.91 14.28-22.72 10.9-25.23 13.33-16.96 16.58 5.33 2.1 12.06 6.99 14.97 10.86 7.9 10.53 36.47 3.4 52.22-13.04 12.31-12.86 14.96-15.15 32.45-8.6 60.94 22.83 111.13 29.9 154.37 8.46 4.94 1.64 20 1.94 28.5 3.94 45.3 10.65 112.63 38.92 105.63 81.53-2.93 17.85-12.63 21.32-12.63 5.54 0-7.31-1.92-8.44-7.68-7.27a69.83 69.83 0 0 0-37.53 20.67c-6.71 7.07-8.71 16.38-16.73 17.73-7.43 1.25-10.59-5.53-20.06-10.46-29.27-15.26-34.2-14.04-31.1 7.7 1.64 11.52 5.6 26.33 16.8 31.54 97.66 45.56 159.44-51.86 124.59-108.73-7.03-11.47-8.82-10.6.27-19.07 10.85-10.11 17.1-33.72 12.63-47.77-3.65-11.51-18.08-12.88-26.68-2.52-3.31 4-9.8 15-20.27 15.01-6.9 0 5.12-18.4 13.86-28.07 6.55-7.24 6.93-10.12 1.96-14.92-1.84-1.77-3.37-2.74-4.89-2.8-2.53-.09-5 2.35-8.67 7.76-4.07 6-11.12 10.9-15.67 10.9-4.55 0-11.05 5.17-14.44 11.5-5.34 9.98-40.64 18.36-62.78 16.9C971.34 749.18 1010.8 643.12 980 565.53c-6.18-15.57-.5-29.97-15.9-44.92-5.03-4.88-5.38-23.49 1.11-37.74 4.43-9.7 1.97-16.14-1.67-22.74-5.84-10.61-30.3-25.12-49.17-12.57-5.83 3.87 6.89 6.55 11.68 12.17 8.62 10.1 2.64 17.32-5 15.19-29.9-8.32-39.1-30.4-23.69-52.28 2.68-3.58 6.33 1.7 14 2.56 33.3 3.7 13-4.86 6.05-11.48-9.42-8.96-14.47-13.92-3.29-18.21 9.57-3.68 20.78 2.28 34.74 18.4 14.55 16.81 26.6 16.66 24.58-.3-2.49-20.89-22.33-38.26-59.54-32.35-70.36 11.17-61.71 98.67-14.6 119.44 17.5 7.72 21.3 15.45 25.41 14.08 3.27-1.1 4.12-5.94 6.75-5.94 2.62 0 8.75 5.02 7.18 9.98-1.68 5.28 1.06 10.88 4.84 15.38 29.3 34.89 36.76 98.62 16.85 143.81-13.25 30.07-12.67 20.58-11.73-20.19.94-41.25-2.36-59.27-19.07-94.48-13.6-28.62-49.77-31.33-71.5-27.6-4.56.78-23.27 5.85-13.72 17.85 7.89 9.91 28.54-.06 39.65 1.51 13.25 1.88 29.7 8.03 36.08 26.6l-14.57-2.45c-24.4-4.12-35.25 7.33-39.26 41.12-3.94 33.32 2.33 42.54 19.67 28.9 6.73-5.3 15.94-9.61 20.46-9.61 12.07 0 20.4 19.4 18.66 43.42l-1.53 21.05c-5.99-4.02-12.43-8.07-15.24-12.85-26.46-45.04-29.35-9.23-42.8 4.39-14.8 14.96-8.51 23.71 2.9 34.44 12.9 12.13 18.25 38.1-4.88 53.3-65.99 43.42-129.45 35.47-183.98 15.78-11.06-4-11.08-5.11-3.63-16.48 4.29-6.54 7.8-13.92 7.8-16.37 0-8.04-30.95-9.79-39.54-2.24-7.06 6.22-9.86 6.13-23.02-.67-7.79-4.03-18.9-14.76-21.2-19.14 14.8-14.83 68.57 4.19 86.4-17.62 3.91-4.78-5.89-90.08-7.7-127.28-5.1-104.56-61.49-141.14-62.78-160.63-.08-1.31 5.34.04 11.87 3.01 9.32 4.25 15.36 3.76 28.12-2.3 22.94-10.88 33.93-20.78 37.46-45.8 4.21-29.94 0-47.58-22.36-53.24-22.62-5.73-32.32.06-13.77 15.6 11.28 9.45 11.71 7.47 9.34 13.6-1.82 4.7-6.03 7.98-9.34 7.27-10.99-2.36-36.47 21.2-36.47 33.74 0 7.56-2.17 10.88-6.06 9.25-3.33-1.4-16.34-2.36-26.35-8.18-50.7-29.48-92.31-72.82-93.56-101.3-.61-13.8 8.99-12.39 14.58 2.32 4.54 11.96 17.15 20.64 22.38 15.42 1.44-1.44 3.8-11.43 5.24-22.2 2.43-18.17-7.85-29.63-18.38-39.75-10.53-10.11-25.96-14.16-21-20.17 33.87-41.03 86.7 6.93 82.73 34.36-8.95 62-6.93 64 4.1 80.67 7.38 11.16 2.83 27.43 21.88 10.58 11.56-10.24 19.1-26.14 19.29-42.75.14-12.56 1.15-14.08 6.98-9.25 7.2 5.99 34.67 9.27 50.74-6.5 15.08-14.8 7.88-61.33-1.76-79.99-10.46-20.22-19.53-26.31-26.55-17.86-4.55 5.5-3.66 11.08 4.2 26.51 16.73 32.78 3.69 60.4-11.82 50.23-37.08-24.32-63.24-94.72-133.4-76.16-13.75 3.64-14.37 8.95-14.37-2.21 0-11.57 21-37.16 33.1-40.33 5.95-1.55 16.59 4.74 31.5 18.63 8.93 8.32 12.72 24.02 22.52 20.98 4.29-1.33 2.53-14.18 4.48-24.16 2.51-12.87 6.03-18.97 12.68-15.96 22.38 10.1 14.25 63.91 18.53 59.02 16.53-18.92 7.49-68.49-3.71-81.21-21.45-24.37-57.89-33.7-74.37-12.77-14.9 18.92-35.28 39.49-40.48 33.67-4.97-5.56-.04-13.28 6.32-21.48 47.24-61.03 105.15-122.46 176.98-114.4 50.27 5.63 63.53 2.24 89.48 18.48 29.83 18.68 46.1 24.02 68.37 17.52 20.77-6.07 23.7-19.8 4.2-26.04-30.2-9.65-48.28-19.24-27.81-18.82 4.92.1 27.59 4.42 38.5 6.96 32 7.42 65.72 15.96 76.47 81.07 2.72 16.45-5.33 25.4-23.96 3.34-22.44-26.57-10.5 4.98-11.78 7.98-4.59 10.72-12.04 4.23-19.02 6.03-7.3 1.89-7.28 5.07-1.75 21.17 7.56 21.97 2.18 33.61-17.34 37.52-9.94 1.98-14.03 6.37-16.52 17.73-4.37 19.9-.95 22.25 15.5 10.75 18.11-12.67 39.83-14.7 58.1-26.4 10.5-6.73 25.76-42.28 25.76-55.7 0-7.03 1.36-11.42 3.02-9.75 4.42 4.41 36.32 44.74 35.54 98.45-.64 44.55-2.71 102.56-64.9 116.1-14.05 3.06-22.44-9.25-13.07-18.61 3.02-3.02 5.5-11.74 5.5-19.38 0-11.9-1.46-13.43-10.18-10.66-8.65 2.74-9.69 1.7-6.94-6.95 4.67-14.7-9.67-13.31-19.64 1.9-8.9 13.58-16.94 12.26-13.17-2.16 3.71-14.2 24.35-25.83 39.2-22.1 15.25 3.82 30.1 19.97 30.1 32.72 0 5.22 2.63 8.49 5.93 7.39 7.27-2.43 16.97-20.42 8.34-43.07-13.33-34.93-91.72-27.3-98.68 21.56-15.22 106.85 134 91.83 134 39.63 0-20.54 23.24-21.58 21.79-98.27-1.3-69.1-22.98-89.94-29.29-96.24-1.83-1.84-3.33-8.57-3.33-14.97 0-11.47-16.92-35.88-46.76-67.48C904.47 26 912.16 24.4 942.4 41.29c24.97 13.94 29.16 14.8 25.48 5.2-1.46-3.8.6-9.6 4.56-12.9 19.77-16.4-10.78-41.3-34.86-28.4-9.34 4.99-23.85 9.77-73.41 3.04C824.04 2.78 782.47-.81 743.1.16Zm-268 356.4c3.76.07 3.9 6.53 3.48 19.65-.99 30.43 3.23 61 3.72 92.3.38 23.45 1.42 50.55-9 71.64-19.35 39.2-29.72 70.6-54.87 69.03-11.18-.7-42.7 15.01-50.85 27.45-5.9 9.02-4.16 17.56 3.56 17.56 10.57 0 8.9 13.31-2.42 19.38-5.33 2.85-9.68 8.32-9.68 12.15 0 5.7 1.84 3.97 13.32 1.6 44.4-9.2 75.44-34.13 86.12-88.85 2.75-14.09 21.26-48.06 24.26-45.06-7.49 77.44-33.6 151.02-69.22 186-23.15-6.92-41.14-7.03-55.08-5.9-21.58 1.74-28.07-.24-25.67-7.83 1.47-4.65 2.74-27.54 2.84-50.87.2-49.63 6.4-75.9 17-71.84 7.3 2.8 40.33-19.2 40.33-26.88 0-2.35-3.38-4.27-7.5-4.27-4.14 0-13.98-3.35-21.88-7.44-11.83-6.11-11.1-8.16-9.59-16.38 8.2-44.33 34.08-86.66 63.96-117.73 18.57-19.32 37.84-44.7 43.03-56.2 5.15-11.4 10.23-17.17 13.77-17.5h.37Zm22.13 1.38c10.12 13.67 29.98 42.86 60.77 58.5 34.46 17.51 62.43 47.12 91.6 135.3-5.2-.11-15.56.9-17.2 1.44-14 4.57-21.96 13.17-21.42 36.23.55 23.97 26.28 59.37 28.4 40.73.4-3.57 4.22-7.14 7.48-10.7 4.85-5.3-2.67-28.94 8.01-27.62 2.27 9.89 10.05 113.5 2.2 118.1-21.6 12.66-37.1-2.19-71.28 18.98-23.51-25.44-52.89-41.37-60.5-94.72-1.67-11.7 3.13-15.07 8.3-1.47 15.04 39.59 57.67 68.45 92.41 62.58 11.89-2 18.9-5.82 18.9-10.27 0-5.41-5.7-6.83-24.11-5.99-17.7.81-26.72-1.26-33.92-7.78-14.06-12.73-12.36-15.38 10.38-16.27 24.41-.96 24.84-1.31 19.2-15.87-4.69-12.13-22.35-21.97-58.77-34.16-28.36-9.5-44.35-41.01-48.42-54.37-5.17-16.95-9.13-76.45-9.7-87.44-1.96-38.28-4.37-107.94-2.34-105.2Zm-4.34 218.1c14.03 109.03 37.81 125.68 77.32 166.4-26.34 29.8-40.45 40.46-66.08 92.54-8.95-49.3-37.4-67.11-68.6-89.4 44.49-65.22 55.9-122.67 57.37-169.53Zm-74.25 55.33c1.33.22 2.32 1.23 3.38 3.51 1.4 3-3.96 7.71-8.8 9.76-4.85 2.05-8.82 1-8.82-2.3 0-3.32 3.87-7.95 8.82-9.75 2.42-.89 4.1-1.45 5.42-1.23Zm-335 75.12c6.1 5.28-1.42 7.73-6.9 13.83-7.37 8.2 4.47 26.04-11.19 16.44-11.9-7.3 11.98-35.55 18.09-30.27ZM60.96 959.74c5.05-.1 15.02 4.62 16.15 10.59.9 4.66-.18 8.4-2.38 8.32-7.36-.27-20.93-9.96-20.93-14.95 0-2.65 2.1-3.87 7.16-3.96Z"/></svg>
