<?xml version="1.0" encoding="UTF-8"?>
<svg version="1.0" xmlns="http://www.w3.org/2000/svg" xmlns:xlink="http://www.w3.org/1999/xlink" x="0px" y="0px" viewBox="0 0 1000 1000">
<path d="M 597.334 0.00976562 C 591.645 -0.157612 585.286 1.69729 579.508 5.93164 C 527.048 44.374 526.706 44.4488 512.719 20.7422 C 502.758 3.86061 492.662 -0.646105 486.639 9.09961 C 478.716 21.9192 533.696 61.6582 559.355 61.6582 C 576.14 61.6582 643.287 43.9996 679.426 27.7988 C 696.047 20.3475 744.069 21.5713 769.115 23.7949 C 752.177 26.6185 735.636 31.2645 720.355 37.8301 C 676.127 56.8328 642.449 91.8638 640.162 144.955 C 636.839 147.71 636.42 151.229 626.373 152.293 C 607.508 154.292 599.142 167.743 611.924 191.162 C 619.202 203.758 621.088 197.617 629.166 192.572 C 634.273 189.383 640.336 187.679 644.555 187.73 C 646.694 196.879 649.616 206.427 653.406 216.387 C 656.097 223.458 659.435 229.738 663.354 235.316 C 663.8 237.47 661.523 236.795 655.883 238.219 C 652.053 239.186 640.396 239.992 629.662 245.303 C 586.742 275.036 597.185 315.307 624.23 367.801 C 629.51 383.798 630.375 387.471 616.461 399.021 C 600.713 412.093 600.69 412.193 609.977 412.193 C 624.94 412.193 664.361 376.414 657.768 359.938 C 652.905 347.786 655.287 345.029 664.652 342.719 C 674.899 340.191 666.347 322.359 681.836 306.725 C 685.172 303.357 676.777 302.113 663.785 301.428 C 649.427 300.671 645.426 297.762 644.236 289.406 C 641.064 267.116 691.247 263.785 703.623 273.688 C 707.308 276.636 713.112 280.721 716.436 280.721 C 719.758 280.721 726.271 286.708 729.973 290.305 C 751.337 311.062 759.533 298.565 754.008 285.582 L 749.592 275.207 C 756.968 275.871 764.591 276.26 772.434 276.414 C 791.094 276.78 825.358 268.878 839.75 241.773 C 871.416 182.138 834.743 139.561 794.35 132.811 C 768.26 132.418 733.162 141.207 729.975 172.512 C 730.278 187.619 746.641 209.13 762.936 206.824 C 782.426 204.066 784.222 199.448 770.994 184.066 C 756.167 166.825 756.115 165.646 769.797 156.682 C 788.253 145.103 812.903 149.489 821.158 172.926 C 835.482 200.407 831.157 228.301 809.281 249.504 C 793.148 265.579 768.977 268.364 744.209 262.559 L 739.6 251.73 C 739.6 249.273 735.246 242.908 729.924 237.586 C 722.238 229.9 716.44 228.519 701.73 230.871 C 693.766 232.145 687.523 231.859 682.734 230.646 C 679.149 227.567 675.739 224.356 672.572 221.018 C 666.849 211.879 662.571 201.491 659.748 190.457 C 662.926 186.309 672.445 186.655 680.02 188.104 C 695.968 191.152 699.2 189.732 689.266 164.91 C 681.769 143.838 679.586 149.1 671.645 150.734 C 663.617 152.387 659.895 149.254 656.162 146.135 C 659.38 107.44 678.964 70.0007 715.963 55.3164 C 744.793 40.1318 773.436 34.1701 801.689 34.5352 C 797.459 44.1724 775.267 57.3722 763.156 62.5488 C 740.257 72.3368 707.533 106.926 710.191 110.873 C 711.293 112.509 720.011 108.967 728.914 103.539 C 749.503 90.9869 763.418 92.7487 788.244 105.414 C 815.263 119.198 832.967 120.785 845.742 110.289 C 867.962 92.0325 855.428 88.5083 830.949 76.2188 C 798.123 59.7383 802.201 62.8605 835.457 37.8418 C 853.917 41.1459 872.171 46.7136 890.156 53.7461 C 909.273 61.2211 919.411 74.0308 921.555 81.4258 C 924.859 92.8278 935.151 111.809 936.537 126.578 C 938.637 148.937 932.629 148.777 935.01 178.092 C 937.686 211.047 867.78 273.11 860.744 279.232 C 855.895 283.451 787.53 316.423 780.752 330.578 C 748.031 339.362 717.298 356.299 691.711 381.766 C 659.16 412.909 642.926 438.135 637.027 477.338 C 625.956 473.638 614.76 470.788 603.367 468.662 C 610.23 467.515 616.753 464.211 619.803 461.42 C 626.463 455.325 628.326 449.166 627.205 448.691 C 626.463 448.377 621.531 447.633 616.117 447.199 C 610.704 446.765 605.58 449.253 603.566 449.873 C 595.346 452.58 585.254 455.897 577.963 465.086 C 533.811 460.754 486.131 465.132 431.061 470.803 C 418.244 472.122 406.627 469.461 397.389 459.684 C 390.083 451.951 373.647 446.736 367.711 446.717 C 354.68 446.679 332.674 432.822 322.441 418.213 C 315.514 408.323 315.77 406.699 325.953 395.859 C 332.677 388.828 345.881 388.184 349.697 379.357 C 352.763 372.266 335.466 373.762 313.371 384.797 C 296.223 393.361 292.525 397.743 290.932 411.389 C 287.931 444.283 323.668 450.312 351.982 466.197 C 347.592 473.301 314.114 471.681 288.49 463.125 C 256.724 452.518 227.611 436.094 210.768 424.408 C 200.683 415.201 192.785 408.931 186.457 404.527 C 192.703 387.511 213.529 388.576 225.096 384.424 C 236.718 380.252 252.738 379.092 265.08 374.004 C 277.423 368.916 289.698 363.208 301.051 356.561 C 312.403 349.913 322.833 342.325 331.484 333.475 C 338.667 327.446 346.291 321.765 348.426 320.85 C 350.56 319.935 362.012 307.816 373.875 293.918 C 394.268 270.025 407.477 262.163 407.477 273.918 C 407.477 276.819 403.468 284.941 398.566 291.969 C 368.691 334.804 366.014 397.879 392.93 424.795 C 407.689 439.555 419.228 438.819 406.773 423.912 C 388.967 402.598 385.658 389.626 403.049 369.191 C 424.949 343.457 432.584 335.035 409.033 323.973 C 400.705 317.883 401.262 314.607 417.23 275.863 C 419.413 270.568 423.316 229.798 426.99 219.305 C 442.184 175.915 458.406 102.708 428.824 56.9258 C 432.898 55.4184 437.661 53.7467 440.605 52.9238 C 443.51 52.1127 445.058 51.3368 446.824 51.9375 C 448.804 53.8146 448.557 56.023 454.572 56.334 C 459.362 56.5817 465.761 51.8367 464.684 46.2031 C 461.529 29.7127 453.692 -5.96289 423.877 8.99805 C 417.868 12.6637 420.36 19.5441 427.846 21.2402 C 435.695 22.7182 444.862 30.3548 444.549 39.2578 C 444.346 43.1864 437.211 40.2351 420.553 46.1836 C 417.141 42.4617 413.32 39.0047 409.049 35.8594 C 375.231 7.63372 339.835 0.0217413 280.758 8.26758 C 242.929 13.5476 186.301 30.3855 159.793 44.2363 C 150.763 48.9547 142.836 56.7058 137.5 59.9863 C 132.222 41.5941 139.021 29.5988 155.229 18.377 C 157.614 16.6151 158.43 13.0629 152.84 11.7461 C 150.732 11.2496 144.018 14.7817 142.133 15.8555 C 138.286 18.0466 134.468 18.2527 128.516 22.9668 C 117.709 31.5256 107.567 47.5564 106.832 52.4395 C 105.916 58.5287 103.64 82.0549 112.838 82.4805 C 122.876 82.9448 116.469 94.5259 99.8066 110.379 C 84.3854 125.051 82.6972 145.934 79.0625 131.592 C 76.5825 121.715 79.3851 123.269 82.8379 110.609 C 86.0174 98.9514 83.0348 86.5474 78.5527 76.082 C 70.5386 57.3668 63.716 68.127 59.1406 68.127 C 54.5653 68.127 50.2956 59.9505 46.6445 52.8184 C 43.4338 46.5463 32.2037 50.7519 25.5586 43.9922 C 19.3827 37.7097 26.7798 17.3106 10.707 24.1758 C 7.01116 25.7544 2.47921 32.3956 0.759766 39.2441 C -1.76409 49.2991 1.52301 56.3082 17.8359 75.6543 C 36.8882 98.2586 28.9091 106.077 31.5176 123.133 C 33.4329 135.657 21.465 146.303 34.1719 211.785 C 37.013 226.427 40.4148 241.505 43.2227 260.047 C 46.0304 278.589 45.4344 300.868 55.6777 322.219 C 60.8038 332.903 68.1239 346.541 77.7305 357.992 C 83.1684 364.474 108.459 391.892 123.545 392.529 C 130.437 392.82 144.674 399.589 147.256 404.77 C 148.285 406.835 151.516 409.085 156.494 411.914 C 153.399 413.058 150.077 414.151 146.709 415.443 C 137.852 423.666 110.477 432.307 93.2832 432.307 C 80.1652 432.307 79.1858 431.142 81.1348 417.859 C 83.5722 397.995 65.836 386.58 54.5938 393.271 C 51.2006 395.291 44.4899 396.352 35.7734 395.439 C 31.4147 394.983 24.0721 393.575 21.4277 390.885 C 15.3 384.651 24.1487 371.235 22.9355 365.684 C 21.6475 359.788 34.1855 338.425 18.043 349.689 C 13.8893 352.588 3.70958 360.32 0.519531 385.051 C -0.52263 393.133 -0.0634307 404.716 10.7383 416.695 C 22.5549 429.8 82.8802 448.695 89.3516 448.047 C 104.518 446.528 98.1214 459.54 79.5371 473.223 C 68.7492 481.165 55.4547 494.161 49.9941 502.104 C 44.534 510.046 34.5545 522.545 27.8164 529.877 C 21.0788 537.209 13.2842 550.205 10.4941 558.758 C 4.06508 578.469 9.71331 648.372 19.2207 666.758 C 32.7985 693.014 60.0462 707.24 71.1445 693.867 C 75.9206 688.112 72.5099 682.477 52.0684 662.354 C 32.5405 643.13 27.1738 634.58 27.1738 622.686 C 27.1738 614.346 29.387 605.31 32.0918 602.605 C 34.797 599.9 38.6469 588.095 40.6484 576.371 C 45.9135 545.529 57.7119 547.593 60.9648 579.926 C 63.4189 604.309 76.9254 627.398 85.5996 622.037 C 87.9024 620.614 88.3816 613.854 86.666 607.016 C 83.8612 595.841 84.7124 594.834 95.0723 597.064 C 101.412 598.43 110.39 601.138 115.023 603.086 C 131.025 609.812 124.033 592.303 106.354 581.377 C 75.5512 562.34 64.6439 529.556 79.1777 499.697 C 86.4544 484.748 89.7528 482.679 108.461 481.338 C 128.627 479.892 129.379 480.311 125.736 490.965 C 117.972 513.672 123.036 562.275 133.166 562.275 C 135.763 562.275 137.889 556.125 137.889 548.609 C 137.889 533.966 160.423 500.163 170.379 499.873 C 177.543 499.664 178.295 483.358 171.707 471.049 C 169.128 466.23 159.064 457.593 149.34 451.855 L 131.66 441.424 C 117.585 433.119 145.503 431.93 159.906 425.785 C 163.694 423.455 167.536 421.656 171.131 419.787 C 172.709 420.63 174.319 421.49 176.02 422.416 C 207.949 439.811 242.151 461.609 268.996 472.764 C 295.84 483.918 315.927 483.827 323.236 482.711 C 333.826 483.823 343.466 484.85 344.658 484.994 C 345.85 485.139 344.224 487.856 341.047 491.033 C 300.387 508.628 263.492 529.396 229.975 552.047 C 168.299 585.114 88.298 650.885 86.4102 751.969 L 85.7246 788.816 C 85.0413 825.45 34.2383 779.912 18.918 801.664 C -8.96824 842.792 -4.58737 877.94 27.8945 907.119 C 59.1238 935.173 53.0103 946.486 36.0312 946.486 C 29.9419 946.486 19.7575 944.205 17.0566 947.795 C 13.8252 952.091 13.5418 977.914 17.9121 981.564 C 26.5867 988.81 48.0636 975.542 51.4023 962.617 C 52.7704 957.322 56.5419 949.295 64.5586 944 C 86.8668 929.266 92.8781 900.675 74.0684 877.855 C 63.2921 864.782 59.3785 854.742 59.127 841.854 C 58.7278 821.408 84.664 827.385 95.8906 855.906 C 100.583 867.828 108.847 894.657 114.211 903.812 C 127.182 925.957 127.609 932.204 116.617 939.068 C 105.549 945.98 104.894 963.748 114.504 982.332 C 122.62 998.026 129.729 1001.71 143.488 997.35 C 155.758 993.462 179.714 994.487 196.867 999.15 C 238.233 1006.79 317.528 958.949 324.057 952.266 C 324.092 952.222 324.125 952.179 324.16 952.135 C 331.496 949.476 352.159 938.684 362.133 941.332 C 365.563 944.762 362.919 953.867 353.416 967.141 C 348.572 973.908 348.828 976.853 354.783 982.809 C 360.9 988.925 366.652 989.304 389.439 985.092 C 413.354 980.671 437.381 1009.64 437.381 989.707 L 437.381 989.705 C 460.958 1000.76 491.231 1003.14 488.088 993.705 C 486.986 990.396 481.931 987.035 476.855 986.236 C 459.586 983.52 444.167 975.827 434.867 960.064 C 422.997 939.946 397.293 932.943 373.48 931.887 C 359.24 931.255 346.758 930.68 338.555 932.768 C 358.679 902.982 364.043 881.26 366.352 872.516 C 378.341 827.106 374.438 758.018 327.662 716.627 C 326.424 713.106 329.976 706.197 331.449 703.812 C 335.111 697.888 340.806 699.874 348.527 706.861 C 353.496 711.358 364.323 717.361 372.889 718.102 C 382.463 718.929 388.217 717.079 388.217 705.869 C 388.227 697.455 382.802 682.602 376.184 672.861 C 358.981 651.785 359.072 614.015 395.145 630.277 C 409.648 639.781 415.689 639.166 412.285 631.816 C 381.156 578.026 330.336 622.481 325.104 675.596 C 322.628 693.077 319.24 702.371 316.486 708.117 C 314.077 713.145 315.097 715.595 297.762 710.725 C 287.949 707.968 265.28 708.492 267.363 703.568 C 277.875 678.719 280.202 688.034 286.938 682.58 C 301.029 671.169 297.509 664.865 269.766 651.824 C 269.766 651.824 252.941 643.912 248.346 643.883 C 244.652 643.858 226.686 653.182 226.686 653.182 C 214.773 659.466 196.964 674.784 187.111 687.223 C 177.259 699.661 166.121 711.108 162.361 712.658 C 154.515 715.894 144.705 711.175 146.834 701.912 C 147.83 697.577 147.13 680.194 138.871 696.859 C 134.753 705.171 133.793 734.628 143.537 737.594 C 167.047 744.748 193.883 730.62 201.045 713.801 C 207.739 698.08 229.657 683.53 243.809 676.641 C 261.412 676.641 258.875 695.086 250.791 705.48 C 242.282 709.706 227.005 711.719 218.537 716.656 C 168.702 747.179 158.054 773.002 180.354 825.359 C 188.91 847.763 182.348 855.432 172.053 862.268 C 157.208 872.124 159.035 888.288 176.447 901.162 C 218.992 928.83 206.348 901.646 201.99 899.121 C 196.137 895.73 186.382 873.614 197.934 871.293 C 207.614 869.348 237.791 892.58 243.809 897.758 C 251.4 904.29 298.549 926.108 303.678 917.811 C 304.92 915.801 299.382 906.204 291.371 896.484 C 279.854 882.512 273.409 878.812 260.59 878.812 C 247.193 878.812 238.387 870.414 234.369 867.498 C 209.592 849.84 243.156 856.32 258.543 850.574 C 278.54 843.107 283.701 826.967 288.24 797.945 C 291.275 778.541 295.34 774.489 285.992 768.371 C 278.838 763.689 276.124 769.658 273.389 773.596 C 267.94 781.44 268.795 788.55 266.225 788.219 C 263.655 787.887 259.297 774.648 256 771.352 C 245.861 761.212 238.68 760.199 228.545 771.254 C 205.54 796.347 223.507 810.523 251.799 806.059 C 258.127 805.06 259.154 798.023 261.615 798.355 C 264.185 798.702 265.889 798.67 264.234 813.814 C 262.239 832.074 254.381 841.16 231.613 841.268 C 194.994 841.44 170.881 796.119 187.303 763.748 C 202.363 734.062 221.809 727.295 255.641 727.484 C 291.251 727.684 322.573 741.983 342.73 767.246 C 354.389 781.856 357.051 790.236 358.568 817.09 C 360.715 858.204 348.075 854.295 331.682 923.348 C 329.519 932.778 328.492 935.049 318.738 944.213 C 301.906 960.028 228.536 966.15 195.982 954.664 C 162.342 942.795 129.975 909.759 118.578 884.756 C 96.6064 836.553 96.9513 780.376 101.041 755.51 C 103.012 743.525 103.927 724.022 107.365 713.904 C 131.291 643.49 167.579 608.38 180.258 599.963 C 197.424 588.567 223.816 567.307 232.98 570.566 C 243.596 574.341 239.336 593.613 222.451 602.346 C 212.938 607.266 206.368 618.653 207.709 620.551 C 237.441 614.326 277.597 600.206 291.947 544.533 C 291.947 541.905 299.923 532.498 309.67 523.629 C 318.811 515.427 328.027 506.321 344.354 501.234 C 364.712 495.911 360.98 512.499 331.934 537.908 C 292.874 572.078 304.329 566.926 308.051 575.986 C 317.558 599.127 319.013 589.026 332.861 567.088 C 345.438 547.164 361.058 541.853 372.734 553.529 C 377.12 557.915 382.459 555.199 395.938 541.721 C 408.44 526.657 409.81 512.555 412.047 507.275 C 414.773 500.842 410.302 485.632 429.785 484.986 C 508.347 471.029 571.791 472.584 635.285 492.863 C 634.385 504.297 634.154 516.884 634.494 531.018 C 634.722 540.51 635.413 550.578 636.725 560.885 C 635.77 561.318 634.817 561.773 633.867 562.275 C 632.016 563.255 622.284 559.026 612.779 555.055 C 603.275 551.083 594.346 547.834 592.938 547.834 C 586.465 547.834 591.512 558.974 602.672 569.316 C 614.7 580.463 614.75 580.784 604.998 583.879 C 589.408 588.827 577.228 618.48 579.67 645.543 C 581.965 670.972 591.842 674.662 594.156 650.955 C 596.196 630.052 605.188 615.28 620.781 607.217 C 633.759 600.506 629.823 601.355 640.602 611.48 C 643.052 610.722 645.505 609.966 647.961 609.213 C 652.393 621.609 658.126 633.61 665.477 644.627 C 668.379 648.978 671.234 653.263 674.09 657.494 C 665.902 659.746 658.352 663.699 648.113 670.852 C 602.822 702.491 589.601 739.529 597.711 783.541 C 596.297 785.829 600.801 794.425 607.717 802.645 C 617.947 814.802 619.194 818.914 614.4 824.689 C 606.679 833.993 619.515 854.773 634.979 858.002 C 682.145 867.852 695.429 863.535 728.852 827.496 C 751.201 803.396 747.605 790.066 738.701 787.949 C 734.87 787.038 729.053 789.818 723.023 805.439 C 712.165 833.569 705.994 834.631 668.855 828.27 C 642.542 823.762 635.138 820.258 623.709 806.9 C 614.951 796.664 609.967 785.3 609.842 775.277 C 609.735 766.673 610.801 759.633 612.213 759.633 C 613.625 759.633 622.199 767.052 631.266 776.119 C 644.396 789.249 650.156 791.944 659.564 789.357 C 672.539 785.79 710.217 755.649 710.217 748.17 C 710.217 742.008 692.897 743.818 689.072 750.006 C 683.679 758.733 664.467 755.023 653.256 743.09 C 644.254 733.508 640.646 732.353 633.553 736.783 C 627.003 740.873 623.085 740.726 617.611 736.184 C 599.318 721.001 647.018 678.619 667.402 680.318 C 674.932 679.357 682.045 678.708 688.789 678.311 C 706.648 702.008 726.692 721.501 757.35 731.232 C 765.744 733.897 794.665 738.576 812.955 740.512 C 838.186 743.182 906.405 787.34 910.91 805.289 C 916.271 829.018 910.192 859.427 899.361 882.324 C 895.858 889.731 888.148 900.065 877.703 911.152 C 879.726 899.535 877.594 891.761 877.188 870.08 C 876.469 831.886 840.075 783.486 812.355 783.875 C 796.716 784.094 776.789 793.72 776.477 805.137 C 776.322 810.817 805.179 788.879 821.031 806.178 C 830.038 816.006 839.139 819.275 816.615 829.432 C 806.025 834.207 795.428 844.969 795.428 848.357 C 795.428 853.992 818.975 868.386 827.393 869.949 C 843.192 872.882 861.613 865.425 861.613 892.414 C 861.613 899.662 858.157 929.612 858.131 929.842 C 817.94 964.539 759.19 995.062 723.969 958.035 C 712.679 948.144 712.536 897.829 723.158 892.523 C 760.471 873.888 753.514 880.359 760.803 901.594 C 765.686 915.82 785.344 915.722 792.23 904.578 C 806.695 876.932 762.841 860.829 730.979 870.348 C 722.743 872.808 708.82 889.576 669.982 923.266 C 659.301 932.532 643.977 943.757 635.93 948.211 C 621.927 955.961 619.861 955.814 587.793 944.805 C 569.365 938.478 548.533 934.409 546.379 933.098 C 538.504 928.306 479.447 928.324 535.162 957.418 C 552.213 966.322 547.757 973.801 543.875 976.549 C 532.862 984.342 494.637 957.746 478.152 938.951 C 470.214 929.9 469.606 935.135 473.414 947.123 C 476.807 957.805 509.674 986.758 524.795 991.381 C 547.65 998.368 577.957 994.136 598.072 986.99 C 598.072 986.99 607.406 985.713 612.691 983.766 C 616.441 982.384 630.829 978.766 639.293 970.893 C 643.864 966.641 670.721 952.146 674.67 952.146 C 683.685 952.146 685.483 955.317 679.689 973.826 C 677.494 980.842 662.86 985.114 664.617 989.695 C 667.251 996.558 664.597 995.471 682.877 993.076 C 695.078 991.478 719.876 1003.77 723.881 998.492 C 730.381 989.933 690.847 973.708 705.748 965.27 C 751.262 1015.33 830.934 977.04 874.398 944.965 C 896.049 926.692 915.937 906.819 926.576 906.086 C 933.905 905.581 941.728 907.272 944.396 909.408 C 952.116 915.589 932.923 928.509 922.98 940.34 C 907.974 958.198 912.154 988.037 922.021 990.887 C 932.011 993.772 944.252 984.422 951.402 954.615 C 954.826 940.344 956.92 920.323 962.426 917.318 C 967.932 914.314 968.172 925.987 975.885 938.635 C 980.762 946.633 973.33 954.002 967.539 967.861 C 963.346 977.897 955.831 983.532 959.916 987.926 C 961.324 989.441 978.137 985.981 986.631 977.525 C 990.618 973.556 1001.35 929.91 992.617 916.586 C 986.054 906.57 986.054 904.765 992.617 899.318 C 1002.43 891.157 1002.45 856.572 992.617 852.801 C 980.785 848.26 961.133 860.983 953.451 875.838 C 950.819 880.93 955.287 888.52 952.037 890.688 C 948.787 892.855 943.564 889.496 932.82 890.24 C 925.405 890.754 918.895 891.845 912.51 892.906 C 936.854 830.41 940.653 793.415 962.391 776.955 C 965.038 776.695 970.329 777.224 971.941 790.441 C 967.983 823.579 964.39 826.046 988.35 812.859 C 996.181 808.549 998.492 802.854 998.492 786.902 C 998.492 775.611 996.522 764.314 994.111 761.799 C 991.547 759.123 988.421 745.99 993.797 732.1 C 1005.56 701.713 997.686 685.609 990.992 683.564 C 988.487 682.799 984.375 692.459 982.975 699.811 C 970.347 717.788 936.116 770.78 927.246 807.844 C 928.18 797.158 928.144 784.37 927.328 778.242 C 922.144 737.286 909.919 701.675 894.719 671.877 C 958.725 651.366 990.5 614.284 996.922 540.1 C 1001.05 473.548 986.44 388.201 927.689 345.836 C 913.094 336.585 885.494 329.071 868.203 325.885 C 856.537 324.128 844.784 323.312 833.072 323.441 C 850.813 312.615 865.285 299.615 870.547 295.752 C 880.469 286.203 889.703 276.68 898.172 267.191 C 904.404 277.981 902.322 304.636 910.568 310.061 C 921.985 317.57 923.318 317.309 939.807 304.732 C 954.486 293.536 958.816 292.354 968.678 296.848 C 975.058 299.755 980.277 306.246 980.277 311.273 C 980.277 322.204 992.503 333.885 996.75 327.014 C 998.339 324.443 999.244 311.981 998.768 299.318 C 998.121 282.217 995.053 273.661 986.842 266.051 C 978.931 258.719 976.702 253.663 980.982 250.609 C 1002.73 235.097 972.921 229.987 948.705 242.016 C 930.363 251.126 923.653 271.22 913.791 248.598 C 934.981 221.67 949.509 195.045 955.52 168.865 C 977.313 124.224 973.831 147.705 977.428 71.707 C 978.136 38.2091 969.459 25.8293 963.574 20.207 C 959.189 18.2317 956.972 21.3571 956.211 25.125 C 955.676 27.7759 950.843 32.6157 944.176 35.5234 C 928.639 42.2998 931.067 43.2641 932.143 47.4551 C 933.241 51.741 931.474 63.0434 929.412 64.9473 C 929.145 65.1109 928.806 65.2142 928.418 65.2754 C 923.14 58.9098 917.14 52.5867 910.365 46.3086 C 882.022 27.6842 840.061 18.7594 797.609 20.7793 C 788.64 10.8141 675.549 5.04383 649.816 18.668 C 623.053 32.8383 614.441 30.6378 614.441 16.0215 C 614.441 6.18261 606.816 0.288728 597.334 0.00976562 Z M 317.359 21.1699 C 397.315 21.7787 452.881 71.2887 421.305 194.182 C 414.083 195.788 390.626 195.93 384.445 187.711 C 376.596 178.04 360.672 169.099 347.158 163.727 C 328.727 158.797 330.188 158.472 322.518 143.584 C 316.326 131.567 316.248 128.319 312.096 129.943 C 307.317 131.813 313.22 151.635 321.258 157.932 C 322.948 159.255 325.914 165.409 327.85 171.607 C 331.61 183.649 360.641 198.811 371.764 194.543 C 375.341 193.17 382.598 193.921 384.086 194.781 C 392.338 198.939 410.355 204.217 419.012 202.693 C 418.863 203.22 418.734 203.732 418.582 204.262 C 404.276 244.728 397.685 250.976 357.949 294.936 C 337.184 317.908 331.492 324.405 298.732 322.537 C 278.132 319.856 264.309 320.047 254.648 308.281 C 237.985 287.988 240.197 267.064 260.654 251.461 C 275.357 240.247 278.589 239.446 285.926 245.199 C 300.134 256.341 301.766 260.766 298.713 279.873 C 295.981 296.968 291.627 298.945 301.701 300.125 C 312.337 301.371 319.78 291.362 322.658 286.768 C 327.899 278.401 329.627 266.724 304.064 229.445 C 300.669 224.493 286.929 219.749 287.068 216.865 C 288.487 210.365 299.316 211.762 305.053 209.449 C 311.4 206.89 317.982 194.604 295.877 193.115 C 283.483 193.115 245.149 223.181 236.467 239.971 C 230.528 251.455 225.984 254.203 212.93 254.203 C 198.373 254.203 196.522 252.643 194.465 238.629 C 191.747 220.115 195.79 212.843 218.582 195.236 C 229.284 186.969 236.003 179.89 245.975 181.041 C 246.626 181.116 251.537 183.135 253.463 182.225 C 281.963 171.358 276.035 168.865 262.23 159.967 C 251.401 152.986 237.835 154.192 234.758 154.014 C 230.493 153.767 224.073 149.535 207.113 159.518 C 196.089 166.939 221.61 170.116 207.527 177.186 C 204.403 178.754 197.224 182.161 192.398 188.242 C 186.172 196.089 173.764 242.496 169.375 229.059 C 167.432 222.428 167.982 212.632 171.592 198.969 C 178.926 176.182 214.414 140.527 246.447 128.896 C 256.836 125.125 266.318 112.968 270.828 107.211 C 282.444 92.3835 277.799 85.2424 270.209 78.0469 C 255.309 63.9215 239.088 53.8738 224.686 61.582 C 209.878 69.5067 215.434 77.055 236.045 78.7969 C 263.517 81.3339 249.677 98.9012 229.818 110.096 C 215.281 117.389 162.583 169.614 149.133 212.836 C 144.065 229.124 144.479 233.988 152.236 249.193 C 161.478 267.31 178.457 278.271 197.273 278.271 C 204.121 278.271 214.487 285.958 225.654 299.318 C 235.331 310.894 251.361 324.577 261.277 329.723 C 270.548 334.534 281.984 336.708 287.648 340.77 C 287.446 345.884 281.788 347.98 276.689 350.5 C 272.859 352.393 255.235 358.238 236.859 367.668 C 227.671 372.383 214.748 373.109 207.146 375.812 C 199.544 378.516 193.723 379.069 191.307 379.273 C 184.377 379.86 174.108 385.184 172.682 396.402 C 172.679 396.42 172.676 396.437 172.674 396.455 C 168.983 394.796 166.302 394.054 164.199 393.398 C 160.039 392.101 155.879 391.969 151.719 389.162 C 150.492 388.051 149.368 387.101 148.312 386.26 C 148.327 379.607 149.418 372.225 152.531 370.756 C 156.898 368.696 163.335 357.196 164.574 352.158 C 170.241 329.127 168.782 326.952 165.338 316.797 C 161.937 306.768 157.15 316.116 151.338 320.426 C 139.692 334.213 133.856 330.115 132.363 307.529 C 131.434 301.118 127.966 294.983 124.656 293.893 C 114.828 290.656 117.736 316.438 130.766 348.068 C 134.037 356.011 141.302 359.692 142.898 366.867 C 144.12 372.36 141.84 376.806 141.553 381.938 C 133.96 378.548 131.14 383.08 118.646 374.096 C 80.4479 346.626 66.266 303.021 94.7559 252.568 C 117.883 211.612 120.471 232.419 122.473 177.266 C 123.193 157.396 117.861 140.488 89.6523 203.26 C 86.2322 210.87 72.8815 230.909 69.1172 227.145 C 63.8078 207.29 89.6824 179.174 87.2344 169.418 C 85.295 154.436 81.6219 153.077 104.299 123.031 C 113.415 110.952 126.743 93.6305 130.035 93.4688 C 132.354 93.3546 141.669 99.9734 151.053 109.818 C 155.27 114.242 159.156 119.108 163.66 117.596 C 171.663 114.907 170.267 102.902 170.705 100.305 C 171.631 94.8205 175.282 91.1505 177.025 88.7988 C 179.455 85.522 179.419 82.8919 181.465 81.6211 C 183.434 80.3981 187.025 78.5038 187.645 77.3281 C 189.911 73.0275 187.407 72.7337 178.496 76.2188 C 169.73 79.6475 164.333 79.5345 161.248 80.4473 C 158.534 81.2502 148.515 75.541 150.574 71.4102 C 168.698 52.4314 196.446 49.7741 221.391 39.4688 C 254.596 27.4618 287.66 20.9438 317.359 21.1699 Z M 826.879 339.555 C 871.027 339.104 920.865 355.841 939.475 383.275 C 966.174 422.637 976.761 441.87 980.295 522.926 C 980.295 569.663 951.121 633.053 917.574 646.588 C 907.651 650.592 897.839 655.29 887.756 658.975 C 882.727 650.153 877.464 641.911 872.092 634.27 C 847.814 599.734 812.225 570.305 771.023 544.412 C 774.104 540.523 777.781 536.834 782.072 533.395 C 815.013 540.343 845.194 468.753 894.779 530.455 C 901.275 540.272 897.005 554.412 888.838 564.682 C 884.767 569.8 876.564 577.886 883.35 588.135 C 888.709 596.23 892.807 597.357 907.439 589.088 C 927.739 578.533 939.772 546.418 915.346 521.732 C 906.061 511.595 898.465 501.545 898.465 499.398 C 898.465 497.251 905.505 494.816 914.109 493.986 C 936.921 491.787 937.452 480.114 913.732 471.086 C 891.222 462.518 864.831 462.523 846.166 478.229 C 829.931 491.889 812.886 493.635 808.457 482.092 C 805.169 473.524 826.762 454.421 837.975 451.562 C 870.644 443.233 871.741 438.798 848.943 430.053 C 828.12 420.043 830.429 420.905 842.986 411.484 C 845.956 409.256 861.882 419.388 863.656 414.203 C 870.26 394.91 889.279 398.417 873.838 386.906 C 866.625 381.529 859.311 389.172 856.787 387.982 C 854.265 386.792 855.336 378.451 851.162 372.377 C 847.51 367.064 826.1 368.12 821.881 370.773 C 818.173 373.104 818.062 376.213 817.711 379.961 C 817.126 386.211 819.156 385.241 822.258 385.332 C 826.047 385.442 828.712 382.603 831.193 378.047 C 836.623 377.136 837.444 377.277 840.076 379.182 C 842.066 380.622 844.449 385.273 843.328 388.799 C 842.441 391.589 840.259 398.233 837.223 402.869 C 829.992 413.909 825.02 418.502 805.73 421.037 C 786.204 423.616 758.242 444.376 748.721 462.166 C 744.605 469.857 744.231 475.407 758.279 488.656 C 766.128 496.059 778.101 498.582 779.867 503.715 C 781.635 508.848 775.629 515.374 771.836 518.627 C 766.459 525.087 761.84 530.947 757.902 536.389 C 727.088 518.062 693.616 501.52 659.654 486.178 C 657.2 485.069 654.74 484.024 652.277 483.01 C 656.948 456.377 668.831 431.292 686.932 409.549 C 694.812 418.063 693.709 421.07 690.461 430.391 C 686.622 441.407 711.213 448.062 731.279 437.742 C 736.33 435.144 737.379 431.619 740.516 424.996 C 747.069 411.157 741.433 403.727 727.561 397.85 C 722.001 395.494 714.613 390.886 709.561 386.855 C 731.711 368.186 759.483 353.371 791.943 344.119 C 802.603 341.155 814.517 339.681 826.879 339.555 Z M 65.4531 459.184 C 57.6652 459.194 32.1555 465.348 14.6191 459.908 C 7.34577 457.652 2.06322 471.971 5.74609 481.568 C 7.05602 484.749 10.7426 487.526 14.832 488.789 C 40.8362 491.264 72.2861 464.065 67.6309 459.607 C 67.3165 459.306 66.5657 459.182 65.4531 459.184 Z M 650.418 498.049 C 682.614 509.831 715.134 526.482 749.941 548.414 C 731.2 580.093 740.272 598.995 764.021 649.51 C 763.04 650.371 750.424 652.161 735.984 653.488 C 715.972 654.241 702.437 654.173 691.799 654.857 C 679.527 636.406 670.893 619.161 664.82 603.543 C 672.02 600.738 678.654 597.419 684.059 592.969 C 701.672 578.465 695.534 552.18 671.885 554.213 C 665.354 554.774 658.812 555.158 652.32 556.27 C 649.686 537.317 650.773 524.414 650.43 519.613 C 649.905 512.364 649.908 505.164 650.418 498.049 Z M 763.357 557.074 C 765.016 558.164 766.66 559.224 768.33 560.338 C 806.493 587.514 842.35 621.576 869.047 664.148 C 865.798 664.707 862.507 665.091 859.15 665.207 C 836.885 665.977 836.01 669.271 804.775 652.395 C 766.086 625.253 750.025 587.404 763.357 557.074 Z M 876.701 677.018 C 890.538 701.705 901.315 729.089 907.828 759.465 C 909.492 768.337 916.029 781.612 883.145 757.992 C 860.591 741.793 842.062 725.429 811.584 719.959 C 781.853 714.623 737.689 711.63 720.627 692.242 C 716.354 687.387 712.357 682.591 708.588 677.854 C 770.608 678.647 796.417 700.926 824.543 686.955 C 843.642 684.232 861 680.996 876.701 677.018 Z"/>
</svg>
