<?xml version="1.0" encoding="UTF-8"?>
<svg version="1.0" xmlns="http://www.w3.org/2000/svg" xmlns:xlink="http://www.w3.org/1999/xlink" x="0px" y="0px" viewBox="0 0 1000 1000">
<path d="M 366.338 0.00390625 C 365.588 -0.0110199 364.863 0.0124936 364.164 0.0742188 L 364.174 0.0625 C 357.464 0.655677 353.201 4.79457 353.201 12.875 C 353.201 22.7756 327.484 37.3234 319.117 32.1523 C 310.482 26.814 249.981 -4.39788 203.984 18.4277 C 167.594 36.4862 108.103 61.8009 70.1738 99.0332 C 72.1509 93.8958 64.2089 42.2729 67.8867 36.3223 C 69.7475 33.3198 69.7762 24.0905 67.9609 15.8184 C 64.8345 1.58464 63.2983 0.785156 39.418 0.785156 C 16.1869 0.785156 14.3057 1.68393 15.6582 12.1543 C 16.4655 18.4089 15.1211 26.7435 12.6758 30.6738 C 9.57083 35.6654 12.1845 41.2216 21.3418 49.0977 C 28.5504 55.2983 36.8638 61.1843 39.8008 62.1738 C 46.6555 64.4809 54.5629 109.734 44.541 119.932 C 16.3368 148.632 -10.9815 198.068 12.209 244.705 C 21.6026 263.614 33.2987 270.732 21.6309 277.49 C 3.82633 289.431 49.4906 434.482 98.5156 463.158 C 127.85 480.317 153.963 488.254 150.744 491.473 C 148.917 493.301 140.86 492.444 132.525 491.82 C 107.515 489.951 47.8858 505.984 29.8555 530.729 C 22.6155 540.664 12.3468 555.472 9.95312 566.086 C 6.01072 583.565 7.12131 587.144 21.7188 604.17 C 46.1854 632.705 57.7752 628.532 45.2871 595.686 C 38.2262 577.114 43.1613 564.439 57.4492 564.439 C 78.2393 564.439 98.1743 551.359 103.791 534.045 C 110.763 512.555 133.116 510.94 151.238 510.102 C 161.664 509.62 174.454 511.095 187.545 515.736 C 192.864 517.611 197.287 519.64 201.223 521.758 C 201.223 524.457 201.935 527.404 200.717 528.26 C 124.252 581.979 85.0014 593.389 86.4609 691.07 L 87.1582 737.725 C 83.4632 742.483 82.5155 751.74 70.1523 742.314 C 38.1011 707.142 64.5867 708.262 63.6348 658.623 C 63.1039 630.942 49.3691 628.033 40.6309 647.035 C 19.5857 692.801 4.73695e-15 650.307 0 683.994 C 0 742.429 21.0537 732.819 24.3516 760.576 C 30.7394 814.34 -18.8411 818.568 14.9238 868.756 C 23.931 882.144 42.9315 943.79 24.3301 948.654 C 18.6457 950.14 13.1734 957.336 11.3262 965.744 C 5.60669 991.786 18.7243 998.509 38.7871 979.818 C 47.905 971.324 51.2694 970.437 54.5195 975.695 C 57.9285 981.21 60.1336 981.154 67.1016 975.371 C 76.6435 967.452 74.4334 939.137 62.4395 915.545 C 51.2356 893.508 48.7795 850.6 55.0195 850.6 C 58.1411 850.6 83.1275 872.167 91.0078 895.656 C 95.2817 908.396 96.679 924.083 102.32 928.471 C 106.939 932.063 109.322 938.165 111.264 947.82 C 113.457 958.716 118.923 967.214 125.686 970.223 C 131.677 972.889 146.247 979 149.148 985.369 C 153.517 994.958 168.061 996.802 178.531 997.436 C 326.478 1006.39 323.463 989.425 355.018 978.436 C 387.819 967.012 412.139 950.267 388.428 937.033 C 376.598 930.431 360.485 951.326 348.625 960.373 C 327.834 976.23 307.963 971.311 305.623 954.867 C 303.399 939.243 253.046 938.862 230.559 950.637 C 211.604 960.561 189.736 973.02 157.463 964.746 C 132.813 958.426 125.701 946.476 142.297 941.107 C 150.091 938.586 159.347 940.286 167.414 940.842 C 194.174 942.677 214.221 929.284 225.943 905.4 C 234.471 890.14 232.614 870.388 222.602 856.271 C 215.093 847.269 204.27 841.197 192.918 838.461 C 176.763 835.102 159.303 835.827 144.281 843.146 C 133.329 847.052 126.557 858.52 126.48 869.863 C 125.406 885.993 139.332 900.38 154.904 902.324 C 162.208 902.838 170.518 898.477 172.654 891.123 C 169.828 886.775 161.359 890.762 157.584 886.34 C 154.006 882.851 154.377 877.053 152.271 872.676 C 151.964 871.783 151.742 871.39 151.574 871.137 C 151.876 871.471 152.527 871.879 153.895 871.354 C 161.195 867.523 169.943 868.605 177.859 869.406 C 184.035 870.941 191.018 871.893 195.766 876.498 C 199.918 879.532 197.27 885.607 196.68 889.91 C 192.278 905.671 180.018 921.324 163.521 923.766 C 152.696 925.368 142.388 924.49 132.635 926.541 C 116.825 929.865 122.237 907.692 105.666 882.676 C 88.6368 856.966 75.7348 852.956 90.5723 852.449 C 130.463 851.086 118.846 831.722 96.0273 812.381 C 80.742 799.425 63.632 804.006 65.0098 787.504 C 67.0514 763.026 101.904 761.283 114.512 782.625 C 119.317 790.76 131.576 804.729 141.756 813.668 C 156.641 826.737 161.714 829.122 176.031 827.307 C 216.647 829.37 247.83 827.483 290.336 787.336 C 315.075 763.963 313.296 745.996 316.283 732.736 C 320.108 715.757 325.032 695.935 322.93 691.154 L 322.93 691.143 C 317.277 678.295 313.47 683.066 308.941 708.688 C 303.559 739.141 295.164 743.715 288.486 719.842 C 284.237 704.646 282.301 702.543 275.818 706.104 C 271.61 708.427 265.675 722.393 262.646 737.172 C 257.771 760.963 254.998 762.588 243.213 767.709 C 235.103 771.231 232.108 765.401 220.561 770.197 C 215.787 772.179 215.525 780.366 216.293 782.119 C 210.18 789.43 197.648 788.031 189.926 783.633 C 188.375 778.941 191.259 772.851 198.662 766.146 C 211.011 754.97 214.921 719.553 205.824 701.273 C 200.465 690.504 201.164 705.931 188.254 709.482 C 187.181 709.778 156.473 681.072 153.223 691.924 C 148.458 707.831 148.641 713.078 154.195 719.023 C 159.498 724.699 163.222 725.107 170.348 720.779 C 177.914 716.184 182.635 716.432 189.373 727.088 C 196.809 738.847 200.579 754.644 168.172 764.85 C 155.674 768.786 125.645 745.753 118.621 726.848 C 115.197 717.634 109.433 707.091 108.479 702.475 C 98.8991 656.135 125.091 593.058 176.488 576.08 C 183.951 573.615 185.129 598.046 178.184 614.562 C 168.201 638.305 177.458 671.286 197.268 682.549 C 217.244 693.906 237.31 685.226 234.873 666.289 C 233.343 654.397 231.167 653.037 222.049 658.309 C 215.949 661.838 207.094 661.896 202.148 658.453 C 194.99 653.454 195.674 651.554 205.633 648.814 C 223.71 643.842 225.147 616.478 208.121 601.475 C 196.007 590.8 195.634 588.625 202.664 569.387 C 215.204 560.318 220.589 551.226 222.445 541.611 C 223.562 543.66 224.536 545.692 225.295 547.682 C 226.202 550.058 229.177 571.659 238.129 592.508 C 257.164 636.837 283.53 660.179 326.127 679.34 C 350.296 690.211 351.071 688.324 340.057 714.686 C 330.701 737.077 328.38 785.31 336.281 793.211 C 339.296 796.226 351.346 800.765 363.021 803.463 C 374.348 806.08 382.019 805.292 392.684 796.457 C 413.536 779.183 415.722 770.31 395.627 784.619 C 378.829 796.58 379.023 795.229 360.906 786.975 C 342.799 778.724 345.109 771.657 369.705 759.982 C 395.912 747.544 401.317 729.842 381.242 722.209 C 374.099 719.493 366.18 711.778 367.961 698.377 C 414.425 704.102 455.424 694.971 483.457 662.971 C 498.332 645.99 513.3 631.752 519.883 628.684 C 554.841 612.385 588.182 660.163 588.543 653.525 C 588.857 647.702 582.066 593.5 537.574 600.766 C 522.175 603.28 528.041 592.489 538.98 560.984 C 566.098 482.885 542.304 413.384 502.084 365.27 C 477.81 337.347 471.643 309.546 498.322 318.748 C 511.021 323.129 522.22 323.108 531.047 319.336 C 544.478 313.596 553.761 346.702 559.074 328.506 C 560.16 324.784 544.16 290.856 532.982 287.656 C 527.009 285.947 513.417 281.373 497.492 281.443 C 480.246 281.513 459.24 290.189 459.24 300.889 C 459.24 309.076 456.483 309.186 433.93 301.934 C 424.219 298.81 406.034 295.543 393.523 294.664 C 381.014 293.785 369.946 292.924 368.91 292.752 C 467.945 254.698 564.363 235.649 599.588 138.176 L 600.332 138.787 L 600.91 134.473 C 604.112 125.013 606.739 114.8 608.77 103.814 C 616.319 91.8325 626.486 81.1215 631.533 79.8984 C 647.815 75.9546 642.476 55.2646 622.867 46.332 C 606.878 39.0481 606.303 39.2921 602.088 54.9258 C 599.703 63.7674 596.364 77.8614 594.674 86.2559 C 591.686 101.089 591.465 100.834 586.369 76.7266 C 583.486 63.0843 577.055 43.3816 572.092 32.9434 C 567.393 23.0605 564.155 18.0581 559.58 15.5176 C 556.834 13.9919 553.606 13.3537 549.305 13.0781 C 541.732 12.592 534.166 10.1384 532.49 7.63477 C 523.361 -6.00799 463.159 2.40571 455.898 18.3418 C 451.295 28.4494 472.398 34.3533 492.387 28.5449 C 513.532 22.3998 520.098 23.7362 515.738 33.3047 C 511.22 43.224 518.529 51.2891 542.551 62.8809 C 559.955 71.2797 565.665 77.1611 571.742 92.9512 C 576.88 106.3 573.061 116.233 576.43 119.018 L 582.197 123.801 C 572.084 162.796 544.831 218.035 506.689 212.795 C 491.627 210.725 472.214 218.824 463.736 218.996 C 453.203 219.209 403.399 199.154 422.586 183.436 C 427.128 179.714 425.52 170.007 432.584 170.131 C 444.515 170.34 454.264 176.24 458.1 174.434 C 464.001 171.654 463.811 169.313 456.838 159.184 C 445.881 143.27 453.492 139.67 475.406 150.398 C 493.843 159.423 498.973 159.057 494.25 149.076 C 492.492 145.363 479.2 138.568 464.721 133.957 C 441.506 126.563 435.787 126.685 415.723 133.404 C 391.591 141.486 393.074 179.684 395.832 190.814 C 400.887 211.209 422.223 228.178 447.799 229.668 C 475.809 231.299 477.275 231.377 422.598 253.453 C 401.346 262.034 360.213 275.413 339.299 279.736 C 327.837 282.105 309.458 296.822 277.334 328.879 C 240.87 365.267 205.483 432.822 197.834 474.105 C 197.08 477.915 198.191 487.918 199.336 498.311 C 197.422 497.736 195.705 497.115 194.121 495.883 C 186.396 490.897 178.991 485.676 172.367 480.547 C 159.121 470.289 149.895 459.88 145.543 453.795 C 114.605 410.528 143.958 379.306 153.234 407.549 C 158.103 422.369 166.412 428.5 168.93 419.135 C 169.716 416.202 175.847 409.692 182.559 404.678 C 192.863 396.978 194.642 392.725 194.012 377.252 C 193.606 367.176 191.272 359.526 188.832 360.258 C 186.392 360.99 186.007 352.162 187.043 348.312 C 188.078 344.463 183.023 338.399 175.816 334.828 C 166.816 330.369 205.317 335.875 207.412 329.877 C 212.856 314.298 221.21 310.396 236.652 316.248 C 248.883 320.883 252.098 320.165 254.211 312.305 C 257.984 298.27 237.89 296.007 223.312 287.332 C 200.609 273.821 110.142 302.318 113.539 329.432 C 112.313 333.85 108.908 341.6 105.98 346.654 C 102.733 352.258 100.901 363.015 107.494 369.92 C 126.567 389.9 106.607 418.352 123.562 456.668 C 68.3109 411.009 42.3155 326.351 62.8613 264.533 C 70.3573 241.98 97.8023 223.762 115.293 195.838 C 119.928 191.991 126.653 193.74 139.703 202.195 C 159.874 215.264 162.674 224.289 147.996 228.947 C 135.381 232.951 129.112 251.488 138.344 257.502 C 161.342 272.483 177.446 267.289 191.357 240.389 C 198.157 227.239 198.106 224.448 190.766 213.252 C 186.269 206.39 176.768 198.564 169.662 195.861 C 159.125 191.855 147.185 184.269 152.127 178.314 C 167.731 165.71 191.757 160.591 223.432 162.402 C 237.137 163.186 261.844 186.882 236.039 198.867 C 229.755 201.78 225.44 206.892 225.738 211.088 C 226.151 216.975 229.15 217.527 242.131 214.068 C 253.735 210.978 259.63 211.571 264.027 216.27 C 269.111 221.708 268.224 224.556 258.295 234.645 C 245.59 247.554 247.746 254.683 263.104 250.592 C 269.037 249.013 277.039 240.529 284.074 228.383 C 296.053 207.692 294.881 200.514 276.238 180.574 C 268.835 172.655 274.282 162.205 280.949 168.148 C 283.182 170.137 289.763 171.829 295.576 171.91 C 311.298 172.119 321.178 174.638 330.5 180.479 C 360.209 199.092 346.594 264.304 305.947 263.199 C 291.036 261.66 300.708 233.373 314.986 231.314 C 322.964 230.166 325.939 227.68 325.586 222.457 C 324.939 212.898 313.031 211.955 302.486 220.619 C 291.686 229.497 283.408 260.154 299.049 270.867 C 314.356 281.352 327.639 278.483 344.164 258.225 C 359.997 238.813 363.747 239.496 361.615 210.32 C 359.771 185.11 352.245 166.968 333.637 155.264 C 326.999 151.088 322.745 144.596 317.941 141.588 C 307.347 134.952 292.954 136.453 279.303 136.516 C 263.318 136.585 245.409 134.064 233.719 135.037 C 232.5 130.459 236.782 127.695 239.031 127.094 C 241.285 126.496 246.703 124.207 251.842 117.768 C 258.754 109.114 260.323 102.841 257.887 93.6953 C 255.065 83.1126 252.234 78.5599 248.982 79.7676 C 247.506 80.3324 245.936 82.0812 244.246 84.9941 C 241.635 89.5007 235.861 92.4505 228.936 92.8184 C 222.82 93.1414 214.018 93.6563 209.381 93.9609 C 198.475 94.6726 182.362 117.663 187.652 124.967 C 190.747 129.23 193.482 128.93 200.994 123.525 C 212.216 115.452 213.347 115.862 218.84 130.051 C 179.987 143.665 157.343 140.453 121.83 159.508 C 107.574 167.158 89.1545 198.429 79.791 209.334 C 61.1232 231.076 45.5898 230.485 45.5898 206.594 C 45.5898 189.583 74.3215 170.771 86.4004 175.406 C 90.1016 176.825 93.0332 174.523 93.0332 170.18 C 93.0332 165.9 97.3642 161.011 102.674 159.326 C 107.982 157.642 114.991 153.059 118.248 149.135 C 123.078 143.315 121.108 141.204 107.516 137.682 C 93.2849 133.994 90.5614 136.31 80.5586 145.266 L 53.916 169.109 C 70.7022 123.268 81.1714 113.54 96.3398 100.99 C 113.03 87.1807 173.947 51.5256 186.02 54.709 C 211.498 61.4285 234.165 39.4238 292.127 83.1309 C 303.44 91.6613 365.851 106.5 368.369 86.7012 C 368.781 83.4597 365.734 78.31 362.732 75.127 C 345.725 57.089 373.341 47.002 388.236 53.459 C 394.278 56.0779 399.56 70.577 395.734 80.5469 C 393.986 85.1086 394.507 89.1125 396.889 89.4297 C 399.271 89.746 407.803 92.51 415.889 91.7012 C 435.657 89.7197 455.551 90.1765 467.1 72.291 C 470.289 67.3504 456.811 68.5712 456.811 62.3164 C 456.811 54.6515 451.757 48.4732 441.332 43.3633 C 432.824 39.1934 418.657 34.0272 409.832 24.9395 C 394.379 9.02631 377.591 0.227798 366.338 0.00390625 Z M 833.277 7.62305 C 744.991 7.90179 727.586 15.1246 689.697 51.6445 C 673.616 67.1455 654.715 94.4671 655.422 128.789 C 657.485 142.32 659.839 150.666 661.887 161.959 C 664.449 176.083 672.77 188.365 681.092 200.322 C 687.756 209.606 697.716 217.234 709.262 219.021 C 728.713 222.032 747.52 212.749 761.998 200.262 C 771.293 192.246 775.227 178.27 769.293 167.512 C 766.102 161.728 756.303 150.609 749.42 150.469 C 744 150.359 731.647 158.243 740.197 166.082 C 747.638 172.904 751.428 165.162 755.088 169.242 C 758.797 173.377 757.234 181.143 752.672 184.338 C 744.257 190.232 734.83 194.918 724.887 197.785 C 717.879 199.806 709.798 198.862 704.227 194.133 C 696.656 187.705 689.039 185.099 681.357 164.111 C 676.066 149.657 675.899 138.041 674.705 133.008 C 666.032 96.4338 698.307 80.0166 716.932 62.793 C 729.582 51.0935 759.396 34.0382 775.375 32.332 C 782.329 31.5902 797.618 29.5528 809.361 27.8125 C 825.882 25.3655 838.626 27.743 865.703 38.3164 C 894.503 49.5654 902.58 55.3328 911.322 70.8867 C 917.164 81.2815 921.947 94.1325 921.947 99.4531 C 921.947 120.409 941.817 124.482 955.91 106.412 C 961.415 99.3563 962.067 99.4562 962.221 107.361 C 962.313 112.226 964.678 116.207 967.484 116.207 C 981.374 142.973 973.849 182.341 940.672 223.637 C 937.02 228.183 934.15 232.669 931.705 237.182 C 906.337 233.987 876.373 220.74 903.344 210.789 C 912.241 207.507 917.243 193.933 921.863 174.674 C 928.319 147.767 928.102 145.45 917.74 131.434 C 911.717 123.287 906.779 113.22 906.779 109.068 C 906.779 98.961 877.612 77.953 872.914 77.8574 C 858.984 77.5621 882.265 92.6239 887.816 104.957 C 898.23 128.092 917.731 139.7 891.625 141.48 C 879.867 142.283 878.062 155.994 887.828 172.535 C 892.884 181.096 901.848 187.221 891.396 191.404 C 889.023 192.355 887.029 197.235 885.088 200.85 C 880.951 208.557 875.464 204.969 858.576 196.066 C 833.278 182.731 836.606 153.873 840.812 133.152 C 845.759 108.793 866.251 117.358 855.127 89.6465 C 851.231 79.9401 841.267 79.511 832.232 77.7363 C 819.115 75.1593 815.803 76.1648 815.803 82.7246 C 815.803 93.2721 805.725 88.6765 793.557 77.6641 C 774.329 60.2638 755.062 54.8409 727.77 79.4668 C 713.778 92.0918 727.629 96.0109 751.303 86.125 C 761.344 81.9951 778.484 89.0713 788.846 94.418 C 803.187 101.817 806.957 144.486 806.957 155.879 C 806.957 161.742 811.362 171.259 816.729 177.018 C 822.094 182.777 829.341 193.822 833.205 201.391 C 851.888 237.988 879.57 241.518 918.209 255.438 C 919.907 256.049 921.849 256.54 923.906 256.951 C 921.18 267.048 919.704 277.751 918.041 289.904 C 910.406 345.724 923.184 380.303 973.602 440.576 C 980.894 449.294 988.884 450.183 997.553 434.422 C 999.86 430.225 1006.33 399.126 980.68 409.244 C 973.053 412.253 954.926 373.675 960.297 366.496 C 991.436 324.871 1008.05 300.257 995.631 289.988 C 987.469 283.238 952.238 292.402 948.797 301.369 C 943.05 316.345 935.854 308.402 935.912 289.328 C 935.974 278.854 937.099 269.1 942.041 258.08 C 955.863 257.471 970.302 253.871 976.738 247.24 C 986.765 236.909 982.482 214.571 982.615 204.527 C 982.855 187.955 987.785 176.657 989.982 160.963 C 993.102 138.682 992.179 128.826 985.764 115.967 C 981.245 106.909 977.543 95.7476 977.543 91.1719 C 977.543 86.3655 960.476 71.5886 937.113 56.1758 C 914.874 41.5044 896.674 27.3965 896.674 24.832 C 896.674 18.8321 895.874 10.3035 928.232 26.7676 C 979.717 52.9644 992.167 51.385 997.494 38.2695 C 1008.5 11.1591 983.364 9.08997 875.727 7.875 C 859.954 7.71255 845.89 7.59538 833.277 7.63477 L 833.277 7.62305 Z M 769.41 250.18 C 765.174 250.263 766.034 252.946 769.582 261.182 C 777.004 278.41 765.75 287.712 748.717 278.416 C 735.264 271.074 735.126 271.113 731.893 283.428 C 729.722 291.693 731.89 301.331 738.371 312.283 C 747.031 326.917 746.974 329.168 737.951 332.713 C 732.373 334.904 722.913 336.804 716.92 336.943 C 709.831 337.106 702.673 341.705 696.441 350.092 C 690.088 358.641 688.676 367.514 691.117 372.578 C 693.022 376.515 697.25 378.156 703.279 375.559 C 715.331 370.367 718.433 377.985 709.061 389.752 C 699.207 402.122 704.742 406.93 732.002 409.725 C 747.484 411.313 756.818 415.544 761.1 422.91 C 765.98 431.305 776.877 437.013 791.648 437.678 C 795.597 441.685 803.37 448.005 803.822 452.752 C 804.179 456.482 809.711 465.114 817.559 471.932 C 825.405 478.75 845.703 489.929 842.723 490.043 C 816.016 491.429 793.199 510.147 771.676 515.869 C 764.756 517.709 753.473 523.772 744.623 517.396 C 720.6 500.061 721.859 475.055 736.619 475.838 C 749.145 476.501 749.051 467.516 745.199 464.648 C 736.299 458.044 722.689 469.29 714.758 482.639 C 698.593 509.843 716.914 532.788 750.775 553.125 C 760.197 558.783 781.781 564.625 788.428 547.453 C 791.083 540.612 789.809 531.826 788.822 527.707 C 802.856 519.749 843.75 499.811 868.178 510.594 C 889.783 520.13 904.166 523.841 892.154 526.818 C 889.21 527.549 882.249 530.997 876.699 534.486 C 866.947 540.619 867.032 541.314 878.887 555.373 C 892.96 572.063 900.111 570.564 906.492 549.557 C 911.519 533.005 913.143 531.331 925.229 541.131 C 932.769 547.246 935.29 556.865 939.807 564.375 C 967.072 609.714 950.964 593.184 927.643 586.934 C 890.863 577.077 876.744 592.928 840.26 586.309 C 834.18 585.206 826.426 583.201 822.941 586.801 C 817.107 592.826 808.358 589.657 801.346 590.598 C 781.007 593.305 748.039 604.325 737.998 615.236 C 731.415 622.389 729.23 627.913 730.139 635.078 C 731.011 641.972 724.488 654.674 713.553 678.969 C 703.789 700.661 704.415 716.553 710.729 728.051 C 714.392 734.723 695.306 749.78 707.939 749.623 C 716.893 749.512 735.009 741.743 726.869 717.174 C 725.699 713.643 729.107 700.303 731.416 698.852 C 758.831 681.616 742.568 675.705 754.191 668.463 C 766.604 660.729 777.901 656.547 779.314 645.258 C 781.024 631.596 783.184 626.432 792.451 617.375 C 803.195 606.875 827.334 612.841 835.92 615.535 C 842.403 617.568 834.506 635.456 826.258 637.422 C 822.037 638.429 815.711 633.849 812.592 638.227 C 807.22 645.757 807.997 659.116 832.291 665.279 C 846.416 668.862 858.914 667.748 870.221 664.281 C 883.468 660.221 895.513 641.864 899.062 630.547 C 901.186 623.779 907.941 615.398 916.945 616.209 C 958.592 619.96 975.54 636.267 958.049 743.324 C 951.82 781.45 897.056 790.167 881.016 795.939 C 861.222 802.901 836.226 786.126 830.262 783.357 C 812.933 775.315 799.819 756.491 802.248 743.145 C 804.976 728.152 834.99 728.755 841.848 745.945 C 844.559 752.745 855.214 760.719 865.523 763.66 C 889.723 770.564 909.801 742.405 896.422 716.199 C 876.819 677.802 820.558 683.3 803.281 694.111 C 782.628 707.035 769.923 751.569 780.412 774.248 C 788.257 791.212 787.452 793.579 774.92 790.496 C 752.076 784.875 761.342 802.141 787.479 812.814 C 799.23 817.613 814.991 816.17 817.127 817.045 C 865.187 836.729 884.984 842.933 899.174 817.369 C 912.44 793.468 926.068 813.25 949.398 795.568 C 949.681 795.569 946.212 815.628 945.504 820.914 C 943.548 835.693 928.291 912.8 900.713 925.074 C 878.911 940.736 847.612 947.886 820.852 959.988 C 808.991 965.352 792.602 968.954 785.459 970.287 C 751.847 976.562 742.162 962.884 745.186 946.299 C 747.919 931.308 752.046 929.852 759.104 921.242 C 772.784 904.552 780.177 902.45 786.518 905.137 C 792.859 907.824 794.141 911.328 791.828 919.57 C 787.646 934.477 797.047 939.949 813.799 932.369 C 823.419 928.013 829.22 919.488 832.486 904.885 C 837.771 881.264 859.143 866.895 875.654 875.85 C 885.69 881.292 908.176 874.16 909.461 865.129 C 910.905 854.978 883.824 844.895 852.004 843.725 C 834.349 843.076 819.534 845.172 819.074 848.398 C 818.613 851.625 810.738 857.66 801.562 861.812 C 781.156 871.047 758.601 891.948 745.979 913.309 C 731.128 931.086 728.632 945.085 729.984 964.051 C 727.248 971.558 706.912 966.427 704.012 958.869 C 700.379 949.404 696.046 952.521 689.062 947.656 C 682.69 943.217 664.063 947.772 665.242 942.621 C 684.321 923.781 704.351 887.453 708.65 860.898 C 718.571 809.016 691.293 753.987 646.312 727.377 C 619.1 710.693 587.172 699.949 555.096 698.895 C 530.703 695.945 477.787 702.539 459.828 717.57 C 423.241 751.719 405.421 813.425 481.893 822.717 C 505.214 820.714 498.302 807.983 496.891 797.201 C 488.06 729.806 426.62 783.859 469.334 741.162 C 472.644 736.663 486.339 749.491 496.074 754.152 C 505.811 758.812 531.918 758.814 535.457 757.902 C 543.035 755.944 534.565 731.141 527.441 721.15 C 526.513 719.85 525.896 718.639 525.436 717.475 C 527.512 717.707 529.567 717.963 531.564 718.363 C 573.792 722.881 618.445 733.709 649.305 764.873 C 675.376 790.369 687.733 829.254 679.254 864.924 C 629.156 1006.84 615.776 903.436 528.33 928.367 C 520.037 930.346 505.53 941.83 490.967 946.287 C 476.403 950.745 458.504 954.153 452.377 958.738 C 446.25 963.323 433.49 977.358 421.465 982.053 C 371.687 1001.49 426.456 1005.51 450.609 992.293 C 472.354 980.396 513.119 993.126 517.779 992.389 C 527.767 990.821 532.161 980.741 528.836 967.029 C 526.831 958.763 514.04 955.769 531.863 947.572 C 568.92 930.531 587.84 958.129 606.412 956.754 C 621.499 955.638 615.212 963.902 606.855 975.828 C 588.391 1002.19 605.996 1006.54 642.465 984.637 C 655.966 976.526 661.857 975.765 677.846 980.033 C 706.7 987.736 736.434 991.24 745.039 991.535 C 826.295 994.324 886.501 960.848 920.48 943.426 C 928.433 943.426 926.84 955.236 926.936 979.156 C 926.997 991.979 929.446 996 938.375 997.893 C 969.772 1004.55 999.082 974.312 999.355 942.945 C 999.54 921.923 980.652 905.259 968 935.543 C 965.599 941.289 958.888 955.229 954.744 955.229 C 944.967 955.229 944.45 921.081 954.012 907.072 C 977.475 868.276 984.198 791.528 988.166 771.184 C 989.806 762.779 999.368 718.741 999.729 667.646 C 1000.01 627.425 996.531 623.534 992.529 616.125 C 990.144 611.709 996.876 601.648 981.34 572.15 C 976.969 563.85 971.116 558.588 969.406 550.037 C 966.912 537.569 968.908 531.875 979.49 521.289 C 994.758 506.021 997.126 488.254 983.854 488.492 C 970.247 488.736 955.784 511.849 959.635 527.191 C 962.246 537.597 961.353 539.531 955.057 536.998 C 950.704 535.247 946.674 532.102 943.832 529.582 C 938.77 525.093 929.559 520.469 923.305 520.52 C 913.609 520.589 896.416 500.976 903.15 504.031 C 907.997 506.343 918.671 505.882 926.875 502.998 C 938.082 499.059 942.949 494.33 942.895 483.865 C 942.821 469.669 934.024 459.941 916.301 458.543 C 893.208 456.722 894.129 471.913 899.846 484.971 C 912.536 513.952 833.927 474.6 819.191 444.469 C 817.84 441.705 816.76 438.356 815.814 434.83 C 818.262 433.588 819.945 431.922 820.297 429.699 C 821.069 424.829 819.632 415.963 817.102 409.99 C 810.198 393.676 824.372 395.446 833.553 412.045 C 839.249 422.343 843.688 425.138 850.006 422.416 C 861.746 417.359 868.619 388.845 861.869 373.178 C 856.672 361.115 857.763 359.583 881.639 345.596 C 895.536 337.455 908.629 327.44 910.746 323.338 C 916.255 312.667 908.803 306.577 894.93 310.408 C 888.38 312.218 880.336 312.695 877.059 311.465 C 868.92 308.41 874.648 290.724 885.256 286.154 C 902.585 278.689 894.601 270.663 869.896 270.711 C 836.968 270.76 833.85 272.38 825.406 293.605 C 820.076 307.005 816.483 310.575 810.684 308.268 C 804.883 305.961 804.489 301.143 809.072 288.486 C 814.699 272.947 814.272 271.086 803.111 262.672 C 796.5 257.688 785.066 252.546 777.693 251.242 C 774.506 250.679 772.089 250.286 770.338 250.197 L 770.326 250.197 C 769.998 250.181 769.693 250.174 769.41 250.18 Z M 781.684 298.551 C 784.046 298.501 786.034 299.393 786.756 301.07 C 787.855 303.623 785.623 307.063 781.791 308.713 C 777.962 310.364 773.926 309.62 772.826 307.066 C 771.726 304.514 773.958 301.073 777.789 299.424 C 778.747 299.011 779.716 298.752 780.65 298.629 C 781.001 298.583 781.346 298.558 781.684 298.551 Z M 359.27 310.836 C 360.478 310.827 361.688 310.841 362.9 310.887 L 362.9 310.877 C 399.255 311.844 439.135 329.189 458.469 353.758 C 512.688 422.655 535.485 460.371 517.945 541.348 C 508.271 586.015 501.036 580.873 504.473 537.814 C 507.19 503.769 498.258 499.212 481.604 515.221 C 469.165 527.176 468.06 556.552 470.535 572.246 C 472.13 582.365 478.45 604.899 481.494 606.883 C 484.539 608.867 484.799 611.87 484.799 620.656 C 484.799 634.118 479.342 641.384 457.266 657.191 C 437.229 671.539 425.516 674.17 408.137 676.672 C 393.473 678.784 378.129 681.525 371.264 674.51 C 368.176 668.544 387.914 659.671 388.707 654.639 C 390.465 643.466 411.394 626.314 427.521 628.084 C 478.297 633.657 482.771 616.208 434.9 607.328 C 406.143 601.994 383.511 616.215 379.4 625.234 C 371.876 641.749 355.08 657.834 354.006 669.785 C 338.776 658.746 337.119 660.899 325.295 653.369 C 318.288 648.906 320.073 643.963 312.652 635.846 C 279.58 599.67 314.129 513.167 326.473 508.238 C 326.122 524.192 333.495 531.308 335.521 547.404 C 339.249 576.988 346.938 592.789 355.148 587.715 C 357.613 586.192 359.631 578.49 359.631 570.611 C 359.631 557.22 370.042 547.086 376.828 553.871 C 378.491 555.534 379.846 564.482 379.846 573.748 C 379.846 594.113 384.308 594.962 397.607 577.127 C 403.132 569.718 410.868 560.394 414.807 556.418 C 425.31 545.814 423.531 521.668 411.008 504.729 C 395.882 484.27 396.982 481.762 421.549 480.451 C 455.386 478.646 459.563 477.175 470.57 463.182 C 482.833 447.591 483.819 438.965 473.346 438.965 C 464.147 438.965 463.947 436.687 471.988 423.811 C 480.364 410.4 469.216 399.276 443.18 395.051 C 428.007 392.589 422.39 393.852 417.232 400.904 C 409.824 411.036 395.012 408.04 395.012 396.41 C 395.012 392.291 398.731 386.841 403.281 384.295 C 415.393 377.517 408.458 346.278 392.523 335.838 C 375.982 324.999 374.785 325.441 374.785 342.389 C 374.785 350.883 371.537 358.262 367.021 359.994 C 359.765 362.779 358.09 360.501 351.723 339.143 C 346.338 321.086 309.082 347.798 309.082 369.717 C 309.082 376.362 313.576 385.873 319.07 390.846 C 332.73 403.207 326.579 410.339 305.248 406.877 C 286.978 403.912 253.486 414.318 253.486 422.957 C 253.486 425.554 258.034 428.871 263.594 430.324 C 277.098 433.856 265.934 446.021 262.416 452.559 C 260.572 455.988 253.309 455.62 253.018 459.504 C 252.519 466.112 261.25 470.4 267.078 473.555 C 283.539 482.464 312.591 515.185 322.037 485.092 C 325.746 473.279 330.851 466.569 338.791 476.137 C 343.277 481.542 337.845 483.5 321.713 497.373 C 287.466 526.822 281.662 574.85 286.512 618.072 C 288.205 633.162 290.947 634.87 277.535 619.707 C 254.372 593.518 253.937 551.987 236.023 528.164 C 230.105 520.293 225.093 514.709 220.75 510.605 C 219.21 501.414 219.64 494.653 219.836 483.746 C 219.836 468.653 223.162 458.792 233.104 440.371 C 259.731 391.031 277.018 337.306 329.729 315.779 C 338.043 312.853 346.768 311.301 355.652 310.924 C 356.856 310.877 358.061 310.845 359.27 310.836 Z M 801.859 325.377 C 802.245 325.373 802.622 325.379 802.992 325.395 C 804.684 325.466 806.211 325.736 807.498 326.248 C 821.93 331.989 824.106 346.216 813.508 365.619 C 809.076 373.731 805.525 374.493 789.58 370.762 C 777.264 367.88 769.683 363.121 767.021 356.713 C 765.427 352.867 765.605 348.43 767.588 343.445 C 771.06 334.718 789.921 325.492 801.859 325.377 Z M 793.293 345.922 C 788.972 345.971 785.307 348.872 786.936 353.275 C 787.894 355.888 792.476 357.246 797.115 356.293 C 802.386 355.209 803.765 352.559 800.781 349.215 C 798.71 346.894 795.885 345.893 793.293 345.922 Z M 387.729 398.549 C 388.954 398.549 389.954 400.816 389.953 403.596 C 389.953 406.376 387.548 408.656 384.604 408.656 C 381.66 408.656 380.652 406.376 382.369 403.596 C 384.088 400.816 386.502 398.549 387.729 398.549 Z M 370.174 409.436 C 370.47 409.434 370.767 409.446 371.061 409.473 C 375.762 409.898 380.224 413.975 387.67 422.008 C 402.657 438.179 404.16 464.016 390.818 476.09 C 385.735 480.691 379.487 484.148 376.926 483.77 C 356.776 480.792 350.323 477.067 342.576 463.951 C 332.056 446.142 335.114 432.98 353.033 418.883 C 360.901 412.695 365.727 409.465 370.174 409.436 Z M 372.691 435.553 C 372.46 435.566 372.332 435.69 372.332 435.973 C 372.332 444.008 353.172 448.211 356.215 456.141 C 358.837 462.975 361.505 463.595 369.664 459.229 C 380.091 453.648 383.247 441.661 375.541 436.898 C 374.814 436.448 373.372 435.512 372.695 435.553 L 372.691 435.553 Z M 30.0039 446.066 C 22.9274 446.132 17.0128 451.984 15.3047 454.17 C 6.60307 465.304 16.087 482.008 23.543 485.523 C 40.5494 493.542 48.7117 490.86 66.9414 492.783 C 79.7802 494.137 94.5225 489.052 107.25 485.752 C 112.555 481.35 95.8082 480.128 63.877 471.391 C 51.8116 468.089 44.8594 456.362 43.3379 454.24 C 38.914 448.07 34.2498 446.027 30.0039 446.066 Z M 503.717 590.646 C 510.016 590.646 519.893 602.062 519.893 609.346 C 519.893 617.843 513.97 617.429 505.988 608.361 C 498.857 600.261 497.625 590.646 503.717 590.646 Z"/>
</svg>
