<?xml version="1.0" encoding="UTF-8"?>
<svg version="1.0" xmlns="http://www.w3.org/2000/svg" xmlns:xlink="http://www.w3.org/1999/xlink" x="0px" y="0px" viewBox="0 0 1000 1000">
<path d="M 509.282 0.000765216 C 507.939 -0.00671313 506.474 0.0916271 504.908 0.314856 C 490.872 2.31569 481.978 14.8735 482.583 31.8349 C 483.863 67.7211 534.874 84.4073 590.076 66.9919 C 607.786 61.4045 659.069 50.1934 681.635 47.164 C 658.309 53.383 631.063 64.5213 616.542 71.1911 C 604.789 76.5898 535.136 101.815 516.571 141.279 C 488.638 200.655 498.135 208.576 484.802 231.267 C 477.865 231.167 451.489 181.181 453.859 172.623 C 455.12 168.072 461.451 161.611 467.925 158.266 C 481.688 151.152 484.765 136.351 471.38 141.651 C 466.698 143.505 456.031 146.561 447.674 148.443 C 439.316 150.325 430.027 153.331 427.028 155.125 C 420.374 159.106 419.499 186.616 425.501 203.114 C 429.225 213.349 428.016 216.4 417.585 223.022 C 406.746 229.903 405.568 233.235 407.77 250.817 C 410.092 269.359 419.705 288.471 419.9 274.932 C 419.941 271.802 425.288 265.868 431.775 261.75 C 441.665 255.471 445.183 255.303 453.553 260.698 C 466.132 268.812 466.116 280.177 453.508 291.262 C 448.12 295.998 443.676 301.728 443.648 303.998 C 443.592 307.87 427.459 327.359 407.973 347.079 C 390.947 364.31 383.97 354.148 397.318 331.56 C 404.758 318.968 407.679 295.673 401.415 298.886 C 399.405 299.917 390.644 303.45 381.952 306.737 C 367.682 312.134 366.119 314.659 365.798 332.787 C 365.603 343.828 364.062 357.741 362.373 363.701 C 361.015 368.493 356.734 372.396 350.987 381.082 C 324.104 421.714 303.01 448.547 216.385 430.188 C 197.442 426.173 183.607 419.099 156.572 406.073 C 145.22 400.604 144.94 399.638 147.604 397.412 C 154.445 391.695 160.946 386.001 171.807 375.59 C 188.127 359.945 232.325 334.578 254.338 328.077 C 265.726 324.713 273.624 317.068 284.077 304.926 C 327.702 254.25 314.802 172.807 310.82 126.118 C 308.082 94.0129 284.262 61.3906 274.152 48.1719 C 267.007 38.8297 265.4 40.5113 281.455 43.717 C 290.73 45.5689 307.949 53.4446 320.716 59.2068 C 373.404 82.9863 417.206 87.1275 439.551 83.4822 C 445.679 82.4826 459.875 72.5858 463.506 66.0717 C 467.216 59.4151 469.98 44.2289 462.534 29.6148 C 452.749 10.4078 450.027 9.24998 448.301 30.4911 C 447.508 40.2448 445.374 50.5511 443.561 53.3935 C 436.631 64.2537 421.13 57.8731 408.433 38.9408 C 398.996 24.8688 391.994 19.4962 382.756 19.2298 C 366.974 18.7747 358.604 27.9695 362.051 41.9715 C 365.27 55.0468 353.869 56.0425 328.311 44.9293 C 306.243 35.3335 302.477 28.5048 316.509 23.5386 C 327.476 19.6577 352.002 14.3775 304.62 2.81251 C 282.918 -2.48474 197.519 2.10966 180.928 8.60381 C 172.938 11.7311 152.278 18.8174 148.882 19.4635 C 145.487 20.1095 130.279 27.0755 120.802 32.4848 C 99.0404 44.9061 82.9596 42.9184 74.0476 29.7973 C 65.8912 17.7877 26.7162 8.78471 18.2814 16.9805 C 11.8991 23.1818 11.2915 44.1318 17.4926 44.2209 C 24.7624 44.3256 67.744 59.2912 66.5839 67.1014 C 64.6968 79.8044 38.9371 102.862 22.6048 133.698 C -18.9553 212.166 -7.56781 338.64 93.5031 400.603 C 109.43 410.368 79.1638 427.014 78.057 461.124 C 77.561 476.424 64.6284 481.543 53.8473 477.556 C 20.2314 465.123 0.891283 507.148 1.22141 525.975 C 1.86728 562.858 11.0427 597.219 27.8703 619.776 C 39.7827 635.744 49.0035 665.536 48.947 669.831 C 48.8482 676.919 50.9334 682.395 38.1238 677.901 C 30.3632 675.178 8.27828 671.361 3.96739 693.142 C -0.236414 714.382 3.72958 732.074 21.8234 748.098 C 26.3389 752.097 44.4581 742.706 49.1587 736.333 C 58.2778 723.968 63.1988 687.531 63.3486 677.119 C 63.524 664.954 73.0769 645.918 78.5317 654.655 C 82.0538 660.296 83.5135 660.221 87.5948 654.195 C 96.5187 641.018 93.1165 635.303 77.9255 613.597 C 69.6519 601.775 59.5763 597.037 52.1676 580.573 C 46.6703 568.356 43.4771 527.825 49.2537 521.411 C 63.4682 505.627 58.447 536.167 68.0153 562.315 C 82.5255 601.969 84.0227 614.006 103.245 637.128 C 137.477 678.303 183.459 670.483 206.554 637.486 C 224.072 612.458 226.525 601.98 211.63 616.453 C 206.011 621.913 200.417 625.352 199.2 624.099 C 197.983 622.846 196.186 610.618 195.257 596.924 C 192.826 561.12 155.455 508.832 117.048 527.399 C 103.315 534.038 101.762 575.274 114.536 586.569 C 135.678 605.261 158.313 598.204 152.76 574.65 C 151.064 567.454 147.986 562.571 145.924 563.805 C 143.863 565.038 139.217 564.164 135.598 561.855 C 130.154 558.381 130.647 555.442 137.913 544.496 C 149.695 526.745 172.979 568.015 175.904 581.5 C 180.862 604.366 174.535 613.852 162.568 625.764 C 153.732 634.56 133.768 632.758 116.924 618.49 C 109.09 611.854 102.556 606.637 99.2943 592.849 C 96.7711 582.174 92.6311 569.636 90.0997 564.981 C 77.7463 542.267 97.5287 450.477 119.005 430.874 L 129.419 417.094 C 146.313 426.709 155.332 430.923 167.812 437.075 C 173.478 439.868 188.658 442.752 196.023 445.846 C 206.511 450.251 225.608 446.367 213.062 452.492 C 195.548 461.04 173.921 493.815 173.464 512.501 C 173.251 521.274 176.385 535.087 180.431 543.196 L 187.786 557.941 C 212.606 588.394 201.515 552.548 204.276 542.275 C 209.758 521.874 220.586 524.977 218.356 503.511 C 216.051 481.318 221.909 466.263 232.524 465.966 C 295.516 464.2 360.491 422.895 365.404 393.965 C 366.562 387.144 381.798 398.487 386.458 403.787 C 392.807 411.009 397.114 412.292 403.65 408.914 C 408.447 406.434 418.955 405.268 426.997 406.322 C 435.669 407.458 442.609 405.784 444.043 402.203 C 447.615 393.281 427.838 376.538 411.201 374.4 L 396.719 372.538 L 423.448 352.023 C 438.44 340.519 455.635 321.441 464.755 308.322 C 473.874 295.202 483.775 276.833 488.394 271.58 C 493.013 266.327 498.754 249.448 503.592 234.889 C 516.422 196.28 506.563 191.656 534.331 148.151 C 555.414 115.119 590.577 98.3761 605.645 93.6845 C 592.832 132.503 571.785 197.128 582.56 248.283 C 586.482 266.904 602.75 293.639 618.718 310.571 C 652.75 346.658 693.254 342.504 722.042 344.362 C 744.489 345.812 775.77 337.398 791.231 322.358 C 820.297 294.084 820.958 284.216 822.926 269.141 C 825.098 252.505 816.543 230.222 812.694 223.497 C 805.196 210.393 804.786 213.898 807.473 224.753 C 816.423 260.909 792.617 301.563 780.065 311.433 C 764.225 323.886 754.269 319.88 753.583 300.77 C 752.7 276.166 744.967 271.539 728.958 286.047 C 708.129 304.922 693.546 310.368 667.276 309.059 C 640 307.701 624.326 296.381 613.679 270.36 C 606.46 252.72 605.439 230.189 611.867 230.281 C 614.204 230.315 618.726 236.906 621.916 244.931 C 625.106 252.956 657.465 272.258 661.587 272.318 C 665.708 272.377 673.115 276.179 678.041 280.767 C 689.667 291.598 700.802 293.429 714.315 286.734 C 722.789 282.535 724.02 279.857 719.85 274.684 C 715.652 269.474 718.408 264.699 732.573 252.68 C 749.361 238.434 750.304 236.283 745.674 222.752 C 741.101 209.391 713.955 186.024 702.82 185.864 C 694.995 185.751 673.357 196.42 673.301 200.419 C 673.26 202.483 680.292 204.953 688.9 205.911 C 710.806 208.347 711.941 221.719 691.281 233.911 C 670.597 246.117 641.012 233.852 625.882 218.195 C 598.557 189.915 614.683 106.185 632.002 86.4399 C 638.118 79.467 676.156 60.1967 726.759 46.3314 C 750.043 39.9519 774.426 39.7074 782.029 40.3283 C 802.196 41.9753 826.703 39.6542 821.159 90.924 C 819.754 103.919 820.096 116.488 822.685 116.886 C 832.591 118.411 832.97 110.14 840.468 99.0304 C 854.762 77.852 849.606 61.2078 877.495 81.8828 C 892.394 92.9286 911.303 118.354 939.315 151.744 C 951.143 165.843 941.803 198.143 930.062 191.641 C 913.529 182.484 913.145 171.322 913.353 156.9 C 913.465 149.112 911.565 142.709 909.131 142.674 C 906.698 142.64 898.639 135.993 891.225 127.907 C 883.81 119.821 876.102 113.183 874.099 113.155 C 867.993 113.067 870.1 129.454 877.487 139.519 C 889.229 155.516 886.386 161.652 870.192 155.271 C 846.645 145.994 832.568 155.463 830.046 182.278 C 826.44 220.636 841.422 249.113 861.355 241.791 C 869.35 238.854 869.413 237.988 862.187 229.77 C 851.624 217.755 852.613 203.899 864.955 191.027 C 877.917 177.509 900.667 181.478 916.084 199.951 C 925.505 211.242 920.979 212.044 937.643 208.182 C 952.117 204.827 956.489 201.296 957.894 191.838 C 960.797 172.298 967.3 170.466 975.487 186.872 C 981.832 199.587 982.432 210.647 978.993 251.548 C 975.157 297.167 974.406 299.778 969.024 286.128 C 965.822 278.007 957.701 268.311 950.971 264.584 C 923.894 249.588 915.585 281.424 932.472 335.475 C 944.712 374.651 949.618 382.36 903.289 426.661 C 885.183 443.974 882.151 443.568 872.105 447.913 C 873.036 442.143 884.629 422.283 892.67 417.919 C 908.465 409.348 909.172 405.088 903.464 352.943 C 901.318 333.347 896.651 323.807 879.05 303.027 C 867.081 288.897 853.194 277.275 848.187 277.203 C 835.48 277.02 836.606 280.029 855.717 297.301 C 877.761 317.224 877.633 326.251 855.358 322.307 C 831.789 318.134 832.815 329.516 858.206 353.893 C 877.018 371.953 877.878 373.987 873.25 389.349 C 869.839 400.674 865.071 406.063 857.607 407.03 C 850.508 407.949 846.903 405.905 846.974 400.998 C 847.307 377.882 822.677 349.376 802.119 349.08 C 793.722 348.96 788.37 368.398 794.655 376.196 C 798.315 380.737 795.635 382.555 783.839 383.543 C 771.621 384.567 767.127 387.824 763.493 398.296 C 757.059 416.832 762.177 435.55 773.724 435.716 C 781.596 435.829 782.625 433.325 780.531 419.131 C 778.317 404.126 779.372 402.097 790.85 399.391 C 805.571 395.92 817.914 404.152 817.725 417.313 C 817.523 431.258 826.28 433.283 849.713 424.718 C 861.7 420.336 872.388 417.653 873.455 418.751 C 876.562 421.949 848.538 456.336 822.523 473.101 C 793.911 491.54 796.683 505.931 744.329 499.684 C 733.304 498.368 716.361 500.575 696.816 505.789 C 699.667 503.1 702.43 500.118 705.002 496.763 C 709.131 491.378 713.591 485.511 716.819 478.498 C 721.175 469.031 723.952 458.96 723.114 449.023 C 720.17 414.117 695.924 402.917 687.716 403.503 C 686.543 403.586 685.679 403.92 685.24 404.452 C 681.733 408.711 701.419 427.201 699.437 449.578 C 698.953 455.054 698.023 460.783 695.143 466.966 C 693.031 471.501 689.914 475.813 687.555 480.251 C 676.512 501.027 652.08 516.608 647.849 523.353 C 615.977 537.597 583.935 557.596 562.111 582.026 C 549.326 504.795 531.684 469.874 459.115 479.294 C 417.973 484.634 325.241 621.162 377.839 649.543 C 393.392 656.071 413.173 665.411 423.389 657.934 C 433.945 650.207 428.273 633.884 421.388 627.692 C 410.997 618.348 396.39 620.899 391.343 622.142 C 412.605 463.591 532.548 457.954 547.775 591.213 C 550.3 601.644 517.923 626.092 510.441 653.837 C 491.65 723.521 514.197 778.68 586.357 802.243 C 631.693 817.047 677.54 792.49 694.939 794.363 C 700.627 800.218 684.064 805.969 667.895 812.452 C 650.188 819.554 605.67 821.007 581.157 817.981 C 559.846 815.35 545.059 809.425 535.535 804.368 C 526.43 799.534 519.361 789.255 515.678 781.677 C 508.502 766.913 490.659 713.904 490.329 706.361 C 490.011 699.105 483.781 698.318 479.52 704.995 C 474.205 713.325 468.516 710.107 465.432 697.027 C 463.52 688.915 469.08 692.441 474.182 684.897 C 478.553 678.43 481.249 670.54 480.177 667.362 C 477.763 660.2 458.242 682.27 454.405 703.074 C 452.029 715.954 454.334 721.306 468.821 736.661 C 478.302 746.709 486.011 758.097 485.954 761.966 C 485.771 774.81 470.159 755.106 439.543 739.049 C 271.5 650.92 124.417 677.333 63.1722 772.424 C 51.7439 790.168 -14.5983 803.418 10.8165 849.873 C 31.7429 888.124 9.02503 904.698 3.69603 940.767 C -2.79449 984.699 9.17254 964.252 24.8968 976.976 C 33.6957 984.096 56.0864 994.156 60.0903 993.145 C 88.978 985.851 110.108 1008.7 110.262 995.621 C 110.62 965.319 83.5428 968.894 83.6135 961.581 C 70.3441 954.35 67.8081 936.227 63.1357 936.159 C 58.9737 936.1 63.292 924.351 63.3765 918.478 C 63.5037 909.333 66.9391 908.88 81.437 928.79 C 90.3368 941.013 115.009 965.529 154.044 973.522 C 174.975 977.807 185.451 981.238 199.155 978.05 C 209.148 975.724 222.056 973.198 227.834 972.433 C 233.616 971.669 246.327 966.485 256.082 960.917 C 277.035 948.957 282.975 948.351 282.833 958.178 C 282.777 962.167 280.548 965.402 277.889 965.364 C 271.055 965.265 271.702 977.65 278.839 983.571 C 282.124 986.296 291.745 990.11 300.222 992.05 C 313.053 994.985 317.472 993.522 326.608 983.315 C 333.651 975.447 342.58 971.129 351.534 971.258 C 365.736 971.462 381.248 982.244 389.254 987.303 C 402.926 995.942 430.483 995.536 446.744 989.581 C 455.05 986.539 443.896 977.302 429.947 970.352 C 408.553 959.692 387.191 950.791 366.132 936.787 C 323.253 908.272 292.26 926.22 268.425 933.851 C 241.154 942.583 226.457 944.53 229.631 940.059 C 250.118 911.195 265.899 860.162 248.436 830.491 C 233.514 805.137 208.435 790.334 184.103 789.426 C 175.08 789.089 163.924 787.992 159.31 786.987 C 142.682 783.362 104.533 831.519 110.569 848.515 C 113.519 856.821 148.179 860.73 163.07 854.438 C 170.908 851.126 172.105 848.237 169.862 838.035 C 168.365 831.222 166.374 828.261 165.437 831.455 C 163.364 838.511 144.415 834.906 146.091 827.774 C 146.747 825.001 150.419 819.076 155.585 817.601 C 234.738 794.997 256.39 903.15 194.306 933.881 C 153.965 953.849 103.048 940.564 85.4537 903.054 C 83.1058 898.049 79.7274 889.812 78.3551 884.673 C 76.4932 877.697 64.5779 859.615 72.6587 858.557 C 87.111 856.665 94.5916 830.408 87.6446 805.945 C 84.8885 796.241 89.3505 783.116 89.4777 776.777 C 89.8974 756.475 119.947 744.055 133.128 734.741 L 145.915 725.699 L 145.747 737.596 C 145.65 744.14 142.511 751.966 138.765 754.985 C 135.02 758.003 130.837 764.519 129.469 769.459 C 127.379 777.006 129.783 778.479 144.528 778.69 C 172.564 779.093 188.464 771.107 196.525 752.567 C 200.528 743.363 203.852 732.543 203.909 728.526 C 204.107 714.689 218.67 703.212 234.815 702.001 C 292.961 697.638 350.177 719.067 399.682 740.977 C 427.068 753.098 462.019 768.932 460.159 774.279 C 459.133 777.228 452.27 781.678 444.91 784.16 C 434.082 787.813 430.662 787.071 426.989 780.275 C 421.754 770.598 403.436 768.893 394.804 777.281 C 388.457 783.448 387.026 801.06 391.452 818.58 C 394.552 830.85 402.698 833.541 402.859 822.348 C 402.945 816.411 409.585 815.391 438.973 816.82 C 469.048 818.282 474.069 815.06 481.535 809.911 C 494.809 800.757 510.5 808.014 526.639 817.367 C 552.081 832.112 635.595 842.911 678.827 826.861 C 699.061 819.35 705.078 811.607 724.121 787.659 C 752.209 752.335 750.704 602.6 671.495 600.014 C 652.35 599.388 646.643 616.944 641.947 616.307 C 630.741 614.788 624.496 626.241 628.546 640.874 C 632.288 654.395 656.338 675.455 670.327 677.463 C 683.868 679.407 689.155 660.443 676.607 654.94 C 665.702 650.157 659.717 631.176 675.431 627.992 C 708.23 621.345 720.245 736.05 710.318 754.795 C 698.014 778.027 640.635 795.84 609.434 791.478 C 552.992 783.587 507.154 728.871 522.79 672.051 C 538.704 614.222 596.082 566.778 651.974 540.829 C 689.609 523.357 685.081 529.88 707.433 535.352 C 719.64 538.34 754.494 554.4 756.744 562.505 C 761.559 579.847 774.522 587.261 777.149 592.236 C 780.868 599.283 779.498 603.79 770.934 612.648 C 760.125 623.829 760.088 624.182 768.94 634.25 C 775.593 641.817 784.911 643.778 791.733 641.933 C 801.03 639.418 805.76 630.049 812.05 623.624 C 819.337 616.181 814.255 592.879 816.439 592.177 C 816.604 592.125 816.776 592.116 816.957 592.147 C 818.231 592.379 819.97 594.651 822.522 598.129 C 826.353 603.347 829.383 614.743 829.256 623.448 C 829.103 634.114 826.123 641.152 819.667 644.116 L 786.409 659.387 C 769.574 667.117 767.491 665.965 778.426 678.404 C 788.275 689.606 799.232 689.89 818.061 679.441 C 835.518 669.753 840.165 672.677 833.601 689.22 C 830.298 697.544 822.354 703.327 808.26 707.66 C 789.3 713.489 774.004 726.924 779.675 732.761 C 782.439 735.605 817.797 724.573 837.596 714.693 C 853.385 706.814 855.177 703.134 859.98 668.625 C 864.2 638.307 849.793 594.605 823.998 574.102 C 789.823 546.938 712.612 534.019 721.434 518.014 C 775.949 511.668 836.823 517.812 884.314 553.631 L 880.757 577.008 C 877.096 601.062 879.765 608.709 911.087 663.739 C 918.186 676.213 919.028 682.253 915.052 692.272 C 904.984 717.65 926.211 712.95 937.349 687.336 C 947.07 664.979 946.834 644.963 936.706 632.636 C 932.131 627.067 924.65 617.9 920.077 612.26 C 908.523 598.013 909.45 582.738 921.859 582.916 C 927.261 582.994 925.677 578.747 932.836 589.139 L 963.297 633.359 C 1002.4 690.137 982.162 792.807 967.678 821.917 C 961.129 835.078 947.336 823.342 933.04 823.136 C 916.717 822.901 913.372 814.96 922.355 797.78 C 928.495 786.038 928.248 784.261 919.85 779.61 C 905.294 771.548 896.796 773.31 893.457 785.087 C 888.727 801.773 891.45 805.073 897.476 811.946 C 889.632 809.429 880.723 808.284 871.573 801.199 C 841.52 777.931 883.069 776.507 862.371 756.753 C 849.269 744.249 829.984 738.882 827.681 773.764 C 824.519 821.64 849.673 819.076 889.204 832.78 C 886.917 833.872 880.555 841.207 881.785 844.556 C 883.339 848.785 884.565 855.384 884.509 859.221 C 884.397 867.295 905.213 876.86 915.043 873.25 C 918.715 871.901 924.288 865.363 927.429 858.724 C 934.862 843.015 961.15 871.299 969.291 888.988 C 977.79 907.457 971.929 918.89 955.743 915.41 C 947.454 913.628 936.983 916.035 926.692 922.093 C 910.685 931.515 910.66 931.601 920.805 938.926 C 937.878 951.254 932.638 955.728 905.352 952.123 C 889.219 949.991 854.745 910.887 837.383 918.057 C 758.545 950.617 733.563 931.027 719.081 920.57 C 705.664 910.882 676.181 922.224 678.785 932.07 C 683.145 948.555 696.694 964.782 684.591 975.207 C 675.886 982.705 672.508 985.7 674.071 990.179 C 678.6 1003.16 698.844 998.339 701.981 991.473 C 708.185 977.895 714.085 954.264 720.681 960.86 C 731.45 971.629 745.225 962.403 731.627 987.168 C 728.896 992.142 729.071 999.761 737.643 998.25 C 744.137 997.105 749.016 995.028 752.332 997.144 C 756.137 999.572 759.583 996.627 761.271 983.062 C 762.034 976.938 766.009 970.293 767.955 969.723 C 771.328 968.735 779.123 969.134 783.657 970.614 C 790.807 972.949 804.246 986.158 804.18 990.671 C 804.105 995.883 809.4 997.997 823.007 998.193 C 839.395 998.428 842.831 996.528 848.568 984.054 C 854.99 970.092 855.013 964.596 860 972.929 C 861.337 975.165 868.645 976.168 876.242 975.164 C 884.972 974.011 892.354 976.193 896.303 981.094 C 899.741 985.36 906.642 988.91 911.633 988.982 C 916.626 989.054 920.687 991.288 920.645 993.948 C 921.446 1009.53 971.232 992.134 981.114 971.498 C 991.346 950.133 993.785 911.071 991.309 897.693 C 989.205 886.323 994.143 870.818 979.894 869.474 C 971.529 868.942 970.756 869.597 967.268 862.281 C 959.468 845.925 969.13 847.74 975.542 838.589 C 989.115 819.219 999.236 767.709 999.474 743.263 C 999.904 699.255 999.276 649.281 948.243 586.831 C 934.774 570.349 927.592 559.706 935.039 552.47 C 936.843 550.717 941.719 552.413 945.87 556.238 C 951.153 561.109 960.311 562.507 976.418 560.898 C 999.203 558.621 999.425 558.434 999.678 540.858 C 999.981 519.902 992.021 508.916 982.246 516.794 C 978.684 519.665 975.722 525.263 975.666 529.231 C 975.584 535.58 974.214 535.534 964.383 528.888 C 958.237 524.733 943.616 520.472 931.884 519.409 C 912.857 517.685 910.368 518.642 908.85 528.326 C 906.735 541.819 906.967 541.843 883.151 526.325 C 871.55 518.766 854.732 512.805 842.085 511.77 C 816.007 509.635 810.77 504.32 823.769 496.236 C 850.836 479.403 885.895 464.384 908.069 445.261 C 930.369 426.028 950.088 427.937 951.778 441.113 C 952.491 446.675 949.661 453.975 945.497 457.333 C 941.331 460.69 937.885 466.435 937.829 470.099 C 937.717 477.771 950.172 479.295 954.721 472.165 C 956.403 469.53 965.193 467.485 974.249 467.615 C 993.52 467.893 1004.41 454.757 994.859 442.763 C 984.03 429.169 952.118 413.2 946.563 418.597 C 943.723 421.357 927.38 423.361 925.253 423.33 C 931.723 413.061 927.175 411.925 944.927 390.597 C 955.077 378.405 966.572 363.034 970.481 356.441 C 991.116 321.635 1000 250.037 1000 218.07 C 1000 185.343 992.537 117.405 983.977 105.011 C 978.828 97.5552 974.667 87.987 974.724 83.7516 C 974.78 79.5163 966.931 67.0448 957.269 56.0365 C 943.29 40.1085 940.759 34.3897 944.869 28.0365 C 954.331 13.4096 968.286 15.9401 973.19 33.1706 C 980.212 57.841 990.529 57.3151 989.067 32.3599 L 987.855 11.6411 L 958.927 5.44081 C 950.574 3.64982 939.866 2.55443 935.594 2.00107 C 933.498 3.02015 921.963 5.81185 916.38 10.3631 L 902.737 21.4857 L 917.205 37.0704 C 933.919 55.0721 935.653 65.7879 921.821 65.5889 C 901.528 65.2969 912.476 93.0867 939.26 109.86 C 959.144 122.312 978.752 141.733 978.653 148.866 C 978.612 151.388 978.045 153.461 977.382 153.416 C 935.3 150.551 913.285 79.9064 874.19 58.9139 C 858.254 50.3572 883.801 20.8402 869.516 9.12157 C 843.227 -12.4442 815.114 16.6741 774.459 15.0079 C 756.547 14.2737 741.764 18.2439 738.857 19.2582 C 707.949 30.0439 675.616 29.6769 652.805 34.1638 C 621.138 40.3924 614.298 44.1196 595.848 29.9499 C 580.749 18.354 584.806 15.2466 576.802 15.3219 C 568.23 15.4023 556.704 31.3667 556.704 31.3667 C 531.253 51.6879 514.816 50.4083 509.577 27.7225 C 506.552 14.6274 507.167 11.4475 513.199 8.98281 C 522.156 5.32385 518.679 0.0613398 509.278 1.73818e-05 Z M 935.599 2.00178 C 936.247 1.68657 936.023 1.53857 934.401 1.56363 L 934.364 1.56363 C 932.725 1.5898 933.7 1.75694 935.591 2.00178 Z M 216.115 36.0633 C 236.937 44.265 238.986 43.3309 258.787 59.7691 C 289.03 84.8762 293.317 123.61 293.433 125.833 C 303.656 321.489 274.638 262.06 259.766 294.592 C 257.585 293.345 247.636 287.193 238.762 280.482 C 229.888 273.771 215.786 264.947 207.425 260.874 C 187.283 251.062 181.462 227.422 195.769 213.521 C 205.539 204.028 205.561 204.032 215.611 214.375 C 221.144 220.07 227.843 224.758 230.502 224.796 C 236.04 224.876 237.582 200.833 232.065 200.426 C 230.072 200.279 218.17 199.268 205.614 198.177 C 186.665 196.531 180.779 198.136 171.012 207.627 C 161.241 217.121 159.403 223.158 160.196 243.193 C 161.22 269.096 159.837 271.059 148.168 260.282 C 136.754 249.743 114.899 255.722 106.328 271.726 C 95.8775 291.243 96.7435 308.63 108.351 312.499 C 113.646 314.264 117.947 317.514 117.918 319.714 C 117.877 321.915 126.547 324.667 137.169 325.834 C 147.791 327.002 156.488 327.677 156.493 327.339 C 156.639 317.236 143.793 296.057 135 291.897 C 120.771 285.165 119.955 278.415 132.977 275.21 C 139.655 273.565 147.637 278.188 159.1 290.334 C 173.084 305.152 176.764 306.885 183.201 301.698 C 187.379 298.33 190.841 292.581 190.898 288.917 C 191.01 280.852 191.825 280.81 208.82 288.026 C 252.002 306.363 257.244 312.946 248.249 314.88 C 216.13 321.785 176.527 341.083 148.577 366.812 C 133.629 380.571 130.36 382.942 124.506 382.857 C 108.877 382.632 71.6442 347.47 57.8213 328.916 C 37.1319 301.146 21.7105 267.216 43.2517 242.192 C 55.5282 227.931 79.0566 217.907 78.8614 231.45 C 78.7343 239.996 79.2981 240.092 95.1255 234.334 C 104.678 230.859 107.669 225.973 109.067 211.563 C 110.749 194.222 112.022 192.954 132.386 188.354 C 160.403 182.025 162.093 175.242 137.578 167.511 C 112.601 159.635 95.1973 163.178 76.2396 179.999 C 63.9679 190.888 62.6263 204.798 53.9799 213.199 C 45.3335 221.6 40.3373 220.091 40.4984 209.131 C 40.5972 202.685 45.6572 195.134 50.3064 199.601 C 63.2878 212.072 54.2874 189.048 37.8109 174.719 C 32.4244 170.035 52.2841 122.991 71.2663 109.415 C 84.1911 100.171 74.839 141.317 90.079 129.937 L 123.176 105.223 C 159.883 77.8134 215.163 110.264 182.273 65.166 C 178.601 60.1311 156.99 58.7619 159.757 53.7659 C 176.54 44.4789 177.954 37.949 216.115 36.0633 Z M 584.042 285.337 C 601.915 261.603 598.249 230.785 580.256 201.094 C 582.306 247.046 537.214 297.047 551.1 320.029 L 564.245 341.784 C 576.694 362.387 577.101 365.037 572.03 391.664 C 565.85 424.12 554.38 436.414 539.262 426.785 C 533.066 422.839 530.912 417.496 532.725 410.601 C 534.601 403.468 532.867 399.607 527.051 398.011 C 507.003 392.503 500.186 408.808 511.627 434.906 C 517.23 447.689 519.186 448.724 539.649 449.665 C 549.12 450.101 552.022 453.101 553.071 463.541 C 554.733 480.072 556.895 479.986 577.88 462.562 C 593.688 449.437 594.784 446.675 595.444 418.277 C 595.988 394.854 597.771 388.021 603.317 388.1 C 607.872 388.165 611.483 394.918 613.212 406.621 C 616.302 427.519 624.443 438.714 631.499 431.78 C 634.262 429.066 627.168 412.87 627.423 393.887 C 627.539 385.392 631.33 370.731 615.725 345.055 C 604.718 326.944 581.229 319.334 584.042 285.337 Z M 955.149 704.886 C 951.119 704.805 947.366 710.013 942.486 721.237 C 934.127 740.462 922.721 746.62 910.308 738.618 C 903.696 734.355 901.158 734.695 898.989 740.116 C 894.931 750.25 899.588 759.693 911.616 765.72 C 917.403 768.62 926.085 771.204 930.91 771.453 C 960.049 772.959 980.937 733.337 963 710.582 C 960.084 706.883 957.567 704.933 955.149 704.886 Z M 435.171 921.429 C 428.856 921.356 424.433 923.514 424.158 928.148 C 423.408 940.617 447.757 966.115 468.429 976.706 C 480.009 982.638 490.935 985.532 492.858 986.112 C 538.625 999.904 605.726 1008.13 633.164 986.514 C 639.09 981.846 645.981 977.81 648.931 978.101 C 656.899 978.886 678.632 960.21 675.004 955.695 C 673.283 953.553 662.414 955.146 650.852 959.237 C 639.29 963.328 627.361 964.742 624.335 962.377 C 621.308 960.013 615.852 959.851 612.219 962.012 C 599.444 969.61 575.37 955.189 574.323 942.593 C 572.473 920.307 542.016 911.908 549.02 925.804 C 552.504 932.718 540.933 925.864 532.082 931.397 C 508.421 946.192 483.596 946.523 464.113 932.303 C 454.538 925.315 443.289 921.523 435.171 921.429 Z"/>
</svg>
