<svg viewBox="0 0 1000 1000"><path d="m691.64 0 .01.02c-25.13.23-45.92 7.43-62.62 21.67-16.56 14.11-15.81 13.72-20.13 6.55-26.34-43.76-93.53-6.83-102.46 10.52-4.11 7.97-6.68 7.54-16.96-3.17-30.2-31.46-79.25-27.68-102.03-.23-33.7-41.7-90.67-45.42-128.05-14.02-22.8 19.15-22.52 26.2-14 44.36 7.83 16.7 17.53 18.54 33.43 6.37 17.6-13.48 17.92-18.73 1.05-16.81-11.86 1.34-13.33-.01-13.33-12.27 0-18.44 24.4-25.38 58.06-17.02 31.82 7.9 33.96 35.5 45.9 54.14 6.43 10.03 11.18 8.2 15 2.34 2.46-3.77 4.5-9.92 4.55-13.67.04-4.26 6.25-.97 16.6 8.77 15.88 14.93 35.21 13.38 27.08 3.05-27.33-34.77-21.6-46.2 16.06-42.26 16.6 1.74 32.7 25.93 41.26 47.58 8.56 21.66.92 69.36 1.96 90.55 1.05 21.18 1.73 43.66-.15 42.64-28.94-15.66-41.4-39.23-92.13-25.64-33.15 8.88-79.15-23.3-87.09-53.8a59.64 59.64 0 0 1-.67-28.06c1.82-8.83 4.65-9.84 19.04-6.78 15.65 3.33 17 2.63 18.1-9.38 1.04-11.27-1.11-13.65-16.32-18.19-13.51-4.03-18.61-3.47-22.34 2.46-2.65 4.23-8.64 10.5-13.3 13.97-9.88 7.32-7.7 27.9 1.46 60.86s41.14 45.58 57.34 51.91c34.7 13.57 67.82-7.37 102.26 13.6 7.93 4.83 25.4 19.92 27.85 30.51 4.52 19.52 8.44 72.05 4.23 72.05-1.88 0-9.82-10.1-17.63-22.43-12.77-20.14-17.27-23.3-44.37-31.19-24.4-7.09-35.92-7.99-60.12-4.64-29.94 4.14-29.95 4.14-29.31 22.67.43 12.55-6.58 19.93-10.67 26.5-2.85 4.57-7.63 13.8-9.44 22.44-3.03 14.46-2.54 15.32 6.08 10.84 5.15-2.68 19.7-14.76 32.34-26.86 22.98-22 22.99-22 52.6-18.74 39.12 4.3 52.07 11.56 66.37 37.27 14.39 25.86 9.07 34.5-8.74 14.17-16.9-19.3-41.97-34.87-67.35-32.3-69.66 7.07-23.78 12.83 11.76 18.1 23.43 3.46 66 34.95 69.44 46.92 2.81 9.77-6.52-3.68-19.6-12.75-12.6-8.76-41.77-19.63-64.48-19.7-20.5-.05-25.16 1.58-38.84 13.56-15.22 13.33-15.92 13.5-32.38 8.21-9.25-2.97-19.08-5.5-21.87-5.59-7.37-.25-20.4 24.57-23.9 43.84-3.48 19.28 6.35 31.96 26.77 31.23 9.78-.36 17.79-1.34 17.79-2.19 0-.84-4.15-6.78-9.22-13.2-17.4-22.04 4.85-40.54 31.62-26.28 6.8 3.63 13.3 6.6 14.44 6.6 1.14 0 3.35-7.12 4.9-15.8 1.97-11.14 6.6-18.24 15.72-24.1 23.88-15.33 39.25-5.58 16.01 10.16-12.77 8.64-13.47 12.54-4.23 23.57 6.52 7.78 6.8 7.74 17.06-2.23 5.74-5.58 12.64-13.86 15.34-18.41 3.7-6.24 7.97-7.8 17.3-6.35 13.26 2.07 28.98 30.82 34.36 40.14 3.76 6.52 3.6 14.4 5.62 18.72 1.13 2.42 2.25 5.06.27 4.52-5.3-1.42-38.34-4.57-54.83-1.14-8.78 1.82-10.9 5.46-10.9 18.64 0 14.9 1.25 16.38 13.94 16.38 7.67 0 21.42-3.03 30.55-6.73 26.6-10.8 26.76 2.16 19.52 16.64-8.45 16.9-9.8 30.2-5.5 35.22 14.82 17.34-17.78 30.31-46.7 18.58-13.38-5.43-16.66-9.37-16.66-19.99 0-8.13 3.73-15.5 9.69-19.1 13.36-8.1 12.65-16.3-1.2-12.41-28.2 7.93-96.82.48-107.16.44-23.17-.11-46.72 18.42-46.72 25.62 0 6.89 11.25 27.61 15 27.61 3.96 0 10.08-15.1 8.83-21.86-4.7-25.46 13.34-24.13 39.02 2.88 20.32 21.36 23.41 22.11 47.03 11.23 16.2-7.47 17.22-7.38 27.25 2.35 10.16 9.87 10.17 10.1.72 10.1-5.32 0-22.7 6.3-38.62 13.98-15.93 7.68-42.4 10.67-62.47 16.8-58.45 17.84-85.63 68.57-152.2 62.8-74.72-6.5-56.59-102.69-49.36-133.42 1.32-5.65 6.9-16.41 12.27-43.21 2.97-14.84 2.13-14.53 4.26-21.9 11.37 1.59 35.79 4.7 45.85 12.09 18.5 13.58 35.1 34.33 51.08 38.83 25.29 7.13 30.94 3.4 45-6.99 14.87-11 9.2-13.28 10.75-26.45.65-5.57 13.92-35.03-16.56 1.59-10.87 13.05-19.53 20.69-42.5 7.86-14.84-8.27-31.85-31.04-50.19-39.29-16.7-7.52-46.23-2.28-55.34-27.05-10.94-29.76-34.82-78.82-27.8-95.49 8.4-19.9 29.12-43.04 52.59-49.44 16.52-4.5 26.57-13.99 33.45-33.87 5.25-15.16-.51-21.15-10.13-34.26-6.54-8.92-14.94-17.9-18.65-19.95-9.02-4.98-19.88 3.83-20.5 16.64-.6 12.51 8.74 18.7 17.83 11.83 7.8-5.9 20.45 5.91 17.7 14.68-10.16 32.26-46.05 30.18-64.45 26.5-27.7-5.52-32.87-25.44-30.23-42.6 3.02-19.72 12.28-44 35.5-48.28 13.17-2.44 20.82-4.27 28.38-6.91 12.46-4.37 18.68-9.13-2.17-23.87-8.4-5.94-25.6-11.86-44.32 7.36a945.59 945.59 0 0 0-30.8 33.22c-14.86 17.2-20.42 14.92-19.09-7.79.74-12.64 5.22-28.1 22.5-55.85C63.52 67.37 75.7 53.64 93.03 49c12.77-3.42 18.84.08 19.48 8.22.55 7.06 6.47 11.8 13.6 12.35 6.58.5 16.16-.87 21.78-9.5 3.84-5.9-7.2-17.5-20.77-24.65-14.09-7.41-28.8-9.46-39.01-7.04-9.7 2.3-19.33 6.13-30.86 17.66C29.78 78.2 1.53 123.7-.34 156c-2.82 48.75-5.84 108.8 23.7 164.3 17.7 33.24 44.02 38.2 64.32 92.05 11.53 30.6 13.54 34.15-15.4 119.31a113.54 113.54 0 0 0-4.61 18.14c-1.43 9.04-1.05 15.49-1.86 23.35-.15 1.52-1.97 2.14-4.3 2.14-9.75 0-37.38-24.17-42.23-36.94-7.68-20.2-5.6-48.23 8.28-65 16.59-20.02 24.95-19.11 21.47 2.34-2.65 16.31-2.31 16.8 10.88 15.29 12.21-1.4 13.76-3.5 15.01-20.42 1.23-16.66-.26-19.83-12.8-27.25-6.47-3.81-10.33-5.73-14.04-5.9-3.72-.19-7.5 1.06-13.24 4.68-44.83 28.3-50.9 78.03-21.64 120.68 13.48 19.64 44.56 36.04 64.59 59.53 14.58 17.1 30.68 41.94 72.78 42.95 73.54 1.75 110.97-51.65 183.76-68.69 13.42-3.14 23.94-3.84 29.66-6.67.94 2.74-5.8 18.49-.96 28.1 2.92 5.78 12.78 16.6 4.87 25.09-7.2 7.7-9.62 7.65-45.61-1.05-9.76-2.36-6.44 21.78 1.88 43.3 13.29 34.43 42.56 87.19 78.99 89.05 17.3.9 56.26-14.19 68.15-24.83 16.88-15.1 12.86-2.62-6.07 18.85-24.96 28.32-21.48 38.2 7.59 21.53 17.55-10.07 20.18-7.42 15.88 15.73-4.3 23.14-17.98 51.52-25.32 66.48-6.99 14.25-18.71 37.18-21.8 39.36-2.35 1.66-12.62-10.67-26.3-12.55-11.27-1.54-25.5-2.75-40.12 4.33-20.66 10-22.22 9.73-29.64-5.38-9.66-19.65-38-20.16-73.86-1.32-15.14 7.95-19.03 19.15-24.87 26.46-6.57-3.94-12.8-35.73-6-35.73 7.78 0 28.17-19.04 28.17-26.31 0-3.22-2.73-6.76-6.06-7.88-6.96-2.33-27.86 5.8-27.86 10.85 0 5.97-26.27 14.04-38.22 11.74-25-4.8-40.29-30.74-18.11-30.74 15.52 0 25.93-12.34 19.2-22.75-7.42-11.52-22.72-11.98-32.96-1-9.42 10.12-23.73 9.48-31.74 9.5-7.14.01-18.33.54-21.77-11.86-2.77-10 19.08-29 34.62-30.17 12.96-.97 29.8-13.82 29.8-22.74 0-9.04-7.31-11.12-12.18-3.47-1.93 3.02-15.06 3.61-35.43 1.6-27.94-2.77-34.76-5.4-49.95-19.36-20.76-19.06-27.82-48.18-15.95-65.85 8.79-13.1 21.17-13.5 37.28-1.19 22.75 17.38 31.62 9.59 10.76-9.44-10.07-9.19-17.75-11.2-44.83-11.76-50.98-1.06-62.15 6.33-66.86 52.77-2.6 25.58 5.08 56.58 30.03 69.65 10.44 5.48 26.9 12.33 38.96 12.88 9.95.45 25.52 3.4 34.51 1.81 1.05.87-2.18 4.41-4.84 9.47-13.83 26.3 1.66 16.68-17.3 22.23C16.68 843.82-27.29 923.8 9.2 974.47c4.83 6.71 13.56 13.91 17 18.04 7.43 8.92 12.63 9.35 24.66 2.05 10.7-6.49 7.51-17.06-7.5-40.89-25.6-40.64 8.04-69.43 41.17-80.07 32.17-10.32 34.35-9.35 59.9-3.24 20 4.79 36.45 21.5 55.42 21.64 15.84.11 16.76.83 14.4 12.9-1.4 7.08 2.56 21.43 4.35 26.43 5.26 14.69-1.29 18.66-25.93 31.7-20.12 10.63-25.72 11.64-44.03 7.88-27.1-5.57-44.45-20.19-44.45-37.46 0-12.9.6-13.23 19.38-10.31 21.63 3.35 22.8 1.84 11.56-14.83-9.9-14.65-21.22-14.7-37.36-.18-11.23 10.1-12.49 14.29-10.86 36.42 1.56 21.23 13.89 32.02 28.55 40.14 30.57 16.95 78.08 23.45 112.98-3.9 15.52-12.14 22.83-11.47 41.27-2.97 26.24 12.08 47.42 21.1 79.45 21.1 19.6 0 40.7.75 70.03-20.22 23.35-16.7 20.59-15.6 25.1-23.42 1.56 3.96 12.37 12.55 3.83 23.95-12.88 17.2 58.07 34.87 49.7 3.47l-8.8-33.03c-3.16-11.87-16.98-20.06-21-23.02-6.42-4.74-6.16-7.59 2.1-24.1 6.07-12.1 17.16-23.75 29.08-31.6 10.67 8.4 42.02 42.48 44.54 49.68-8.35 2.64-17.17 5.94-21.67 9.75-9.7 8.23-10.9 11.6-10.8 22.6.11 10.56 2.08 21.11 8.36 31.66 11.48 19.29 23.37 14.12 24.28-7.99.43-10.38 14.2-29.23 16.12-26.92 33.26 51.33 120.6 57.18 160.35 28.7 8.87-6.35 13-4.5 24.13 3.02 47.11 31.83 119.24-6.28 126.56-43.7 3.08-15.77.86-29.59-7.14-41.82-6.1-9.32-11.11-11.93-19.32-10.2-20 4.25-32.87 12.43-32.87 20.9 0 11.89 7.05 14.57 21.47 8.2 16.56-7.33 18.92-3.9 9.7 14.05-8.59 16.72-23.17 22.1-47.74 17.62-12.87-2.34-28.84-6.65-32.96-18.14 3.7-10.12 6.02-23.25 20.36-48.63 9.01-15.94 24.16-26.52 32.02-30.98 12.6-7.15 17.36-3.9 48.05-1.98 74.97 4.69 88.8 39.86 85.16 78.2-1.55 16.36-8.22 33.05-12.31 37.44-9.4 10.1-9.41 18.49-.04 28.55 9.6 10.29 28.25 5.62 36.97-6.59 62.6-87.64 5.06-176.63-70.62-181.78-20.25-1.38-20.7-6.03-13.3-24.91 4.18-10.69 5.26-10.06 12.1-7.46 16.53 6.28 18.47 5.67 34.74 8.42 11.98 2.03 35.14-2.98 45.13-10.61 11.4-8.7 22.28-22.9 22.28-38.27 0-25.83-2.27-32.15-17.94-52.88-9.89-13.08-13.72-17.1-17.3-21.72-7.31-9.48-20.05-22.46-17.83-1.4.6 5.75 12.9 15.7 8.73 32.02-9.5 37.18-41.21 48.97-91.4 34.35-7.47-2.17-14.9 1.38-27.96 13.34-19.9 18.21-15 25.61 10.72 16.19 29.22-10.71 40.08 16.95 14.04 35.76-10.51 7.6-21 9.71-49.37 9.97-19.8.18-33.51.47-39.05 3.3-19.11 9.75 8.87 10.58 16.23 16.77 11.05 9.3 19.95 11.8 4.41 18.7-14.02 6.21-36.77 28.8-43.17 49.05-7.47 23.63-7.63 33.52-18.3 18.5-8-11.25-17.9-17.92-35.05-23.17-9.93-3.04-32.3-3.54-41.34 8.17-11 14.26-5.87 23.49-32.26 20.84-19.95-2-28.92-.67-39.03 5.76-13.11 8.34-13.05 5.35-32.49-12-20.11-17.96-22.81-34.63-31.73-56.77-7.15-17.76-7.35-34.44-3.76-46.81 2-6.88.36-12.43 3.54-13.55 3.18-1.11 11.18 2.2 24.53 3.29 16.14 1.3 27.46-4.67 28.2-8.46.77-3.9-2.1-8.08-12.88-3.51-14.53 6.15-34.92-12.73-35.21-26.74-.25-12.14 2.32-10.6 12.47-1.58 21.17 18.8 46.44 21.46 76.94 20.33 40.32-1.5 67.11-20.54 88.33-62.45 17.09-33.77 18.16-41.02 6.43-39.86-18.43 1.82-21.62-.5-38.2-1.13-5.76-.21-12.82-15.28-13.4-30.52-.11-2.8-.96-9.06 4.88-10.43 8.76-2.06 9.44-7.68 46.93 11.43 32.38 16.5 61.52 53.4 128.4 58.07 42.02 2.94 61.21-21.02 75.02-37.64 6.9-8.3 11.64-12.68 14-17.94 11.75-26.19 22.78-20.15 43.17-40.54 42.49-42.49 33.48-114.96 15.52-141.4-20.45-30.1-36.9-22.22-44.34-20.92-17.08 2.99-26.15 17.71-21.7 35.2 2.83 11.09 3.39 11.54 10.03 8.2 8.46-4.24 13.97-14.68 11.34-21.49-2.38-6.15 13.47-14.38 19.2-7.26 21.85 27.18 16.74 90.68 7.59 106.88-2.85 5.04-26.55 27.18-36.25 33.02-.28-1.43-2.16-17.52-6.82-31.25-42.32-124.55-9.67-141.31 18.1-201.22 27.78-59.9 41.85-90.23 50.99-119.41 16.83-53.82 5.5-114.24-4.73-135.25-13.33-27.37-39.82-52.25-62.34-63.82-9.76-5.02-19.2-7.58-27.85-7.8-14.42-.36-26.67 5.78-34.6 17.88-6.61 10.07-6.39 13.55 1.37 20.4 13.61 12.01 20.1 11.3 40.14 1.58 15.67-7.6 38.03.75 45.76 17.2 12.3 26.15 13.71 43 15.06 70.86l-11.59-15.05c-30.18-39.23-60.7-35.37-71.66-31.93-9.73 3.06-12.36 6.47-10.97 12.97 1.98 9.29 29.6 7.7 46.86 27.22 12.9 14.57 18.5 23.15 18.74 23.57 18.38 32.05-9.57 37.12-38.73 54.82-7.78 4.73-27.95 8.7-40.74 4.52-11.34-3.7-30.77-22.22-25.55-31.06 1.88-3.19 7.74-4.15 13.56-5.54 15.82-3.77 14.78-16.9-1.81-22.97-14.01-5.12-20.75-.06-27.08 20.33-7.88 25.37 17.32 55.82 46.91 55.57 28.76-.23 54.95 21.7 59.46 34.98 17.07 50.29-40.34 91.07-35.9 114.08.33 1.73 1.23 4.02.74 7.01-3.72 23.07-5.02 37.42-4.79 50.65-14.44-2.83-16.35-15-25.08-26.65-7.81-10.44-20.3-30.64-36.25-32.98-12.95-1.9-29.72 2.23-43.87 18.19-5.24 5.9-17.39 12.35-33.34 15.96-15.94 3.62-29.9 3.27-32.58 1.66-8.26-4.96 3.5-14.85 5.14-27.48 4.76-36.57-30.62-45.14-55.27-42.26-24.82 2.9-29.07-26.6-73.75-19.95-12.47 1.85-38.6 10.62-59.92 32.29l-22.27 22.62 1.1-23.88c.67-14.38 6.46-34.98 14.57-51.76 13.06-27.03 14.13-27.94 35.28-30.35 28.88-3.28 41.1-1.7 52.6 2.3 9.33 3.24 23.4 10.57 35.15 18.83l-40.97-1.35c-35.35-1.16-56.87 11.05-80.32 35.66-16.88 17.7-9.87 19.6 11.5 3.12 10.02-7.74 26.17-15.27 35.88-16.74a434.33 434.33 0 0 0 34.62-7c9.33-2.38 29.92-1.11 36.23-.56 6.73.58 13.76-2.56 16.97-7.58 4.63-7.23 2.7-10.9-12.29-23.53-9.77-8.23-26.34-21.94-27.31-27.12-1.6-8.47-5.32-9.34-37.16-8.74-31.63.6-35.9 3.21-49.48 13.76-11.6 9.02-25.36 42.02-25.4 34.17-.06-14.26 1.77-26.62 3.12-39.02 2.36-21.79 13.23-44.55 29.51-49.38 73.97-21.93 93.39-.82 137.1-61.03 20.17-27.78 25.28-61.08-.47-74.46-24.13-12.55-61.38 2.69-41.36 16.9 5 3.56 13.88 5.3 19.75 3.86 13.03-3.17 18.49 7.4 12.9 20.47-5.6 13.08-14.62 58.57-57.64 63.95-43.03 5.37-58.57 8.18-66.56 11.26-7.99 3.07-18.14 8.76-22.54 12.63-10.78 9.48-9.69 2.4-13.02-30.7s-1.32-85.54 5.11-106.63c3.85-12.55 20.25-44.68 41.8-44.68 19.21 0 24.06 9.3 16.47 31.62-6.8 20.03-3.95 23.1 12.05 12.92 12.08-7.69 12.53-7.62 12.53 1.7 0 18.9 9.11 14.7 21.06-9.72 18.59-37.96 28.38-45.93 56.39-45.93 27.98 0 34.27 6.26 18.64 18.56-20.96 16.5-13.83 27.59 13.03 20.41 30.22-8.07 51.52-19.06 46.3-26.17C731.24 3.4 719.8-.18 691.64.01Zm262.7 222.39c13.27-.18 12.67 10.33 6.4 33.73-7.42 27.71-15.55 33.18-19.77 21.87-1.74-4.68-4.88-14.86-11.86-21.84-5.92-5.92-20.05-8.2-15.75-13.64 4.92-6.22 8.83-12.28 22.8-16.48 7.8-2.34 13.76-3.58 18.19-3.64ZM43.4 249.85c3.62.33 6.04 2.1 8.77 4.35 8.79 7.23 15.19 9.2 22.05 6.82 16.16-5.59 21.11 2.46 6.88 13.03-6.23 4.64-14.18 16.82-18.1 28.6-6.07 18.17-21.08-4.16-27.41-34.83-2.13-10.28-2.4-16.81 3.73-17.79a16.3 16.3 0 0 1 4.08-.18Zm561 104.85c4.7.3 10.3 1.75 15.12 5.12 20.89 14.6 17.15 26.44 37.4 21.81 25.48-5.81 56.97 3.14 38.67 31.9-11.14 17.5-5.22 30.2 12.28 34.28 5.58 1.3 12.94 1.42 29.52 1 16.57-.4 23.36-3.38 44.56-11.81 18.25-7.26 30.9-43.5 61.13 7.38 13.86 23.34 33.3 37.97 43.27 47.93 1.6 11.8 5.75 17.2 8.4 37.45 4.1 31.3 28.8 129.7-46.03 134.81-53.18 3.63-94.8-28.9-124.62-45.9 16.78-1.95 34.27-8.31 23.52-10.33-12.34-2.33-26.5-6.86-29.85-27.24-1.9-11.53-21.71-23.5-29.37-26.88-13-5.75-45.26-10.48-55.94-9.57-30.84 2.63-43.45-10.23-24.57-25.07 10.7-8.41 11.18-8.4 19.12 1.13 6.73 8.07 11.3 9.2 26.18 6.5 9.92-1.81 18.03-5.16 18.03-7.46 0-8.45 19.73-23.02 31.18-23.02 13.9 0 21.7 16.16 12.14 26.23-13.91 14.67-2.91 13.54 8.37 7.73 14.56-7.51 13.76-24.5 10.48-34.95-5.52-17.57-36.8-39.35-52.01-37.58-12.1 1.4-29.84 7.05-39.23 17.4-8.86 9.77-22.48 8.74-30.85-2.86-7.02-9.74-7.36-9.75-19.5-1.17-13.07 9.25-16.64 23.14-6.75 26.34 4.4 1.42 4.7 6.64 1.2 20.38-4.15 16.36-7.67 19.53-22.76 18-49.1-4.97-32.8-18.5-32.8-30.48 0-8.44-3.45-19.04-7.66-23.56-6.03-6.46-6.5-10.31-2.26-18.02 6.2-11.24 16.02-12.62 25.36-3.55 9.74 9.45 31.76 13.63 36.08 6.84 5.36-8.43 2.42-33.3-4.44-37.54-8.14-5.02-37.4-4.74-37.4.37 0 2.28-4.22 5.22-9.37 6.53-21.32 5.41-13.75-24.13 11.42-44.57 13.32-10.81 20.17-10.5 28.68 1.3 4.95 6.86 11.16 9.32 20.87 8.24 11.45-1.27 13.6-3.51 12.5-13.05-.73-6.33-4.52-14.94-8.42-19.13-5.47-5.87-5.7-8.82-1.34-13.2 1.2-1.18 4.98-2.03 9.68-1.73Zm68.21 114.12a16.5 16.5 0 0 1 4.75.47c9.18 2.24-8.3 6.75-15.93 11.25-19.13 11.28-28.86 14.2-17.51 2.84 1.93-1.93 7.84-5.14 14.61-9.23 4.9-2.96 9.4-5.11 14.08-5.33Zm-309.55 31.83c7.81 0 14.2 2.49 14.2 5.52 0 3.03-6.39 5.5-14.2 5.5-7.8 0-14.2-2.47-14.2-5.5 0-3.04 6.4-5.52 14.2-5.52Zm159.08 53.4a125.4 125.4 0 0 1 40.88 6.29c31.49 10.38 48.04 20.53 61.61 44.5 7.27 12.82 23.8 35.96 23 48.23-.69 10.7-5.87 38.66-14.38 51.28-4.25 6.3-14.44 15.95-24.87 22.35-23.29 14.3-37.05 4.1-55.84-5.93-22.54-12.04-30.02-18.86-33.44-30.44-2.43-8.21-3.09-16.22-1.47-17.79 1.63-1.57 11.82.58 22.64 4.79 10.83 4.2 24.42 6.3 29.84 7.65 12.02 3 20.57-5.85 28.87-12.24 15.4-11.86 8.73-19.65-10.6-12.56-20.5 7.5-42.48-2.2-19.5-14.11 15.56-8.07 20.97-17.77 21.49-23.71 1.37-15.65-14.06 1.58-30.78 4.03-12.41 1.82-30.04 8.8-41.19 2.63-.54-16.84-1.97-28.07-3.88-46.39-1.54-14.7 5-20.6 7.62-28.58Zm-69.47 3.51c3.78-.54 2.55 2.48-2.16 8.5s-12.67 9.54-17.2 10.96c-4.69 1.48-14.76 8.3-22.29 18.44-7.53 10.15-14.88 13.9-13.47 8.75 7.51-27.5 30.07-43.03 55.12-46.65Zm38.68.47c1.22 19.77-1.62 32.36 4.76 69.7-8.6-2.82-18.14-2.74-22.21-1.24-14.64 5.4-25.6-.84-25.6-10.06 0-8.22-5.75-8.7-13.57-1.1-9.04 8.77-6.95 18.14 6.84 30.54 12.12 10.9 12.25 17.93.33 17.93-12.68 0-8.12 15.78 6.62 22.92 13.45 6.52 16.12 6.58 22.4.48 3.93-3.81 16.15-13.23 24.2-14.6-2.23 8.42-2.67 10.96-5.11 22.8-3.89 18.87-24.29 38.1-40.94 42.56-19.4 5.2-35.68-3.47-45.72-20.93-15.43-26.85-16.67-31.86-13.4-52.36 2.93-18.45 16.9-20.95 27.15-45.87 11.64-28.34 47.07-44.72 74.25-60.77Zm126.31 3.14c16.15-1.62 38.9 19.47 40.67 29.12 4.84 26.52-.18 25.46-8.89 10.1-9.47-16.72-12.6-18.35-22.28-26.1-9.69-7.75-25.4-11.53-9.5-13.12ZM368.31 675.73c3.66-.14 7.4 2.5 7.62 8.07.96 23.61 8.65 33.29 18.42 43.38 11.9 12.3 8.19 10.65-7.64 3.63-15.11-6.7-27.83-33.38-25.66-46.4.92-5.51 3.6-8.53 7.26-8.68Zm295.5 3.9c7.3 1.67.9 21.21-3.31 28.42-6.8 11.67-40.43 33.8-43.52 29.96-2.66-3.3 24.27-21.83 31.65-30.57 9.27-10.96 10.54-28.86 15.18-27.8ZM39.13 698.27c3.96.23.7 22.03 9.61 35.15 8.86 13.05 28.37 22.43 22.94 27.77-4.3 4.23-24.56-4.55-34.1-24.04-6.8-13.9-4.04-34.1-.65-37.57.91-.94 1.63-1.34 2.2-1.3Zm930.52 10.04c2.32-1 2.03 4.38 2.03 11.87 0 8.86-4.34 14.57-19.2 21.18-8.59 3.82-42.8 14.85-43.8 5.77-.23-2.03 9.86-6.28 21.92-9.4 15.42-4.01 22.07-8.13 29.57-15.23 3.94-3.73 5.76-12.6 9.48-14.2ZM864.3 821.45c19.22 0 69.98 8.58 73.72 22.56 3.6 13.43-31.73-3.65-51.08-8.41-11.26-2.77-36.07-4-43.69-7.6-7.62-3.6 1.85-6.55 21.05-6.55ZM84.04 849c3.2-.1 4.38 2.12 2.53 6.8-1.54 3.89-14.12 1.82-32.74 18.61-21.31 19.23-29.82 36.02-29.43 20.98.42-16.35 9.05-24.17 21.68-32.55 9.96-6.6 33.84-13.72 37.96-13.84Zm592.77 52.75c5.66-.12 14.58 8.38 22.08 23.2 13.87 27.46 11.79 26.65-2.99 38.99-21.57 18-90.35 5.57-107.72-22.05 9-4.68 25.23-11.75 48.96-9.02 27.51 3.17 33.85-.79 34-21.2.04-6.72 2.27-9.86 5.67-9.92Zm-357.87 9.2c8.54 1.12 15.5 5.13 15.68 15.01.33 19.1 5.39 20.81 27.83 9.4 11.27-5.74 31.26-10.91 44.65-11.57 23.82-1.17 23.93-1.07 22.14 12.31-1.37 10.29-8.21 19.32-19.73 25.35-40.22 21.07-75.33 20.38-112.91 4.26-15.4-6.6-27.35-12.05-33.17-14.67 13.6-7.4 13.86-17.48 22.44-27.79 5.63-6.75 24.96-13.37 33.07-12.3Z"/></svg>
