<svg viewBox="0 0 1000 1000"><path d="M919.33.49c-16-1-38 2-50.99 10-13 12 15 53.99 38 53.99 15 0 17.99-18 10-31-9-14 13.99-15 24.99-2 6 8 8 15 6 24-5 19-11 30-18 30-4 0-14 6-23 14.99-34.99 31-53.99 52-22 74.99 11 8 20 6 23-10 4-14 16-24 19 4 1 8-39 52.99-49 52.99-3.99 0-17.99-10-29.99-22-31.99-27-49.99-60.99-18-83.98 8-6 11-20 11-35 0-20-18-33-37.99-51.99-29-28-45.99-26-38-18 6 7 12 15 14 36-7 0-30.99-18-36.99-27-15-25-96.98-27-131.97-4-11 7-23 26-4 42 12 11 24 2 34-19 13.99-28 86.98-17 99.97 11 24 51.99 18 143.97 78.99 175.97 3 2 26 18 61.99 13 4-3 5 1 11 53.99 4 40.99 10 91.98 20 116.97 10 25 13.99 43 13.99 62 0 14.99 9 49.98 3 59.98l-3 5c-8-20-16-49.99-19-57.99-28-66.99-52.99-92.98-56.99-95.98-6-7-12-9-13-15s6-10 9-19c7-27.99-4-40.99-37.99-65.98-25-18-36-9-14 11 8 8 8 34.99 11 53.98 0 6 10 14 8 15s-88.98-52.99-219.96-80.98l-28-6-23-2c9-11 29-18 26-47-1-13-5-39.99-50.99-48.98-51.99-10-80.98-17-86.98-48-2-8-8-24-15-35.99-21-35-6-47.99 7-60.99 17-15 59.99-9 41 9-12 11-2 34 13 36 12.99 1 27.99-17 27.99-34l-18-26c-14-8-45-9-63.99-2-31 10-47 49-26 80 13 22.99 20 46.98 23 49.98 5 13 13 16 19 21 13 11 11 14 15 19l-17 14c-18 13.99-26 30.99-14 55.98 14 29 19 15 22 2 6-23 76.98-37 94.98-19 3 3-10 27-10 34l-13-1c-11 0-28 3-40.99 9-12 6-32 6-69.99 18 0-2-1-4-1-7 0-5 2-12-6-17-11-8-13-11-28.99 7-7 8-6 17-5 27-70.99 16.99-101.98 28.99-147.97 44.98h-1c-21-10-66.99-42.99-72.99-50.99-17-12-9-71.98 14-74.98 21-3 24-14 30 2 11 28 3 39.99-8 31-12-11-18-5-17 7.99 2 20 30 27 46.99 6 9-10 0-65.99-11-73.99-4-3-8-8-8-11s-2-6-6-7c-42.99-25.99-5-91.98 3-105.98 6-6 14-16 32-18 27-3 29-11.99 39-15.99 7.99-4 55.98 14 63.98 14 16 0 47-34 38-42-8-5-17 1-19 9-4 23-14 21-46 4-46.99-24-116.98-50.99-147.97 10-5 9 11 28 20 31 27 6-40 45.99-1 110.98 18 20 12 17-5 23-25 9.99-46 11.99-52 60.98-7 48-14.99 60.99-37.99 57.99-19-2-26-8-23-39 3-28.99 17-50.98 43-64.98 20-11 22-16 6-23-16-8-23-3-29 1-6 3-15 12-31.99 16-3-39 37-71.99 44-81.98 1-3 0-35-11-7-2 3-4 5-11 7-1-9-4-26 9-32 25-12 9-33-9-53.99-5-4-4-24-9-29-7-8-6-8-22-14-8-3-20-2-24 8-7 15 12 20 27 25 14 6 11 40 3 57-4 5.99-5 11.99-3 14.99 1 2 0 6-2 7-3 2-5 9-5 15 0 7-4 20-8 27.99-24 45-12 162.97 18 187.97 4 2 20 6 38 8 28.99 3 29.99 2 41.99-9 22-26 24-14 52.99 7 9 7 20 10 32 14l-21 10c-10 9.99-13 18.99-14 34.98 0 8 0 15 5 25 12 25 53.99-4 32-23-41-35.99 68.98-63.98 164.96-82.98 0 5-3 5 1 23 2 10 0 12-1 14-6 20.99 7 16.99 27 3 14-10 18-25 13-42-1-4-1-5 3-8 175.96-53.99 249.95-12 342.93 27-43.99-14-59.99-8-109.98-13-184.96-15-244.95 54.99-262.95 185.97-2 67.98-10 88.98-25 104.98-7 8-26 25-67.98 46.99-49 12-61 10-68 2-8-9-9.99-13-11.99-22-2-16 1-26 12-38 8-8 4-15.99-5-10.99-4 2-13 4-19 5-14 4-21 22-15 41 24 79.98 154.98 27.99 193.97-29 5-11 11-19 14-20 2 0 8 6 26 27 16.99 20 27.99 27.99 46.98 33.99 23 7 27 7 51 0 37.99-10 72.98-53 76.98-85.98 1-16-5-34-18-45-13-6 14 25 0 63-3 6-12 0-14-10-7-22-33.99-17-30.99-11 6 6 5 55.99-7 60.98-20 8-51.99 3-54.99 0-4-6 15-28 37-30.99 5 0-7-22-4-33 4-7-38-32.99-41-22.99 6 14 29 7 9 32-3 4-21 4-26 14-5 10.99 4 31.99-1 31.99-5.99 1-38.98-32-46.98-69-2-101.97 41.99-196.96 149.97-202.95 8 3 5 9-5 8-8-2-34 26.99-46 53.98-9.99 21-26.99 41-8.99 35 7-6 40-32 66.99-36 39-6 53.99-31.99 25-42.99-18-7-18-9-4-18 8-5 23-6 45.99-6 79.98 1 113.98 2 181.96 20 9 4 10 11 9 24-1 11-12 29-19 35-6 6-17 7-21.99 8.99-8 4-8 6-2 10 11 8 39 8 57.99-2 13-7 12-11 19 0 3 6 12 8 18 6 23.99-16 39.99 55.99 48.98 77.98 3 13 8 22 13 32l-11 20c-22 21.99-20 20-33.99-10-8-16-14-32-14-36 0-9-14-25-33-38-14.99-9.99-19.99-10.99-51.98-7.99-34 3-45 4-56-9-9.99-11-11.99-12-18.99-6-12 12 6 27 24 27 16 0 18 10 4 19-20 12-3 25 19 13 8-4 23.99-7 36.99-8 19-1 25 1 32.99 10 11 13.99 11 21.99 1 30.99-6 0-18-3-24-5-39.99-14-107.98 32-73.98 30 23 1 11 2 3 15.99-2 5-8 39-3 49 4 11.99 18 2.99 16-11-1-7 0-13 3-15s9-7 9-12c0-12 13.99-16 47.98-12 36 4 36-5 45-19 10-16 13-6 17 3 6 13 18.99 51 12 72.99-9 28-10 37-12 113.98-2 99.98-7 110.98-71 152.97-18 12-42.99 22-52.99 25-16 3-32.99 2-49.99-1 6-4 23-14 34-20 29-15 46.99-38 55.99-49.99 6-6 13-12 15-18 6-17-11 3-10-14 1-21-1-23.99-15-35.99-24-19-34-15-17 9 14 20 10 35-9 56.99-2 1-1 2-6-1-2-2-3.86-13-.86-21 4-15-9.6-16.49-11.6-7.5-2 10 3 19 0 21s-10.53-4.5-14.53-1.5c-14 9-15 20-19 30-8 20-9 25 14 11 11-7 15-5 23-4 11 1-17 23-52 41.99-26.99-7-54.98-20-77.98-35 0 0-13-8-28-24-59.98-76.98-12-159.96 50-166.96 11-2 23-1 32 1 9.99 8 20.99 19 18.99 35-6 8.99-7 20.99-6 23.99 10 24-1 46.99-17 54.99-20 9-23 7-37 0-18.99-10-13.99-43-2-41 24 1 1-55.98-25.99-26.99-13 19-15 50-1 76.99 5 9 29 25 58 15 20.99-3 58.98-32 69.98-44 7-8 12-14 15-20 7-17 13-23 20-22 6 0 18 1 26.99 2 49.99 6-23-75.98 36-99.97 22.99-9 16.99-26-26-10-11 6-12 5-21 12-15 11-31 33.99-37 72.98-3 17-9 34-12.99 39-4 5-12 16-16 25-2 5-7 7.99-14 11.99 20-30 18-59.99 13-83.99-1-4-2-7-3-11 1-3 0-11-3-27.99-1-9-26-38-27-40-12.99-20.99-19.99-29.99-1.99-29.99 8 0 17-3 20-8 4-4 10-7 13-7 8 0 9-6 2-13-3-2.99-1-9.99 7-20.99 16.99-23 15.99-26-7-16-11 4-21 7-22 5-1-1 4-8 10-15 7-7 11-14.99 10-17.99-6-8-23-5-33 6-13 15-25 60.99-29 79.99-5 24 28 51.99 34 73.98-24-15-55-23-66.99-23-22 1-46 10-62.99 23-2 1-7 7-25 26-16-11-34.99 13-54.98 18-7 0-9-2-9-11 0-8 0-15 8-12 5 1 7-4 5-16-4-20 1-28-18-9-11 10-17 7-36-1-11-5-16-9-14-24 4-21.99 3-27.99-6-4 0 13-1 16-1 26-3.99 24-2.99 62 52 65 39-2 60.99-32 58.99-15-10 13-14 20-20 28.99-50.99 58.99-78.98 82.98-133.97 125.98-63 49.99-82.99 50.99-150.98 50.99-11-10-26-13-35.99-12-6 0-12-2-17-9-3-8-1-12-9-21-8-8-13-11-21-24-5.99-8.99-2.99-16.99-1-19.99 5 3 10 5 18 11 19 14 19 13 21-3 1-8 4-14 9-13 12 4 11-2 0-11 3-9 20-14-21-9-6 1-8 10-24 13 .2-14.91-10.06-39.8 3.15-56.49 23.16-29.27 36.61-40.32 83.93-43.92 5.27-.4 9.91 5.43 14.91 17.43 3 5 4 16 2 19-7-1-14-3-18-6-15-10-22-2-22 18 0 17 4 20 24 16 12-2 24-24 28-37 0-7-7-29-8-33-2-5-13-11-18-17-6-4-11-4-54.99 7-20 7-35 14-45.99 31-29-14-28-15-36-21-2-3-3-7-4-10 17-5 27-11 32-16 12-10.99 21-11.99 40-12.99 24-1 35.99-9 38.99-17l-6-5c-4 1-12-3-16-9-8-13-27-12-36-3-16.99 16-32.99 8-47.98 9 9-24.99 28-46.99 54.99-46.99 7 0 24-9 12-9-7-1 5-6 13-8 7-3 20.99-10 28.99-17.99 14-12 16-17 16-41 8-39.98 6-25.99-18-19.99-10 3-15 13-21 16-4 1 9-10 13-35 4-64.98-11-75.98-48-94.98C-25.5 399.41-33.5 565.4 89.49 531.4c7-5 17-23 17-31 0-22.99-23-40.99-41-31.99-10 5-13 18-1 30 3 3 11 14 1 20-20 10-31.99-18-32.99-22-7-30-5-55 40-57 24.99 3 42.99 11 52.98 39 9 33 10 70.99-42.99 112.98-28 17-25 41-19 35 3-2-1 2-5 7-8 18-20.99 43.99-23.99 71.98-13 25-8 32 0 32 1 5 2 9 4 13 4 7 34 22.99 41 35.99-3 7-5 16-7 25-2 9.99-5 19.99 0 30.99 3 6 5 6 8 14 1 3 1 5 0 8h-1c-7-1-12-32-16-37-2-3-14-2-28 9-9 8-28 3-31 8-10 16 24 17 39 45.99 8 15 13 18 16 4 3-16 7-22 12-26 1-1 4 1 8 3-1 4 0 10 3 19 3 8 13.99 18 19.99 23 2 2-1 16-10 17.99-4 1-24-7-31-5s-18 6-27.99 5c-17-3-26 3-30 33-3 17-4 22.99 5 24.99 2 0 5 3 9 6 9 5 15 3 11-11-3-15 6-17 11-3 7 18 0 17 23 18 13 0 26-4 31.99-16 7-16 11-26-10-13-22 13-24 1-22-12 3-16 3-10 47-2 7 1 35 4 66.98 7 77 7 104.99-10 142.98-37.99 5 13 17 41 22 45 14 13 41.99 24.99 47.99 20.99 2-1 2 1 4 3 10 3 12 5 38.99-9 33-16 39-23 39-46 0-21.99-7-23.99-12-3.99-3 16-28 37-38 33-4-2-14-1-15-13 0-19-4-20-7-21-16-4-20-11-28.99-10-10 2-1 12-7 25 1 3-2 2-3 2-1 1-3-3-6-11-1-5-2-11-5-15-2-2-3-13-3-20 2-1 4-3 6-4C502.41 777.36 500.41 745.36 547.4 711.37c39-16 61.99-9 72.98-4-64.98-8-125.97 72.99-99.98 158.97 7 21 22 37 39 51 2 8 6 23.99-4 27.99-9 2-33-17-48 23-5 10-25.99 21.99-22.99 25.99 33 2 47-17 50-17 3.99-1 8.99 5 6.99 9-12 28 13 4 24 6 21 6 21 8 25 2 6.99-26-13-51-22-51-1-6-1-10.99 6-15.99 15 10 29.99 18 43.98 27 27 16 83 20 119.98 15 20-5 41-9 47-9 5 0 16-6 25-13 8.99-6 15.99-10 29.99-25 2 1 5 3 8 5 19.99 11-7 24 22.99 35 19 7 21 6 38-8 19.99-16 26.99-18 49.98-10 19 7 5 16 2 19-4 3-6 9-20 5-38.99-11-40.99 23.99-2 29.99 15 3 27-2 30-4 21-10 29-31 29-41 1-13-7-19.99-22-34.99-26-25-30-28-49.99-28-29-1-47 1-50 4-7.99 20-19.99 20-29.99 19 4-11 8-22 11-32 1-.99 3-2.99 14-5.99 23-6 26-29 33-43 11.16-6.69 22.95-6.05 32.95-3.05-6 7-6.2 28.14 5.04 25.05 14.96-4.11 40.99 14 49.99 4 4-3-4-33-8-35.99-8-4-12-15-22-16-35.99-4-10 9-21 17-10-4-17.92-7.08-29.92-2.08 14.79-28.59 28.91-57.92 34.93-85.9 1 9 3 11 4 13 10 11 19 10 23-1 1-4 9.99-10 12.99-12 6-4 8-44 1-50-12-10-6-41.99 11-62.98 4-5 0-23-3-32-7-17-3-26-1-42 1-12.99-6-11.99-15 5-8 14-5 15-4 29 2 16 8 15-4 40-7 15-12 29-12 31.99 0 4-4 13-8 21v1c-1-42-8-84.99-19-123.98 4-9 8-19 13-28 18-13 19-11 16 6-3 12-8 18-2 18 4 0 14-10 16-14 1-6 3-5 9-11 5-6 11-21 13-31.99 4-30-11-24-47-2-3-2-5-9-5-16-1-7-5-30-10-49.99-10.99-40-14.99-45.99-9.99-48.99 3-2 6-3 9 15 4 18 27 23 46.99 9 14-10 17-14 14-37-2-13-16-35-20-41.99-9-17 17-29 12-49.99-9-37 9-45 10-61.99 0-8-23 14-22 22 2 6 1 12-12 25-20 19.99-29 41.98-38.99 77.98-7 27-12 29-15 7-14-99.99 6-131.98 34-156.98 31-25.99 20-48.99 28-55.99 10.99-9 26.99-96.98-31-123.97-3-1-11-2-21-2zm3 572.9c4 16 12 82.98 13 105.98 0 24-8 66.98-25 100.98-9 19-21 49.99-24 57.99-8 20-13.99 20-24.99 28 12-45 8-69 9-98.99 2-20 11-121.98 19-144.97 4-11 11-14 33-49z"/></svg>
