<?xml version="1.0" encoding="UTF-8"?>
<svg version="1.0" xmlns="http://www.w3.org/2000/svg" xmlns:xlink="http://www.w3.org/1999/xlink" x="0px" y="0px" viewBox="0 0 1000 1000">
<path d="M 919.62695 0.0078125 C 903.37317 -0.16114957 881.98635 2.5203195 868.41992 10.947266 C 855.96833 22.312171 883.60071 64.984375 906.25781 64.984375 C 921.29678 64.984375 924.70546 46.832437 916.34375 33.443359 C 907.51302 19.302915 930.79415 18.046517 941.66602 31.472656 C 947.78179 39.025413 949.62889 46.58064 947.51953 55.421875 C 942.92495 74.679357 936.4474 85.412109 929.41992 85.412109 C 925.97287 85.412109 915.77521 91.99794 906.75977 100.04688 C 871.3684 131.64429 852.90474 152.09787 884.63477 175.10352 C 895.59157 183.04772 904.13307 181.35664 907.97852 165.20898 C 911.14947 151.89348 923.67262 141.52519 926.35156 169.18359 C 927.14159 177.34021 887.38957 222.00781 877.74023 222.00781 C 873.00384 222.00781 859.5026 212.19972 847.73828 200.21289 C 815.05711 173.21716 797.91595 139.79778 829.59375 116.34961 C 837.74327 110.41261 840.26562 96.733924 840.26562 81.171875 C 840.26563 61.258906 822.78316 48.664265 802.71484 29.435547 C 773.19637 1.1518922 756.11126 3.5262563 764.34375 11.927734 C 770.90765 18.321819 776.9305 26.279812 778.63477 47.296875 C 771.04268 47.296875 747.16304 29.760446 741.16992 20.027344 C 726.05154 -4.5256601 644.12627 -6.115986 609.88867 16.201172 C 598.47498 23.641085 586.41222 42.078051 605.02148 58.560547 C 617.67343 69.766513 629.85562 60.073144 639.87305 39.066406 C 653.57549 11.206836 726.20935 22.54755 739.22461 50.748047 C 763.0206 102.30747 757.09937 194.0159 818.06836 226.63867 C 821.1981 228.31325 844.05265 244.47007 880.01953 239.15039 C 884.27944 236.72703 885.48877 240.47667 891.125 293.22852 C 895.52049 334.36764 901.08274 385.22695 911.50195 410.5918 C 921.69808 435.41345 925.73863 453.22244 925.50391 472.3125 C 925.32271 487.07008 934.16863 522.16121 928.46289 532.95508 L 925.89258 537.81836 C 917.07347 517.13817 909.3706 487.52566 906.125 479.54297 C 878.98831 412.79874 853.40672 386.75527 849.92969 383.33789 C 843.17277 376.69692 837.87765 374.45935 836.65039 368.32617 C 835.42368 362.19318 842.79188 358.63325 845.18945 349.7793 C 852.75757 321.83104 841.65034 308.13954 807.68555 283.73828 C 782.31059 265.50819 771.47578 274.00466 793.33789 294.35352 C 801.70316 302.1397 801.76867 329.67719 804.05859 348.39258 C 804.85762 354.92292 814.47536 362.68425 812.96875 363.22266 C 810.774 364.25982 723.39209 310.23371 592.72852 282.28711 L 564.72656 276.5 L 541.00391 274.56641 C 550.69919 263.41276 570.29923 256.80307 567.66602 227.08984 C 566.58571 214.89945 562.34773 187.44093 516.74609 178.78906 C 464.09393 168.79948 435.26639 161.22989 429.14258 130.06836 C 427.73493 122.90539 421.79388 106.9853 414.55078 94.708984 C 393.77777 59.50114 408.1761 46.238109 421.85352 33.953125 C 438.88332 18.657143 481.58383 24.552311 462.17969 42.607422 C 450.10641 53.841414 460.15406 76.706035 475.61523 78.46875 C 488.22654 79.399892 503.77148 61.166632 503.77148 44.166016 C 503.77148 29.707877 503.13566 29.070068 485.01953 18.0625 C 471.81357 10.038457 440.51214 9.6786314 421.74414 16.007812 C 390.85886 26.423322 374.66813 65.672442 395.71289 96.642578 C 408.09361 119.27061 415.87247 143.36816 418.06836 146.86133 C 423.11753 159.28497 431.15573 162.01401 437.90625 167.55273 C 450.75495 178.09473 448.21583 181.7045 452.66016 186.11719 L 435.4668 200.28906 C 417.87551 214.78943 409.04932 231.51222 421.34961 256.4375 C 435.92998 285.98308 440.58819 271.00921 443.94727 258.16406 C 449.89837 235.40696 520.53159 221.22518 538.48828 239.18164 C 541.5483 242.24163 528.4412 266.64049 528.08008 273.51367 L 515.28906 272.4707 C 504.98809 272.4707 487.84839 275.91231 474.56641 281.96289 C 462.62614 287.40225 442.87999 287.86459 404.64648 299.23828 C 404.00017 297.32284 403.63867 295.05386 403.63867 292.27344 C 403.63867 287.48129 405.09477 280.03131 397.99414 275.0957 C 386.78987 267.30767 384.91712 264.80576 368.67969 282.77734 C 361.5827 290.63233 362.21158 299.81023 363.02539 309.99023 C 292.80566 326.84055 261.97955 338.99116 215.72266 354.31445 L 214.99609 354.68945 C 193.06584 344.84753 147.1921 311.27784 141.18359 304 C 124.32997 291.89959 132.36366 231.71252 155.41602 228.73047 C 176.97456 225.94165 179.61714 214.36828 185.98438 230.65625 C 196.69479 258.05449 188.2396 270.68681 177.71875 261.55664 C 165.35533 250.82749 159.60758 256.73288 160.71094 269.0918 C 162.51326 289.28134 190.75221 296.11661 207.98242 275.35547 C 216.24438 265.40037 207.44576 209.18371 196.34766 201.01953 C 192.29817 198.04062 188.98438 193.33538 188.98438 190.56445 C 188.98438 187.79334 186.17066 184.44715 182.73242 183.12695 C 139.25667 157.84452 177.56738 91.936122 185.38477 77.501953 C 191.54011 71.045362 199.66455 61.024025 217.17383 59.320312 C 244.63397 56.647475 246.78683 47.784208 256.18555 43.556641 C 264.36962 39.875405 312.71187 57.703357 320.86328 57.740234 C 336.77785 57.803663 367.29566 23.179517 358.30273 15.478516 C 350.67635 10.878123 341.56364 16.139789 339.91211 24.390625 C 335.27499 47.557426 325.80176 45.345666 293.52148 28.597656 C 246.67243 4.5990965 176.58696 -22.56671 145.07812 38.09375 C 140.00541 47.859673 156.90848 66.802377 165.82031 69.132812 C 192.65904 75.513806 125.11768 115.21123 164.11523 180.82812 C 182.72405 200.02753 176.99145 197.86162 159.94336 203.99609 C 134.18837 213.26363 113.437 215.1216 107.11523 264.36719 C 100.95561 312.34974 92.455076 325.36353 69.708984 322.75781 C 50.260333 320.5299 43.29399 314.38706 46.349609 283.16211 C 49.156992 254.47373 63.977666 232.50618 89.904297 218.60156 C 109.72305 207.97272 111.1942 202.0972 95.792969 195.08008 C 79.075881 187.46389 72.780233 192.60778 66.091797 196.30469 C 60.553422 199.36602 51.250332 208.34169 34.875 212.22852 C 31.025808 173.11264 71.882042 140.0215 78.011719 130.55078 C 79.78688 127.80806 78.587307 95.349263 67.669922 123.05469 C 65.977623 126.84342 63.093045 128.17245 56.939453 130.86133 C 55.05462 121.35373 52.493399 104.15746 65.515625 98.298828 C 90.706691 86.965453 74.778614 65.19315 56.164062 44.853516 C 51.892335 40.185823 52.74355 20.816082 47.597656 15.257812 C 40.267249 7.3397905 41.929437 7.6374786 25.783203 1.84375 C 17.304855 -1.1984093 5.8766387 -0.25383597 1.4511719 9.4589844 C -5.4569948 24.620734 13.722607 29.142432 28.728516 34.847656 C 42.883305 40.229286 39.860393 74.969694 31 91.525391 C 27.990753 97.148195 26.764066 103.7471 28.273438 106.18945 C 29.782864 108.63181 28.787501 112.00809 26.060547 113.69336 C 23.333611 115.37882 21.101562 122.22537 21.101562 128.9082 C 21.101562 135.59103 17.467949 148.08491 13.027344 156.67188 C -10.139402 201.47085 1.701965 319.9033 31.757812 344.01562 C 35.288701 346.84814 51.623803 350.61261 69.064453 352.38086 C 98.523854 355.3677 99.669758 354.71759 111.93555 343.2168 C 133.17214 317.66129 135.94209 329.31737 164.55273 350.80664 C 173.55888 357.57109 184.91053 360.84187 196 364.5 L 175.76953 374.94922 C 165.82499 384.89381 162.47929 393.27902 161.99805 409.46484 C 161.6384 417.22098 161.462 424.01048 166.2207 434.07031 C 178.39137 459.79895 220.50024 430.85641 198.75977 411.83789 C 157.13858 375.57041 267.53261 347.03547 363.19141 328.51172 C 363.02036 333.10993 360.67973 333.58937 364.91602 351.95312 C 366.92688 361.2544 364.35592 363.02954 363.54297 365.82812 C 357.67477 386.02947 370.94569 382.92069 390.67188 368.47656 C 404.25522 358.53031 408.12915 343.38892 403.24219 326.00977 C 402.36246 322.88152 402.98965 321.07055 406.72656 318.45898 C 582.01533 264.08136 656.7068 306.31429 749.03125 345.41016 C 705.05501 331.07635 689.13585 337.13408 639.02148 332.05078 C 454.5379 317.53641 394.79437 387.41305 376.22852 518.65625 C 374.34405 586.2527 366.01491 607.40209 351.74609 623.92773 L 351.74609 623.92969 C 344.86688 631.89694 325.14781 648.84529 283.89453 670.46289 C 234.75015 682.4984 222.83193 680.47362 215.51172 672.45898 C 207.46216 663.64578 205.00453 659.52541 203.62109 650.26562 C 201.33198 634.94438 204.48153 624.45158 215.88477 612.60156 C 223.42692 604.76393 219.54235 596.26801 210.48438 601.08984 C 206.44333 603.24106 197.509 605.37979 191.14648 606.97656 C 177.01681 610.52283 170.99195 628.07778 176.7207 647.14258 C 200.81909 727.34023 331.67719 675.3195 370.70312 618.18945 C 375.33855 607.00432 381.87755 599.36843 384.64648 598.96094 C 386.75654 598.42512 392.40426 604.01682 410.38086 625.05859 C 427.71436 645.34771 438.45939 653.12478 457.76367 659.35938 C 480.62414 666.74287 484.94319 666.77937 508.98242 659.79102 C 546.06214 649.01172 581.99471 606.94891 585.40625 573.41602 C 586.99561 557.08711 580.77068 539.54866 567.77148 528.9707 C 554.28485 522.80101 581.3253 553.13215 567.6582 591.75 C 564.27467 597.02229 555.97926 591.40012 553.25391 581.9707 C 546.86563 559.86798 519.52884 564.82348 522.88281 570.16602 C 528.41084 576.99045 527.36332 626.02 515.20508 631.25781 C 495.98198 639.53907 463.02977 634.60483 460.50391 631.04492 C 456.52024 625.43041 475.681 603.23009 497.00586 600.83789 C 502.50575 600.36992 490.04094 578.08789 493.4082 567.36133 C 497.66337 560.27359 455.02763 534.71133 452.76758 544.28125 C 458.68217 558.62618 481.7978 551.74151 461.74219 576.93359 C 458.20462 580.74722 440.10243 580.60091 435.32227 590.92773 C 430.54208 601.25455 439.08309 622.05591 434.5625 622.63672 C 428.68124 623.1576 395.31192 590.35469 387.50586 553.34375 C 385.67732 451.55726 429.41593 356.21875 537.79688 350.34961 C 545.97954 353.86527 542.53462 359.96337 532.1582 358.25781 C 524.23203 356.95495 498.77703 385.45973 486.21289 412.22461 C 476.10193 433.76348 459.46845 453.86931 477.18555 447.00781 C 484.59157 441.48347 517.1203 415.88681 544.98828 411.70312 C 583.28235 405.95439 598.38198 379.26792 569.50781 368.36914 C 551.97412 361.75103 551.54862 359.68371 565.84961 350.61328 C 573.29734 345.88954 588.04093 344.04332 611.71289 344.87305 C 691.4815 345.06536 725.38831 346.49779 793.43945 364.6875 C 802.46028 368.80462 803.47043 375.11313 802.1543 388.61523 C 801.13839 399.03757 790.33913 417.33896 783.72266 423.57227 C 777.10619 429.80557 766.47938 430.44014 761.06445 432.91016 C 753.71323 436.26337 753.39361 438.6138 759.76953 442.87695 C 770.97116 450.36702 798.10081 450.66636 817.26758 440.29492 C 830.05311 433.37645 829.63359 429.11834 836.15625 440.67188 C 839.34802 446.32455 848.87707 448.86144 854.04102 446.0918 C 878.81845 430.63983 894.36721 502.99938 903.67383 524.21484 C 906.4971 537.12715 911.88132 546.45489 916.17188 556.20703 L 905.38867 576.60352 C 883.71596 598.04171 885.75843 596.74673 871.31055 566.54492 C 863.8455 550.9401 857.59932 534.8804 857.42969 530.85547 C 857.01589 521.00381 843.72663 505.53248 824.11133 492.06836 C 809.58275 482.09574 804.41976 481.31167 772.81445 484.27344 C 738.90283 487.45112 727.21423 488.32859 716.23828 475.70508 C 706.10567 464.05161 704.06161 463.42461 697.51367 469.97266 C 685.85064 481.63553 703.77641 496.70508 721.07031 496.70508 C 737.65627 496.70508 739.98457 506.11648 725.61914 515.08789 C 705.13467 527.8803 722.41562 540.16377 744.69141 528.64453 C 752.15724 524.78389 768.7758 521.08164 781.62305 520.41602 C 800.96911 519.41444 806.54587 521.13762 814.08594 530.44922 C 825.10099 544.05237 825.56387 552.17826 815.87305 561.86914 C 809.29519 561.26159 797.19186 558.88977 791.28711 556.76953 C 751.76891 542.57967 683.06201 588.66547 717.58398 586.84375 C 740.42407 587.56248 728.2429 588.77736 720.94922 602.61523 C 718.31654 607.61021 712.84837 641.04606 717.11914 651.45898 C 721.93974 663.21257 735.89912 654.07199 733.30469 640.5 C 732.04202 633.89498 733.40986 627.00575 736.3457 625.19141 C 739.28153 623.37688 745.13477 618.85714 745.13477 613.83008 C 745.13477 601.36974 759.95684 597.65198 793.91992 601.59375 C 829.20493 605.68911 829.29933 596.62473 838.79102 582.03125 C 848.60823 566.93717 851.75141 576.05748 855.81836 585.29883 C 861.59643 598.42829 874.85573 636.62846 867.51367 658.875 C 858.35935 686.61288 857.37499 695.9255 855.52148 772.3418 C 853.09677 872.30749 848.07274 883.17661 784.91797 925.125 C 766.68998 937.23224 741.2379 947.86413 731.20508 950.10938 C 715.49537 953.51489 698.44428 952.94626 681.11719 949.62695 C 687.92107 945.32929 704.05124 935.31334 715.88672 929.38086 C 744.84806 914.86409 762.45123 891.35241 771.73242 879.66797 C 777.01218 873.02109 784.08196 867.21809 786.05273 861.61133 C 792.23164 844.03304 775.83428 864.12788 776.41602 847.21484 C 777.11537 826.88295 775.76239 823.19475 761.53906 811.8457 C 737.06525 792.31754 727.39572 796.30219 744.01758 820.0332 C 758.78089 840.74271 754.91862 855.64399 735.08789 877.22656 C 733.69483 878.44627 734.39889 879.60632 729.71289 876.02539 C 727.87218 874.61891 723.45886 863.7015 726.00586 855.81445 C 730.99239 840.37299 723.58936 839.92009 721.78516 848.10547 C 719.44277 858.73265 724.18774 867.07195 721.83789 869.18555 C 718.92235 871.80842 706.27849 864.93598 702.11914 867.61914 C 688.28 876.11134 687.16055 887.40221 683.20508 897.62891 C 675.59063 917.31582 674.86821 922.2068 697.91797 908.29297 C 708.35249 901.7936 712.96347 903.1119 720.95117 904.20898 C 731.91139 905.71506 703.99185 927.91507 668.44727 946.74219 C 641.14223 939.53451 613.78818 926.24011 590.48438 911.46484 C 590.48438 911.46484 577.36516 903.54198 562.9043 887.47656 C 502.52222 810.06182 550.15244 727.81203 612.05078 720.11914 C 623.85428 718.25824 635.23525 719.53147 644.10938 721.35156 C 654.80673 729.18824 665.1305 740.67208 663.88672 756.37695 C 657.30786 765.36606 656.15433 777.23329 657.60156 780.51367 C 667.99655 804.07616 656.63956 827.42433 640.33789 835.22656 C 620.57776 844.68493 617.40246 842.86725 603.60156 835.73047 C 584.12433 825.65828 589.50005 792.30409 601.21875 794.29102 C 625.22247 795.88557 602.35428 738.13568 575.61523 767.42773 C 562.62668 786.30171 560.27075 817.0795 574.64648 844.33594 C 579.95101 853.14966 603.39311 869.80106 632.82812 859.79297 C 653.80255 856.07619 691.93086 827.5326 702.19922 815.01367 C 709.54522 807.70449 714.18015 801.66599 717.13867 795.19336 C 724.92104 778.16711 730.60784 772.57982 737.81836 773.26758 C 743.18472 773.77869 755.25928 774.8773 764.65039 775.70703 C 814.6887 781.50979 741.49179 699.35477 800.39258 675.24023 C 823.85369 666.66949 817.50348 649.58479 774.16406 665.43945 C 763.90038 671.69857 762.68185 670.23468 753.23047 677.16016 C 738.79189 688.64915 722.427 711.98245 716.23242 750.44727 C 713.52983 767.22902 707.74712 784.90612 703.38281 789.72852 C 699.01851 794.55109 691.80866 805.77617 687.36133 814.67383 C 685.11987 819.15819 680.0253 822.43447 673.4375 826.73828 C 693.75522 796.17802 691.79397 766.2699 686.38867 742.15039 C 685.6017 738.63874 684.70095 735.12781 683.45703 731.60938 C 684.31924 728.77371 683.9381 720.90166 680.98633 703.94531 C 679.36848 694.6516 654.45168 665.4 653.12891 663.24805 C 640.3834 642.51235 633.93524 633.30078 651.84375 633.30078 C 659.56472 633.30078 668.61481 630.00717 671.95508 625.98242 C 675.29533 621.95768 681.05379 618.66602 684.75 618.66602 C 692.64829 618.66602 693.48336 612.8721 686.58008 605.96875 C 683.31196 602.70072 685.73801 595.58952 693.89648 584.53125 C 710.64302 561.8326 709.31262 558.91941 686.38867 568.0918 C 675.54463 572.43129 665.74323 575.05182 664.60742 573.91602 C 663.47156 572.78002 668.06631 565.89109 674.81836 558.60938 C 681.57035 551.32766 685.75367 543.20168 684.11523 540.55078 C 678.8969 532.10726 661.79278 535.35743 651.7168 546.70703 C 638.93067 561.10949 626.48489 607.72379 622.61328 626.46094 C 617.74034 650.04434 650.07588 678.54019 656.9707 700.46484 C 632.79339 685.17319 601.86155 677.03203 589.02148 677.74023 C 567.89921 678.9061 543.24857 687.74245 526.75781 700.05859 C 524.71472 701.58439 519.43961 707.0052 501.48633 726.08594 C 485.42467 715.67994 466.41101 739.82773 446.25195 744.64453 C 439.09712 744.71552 437.78711 742.25448 437.78711 733.31055 C 437.78711 725.72184 437.65516 718.9787 445.71484 721.26562 C 450.5884 722.64869 452.88067 717.24301 450.44141 705.32422 C 446.45234 685.83275 451.29188 677.41865 432.30664 696.44141 C 421.77558 706.99354 415.16031 703.72827 396.99609 695.50195 C 385.22923 690.17269 380.1046 686.9185 382.88867 671.10938 C 386.68227 649.56755 385.01557 643.07591 376.80664 667.45117 C 376.7989 680.6 375.32245 683.72267 375.64844 693.46094 C 371.97224 717.22514 372.87517 755.15289 427.89453 758.84961 C 466.29726 756.03398 488.48341 726.61455 486.9375 743.70703 C 476.90818 756.63896 472.12708 763.86451 466.08398 772.67773 C 415.56602 831.14218 387.46281 855.46919 332.63477 898.67969 C 269.65283 948.31598 249.78521 949.34016 181.00977 949.04883 C 170.26651 939.23146 155.92952 936.69565 145.87695 937.49219 C 139.46633 937.99998 133.65329 935.10134 128.19727 928.00586 C 125.14273 920.02847 127.56056 916.16387 119.35742 907.95508 C 111.15429 899.74628 106.24751 896.34712 98.203125 883.51562 C 92.475536 874.37957 95.307123 866.98498 97.416016 863.4707 C 102.20241 866.52221 107.45936 868.8081 115.42969 874.50391 C 134.47586 888.10724 134.39384 887.303 136.20117 871.12695 C 137.02303 863.77112 140.32456 857.25069 145.99219 858.38281 C 157.67283 862.45144 156.21439 856.52098 145.48047 847.69727 C 148.09827 838.02796 165.79674 833.81963 124.23242 838.70508 C 118.17704 839.41652 116.41301 848.4873 100.1582 851.20312 C 100.29714 850.30938 100.3065 849.15631 100.11719 847.62695 C 98.995448 838.56446 107.03129 826.52634 100.87305 825.42188 C 99.228098 817.19722 102.15359 805.55983 105.79297 798.54492 C 117.68309 775.62667 159.55291 752.50213 186.31055 750.38281 L 191.91992 749.93945 C 193.13625 751.71803 197.31645 756.339 202.87695 768.28711 C 205.51531 773.95619 206.11313 784.40452 204.0332 787.92773 C 197.12705 786.1794 190.60908 784.38916 186.98047 781.92578 C 171.97165 771.73706 164.16016 779.37637 164.16016 799.47852 C 164.16016 816.47397 168.67169 819.48822 188.25195 815.57227 C 200.0511 813.21233 212.24449 791.89972 216.91992 778.46289 C 216.72554 771.92075 209.49303 749.95161 208.11328 745.20703 C 206.65506 740.19233 195.08673 734.41336 190.07812 728.6543 C 184.90673 724.52372 179.83427 724.72441 135.72852 735.46094 C 115.40966 742.27852 100.31112 749.82308 89.066406 766.76367 C 60.027354 752.91564 61.101835 751.22239 53.320312 745.34961 C 51.653204 742.36395 50.33963 738.95481 49.371094 735.23047 C 66.886051 730.24366 76.149262 724.59334 81.865234 719.11719 C 93.131475 708.32351 102.29891 707.25495 121.70898 706.38281 C 145.10949 705.33145 157.28187 697.82423 160.62891 689.11133 C 162.76325 683.55601 162.85872 683.60945 154.06641 684.83008 C 150.49171 685.32589 142.50016 681.21596 138.67383 675.07227 C 130.82185 662.46498 111.83036 663.50302 102.08594 672.63281 C 85.180268 688.47218 69.701264 680.69731 54.130859 681.14453 C 63.496376 656.13041 82.268386 634.67056 109 634.59375 C 116.05818 634.82589 133.4477 625.89629 121.61719 625.16797 C 114.81672 624.74905 126.25041 619.63287 134.07812 617.20508 C 141.70253 614.84035 155.26755 607.86191 163.76953 599.91992 C 177.568 587.03016 179.22656 582.54717 179.22656 558.16602 C 187.00169 518.88715 185.98563 532.60832 161.23828 538.7793 C 151.68682 541.50321 146.8489 551.03121 140.35938 554.17773 C 136.82863 555.88974 149.07951 544.71892 153.02344 519.02734 C 157.59724 454.75627 142.67352 443.68088 105.10938 424.18555 C -25.020513 399.91041 -33.498835 565.0019 89.230469 531.41406 C 96.665514 526.23747 106.04883 508.83709 106.04883 500.60156 C 106.04883 477.52972 83.155304 459.08695 65.802734 468.17969 C 55.359733 473.65203 52.321073 486.55058 64.582031 498.4668 C 67.845913 501.63895 75.103714 512.04548 65.109375 518.75781 C 45.935438 528.02959 33.284404 500.32323 32.292969 496.1543 C 25.643493 466.81891 27.332975 441.67258 72.958984 439.63477 C 97.449113 442.91957 115.51364 450.7442 125.11328 478.875 C 134.04542 511.39692 135.96751 549.59638 82.876953 591.34766 C 54.723585 608.09345 57.059345 632.52487 63.652344 626.61719 C 66.482111 624.08153 62.767848 628.04214 58.349609 633.30078 C 50.808534 651.29739 37.872702 677.26852 34.150391 705.10547 C 21.713754 730.4617 26.024811 737.2997 34.783203 737.73633 C 35.64741 742.15468 36.865695 746.56166 38.505859 750.93359 C 42.306625 757.79462 72.209951 773.8971 79.388672 786.23828 C 76.653924 793.56682 74.243217 802.04161 72.115234 811.92188 C 70.157274 821.10828 67.115053 831.79052 72.498047 842.20898 C 75.920259 848.83244 77.244111 848.20257 80.541016 856.68555 C 81.73854 859.76687 81.113851 861.79875 80.355469 864.58789 C 80.187272 864.43756 80.033697 864.30823 79.857422 864.14648 C 72.906589 863.91693 67.028281 832.6568 63.832031 827.64062 C 61.046941 824.53172 49.472785 825.70953 35.285156 836.76172 C 26.498315 844.73948 7.6221904 839.70216 4.9414062 844.24023 C -5.7990256 860.83834 28.218726 861.76251 43.082031 890.64062 C 51.733387 905.55659 56.658866 908.99796 59.246094 894.14062 C 62.156713 878.83745 66.231441 872.58468 71.384766 868.70117 C 72.640396 867.75493 75.858576 869.5909 79.183594 871.5332 C 78.982079 875.73046 79.579542 881.55344 82.318359 890.48633 C 85.235561 898.63741 96.263026 908.30414 102.77148 913.74219 C 104.44846 915.38874 101.13904 929.34536 92.417969 931.11914 C 88.057424 932.00603 68.695168 924.51748 61.382812 926.41406 C 54.719932 928.14211 43.37761 932.9344 33.892578 931.23438 C 16.338495 928.0873 7.2481761 934.61166 3.2207031 964.63867 C 0.91650581 981.81759 -0.095534866 987.74608 8.1953125 989.26172 C 10.848291 989.74702 13.44554 992.90965 17.25 995.19141 C 26.384259 1000.6698 32.266929 998.91312 28.751953 984.27539 C 25.178472 969.39409 34.003281 967.43442 39.521484 981.44727 C 46.746553 999.79426 39.831408 998.64097 62.175781 999.4707 C 75.206637 999.95416 88.895132 995.54055 94.453125 983.35938 C 101.83597 967.17872 105.17141 957.9014 84.886719 970.14453 C 62.782931 983.4853 60.723606 971.06244 62.949219 958.61133 C 65.755016 942.91431 65.049644 948.91206 109.98047 956.1875 C 116.4515 957.23536 144.61147 960.16599 176.54102 963.19727 C 253.2871 970.51311 281.7339 953.673 319.45898 925.51562 C 324.21513 938.28842 336.68655 966.44866 341.69141 970.82617 C 355.91197 983.26419 383.37706 995.34871 389.21875 991.73828 C 391.78383 990.15294 391.25876 992.92624 393.88086 994.02148 C 403.24709 997.93283 405.34867 999.15975 432.42188 985.77344 C 465.9589 969.19119 471.58554 962.7107 471.7832 939.42773 C 471.96858 917.56896 464.26282 915.18084 459.75586 935.70117 C 456.25375 951.64619 431.65519 972.35135 421.04883 968.28125 C 417.39853 966.88048 407.1182 967.83272 406.83203 955.21289 C 406.41064 936.63523 402.44738 935.42797 399.42969 934.70703 C 383.31867 930.86096 379.0934 923.73221 370.60547 924.7832 C 360.39925 926.04624 369.16712 936.70218 363.7832 949.64062 C 364.108 952.7499 361.91804 951.47784 360.79883 951.92773 C 359.83872 952.08022 357.29277 948.27792 354.85352 940.93555 C 353.21152 935.99312 352.56156 929.26566 349.54297 925.53906 C 347.6076 923.14973 346.76526 912.30924 346.41211 905.375 C 348.24715 904.03708 350.11579 902.68622 352.0293 901.32031 C 502.07212 777.59778 500.04206 745.9203 547.55469 711.76953 C 586.26261 695.01391 609.21462 702.4581 620.63086 707.88672 C 555.17268 699.49799 494.32559 780.62455 520.86523 866.36719 C 527.6311 887.85352 542.23837 903.7551 559.70898 917.16016 C 561.41157 925.83121 565.40252 941.71737 555.15234 945.67578 C 546.7037 947.70696 522.76049 928.69483 507.39453 968.01758 C 502.8439 978.51145 481.07967 990.86923 484.73633 994.94727 C 517.85906 996.18928 531.06049 977.5556 534.71875 977.14258 C 538.052 976.76607 543.41009 982.10317 541.5293 986.4375 C 529.54663 1014.0522 554.63545 990.13445 565.51758 992.98633 C 586.98633 998.61282 586.54118 1000.5069 590.51758 994.56641 C 597.91345 968.62953 577.44988 943.50559 568.50977 943.38867 C 567.99369 937.89507 567.37 932.11139 574.76562 927.78906 C 589.31057 937.33061 604.76233 945.87136 618.78125 954.85938 C 645.31454 970.55695 701.16812 974.9823 738.44727 969.45703 C 758.90376 964.34516 779.89985 960.16211 785.10547 960.16211 C 790.31107 960.16211 801.76596 954.67275 810.56055 947.96484 C 819.48585 941.1568 826.70896 937.30066 840.24023 922.40234 C 842.34809 923.82302 845.08357 925.4811 848.79883 927.50391 C 868.96815 938.48529 841.08328 951.39579 871.72656 962.69727 C 890.95546 969.78906 892.72639 968.37104 909.9668 954.16016 C 929.56179 938.00826 936.09229 936.75891 959.06055 944.76562 C 978.25663 951.45749 964.85966 960.58654 961.00781 963.86914 C 957.70025 966.68783 955.15426 972.58274 941.31836 968.66992 C 902.97933 957.82812 900.18579 992.75887 939.62695 998.26367 L 939.62695 998.26172 C 954.79398 1001.543 966.02624 996.28835 969.67773 994.5957 C 990.83471 984.7894 998.61216 963.58914 998.84375 953.99414 C 999.16714 940.59787 991.23627 933.1934 976.00977 918.08789 C 950.86765 893.14565 946.27419 890.57237 926.00391 890.04688 C 897.57724 889.31118 879.02561 891.18632 876.28516 894.18164 C 868.26578 914.93079 856.33231 914.65302 846.16211 913.84961 C 850.70063 902.00601 854.39151 891.25951 857.375 881.44141 C 858.26896 880.67494 860.09778 878.93198 871.43945 875.7793 C 894.49849 869.36961 897.25407 846.84479 904.32617 832.35547 C 915.87756 827.42203 927.25268 823.40438 937.23633 826.92578 C 931.61267 833.87964 932.18981 854.88086 942.33594 854.88086 C 957.6579 850.00242 983.51798 868.66376 992.83789 858.91406 C 996.08575 855.97829 988.39683 825.38605 984.03516 822.83398 C 976.19926 818.24926 972.09067 807.84217 962.78711 806.66211 C 926.55297 802.06963 952.30105 815.67567 941.26562 823.95703 C 931.55557 819.51242 920.57623 820.55057 908.67773 825.55078 C 928.44253 798.50373 940.24777 768.00438 946.22461 735.91406 C 947.74177 744.74776 949.28442 746.38665 950.74609 748.09375 C 960.59883 759.60118 969.1624 758.10265 973.14258 747.73047 C 974.68702 743.70572 983.58402 737.45411 986.51562 735.6582 C 992.51642 731.98102 994.12618 691.64232 987.16602 685.55469 C 975.46726 675.32282 981.70169 643.573 998.17578 622.78125 C 1002.179 617.72893 998.85559 599.37363 995.29297 590.26172 C 988.79126 573.26202 992.70363 564.82932 994.05664 548.91602 C 995.17254 535.79171 988.18438 536.0904 979.25781 553.25586 C 971.71948 567.75161 974.50299 568.38672 975.82227 582.78125 C 977.22947 598.1355 983.49525 597.66057 971.59375 622.81836 C 964.77468 637.2328 959.19531 651.66828 959.19531 654.89648 C 959.19531 658.94557 955.48887 667.96902 951.43164 675.62891 C 951.3458 675.79098 951.2373 675.94487 951.14453 676.10156 C 950.74825 634.39138 943.24916 591.96771 932.83203 552.46289 C 936.6325 543.10138 940.37103 533.14767 945.82812 524.09766 C 963.31756 511.84752 964.40108 513.96147 961.02344 530.84961 C 958.73172 542.308 953.13332 548.93555 959.33984 548.93555 C 963.70002 548.93555 973.28447 538.95405 975.0293 534.0957 C 976.93709 528.78377 978.52114 529.05382 984.10742 523.10742 C 989.69375 517.16121 995.51376 502.97864 997.04102 491.5918 C 1001.3237 461.40013 986.75861 467.39165 950.03125 489.38281 C 947.34807 487.72446 945.0998 480.46073 945.03711 473.24023 C 944.97398 466.01992 940.58448 443.79599 935.28125 423.85352 C 924.50737 383.33927 920.84316 377.55936 925.48438 374.73828 C 928.49401 372.90882 931.16819 371.26151 934.81641 389.37305 C 938.48671 407.5941 961.81806 412.70118 981.45703 398.18164 C 995.1279 388.07424 998.80591 384.89665 995.75977 361.93359 C 993.98521 348.55632 979.22343 326.48155 975.625 319.58594 C 966.54844 302.19295 992.91619 290.47237 987.54102 269.39648 C 978.23572 232.91104 996.34178 224.03919 997.80469 207.53125 C 997.57105 199.33112 974.06027 221.14649 975.85156 229.14453 C 977.73689 235.24268 976.7348 241.56602 963.84961 254.45117 C 943.7945 274.5063 934.64552 296.39894 924.93945 332.05078 C 917.54665 359.20582 912.7451 361.3849 909.5957 339.36719 C 895.26717 239.19498 915.5372 207.54335 943.97266 182.93945 C 974.5233 156.50536 963.22824 133.11103 971.36523 126.44922 C 982.35357 117.4531 998.37237 29.891161 940.54297 2.765625 C 937.28407 1.2369856 929.37922 0.10918974 919.62695 0.0078125 z M 922.30469 573.49805 C 926.2518 589.81155 934.82237 656.7403 935.25195 679.06641 C 935.7253 703.67178 927.00419 746.23208 910.85742 780.01758 C 901.74638 799.08127 889.07264 830.4162 886.1582 838.79297 C 878.515 858.67314 872.12238 858.9579 861.49414 866.81055 C 873.17316 821.54284 869.10358 797.09217 870.39844 767.45703 C 872.81472 747.23024 881.02322 645.5459 889.67969 622.04297 C 893.71369 611.09053 900.74845 608.95037 922.22266 573.62305 C 922.25117 573.5827 922.27627 573.53851 922.30469 573.49805 z "/>
</svg>
