<svg viewBox="0 0 1000 1000"><path d="M603.1 0a601 601 0 0 0-53.6 3.7c-12.2 1.2-27.3 3.3-37 11-17.4 14-19 21-4.8 21.6a43 43 0 0 1 21 9.1c5.8 4.8 13 8.2 16 7.4 10.7-2.7 24.9-19.8 24-30.7-1.3-14 61.4-10.3 86-1.4-11.5 2.5-31.5 15.9-31.3 34.4 0 13.4 8 24.7 20 32.5 6.9 4.5 13.4 4.2 13.4 1.2 0-9-20.1-16.1-20.1-27.2 0-13 19.1-22.2 35.2-22.2 16.2 0 41.4 25.2 41.4 43.4 0 5-21.2 27.2-21.2 48.3 0 4 6 12.1 14.1 12.1 5 0 11 0 17.1-2 17.2-4 29-15.1 29.3-27.2.2-7.4 3-10 7.8-7.4 5.6 3 6.2 21.4 4.7 30.3-3.7 22.5-51.6 50-58.9 70.8-4 11.1-12.8 15-19.1 18.1-23.1 11.4-60.2 17.6-102.6 21 0-2.7.1-5.7.4-9.3 1.2-12.1 0-18.9-3.5-18.9a46 46 0 0 1-17.4-9.5c-5.7-4.5-8.9-6.8-12-7-3.2-.3-6.3 1.5-11.8 5.2-14 9-14.2 10.3-4.3 21.2 4.2 4.6 6.3 11.6 4.8 15.5-1 2.8 1.2 6-16.9 5.7-60.7-1-89.3 1-116-1.8-24.7-3.6-22-25.3-14-34.1 4-3 6.1-5 7.1-5s1 2 1 5c0 6 21.2 12 34.3 12 3 0 6 0 8-1 1 0 1-1 1-2 0-2-2-5-6-9-6-6-9-9.1-9-12.1 0-4 7-6 22.1-8.1 20.1-3 30.2-9 30.2-18.1 0-5-4-12.1-11-19.2-14.2-14-24.2-20.1-28.3-20.1-2 0-3 1-3 3s1 4 2 7c2 4 3 7.1 3 9.1 0 5-5 6-20.1 9-8 2.1-15.1 2.1-21.2 2.1-6 0-10 0-14-2-4.1-1-7.1-2-12.2-2-5 0-11 1-19.1 3-12.1 3-14.9 11-17 23.9-4 25.3 5.6 34.4 15.6 53.4-36.7 4-42.5 10.2-64.1 18.4v-1c0-3 2-12 5-24.2 4-18.1 7-33.2 7-43.3 0-10-3-15.1-7-15.1-5 0-12 10-15 20.1-3.1 10.1-10.2 21.2-17.2 22.2-8 2-12.1 7-12.1 13.1 0 5 4 11 12.1 12 8 1.1 13 6.1 13 11.2 0 6-1.2 9.5-22.3 19-51.7 23-93.6 53.8-179.9 132-9.4-25.9 11.5-61 17.3-77.5a634.1 634.1 0 0 0 33.9-141c3-29.5 9-35.3 21.1-35.3 26.2 0 25.9-16.1 35.1-43.8 9.4-27.8 12.5-48.9 64.7-42.9 15.3 1.8 28.2-2.4 43.3-8 15.2-5.7 22.2-13.1 22.2-23.2 0-7 0-8.7 3-10 4.5-2.1 13.1-4.3 28.2 5 6.2 3.8 9 6 11 6s2-3 2-9c0-12.3-23.8-25.6-43.4-26.3h-3.9c-22.6 1.4-24.2 25-40.3 31.3-37.1 14.5-61.8 7.8-98.7 5-18-1.3-27 16.2-28.2 47.4-.8 18.1-3.4 35-7 33.2-13.7-28.5-11.8-68.1-47.4-92.7a109.5 109.5 0 0 0-50.4-17C29.2 7.1 22 6.1 17 6.1c-10 0-10 3-10 12 0 7.1 3 14.5 8 15.2 35.7 4.8 29.3 18.7 27 30-3.1 14.6 4.2 25.4 8.3 27.4 4 2 10 3 15 3 13.2 0 26.3-6 30.3-15l5-13.2C115.5 79.4 123 113 117 134c-4.2 4.7-13.8 2-17.2-6.9-4.6-12-18.4-25.4-44-16.4-3.8 1.3-10.1 3.6-15.8 4.1-10.1 1-13.2 2.4-16.7 6.1-3.5 3.7-9.4 6.6-13 6.4-10.4-.7-8 6.8 4.6 14.6 8.9 5.5 13 6 17.5 2 9.3-8.2 16.6-5.8 32.6 10.7 11.3 11.8 18.6 15.9 31 15.1 13.4-.8 16 5.2 16.5 15.7 1.8 42.4-16.3 94.2-28.4 133.4-9.2-46-11.8-63.4-52-101.8-20.3-19.4-18.4-44.9-27-43.8-1 .2-1.8 2.2-2.7 6-2.9 10.8 7.6 36.4 12.3 41.6 16 17.5 18 60 4 76.4-6.3 7.4-8.3 14-5.6 18.9a129 129 0 0 1 7.7 18c4.5 13.4 21 12.1 36.1-2.8a55 55 0 0 1 14.2-11.2c2.5-.3 5.9 15.6 1.6 24.3-6.9 14-16.4 30.7-12.5 75.1-18.6 80.4-25.4 141.1-10.5 220.7-8.7-16.9-11.5-18.3-22-39-9.7-18.8-21.8 25.2-4.3 40.8 8.3 7.4 18.4 21.8 14.6 30.3-16.1 36 5.9 56.5 14.4 60.5 6.8 3.1 23.7 5.6 24 8 2 12.5-6.1 26.2-17.5 53.3-3.3 8-2.6 17.1-2.6 21.2 0 7 4 10 11.1 13 5 2 8 3.1 10 3.1 4.1 0 4.1-4 8.1-12 0 0 9.1-24.3 12.1-24.3s9.1 16.1 16.2 26.2c6 12.1 13 22.2 19.1 32.3-23.9 14.2-38 24.1-49.7 25.5-22 2.6-50 32.7-53.1 61-3.6 31.3 24 60.7 48 59.9 32.7-1.2 55.7-3.3 60.4-29.2 4-21.7-2.2-23.4-13.9-3.6-11.5 19.4-23.3 24.8-46.4 21.1-18.4-3-27.5-11.5-12.2-11.5 9 0 9-3.7 0-19.2-7.1-12.6-9.4-34.7-4-40 1.6-1.7 7.3 5 12.5 14.8 12.5 23.5 10.8 22.5 27.8 15.5 11-4.6 8-12.9 7-19.1-6.4-38.1 3.4-50 31.6-62 63.5 87.6 144 133.6 350.6 130.3 141.3-2.3 316.4-89.5 376.5-143.5 1.5 41.2 10.6 65.1 20.4 79.3 11.3 16.3 16.4 23 22.2 32.8 15.6 26.3 52.3 32.7 73.1 18.5 16.7-11.3 18.2-24 8-40.8a17.4 17.4 0 0 0-21-7c-8.7 3.5-13.7 9.4-14.6 16.8-1 9.7-2.1 8.2-11.6 7-22.4-2.8-26.9-14-45.2-37-18.3-22.9-15.9-51.8-16.1-80.7 97.4-85 100.5-255.2 53.7-335.5-11.4-19.7-25.1-22.2-35.2-22.2h-5c-15.2 2-29.3 18.1-29.3 30.2 0 3 1 6 3 8 3 3.1 4 5.1 5 5.1s2-3 2-8c0-8.1 6.1-12.1 12.2-12.1 6 0 13.4 4 16.1 13 .3 1 1.2 3.1 1 4.1-6.6 34.7-35.4 46-61 30.8-31.9-18.8-29-75 4-95.4 34.4-21.4 82.7-12 113.4-35.2 13.2-10 19.3-28.4 19.2-58.9-.1-24.3-6-47-30.2-64-16-11.2-34.3-19.1-42.4-19.1-2 0-4 0-4 2 0 1-.2 3.5 2 4a75.6 75.6 0 0 1 36.3 24.3c3.8 4.4 6 7 6 10 0 2-1 4-2 6-19.1 26.2-25.2 42.3-25.2 59.5 0 10 0 15 4 15 4.1 0 12.2-6 28.3-18 3-2 6-4 7-4 3 1-1.6 15.2-2 16-12.3 31-61.2 27.3-95 38.7-79.5 26.8-69.2 130.8-8.8 138.7 47.5 6.1 53.1-20.8 67.5-33.3 32.7 67.7 29.6 221.2-43.3 262.3-1-20.4 2-35.1 12-46.1 25.2-27.5 48.5-52.6 33.9-97.2-10.5-31.8-42.8-41.7-83.4-22-34.5 16.7-59-9.4-36.1-35 17.2-19.3 16.3-27.6-2.3-21.3-5 1.7-11.6 4.8-17 15.8-16.9 33.9-3.7 58.4 14.2 72.2 16 12.4 22 6 33.9 15.5 6 4.8 5.2 7.8-5.1 20.1-16.6 19.7-16 30.2 1.2 26 18.8-4.4 37.9-19.5 36.2-28.6-.9-5 4-9.1 14.6-12 19.3-5.2 27.8-2.7 23.2 10.4-21.2 59.5-100 66.4-124 54.6-29.9-14.6-52.7-36-31.6-68.6 14-21.5 12.8-23.2-3.2-19.2-19.2 4.8-32.8 23.1-30.8 48.5 2 25.6 15.7 30.4 20 44.6 2.9 10-19 7.3-31.3-5-13.8-13.8-24.2-18.4-45.1-19.9-12.3-.9-19.6 2.5-32.7 15.3-9.4 9-17 18.2-17 20.3 0 8.1 6.3 9.4 13 2.7 11-11 25.4-6.6 41.4 7 16.5 14 53.1 36.4 81 26.4 10-3.6 10.4-10.7 8-22.2-2.7-13.8-2.4-13.3 10.5-11.3 54.5 8.7 75.3 7 98-3.5 5.3-2.5 11.7-7.6 9 0a84.4 84.4 0 0 0-4.8 37 421.5 421.5 0 0 0-51.2 6.3c-25.2 4.8-34.2 9-42.3 22.1-5 9.1-8 14.2-8 17.2 0 5 6 5 20.1 5 18.1 0 27.2 3 27.2 7 0 3-7.1 7-17.1 13.2-90.8 56.2-213 96.6-271.3 82.8-11.8-2.8-18.4-2.5-26.5-9.3-18.3-15.4-21.3-41.5-2.6-39 11.6 1.6 18.3 17.2 6.3 14.6-7.7-1.6-11.4 2-8.8 5 12.3 13.7 22.2 5.1 26.5 1.2 11-9.7 12.4-34.1-18.9-48.4-25.2-11.5-59.8-13.6-83.2-28-21-13-31.4-33.7-21.7-48.5 9.6-14.7 9-20.9-.6-21-2.2 0-5.7-.7-7.9 1.6-28.8 30.6-10 83.3 19.8 98.7 19.7 10.3 24 22.3 7.1 22.3-14.4 0-12.2 3.5-4.7 18.1 10.3 20 21.6 24.2 47.2 24.4 3.9 0 12.5 3 19.6 9.7 1.3 1.1 5.6 4.3 17.3 9-20.7 2.3-60 6.4-81.5-7.6-37.9-24.6-68.6-43-89.6-56.3-23.7-15-9.2-23.3 7-20.3 7 1.3 20 4.1 22.1-3 2.4-7.7-3.4-11.2-25.9-21-62-27-124.4-31.3-169.5-17.3a586.8 586.8 0 0 1-42.4-58.4c-5-6 8.1-6 18.2-6 8 0 18.1 2 23.2 5 5 3 7 5 9 5s2-2 2-7-3-11.1-7-12.1-10-8-13.1-15.1c-4-9.1-12.1-13.1-29.2-15.2-13.1-1-18.2-4-18.2-7 0-1 1-2 2-3.8l1.4-1.3c2.6-2.5 5.4-6 8.9-9 9.7-8.5 8.5-19 5.3-28.3-4-11.4-6.1-25.3-4.6-31 5-19.5 22.5-12.4 27 4.4 2.3 8.3 3.9 18 7.7 3.3 2.7-10.5-1.3-20.2-10.3-30.6-4.4-5.1-6.8-12.6-14.8-13.8a23.7 23.7 0 0 0-15.8 4.4c-8 5-15 11.2-19.5 19-6.2 10.5-19.3-8.4-20.9-26.5-3.6-40.7-6.4-99.6 1.7-130.7 4-15.6 11.8-28.8 15.9-46 4-17 4.4-21 10.3-27.2 36.3-37.4 104-72.5 149-72.7 10 0 19-.1 19 5.9 0 3-1.8 5.4-6 8-9 5.5-8.8 20-3 26 6.9 7 11 7.3 11 13.4 0 7-4 11-13.1 11-7 0-24.7-4.7-13.1 4 4.8 3.7 11 5.1 26.2 5.1 27.2 0 31.2-4 37.2-33.2 1-5 2-8.1 4-8.1s4.1 4 10.2 14.1c4 7 6 12 6 16.1 0 6-4 10.1-13.1 18.2-11 9-17 13.7-20 17.9-4.9 7 6.9 10.3 14 11.3 4 1 5 1 5 2s-1 3-4 4c-4 2-10.1 3-17.2 3-14 0-28-5.5-34.3-8.2-5.4-2.4-10-13.9-13-13-3 1-2.8 3.7-1 9.2 2.7 8.6 22.3 23.4 46.3 25 29.2 1.9 58.5-26 58.5-62.3 0-48.4-42.4-84.6-99.8-84.7-24.8 0-40.3 6.5-64.9 11.2 49.1-44.8 134.5-83 187.2-85.2 3.5 8.7 3.6 30.8-4 36.7-10 7.8-14.5 14-10.5 31.3 3 12.8 7 17.1 36.3 26.2 28.2 9 49 18.5 45.2 34.8-3.4 14.1-8.7 17.8-25 18.6-1 0-2-1-2-2 0-3-4.1-5-9.1-5-6 0-9.7 3-9.1 7 1.8 11.1 12.4 15.2 21.1 15.1 27.5-.4 49.9-14 50.4-34.2.5-20.2-1.8-28.7-21.1-33.3-9.8-2.3-14.1-3-17.2-12-1-3.1-1-5.1-1-7.1 0-6 4-9.1 17.2-11.1 14-3 20.1-7 20.1-12.1 0-7-12-14.1-34.2-15.1H413c-10 0-14.1 2-14.1 7v2c0 5-4 11.1-10 12.1-1 0-3.1 1-4.1 1-3 0-9.6-5.3-8.5-8.1 8-22.7 8.5-38.4 6.5-50.8 38.6 15.6 135.8 24.3 150.1 105.3.2 1 0 2-1 2-2 0-6-2.2-13.1-5-15.6-6.3-28.1 3-28.2 22.1 0 14.1 4 28.2 9 30.3 2 1 3 3 3 5 0 8-10 25.2-21 30.2-5.1 3-8.1 10.1-8.1 15.1s2 9.1 7 9.1c15.1 0 44.3-28.2 46.4-45.3 2-13.1 6-19.2 12-19.2 3 0 7.1 2 11.1 7 3 4.1 4 9.1 4 15.2 0 17.1-10 39.3-22.1 43.3-9 3-14.1 5-14.1 8s4 7.1 12 11.2c5.1 3 8.1 4 10.2 4 2 0 4-1 5-3 2-3 4-4 6-4 3 0 5.3 3 5 7-1 19.2-24.9 26.8-39.2 22.2-4.9-1.6-8-6-8-11.1 0-5-5.1-9.1-10.2-9.1-4 0-7 2.1-6 6 6 23.8 25.6 27.2 37.3 27.2 32.2.2 52.2-34.2 51.4-77.5-1-53-21.3-87.2-48.3-132.3 63.2 53.5 81.8 129.1 77.5 167.2-1.7 15.8-3.4 20.3-9.5 27-6.8 7.5-17.3 28-16.5 43 .3 7-3.6 14-5.5 18-14.9 30-32.8 33.8-60.9 42.8-14.8 4.8-19-23.7-5.6-38 15.4-16.4 12.6-26.8-3.4-26.5-5.3 0-12 1.4-20.1 4-25.6 8.6-33.6 30.2-17.4 47.3 10.5 11.2 9 16 2.2 19-2.6 1.2-14.8 2.7-17-.3-3-4.2-4-9.9-11.5-18.8-15-18.2-23.5-12.7-25 3.3-1.4 15.3-4 16-15.4 11.5-32-12.3-44.3-53.4-44.3-103.8 0-22.1 20.2-42.3 38.3-42.3 17.1 0 36.3 10.1 36.3 28.2 0 12.1-4 17.2-12.1 17.2C411 521 409 511 398.9 511c-6 0-11 5-11 12 0 13.2 17 25.3 37.2 25.3 25.2 0 36.3-20.2 36.3-43.4 0-33.2-33.3-46.3-59.5-46.3-40.3 0-73.5 48.4-73.5 96.7 0 54.4 32.2 107.8 32.2 165.3 0 41.3-40.3 85.6-70.5 85.6-5 0 3-7 3-21.1 0-15.2-9-23.2-16.1-23.2-13.1 0-42.3 25.2-54.4 25.2-9.1 0-17.2-5-17.2-13.1 0-7 1-20.2 9.1-44.4 1-4 2-6 2-8 0-1 0-2-1-2-2 0-5 2-11 6-8.1 6-13.2 18.1-13.2 31.2 0 47.4 45.4 63.5 86.7 63.5a101 101 0 0 0 96.6-116.6c-5.8-54.4-34.2-89.6-34.2-155.1 0-9.1 5-26.4 10-32.4-2.8 55.3 11.4 102.1 62.7 123.7-.8 13.6 3.2 20.8 14.9 25.9 14 6.2 32.8-4 33.6-20 0-3 3.8-1.7 8.6 3 7 7 7.5 10.6 2.6 18.4-8.7 14-7.5 22 4.3 29.3 9.2 5.8 39.5 4.7 45.8-1.7 1.3-1.3-2.3-8.7-8-16.5-11.7-15.7-11.6-31.8 6.6-39.2 41.4-17 58.5-30 72.7-56.2 4-7.5 3.4-13.2 9.6-4.9 10.1 13.5 27.3 3.5 34.3-19.8 3.5-11.7 6.4-21.5 6.4-21.9 0-.3-4.2-1.7-9.4-3-6.7-1.8-14.4-8.1-12-18.6 13.1-54.6-13.6-118-34.8-151.8 1 0 4 2 8 5 5.1 4 10.2 6 14.2 6 8 0 12-8 12-23.1a37.2 37.2 0 0 0-38.2-36.3c-2 0-4 0-4 1s2 2 5 4c7 4 10 12.1 10 19.2 0 6-3 10-8 10h-1c-5-1-16.7-11.4-27.2-22.1-36.3-36.9-76.5-48.5-120.2-66a1306 1306 0 0 0 118.6 1.2 134.7 134.7 0 0 0 3 10c4.7 10.4 18.5 16.9 30.7 13.8 14.1-3.6 14.5-8 1.8-20a30 30 0 0 1-5-5.8c79.6-8.4 103.7-20.2 115.4-25.3 44.9 1.3 71 3.7 95.5 17.5 11.4 6.5 16 15.2 16.1 26.2 0 3-1.4 13-3 13.1-5-4.6-10.6-14.3-18.1-14-8 .2-11.8 7.2-11.1 15a22.8 22.8 0 0 0 13 19.2c16 6.6 1 31.9-2 36.3-3.2 4.9-12.3 21.3-4 21.1 13.8-.3 27-20.6 30.3-26.2a70 70 0 0 0 9-37.3c-.3-11.8-2-23.5-2-35.2 0-8 1-10.1 4-10.1 2 0 6 1 11.1 4 12.1 6 18.2 15.1 18.2 33.3 0 9-2 21.1-5 36.3-2 9-3 15-3 19.1 0 3 1 4 3 4s4-1 8-2c5-2 8-3 10-3 3 0 4 2 4 8 0 15.2-8 25.2-21 25.2-9.1 0-21.2 8.1-21.2 13.1 0 1 1 2 2 3 2 1 5 2 8 2 23.2 0 70-31.2 54.6-80.3-26.3-84.3-85.7-91.7-177.2-101 36.6-14 89-28.6 117.4-24 13 2.2 29.6 15.4 33.5 27 8 24.2 11 28.3 25.2 28.3 15 0 27.2-16.2 27.2-30.3 0-4-1-8-4-12-4.1-5.1-6.1-8.1-6.1-11.2 0-2 2-4 5-4 4 0 11.1 2 20.2 7a48.8 48.8 0 0 1 22.1 30.3c3 13.1 8.1 19.1 12.1 19.1s11.6-6.4 8-20.1c-9-35.5-47.2-67.1-83.6-66.2-30.7.8-55.4 23-102.7 20.9 48.9-23.1 66-65.8 73.2-69.9 8.9-1 20.9-4.6 32.4 12.5 11.8 17.7 17.2-14.8 30.4-16.2 6-.6 6 12 6 15.1 0 4 2 6 6.1 6 5 0 12-4 18.1-10 3-3 4-7 4-11.1 0-10-12-17.1-23.1-19.1-24.2-3-9-19.2 7-23.2 21.2-6 33.3-15.1 33.3-23.2 0-6-7-10-20.2-12-12-1-20.1-2.1-27.2-2.1-12 0-18 2-24.1 8 0 0-14.1 27.3-14.1-9 0-14.1-24.2-26.2-41.4-26.2-6 0-16 2-22.1 5-6 3-10.1 10.1-10.1 15.1s3 8.1 11 8.1c3.1 0 6.1-1 10.2-1 4 0 7-1 10-1 6 0 9.1 2 9.1 5 0 2-1 4-2 6-2 6.1-10 13.2-17.1 16.2-8.1 4-12.1 10-12.1 16.1 0 6 4 13.1 12 21.2 5.1 5 8.8 9.3 8.8 13.3-9 22-28 45.3-57.1 57.2-7.5 3-20.8 8.6-25.2 16.1-7.5 12.9-27.2 17-45.4 21.6 16.9-31 60.1-45.3 55.5-103.2-3.4-42.2-41-68-93.6-86-33-11.3-53.8-16.2-86-15.9ZM383.6 970c-122.7-3.3-180.6-55-218.2-109 81.9-14 141.4 69.1 218.2 109z"/></svg>
