<svg viewBox="0 0 1000 1000"><path d="M489.05 0c-3.54.07-6.92.79-9.11 2.87-15.05 14.31-8.35 34.69-2.93 48.3 3.4 8.51 22.45 16.22 42.19 13.13-13.05 6.16-21.84 24.87-26.25 36.8-12.95-36.18-46.37-63.96-74-77.99-22.34-11.34-65.5-21.32-96.98-2.59-17.39 10.34-13.63 55.73-3.4 72.58 10.37 17.07 16.28 14.73 13.46-5.27-3.33-23.63 1.12-28.93 19.34-23.01 7.92 2.57 15.47 7.96 16.77 11.98 3.4 10.57 11.44 12.29 31.08 6.64 16.77-4.81 17.3-5.43 16.01-19.61-.73-8.05-.22-14.65 1.13-14.65 47.71 11.15 53.42 40.9 77.43 76.6 5.02 7.46 16.25 28.7 16.74 32.81-1.97 2.36-5.88.4-19-6.17-23.49-11.78-44.75-8.1-44.75 7.76 0 3.84 4.7 10 10.42 13.69 9.5 6.12 11.03 6.16 17.45.46 13.21-11.76 34.87-6.99 41.52 9.15 7.35 17.8 10.7 45.61 6.16 51.1-2.96 3.58-2.68 7.9.91 14.5 5.01 9.2 3.12 18.07-3.85 18.07-7.7 0-16.18-13.17-16.18-25.16 0-12.03-7.85-29.96-17.9-35.22-9.06-4.73-27.3-6.05-25.68 5.5.93 6.64-1.79 9.54-12.58 13.14-18.59 6.2-23.62 14.6-16.53 27.62 6.62 12.16 14.75 13.15 18.27 2.23 4.15-12.84 17.53-11 25.7 12.25 4.54 12.92 21.14 19.7 24.55 19.98 3.4.28 17.66 3.2 31.93 3.71 19.8.73 27.64.49 32.45 6.24 10.01 11.96 27.49 22.33 36.1 24.79 12.6 3.6 18.72 6.55 12.7 10.21-2.2 1.34-12.9 3.47-23.75 4.73-16.65 1.94-21.1.98-28.32-6.11-10.68-10.5-18.87-10.56-45.36-.3-11.54 4.47-26.38 7.6-32.98 6.94-10.7-1.06-12.56-3.3-16.97-20.46-6.1-23.75-13.4-29.4-23.1-17.92-8.22 9.73-8.89 18.98-2.38 33.03 4.85 10.45 31.2 18.69 52.4 18.73 14.75.03 1.3 15.57-5.55 21.13-25.51 20.73-70.72 65.17-161.34 85.33-16.44 3.66-30.46-2.53-43.18-3.8-19.7-1.98-24.02-6.22-35.25-16.92-17.04-16.23-16.02-25 2.9-25 13.44 0 14-.56 13.33-13.79-.72-14.13-12.65-27.83-24.24-27.83-8.13 0-16.95 9.43-21.91 23.42-4.97 14.01 3.75 35.72 19.13 47.61 11.31 8.75 13.05 18.46 2.51 14.07-3.88-1.62-22.2-4-43.26-9.36-21.06-5.36-41.28-13.93-42.37-14.98-1.09-1.05 1.1-3.6 4.88-5.68 3.77-2.07 5.9-6.2 4.74-9.18-3.22-8.25-46.81-26.15-57.17-23.48-12.47 3.2-11.77-7.78 1.02-16.02 13.46-8.67 19.74-8.1 38.44 3.51 20.15 12.5 26.91 12.45 39-.38 10.47-11.1 8.16-18.75-7.12-23.52-9.6-2.99-9.9-8.1-.68-11.58 4.61-1.74 9.4.23 13.93 5.73 3.8 4.62 11.99 8.74 18.18 9.17 10.31.7 11.27-.4 11.27-12.93 0-15.78-6.58-18.96-40.32-19.55-36.3-.63-48.54 3.37-73.3 24-21.15 17.62-23.57 18.72-24.76 11.19-.73-4.6.52-13.55 2.78-19.9 3.3-9.3 2.1-17.17-6.15-40.4-10.23-28.8-11.99-36.54-16.05-70.8-1.63-13.78-.5-19.81 4.58-24.82 6.28-6.17 7.41-6.08 17.03 1.35 12.82 9.9 15.28 9.91 25.39-.02 5.41-5.33 7.36-11 5.83-17-3.78-14.78 4.48-30.5 16-30.5 8.26 0 10.46 2.44 12.67 14.04 2.73 14.3 10.67 16.78 13.16 4.14 3.06-15.53-3.5-25.97-21.36-33.96-21.93-9.82-23.03-9.83-41.92-.36-16.27 8.17-36.84 34.7-36.84 47.52 0 4.28-1.76 8.85-3.92 10.16-5.55 3.37-9.61-15.7-6.1-28.66 1.63-6 3.72-17.04 4.65-24.55C52.47 131.72 74.46 90.2 82.96 87c3.42-1.29 9.12.17 12.68 3.25 3.56 3.08 12.24 6.8 19.3 8.28 11.5 2.4 14.57.83 30.12-15.42 10.71-11.18 20.82-18.08 26.5-18.08 5.04 0 9.16-1.56 9.16-3.45 0-5.63-38.38-8.97-50.58-4.4-19.22 7.18-20.84-2.15-2.37-13.6 18.72-11.62 38.83-13.2 52.08-4.07 4.94 3.4 12.13 5.42 16.01 5.5 75.53 1.41 60.15 100.18 6.5 91.24-30.7-5.12-33.8-27.52-5.47-33.25 19.7-4 24-7.7 24.08-20.81.06-9.17-9.58-12.64-35.25-12.66-16.22-.01-27.32 19.86-26.2 41.7 1.26 24.7 24.8 47.84 60.93 44.2 29.41-2.96 30.87-.84 32.13 7.91 2.73 18.95-14.78 26.04-36.63 14.83-7.7-3.95-16.3-4.84-27.93-2.88-16.4 2.75-22.51 10.2-24.86 26.1-2.13 14.38 1.43 20.93 10.11 20.9 6.53-.01 12.8 4.14 14.22 6.4 2.87 4.56-11 17.02-30.6 27.5-11.9 6.36-12.65 7.95-10.16 21.79 3.77 21 10.12 26.4 27.3 23.24 16.41-3.03 33.34-15.05 29.59-21.02-1.42-2.25-8.02-5.16-14.67-6.47-14.8-2.91-11.78-10.31 3.3-17.08 15.26-6.84 27.8-6.47 39.23-9 23.29-5.17 57.48-60.13 40.15-88.65-11.14-18.34-14.71-23.91-7.92-46.37 13.34-44.11-12-76.32-39.68-87.43-53.46-21.47-134.48-3.37-178.66 85.07-1.28 2.55-5.3 9.07-8.5 10.08-3.2 1.01-5.95-2.78-3.65-4.95 11.05-10.48 28.3-49.87 36.93-66.23 4.07-7.71 8.51-30.43 3.75-37.25-5.22-7.47-22.16-3.44-30.5.42-7.77 3.6-12.05-7.15-22.06-7.35-10.01-.19-12.2 7.16-17.65 34.07-4.86 24.05-4.28 30.26 1.8 36.2 6.3 6.14 6.8 3 13.67-5.9 4.58-5.94 9.73-8.63 13.68-7.14 5.7 2.15 5.62 4.4-.86 22.48-3.95 11.05-11.25 24.34-16.2 29.53-7.78 8.13-8.2 13.48-8.54 38.58-1.17 87.01-39.58 155.6 31.79 221.3 6.44 5.92 20.76 6.34 20.76 11.26 0 1.82-8.14 9.05-18.1 16.08-25.5 18-37.06 39.45-41.88 77.71-3.35 26.67-3 32.74 2.16 38.36 3.75 4.07 5.1 9.87 3.49 14.88-3.94 12.21 11.35 10.82 19.76-1.8 5.28-7.92 5.97-13.93 3.32-28.73-4.03-22.54-2.38-32.6 5.34-32.6 3.67 0 5.76 4.2 5.76 11.6 0 9.07 2.79 12.97 12.75 17.86 11.71 5.75 13.37 5.72 20.16-.32 9.5-8.46 9.25-22.74-.76-44.43-9.34-20.23-10.15-33.47-2.45-39.75 7.03-5.75 12.44.22 19.53 21.58 6.64 19.99 25.64 29.86 43.84 24.82 8.6-2.38 11.03-6.16 6.32-10.83-7.84-7.78-.56-10.75 13.34-3.46 29.5 15.48 85.5 20.83 100.48 23.99-10.78 4.04-14.57 6.99-25.76 10.54-8.82 2.8-19.75 6.23-24.19 8-36.83 14.75-46.25 19.74-59.72 31.63-14.56 12.85-17.05 13.6-47.16 14.21-33.78.69-42.38 4.4-48.83 21.08-5.9 15.26 2.53 21.7 25.55 19.52 13.26-1.25 19.3-.35 19.3 2.88 0 7.16-23.08 25.84-31.94 25.84-4.3 0-16.4-8.92-26.9-19.82S12.34 564.4 10.18 564.4c-7.33 0-14.63 13.81-14.67 27.74-.05 18.6 10.02 29.53 32.75 35.53 16.42 4.33 21.3 4.06 37.8-2.14 10.5-3.94 21.85-11.64 25.48-17.28 27.15-42.2 75.57-95.38 86.83-95.38-48.87 54.15-71.18 114.2-75.06 177.91-4.6-2.41-6.58-4.88-10.9-9.65-24.57-27.17-63.88-.06-68.14 22-14.66 75.9 25.04 124.59 67.1 159.4 17.57 14.55 33.94 9.6 51.94-12.78 16.91-21.02 57.44-80.53 46.9-125.12-2.17-9.18-10.5-15.35-14.36-21.22-9.92-15.05-28.43-23.3-43.76-15.69-6.38 3.17-6.15 5.94-12.97 7.26-1.04-57.26 34.58-150.28 87.3-183.65 4.28 7.63-24.2 52.46-30.2 58.8-5.94 6.3-3.99 31.38 3.56 45.93 9.35 18 28.5 38.92 41.88 45.74 17.14 8.73 52.1 3.43 73.04-11.07 33.5-23.2 37.42-90.7 5.83-100.56-6.24-1.95-10.92.16-17.78 8-12.4 14.17-11.74 20.13 2.94 26.1 20 8.15 26.55 29.85 13.33 44.21-9.44 10.26-13.98 9-12.63-3.5 1.77-16.44-10.82-16.7-19.38-.4-11.78 22.4-21.68 19.47-31.76 9.4-7.8-7.81 8-23.21-2.3-17.28-3.5 2.02-5.36 3.49-7.26 8.13-5.64 13.8-7.02 13.66-14.98-1.47-7.54-14.33-11.06-35.18-5.94-35.18 1.93 0 6.38-1.09 9.88-2.4 5.2-1.97 5.92-.25 3.95 9.42-3.12 15.31 3.34 19.02 18.14 10.42 8.75-5.08 12.34-10.8 14.28-22.76 2.23-13.71.9-17.16-7.64-26.05-12.02-12.49-9.74-10.34-24.39-2.59-7.77 4.12-15.16 6.47-16.42 5.23-1.26-1.24 4.37-14.9 12.5-30.35 15.15-28.77 20.2-32.86 53.93-43.58 7.54-2.4 21.5-3.91 31.01-4.35 18.66-.87 26.4-3.74 40.76-6.47l-9.3 13.4c-8.77 12.62-9.64 17.5-7.55 32.7 2.91 21.21 11.22 23.78 26.48 23.78 24.1 0 29.21-7.27 16.25-23.1-15.62-19.08-14.6-24.97-14.62-37.62 0-2.9 1.81-11.5 6.7-13.2 28.11-9.8 107.72-48.2 132.78-83.33 12.26-17.18 72.17-2.6 68.32-17.55-2.23-8.64.6-10.32 7.5-5.75 2.65 1.75 8 .33 11.73-2.92 3.74-3.25 14.06-6.79 22.93-7.87 8.87-1.09 29.17-5.32 45.11-9.4 13.55-3.47 31.21-5.47 44.54-5.81 13.33-.34 22.33.99 18.55 4.2-1.87 1.6-13.33 6.98-25.47 11.97-42.78 17.57-47.96 25.59-32.55 50.43 14.6 23.53 33.49 26.25 46.51 6.7 9.68-14.51 5.52-21.36-11.32-18.68-7.73 1.24-14.95.4-16.4-1.92-2.91-4.63 14.16-24.49 21.05-24.49 2.45 0 11.59-3.65 20.3-8.12 19.03-9.75 44.9-7.79 73.15 5.54 18.29 8.63 23.87 18.73 16.51 29.88-3.05 4.63-7.04 4.35-25.2-1.8-11.88-4-23.33-8.71-25.43-10.45-4.92-4.07-22.37-4.13-22.37-.09 0 1.7 3 7.3 6.68 12.47 6.29 8.83 6.25 9.72-.76 14.76-4.1 2.95-9.63 5.36-12.28 5.36-6.64 0-11.26 33.45-5.97 43.18 2.34 4.3 7.92 8.95 12.4 10.35 7.59 2.36 39.57 5.16 32.17-4.13-.5-.63-4.66-6.07-10.37-11.68-16-15.72-11.23-19.92 22.8-19.88 24.1.02 30.95-1.64 46.06-17.12 15.5-15.88 16.95-17.13 28.13-12.63 44.2 17.76 91.33 63.35 129.37 165.13-16.08-23.38-34.64-47.47-75.09-57.96-8.08-2.1-11.85-10.07-3.03-12.96 3.4-1.12 3.32-6.11-3.19-15.08-8.21-11.3-23.06-19.49-35.18-19.24-4.13.08-8.4 1.16-11.42 3-4.06 2.45-11 4.5-15.47 4.5-14.74 0-6.13 21.73 9.7 24.44 4.25.73 8.53 3.71 9.52 6.63 1.42 4.2-3.7 4.9-24.42 3.4-25.14-1.82-26.57-1.44-34.72 9.4-10.24 13.6-10.34 14.94-1.83 24.19 8.77 9.52 21.6 9.16 41.82-1.2 13.63-6.99 18.25-7.67 26.56-3.95 11.78 5.28 9.24 12.4-4.42 12.4-13.08 0-22.26 3.9-22.26 9.47 0 2.57 4.99 10.38 11.09 17.34 12.04 13.76 15.24 13.78 42.49.26 16.33-8.1 26.45-25.28 19.14-32.47-6.49-6.38-4.75-12.39 3.88-10.45 92.77 20.77 73.68 210.18 20.15 286.44 18.34-54.58 12.41-92.3 6.02-119.33-7.7-32.5-18.53-67.5-10.05-73.98 7.33-5.59 5.37-17-.18-19.92-3.37-1.78-8.12.66-10.52 2.6-4.95 4-6.01 9.77-3.84 25.99l4.05 30.14c-17.72-37.04-60.85-36.12-73.26-5.43-3.27 8.07 15.67 10.42 20.06 2.7 4.94-8.68 24.63-8.01 33.04 1.12 4.81 5.23 7.39 16.6 8.57 37.88 1.66 29.9 1.53 30.36-7.27 27.75-10.85-3.22-18.71-9.7-11.77-9.7 8.99 0 4.92-7.22-8.74-15.52-29.38-17.85-41.33-4.5-18.67 20.87 14.33 16.05 14.36 16.2 4.03 26.36-11.88 11.68-8.9 20.38 7.06 35.15 19.53 18.1 47.35 15.47 49.38-3.54.8-7.4 11.2-3.21 8.47 5.6-9.42 30.4-12.85 57.1-49.41 91.8-10.82 10.26-25.55 18.7-41.91 30.7 3.36-16.67 13.97-25.25 17.7-30.85 10.64-15.96 12.74-40.28 5.96-54.88-12.9-27.8-18.9-32.56-23.42-18.58-1.47 4.54-7.32 12.5-13 17.69-8.53 7.77-9.9 11.7-7.74 22.29 3.25 16 9.39 23.52 19.19 23.52 12.15 0 8.82 9.9-9.56 28.45-18.67 18.83-56.07 41.08-80.04 43.3-19.13 1.77-79.35 2.87-95.1-3.84-50.7-21.62-71.53-52.23-91.02-85.5-17.56-29.94-18.96-36.05-4.96-21.2 14.86 15.74 35.4 20.2 54.89 11.9 8.9-3.8 15.68-9.44 15.68-13.07 0-8.14-11.74-18.51-22.17-19.58-15.8-1.62-18.77-.15-16.12 8.03 7.67 23.8-36.7 1.7-45.32-22.56-5.25-14.79-3.92-21.4 5.78-56.26 18.76-67.4 106.7-75.47 103.91-7.6-1.25 30.44-19.38 35.46-34.14 15.07-6.6-9.1-11.74-11.89-21.96-11.89-15 0-20.38 4.84-23.35 21-2.94 16.06 7.67 28.7 29.82 30.31 54.17 3.95 77.47-47.92 67.38-75.31-19.38-52.68-79.42-56.12-136.55-46.3 5.71-18-2.73-34.57-22.84-36.7-11.47-1.23-33.56-7.21-27.88-23.25 1.99-5.63 8.53-6.96 15.34-9.7 11.7-4.69 14.26-9.18 5.45-11.76-35.78-10.52-50.3 15.24-48.91 41.86.87 16.92 13.48 30.58 23.89 33.36 23.41 6.28 25.35 7.15 18.75 14.96-3 3.55-11.75 7.17-21.05 6.05-38.63-4.7-41.1-14.84-37.87-43.39 1.65-14.64.18-21.64-4.41-26.16-8.15-8-18.95-5.8-20.59 4.2-2.85 17.42-4.24 19-10.87 11.45-13.4-15.22 10.32-44.87 23.2-39.06 8.78 3.96 23.13-5 23.13-13.76 0-8.04-7.53-12.18-22.17-12.18-15.9 0-22.18 4.3-30.95 21.2-10.18 19.62-10.86 42.29-1.68 56.07 9.56 14.33 4.8 18.93-12.29 11.92-16.29-6.7-24.83-3.88-35.13 11.57-8.81 13.22-8.34 22.84 1.74 35.44 14.45 18.06 34.61 10.3 23.98-9.22-5.4-9.92-1.48-26.4 6.02-23.94 40.79 13.43 89.25 52.4 132.47 26.48 12.06-7.23 37.54-11.85 40.74-6.78 1.41 2.25-1.25 7.17-6.74 8.07-21.33 3.5-48.17 24.44-64.23 41.3-16.39 17.18-30.49 20.2-46.78 11.28-42.7-23.39-84.89-4.9-79.95 28.44 3.32 22.39 10.9 25.27 14.35 4.16 5.2-31.76 29.32-2.83 51.22 19.07 10.84 10.84 43.22 3.47 45.19-22.12 1.52-19.84 26.93-34.36 26.03-27.48-7.4 56.8-47.36 165.28-99.82 195.01-30.03 17.03-65.59 24.4-73.05 3.83-3.73-10.26-15.8-9.89-26.17 1.05-7.56 7.97-7.75 9.31-1.95 13.48 5.59 4.02 4.74 5.44-6.5 10.96-22.26 10.92-45.54 3-71.96-14.55-43.53-28.93-18.32-100.31 23.06-89.34 37.75 10.01-6.94 14.54-7.52 26.07-.45 9.11 12.52 16.4 26.7 18.53 23.5 3.54 40-14.43 30.12-29.62-30.55-47-74.99-44.35-110.67 1.13-8.62 11-18.63 14.14-26.19 5.18-6.32-7.49-16.33-3.5-16.33 6.53 0 11.95 12.26 34.85 18.66 34.85 3.1 0 9.05-5.5 13.21-12.22 9.08-14.68 11.8-11.61 11.8 13.3 0 20.94-8.76 30.63-27.67 30.63-15.2 0-22.25-7.4-28.33-29.72-6.34-23.27-16.9-33.37-35.04-33.56-16.46-.16-22.48 10.12-2.12 31.76 9.01 9.59 18.84 22.95 13.22 23.84-5.51.88-39.42-15.7-48.2-26.69-6.68-8.34-8.4-15.43-7.73-31.79.71-17.34-.8-22.8-8.59-30.95-11-11.52-22.76-12.88-25.66-2.96C.76 860.5.02 873.43.24 885.41c.48 27.3 9.16 40.36 33.32 50.13 22.46 9.08 23.85 17.25 2.94 17.25-16.4 0-33.15 8.98-33.15 17.77 0 10.1 20.76 22.33 35.76 21.07 15.94-1.35 21.22-9.14 8.81-13.01C19.8 969.84 63.3 965.25 96 971.7c40.1 7.9 68.53 3.84 84.5-19.83 23.02 26.11 61.34 41.55 95.6 35.72 20.03-3.4 26.75-3.58 35.97 3.34 11.59 8.7 24.5 6.9 41.4 1.1 14.67-5.02 18.1-19.43 4.63-19.43-13.82 0-8.92-5.86 14.2-17.01 23.59-11.37 30.78-13.1 29.14-6.97-3.86 14.39 32.22 42.11 67.52 47.3 14.57 2.15 42.72 6.83 56.08-3.86 3.79-3.02-7.71-9.03-23.5-12.03-11.65-2.22-12.09-10.1-.71-12.91 14.08-3.48 46.43 8.04 61.04 21.73 13.94 13.05 22.01 14.74 21.92 4.57-.09-9.84-3.82-13.98-22.11-24.48-21.02-12.07-73.28-13.76-93.7-3.04-16 8.42-30.78 5.85-41.43-8.16-6.66-8.77-6.2-13.2 1.35-18.84 10.04-7.5 25.7-56.17 36-74 31-53.7 29.32-114.42 43-128.1 9.4-9.4 33.09-44.3 44.93-43.46 3.34.23 2.04 5.12-2.45 10-8.95 9.72-25.95 57.88-25.98 73.58 0 6.8-4.3 19.7-6.18 29.55-3.69 19.38-5.58 37.21-20.79 34.63-8.6-1.46-10.54 2.83-6.63 14.99 3.77 11.72 11.82 6.74 21.57-6.15 4.38-5.78 10.1-15.68 12.01-26.68 2.55-14.62 9.62-3.3 12.12 4.19 16.07 48.17 44.6 87.7 94.21 118.8 2.33 1.47 3.37 3.07 4.47 5.56 2.2 4.9 5.88 8.92 8.19 8.92 6.3 0 18.31 15.24 14.05 17.83-2.04 1.24-7.33.03-11.76-2.69-13.82-8.48-15.81 1.67-1.26 13.52 18.14 14.77 35.3 3.74 36.47-8.18.89-9.08-9.49-16.05-23.47-24.33-2.38-1.41 44.86-1.54 68.23 1.88 24.8 3.63 30.86 8.71 21.94 18.4-8.88 9.65-5.8 12.06 18.42 14.35 34.46 3.25 40.59-3.91 17.26-23.33-6.16-5.13-14.59-9.87-22.86-14.63l33.95-6.4c28.46-5.35 38.51-6.78 54.22 5.3 9.42 7.23 8.2 16.2.33 16.2-3.33 0-6.02 2.23-5.98 4.95.26 21.2 47.7 23.57 54.43 2.73 5.18-16.05-14.04-35.42-35.15-35.42-13.32 0-7.45-7.2 7.87-9.64 10.95-1.74 21.22.1 37.28 6.73 25.36 10.45 40.18 23.48 38.78 34.53-2.25 17.73 1.95 23.14 23.25 26.54 12.87 2.05 14.8 1.17 18.5-8.4 8.7-22.46-28.77-47.92-45.56-57.22-20.18-11.18-57.15-19.74-99.37-8.32-5.28 1.42-2.46-1.23 7.49-7.72 74.76-48.84 107.01-50.43 111.95-37.78 1.3 3.35-.57 9.28-4.16 13.18-9.53 10.35-8.14 13.8 7.94 12.43 25.3-2.16 38.64-25.16 18.25-46.38-7.95-8.28-28.4-6.45-41.7-3.1-9.39 2.37-22.7 8.06-28.99 10.16 35.77-31.78 56.84-72.82 72.6-117.96 3.67-10.47 9.05-21.9 12.14-25.34 5.7-6.34 4.81-22.43 3.17-28.52-8.19-30.57 19.92-93.57-11.53-185.18-12.63-36.8-21.13-49.8 1.43-75.45 8.48-9.64 12.56-16.74 12.56-26.2 0-7.31-1.45-14.37-5.81-13.08-6.66 1.98-16.54 12.18-20.5 23.92-3.63 10.71-8.09 19.47-9.92 19.47-5.54 0-16.18-35.92-16.18-54.63 0-12.48 1.46-16.97 5.05-15.53l11.95 4.76c4.92 1.94 10.93-1.6 20.9-12.28 18.42-19.77 19.89-27.15 8.12-40.9-11.4-13.32-15.14-37.7-3.57-61.75 5.85-12.16 3.92-17.83-5.86-17.83-12.47 0-33.55 14.77-41.24 28.89-10.5 19.3-14.68 51.24-11.42 87.51 1.78 19.9 4.49 39.75 6 44.1-23.1-26.9-60.38-99.18-43.7-134.15 1.6-3.38 5.91-9.14 8-13.74 4.12-1.05 8.12-.81 9.6 2.85 3.25 8.12 6.63 7.4 17.31-3.78 10.7-11.19 15.36-45.74 6.84-49.3-11.54-4.82-30.85 19.25-35.12 25.35-6 8.6-7.69 17.04-5.5 20.9-1.5 3.76-4.1 8.56-4.81 7.22-24.54-45.8 3.04-96.59 16.54-105.08 14.07-8.86 17.27-9.55 14.12 5.96-2.09 10.25-1.07 11.81 9.2 13.96 22.27 4.65 31.53 12.44 34.97 29.41 1.8 8.86 5.03 16.11 7.2 16.11 3.16 0 18.57-8.22 27.54-14.7 4.55-3.28-.84-43.37-6.68-49.72-5.98-6.49-5.93-7.45.62-12.16 4.35-3.12 6.57-8.88 5.72-14.8-1.53-10.66-6.32-11.44-40.7-6.6-10.52 1.5-19.14 1.28-19.14-.48 0-4.78 11.77-15.04 33.93-29.57 26.17-17.16 30.3-23.81 21.02-33.9-6.74-7.32-6.78-8.45-.53-17.83 3.67-5.5 6.08-14.14 5.35-19.17-1.24-8.6-3.09-9.15-31.53-9.28-27.23-.13-31.14.83-39.65 9.86-14.09 14.94-20.55 33.53-20.25 58.16.38 31.98-6.36 34.69-12.75 5.12-5.3-24.62-19.7-44.36-40.22-55.16-4.44-2.33-8.09-6.69-8.09-9.67 0-13.75-57.74 3.8-76.27 23.2-9.96 10.42-17.3 38.14-12.22 46.2 4.42 7.05 15.46 1.46 19.93-10.1 2.93-7.57 6.75-10 15.73-10 14.06 0 24.62 3.5 24.62 8.15 0 1.84 5.42 11.23 12.04 20.88 14.09 20.52 30.63 32.58 37.61 27.42 2.63-1.94 9.3-3.4 14.85-3.24 8.57.25 10 2.07 9.54 12.18-.29 6.54-10.94 31.27-12.57 36.17-4.73 1.16-10.33-3.05-17-12.78a83.87 83.87 0 0 0-56.93-35.34c-25-3.54-37.76 7.17-45.96 38.6-6.25 23.92-4.86 34.79 4.43 34.79 6.08 0 6.81-3 5.7-23-.82-14.44 9.06-32.49 17.79-32.49 3.07 0 10.5 5.72 16.47 12.7 9.3 10.88 10.53 15.14 8.5 29.64-2.01 14.48-1.13 17.57 6.12 21.38 6.85 3.6 10.49 2.99 18.96-3.23 5.77-4.24 11.49-11.86 12.71-16.95 3.01-12.55 10.51-14.2 16.3-3.57 3.69 6.78.08 11.53-.42 24.12-5.4 136.1 28.02 159.85 76.48 253.02 3.79 7.3 7.25 17.39 9.14 21.75-23.9-36.6-63.5-66.63-103.27-89.48-7.53-4.32-4.65-15.13-2.24-25.64 2.75-11.97 1.8-18.26-4.71-30.79-8.3-16-26.89-34.08-40.32-39.24-8.88-3.41-9.09-6.53-1.11-16.9 4.36-5.67 10.47-7.75 21.94-7.45 12.35.31 16.44-1.29 18.35-7.2 4.78-14.83-18.22-35.5-33.89-33.17-15.96 2.38-31.73 19.06-34.53 30.01-1.17 4.56 4.72 7.87 7.27 12.11 4 6.67 6.53 12.86 5.62 13.76-.92.9-7.9-.12-15.5-2.26-18.47-5.21-17.93-5.36-23.46 6.57-4.24 9.14-3.7 11.66 4.21 19.94 4.98 5.21 18.5 12.18 30.06 15.48 22.86 6.54 31.97 14.07 28.32 23.43-3.28 8.4-12.7 7.48-36.47-3.55-11.3-5.24-29.62-10.8-40.7-12.37-11.09-1.56-22.88-5.09-26.2-7.83-3.33-2.74-12.4-8.12-20.16-11.95-17.72-8.76-20.94-13.6-13.76-20.66 6.89-6.77 1.78-18.42-11.03-25.16-11.55-6.08-27.62 1.2-27.62 12.5 0 11.38 12.2 30.9 21.03 33.66 3.96 1.24 7.2 4.08 7.2 6.32 0 6.37-39.84-.2-59.9-9.87-9.68-4.66-20.93-12.63-25-17.72-7.33-9.16-7.25-9.5 6.72-28.61 7.78-10.64 14.25-23.46 14.37-28.47.36-14.5 8.05-26.94 16.66-26.94 7.25 0 7.71 1.89 5.33 21.8-1.54 12.94-1.04 21.8 1.24 21.8 7.67 0 16.38-18 16.25-33.59-.19-21.99-11.33-34.28-33.16-36.56-14.47-1.52-19.21-.03-30.91 9.72-8.3 6.91-8.97 7.53-10.73 13.26-1.85 5.97-.36 7.82 2.05 16.3 3.88 13.63 4.02 20.1.58 26.44-7.1 13.04-11.11 10.02-13.42-10.11-1.45-12.61-6.03-18.72-9.91-24.6-5.47-8.31-5.92-17.06-4.45-22.96 1.86-7.49 12.86-13.69 20.77-19.45 6.61-4.81 22.04-16.62 13.13-21.5-18.37-10.07-24.85 15.52-35.45 24.69 7.5-63.83 11.15-80.56 23.9-99.38 9.35-13.81 20.94-16.47 29.97-16.47 3.98 0 7.44 3.63 8.19 8.61 1.57 10.55 18.8 16.92 36.82 13.6 7.11-1.32 20.16-8.6 29-16.18 18.7-16.04 21.97-16.62 34.78-6.24 9.35 7.58 9.4 7.94 2.47 20.14-9.27 16.33-8.9 19.4 2.01 16.8 10.56-2.53 22.27-11.8 27.84-22.03 5.77-10.6-5.47-39.2-23.1-46.58C688.2 11.93 667.31 6.56 644 5.87c-19.66-.57-25.16 1.1-43.74 13.4-11.69 7.74-22.31 13.44-23.15 14.06-49.02 36.4-40.83 96.14-48.27 124.17-3.23 12.16-7.38 5.27-9.9-.59-2.5-5.86-13.58-32.2-16.78-38.67-8.16-16.52 17.87-41.85 29.38-46.03 15.06-4.66 13.69-37.63 22.2-48.6 13.1-16.88 12.54-21.99-2.34-21.99-9.42 0-13.88 2.77-19.14 11.87-8.56 14.78-16.01 15.27-17.69 1.15-1.03-8.73-3.88-11.54-15.38-13.6A53.43 53.43 0 0 0 489.05 0Zm155.99 34.42c1.27.1 2.42.4 3.35.9 2.2 1.18-.07 6.58-4.4 11.02-9.02 9.24-19.69 11.76-21.73 3.04-1.74-7.44 13.85-15.7 22.78-14.96Zm309.39 18.6c2.58-.12 4.3 1.46 4.27 5.07-.03 2.73-6.38 11-14.11 18.4-15.62 14.92-18.6 9.76-6.05-10.47 4.92-7.94 11.6-12.82 15.89-13Zm-97.23.12c5.73 0 20.91 15.94 20.91 21.95 0 8.65-4.98 6.69-15.12-5.95-9.64-12.02-11.08-16-5.8-16Zm97.7 87.2c8.57 0 28.03 16.37 28.03 23.6 0 6.14-6.34 5.02-12.45-2.22-2.95-3.5-9.52-7.92-14.6-9.82-11.46-4.28-12.09-11.57-.99-11.57Zm-754.8 57.79c2.89-.2 6.77.75 10.84 3.25 6.08 3.73 13.83 5.7 18.34 4.29 5.53-1.72 7.87-.61 7.87 3.75 0 8.73-28.97 8.41-39.46-2.77-4.44-4.72-2.4-8.2 2.41-8.52ZM38.13 222.12c1.09.14 1.88 2.16 2.2 6.63 2.21 30.64.33 65.15 11.6 86.9 2 3.84 3.82 10.47 3.82 14.86 0 4.39-2.76 8.94-5.81 7.98-20.93-6.58-26.23-32-28.74-45.06-3.47-18.06 11.06-72.08 16.93-71.31Zm924.64 72.53c2.2.22 3.53 5.84 5.78 21.05 2.87 19.49-1.9 25.42-9.4 11.66-4.05-7.45-3.39-26.9 1.07-31.27.99-.98 1.81-1.5 2.55-1.44ZM77.4 708.83c29.66-1.5 82.45 62.75 64.46 87.6-4.46 6.16-8.85 22.3-18.97 21.98-9.03-.28-9.61-1.23-6.34-8.8 2.16-4.97 9.36-12.34 10.53-19.73 2.05-12.9 1-24.37-7-24-10.58.5-19.25 16.43-20.93 18.81a244.01 244.01 0 0 0-9.6 15.78c-1.64 3.13-8.87 9.7-12.78 9.07-8.48-1.36-5.07-20.13 3.73-25.23 3.04-1.77 9.44-10.73 14.22-19.93 8.38-16.1 8.5-17.09 3.24-26.73-4.67-8.57-7.82-10.26-21.85-11.76-14.9-1.6-16.25-2.48-11.96-7.5 3.5-4.1 7.92-9.3 13.25-9.56Zm834.68 30.64c5.38 0 7.22 4.8 4.08 10.69-3.14 5.88-7.56 10.7-9.8 10.7-2.24 0-4.07-4.82-4.07-10.7 0-5.88 4.41-10.69 9.8-10.69Z"/></svg>
