<svg viewBox="0 0 1000 1000"><path d="M489.05.02c-3.55.06-6.93.78-9.12 2.86-15.04 14.31-8.34 34.69-2.92 48.3 3.4 8.51 22.45 16.22 42.18 13.13-13.04 6.16-21.84 24.87-26.25 36.8-12.94-36.18-46.37-63.96-74-77.99-22.34-11.34-65.5-21.32-96.98-2.59-17.38 10.34-13.63 55.73-3.4 72.58 10.38 17.07 16.29 14.73 13.46-5.27-3.33-23.63 1.12-28.93 19.35-23.01 7.92 2.57 15.46 7.96 16.76 11.98 3.41 10.57 11.45 12.29 31.09 6.64 16.77-4.81 17.29-5.43 16-19.61-.72-8.05-.22-14.65 1.14-14.65 47.7 11.15 53.41 40.9 77.43 76.6 5.02 7.46 16.25 28.7 16.74 32.81-1.98 2.36-5.89.4-19-6.17-23.5-11.78-44.76-8.1-44.76 7.76 0 3.84 4.7 10 10.43 13.69 9.5 6.12 11.03 6.16 17.44.46 13.22-11.76 34.87-6.99 41.53 9.15 7.35 17.8 10.7 45.61 6.15 51.1-2.95 3.58-2.68 7.9.92 14.5 5 9.2 3.11 18.07-3.85 18.07-7.71 0-16.18-13.17-16.18-25.16 0-12.03-7.85-29.96-17.9-35.22-9.07-4.73-27.3-6.05-25.69 5.5.94 6.65-1.78 9.54-12.57 13.14-18.6 6.2-23.62 14.6-16.54 27.61 6.63 12.17 14.75 13.16 18.28 2.24 4.14-12.84 17.53-11 25.7 12.25 4.53 12.92 21.14 19.7 24.54 19.98 3.41.28 17.67 3.2 31.93 3.72 19.81.72 27.64.48 32.46 6.23 10 11.96 27.48 22.33 36.1 24.79 12.59 3.6 18.72 6.55 12.7 10.21-2.2 1.34-12.9 3.47-23.76 4.73-16.64 1.94-21.1.98-28.31-6.11-10.68-10.5-18.88-10.56-45.37-.3-11.53 4.47-26.37 7.6-32.98 6.94-10.7-1.06-12.55-3.3-16.97-20.47-6.1-23.74-13.39-29.4-23.1-17.9-8.22 9.72-8.88 18.97-2.37 33.01 4.84 10.46 31.19 18.7 52.4 18.74 14.74.03 1.3 15.57-5.56 21.13-25.5 20.73-70.71 65.17-161.33 85.33-16.44 3.66-30.46-2.53-43.18-3.8-19.7-1.98-24.03-6.22-35.26-16.92-17.04-16.23-16.02-25 2.9-25 13.45 0 14-.56 13.33-13.79-.71-14.13-12.64-27.83-24.23-27.83-8.14 0-16.95 9.43-21.91 23.42-4.97 14.01 3.75 35.72 19.13 47.61 11.3 8.75 13.04 18.46 2.5 14.07-3.87-1.62-22.19-4-43.25-9.36-21.06-5.36-41.28-13.93-42.37-14.98-1.1-1.05 1.1-3.6 4.87-5.68 3.77-2.07 5.9-6.2 4.74-9.18-3.21-8.25-46.8-26.15-57.17-23.48-12.46 3.2-11.76-7.78 1.03-16.02 13.45-8.67 19.74-8.1 38.43 3.5 20.16 12.52 26.92 12.46 39-.37 10.48-11.1 8.16-18.75-7.12-23.52-9.6-3-9.9-8.1-.67-11.59 4.6-1.73 9.39.24 13.93 5.74 3.8 4.62 11.98 8.74 18.18 9.17 10.3.7 11.26-.4 11.26-12.93 0-15.78-6.58-18.96-40.31-19.55-36.3-.64-48.55 3.37-73.3 24-21.15 17.62-23.58 18.72-24.77 11.19-.72-4.6.53-13.55 2.78-19.9 3.3-9.3 2.1-17.17-6.15-40.4-10.22-28.8-11.98-36.54-16.04-70.8-1.63-13.78-.51-19.81 4.58-24.82 6.28-6.17 7.4-6.08 17.02 1.35 12.82 9.9 15.29 9.91 25.4-.02 5.4-5.33 7.35-11 5.82-17-3.77-14.78 4.48-30.5 16-30.5 8.26 0 10.46 2.44 12.68 14.04 2.72 14.3 10.66 16.78 13.16 4.14 3.06-15.53-3.51-25.97-21.36-33.96-21.93-9.82-23.03-9.83-41.92-.36-16.28 8.17-36.85 34.7-36.85 47.52 0 4.28-1.76 8.85-3.91 10.16-5.55 3.37-9.62-15.7-6.1-28.66 1.62-6 3.71-17.04 4.64-24.55 2.09-16.77 24.08-58.27 32.58-61.48 3.41-1.29 9.12.17 12.68 3.25 3.56 3.08 12.24 6.8 19.29 8.28 11.51 2.4 14.58.83 30.13-15.42 10.7-11.18 20.82-18.08 26.49-18.08 5.04 0 9.17-1.56 9.17-3.45 0-5.63-38.38-8.97-50.59-4.4-19.21 7.18-20.83-2.15-2.36-13.6 18.71-11.62 38.83-13.2 52.08-4.07 4.94 3.4 12.13 5.42 16.01 5.5 75.52 1.41 60.15 100.18 6.5 91.24-30.71-5.12-33.81-27.51-5.47-33.25 19.7-4 23.99-7.7 24.08-20.81.06-9.17-9.58-12.64-35.25-12.66-16.23-.01-27.33 19.86-26.21 41.7 1.26 24.7 24.8 47.84 60.94 44.2 29.4-2.96 30.87-.84 32.13 7.91 2.73 18.95-14.78 26.04-36.64 14.83-7.7-3.95-16.29-4.84-27.92-2.88-16.4 2.75-22.52 10.2-24.86 26.1-2.13 14.38 1.43 20.93 10.1 20.9 6.54-.01 12.81 4.14 14.23 6.4 2.87 4.56-11 17.02-30.6 27.5-11.9 6.35-12.66 7.95-10.17 21.79 3.77 21 10.12 26.4 27.31 23.24 16.4-3.03 33.34-15.05 29.58-21.02-1.41-2.25-8.01-5.16-14.66-6.47-14.8-2.91-11.79-10.31 3.3-17.08 15.26-6.84 27.8-6.47 39.23-9 23.28-5.17 57.47-60.13 40.14-88.65-11.13-18.34-14.7-23.91-7.91-46.37 13.33-44.11-12-76.32-39.69-87.43-53.45-21.47-134.48-3.37-178.66 85.07-1.27 2.55-5.29 9.07-8.5 10.08-3.2 1.01-5.94-2.78-3.64-4.95 11.04-10.48 28.3-49.87 36.93-66.23 4.06-7.71 8.51-30.43 3.74-37.25-5.21-7.47-22.15-3.44-30.5.42C35.63 15.95 31.34 5.2 21.33 5c-10-.19-12.2 7.16-17.64 34.07-4.86 24.05-4.28 30.26 1.8 36.2 6.3 6.14 6.8 3 13.66-5.9 4.59-5.94 9.74-8.63 13.69-7.14 5.7 2.15 5.61 4.4-.86 22.48-3.96 11.05-11.25 24.34-16.21 29.53-7.77 8.13-8.2 13.48-8.54 38.58-1.16 87.01-39.57 155.6 31.8 221.3 6.43 5.92 20.76 6.34 20.76 11.27 0 1.8-8.15 9.04-18.1 16.07-25.5 18-37.07 39.45-41.88 77.71-3.36 26.67-3.01 32.74 2.16 38.36 3.75 4.07 5.1 9.87 3.49 14.88-3.95 12.21 11.35 10.81 19.76-1.8 5.27-7.92 5.97-13.93 3.32-28.73-4.03-22.54-2.39-32.6 5.34-32.6 3.67 0 5.75 4.2 5.75 11.6 0 9.07 2.8 12.97 12.76 17.86 11.7 5.75 13.36 5.72 20.15-.32 9.5-8.46 9.26-22.74-.75-44.43-9.34-20.23-10.15-33.47-2.46-39.75 7.04-5.75 12.44.22 19.54 21.58 6.63 19.99 25.64 29.85 43.83 24.82 8.6-2.38 11.04-6.16 6.33-10.83-7.85-7.78-.56-10.75 13.33-3.46 29.5 15.48 85.5 20.83 100.48 23.99-10.78 4.04-14.56 6.99-25.76 10.54-8.81 2.8-19.75 6.23-24.18 8-36.83 14.75-46.25 19.74-59.72 31.63-14.56 12.85-17.06 13.6-47.17 14.21-33.77.69-42.37 4.4-48.83 21.08-5.9 15.26 2.53 21.7 25.55 19.52 13.26-1.25 19.3-.36 19.3 2.88 0 7.16-23.08 25.84-31.93 25.84-4.3 0-16.41-8.92-26.9-19.82-10.5-10.9-20.86-19.81-23.02-19.81-7.33 0-14.63 13.81-14.68 27.74-.04 18.6 10.03 29.53 32.76 35.53 16.42 4.33 21.3 4.05 37.8-2.14 10.5-3.94 21.85-11.65 25.47-17.28 27.15-42.2 75.57-95.38 86.84-95.38-48.87 54.15-71.18 114.2-75.07 177.91-4.59-2.41-6.57-4.88-10.89-9.65-24.57-27.17-63.89-.06-68.15 22-14.66 75.9 25.04 124.59 67.1 159.4 17.58 14.54 33.95 9.6 51.95-12.78 16.9-21.02 57.43-80.53 46.9-125.12-2.17-9.18-10.5-15.35-14.37-21.22-9.91-15.05-28.43-23.3-43.75-15.7-6.38 3.18-6.16 5.95-12.97 7.27-1.04-57.26 34.57-150.28 87.3-183.65 4.28 7.63-24.21 52.46-30.2 58.8-5.94 6.3-4 31.38 3.56 45.93 9.34 18 28.5 38.92 41.87 45.73 17.14 8.74 52.1 3.44 73.04-11.06 33.51-23.2 37.43-90.7 5.84-100.56-6.25-1.95-10.93.16-17.78 8-12.4 14.17-11.74 20.13 2.93 26.1 20 8.15 26.55 29.85 13.33 44.21-9.44 10.26-13.98 9-12.63-3.5 1.78-16.44-10.81-16.7-19.38-.4-11.77 22.4-21.67 19.47-31.75 9.39-7.8-7.8 8-23.2-2.3-17.27-3.51 2.02-5.36 3.49-7.26 8.13-5.64 13.8-7.03 13.66-14.98-1.47-7.54-14.33-11.06-35.18-5.94-35.18 1.93 0 6.37-1.09 9.87-2.4 5.2-1.97 5.92-.25 3.95 9.42-3.11 15.31 3.34 19.02 18.15 10.42 8.74-5.08 12.33-10.8 14.28-22.76 2.23-13.71.9-17.17-7.65-26.05-12.02-12.49-9.73-10.35-24.38-2.59-7.78 4.12-15.16 6.47-16.42 5.23-1.26-1.24 4.36-14.9 12.5-30.35 15.14-28.77 20.2-32.86 53.93-43.58 7.54-2.4 21.5-3.91 31-4.35 18.66-.87 26.4-3.74 40.76-6.47l-9.3 13.4c-8.76 12.62-9.63 17.5-7.54 32.7 2.91 21.21 11.21 23.78 26.47 23.78 24.1 0 29.22-7.27 16.26-23.1-15.63-19.08-14.61-24.97-14.62-37.62 0-2.9 1.8-11.51 6.7-13.2 28.1-9.8 107.71-48.2 132.77-83.33 12.26-17.18 72.18-2.61 68.32-17.55-2.22-8.64.6-10.32 7.51-5.75 2.64 1.75 7.99.33 11.73-2.92s14.05-6.79 22.92-7.87c8.87-1.09 29.17-5.32 45.12-9.4 13.55-3.47 31.2-5.47 44.54-5.81 13.33-.34 22.33.99 18.55 4.2-1.87 1.6-13.33 6.98-25.47 11.97-42.79 17.58-47.96 25.59-32.55 50.43 14.6 23.53 33.48 26.25 46.5 6.7 9.68-14.51 5.53-21.36-11.32-18.68-7.72 1.24-14.94.4-16.4-1.92-2.9-4.63 14.16-24.49 21.06-24.49 2.45 0 11.58-3.65 20.3-8.12 19.02-9.75 44.89-7.79 73.14 5.54 18.3 8.63 23.88 18.73 16.52 29.88-3.06 4.63-7.05 4.35-25.21-1.8-11.88-4-23.32-8.71-25.43-10.45-4.92-4.07-22.36-4.13-22.36-.09 0 1.7 3 7.3 6.68 12.47 6.28 8.83 6.24 9.72-.77 14.76-4.1 2.95-9.63 5.36-12.28 5.36-6.64 0-11.26 33.45-5.96 43.18 2.33 4.3 7.92 8.95 12.4 10.35 7.58 2.36 39.56 5.16 32.17-4.13-.51-.64-4.67-6.07-10.37-11.68-16-15.72-11.23-19.92 22.8-19.88 24.09.02 30.94-1.64 46.05-17.12 15.5-15.88 16.95-17.13 28.14-12.63 44.19 17.76 91.32 63.34 129.36 165.13-16.08-23.38-34.64-47.47-75.09-57.96-8.08-2.1-11.84-10.07-3.03-12.96 3.41-1.12 3.32-6.11-3.18-15.08-8.22-11.3-23.07-19.49-35.2-19.24-4.12.08-8.38 1.16-11.4 3-4.06 2.45-11 4.5-15.47 4.5-14.75 0-6.13 21.73 9.7 24.44 4.24.73 8.53 3.71 9.52 6.63 1.42 4.2-3.7 4.9-24.43 3.4-25.14-1.83-26.57-1.44-34.72 9.4-10.23 13.6-10.33 14.94-1.83 24.19 8.77 9.52 21.6 9.16 41.83-1.2 13.63-6.99 18.24-7.68 26.56-3.95 11.78 5.28 9.24 12.4-4.42 12.4-13.09 0-22.27 3.9-22.27 9.47 0 2.57 5 10.38 11.09 17.34 12.04 13.76 15.24 13.78 42.5.26 16.32-8.1 26.45-25.28 19.13-32.47-6.48-6.38-4.75-12.39 3.88-10.45 92.78 20.77 73.68 210.18 20.15 286.44 18.34-54.58 12.41-92.3 6.02-119.33-7.69-32.5-18.53-67.5-10.04-73.98 7.32-5.59 5.36-17-.18-19.92-3.37-1.78-8.13.66-10.53 2.6-4.95 4-6 9.77-3.83 25.98l4.04 30.15c-17.71-37.04-60.84-36.12-73.26-5.43-3.26 8.07 15.67 10.42 20.07 2.7 4.94-8.68 24.63-8.01 33.03 1.12 4.81 5.23 7.4 16.59 8.57 37.88 1.67 29.9 1.54 30.36-7.26 27.75-10.86-3.22-18.72-9.7-11.77-9.7 8.98 0 4.91-7.22-8.74-15.52-29.39-17.85-41.34-4.5-18.68 20.87 14.34 16.05 14.37 16.2 4.04 26.36-11.88 11.68-8.9 20.37 7.05 35.15 19.54 18.1 47.35 15.47 49.38-3.54.8-7.4 11.2-3.22 8.48 5.6-9.42 30.4-12.86 57.1-49.42 91.8-10.82 10.25-25.54 18.7-41.91 30.7 3.36-16.68 13.97-25.25 17.7-30.85 10.64-15.96 12.74-40.29 5.97-54.88-12.9-27.8-18.91-32.56-23.42-18.58-1.47 4.54-7.32 12.5-13.01 17.69-8.52 7.77-9.89 11.69-7.73 22.28 3.25 16.01 9.38 23.53 19.18 23.53 12.15 0 8.83 9.9-9.56 28.45-18.66 18.83-56.07 41.07-80.04 43.3-19.13 1.77-79.35 2.87-95.1-3.84-50.7-21.62-71.52-52.24-91.02-85.5-17.55-29.94-18.95-36.05-4.95-21.2 14.85 15.74 35.39 20.2 54.88 11.9 8.91-3.8 15.69-9.44 15.69-13.07 0-8.14-11.75-18.52-22.18-19.58-15.8-1.62-18.76-.15-16.12 8.03 7.68 23.8-36.7 1.7-45.31-22.56-5.25-14.79-3.92-21.4 5.78-56.27 18.75-67.4 106.7-75.46 103.9-7.58-1.24 30.43-19.37 35.44-34.14 15.06-6.6-9.1-11.73-11.89-21.96-11.89-14.99 0-20.38 4.84-23.34 21-2.95 16.06 7.66 28.7 29.82 30.31 54.17 3.95 77.46-47.92 67.38-75.31-19.4-52.68-79.42-56.12-136.56-46.31 5.72-18-2.73-34.56-22.84-36.7-11.46-1.22-33.55-7.2-27.88-23.24 2-5.63 8.54-6.96 15.35-9.7 11.7-4.69 14.26-9.18 5.44-11.77-35.78-10.5-50.29 15.25-48.9 41.87.87 16.92 13.48 30.57 23.88 33.36 23.42 6.28 25.35 7.14 18.76 14.96-3 3.55-11.75 7.17-21.05 6.05-38.63-4.7-41.1-14.84-37.88-43.4 1.66-14.63.19-21.63-4.4-26.15-8.15-8-18.96-5.8-20.6 4.2-2.85 17.42-4.23 19-10.87 11.45-13.4-15.22 10.32-44.88 23.2-39.06 8.78 3.96 23.14-5 23.14-13.76 0-8.04-7.53-12.18-22.17-12.18-15.91 0-22.18 4.29-30.96 21.2-10.18 19.62-10.85 42.29-1.67 56.07 9.55 14.33 4.8 18.93-12.3 11.91-16.28-6.69-24.83-3.87-35.12 11.58-8.82 13.22-8.34 22.84 1.74 35.44 14.45 18.06 34.6 10.3 23.98-9.22-5.4-9.92-1.48-26.4 6.01-23.94 40.8 13.43 89.25 52.4 132.47 26.48 12.07-7.23 37.55-11.85 40.74-6.78 1.41 2.25-1.24 7.16-6.74 8.07-21.32 3.5-48.17 24.44-64.23 41.3-16.38 17.18-30.49 20.2-46.78 11.28-42.7-23.39-84.88-4.9-79.94 28.44 3.32 22.39 10.89 25.27 14.34 4.16 5.2-31.76 29.32-2.83 51.23 19.07 10.83 10.84 43.22 3.47 45.18-22.12 1.52-19.84 26.94-34.36 26.04-27.48-7.4 56.8-47.36 165.28-99.83 195.01-30.03 17.03-65.58 24.4-73.05 3.83-3.72-10.26-15.8-9.9-26.17 1.05-7.55 7.97-7.75 9.3-1.95 13.47 5.6 4.03 4.75 5.45-6.5 10.97-22.26 10.91-45.53 3-71.95-14.56-43.53-28.92-18.33-100.3 23.05-89.33 37.75 10.01-6.94 14.54-7.5 26.07-.46 9.11 12.5 16.4 26.68 18.53 23.5 3.54 40-14.43 30.13-29.62-30.55-47-75-44.35-110.67 1.13-8.63 11-18.63 14.14-26.2 5.18-6.32-7.49-16.32-3.5-16.32 6.53 0 11.95 12.26 34.85 18.65 34.85 3.1 0 9.06-5.5 13.22-12.22 9.08-14.68 11.8-11.61 11.8 13.3 0 20.94-8.76 30.63-27.68 30.63-15.19 0-22.24-7.4-28.32-29.73-6.34-23.26-16.9-33.37-35.04-33.55-16.47-.16-22.48 10.12-2.13 31.76 9.02 9.59 18.84 22.95 13.23 23.84-5.52.88-39.42-15.7-48.2-26.69-6.68-8.34-8.4-15.43-7.73-31.79.71-17.34-.8-22.8-8.6-30.96-11-11.52-22.75-12.87-25.65-2.95C.75 860.5.02 873.43.23 885.42c.49 27.3 9.17 40.36 33.33 50.13 22.45 9.08 23.84 17.25 2.93 17.25-16.4 0-33.14 8.97-33.14 17.77 0 10.1 20.76 22.33 35.76 21.06 15.94-1.34 21.21-9.13 8.81-13-28.14-8.78 15.36-13.37 48.07-6.93 40.1 7.91 68.53 3.84 84.49-19.82 23.03 26.11 61.35 41.55 95.61 35.72 20.02-3.4 26.75-3.58 35.97 3.34 11.58 8.7 24.5 6.9 41.4 1.1 14.67-5.02 18.1-19.43 4.63-19.43-13.82 0-8.93-5.86 14.2-17.01 23.58-11.38 30.78-13.1 29.14-6.97-3.86 14.38 32.22 42.11 67.52 47.3 14.57 2.14 42.72 6.83 56.08-3.86 3.78-3.03-7.72-9.03-23.5-12.03-11.66-2.22-12.1-10.1-.72-12.91 14.08-3.48 46.44 8.04 61.04 21.72 13.94 13.06 22.02 14.74 21.92 4.58-.09-9.84-3.81-13.98-22.1-24.48-21.03-12.07-73.29-13.76-93.7-3.04-16.01 8.42-30.78 5.85-41.44-8.17-6.66-8.76-6.19-13.19 1.35-18.83 10.04-7.5 25.7-56.17 36-74 31-53.7 29.32-114.42 43.01-128.1 9.4-9.4 33.08-44.3 44.93-43.46 3.34.23 2.03 5.12-2.46 10-8.95 9.72-25.94 57.88-25.97 73.57-.01 6.81-4.3 19.7-6.18 29.56-3.7 19.38-5.59 37.21-20.79 34.63-8.6-1.46-10.55 2.83-6.64 14.99 3.77 11.72 11.82 6.74 21.57-6.15 4.38-5.78 10.1-15.68 12.01-26.68 2.55-14.62 9.62-3.3 12.12 4.19 16.07 48.17 44.6 87.7 94.22 118.8 2.33 1.47 3.36 3.07 4.47 5.56 2.19 4.9 5.87 8.91 8.18 8.91 6.3 0 18.32 15.24 14.05 17.83-2.04 1.24-7.33.04-11.75-2.68-13.83-8.48-15.82 1.67-1.26 13.52 18.14 14.77 35.29 3.74 36.46-8.18.9-9.08-9.48-16.05-23.46-24.33-2.39-1.41 44.85-1.54 68.23 1.88 24.8 3.63 30.85 8.71 21.93 18.4-8.88 9.65-5.79 12.06 18.43 14.35 34.45 3.25 40.58-3.91 17.25-23.33-6.15-5.13-14.58-9.87-22.86-14.63l33.95-6.4c28.46-5.36 38.52-6.78 54.23 5.3 9.41 7.23 8.2 16.2.33 16.2-3.33 0-6.02 2.23-5.99 4.95.26 21.2 47.7 23.57 54.44 2.73 5.18-16.05-14.05-35.42-35.15-35.42-13.33 0-7.46-7.2 7.86-9.64 10.95-1.74 21.22.1 37.29 6.73 25.35 10.45 40.17 23.48 38.77 34.53-2.25 17.72 1.96 23.14 23.25 26.54 12.87 2.05 14.81 1.16 18.51-8.4 8.69-22.46-28.77-47.92-45.56-57.22-20.19-11.18-57.15-19.74-99.37-8.33-5.29 1.43-2.46-1.22 7.48-7.72 74.77-48.83 107.02-50.42 111.95-37.78 1.3 3.35-.56 9.29-4.16 13.2-9.52 10.34-8.14 13.79 7.94 12.42 25.31-2.16 38.64-25.16 18.26-46.38-7.96-8.28-28.4-6.45-41.7-3.1-9.4 2.37-22.71 8.05-29 10.16 35.78-31.78 56.85-72.82 72.61-117.97 3.66-10.46 9.04-21.89 12.14-25.33 5.7-6.34 4.8-22.43 3.17-28.52-8.2-30.57 19.91-93.57-11.54-185.18-12.63-36.8-21.12-49.8 1.44-75.45 8.47-9.64 12.56-16.74 12.56-26.2 0-7.31-1.45-14.37-5.82-13.08-6.66 1.98-16.54 12.18-20.5 23.92-3.62 10.71-8.08 19.47-9.91 19.47-5.54 0-16.18-35.92-16.18-54.63 0-12.48 1.46-16.97 5.04-15.53l11.95 4.76c4.92 1.94 10.94-1.6 20.9-12.28 18.42-19.77 19.9-27.15 8.12-40.9-11.4-13.32-15.13-37.7-3.56-61.75 5.85-12.16 3.91-17.83-5.86-17.83-12.47 0-33.56 14.77-41.24 28.89-10.51 19.3-14.68 51.24-11.43 87.51 1.79 19.9 4.49 39.75 6 44.1-23.1-26.9-60.37-99.18-43.7-134.15 1.6-3.38 5.91-9.14 8-13.74 4.13-1.05 8.13-.81 9.6 2.85 3.25 8.12 6.63 7.4 17.32-3.78 10.69-11.19 15.35-45.74 6.83-49.3-11.53-4.82-30.84 19.25-35.11 25.35-6.01 8.6-7.7 17.04-5.5 20.9-1.5 3.76-4.1 8.56-4.82 7.22-24.53-45.8 3.05-96.59 16.55-105.08 14.06-8.86 17.27-9.55 14.11 5.96-2.08 10.25-1.06 11.81 9.2 13.96 22.27 4.66 31.54 12.44 34.97 29.41 1.8 8.86 5.04 16.11 7.2 16.11 3.16 0 18.57-8.22 27.55-14.7 4.55-3.28-.84-43.37-6.69-49.72-5.97-6.49-5.92-7.45.63-12.16 4.34-3.12 6.57-8.88 5.72-14.8-1.53-10.66-6.32-11.44-40.7-6.6-10.53 1.5-19.15 1.28-19.15-.48 0-4.78 11.78-15.04 33.94-29.57 26.17-17.16 30.3-23.81 21.01-33.9-6.74-7.32-6.78-8.45-.53-17.83 3.68-5.5 6.08-14.14 5.36-19.17-1.24-8.6-3.1-9.15-31.53-9.28-27.24-.13-31.15.83-39.66 9.86-14.08 14.94-20.55 33.53-20.25 58.16.39 31.98-6.36 34.69-12.74 5.12-5.32-24.62-19.71-44.36-40.22-55.16-4.45-2.33-8.1-6.69-8.1-9.67 0-13.75-57.74 3.8-76.26 23.2-9.97 10.42-17.3 38.14-12.23 46.2 4.43 7.05 15.47 1.46 19.94-10.1 2.93-7.57 6.75-10 15.73-10 14.05 0 24.61 3.5 24.61 8.15 0 1.84 5.42 11.23 12.05 20.88 14.08 20.52 30.63 32.59 37.6 27.42 2.63-1.94 9.31-3.4 14.85-3.24 8.57.25 10 2.07 9.55 12.18-.3 6.54-10.94 31.27-12.57 36.17-4.73 1.16-10.34-3.04-17.01-12.78a83.87 83.87 0 0 0-56.92-35.34c-25-3.54-37.77 7.17-45.97 38.6-6.24 23.92-4.85 34.79 4.44 34.79 6.07 0 6.8-3 5.69-23-.82-14.44 9.06-32.49 17.8-32.49 3.07 0 10.49 5.72 16.46 12.7 9.31 10.88 10.53 15.14 8.51 29.64-2.02 14.48-1.14 17.57 6.11 21.38 6.85 3.6 10.5 2.99 18.97-3.23 5.77-4.24 11.48-11.86 12.7-16.95 3.02-12.55 10.52-14.2 16.3-3.57 3.69 6.78.09 11.53-.41 24.12-5.4 136.1 28.01 159.85 76.47 253.02 3.8 7.3 7.25 17.39 9.14 21.75-23.9-36.6-63.49-66.63-103.26-89.48-7.53-4.32-4.65-15.13-2.24-25.64 2.75-11.97 1.79-18.26-4.72-30.79-8.3-16-26.89-34.08-40.31-39.24-8.89-3.41-9.1-6.53-1.12-16.9 4.36-5.67 10.48-7.75 21.94-7.45 12.35.31 16.44-1.29 18.35-7.2 4.79-14.83-18.22-35.5-33.88-33.17-15.97 2.37-31.74 19.06-34.54 30.01-1.17 4.56 4.72 7.87 7.28 12.11 4 6.67 6.53 12.86 5.61 13.76-.92.9-7.89-.12-15.49-2.26-18.47-5.21-17.94-5.36-23.47 6.57-4.23 9.14-3.7 11.66 4.22 19.94 4.98 5.21 18.5 12.18 30.05 15.48 22.87 6.54 31.97 14.07 28.32 23.43-3.28 8.4-12.7 7.48-36.47-3.55-11.3-5.24-29.61-10.8-40.7-12.37-11.08-1.56-22.88-5.09-26.2-7.83-3.33-2.74-12.4-8.12-20.16-11.95-17.71-8.76-20.94-13.6-13.75-20.66 6.88-6.77 1.78-18.42-11.04-25.16-11.55-6.08-27.61 1.2-27.61 12.5 0 11.38 12.2 30.9 21.03 33.66 3.95 1.24 7.19 4.08 7.19 6.32 0 6.36-39.84-.2-59.9-9.87-9.67-4.66-20.92-12.63-25-17.72-7.32-9.16-7.24-9.5 6.73-28.61 7.77-10.64 14.24-23.46 14.37-28.47.36-14.5 8.05-26.94 16.66-26.94 7.24 0 7.7 1.89 5.33 21.8-1.55 12.95-1.05 21.8 1.23 21.8 7.68 0 16.39-18 16.26-33.59-.2-21.99-11.33-34.28-33.17-36.56-14.47-1.52-19.2-.03-30.9 9.72-8.3 6.91-8.97 7.53-10.74 13.26-1.84 5.97-.36 7.82 2.06 16.3 3.88 13.63 4.02 20.1.57 26.44-7.1 13.04-11.1 10.02-13.42-10.11-1.44-12.61-6.03-18.72-9.9-24.6-5.48-8.31-5.93-17.06-4.46-22.96 1.87-7.49 12.86-13.69 20.78-19.45 6.6-4.81 22.04-16.62 13.12-21.5-18.36-10.07-24.84 15.53-35.44 24.69 7.5-63.83 11.14-80.56 23.89-99.38 9.36-13.81 20.95-16.47 29.98-16.47 3.98 0 7.43 3.63 8.18 8.61 1.58 10.55 18.81 16.92 36.82 13.6 7.12-1.32 20.17-8.6 29-16.18 18.7-16.03 21.97-16.62 34.79-6.24 9.34 7.58 9.39 7.94 2.46 20.14-9.27 16.33-8.9 19.4 2.02 16.8 10.55-2.53 22.27-11.8 27.83-22.03 5.78-10.6-5.46-39.2-23.1-46.58-22.33-9.33-43.21-14.7-66.53-15.39-19.66-.57-25.15 1.1-43.73 13.4-11.7 7.74-22.32 13.44-23.16 14.06-49.02 36.4-40.82 96.14-48.26 124.17-3.23 12.16-7.39 5.27-9.9-.59-2.51-5.86-13.59-32.2-16.79-38.68-8.16-16.51 17.87-41.84 29.38-46.02 15.07-4.66 13.7-37.63 22.2-48.6 13.1-16.88 12.55-21.98-2.33-21.98-9.42 0-13.88 2.76-19.15 11.86-8.55 14.78-16 15.27-17.68 1.16-1.04-8.74-3.89-11.55-15.39-13.61A53.42 53.42 0 0 0 489.05.02zm155.98 34.41c1.28.1 2.42.4 3.35.9 2.21 1.18-.07 6.58-4.4 11.02-9.02 9.24-19.68 11.76-21.73 3.04-1.74-7.44 13.85-15.7 22.78-14.96zm309.4 18.6c2.57-.12 4.3 1.46 4.26 5.07-.03 2.73-6.37 11-14.11 18.4-15.62 14.92-18.6 9.76-6.05-10.47 4.93-7.94 11.6-12.82 15.9-13zm-97.24.12c5.73 0 20.91 15.94 20.91 21.95 0 8.65-4.97 6.69-15.11-5.95-9.64-12.02-11.08-16-5.8-16zm97.7 87.2c8.58 0 28.03 16.37 28.03 23.6 0 6.14-6.34 5.01-12.44-2.22-2.96-3.5-9.52-7.92-14.6-9.82-11.47-4.28-12.1-11.57-1-11.57zm-754.8 57.79c2.9-.2 6.77.75 10.84 3.25 6.08 3.73 13.83 5.7 18.35 4.29 5.53-1.73 7.87-.61 7.87 3.75 0 8.73-28.97 8.41-39.47-2.77-4.43-4.72-2.39-8.2 2.42-8.52zM38.12 222.13c1.1.14 1.88 2.16 2.2 6.64 2.22 30.63.34 65.14 11.61 86.89 2 3.84 3.82 10.47 3.82 14.86 0 4.39-2.77 8.94-5.82 7.98-20.92-6.58-26.22-32-28.73-45.06-3.48-18.06 11.06-72.08 16.92-71.31zm924.64 72.53c2.2.22 3.54 5.84 5.78 21.05 2.87 19.49-1.9 25.42-9.4 11.66-4.05-7.45-3.38-26.9 1.07-31.27 1-.98 1.82-1.5 2.55-1.44zM77.4 708.83c29.66-1.5 82.45 62.75 64.47 87.6-4.46 6.16-8.86 22.3-18.98 21.98-9.03-.28-9.6-1.23-6.33-8.8 2.15-4.97 9.36-12.34 10.53-19.73 2.04-12.9 1-24.37-7-24-10.58.5-19.26 16.43-20.93 18.81a243.83 243.83 0 0 0-9.6 15.78c-1.64 3.13-8.87 9.7-12.79 9.06-8.48-1.35-5.07-20.12 3.73-25.22 3.04-1.77 9.44-10.74 14.23-19.93 8.38-16.1 8.5-17.09 3.23-26.73-4.67-8.57-7.82-10.26-21.85-11.76-14.9-1.6-16.24-2.48-11.96-7.5 3.5-4.1 7.93-9.3 13.25-9.56zm834.69 30.64c5.37 0 7.21 4.8 4.08 10.69-3.14 5.88-7.56 10.7-9.8 10.7-2.24 0-4.08-4.82-4.08-10.7 0-5.89 4.42-10.69 9.8-10.69z"/></svg>
