<svg viewBox="0 0 1000 1000"><path d="M370.85.01c-14.74.16-19.42 9.42-10.38 23 12.23 18.4 9.75 21.83-15.83 21.83-19.04 0-27.36-2.84-42.26-14.51-23.36-18.3-34.9-21.33-80.34-21.08-29.55.16-42.2 2.77-65.84 13.64-16.1 7.39-32.55 16.15-36.58 19.46-12.21 10.05-23.26 6.8-26.2-7.72-5.08-25-49.61-38.9-75.15-23.44C-3.28 24.22-4.8 30.44 5.37 63.89 14.22 93 25.2 104.3 29.97 89.21c1.46-4.58 5.76-14.07 9.58-21.08 3.8-7.02 6.92-18.37 6.92-25.23 0-15.7 13.99-14 19.39-5.48 2.94 4.65 2.12 12.1 1.4 14.7-.73 2.58-6.25 19.9-16.94 30.6-7.04 7.03-21.09 28.11-29.49 50.36C9.28 163.68.09 200.62-3.82 344.92c-1.16 42.95 4.78 62.82 12.2 84.4 6.3 18.32 23.34 132.22 137.82 142 24.33 2.07 63.4.54 101.21-15.24a1300.18 1300.18 0 0 0-40.65 41.1c-7.07 7.43-31.4 42.46-49.26 71.08-.25-1.55-.66-3.1-1.3-4.61-2.11-39.02-28.35-62.71-68.28-74.44-19.62-5.76-37.12 4.88-44.36 11.14-13.16 11.37-20.47 9.14-23.78 14.56-3.02 4.96 8.58 3.7 17.47 6 8.74 2.26 24.59 13.03 28.4 18.83 4.55 6.93-3.82 5.32-11.77 3.53-16.4-3.7-29.56 4.5-46.79 29.14-11.73 16.79-13.66 24.17-9.86 38.09 2.59 9.5 9.02 20.62 14.27 24.72 8.58 6.7 10.69 6.41 20.78-2.7 13.47-12.17 13.07-17.11-1.38-17-8.53.07-13.2-4.87-15.78-14.52-3.42-12.78 7.6-27.26 13.6-31.75 5.06-3.8 17.25-13.8 25.5-10.38 8.1 3.36 23.4 9.42 36.8 11.73 22.62 3.9 46.89 16.5 43.99 43.05-12.39 41.4-19.43 53.57-20.83 89.95-1.28 33.38 6.48 55.2 14.15 77.22 6.56 18.86 26.5 45.4 37.81 51.89 9.96 5.7 30.48 13.8 45.58 16.64 32.2 6.05 68.8 8.05 114.53 3.55 23.54-2.31 33.18-5.04 54.12-6.2-36.36 32.85-144.51 42.18-210.43 17-32.1-12.27-53.95-12.9-42.36-25.52 9.99-10.88 9.11-20.86-2.72-31.41-6.8-6.06-19.7-27.4-27.02-34.22-15.85-14.76-16.64-13.8-30.64-28.76-16.82-17.98-19.62-31.9-9.07-45.6 8.58-11.12 16.22-10.64 20.06 1.28 3.6 11.16 12.18 8.2 12.18-4.21 0-4.6-2.76-14.2-6.11-21.3-7.22-15.33-21.9-16.67-47.53-4.36-14.96 7.18-17.26 10.7-18.56 28.34-1.27 17.12.37 21.32 10.97 28.16 7.6 4.9 12.44 12.52 12.44 19.51 0 14.58-3.51 14.45-15.5-.55-13.85-17.36-18.63-14.9-18.63 9.6 0 21.01 6.74 38.24 16.32 43.76 7.07 4.09 22.72 11.28 33.77 14.18 4.54 1.19 17 4.9 24.5 14.15 7.49 9.25 11.08 18.2 8.82 16.83-22.3-13.44-33.2-14.44-44.31-12.88-8.94 1.25-12.07 3.06-14.18 6.42-3.04 4.84-9.6 6.19-11.54 1-4.25-11.4-18.98 7.17-23.03 29.01-3.44 18.52-2.98 19.7 7.87 19.7 6.34 0 9.71-2.77 11.55-4.06 36.92-25.88 103.85.65 122.84 4.58 181.05 37.4 250.68-19.19 265.83-27.8a366.97 366.97 0 0 0 19.85-12.07c22.27-3.42 53.32.38 78.34 5.94-4.94 1.9-10 4.02-15.17 6.44-47.4 22.14-41.95 41.3-19.62 23.6 16.15-12.8 38.71-12.91 49.72-20.4 3.4-2.32 7.2-4 11.27-5.2 10.1 2.9 19.33 10.19 26.27 14.7 25.61 16.62 24.72-.73-3.01-16.74 31.45 2 68.23 19.71 84.73 26.5 42.94 17.69 96.4 21.3 157.77 13.59 47.01-5.9 85.96-13.47 100-20.35 15.29-7.49 20.72-7.99 35.28-3.25 9.48 3.08 18.48 7.6 20.02 10.06 1.54 2.45 9.92 4.45 18.62 4.45 14.78 0 15.83-1.1 16.3-17.14.38-13.37-1.83-18.03-10.01-21.14-10.27-3.89-10.2-4.1 2.45-8.99 20.55-7.95 21.09-14.74 1.8-22.68-16.42-6.76-18.6-6.6-31.12 2.18-7.41 5.2-19.18 10.87-26.14 12.6-16.31 4.03-21.66-9.88-12.95-33.63 5.55-15.13 7.59-16.5 21.05-14.26 8.2 1.36 18.62 3.6 23.15 4.95 4.53 1.35 16.04-2.52 25.55-8.6 13.71-8.75 17.3-14.16 17.35-26.1.05-11.04-2.52-15.72-9.68-17.56-9.34-2.41-11.9 1.26-10.13 14.61 1.13 8.62-12.66 7.42-16.1-1.4-3.53-9.07 6.23-25.45 17.22-28.89 9.77-3.05 24.59-37.38 20.58-47.67-3.28-8.42-9.6-9.57-14.01-2.55-1.66 2.64-7.02 4.81-11.9 4.81-5.33 0-11.39 5.96-15.17 14.95-3.46 8.23-19.87 28.35-36.48 44.72-26.82 26.43-39.12 44.7-47.76 70.83-1.44 4.37.45 11.93 4.2 16.81 3.75 4.88 6.87 11.2 6.96 14.04-16.65 35.41-98.82 36.12-128.6 35.73 100.51-32.14 116.75-99.86 126.05-143.22 8.07-37.57-1.09-69.28 23.05-80.99 10.73-5.2 4.6-2.99 20.56-6.14 14.56-2.88 17.18-2.67 25.6 2.18 16.94 9.79 22.3 10.13 26.78 4.82 4.15-4.93 2.08-16.78-10.24-26.28-7.67-5.92-14.3-10.4-24.58-10.4-14.88 0-20.8 2.35-33.68 5.8-14.42 3.87-15.85 7.56-27.68 32.8-22.22-72.3-57.83-131.12-82.7-160.98-20.03-24.04-38.72-21.32-31.1-21.32 13.72 0 40.16 9.42 49.3 17.58 6.46 5.75 16.24 7.96 32.24 7.26 24.18-1.05 42.11 5.86 32.11 12.4-6.66 4.35-7.32 29.18-1.08 40.85 6.11 11.44 30.9 10.84 48-1.16 12.75-8.95 14.83-9.1 31.45-2.25 9.78 4.03 19.12 10.72 20.73 14.87 3.48 8.93-7.27 17.11-18.9 14.38-4.52-1.07-13.09 1.42-19.04 5.53-10.82 7.47-10.83 7.47-.28 15.88 9.68 7.73 12.08 7.82 29.39 1.12 15.08-5.84 19.96-10.9 24.37-25.44 6.46-21.22 3.6-31.15-24.28-61.64-7.91-8.65-59.44-22.16-65.34-22.71-42.74-4-77.64-10.38-70.72-12.98 4.02-1.51 21.58-6.45 39.02-10.98 17.43-4.52 37.61-11.2 44.84-14.86 7.22-3.66 14.33-4.73 15.8-2.4 2.56 4.09 25.69 9.22 51.52 11.46 9.32.81 11.6-1.66 13.75-9.68 1.36-5.1-8.2-8.83-14-7.7-15.55 3.07-15.55 3.07-6.54-10.86 4.95-7.67 11.8-15.68 15.21-17.8 3.42-2.1 6.22-9.17 6.22-15.7 0-9.9-1.81-11.41-10.97-9.15-6.04 1.49-25.19 5.97-30.68 9.23-13.58 8.05-12.81 15.73-29.12 22.49 19.24-32.22 33.32-58.93 47.01-90.97 58.37-136.58 1.94-263.7-11.9-315.35-5.28-19.7-12.62-31.17-12.72-35.5-.22-9.74 3.6-10.07 9.75-13.16 15.52-7.79 24-6.01 24 5.28 0 14.08 7.8 6.3 13.8-13.73 8.43-28.14-1.9-50.25-19.7-50.38-4.1-.03-8.97.53-13.37 3.63-20.95 14.74-32.82 57.96-29.65 67.17 3.56 10.32-1.8 5.43-19.4-12.29-39.7-39.94-78.25-53.13-136.51-53.8-43.4-.51-74.55 25.86-113.75 39.31-4.88 1.68-13.12.74-18.31-2-8.76-4.62-8.9-5.98-2.06-19.03 6.95-13.23 6.77-14.37-3.13-19.58-3.64-1.92-8.65-3.41-13.92-2.7-10.6 1.42-35.08 6.45-32.12 15.78 1.3 4.1 2.85 9.97 2.85 13.24 0 3.27 4.87 14.76 14.28 21.72 33.17 24.56 75.2 23.1 111.2-1.14 13.4-9.02 22.31-11.37 37.16-13.04-3.92 3.07-9.62 5.09-14.28 10.48-10.13 11.75-11.89 21.53-19.35 30.88-11.72 14.68-10.54 15.36 4.37 13.16 7.75-1.14 15.86-8.23 23.44-13.37 7.67-5.2 47.77-19.81 62.85-19.63 26.03.3 44.26 1.01 81.76 22.47 35.04 20.04 44.22 58.98 54.55 91.37 4.97 15.58 2.88 37.27-4.44 34.32-22.76-20.52-51.98-23.92-59.2-22.84-14.3 2.16-1.09 14.18 7.85 15.87 12.79 2.42 17.75 11.17 15.8 13-1.45 1.44-12.8 3.2-25.24 3.91-27.87 1.6-34.28 7.28-29.97 26.6 3.06 13.74 23.24 20 31.4 24.72 11.68 6.74 13.59 21.76 15.27 28.36 2.05 8.05 5.44 11.1 10.3 9.25 4.66-1.76 21.63-7.93 27.89 2.05 8.39 13.38 20.36 32.04 15.68 64.93-3.76 26.35-8.37 34.02-13 43.16-15.39 30.43-43.12 19.69-54.07 7.96-14.55-15.58-9.51-24.16 5.42-43.35 13.2-16.97 13.18-34.92-.06-47.47-13.1-12.45-28.57-16.59-31.08-8.33-1.04 3.44-.67 7.38.83 8.74 5.63 5.14-4.18 9.22-11.89 4.94-4.42-2.45-13.78-4.96-20.8-5.58-16.76-1.48-48.07 6.64-44.85 31.82 2.47 19.26 2.46 19.26 8.15 6.62 8.87-19.72 42.57-12.04 46.88 22.4 3.46 27.56 4.26 30.3 19.9 44.68 23.87 21.94 39.52 18.73 60.18 17.37-4.24 42.08-33.67 70.57-98.65 96.9-13.6 5.52-24.4 8.35-24.94 8.06-.54-.29-10.7-2.4-22.57-4.7a71.44 71.44 0 0 1-23.72-9.12 1890.4 1890.4 0 0 1-63.4-38.02c.45-.84 1.04-1.7 1.97-2.63 2.28-2.25 3.57-6.16 2.86-8.68-.7-2.53.57-4.54 2.84-4.49 2.27.06 3.7 2.77 3.16 6.03-1.05 6.31 9.08 8.24 13.36 2.54 1.4-1.86 5.95-3.39 10.1-3.39 4.16 0 11.94-3.02 17.3-6.7 8.32-5.73 8.85-7.22 3.57-10.13-3.4-1.87-11.31-3.42-17.56-3.45-6.24-.02-11.34-1.4-11.34-3.03 0-6.38 11.36-10.18 25.97-8.7 20.57 2.1 19.31-3.15-2.92-12.27-18.22-7.47-18.22-7.47-32.56-.2-21.25 10.78-25.11 16.19-24.77 34.59.12 6.76-.4 11.35-2.21 14.02-64.85-41.94-123.73-90.36-151.63-151.59 14.38 11.3 27.5 22.83 48.17 33.06 11.4 5.65 24.74 13.05 37.74 15.3 21.4 3.69 26.29 2 51.56-17.83 29.76-23.36 52.74-64.06 42.98-76.13-2.12-2.62-4.1-4-6.06-4.07-4.31-.15-8.53 6.13-14.05 19.92-7.3 18.22-1.23 18.07-70.54 1.65-19.86-4.7-25.86-4-32.26 3.77-5.63 6.83-6.34 11.45-2.45 16.26 9.14 11.29-1.27 13.8-13.22 12.37-13.95-1.68-31.72-5.55-50.28-26.2-9.23-10.27-6.26-24-5.02-25.23 1.47-1.45 10.4-.54 19.82 2.02 23.27 6.33 37.4-3.24 37.4-25.34 0-22.91-11.36-24.92-28.05-4.96-13.78 16.46-21.64 15.2-14.58-3.65 14.75-39.41 35.95-87 88.6-74.07 13.33 3.27 39.16 12.12 36.95 35.8-1.4 15.2-16.2 25.6-38.14 24.32-10.89-.63-18.7-2.91-17.34-5.07 4.24-6.77-3.36-23.07-10.76-23.07-4.91 0-6.79 4.75-6.13 15.6 1.01 16.81 7.33 22.19 13.9 25.22 19.27 8.91 50.65 8.73 68.89-9.5 17.61-17.61 15.67-43.97 7.37-53.8-15.61-18.5-24.22-35.19-18.12-35.19 2.68 0 12.6 3.62 22.04 8.06 9.45 4.43 18.36 6.91 19.8 5.5 5.9-5.82-4.63-19.04-17.13-21.5-7.37-1.45-20.28-9.83-28.7-18.63-19.93-20.81-45.93-29.72-62.03-21.22-6.43 3.38-11.68 10-11.68 14.68 0 10.16 18.85 24.41 26.4 19.96 2.9-1.71 2.24.59-1.5 5.12-4.25 5.17-10.23 3.66-16.24 5.29-53.62 14.5-53.57 70.05-71.38 92.07-6.13-3.74-1.94-58 6.34-82.02 13.3-38.58 31.34-68.8 48.99-82.08 20.01-15.04 20.53-16.95 6.91-25.33-8.63-5.32-11.55-5.09-18.9 1.45-7.98 7.12-8.93 7.11-11.72-.07-1.67-4.3-3.05-16.37-3.05-26.85 0-13.81-3.28-22.3-11.96-30.85-14.05-13.85-35.7-15.67-40.13-3.38-1.66 4.62-6.15 12-9.96 16.39-6 6.9-5.9 9.91.74 22.58 9.89 18.84 9.7 27.72-.67 31.64-5.4 2.05-11.01-.36-15.96-6.83-6.74-8.8-8.71-9.18-16.95-3.24-9 6.48-8.77 7.4 6.62 26.54 8.77 10.92 17.95 19.84 20.41 19.84 2.46 0 4.47 5.55 4.47 12.33 0 6.79 2.27 16.52 5.04 21.63 2.78 5.1 5.97 18.47 7.09 29.71 1.12 11.24 3.48 33.96 5.27 50.48 1.78 16.52 1.48 30.03-.67 30.03-12.5-16.66-31.48-41.03-48.26-57.73-19.94-19.82-29.41-43.2-17.4-43.2 2.6 0 5.75 4.52 6.85 8.34 4.06 14.12 13.7 14.98 16.8 3.04 4.42-17.1-1.53-28.79-19.83-46.25-28.61-27.31-39.42-33.27-36.98-40.44.73-2.13-.78-5.54 3.46-6.38 11.79-2.33 19.83-13.3 14.17-17.06-6.97-4.65-20.17 2.32-23.6 10.75-2.6 6.4-4.84 13.7 4.03 28.48 9.42 15.7 4.4 16.61-18.53 33.2-23.98 17.35-41.25 40.94-37.68 51.49 1 2.97 6.32.49 12.12-5.65 5.68-6 13.68-15.27 36.5-9.78-12.62 9.67-19.34 10.15-35 25.3-7.97 7.7-9.72 18.9-9.8 23.12-.23 13.38 3.98 24.66 11.35 35.9 7.36 11.23 40.54 23.03 57.11 6.46 14.52-14.52 11.47-17.32-10.91-9.63-20.91 7.18-23.55 6.7-23.55-4.37 0-5.29-2.19-9.62-4.87-9.62-8 0-5.53-17.16 3.66-25.31 5.49-4.88 14.95-10.13 28.38-9.44 18.55.96 27.72 5.71 45.25 26.87 10.83 13.08 19.49 25.08 23.62 30.48 7.77 10.17 4.4 22.8-7.08 18.41-33.8-12.88-45.52-4.96-32.05 21.66 7 13.83 9.08 14.83 24.85 11.91 27.15-5.02 26.34 16.6-.41 37.05-14.11 10.78-35.88 3.64-37.2-3.36-.45-2.4-5.17-12.02-12.35-21.35-12.48-16.22-14.02-16.72-35.3-11.42-27.5 6.84-35.19 1.32-26.98-19.34 4.96-12.48 3.88-17.64-5.06-24-10.87-7.75-12.44-6.77-16.4 23.72-5.88 45.17 19.55 76.32 54.28 85.44 25.81 6.77 58.66 3.8 83.95-17.88-5.72 13.04-11.34 25.6-16.37 33.53-22.78 35.9-60.56 58.18-101.69 74.2-32.6 12.7-24.59 6.62-23.45 1.34 6.2-28.86 5.6-31.7-7.8-36.74-8.69-3.27-20.66-1.93-34.72 3.86-24.24 9.98-33.28 21.65-14.76 19.08 6.12-.86 13.18.37 15.68 2.7 3.38 3.15 3.06 3.78-1.23 2.48-3.17-.97-7.3 2.35-9.18 7.37-2.67 7.1-.44 10.27 10.06 14.21 13.1 4.92 14.97 7.34 4.52 15.06-57.47 42.4-175.47 83.18-230.43-12.5-12.48-21.73-11.09-22.95 21.56-21.64 29.55 1.2 30.43.87 46.75-17.67 16.05-18.25 16.5-19.9 13.5-47.91-1.78-16.48-.95-34.65 1.9-42.06 6.87-17.78 22.4-17.12 32.1 1.37 9.3 17.73 17.08 18.63 17.08 1.96 0-20.76-14.97-40.1-35.78-46.25-17.42-5.14-19.54-4.71-27.43 5.6-5.67 7.41-9.71 9.35-11.98 5.73-5.83-9.3-21.18-6.06-31.3 6.62-5.32 6.66-11.16 22.85-13 35.98-2.74 19.64-1.52 26.77 6.96 40.28 5.66 9.04 13.69 17.7 17.83 19.27 10.92 4.13 4.58 10.92-11.2 11.96-7.47.5-19 1.36-25.61 1.93-14.85 1.28-25.18-17.1-28.45-50.66-3.32-34 9.63-63.41 34.88-79.24 24.58-15.41 32.42-24.2 32.42-36.3 0-7.44-2.37-8.64-12.2-6.21-7.75 1.92-12.19.99-12.19-2.56 0-9.03 15.95-18.31 31.75-18.47 31.3-.33 32.7-39.98 1.95-55.65-21.61-11.01-35.33-8.6-51.12 8.98-14.34 15.96-23.74 16.36-25.41-16.4-2.25-43.92 29.13-111.36 83.26-126.41 39.35-10.94 48.4-14.98 58.58-6.31 19.2 16.3 66.03 28.19 89.31 18.43 10.36-4.33 11.2-6.83 6.62-15.28-9.13-16.8-3.52-17.95 31.85-6.4 18.77 6.13 39.15 11.24 45.3 11.3 15.26.2 46-16.09 53.52-28.35 8.5-13.86-3.82-32.2-23.55-35.05a44.4 44.4 0 0 0-6.91-.5zm419.08 44.46c2.72.01 4.88 1 4.88 3.72 0 5.29-8.79 6.3-14.56 9.41-4.89 2.63-25.15 17.14-24.22 12.47 1.7-8.56 20.25-20.77 25.58-23.47 2.3-1.17 5.6-2.14 8.32-2.13zM511.02 65.05h.01c1.33-.07 3.74 1.99 8.35 6.1 7.23 6.45 8.42 10.68 4.86 17.24-2.6 4.78-4.74 16.94-4.78 27.03-.1 21.57-9.24 40.5-10.03 20.75-.81-20.4-.97-54.81-.3-64.44.3-4.38.57-6.59 1.9-6.68zm427.65 171.28c5.42.42 16.33 10.84 24.07 26.23 9.25 18.38 9.52 23.92 11 33.19 2.67 16.55-7.9 6.97-9.98-.98-2.86-10.9-5.6-13-11.92-21.18s-13.12-19.94-15.1-26.13c-2.58-8.03-1.31-11.38 1.93-11.12zm-879.1.76c9.55 0 7.85 6.04-6.5 23.1-17.94 21.36-24.03 19.18-10.88-3.87 6.03-10.58 13.84-19.23 17.37-19.23zm561.64 93.71c.93-.28.77 2.22-.2 7.1-1.1 5.56-5.04 11.99-8.35 17.21-5.87 9.3-6.03 9.27-7.41-1.57-.77-6.1 2.75-15.01 8-19.6 2.38-2.09 5.64-2.44 7.96-3.14zm-222.67 12.02c7.3.62 19.39 10.43 15.22 13.15-1.77 1.16-9.85 3.1-17.95 4.32-11.94 1.81-14.02.35-11.05-7.7 2.01-5.47 6.48-10.39 13.78-9.77zm-283.5.01a4.7 4.7 0 0 1 4.58 4.8c0 2.65-3.42 4.8-7.6 4.8s-6.24-2.15-4.59-4.8c1.66-2.64 5.08-4.8 7.6-4.8zm396.04 11.92c19.4 48.45 67.3 98.8 120.47 140.52 11.47 9 28.58 19.38 46.45 30.09-1.7 1.34-3.68 2.87-5.19 4.36-2.83 2.8-7.33 5.09-10.04 5.09-6.77 0-22.97 18.66-22.97 26.46 0 8.34 11.85 27.78 16.94 27.78 2.18 0 5.08-2.42 6.46-5.36 1.5-3.22 5.58-4.7 10.2-3.7 4.24.91 11.84-1.1 16.88-4.45 7.87-5.23 8.5-7.25 4.4-14.1-4.77-8.02-8.46-23.24-8.6-31.23 29.3 17.55 59.57 36.03 73.63 52.88 30.17 36.16 44.75 59.26 56.13 81.3 18.58 36.02 49.86 101.28 41.2 141.8-13.08 1.5-28.64 4.5-55.6 10.52-44 9.83-78.34 45.84-86.01 76.98 16.97 7.24 24.33.16 50.62-13.2 12.04-6.12 63.75-1.08 80.74-35.85 6.42 54.86-93.55 120.3-152.2 104.58-65.3-17.5-169.98-148.88-135.69-224.76 6.9-15.25 10.94-14.84 33.33-38.69 28.77-30.65 65.32-30.81 82.64-19.66 17.58 11.32 30.25 24.4 23.7 49.74-4.08 15.8-10.9 24.97-23.15 31.14-17.36 8.75-17.37 8.73-23.99-7.63-12.16-30.08-45.65-18.7-47.29 16.07-.8 17.04.85 18.53 23.04 20.96 36.04 3.95 108.5-18.48 96.52-77.2-27.94-137-208.46-39.67-198.76 58.77 8.18 83.02 73.52 166.56 105.28 188.49-8.67 1.81-44.3-13.93-98.1-1.6-50.08-23.5-66.9-15.1-76.08-20.52 19.1-17.16 36.83-39.28 46.46-67.73 42.37-125.18-27.36-241.67-137.3-215.02-32.68 7.91-71.06 50.9-54.29 94.88 11.3 29.63 38.58 58.68 88.62 59.58 6.37.1 11.08-10.46 15.14-8.6 4.05 1.88 6.1 10.22 14.54 6.8 8.2-3.31-.92-53.66-10.49-60.39-11.31-7.96-31.8 4.56-28.98 17.72 2.54 11.83-11.4 22.3-22.72 17.08-27.14-12.53-43.51-25.58-41.17-57.2 1.08-14.6 5.14-19.7 7.82-26.8 5.2 8.85 7.06 21.12 25.16-8.19 6.58-10.66 7.2-15.2 23.18-15.44 60.9-.9 123.6 47.8 99.9 164.67-10.2 50.35-41.58 87.1-73.59 94.39-58.67 13.35-139.42 20.79-170.44 16.46-18.97-2.64-25.1-4.02-36.36-12.96 28.51 3.26 75.56 4.28 87.92-28.19 2.79-6.4-54.4 1.26-73.93-26.2-12.9-18.12-35.99-36.31-53.82-40.03-9.02-1.87-13.03-12.19-15.7-20.62-24.52-77.21 55.44-166.88 98.01-214.85 20.16-22.7 41.3-45.03 63.83-65.69 21.5-12.33 43.58-3.69 40.62 25.8-1.6 16.01-.1 19.94 8.45 21.81 7.27 1.6 12.2-1.23 16.37-9.37 3.28-6.4 9.06-11.67 12.85-11.72 5.32-.08 4.76 3.9-2.41 17.33-8.78 16.42-8.66 17.58 2.03 19.94 8.42 1.85 11.44.5 15.19-9.06.53-1.37 1.08-2.9 1.67-4.6 3.03-8.9 5.2-25.09 4.8-35.98-.64-17.84-2.39-20.42-17.47-26.09-9.3-3.5-21.26-2.67-27.84-1.81-26.63 3.48-17.49-14.03-12.03-17.22 31.73-18.54 51.08-25.77 76.64-45.26 9.61-7.32 16.45-10.83 14.3-1-1.83 8.41-3.81 21.45-5.04 26.33-5.9 23.42.8 51.7 15.4 77 12.43 21.52 12.8 35.42 12.8 38.45 0 6.02 7.4 11.38 11.2 8.12 1.3-1.12 2.37-19.43-2.44-30.74-9.11-21.43-11.24-27.65-.6-59.22 7.11-21.14 4.57-29.77-8.78-29.77-12.48 0-15.05-13.89-6.1-31.58 4.16-8.22.87-13.23-.71-21.13 3.2-6.6 26.75-42.19 38.4-68.35.4 5.53 1 11.47 2.12 18.25 7.83 47.1 57.82 86.9 52.64 97.42-1.56 1.48-6.91.26-11.9-2.7-11.3-6.68-16.71-.43-14.43 16.66 2.7 20.3 6.6 27.23 21.19 37.79 11.95 8.65 13.99 12.47 12.36 23.03-1.55 10-4.82 13.42-15.57 16.29-11.04 2.95-15 2.16-20.88-4.17-3.99-4.3-8.11-10.11-9.17-12.91-1.06-2.8-3.55-3.64-5.55-1.87-4.86 4.32 5.55 40.27 13.28 45.87 10.48 7.6 15.84 26.53 10.3 36.36-4.66 8.24-5.22 8.3-10.57 1.37-6.15-7.99-14.91-5.54-14.91 4.16 0 9.36 10.9 11.18 25.13 4.2 20.16-9.9 25.85-37.24 9.72-46.8-10.47-6.2-1.52-13.2 5.54-13.19 11.18.01 28.71-15.46 36.24-27.63 9.3-15.05 10.67-21.1 8.27-36.32-3.27-20.68-10.61-36.33-30.93-65.98-12.79-18.65-35.66-49.44-39.47-61.04-1.93-5.88-7.91-28.18-7.46-33.92zm365.17 9.12a7.95 7.95 0 0 1 1.58.06c2.59 1.12 6.06 3.68 6.93 7.08 1.15 4.55 3.48 10.75-5.74 18.67-13.04 11.18-11.02-9.99-10.98-12.8.07-4.69 2.33-11.43 6.62-12.7a7.1 7.1 0 0 1 1.6-.3zm-274.59 3.23h.01c1.4.23 2.17 2.77 1.72 5.65-.45 2.87-3.57 4.8-6.94 4.27-3.38-.53-4.16-3.08-1.73-5.65 2.4-2.56 5.53-4.49 6.94-4.27zm-506.42 4.55c7.67 0 9.02 2.96 7.74 16.98-2.56 28.1-11.44 26.54-15.2-2.7-1.47-11.46 0-14.28 7.46-14.28zm206.92 80.57a4.85 4.85 0 0 1 4.66 6.55 4.86 4.86 0 0 1-6.22 2.88 4.84 4.84 0 0 1-2.78-6.25 4.9 4.9 0 0 1 4.34-3.18zm240.95 40.73c2.4 0 4.34 2.8 4.34 6.2 0 3.4-1.95 6.16-4.34 6.16-2.38 0-4.34-2.77-4.34-6.17s1.96-6.19 4.34-6.19zm-83.83.3c-1.21-.7 2.7 1.06 3.69 3.28 1.34 3 .78 6.3-1.24 7.38-5.41 2.86-9.98-5.3-5.24-9.35.99-.85 3.4-.7 2.79-1.3zm-350.76 133c2.7-.04 5.6.09 8.58.41 8.85.94 12.34 5.72 17.4 23.95 3.77 13.53 4.78 18.81 2.6 18.87-.99.01-2.64-1.02-4.99-2.86-4.8-3.75-9.14-8.38-9.66-10.3-.52-1.9-4.75.15-10.54 1.83-6.32 1.84-8.72-.63-9.75-8.34-1.13-8.5-2.2-13.1-5.71-12.18-3.06.8-6.15-.73-6.87-3.4-1.24-4.58 7.2-7.83 18.94-7.98zm700.06 203.62c3.49 0 6.33 3.8 6.33 8.44 0 8.69-41.67 21.2-49.26 14.87-5.38-4.49 34.43-23.31 42.93-23.31zm122.62 24.96c1.77.13 2.88.64 2.88 1.52 0 1.76-4.41 5.9-9.78 9.2-8 4.92-9.74 4.8-9.74-.68 0-3.68 4.38-7.82 9.74-9.2a22.9 22.9 0 0 1 6.9-.84zm-763.84 6.37c.63-.01 1.28.04 1.93.13 1.73.24 3.51.84 5.26 1.76 14.16 7.44 12.34 8.35 20.62 14.65 14.26 10.85 22.08 24.88 63.75 24.41-40.83 16.38-70.88.42-81.9-3.22-13.07-4.33-15.6-10.1-18.6-15.3-3.1-5.35-1.92-10.25-1.1-13.23 1.77-6.34 5.62-9.09 10.04-9.19z"/></svg>
