<svg viewBox="0 0 1000 1000"><path d="M31.7 47.96C-13.59 76.64 1.95 181.41 7.04 201.13c13.25 51.31 72.97 70 17.9 74.51-31.99 2.62-41.54 111.94 22.25 82.14 44.25-20.68-20.25-56.86 24.88-70.74 47.21 40.88 78.68 44.69 96.76 78.1-51.04-.87-93.16 23.9-135.54 48.28-45.81 23.41-20.2 81.38-22.52 122.17 22.17 37.6 117.32 7.62 77.13-29.3-44.36 4.01 7.96-68.33 32.6-30.63 49.3 19.46 45.99-61.83.65-65.13-24.28-11.43 3.27-18.1 20.52-21.02 71.85-12.14 149.34-14.12 222.34 13.61 25.95 9.86 47.38 13.66 74.38 34.57-87.14 25.78-116.87 85.14-95.31 158.82-22.21.98-34.72 4.04-55.33 9.25-18.99 4.8-69.35 27.31-9.39 15.67 14.78-2.87 42.94-20.97 72.33-6.28 7.79 3.89 10.66 8.33 12.37 10.14 4.25 4.5-3.9 19.26-11.3 15.18-12.8-7.05-21.5-7.55-11.33 10.08 18.86 32.67 36.38 21.44 32.9.84-2.9-17.16 4.51-8.33 11.08-5.18 22.29 10.72 54.72 17.55 77.64 9.79 9.52-3.23 6.06 3.59 0 12.66-38.98 58.31-194.69 82.2-275.85 27.82-26.77-17.93-58.22-31.55-104.9 2.24-9.06-49.38 60.04-67.41 91.04-95.75 25.39-23.22 3.98-67.47-21.48-79-40.64 13.94-16.2 50.8 15.48 31.55 2.75 60.12-56.32 45.03-78.9 61.1-34 24.2-46.59-19.97-76.46 12.67-28.2 30.82 15.47 49.33 19.87 60.2-45.95 14.5-35.28 88.96 3.91 104.53 13.6 5.4 21.58-32.78 48.13-.56 10.14 12.3 27.25 3.11 38.12-8.2 24.75-25.75 15.35-24.61-13.89-33.51-60.6-18.46 22.7-69.56 60.45-38.22 62.65 51.99 281.52 47 327.13-65.76-4.7 43.15-13.93 104.5-58.66 124-26.06 11.37-52.07-11.24-32.85-34.67-42.33-2.16-56.67 56.89-2.91 44.93 9.6-2.14 11.52.16 7.48 3.63-16.4 14.07-106.4 3.78-146.6 20.85-50.67 21.5-81.79 35.92-106.57 55.39-10.92 8.57-24.43 16.26-35.28 26.72-4.74 4.57-15.03 15.85-30.8 21.09-6.37 2.12-37.4 1.05-45.78-.2-14.54-2.18-7.55-10.04.15-17.47 12.87-12.43 18.05-29.28-3.65-13.29-10.53 7.75-13.68 7.59-25.32 12.52-10.38 4.4-10.6 4.79-10.6 22.87 0 16.26.93 19.12 7.97 24.25l7.97 5.8-5.47 11.48c-5.32 11.15-5.28 11.7.83 19.93 4.18 5.63 9.7 8.82 16.46 9.48 17.3 1.7 23.69-1.55 28.96-14.72 8.75-21.87 26.4-25.5 33.82-6.96 2.59 6.46 10.4 16.9 17.34 23.17 14.48 13.09 13.74 12.93 31.15 6.78 7.22-2.55 19.08-4.63 26.35-4.63 11.04 0 15.02-1.82 24.33-11.12 8.24-8.25 11.12-13.75 11.12-21.25 0-14.8-5.8-18.01-29.77-16.48-17.96 1.14-21.4 2.38-27.39 9.9-9.55 11.98-20.64 10.23-23.48-3.69-3.42-16.86 2.68-31 14.8-43.06 42.25-42.06 135.5-90.75 181.97-90.87 98.15-.24 131.26-18.26 168.21-57.46-6.8 34.73 2.7 102.34-3.62 131.1a34 34 0 0 1-1.8 6.12h.24c-2.72 8.77-7.2 16.37-9.62 20.81-10.53 19.31-27.54 32.25-42.95 33.19-15.42.94-16.34-16.16-36.34-21.38-23.39-6.12 3.82 38.7-41.43 12.94-31.13-17.72-70.1-20.4-82.4-2.28-15.05 22.17-14.66 41.74-8.8 50.73 5.86 8.99 40.74 10.53 24.05-12.8-13.45-18.8 19.94-40.4 44.54-16.46 17.15 16.67 42.08 32.54 48.7 33.31 40.6 4.75 101.67-24.72 112.06-71.35.91-4.06 1.42-15.16 5.48-25.81 22.17 19.77 14.93 86.18 70.27 81.49 44.43-3.78 100.25-26.55 139.26-8.71-17.75 27.38-29.53 33.43 23.38 19.25 14.08-3.77 28.34-29.88 9.87-42.04-33-52.53-79.74 10.12-121.21 9.82-20.2-.15 51.45-47.38.95-47.7-24.8-.16-59.2 15.86-42.04 40.8-41.94 1.24-61.87-60.47-69.22-96.58-3.67-17.99-2.66-59.69-6.77-88.1 65.16 95.77 188.91 44.3 243.97 98.27 33.2 32.55-73.03 36.06-.71 58.22 21.18 6.5 34.56-13.58 48.98-30.32 14.4-16.74 40.97-31.03 68.27-19.55 36.79 15.48 49.3 51.61 24.72 82.2-11.15 13.88-38.9 8.43-38.08-6.57 2.97-54.73-68.51-1.56-57.96 15.65 14.95 24.37 81.64 66 112.73 16.56 13.84-22 61.66-69.76 55.8-12.7-2.55 24.72 21.74 8.53 25.43-11.08 3.68-19.61 1.16-47.26-11.78-59.25-28.23-26.17-38.2 57.65-57.49-9.27-9.46-32.83-93.2-50.1-118.7-46.8-55.1 7.1-58.97-28.26-182.96-32.46-11.32-.39-21.14-8.28-28.1-15.82 29.5-7.39 31.78-36.5 11.62-44.46-19.9-7.86-46.24-21.26-25.43 11.18 12.53 19.53-4.96 47.72-35.12 11.24-22.25-26.93-23.66-48.16-23.29-95.82 79.46 73.05 112.6 80.08 213.42 68.54 59.55-6.81 94.48-35.78 130.49-31.9 43.58 4.7 54.3 82.14-.63 63.55-19.29 39.66 73.92 58.65 97.59 43.52 55.76-20.15 34.5-83.75 15.46-122.36-12.7-25.78-9.04-25.7 15.64-34.23 13.51-4.67 9.66-25.32-7.14-45.95-17.75-21.82-6.89 25.03-118.9 28.52-105.58 3.3-125.52 93.55-221.27 82.06-20.84-2.5-89.37-26.17-82.3-47.1 16.85 7.36 78.56 5.75 104.03-16.33 7.24-6.28 14.57-12.38 20.12-24.73 8.14-18.1 43.8-35.53 68.69-44.02 25.7-8.77 55.23-25.53 75.13-13.54 31.76 19.14 58.32 1.82 23.05-18.48-20.76-11.95-62.65 2.67-96.53 17.38-11.97 5.2-19.24-10-.12-31.23 20.85-23.13 58.7-54.86 82.86-69.57 43.85-26.73 94.93-19 118.4 11.71 14.21 18.59-49.7 71.38-.1 60.42 45.68-10.1 49.5-64.4 43.62-103.5-5.85-39-51.23-60.29-89.7-55.88-73.03 8.37-114.96 49.2-141.77 95.96-19.77 34.5-17.7 24.26-41.83 66.56-12.56 22.02-30 52.57-28.46 25.48 5.84-102.27-62.26-121.95-110.62-125.23 7.14-6.13 2.1-12.78 28.03-14.14 27.37-1.43 59.33 7.98 137.19-54.27 56.65-45.3 129.38-77.39 184.53-76.84 46.63.45-22.6 36.84 15.34 51.57 43.5 39.48 58.63-16.3 50.82-52.13 3.24-30.57-29.12-34.97-69.04-26.52 13.72-16.6 45.47-35.63 63.94-90.82 12.8-38.24 6.23-95.13-16.74-115.75 59.64-17.9-28.62-109.2-16.5-37.28-3.22 15.66-13.75 12.54-26.43 4.05-12.68-8.48-37.87-27.54-76.76-22.72-45.8 5.67-68.17 60.14-101.17 32.68-14.41-12 18-44.94.76-40.2-41.96 11.56-28.52 64.57 3.35 74.95 45.62 14.86 47.79-32.95 84.38-40.04 24.42-4.73-51.38 60.29-5.13 79.08 37.76 15.34 15.87-40.36 20.83-52.8 14.47-36.27 99.6-11.57 46.41 14.51-9.69 37.46 21.47 61.94 40.3 19.63 36.42-9.72 31.57 67.36 21.22 90.63-11.1 24.95-60.74 90.15-61.3 57.87-1.39-79.87-49.66-109.22-85.6-125.63-9.9-4.52-36.7-17.3-67.75-10.22-22.71 5.18-50.34 53.7-3.18 60.82 46.04 6.95 15.36-38.95 67.08-26.5 30.64 7.37 42.22 21.12 44.89 36.56-17.9 12.3-22.42 24.16-12.38 52.47 8.02 40.52 22.2-36.44 38.87 10.58 17.5 49.38-68.2 49.52-129.54 97.18-75.26 58.47-177.58 117.79-207.57 14.65-.3-1.03-.62-2.06-.9-3.14-17.77-66.3 101.92-61.7 73.74-9.73-36.49 67.29 55.68 11.85 26.3-36.16-15.6-25.52-50.88-39.96-62.1-49.61-20.08-17.28-.72-12.99 28.16-5.25 61.04 16.35 36.16-13.93 1.7-29.8-20.2-9.3-14-24.35-26.83-41.15-12.97-16.98-53.28 13.32-41.87 48.58-34.51-24.02-45.43-54.26-45.8-83.37-.16-11.48 6.5-57.65 1.98-79.73 19.7 2.85 27.36-2.87 41.25-7.24 43.86-13.77 53.76-80.51-6.17-58.54-22.5 8.26 15.33 17.07-6.77 43.1-6.7 6.98-19.93 8.71-27.95-3.68 3.48-3.4 5.49-5.63 7.83-10.15 2.34-4.51 4.17-14.03 1.75-19.05-4.24-8.79-11.4-7.4-19.94-2.05-13.51 8.45-17.97 21.35-16.16 36.11-5.46 11.23-17.44 17.44-22.68-8.84-.91-4.59-.83-10.26 1.2-14.87 2.02-4.6 3.24-10.55 12.89-11.74 13.2-1.64 19.78-10.76-17.3-13.44-3.41-.25-16.96-.17-19.81.42-38.92 7.92 6.5 44.52 13.59 66.82 6.2 19.56 24.89 19.24 41.38 10.76 1.67 17.54.36 47.7.34 53.91-.26 58.87-23.18 98.22-41.9 111.16-7.8 5.4-11.3-10.52-6.61-21.5 3.73-8.75-1.8-14.95-6.26-18.99-5.7-5.15-8.6-5.36-32.5-2.4-33.39 4.14-41 10.48-44.24 36.86-1.2 9.78-2.66 19.76-3.27 22.2-.62 2.42 1.13 4.9 3.88 5.5 3.28.73 7.82-3.76 13.32-13.14 7.74-13.2 9.07-14.12 18.01-12.43 5.31 1 14.95 2.72 21.42 3.81 14.32 2.41 17.2 8.31 8.59 17.51-9.23 8.33-57.4 42.29-53.77 73.16 4.28 36.42 52.14 30.5 35.21 1.6-16.76-28.6 33.15-36.05 51.98-29.63 18.83 6.43 32.85 26.72 23.16 53.6-.12.24-.19.45-.27.69-19.77 53.39-74.01 39.32-113.2 20.91-38.75-18.2-74.19-16.73-114.6-19.98-54.1-4.34-135.04-64.04-156.58-89.01-22.83-26.47-16.63-56.2 10.6-43.37 46.4 21.88 28-25.32 0-41.15 11.6-28.4 52.22-80.79 108.97-71.58 38.68 6.28-8.08 61.5 41.3 52.01 55.33-10.63 12.7-96.36-26.93-88.11C126.5 101.69 97.07 126.6 61.94 188.5c-6.61 11.64-12.23 44.77-28.1 18.06C12.25 170.16 6.6 99.3 60.66 91.16c24.1-3.64 32.51-11.1 28.79-30.87-5.5-29.16 89.4 45.35 68.52 13.4-16.18-24.75-15.96-46 20.18-19.7 34.73 25.28 100.64-46.38 70.88-44.42-34.65 2.29-32.39 50.7-71 23.8C145.82 10.95 109.7-3.74 72.46 16.35 67.1 6.63 57.58 3.47 46.42 2 .46-4.11 9.78 40 31.74 47.96Zm467.1 177.25c18.08-.25 15.64 32.86 78.66 61.4-42.83 5-56.39 38.82-51.77 73.36v.12c.2 1.49.42 2.97.68 4.46 2.92 16.32 9.73 32.52 19.38 45.64 4.3 5.85 22.28 24.08 14.32 29.5-11.51 7.83-21.62 17.18-32.34-4.6-8.11-16.48-11.36-40.97-32.43-6.48-13.45 22.01-43.5-9.24-12.69-37.18 7.97-7.22 14.16-17.31 17.63-28.4.39-1.24.73-2.48 1.04-3.73v-.11c8.28-32.83-7.56-72.46-72.14-73.73 30.47-12.01 54.19-60.05 69.67-60.25zm405.76 185.02c2.75.02 5.53.13 8.33.34 52.86 3.92 83.45 62.75 34.27 42.42-68.69-28.4-114.5 3.47-145.65 18.92 25.14-41.59 61.7-62.03 103.05-61.68zM86.28 424.65c.85 0 1.72.01 2.6.04 9.51.3 20.25 2.58 31.96 8.13 0 0 31.81 30.06-8.47 18.14-40.29-11.92-51.35 14.64-51.35 14.64s-7.87 16.4-6.5 23.3c1.38 6.88-1.46 30.8-11.81 6.09-10.36-24.71 0-54.18 0-54.18s16.5-15.94 43.53-16.14zm423.85 24.64c9.45 22.22 13.62 17.6 21.07 25.07-2.46 10.81-17.52 16.7-28.2 70.48 6.03-55.84-3.63-70.94-5.78-73.66 5.58-5.97 12.06-14.34 12.9-21.9zm-48.33 15.73c12.21.22 13.64 4.3-15.12 17.5-25.08 11.51-69.91 18.44-81.92 99.42-3.05 20.57-11.05 12.96-10.65-3 1.47-58.84 36.13-106.42 87.93-112.52 6.34-.75 12.36-1.3 17.18-1.4.9-.02 1.77-.02 2.58 0zm108.25 7.67c1.98.01 4.38.08 7.22.21 4.73.21 30.7 7.4 54.5 28.95 34 30.8 43.35 59.34 33.48 97.14-5.43 20.76-19.96 32.21-19.02 16.94 3.13-50.52-5.58-66.6-13.83-80.07-14.26-23.27-33.16-38.85-50.67-49.03-19.03-11.06-25.57-14.2-11.68-14.14zm-91.49 13.03c19.8 25.08 9.88 73 14.7 108.53-7.75-19.39-17.54-44.3-24.17-47.73-14.18-7.36-30.61 5.72-40.26 24-13.75 26-13.45 45.2 24 10.7 17.83-16.42 24.97 24.86 27.38 47.79-.59.55-1.22 1.12-1.72 1.66-2.34 2.58-4.56 5.15-7.1 7.23-29.2 19.72-87.47 1.14-95.1-34.08-3.96-18.33 10.47-67.15 48.42-89.63 16.55-9.8 37.06-18.47 53.85-28.47zm70.28 3.86c39.45 4.16 88.76 57.4 83.81 121.66-4.94 64.26-69.76 48.45-82.29 44.99-8.5-2.36-17.32-5.8-31.66-22.76-9.36-9.7 6.44-26.96 15.25-35.77 6.88-6.87 26.9-8.08 36.17-2.74 12.63 7.29 38.45-11.93 24.95-14.97-17.64-3.98-16.59-19.11-21.67-25.92-10.17-13.65-25.81-5.11-39.92 5.3-9.31 6.88-20.6 23.36-24.01 33.19l-.9 2.43c8.14-30.66 3.75-69.56 40.28-105.41zm324 177.24c5.96 0 12.23.16 18.8.52 41.14 1.4 61.82 65.78 33.42 91.96-27.03-6.64.15-58.22-39.04-67.06-47.29-10.04-69.54-1.91-121.56 11.5-5.1 1.32 18.8-36.87 108.37-36.92z"/></svg>
