<?xml version="1.0" encoding="utf-8"?>
<!-- Generator: Adobe Illustrator 24.1.2, SVG Export Plug-In . SVG Version: 6.00 Build 0)  -->
<svg version="1.0" id="Layer_1" xmlns="http://www.w3.org/2000/svg" xmlns:xlink="http://www.w3.org/1999/xlink" x="0px" y="0px"
	 viewBox="0 0 1000 1000" enable-background="new 0 0 1000 1000" xml:space="preserve">
<path d="M475.738,132.176c0.727,11.382-34.905,22.716-14.984,43.24c2.137,2.202,5.214,3.305,8.273,3.102
	c38.774-2.568,6.901-37.688,20.192-41.499c5.844,0.143,15.259,49.82,34.196,27.323c20.38-24.211-23.773-20.233-20.078-33.895
	c14.578-4.753,42.185,0,32.398-28.133c-10.673-30.677-30.378,16.643-42.37,18.96c-0.901-13.565,16.235-53.494-12.78-49.278
	c-36.314,5.276-0.374,43.165-1.727,49.278c-10.947,5.77-34.539-49.351-48.467-4.959C419.445,151.199,468.82,131.515,475.738,132.176
	z"/>
<path d="M996.135,58.878c-3.894-9.593-8.716-19.239-14.31-28.552c-2.337-3.89-7.508-5.318-11.5-3.166v0
	c-1.893,1.02-2.804,3.227-2.165,5.282c4.688,15.094,14.854,47.118-18.369,28.873c-9.428-5.177-22.893,7.355-17.747,15.695
	C971.421,140.823,1006.653,84.793,996.135,58.878z"/>
<path d="M927.553,877.309c52.158-96.982,0.385-203.904-7.26-230.82C937.827,639.906,1010.798,778.943,927.553,877.309z
	 M937.827,577.304c-60.906-48.347-215.922,33.274-191.272,2.421c6.217-7.782,24.87-10.895,3.854-75.897
	c156.639,182.454,321.528-131.967,214.449-288.298c-4.886-7.134,8.29-16.602,29.9-4.793c7.008-60.784-55.062-19.232-79.295-42.936
	c-21.124-26.817-96.371-61.737-96.371-61.737s29.015-4.15,15.364-34.623c-2.207-4.926,4.122-8.478,6.052-8.091
	c12.082,2.42,55.405,42.377,82.204,54.925c6.629,3.104,12.073-5.921,6.229-10.332c-13.141-9.92-21.054-14.504-29.479-22.021
	c-6.844-6.107-10.982-14.692-11.544-23.854c-0.576-9.383-1.173-20.569-1.47-24.484c-0.245-3.23,9.108,2.015,18.652,2.594
	c17.098,1.038,19.171,1.556,33.16-16.601c-14.095-13.232-32.684-12.215-46.213-5.237c-3.678,1.897-7.973,2.265-11.741,0.553
	c-10.971-4.985-34.991-6.696-53.616-0.504c-10.816,3.596-25.215-6.571-43.35-4.15c-42.606,2.077-71.17,27.237-105.87,43.579
	c-19.834-19.83,37.303-41.36,10.219-49.357c-69.631,15.584-10.219,49.357-38.025,96.827c-13.118,3.397-43.736,20.3-47.625,22.468
	c-0.54,0.304-0.519,0.289,0,0c0.048-0.027,0.073-0.041,0.13-0.073c8.867-88.102-55.382-143.096-94.957-113.589
	c-8.501,6.338-9.533,19.023-1.976,26.464c18.428,18.145,35.251,8.333,48.884-7.914c7.944-9.467,47.445,26.557,31.556,104.031
	c-12.176,7.263-71.329,45.568-98.962,83.872c-45.077-47.556-60.621-55.511-97.926-66.579c0-101.953,20.544-127.666,68.561-135.609
	c4.725-0.782,7.144,5.386,3.23,8.148c-24.362,17.191-15.269,34.418,3.672,34.929c8.353,0.225,16.031-4.214,20.64-11.194
	c32.683-49.496-45.823-56.473-79.522-20.44c-20.524,21.945-29.194,64.118-28.756,89.752c-10.622-28.534-31.951-52.226-44.904-68.308
	c28.152,6.398,16.471-20.48,20.38-28.88c3.908-8.4,21.643-11.457,22.97-14.872c2.654-6.831-47.667-21.271-60.621,26.459
	c-11.182-11.149-53.367-38.798-104.143-21.79c-3.116-6.879-8.065-10.268-15.026-11.068c-14.07-1.615-20.725,7.955-12.953,20.233
	c1.056,1.669-24.697,8.993-28.669,13.143c-8.808-36.662-43.997-38.65-56.13-15.737c-3.428,25.096,31.586,25.662,36.442,36.662
	c-7.757,9.237-31.757,42.348-44.386,41.158c-13.107-1.235-41.463-0.974-48.358-12.105c-16.925-27.323,33.851-45.654,26.597-6.398
	c40.414-1.556,27.461-42.023-11.917-35.797c-4.674,0.739,12.175-5.762,8.549-10.376c-1.766-2.247,7.215-10.02,2.702-9.425
	C56.328,23.876,42.3,33.723,38.105,39.139c-68.047,87.85,94.969,92.004,148.184,38.391c21.934,51.331,87.736,42.541,90.154,19.714
	c-14.335-4.151-38.168,10.895-51.64-5.707c13.471-10.895,21.761-45.654-22.279-38.391c3.109-9.857,9.844-21.79,8.808-28.015
	c27.201-19.714,104.033,17.24,106.475,30.349c-15.704,14.414-28.66,0.181-42.66,0.528c-0.94,0.023-1.88,0.367-2.569,1.007
	c-16.185,15.029,33.745,58.635,55.852,11.695c10.88,9.338,41.968,56.549,37.305,116.21c-0.564,7.211-21.783,41.605-26.943,36.316
	c-7.254-7.436-3.627-24.902,8.29-40.466c-12.129-12.145-64.248,44.098-25.102,92.014c0,0-191.475-25.089-221.008,47.543
	c-3.648,14.254-8.272,1.412-10.263-5.494c-1.619-5.617-7.013-9.706-12.781-8.799c-2.194,0.345-4.317,1.312-6.094,2.939
	c-10.605,9.718-15.943,16.065-32.347,10.316c-14.672-19.814,54.407-124.752,45.281-69.186c-0.785,4.778,5.453,9.392,7.202,9.751
	c32.313,6.617,0.9-56.027,42.958-128.503c2.465-4.248-10.35-16.025-16.341-6.784c-7.256,11.191-26.674,40.038-36.269,47.902
	c-12.594,10.322-19.689,6.744-37.305,15.391c-25.326,12.431-35.788,37.245-27.979,66.06c6.447,14.115,22.425-17.526,31.087-31.647
	c-66.838,132.293,21.416,255.341,13.989,276.265c-12.963,21.398-27.461,32.073-25.128,47.211c-5.065-1.121-12.377-2.821-19.814-2.26
	c-4.443,0.335-9.493,3.841-11.419,7.863c-12.704,26.521-0.964,43.522,11.214,60.768c6.057,8.578,6.62,19.956,1.312,29.019
	c-43.791,74.772,84.174-7.493,30.339-54.151c73.43,63.642,87.247-32.777,41.658-28.862c-2.538,0.218-5.037,1.299-6.598,3.316
	c-6.847,8.845,14.231,15.085,17.642,21.396c14.033,25.963-88.397,3.4-29.361-73.323c55.612,53.955,101.898,43.233,167.182,2.421
	c-10.363,32.857-18.708,76.207-43.868,77.82c-27.867,1.786-136.492,36.575-184.071,131.368
	c-33.504,88.837,64.902,206.715,101.689,210.865c-10.184-2.838-39.786,41.677-50.493,11.947
	c-31.126,21.395-49.505-9.007-3.229-22.999c-74.397-72.736-83.964,57.653,2.022,59.1c9.921,0.167,19.168-4.624,25.285-12.446
	c44.881-57.389,189.77,22.515,67.977,7.136c-101.409-12.805-22.91,55.316-2.078,8.808c28.39,17.11,73.469-9.819,88.493-6.409
	c51.812,11.759,168.025-33.491,170.367-39.573c12.944,77.287,88.868,39.086,80.751,18.821c-1.79-4.469-11.091-0.174-15.865-0.752
	c-18.463-2.233-50.634-11.879-28.201-52.948c0.824-1.508,1.932-2.895,3.273-3.968c3.689-2.953,8.405-4.292,13.1-3.744
	c3.733,0.436,7.746,1.257,9.471,2.802c10.708,9.598-18.651,12.955-13.902,29.556c1.949,6.814,14.908,9.217,25.227,4.753
	c3.689-1.596,6.015-5.376,6.2-9.396c2.083-45.095-29.517-37.713-47.874-41.944c-7.865-1.813-11.913-10.818-12.292-18.037
	c-0.119-2.27,0.297-4.996,1.355-8.298c2.052-6.406,3.558-12.994,3.761-19.719c1.212-40.089-17.13-82.309-30.198-99.555
	c12.945-10.106,101.143-56.828,99.848-121.159c3.426,10.781,18.393,54.474,72.348,105.248c-0.125,0.105-0.259,0.197-0.383,0.303
	c0.141,0.105,0.283,0.21,0.423,0.315c-36.076,31.004-52.309,90.603-26.58,135.554c4.464,4.854,7.223,15.627,4.845,21.124
	c-9.756,3.842-29.88,5.898-34.332,10.084c-19.398,18.243,31.595,19.921,46.89,34.759c10.483,10.17,8.894,42.067-9.758,46.778
	c-43.028,10.869-31.353-11.214-26.942-14.526c31.125-23.374,7.526-34.681-13.185-29.544c-8.075,2.003-13.429,9.688-12.515,17.967
	l0.879,7.961c1.456,13.183,8.869,25.102,20.272,31.852c19.168,11.346,36.757,11.653,52.717-0.215
	c26.549-20.856,26.798-54.365,20.837-86.117c189.022-16.553,45.329-205.395-5.832-95.152c-12.396,59.231,83.832,19.134,23.638-3.178
	c-17.847-31.436,64.566-6.173,55.978,29.881c1.616,45.938-79.926,70.14-105.179,22.327c-34.8-61.368-7.633-101.333,23.875-118.603
	c33.16,18.762,92.054,29.328,128.495,38.822c39.723,80.932-21.416,178.466-88.896,162.38c-37.14,29.633,66.443,55.515,134.49,48.598
	c38.489-3.913,68.393,53.273,51.468-20.695c10.006-3.309,30.861-8.849,39.031-5.591c15.518,22.66,38.299,62.591,96.393,18.623
	c10.271-7.773,17.617-18.921,20.471-31.491c6.324-27.852-3.749-53.212-26.929-49.081c-6.324,1.127-10.813,7.04-9.416,13.317
	c1.298,5.83,6.047,17.716,12.223,14.305c20.507-11.327,12.804,18.969,10.365,23.951c-26.73,54.597-47.668-14.527-86.009-3.113
	c191.706-130.737,79.304-342.01-43.726-357.296c173.966-26.377,74.814,137.326,27.319,100.319
	c-4.486-3.495,19.52-5.843,28.637-18.096c2.412-3.242,4.199-15.345,1.76-18.566c-6.824-9.01-21.372,5.548-35.578,28.316
	c-0.977,1.566-3.009,2.127-4.624,1.235c-55.582-30.708,15.398-19.192-7.498-55.864c-66.926,32.63,30.688,103.614,68.684,69.373
	c11.3-10.183,61.916-76.609,13.558-107.391c83.402,48.248-4.373,84.19-13.299,69.519c-1.197-1.968,5.588-2.571,9.493-5.868
	c4.291-3.623,5.993-9.462,4.269-14.811l0,0c-0.118-7.335-23.607-22.899-32.083,2.984
	C875.405,686.802,1038.259,657.026,937.827,577.304z M864.687,32.221c1.382,14.526,10.548,35.13,13.816,40.12
	c-6.908,0.692-36.959-25.248-36.959-25.248S850.87,31.529,864.687,32.221z M115.996,94.321
	c13.344-11.575,43.523-56.998,65.975-59.333C184.044,62.484,140.003,90.157,115.996,94.321z M752.657,57.521
	c0.634-0.756,0.428-1.768-0.403-2.299c-15.46-9.889-57.779,15.278-60.276,13.661c-11.474-7.431,103.97-69.519,119.86-33.895
	c-14.508,9.079-8.808,27.237-20.207,35.537c11.399,8.041,30.485-14.644,29.274-12.97c-10.881,15.045-13.73,41.59-11.658,45.913
	c-21.416-2.767-81.864-19.714-141.966-2.075C674.105,52.944,721.037,95.226,752.657,57.521z M662.964,112.808
	c45.768-14.526,163.382-29.226,250.427,64.677c13.989,17.12-24.219,66.72,31.686,78.008c-14.588-42.038-1.798-31.662-1.798-31.662
	c107.933,132.12-28.253,395.297-158.395,294.654c120.451,27.126,190.96-69.591,172.92-182.788c4.29-45.46-11.513-67.249-31.46-8.106
	c-2.649,7.853-15.071-2.365-26.267-8.5c55.508-63.021-11.713-54.145-18.781-123.241c-22.469,31.084-24.114,63.566-10.639,102.174
	c-50.628-27.828-85.454,28.604-124.569,23.942c-9.808-1.169-41.415-7.996-46.997-9.339c-9.302-2.237-18.43-12.923-25.138-18.69
	c51.838-15.172,55.905-55.801,27.006-102.27c-5.642,21.347-18.134,49.804-24.87,51.361c-9.897,2.287,4.663-30.263-4.145-46.865
	C649.831,154.481,654.328,132.781,662.964,112.808z M664.006,274.992c-40.736-24.82-46.847-37.345-31.682-65.594
	C668.115,219.02,652.011,252.849,664.006,274.992z M601.825,142.552c14.939-10.808,32.642-22.308,43.436-25.594
	c-0.691,3.805-12.348,27.323,10.103,76.436c-9.594-10.014-36.464-19.919-48.704-29.744
	C598.803,157.342,602.35,147.3,601.825,142.552z M490.342,258.417c24.179,42.887,37.996,77.474,42.486,115.173
	c-18.652,15.218-38.341,34.932-42.486,61.218c-14.508-25.594-22.452-38.218-39.723-52.053
	C447.856,339.176,477.216,286.086,490.342,258.417z M542.931,367.537c-4.836-32.511-39-99.457-43.263-113.962
	c21.362,20.728,58.289,88.801,59.584,104.105C557.266,358.891,549.581,361.917,542.931,367.537z M561.325,374.541
	c1.036,12.97,4.749,49.613-12.266,67.432c-2.782-18.823-3.276-41.628-3.019-58.612C555.884,377.913,556.921,376.616,561.325,374.541
	z M489.996,481.5c-25.906-4.15-36.607-21.049-35.232-70.902C473.992,411.534,491.723,469.394,489.996,481.5z M440.602,377.308
	c-6.045-3.199-7.081-5.793-17.098-10.289c1.036-35.797,41.974-101.758,60.621-124.511
	C472.11,280.137,442.424,336.782,440.602,377.308z M445.438,444.146c-10.708-6.572-20.617-51.399-22.452-61.564
	c1.04-1.431,16.924,12.643,20.034,15.91L445.438,444.146z M388.208,183.883c9.648,38.391-5.895,74.534-46.827,86.639
	C365.732,252.849,354.334,197.891,388.208,183.883z M36.723,331.221c17.098,24.383,30.915,34.759,50.258,14.008
	c-6.908,49.113,15.145,102.149,49.74,134.887c-18.941,7.189-41.044,0.125-57.512,6.744C51.231,435.5,39.424,379.933,36.723,331.221z
	 M43.547,691.44c-29.336,63.271-3.359,153.067,29.147,197.325C80.7,899.665-32.705,777.906,43.547,691.44z M250.709,956.891
	c-4.208-22.94-35.703-68.461-46.988-62.055c-3.6,2.044-1.741,41.565,23.322,65.353c-32.676-10.008-49.129-21.64-56.677-33.886
	c-60.524-98.192,82.934-91.427,3.751-155.79c-57.712-46.91-84.239,23.76-72.815,48.418c11.759,25.381,62.853,7.665,41.701-17.306
	c-4.722-5.575-6.745-5.181-17.441-3.38c-6.542,1.102-16.177,11.568-14.747,5.082c18.652-84.564,93.263,6.744,38.427,44.02
	c-26.011,25.969-20.08,61.795,6.063,80.724C103.083,939.382,66.579,858.468,50.9,814.222
	C6.029,623.52,180.062,611.296,207.705,600.996c1.622-0.604,1.468,6.525-0.023,7.405c-19.332,11.42-85.542,53.273-78.334,86.839
	c-3.964-2.534-12.038,7.49-15.941,4.154c-5.782-4.942-1.063-22.496-4.145-20.752c-23.834,13.489-19.689,60.872,24.525,33.203
	c25.696,51.237,86.564,74.102,137.13,90.444c-36.149,62.385-7.908,142.581,56.454,149.386
	C306.866,965.392,266.698,967.045,250.709,956.891z M276.097,818.718c4.363,45.091,22.992,99.609,45.595,116.902
	C283.005,941.154,252.609,863.075,276.097,818.718z M361.415,864.372c-36.179-20.303,11.471-76.682,13.938-46.469
	c0.678,8.309,10.534,12.667,16.568,6.924c7.618-7.251,9.381-18.252-4.111-25.512c-85.846-27.194-72.336,136.585,32.498,77.509
	c3.651,4.812,10.864,11.235,15.656,14.192c1.75,1.08,2.845,2.933,2.935,4.99c0,0-7.409,15.686-11.51,18.517
	c-35.578,24.556-45.081,19.879-78.068,16.133c-48.377-10.347-57.681-112.802-58.199-129.404
	c44.559-13.489,61.817-35.451,104.143-59.662C429.807,791.889,440.22,899.113,361.415,864.372z M291.123,788.282
	c13.171-36.968,67.618-66.453,95.853-54.992C367.978,741.244,321.692,774.793,291.123,788.282z M396.454,726.372
	c-39.53-19.542-103.373,24.556-120.875,61.909c-11.111-1.032-20.35-9.617-35.405-13.835c30.742-12.797,75.646-52.917,87.218-92
	c1.071,10.19,0.846,19.668,0.722,26.324c-0.082,4.406,5.689,6.334,8.132,2.669c13.065-19.609-5.086-69.277,26.118-44.48
	c4.796,3.811,12.73-4.066,7.549-7.333c-28.532-17.992-30.789-52.075-23.75-84.585c0.701-3.235,1.97-10.084-0.983-11.573
	c-19.246-9.703-13.001,63.853-19.343,62.947c-13.347-1.906-29.501-58.773-76.722-44.974c53.116,18.795,91.055,74.442,62.214,102.042
	c-54.576,52.226-108.288,127.105-161.828,27.842c48.186,7.004,73.228-34.586,42.141-48.075c-10.194,12.929-4.542,22.49-4.355,22.798
	c0.012,0.017,0.017,0.029,0.017,0.029s-0.005-0.012-0.017-0.029c-0.13-0.19-1.616-1.399-18.64-2.821
	c-2.501-0.209-5.073,0.006-7.484,0.706c-8.404,2.441-13.275,6.693-17.362,9.234c-19.343-18.677,52.762-75.831,77.373-77.387
	c12.176,18.158,14.328,82.723,15.18,84.571c0.851,1.848,5.096,8.785,6.702,4.648c1.607-4.136,0.138-102.189-23.954-113.862
	c12.694-5.188,33.907-102.064,33.907-102.064c0.357-2.042-2.131-3.333-3.555-1.829c-30.797,32.541-127.164,76.715-162.733,13.646
	c18.922-10.928,73.935,5.547,121.377-3.123c23.166-4.234,34.513-31.502,35.307-49.847c0.912-21.068-21.781-36.828-36.279-36.599
	c-62.469,0.987-16.046,76.123,10.06,42.89c5.383-11.764-8.188-27.212-24.136-22.568c-0.61,0.178-1.022-0.577-0.553-1.007
	c6.521-5.983,8.433-10.123,20.986-8.175c12.248,1.901,20.775,12.86,19.603,25.215c-10.212,107.682-182.26-19.914-121.777-101.16
	c5.549,50.245,120.572,46.786,80.331-17.89c-4.25-6.83-41.436,2.287-6.883,26.293c1.501,1.043,2.024,3.246,0.783,4.589
	c-4.068,4.404-32.191-1.313-33.229-1.875c-3.88-2.098-5.154-6.982-3.222-10.951c11.403-23.414-0.981-32.694-32.578-20.132
	c12.09-60.872,209.971-39.62,209.971-39.62c31.21,86.404,88.494,32.15,88.987,7.454c-9.326,4.669-65.593-5.59-59.584-8.82
	c24.259-6.461,78.41-22.308,70.81-58.97c-8.981-2.767-21.024,11.723-20.034,2.767c1.621-14.664,0.366-39.777-0.259-50.151
	c35.978,6.358,60.275,38.218,71.674,52.572c-22.107,28.361-68.738,90.444-67.529,134.066
	C204.202,347.068,263.662,481.5,287.237,531.131c1.201,2.53,6.218,22.308,23.488,19.887c5.905-0.828,10.918-11.37,8.981-17.639
	c-3.713-12.019-14.814-9.511-20.811-10.03c-3.833-0.332-34.33-60.468-18.652-105.143c13.712-39.075,76.682-48.075,130.568-42.109
	c2.677,23.26,16.321,102.463,81.605,126.5c-29.937-11.023-38.725,12.796-36.079,38.183c0.801,7.683,5.081,14.724,11.775,18.562
	c10.842,6.217,1.607-13.267,18.346-30.46C498.891,589.755,504.59,666.883,396.454,726.372z M224.284,769.259
	c28.656-17.016,79.636-54.464,92.043-82.083c0.416-0.997,0.841-1.992,1.22-2.999c-0.378,1.007-0.804,2.002-1.22,2.999
	C296.622,734.462,235.786,770.275,224.284,769.259z M534.901,388.808c-1.036,51.534,9.672,75.053-29.015,92
	C495.523,443.022,505.886,407.225,534.901,388.808z M514.746,549.493l-4.457,19.338l-8.204-53.436l8.986,13.651
	C515.039,535.071,516.367,542.461,514.746,549.493z M609.769,721.184c35.229-15.982,77.175-1.475,102.537,32.841
	C668.957,742.654,645.693,737.565,609.769,721.184z M926.679,693.969c23.349,63.877,1.473,215.366-65.619,230.238
	c24.179-33.203-60.877-134.533,23.794-122.12c-27.2,19.693-14.181,49.513,13.231,39.017c6.64-2.542,11.87-8.14,13.081-15.154
	c5.49-31.788-54.9-60.198-78.249-34.837c-50.844,40.052,33.64,99.922,17.262,135.169c-3.78,8.134-24.605,9.965-40.413,15.621
	c-4.146-79.433-25.338,2.628-53.654,13.264c-49.602,11.067-79.109,5.607-78.987,1.205c0.311-11.25,98.871-55.149,64.174-184.281
	c39.246,16.217,58.04,23.619,35.652-3.178c-2.135-2.555-40.026-6.713-42.141-9.857c-27.633-34.89-73.772-71.075-139.58-48.114
	c-18.729-10.68-61.672-72.712-74.837-102.51c-9.379-21.227,12.694-45.827,9.326-83.008c1.968,21.725,63.888,41.053,48.013,4.151
	c-2.571-5.976-22.105-10.295-18.998-14.526c17.271-23.519,4.145-31.474-29.047-26.731c49.765-24.065,45.988-102.846,47.699-117.149
	c140.555-15.599,43.432,167.53,22.467,89.897c-1.955-7.24,3.714-14.569,11.173-13.876c14.096,1.309-0.976,14.698,8.5,19.783
	c5.639,3.026,11.178-0.353,11.884-6.72c3.332-30.031-33.564-32.032-40.723-6.315c-1.7,6.106-0.546,12.672,2.461,18.25
	c36.642,67.968,109.407-65.456,39.667-113.5c73.271-25.221-46.448-40.782-61.992-8.271c-15.889-39.775-46.545-84.305-75.301-120.361
	c29.706-43.579,88.686-77.82,88.686-77.82l1.353,15.99c0.22,2.604-0.279,5.221-1.452,7.556
	c-14.777,29.408,24.009,74.282,22.896,87.477c-0.524,6.215-13.138,1.174-38.685-8.395c3.191,42.51,59.85,87.588,103.213,50.196
	c72.01,121.544,106.284-31.283,191.887,11.968c-30.302,7.503-118.609,48.766-80.51,75.883c19.506-24.01,36.909-20.095,57.32,0.351
	c75.158,39.616,7.738-115.335,73.835-50.615c110.463,139.376-203.262,245.378-146.268,88.702
	c4.731-13.007,22.008-8.632,29.908-5.027c13.358,6.097,10.721,16.037,0.375,20.091c-10.247,4.015-15.011,16.056-9.742,25.728
	c8.462,15.534,25.424,3.545,31.755-13.571c4.956-13.399,1.985-29.617-9.455-38.157c-58.167-43.418-98.332,32.726-83.773,142.711
	c3.253,24.576-12.855,33.225-12.378,46.051c73.222-13.623,24.612,8.219,0.799,55.451c-8.729-35.251-55.773-108.888-85.571-48.568
	c-4.318,29.981,37.58,20.273,24.558-6.924c25.675-7.517,15.911,25.992,14.969,40.188c-2.393,39.148,7.634,47.229,44.218,37.837
	c28.824,60.048,133.735,123.161,140.886,17.42c-65.354,75.201-130.108-53.149-57.802-93.803
	C873.495,556.956,926.679,693.969,926.679,693.969z"/>
</svg>
