<svg viewBox="0 0 1000 1000"><path d="M291.84 1.74c-46.46.91-88.08 4.54-131.8 21.41-32.62 12.59-60.1 35.94-82.39 65.7-6.82-17.97-18.75-22.6-9.47-56.07 5.47-19.72 3.68-28.91-14.86-30.22C34.8 1.24 29.48 8.88 25.94 30.82c-1.54 9.56.28 22.48 10 21.07 9.73-1.41 16.64 4.74 14.22 12.78-4.03 13.4-23.34 46.42-2.2 75.4-30.95 65.66-43.85 146.17-35.41 217.26 9.15 77.15 48.26 119.04 80.26 134.3-27.52-4.54-76.5 9.8-88.25 28.36-8.65 13.68-4.91 15.27 10.5 8.13 15.44-7.15 36.72-6.1 47.97 2.23 30.48 22.58 39.97 26.28 54.15 20.02 8.26-3.65 13.32-10.07 13.3-16.91-.06-13.43 4.31-18.58 13.27-15.24 14.35 5.35 35.97 10.18 38.78 16.84-51.38 18.5-160.84 91.6-173.09 174.32-14 94.57 31.58 158.91 74.59 169.38 59.43 14.47 78.9 21.94 24.05-36.33-68.5-72.81-30.38-195.2 22.92-229.36 28.93-18.54 42.06 73.64 38.8 93.63-2.8-.75-8.12-3.22-12.55-3.81-17.1-2.28-27.7-7.02-41.85 15.66-9.52 15.26-11.27 24.15-7.48 42.5 9.11 44.15 64.27 90.27 98.19 101.89 39.13-28.03 65.49-86.85 56.7-145.26-2.69-17.92-32.77-38.04-53.49-31.13-7.4 2.47-15.63 9.24-19.95 14.23-.13-6.96.08-13.27-1.91-23.86-17.7-94.33-11.53-119.65 57.78-135.07 19.41-4.33 56.23-8.83 99.18-4.16-.58.87-.93 1.61-1.72 2.62-4.3 5.5-7.72 19.9-7.6 31.97.3 28.23 14.32 40.25 42.83 36.75 28.65-3.52 32.08-10.42 13.14-26.48-19.22-16.28-11.48-23.72-3.53-26.08 4.32-1.29 13.42-3.78 19.92-4.27 51.04 17.28 103.45 50.61 143 115.4 46.56 76.3-3.43 149.76-18.42 167.65-4.25-50.73-26.73-90.24-78.5-95.2-24.36-2.34-40.85 11.9-4.7 21.19 33.84 8.7 37.4 61.15 9.78 90.17-13.04 13.71-15.07 19.08-10.4 27.56 3.86 7.02 9.65 9.84 17.35 8.45 3.27-.6 14.84-2.44 21.38-1.35-13.63 14.44-43.94 48.72-73.42 66.81-18.41 11.3-47.54-7.34-27.62-23.78 3.77-3.11 7.24-5.27 13.7-7.4-4.79-3.84-11.05-5.19-16.97-7.12a38.65 38.65 0 0 0-12.33-2.08c-26.44.27-35.21 28.38-11.22 48.24 5.94 4.92 9.54 9.27 5.95 13.23-6.14 6.78-26.2 4.72-45.9-2.21-21.2-7.45-26.55-17.98-31.11-23.98-4.93-6.47-.69-14.67 14.77-23.6 12.74-7.36 8.62-26.13 1.22-37.2-15.83-23.7-27.42-33.69-41.87-32.78-6.57.42-15.03 1.27-22.16 7.74-15.55 14.12-12.39 40.94.57 53.9 7.92 7.93 17.06 17.24 6.64 14.13-39.27-11.7-65.24-3.31-80.67 2.85-30 12-30.36 43.91-46.5 44.53-10.75.42-18.58-17.02-26.73-24.35-8.84-7.96-30.66-24.1-61.03-19.8C6 936.93.37 943.15.28 968.62c-.08 26.45 16.54 35.2 48.45 25.52 14.58-4.43 19.5-16.04 8.18-19.26-9-2.56-1.03-18.9 9.39-19.26 4.84-.17 17.52 13.31 28.17 23.97 19.13 19.14 19.84 19.37 56.73 18.05 33.14-1.18 37.3-2.4 37.26-10.82-.05-10.62-11.66-16.33-23.5-11.54-12.77 5.17-10.04-17.85 3.16-24.52 36.05-18.22 77.34-9.78 93.42 7.76 5.52 6.02-8.4 6.17-19.96 12.26-9.59 5.05-13.71 14.74-3.9 21.46 10.02 6.87 54.95 8.49 54.91 1.99 0-1.85-4.14-7.63-9.18-12.85-8.87-9.2-8.73-9.52 3.84-6.1 13.8 3.74 40.22 17.2 69.37 21.66 23.48 3.6 93.65.32 116.9-13.87 15.97-9.75 19.71-5.6 40.18 4.99 15.5 8.01 35.44 10.4 61.32 10.26 50.43-.28 88.4-43.03 116.7-36.77 11.2 2.47 10.27 7.85-2.33 16-13.6 8.8-5.09 19.72 14.87 19.08 40.48-1.3 43.64-33.2 4.13-41.38-17.68-3.66-15.77-12.19 4.13-18.53 47.16-15.03 107.26 6.42 96.8 34.52-2.17 5.87-5.26 6.7-12.35 3.29-14.58-7-25.44-4.87-25.27 4.94.1 5.64 7.7 12.32 18.16 15.72 14.58 4.74 38.94 6.86 50.56-13.26 9.17-15.89 73.72-37.6 99.63-37.54 21.03.05 22.27 17.55 1.72 20.06-16.12 1.98-17.72 3.52-16.06 15.43 1.48 10.62 5.5 13.96 20.3 16.98 10.14 2.06 24.42 2.06 31.74 0 12.36-3.5 22.7-18.14 22.23-32.2-.46-14.06-10.1-32.65-23.2-36.7-15.36-4.74-34.04-5.42-53.33-2.9 18.3-22.97 39.48-57.41 49.45-76.28 44.57-84.35 21.95-207.27.78-245.27-15.4-27.64-22.45-45.88-39.37-67.5-5.2-8.33-6-21.3-1.96-31.2 7.33-18.03 11.93-23.08 21.61-23.75 9.01-.63 12.92 2.07 14.64 10.1 1.66 7.75 5.67 10.72 13.73 10.15 13.08-.91 16.9-9.72 16.9-50.9a80.98 80.98 0 0 0-17.34-50.67c-12.33-15.93-23.44-24.62-35.55-27.83-17.3-4.58-34.35-.14-43.86 10.8-14.73 16.93-20.78 39.68-12.48 46.9 7.13 6.2 15.87-.26 15.1-11.16-.87-12.53 8.47-21.06 24.28-22.17 18.59-1.3 28.84 18.41 18.85 36.25-3.69 6.6-6.5 14.85-6.26 18.35.24 3.5-3.74 9.4-8.85 13.12-11.8 8.57-20.27 25.86-24.08 47.02C836.17 425.85 758.46 384.76 722.26 337c-3.96-5.22-6.66-12.06-9.8-18.37 6.45-8.85 13.15-11.44 18.84-4.69 5.16 6.12 26.65 4.81 35.27-2.15 3.77-3.05 7.33-14.16 7.9-24.69 1.32-24.15 8-29.78 28.2-23.73 21.5 6.44 28.89-1.3 19.06-20.01-5.97-11.38-12.66-16.9-23.83-17.59-6.7-.42-15.03.9-25.78 3.72-22.22 5.83-63.48 43.35-64.81 58.93-.16 1.86-1.99 4.7-4.04 7.74-25.25-82.4-.93-212.73 55.24-244.17 12.48-6.99 30.76-2 43.17-.18 46.3 6.82 57.1 13.87 78.1 45.96 6.54 10 16.17 21.17 16.17 21.17s5.4-27.42 2.66-40.75c-3.02-14.76-1.21-24.12-20.45-40.3-8.03-6.75-21.95-9.89-35.47-11.37 11.13-2.08 21.1-3.43 28.02-3.48 80.78-.57 123.23 44.54 99.05 111.66-3.4 9.42-8.82 15.87-9.37 21.14-1.32 12.72-1.41 12.76-8.83 4.5-5.71-6.36-9.21-7.5-14.73-4.8-20.53 10.04-25.84 45.66-11.69 78.28l16.23 37.4c5.65 13.03 7.43 23.67 5.52 33.06a435.47 435.47 0 0 0-3.93 22.22c-.67 4.94-5.54 9.85-11.88 11.98-26.3 8.85-44.02-26.65-21.27-42.59 5.36-3.75 8.55-9.2 7.55-12.89-2.06-7.66-17.48-.05-23.93-3.61-7.6-4.2-14.16 22.92-10.15 40.8 7.1 31.69 23.8 35.64 33.35 37.13 14.84 2.31 20.21.83 36.56-10.14 11.4-7.65 20.99-17.82 23.69-25.1 2.49-6.75 8.99-19.8 14.44-29.02 7.8-13.2 9.27-19.1 6.9-27.7-3.32-12.04-4.07-36.4-1.79-43.25 1.41-4.24-1.39-11.94-3.87-15.66-2.49-3.72-7.14-13.9-10.32-22.62-5.36-14.72-5.15-17.74 2.89-41.74.98-2.94.98-4.17 1.87-6.58 28.1-75.9-24.57-127.47-95.58-127.99-90.54-.66-142.9 26.46-158.66 41.44-10.2 9.7-35.55 29.74-51.97 74.8.62-15.88 4.61-34.29 10.63-40.17 11.98-11.71-6.41-38-24.74-35.37-9.58 1.38-18.35-2.58-21.4-9.67-2.86-6.6-15.45-15.38-27.99-19.53-25.77-8.52-59.17 10.07-63.37 35.27-2.2 13.15.59 16.49 21.08 25.25 24.95 10.67 36.28 5.95 36.52-15.23.11-9.8 3.42-15.18 12.66-12.7 29.97 8.03 43.23 25.97 34.65 58-3.38 12.62 12.05 28.8 11.03 58.6-.7 20.2-5.47 40.37-3.62 58.73-6.24-3.05-12.95-4.48-19-3.05-12.12-25.78-19.37-13.83-43.88-8.22-31.02-24.13-57.22-27.89-79.4-20.65 8.34-18.35 14.34-38.72 16.1-61.42 6.8-87.9-99.07-118.14-141.14-125.73-21.04-3.8-62-7.01-107.08-6.13Zm36.8 16.83c114.98 1.54 205.88 57.7 187.98 127.8-23.96 93.84-78.9 123.37-110.2 140-28.42 15.1-64.08 19.52-67.1-11.49-2.55-26.03-14.56-42.5-31.47-43.14-8.69-.34-18.01 3.4-20.73 8.28-6.22 11.19-22.74 2.88-21.56-10.85.47-5.5 5.62-17.85 11.44-27.44 12.05-19.82 5.22-33.89-11.43-23.55-13.28 8.24-22.5 58.15-15.03 81.3 2.82 8.7 12.02 25.96 20.46 38.34 13.5 19.82 19.43 23.42 49.65 30.23 35.67 8.03 45.7.86 108.8-33 19.65-10.54 43.69-28.84 64.5-53.44 24.92-7.95 54.4-75.76 100.65-6.82 41.73-23.51 29.91 48.23 77.17 38.06 1 15.89 5.6 30.71 12.51 44.94-15.44 15.64-29.5 35.35-38.17 50.4C567.34 505 615.59 598.6 682.72 666.35c36.87 37.2 100.92 74.55 137.72 83.08-6.34 9.5-27.49 19.32-29.73 30.88-.75 3.89 8.94 10.6 20 14.76 13.96 5.24 23.54 14.19 32.1 28.68 9.18 15.56 31.95 33.37 30.12 15.43-.36-3.5-2.28-15.29-6.28-28.16-4-12.87-16.13-44.9-1.26-36.35 20.8 11.97 72.9 76.43 63.4 98.28-12.96 29.8-39.62 60.98-53.2 66.79-25.66 10.96-40.6 15.6-49.02 7.19-10.06-10.07-27.76-18.1-40.36-22.04-19.63-6.13-18.71-14.69 6.15-17.3 26.27-2.78 39.4-20.14 25.7-43.86-12.08-20.94-44.28-20.74-68.35-6.85-12.96 7.48-27.64 16.15-17.38 33.56 12.83 21.75 5.93 26.1 4 28.03-2.59 2.58-10.97 3.38-17.93 4.65-8.37 1.52-36.64 10.5-60.84 26.4-38.99 25.6-64.09 35.32-71.3 22.83-4.94-8.55-3.54-9.73 13.74-11.73 22.82-2.64 21.61-17.62 15.96-26.71-4.31-6.95-12.1-15.54-23.64-17.54 8.25 18.57-4.64 26.52-19.4 24.76-20.96-2.5-37.1 8.94-24.63 22.98 6.38 7.18 8.43 10.5 8.57 14.35.46 12.15-44.9-7.24-53.43-17.44-6.36-7.61-25.1-8.8-29.14-2.51-9.65 15.04-35.77 24.16-41.93 15.95-10.23-13.64 38.22-35.6 78.48-83.05 8.13-3.07 13.65.92 17.06 7 4.03 7.19 14.6 14 25.64 10.35 14.8-4.9 28.19-33.78 25.76-55.6-1.15-10.34-1.83-17.08-7.46-17.2-4.77-.1-9.9 1.35-17.94 7.16-1.12.8-2.12 1.29-3.2 2.01 16.43-21.17 32.88-40.75 37.2-58.7 25-103.52-35.81-203.86-148.08-246.8-8.66-4.46-18.76-11.41-17.48-18.68 3.39-19.34 26.38-21.33 7.97-31.88-15.18-8.7-35.97-5.96-50.83 6.67-16.14 13.71-18.2 14.57-29.11 6.35-28.48-21.47-23.35-37.78-7.3-80.5 5.61-14.94 16.03-11.9 22.2-5.17 9.08 9.92 20.12 20.74 7.88 36.4-8.6 11.03-.48 17.84 15.65 9.23 33.05-17.64 14.2-67.24-13.89-72.9-18.08-3.65-36.32 1.47-8.78-24.4 5.81-5.46.72-9.93-7.68-10.4-17.7-1-28.7.41-38.58 13.05-4.86 6.22-1.85 27.97-7.97 40.48-11.04 22.54-18.99 75.1 25.74 111.98-13.69-.58-27.72-1-41.9-.86a696.84 696.84 0 0 0-49.91 2.33c-.12-.04-.1-.1-.22-.13C116.78 485.85 60.1 467.63 43.88 380.14c-1.43-7.68 5.7-16.56 10.2-28.1 10.98-28.2 74.08-12.64 65.55 16.15-4.45 15.02-15.33 21.44-32.34 19.08-16.12-2.23-17.63 3.1-6.61 23.38 8.33 15.34 29.67 32.38 32.35 23.07 9.02-31.38 33.74-66.9 19.1-96.07-15.72-31.3-43.79-37.33-79.31-16.68a117.46 117.46 0 0 0-17.05 11.83c-.57-4.5-1.28-7.87-1.83-12.7-5.24-46.49 7.2-115.67 39.4-175.1 11.48 5.56 29.78 4.41 53.1-1.28 4.53-1.1 14.3-3.1 21.71-4.43 18.35-3.3 22.4-7.43 23.72-24.2 1.63-20.46 21.18-29.78 44.16-21.05 19.83 7.52 23.55 24.38 4.82 21.89-24.95-3.31-30.96 26.29-6.74 33.27 14.66 4.22 24.24-2.69 29.46-21.26 5.88-20.93 2.56-34.68-11.6-48.05-6.72-6.36-14.3-10.35-22.85-11.98-14.26-2.72-31.22 1.13-51.46 11.53-15.18 7.8-40.46 16.76-52.03 17.9 20.68-23.85 45.7-43.72 76.14-55.6 15.6-6.1 32.22-10.83 45.7-14.1 13.5-3.28 44.16 9.73 48.76 20.16 3.6 8.15 3.14 9.48-4.66 13.45-15.32 7.81-19.2 15.05-12.34 23 9.98 11.55 26.8 19.84 34.99 17.25 4.1-1.3 10.6-1.47 14.42-.42 26.18 7.24 51.03 8.18 72.65.77 15.36-5.27 22.55-15.56 20.39-26.69-1.36-7-18.14-22.32-23.45-21.4-5.81.99-7.42 18.06-2.5 26.47 3.75 6.4 3.39 7.45-3 8.69C351.65 93 343.09 87.38 319 56.38 300.84 33 291.86 32.46 278.13 21.37a370.56 370.56 0 0 1 50.5-2.8zM155.05 97.23c1.27.04 2.27.42 2.9 1.14.85.97 1.04 2.55.41 4.78-1.44 5.12-15.06 10.45-28.01 10.98-1.06.04 2.5-3.73 7.92-8.39 6.63-5.7 12.96-8.62 16.78-8.51zm789.2 97.08c2.19.23 3.7 3.07 3.36 6.32-.33 3.25 2.32 12.66 5.89 20.92 7.33 16.94 3.57 19.3-7.1 4.46-7.44-10.38-8.94-32.4-2.14-31.7zm19.9 55.6c3.85 2.68 4.61 22.78 1.35 35.8-1.1 4.41-3.26.12-4.79-9.52-3.14-19.92-1.83-29.92 3.43-26.28zm-265.5 89.34c26.1 37.73 67.3 71.83 111.27 107.74 34.03 27.8 58.48 54.7 97.26 100.52 1.83 2.7 1.32 3.94.91 7.25-11.03-6.03-21.4-10.94-26.52-11.04-68.7-1.36-107.93 48.3-106.77 62.9 1.52 18.97 15.27 57.51 27.42 70.94 5.84 6.45 16.93 11.73 24.64 11.73 15.55 0 29.54-19.97 24.04-34.3-3.04-7.93-4.73-7.84-13.31.73-8.6 8.6-11.46 8.76-22.8 1.23-9.72-6.46-12.8-14.45-12.38-32.07.53-21.5 2.83-24.58 27.33-36.65 42.56-20.97 57.69-22.46 72-7.1 15.77 16.94 15.9 33.4.27 38.36-17.36 5.51-15.27 11.54 12.14 35 13.36 11.44 24.28 23.65 24.28 27.14 0 3.49 6.37 7.95 14.14 9.9 15.69 3.93 23.85 28.04 24.54 43.15 1.67 36.22-5.63 48.68-14.42 74.88-13.3 39.6-26.15 10.43-44.92-14.55-8.55-11.37-19.62-24.48-23.52-29.97-11.93-16.75-25.94-28.92-44.21-34.48-61.31-18.68-115.88-53.01-145.45-84.14-22.46-23.64-44.24-41.3-56.27-84.3 3.55.82 7.84 2.13 13.1 3.93 14.7 5.03 33.77 7.75 42.34 6l15.6-3.17-13.78-7.9c-55.75-31.93-60.25-38.04-48.16-65.08 8.25-18.43 17.3-17.07 19.13 2.88 2.29 24.85 29.3 24.72 39.25-.19 7.63-19.12 30.83-27.28 27.98-9.85a7.66 7.66 0 0 0 6.1 8.7c12.9 2.42 10.92-17.49-3.55-35.85-7.72-9.8-23.73-23.85-35.6-31.22-18.2-11.33-24.64-12.08-41.58-4.9-12.37 5.24-26.03 22.99-34 40.29 4-34.64 23.14-74.48 50.18-109.46 4.64-6 9.03-11.35 13.32-17.05zM68.28 644.46c-16.05 43.8-27.1 73.6-22.16 111.3 8.03 61.17 36.95 89.52 36.95 89.52-38.54-11.01-46.54-41.29-52.72-83.01-6.15-41.5 11.89-86.83 37.93-117.8Zm85.63 88.82c16.58 2.89 38.1 12.4 45.87 23.98 6.07 9.05 10.19 15.13 20.8 22 10.94 7.1 19.84 10.72 14.3 14.67-6.03 4.3-25.09-2.2-29.73-9.17-10.65-16-17.53-24.61-25.84-31.1 1.12 20.9 5.56 36.43-11.6 56.2-8.6 9.91-15.26 11.74-16.65 4.62-.57-2.88 3.13-4.05 6.27-6.67 6.82-5.69 12.16-9.89 11.25-41.02-.8-27.86-16.65-18.39-29.97-27.49-5.13-3.5 1.44-8.44 15.3-6.02z"/></svg>
