<svg viewBox="0 0 1000 1000"><path d="M954.66 4.56c-23.08-.18-30.55 7.18-28.83 28.42 1.73 21.32-9.17 22.75-29 3.8-15.58-14.89-50-9.24-75.76 8.4-74.85-9.93-129.95-22.26-215.65 34.58-17.9 11.87-26.66 21.96-22.49 12.66 7.48-16.68 32.5-45.23 44.33-50.58 31.85-14.41 33.53-32.37 2.89-30.77-10.16.53-20.9 2.36-23.87 4.07-2.98 1.7-12.65.67-21.5-2.3-25.21-8.44-29.43-2.24-29.9 43.86-.22 21.41-2.44 42.45-4.93 46.77-2.5 4.31-7.16 24.41-10.37 44.67-3.2 20.26-15.48 40-18.61 41.19-8.12 3.1-10.92-38.14-33.4-63.49-10.1-11.39 10.5-23.36 3.68-42.2-6.83-18.84-14.33-28.72.24-37.56 9.83-5.97 11.56-9.58 9.08-18.97-5.14-19.43-11.4-22.18-44.01-19.38-26.82 2.3-30.7 3.88-38.46 15.7-10.46 15.92-6.25 25.78 16.3 38.1 16.23 8.86 35.28 36.08 29.2 41.71-99.52-62.88-126.7-75.76-237.37-68.1-13.31.93-26.36-18.86-44.92-14.04-34.42 8.93-60.4 20.55-83.17 20.85-13.52.19-38.03-.12-30.07-8.08 2.72-2.73 6.6-12.05 2.68-15.86C56.02 3.66 45.72 3.84 30.21 9.17 19.03 13 16.4 16.9 15.41 30.56c-2.8 39.18 35.71 38.14 70.17 38.01 22.7-.08 67.38-5 84.21-7.8-60.56 24.2-77.97 49.58-91.82 65.2-8.28 9.33-20.25 26.61-22.19 26.72-6.35.35-8.9-16.32.13-25.34 13.37-13.35 10-22.3-6.26-16.67-9.16 3.16-19.6 5.31-24.7-.48C15.82 99.85-.2 98.96.27 108.84c.17 3.59 2.98 8.06 4.79 10 6.9 7.41-.28 13.42 6.8 30.28 5.97 14.21 22.45 12.35 27.3 31.4C3.1 252.71 1.12 277.86.07 336.01c-.9 48.59 12.47 69.29 24.75 87.8 14.9 22.46 15.88 29.03 5.22 35-8.7 4.87-4.08 16.85 5.14 13.31 3.23-1.24 11.89 5.74 25.3 18.95 86.76 85.37 186.05 72.7 239.25 39.23 25.95-16.32 43.68-44.3 43.68-74.17 0-35.7-14.79-70.58-41.16-74.49-22.55-3.34-43.84 6.8-43.84 20.86 0 5 2.6 15.45 8.5 16.85 5.9 1.4 10.71.43 10.71-2.18 0-2.61 7.68-5.31 16.6-3.21 47.24 11.1 27.11 82.13-.55 82.74-6.43.15-14.58-1.13-14.58-7.4 0-5.13-6.27-12.39-13.94-16.13-12.5-6.1-14.7-5.85-21.43 2.55-11.3 14.1-13.85 30.76 1.77 35 20.23 5.47 16.8 17.64 6.07 20.41-66.49 17.2-137.39-7.85-163.89-53.88-7.82-13.58 1.58-16.6 13.43-3.51 9.91 10.95 21.72 7.42 40.33 10.76 26.62 4.78 16.35-19.06 5.14-35.77-11.95-17.8-55.17-29.67-69.76-43.24-16.7-15.54-42.12-29.1-38.34-96.27 3.04-53.91 68.48-78.88 93.09-76.56 16.07 1.52 32.4 24.73 23.08 46.92-14.76 35.2-15.09 41.41-3.17 61.24 12.39 20.63 19.24 23.01 26.26 9.13 6.17-12.21 12.04-5.1 14.32 11.05 2.18 15.42 25.95 36.07 39.35 34.18 10.19-1.44 4.84-15.14-12.37-31.66-10.45-10.03-11.18-23.42-5.93-108.44 1.24-20.15-.8-30.17-7.8-38.25-14.11-16.3-41.54-29.83-57.24-28.26-22.05 2.21-86.43 9.5-109.05 42.6C94.2 43.76 375.04-27.1 491.76 176.64c13.1 20.35 3.2 23.55-21.58 23.55-20.88 0-37.29 10.43-37.4 23.78-.03 4.84-1.93 11.53-4.21 14.86-2.44 3.58-2.2 11.2.58 18.58 3.91 10.4 2.56 16.47-8.07 35.9-7.03 12.87-11.36 25.53-9.62 28.14 5.35 8.02 16.1 5.3 24.18-6.1 4.23-5.98 11.36-10.87 15.85-10.87 11.56 0 33-19.63 33-30.22 0-4.89-4.23-12.8-9.4-17.58-5.15-4.78-9.38-12.46-9.38-17.07 0-9.22 22.07-27.56 30.13-25.02 2.8.88 5.41 14 5.84 29.44.43 15.32-4.25 64.46-4.52 76.42-.22 9.76-4.71 36.25-3.72 49.64 1 13.4 7.12 21.96 14.38 29.51-18.21 97.92-43.12 138.31-98.1 169.27-17.84 10.04-21.24 8.43-19.55 1.52 4.69-19.1-13.95-40.85-18.33-40.18-1.54.24-5.88 5.14-9.67 10.89a25.62 25.62 0 0 0-3.33 21.5c2.74 9.78 3.4 14.74 6.95 19.47-45.13 7.72-77.82 14.32-113.4 26.93-2.94-10.18-4.36-13.2-8.21-11.74-1.31.5-2.91 1.5-4.94 2.9-3.82 2.66-7.74 10.01-9.88 17.91-35.57 15.3-84.22 41.66-93.06 48.66 0-13.15-1.45-14.64-14.09-14.64-15.42 0-18.16-7.68-8.34-23.4 4.84-7.76 4.12-10.67-4.7-18.89-19.5-18.18-7.52-42.05 14.28-28.43 8.73 5.45 11.8 3.96 6.1-7.18-23.58-46.21-73.69 5.47-62.97 25.6 5.3 9.97 6.29 15.28 2.7 18.88-17.95 17.94-24.77-41.57-7.45-65 13.63-18.42 8.93-28.32-13.39-28.24-22.86.1-42.19 9.15-42.64 21.77-2 55.55 22.7 96.96 70.23 109.7 20.77 5.56 32.5 23.51 15.8 31.84C22.95 723.08-30.1 850.28 19.33 940.8c-9.19 3.81-15.66 18.86-13.3 28.8 3.33 14.03 23.47 25.25 36.1 21.99 11.72-3.03 19.42-18.1 18.4-28.2 31.1 23.02 69.32 31.93 106.6 32.03 124.2.37 163-16.18 223.24-48.02 9.38-4.96 18.36-9.02 19.94-9.02 6.4 0 2.2 9.63-9.18 21-16.11 16.13-13.2 26.94 8.63 32.1 21.7 5.14 31.6 1.78 31.6-10.72 0-11.2 10.42-12.56 18.82-2.44 4.58 5.52 7.36 5.88 12.51 1.6 5.24-4.34 8.06-3.47 13.43 4.2 4.33 6.2 10.08 8.85 15.89 7.33 14.3-3.74 15.62-14.47 2.56-32.61-31.03-43.12-77.75-51.8-126.98-28.15-63.04 30.28-103.91 38.6-166.87 39.62 93.28-33.54 184.75-62.42 168-202.39 2.46-1.71 5.1 1.77 9.66 8.42 7.8 11.35 9.58 12.19 18.82 8.88 15.05-5.37 32.3-21.68 35.22-33.3 1.4-5.6-.5-15.76-4.23-22.6-5.41-9.93-5.06-14.3 1.7-21.74 6.39-7.02 6.8-9.6 1.69-10.5-3.98-.7-11.1 5.64-17.29 15.39-8.35 13.16-12.13 15.71-18.32 12.4-20.1-10.78-8.34-50.26 16.67-55.95 18.02-4.1 24.11-12.72 13.15-18.6-8.15-4.36-35.5 9.38-51.87 26.07-8.3 8.46-19.48 52.56-16.14 63.62l.1.42a360.4 360.4 0 0 0-3.73-7.65c-9.08-18.17-25.35-32.8-47.54-42.81-9.09-4.1-9.67-5.52-5.53-13.56 7.33-14.23-3.83-29.37-30.06-40.8-5.8-2.53-17.4-7.64-20.94-9.66 39.22-16.4 64.02-21.82 107-26.93-14.19 15.13-23.41 57.45-10.87 50.03 4.19-2.48 15.73-6.63 25.64-9.22 21.48-5.62 24.38-10.08 24.38-27.83 0-8.79-2.06-13.42-4.2-20 112.43-62.29 101.6-138.8 117.24-169.47 20.35 40.62 79.63 102.55 124.91 129.74-3.66 4.77-17.48 11.48-21.23 18.76-9.21 17.85-4.58 23.04 23.07 9.9 17.72-8.43 19.95-14.85 30.27-10.48 7.2 3.04 90.15 30.15 130.97 59.07-4.16 1-22.35 1.87-28.37 2.4-44.73 4-46.2 21.84-31.5 31.65 14.65 9.78 12.44 13.23-19.61 30.62-14.83 8.04-30.56 19.42-34.95 25.3-.4.54-.98 1.25-1.44 1.86.98-6.59 2.23-13.9 3.81-22.06 6.1-31.43 1.73-42.66-26.6-68.4-15.03-13.66-25.3-17.1-44.38-14.9-28.54 3.3-43.9 15.2-56.29 43.6-7 16.07-6.57 20.93 2.23 24.45 9.46 3.78 11.67 2.47 15.93-9.5 3.8-10.71 9.03-14.42 22.86-16.24 22.3-2.94 27.44 6.07 18.66 32.7-4.66 14.16-3.54 26.7 3.56 39.79 9.56 17.59 11.36 18.23 22.56 8.04 12.05-10.96 22.6-9.08 21.8 6.63-58.36 122.12 76.98 208.91 153.48 222.35-68.16 6.8-121.83 2.7-183.94-22.2-16.8-6.73-40.26-23.7-58.26-24.76-45.91-2.72-76.57 43.63-58.4 64.9 4.25 4.97 30.28-14.82 30.28-18.9 0-7.9 19.12-4.98 31.57 4.82 15.82 12.44 22.18 11.85 33.06-3.08 6.51-8.95 4.05-11.4 9.08-12.48 10.18-2.18 17.9 10.63 27.09 15.5 70.93 37.58 221.6 27.64 264.88-10.1 19.34-16.86 23.87-17.34 23.87 3.34 0 24.8 25.65 39.85 41.3 24.2 6.74-6.73 7.3-31.44.94-41.3-3.04-4.69-4.58-5.07-4.63-1.16-.03 3.23-4.33 5.87-9.54 5.87-7.9 0-9-2.16-6.65-12.9.85-3.89 1.5-6.43 2.2-9.2-.52-.38-1.04-.78-1.57-1.2-13.45-10.72 3.64-36.5 7.85-44.67 40.11-77.88 18.13-139.54-31.47-187.07-11.97-11.48-21.41-15.04-10.16-16.39 44.49-5.32 59.98-57.65 62.23-79.54 5.15-49.93-6.5-55.62-16.62-81-7.83-19.65-15.93-23.93-33.07-17.46-23.7 8.95-17.77 27.04 8.86 27.04 11.36 0 10.67 17.45 8.56 28.52-5.7 29.85-16.73 12.06-27.04 7.15-16.86-8.02-19.45 12.09-17.8 26.06 3.69 31.06 11.13 30.43 20.2 32.4 7.77 1.69 24.15-7.5 17.84 14.27-4.46 15.39-17.96 41.79-59.52 18.83l-44.16-24.45c5.44-22.42-3.88-61.16-17.3-66-8.05-2.91-11.8 16.6-4.68 24.33 10.45 11.31 8.27 22.89-3.48 27.82-48.4-26.35-94.37-46.16-147.65-66.4-5.66-2.16-6.2-9.32-3.9-15.28 5.47-14.1.91-39.66-7.64-42.97-6.3-2.44-8.54.03-11.9 13-1.56 6.03-2.87 21.8-8.4 26.78-44.7-27.46-93.45-71.85-119.7-135.66 8.99-12.9 10.26-25.85 6.6-34.3-14.65-33.77-9.29-77.2-5.4-104.9 4.01-28.47 3.73-30.79 14.7-40.94 9.53-8.82 13.46-10.16 17.87-6.07 8.4 7.78 9.02 40.94.92 49.31-9.77 10.08-13.65 37.05-6.49 45.04 9.64 10.74 22.12 7.8 27.5-6.48 2.7-7.17 5.84-13.04 6.98-13.04 1.14 0 6.47 8.68 11.85 19.28 8.99 17.69 11.56 19.51 31.38 22.26 13.89 1.93 23.48 1.25 26.88-1.89 3.9-3.62 1.4-4.89-9.64-4.89-20.1 0-29.69-14.4-34.16-51.3-6.03-49.65-15.44-72.77-34.31-77.63-12.81-3.3-27.85-2.45-39.7 1.65-16.76 5.79 3.12-10.82 6.13-17.85 63.15-147.68 282-184.19 409.06 32.48 13.94 23.77 9.17 31.7-17.3 40.15-4.8-.24-9.74.64-14.7 2.99-6.1-3.51-16.7-10.54-27.6-18.4-15.04-10.87-38.2-22.83-51.48-26.6-23.07-6.53-25.5-5.94-55.31 13.54-33.2 21.7-35.54 25.57-31.73 52.75 4.13 29.41 21.67 23.48 28.23-9.54 3.7-18.62 23.96-35.93 34.37-29.37 7.1 4.47 6.74 6.38-4.27 22.75-10.12 15.05-11.9 22.4-11.32 46.54.58 24.23 3.42 31.37 18.36 46.17 9.73 9.64 18.71 16.76 19.97 15.84 5.22-3.83-2.5-26.79-9.47-28.17-9.94-1.98-11.54-19.06-3.42-36.48 8.29-17.77 14.54-20.08 34.24-12.73 17.33 6.46 27.46-1.74 25.37-20.5-1.76-15.73 8.01-16.04 20.96-5.33-6.71 8.62-6.28 26.63 4.99 57.64 13.21 36.37-.28 52.39-10.18 60.88-5.54 4.76-10.48 13.96-10.97 20.45-.89 11.7-.77 11.75 12.58 4.8a210.18 210.18 0 0 0 24.71-15.52c9.27-7.02 22.39-10.34 21.31-4.4-14.99 79.01-55.7 148.1-198.63 97.92-9.67-3.4-5.64-16.63 1.79-32.3 5.7-12 8.07-26.65 5.48-33.81-5.15-14.25-22.04-24.33-31.06-18.55-10.52 6.75-22-2.08-15.46-14.85 2.45-4.79 33.44-24.47 47.38-20.97 20.19 5.07 25.1 4.25 24.13-4.02-.53-4.48-1.66-7.16-5.3-8.99-3.65-1.83-9.75-3.32-20.32-3.9-47.15-2.54-70.23 20.69-78.99 44.21-8.16 21.94-3.99 44.86-1.3 56.75 6.8 29.98 55.17 52.36 75.17 57.63C960.2 558.15 999.83 424.3 994.66 255.1c-2.34-76.55-66.88-140.6-113.04-174.54-9.42-6.92-22.55-12.02-21.45-13.13 1.11-1.1 12.4.27 25.1 3.07 39.89 8.81 58.89 10.24 69.3 5.19 5.55-2.69 16.42-6.8 24.16-9.12 12.38-3.72 14.25-6.62 15.53-24 1.86-25.26-11.18-37.78-39.6-38Zm-724.31 631c1.37 3.1 2.2 13.71 5.79 17.03 14.22 13.14 15.41 26.67 2.32 26.31-5.4-.15-19.71 3.17-31.82 7.38-19.84 6.88-23.12 9.78-33.29 29.43-10.83 20.91-11.44 41.7-1.4 47.9 2.62 1.61 6.78.73 9.25-1.97 3.31-3.63 8.46 1.49 19.6 19.48 8.3 13.41 20.22 27.37 26.5 31.02 15.69 9.12 58.84 8.36 62-1.1 1.74-5.25.4-7.75-5.2-9.61-12.4-4.13-13.23-11.97-2.42-23.09 7.86-8.08 9.14-14.16 5.58-26.58-5.59-19.55-11.53-23.8-24.32-17.4-7.38 3.7-8.83 8.1-6.03 18.34 4.76 17.42-7.05 29.9-22.93 24.24-21.57-7.7-25.64-17.06-17.5-40.28 6.24-17.83 9.43-27.2 27.15-32.3 105.9-30.48 132.13 106.5 100 149.32-5.09.46-15.15-.56-25.92-2.78-28.09-5.8-37.2-3.98-52.85 10.53-9.98 9.24-9.84 14.93.78 31.66 4.4 6.92 2.1 11.46 13.58 15.75-31.08 35.97-118.02 63.54-177.78 36.75-27.87-38.89-9.37-44 3.88-49.42 13.19-5.38 13.07-10.1 20.4.34 11.2 15.94 42.54 23.02 45.44 10.26 1.2-5.32 1.65-23.82 1-41.11-.97-25.18 1.06-33.74 10.21-42.96 13.29-13.4 11.83-19-4.33-16.67-11.78 1.7-37.14 7.25-58.55 37.08-33.73 46.97-44.5 42.49-58.29 75.4-5.69-2.18-15.49-10-24.72-21.69 4.8-15.37 10.29-37 18.09-54.43 10.48-23.42 20.65-33.42 41.38-51.85 20.45-18.19 27.3-50.58 12.21-58.66-12.05-6.45-14.78-11.64 2.3-23.85 35.95-25.69 79.35-55.62 119.89-72.48Zm609.01 19.47c50.2 14.95 101.83 49.5 104.23 94.68-27.16 18.6-14.59 33.73-18.96 51.2-5.55 22.2-7.1 43.25-9.94 35.39-7.02-19.43-30.76-11.2-53.69 14.6-30.96 34.83-46.97 48.58-67.35 15.95l-11.27-18.03-.74 21.76c-.9 26.68 10.39 40.25 37.63 45.27 35.12 6.45 90.16-19.67 105.86-49.78 1.92-3.68 11.05-27.3 14.77-46.78 3.9-20.44 13.5-41.14 24.18-26.94 1.3 5.4 2.41 11.04 3.04 17.31 3.84 38.32-23.88 90.93-40.55 111.94-14.47 18.23-38.16 25.88-39.98 27.22-55.52.62-132.7-25.2-173.52-74.26 10.72 1.29 11.92-.4 23.3-7.34 7.1-4.34 15.18-13.47 17.95-20.29 4.71-11.64 4.2-12.64-8.47-16.2-7.42-2.1-15.33-6.15-17.58-9.04-5.06-6.48-23.36-15.9-32.6-15.5-4.28.19-4.54 4.46-6.44 8.62-5.69-62.49 37.02-129.67 119.46-112.78 29.65 6.07 53.09 31.2 47.8 44.4-4.42 11.02-39.88 26.83-39.92 17.8-.11-26.28-22.05-40.46-33.02-21.33-7.34 12.79 1.89 42.68 14.76 47.86 30.82 12.38 70.86-6.65 74.9-35.6 1.4-10.06 4.57-14.1 11.04-14.02 12.5.14 17.16-21.51 9.75-35.38-6.19-11.61-28.48-19.69-66.34-24.07-12.7-1.47-14.5-3.2-11.17-10.67 2.18-4.9 10.12-10.99 17.62-13.53 1.77-.6 3.53-1.44 5.25-2.46Z"/></svg>
