<svg viewBox="0 0 1000 1000"><path d="M57.57 0c-10.4 0-22.08 1.59-31.56 4.9-11.25 3.93-13.93 7.81-14.92 21.58C8.24 66 44.88 72.05 79.65 71.92c22.92-.08 70.2-12.13 87.19-14.96C105.74 81.4 88.16 107 74.2 122.73c-8.36 9.43-20.43 26.86-22.4 26.97-6.4.36-8.97-16.47.12-25.55 13.5-13.47 10.1-22.51-6.3-16.83-9.24 3.21-19.79 5.36-24.93-.48-9.22-10.46-25.38-11.36-24.9-1.37.18 3.63 3.01 8.13 4.83 10.08 6.97 7.5-.28 13.55 6.86 30.55 6.03 14.36 22.66 12.45 27.55 31.68-36.38 72.85-38.37 98.2-39.45 156.9-.9 49.01 12.59 69.89 24.98 88.58 15.03 22.66 16.01 29.29 5.25 35.31-8.79 4.93-4.11 17 5.19 13.44 3.26-1.24 13.5 13.36 27.05 26.7 87.53 86.13 186.19 71.8 239.89 38.07C324.1 520.29 342 486 342 455.88c0-36.02-14.92-71.23-41.52-75.17-22.77-3.37-44.23 6.86-44.23 21.05 0 5.06 2.62 15.59 8.58 17 5.94 1.42 10.8.43 10.8-2.2 0-2.62 7.72-5.37 16.75-3.22 47.65 11.19 27.35 82.85-.56 83.48-6.5.13-14.7-1.16-14.7-7.5 0-5.15-6.35-12.48-14.07-16.26-12.65-6.15-14.84-5.9-21.63 2.58-11.4 14.23-13.98 31.04 1.8 35.3 20.4 5.53 16.94 17.8 6.11 20.6-67.1 17.37-138.62-7.93-165.35-54.36-7.89-13.7 1.59-16.76 13.55-3.54 9.99 11.04 21.9 7.5 40.69 10.85 26.86 4.82 12.9-28.62 1.6-45.5-12.06-17.93-46.64-31.25-61.35-44.95-16.85-15.67-30.76-40.56-35.03-79.6-.21-2.1-.23-4.15-.38-6.21C56.09 258 116 235.86 131.27 235.47c16.3-.43 23.1 21.27 13.72 43.65-14.92 35.52-15.24 41.8-3.21 61.8 12.5 20.8 19.4 23.22 26.47 9.22 6.24-12.35 18.74-6.54 21.03 9.75 2.21 15.57 26.18 36.38 39.7 34.48 10.3-1.44 4.9-15.27-12.47-31.95-10.55-10.1-11.28-23.62-6-109.4 1.28-20.31-.8-30.43-7.85-38.58-14.26-16.44-41.91-30.1-57.75-28.51-22.26 2.23-68.24 11.4-91.05 44.8 15.52-45.72 43.28-82.45 59.58-100 10.72-11.58 46.3-34.13 65.47-47.06 6-4.03 54.3-32.63 119.15-28.66 54.45 3.32 90.76 13.7 142.77 64.16 14.54 14.09 41.05 40.37 49.48 56.51 11.28 21.65 13.16 21.95-11.83 21.95-21.08 0-37.63 10.53-37.73 24.01-.05 4.87-1.95 11.62-4.27 14.99-2.47 3.6-2.2 11.27.58 18.73 3.96 10.5 2.57 16.62-8.13 36.23-7.07 12.97-11.47 25.75-9.7 28.39 5.4 8.08 16.24 5.36 24.39-6.18 4.26-6 11.47-10.93 16-10.93 11.65 0 33.28-19.8 33.28-30.5 0-4.94-4.26-12.93-9.47-17.73-5.21-4.83-9.46-12.59-9.46-17.24 0-9.3 22.26-27.8 30.38-25.25 2.85.9 5.47 14.15 5.9 29.7.43 15.47-4.3 65.05-4.55 77.12-.21 9.86-4.76 36.57-3.75 50.08 1 13.5 1.8 18.95 9.13 26.58-47.8 102.69-49.95 138.47-105.4 169.7-18.01 10.12-18.23 12.8-16.51 5.81 4.71-19.27-14.07-41.22-18.5-40.52-1.55.22-5.94 5.17-9.76 10.98a25.83 25.83 0 0 0-3.34 21.7c2.74 9.86 3.43 14.87 7 19.63-45.53 7.78-78.52 14.45-114.43 27.18-2.95-10.29-4.39-13.33-8.27-11.85-1.33.5-2.94 1.5-4.97 2.94-3.86 2.68-7.83 10.07-9.97 18.05-35.89 15.43-84.98 42.04-93.9 49.09 0-13.27-1.46-14.77-14.21-14.77-15.57 0-18.33-7.74-8.43-23.58 4.89-7.85 4.16-10.79-4.71-19.08-19.73-18.33-7.61-42.43 14.38-28.69 8.79 5.5 11.9 4 6.15-7.24-23.8-46.63-74.34 5.53-63.52 25.83 5.36 10.05 6.35 15.44 2.73 19.04-18.12 18.11-25-41.94-7.5-65.58 13.71-18.59 9-28.58-13.53-28.5-23.07.12-42.58 9.23-43.03 21.98-2.01 56.04 22.9 97.82 70.85 110.68 20.97 5.62 32.8 23.71 15.95 32.12-69.48 34.68-123 162.99-73.12 254.33-9.28 3.84-15.8 19.02-13.42 29.05 3.34 14.15 23.67 25.47 36.42 22.19 11.81-3.07 19.6-18.27 18.54-28.45 31.41 23.22 69.96 32.2 107.58 32.3 125.3.37 164.45-16.3 225.22-48.44 9.48-5.02 18.52-9.11 20.13-9.11 6.48 0 2.21 9.73-9.26 21.22-16.27 16.25-13.33 27.16 8.7 32.37 21.9 5.17 31.88 1.78 31.88-10.82 0-11.3 10.5-12.65 19-2.47 4.6 5.57 7.43 5.94 12.62 1.63 5.28-4.4 8.13-3.52 13.55 4.22 4.37 6.26 10.18 8.94 16.04 7.4 14.42-3.77 15.75-14.58 2.57-32.9-31.3-43.53-77.58-50.36-128.11-28.4-8.51 3.7-60.7 25.37-90.47 30.9-25.42 4.74-47.91 3.86-71.86 2.98 52.95-14.8 93.15-32.58 116.43-52.74 27.35-23.73 42.45-42.83 50.31-71.9 7.25-26.64 3.22-52.63-3.28-73.46 2.5-1.72 5.15 1.78 9.76 8.49 7.84 11.44 9.64 12.3 19 8.96 15.17-5.43 32.58-21.87 35.51-33.6 1.42-5.63-.51-15.9-4.26-22.8-5.47-10.02-5.1-14.43 1.71-21.94 6.43-7.07 6.86-9.69 1.72-10.59-4.03-.7-11.21 5.68-17.45 15.52-8.43 13.3-12.22 15.87-18.48 12.5-20.3-10.87-8.43-50.7 16.8-56.44 18.18-4.14 24.34-12.82 13.3-18.76-8.24-4.4-35.85 9.47-52.35 26.3-8.36 8.53-19.66 53.04-16.3 64.19l.11.43c-1.35-2.9-2.64-5.5-3.75-7.72-9.18-18.33-25.58-33.1-47.98-43.2-9.17-4.14-9.75-5.57-5.57-13.68 7.4-14.36-3.86-29.62-30.34-41.16a146.74 146.74 0 0 1-13.93-6.73c37.77-11.9 70.23-16.01 98.87-25.64-14.32 15.27-21.74 53.43-9.07 45.92 4.22-2.48 15.87-6.69 25.88-9.3 21.65-5.66 24.59-10.16 24.59-28.08 0-8.86-2.08-13.53-4.25-20.16 78.1-29.58 100.6-123.43 126.87-171 19.8 50.12 64.46 100.05 111.84 131.97-3.71 4.82-12 10.5-15.8 17.85-9.3 18.01-4.63 23.26 23.26 10 17.9-8.5 23.73-7.94 34.15-3.52 7.27 3.06 58.3 22.64 115.9 52.78-4.21 1-9.91 1.65-15.98 2.18-45.13 4.03-46.6 22.04-31.8 31.95 14.8 9.86 12.57 13.33-19.78 30.87-14.94 8.14-30.83 19.61-35.26 25.55l-1.44 1.86c.99-6.64 2.25-14.04 3.86-22.25 6.13-31.73 1.71-43.04-26.84-69.03-15.18-13.76-25.56-17.23-44.8-15-28.8 3.32-44.3 15.3-56.8 43.97-7.07 16.22-6.62 21.11 2.26 24.67 9.54 3.82 11.79 2.49 16.07-9.58 3.86-10.8 9.12-14.56 23.07-16.4 22.51-2.96 27.68 6.13 18.82 33.01-4.71 14.28-3.58 26.95 3.6 40.13 9.65 17.75 11.45 18.4 22.75 8.13 12.16-11.06 18.27-7.66 17.45 8.2-6.43 13.21-11.81 43.36-5.68 84.6C682.09 936 810.63 948.5 814.53 974.4c-68.77 6.86-105.5.43-168.15-24.67-16.94-6.8-40.63-23.9-58.79-24.98-46.32-2.74-77.26 44.02-58.9 65.47 4.28 5.02 30.54-14.96 30.54-19.08 0-7.95 19.3-5.01 31.84 4.87 15.97 12.56 22.38 11.96 33.35-3.1 6.58-9.01 4.08-11.5 9.18-12.6 10.25-2.2 18.05 10.73 27.31 15.66 71.58 37.9 223.6 27.87 267.26-10.2 19.51-17 24.08-17.5 24.08 3.36 0 25.04 25.87 40.22 41.67 24.44 6.8-6.82 7.38-31.73.95-41.68-3.07-4.73-4.61-5.12-4.66-1.18-.04 3.26-4.37 5.92-9.64 5.92-7.96 0-9.1-2.16-6.71-13.01.85-3.92 1.52-6.5 2.23-9.28l-1.6-1.23c-13.56-10.8 3.7-36.8 7.94-45.06 40.45-78.57 18.29-140.78-31.75-188.73-12.09-11.58-21.6-15.18-10.27-16.55 44.9-5.36 60.52-58.16 62.82-80.24 5.16-50.38-6.56-56.13-16.79-81.72-7.91-19.83-16.08-24.14-33.38-17.63-23.9 9.03-17.92 27.27 8.96 27.27 11.45 0 10.76 17.62 8.62 28.8-5.74 30.11-16.87 12.15-27.27 7.2-17.02-8.09-19.63 12.22-17.96 26.3 3.7 31.34 11.23 30.7 20.36 32.7 7.87 1.7 24.38-7.58 18.01 14.38-4.5 15.54-18.11 42.16-60.05 18.99l-44.54-24.65c5.48-22.62-3.93-61.72-17.45-66.61-8.15-2.94-11.92 16.76-4.72 24.57 10.5 11.4 8.32 23.09-3.54 28.06-48.83-26.58-94.04-49.63-147.83-70.04-5.7-2.2-7.4-6.36-5.06-12.37 5.5-14.2.92-40.02-7.72-43.36-6.34-2.45-8.62.04-12 13.14-1.57 6.06-2.9 16.87-8.5 21.9-36.1-30.54-77.98-57.17-108.42-132.84 6.34-15.67 6.6-25.02 2.91-33.53-14.79-34.09-9.37-77.9-5.44-105.86 4.05-28.73 3.75-31.04 14.83-41.29 9.6-8.9 13.57-10.25 18-6.13 8.5 7.85 9.12 41.31.95 49.74-9.86 10.18-13.78 37.38-6.54 45.44 9.72 10.85 22.3 7.9 27.74-6.54 2.73-7.22 5.9-13.14 7.04-13.14 1.15 0 6.53 8.75 11.96 19.45 9.07 17.85 11.66 19.7 31.66 22.46 14 1.93 23.69 1.27 27.12-1.9 3.94-3.65 1.41-4.94-9.73-4.94-20.26 0-29.95-14.53-34.47-51.77-6.07-50.08-15.57-73.4-34.63-78.3a72.89 72.89 0 0 0-40.04 1.64c-16.92 5.85-6.56-11.92-2.79-18.65 5.04-9 22.9-29.95 28.54-35.4 54.9-52.94 78.2-85.1 152.37-82.48 57.7 2.01 98.04 24.35 119.69 36.14 51.09 27.87 142.95 158.1 95.08 155.68a30.66 30.66 0 0 0-14.84 3 373.12 373.12 0 0 1-27.87-18.56c-15.15-10.96-38.52-23.03-51.92-26.82-23.28-6.6-25.73-6-55.8 13.65-33.5 21.87-35.87 25.8-32 53.23 4.15 29.67 21.86 23.67 28.46-9.64 3.73-18.78 24.18-36.23 34.69-29.63 7.16 4.5 6.8 6.43-4.31 22.94-10.2 15.2-12 22.61-11.43 46.97.58 24.44 3.43 31.64 18.52 46.58 9.82 9.73 18.87 16.94 20.15 16 5.28-3.87-2.5-27.04-9.56-28.43-10.03-2-11.64-19.23-3.43-36.81 8.36-17.92 14.65-20.26 34.54-12.86 17.47 6.53 27.7-1.72 25.6-20.67-1.78-15.86 8.08-16.18 21.13-5.38-6.77 8.7-6.32 26.86 5.04 58.16 13.34 36.7-.28 52.84-10.27 61.42-5.57 4.8-10.57 14.08-11.06 20.64-.9 11.8-.8 11.86 12.7 4.85a211.97 211.97 0 0 0 24.92-15.65c9.35-7.1 11.86-7.23 10.79-1.24-19.98 110.18-82.69 126.26-177.55 101.95-3.96-1-8-.8-12.15-6.36-6.18-8.3-5.69-16.79 1.8-32.59 5.76-12.11 8.14-26.9 5.53-34.13-5.19-14.36-22.23-24.54-31.32-18.71-10.64 6.81-22.2-2.1-15.6-14.99 2.48-4.82 33.73-24.7 47.8-21.16 20.36 5.13 25.31 4.29 24.33-4.07-.52-4.5-1.67-7.2-5.36-9.05-3.65-1.84-9.82-3.34-20.47-3.92-47.6-2.57-70.88 20.86-79.7 44.59-8.24 22.15-4.02 45.25-1.3 57.26 6.84 30.25 55.83 56.98 75.83 62.98 180.89 54.13 257.4-84.42 235-257.76-9.9-76.64-67.47-141.85-114.05-176.11-9.5-6.97-22.77-12.11-21.65-13.23 1.13-1.11 12.52.26 25.32 3.09 40.26 8.9 59.42 10.33 69.93 5.23A200.53 200.53 0 0 1 983 62.8c12.5-3.75 14.38-6.66 15.67-24.22C1000.57 13.12 987.4.49 958.74.26c-23.3-.2-30.82 7.24-29.09 28.66 1.74 21.52-9.26 22.96-29.26 3.86-15.71-15.05-54.99-16.53-81 1.26-78.9-11.06-122.53-29.32-214.54 39.04-15.6 15.05-25.38 25.21-21.18 15.82 7.55-16.83 32.8-45.66 44.74-51.02 32.11-14.58 33.83-32.7 2.9-31.08-10.23.53-21.08 2.38-24.08 4.11-3 1.72-12.75.67-21.7-2.31-25.42-8.54-29.69-2.28-30.16 44.24-.21 21.6-2.46 42.84-4.97 47.17-2.5 4.37-7.23 24.65-10.46 45.08-3.22 20.45-7.06 40.35-10.2 41.57-8.2 3.13-15.31-38.48-38-64.06-10.18-11.49 10.62-23.58 3.71-42.6-6.88-18.99-14.44-28.96.26-37.88 9.9-6 11.66-9.66 9.16-19.14-5.2-19.61-11.5-22.38-44.42-19.55-27.06 2.32-30.96 3.9-38.8 15.82-10.55 16.08-6.29 26.03 16.46 38.46 16.36 8.94 35.59 36.4 29.45 42.08-1.99 1.85-8.03-7.35-17.55-16.38-40.8-38.76-90.9-75.14-231.06-64.65-5.5.43-23.54-4.29-42.79-2.42-19.44 1.88-42.57 7.43-52.03 12.5-9.34 5.01-22.66 9.13-29.58 9.13-13.66 0-20.62-10.04-12.6-18.05 2.74-2.75 3.7-8.34 2.14-12.44C82.22 2.64 70.93 0 57.57 0zm168.84 644.84c1.4 3.13 3.75 5.9 7.38 9.22 14.34 13.3 15.54 26.93 2.33 26.58-5.44-.17-19.89 3.2-32.1 7.42-20.01 6.95-23.33 9.88-33.58 29.7-10.93 21.1-11.56 42.07-1.42 48.33 2.64 1.63 6.84.73 9.33-1.99 3.34-3.64 8.53 1.5 19.77 19.66 8.38 13.53 20.4 27.61 26.73 31.3 15.84 9.22 59.38 8.44 62.55-1.12 1.78-5.3.43-7.8-5.23-9.69-12.52-4.16-13.33-12.07-2.44-23.3 7.93-8.15 9.22-14.28 5.64-26.8-5.64-19.72-11.64-24.03-24.55-17.58-7.44 3.73-8.9 8.2-6.09 18.5 4.8 17.58-7.12 30.19-23.13 24.47-21.76-7.76-25.87-17.22-17.66-40.63 6.3-18 9.51-27.44 27.4-32.58 106.84-30.77 133.31 107.44 100.9 150.64-5.14.47-15.3-.56-26.15-2.79-28.34-5.87-37.52-4.03-53.34 10.61-10.08 9.33-9.93 15.05.8 31.94 4.43 7 2.14 11.58 13.71 15.89-.6.3-1.07.64-1.67.94-78.4 38.98-141.5 43.1-177.2 32.16l-.52-.3c-28.1-39.23-9.43-44.4 3.93-49.86 13.29-5.43 13.18-10.19 20.58.34 11.3 16.08 42.91 23.24 45.83 10.35 1.22-5.36 1.67-24.03 1-41.48-.96-25.4 1.08-34.04 10.32-43.35 13.4-13.5 11.94-19.16-4.37-16.82-11.88 1.71-37.48 7.33-59.09 37.43-34.02 47.37-44.89 42.87-58.8 76.06-5.72-2.19-15.63-5.8-24.93-17.58 4.84-15.52 10.37-37.35 18.24-54.93 10.57-23.64 20.84-33.72 41.76-52.3 20.63-18.38 27.53-51.05 12.3-59.2-12.15-6.5-14.9-11.74 2.34-24.07 36.28-25.91 78.55-48.15 119.43-65.17zm616 11.7c31.61 19.9 62.03 43.38 84.84 70.45 7.29 8.64 14.15 16.72 20.3 25.08-27.4 18.76-14.7 34.03-19.12 51.67-5.6 22.38-7.16 43.62-10.03 35.7-7.08-19.6-31.02-11.3-54.18 14.72-31.23 35.16-47.37 49-67.95 16.08l-11.36-18.18-.76 21.95c-.9 26.93 10.5 40.63 38 45.68 35.4 6.52 90.95-19.85 106.8-50.22 1.92-3.71 11.14-27.55 14.9-47.2 3.94-20.61 13.6-41.51 24.39-27.17a125.84 125.84 0 0 1 3.07 17.47c3.85 38.65-24.1 91.75-40.9 112.93-14.6 18.4-26.25 21.66-28.1 23.03-56 .62-146.15-20.99-187.33-70.49 10.82 1.29 12.02-.4 23.51-7.42 7.16-4.37 15.3-13.57 18.1-20.45 4.76-11.75 4.24-12.75-8.54-16.35-7.5-2.13-15.45-6.22-17.72-9.12-5.1-6.56-23.59-16.07-32.89-15.64-4.33.19-4.59 4.5-6.52 8.7-5.72-63.05 37.35-130.83 120.55-113.8 29.9 6.14 53.55 31.5 48.21 44.81-4.46 11.1-40.24 27.06-40.28 17.97-.1-26.54-22.23-40.84-33.32-21.55-7.4 12.9 1.93 43.1 14.9 48.3 31.09 12.5 71.5-6.7 75.57-35.9 1.42-10.17 4.61-14.24 11.15-14.16 12.6.13 17.3-21.71 9.84-35.71-6.26-11.7-28.73-19.85-66.95-24.29-12.8-1.48-14.64-3.21-11.28-10.76 2.21-4.93 10.23-11.08 17.8-13.64 1.78-.6 3.55-1.45 5.3-2.48z"/></svg>
