<svg viewBox="0 0 1000 1000"><path d="M834.3 0c-1 .02-1.98.05-2.92.1-16.4.65-39.77 5.33-43.86 7.98-5.94 3.86-15.53 4.74-45.26 5-31.75.28-65.18 3.56-81.06 7.96-54.07 14.95-80.23 19.44-76.3 13.1 2.63-4.27-15.23-19.92-22.74-19.92-1.93 0-10.7 6.57-19.5 14.6-11.98 10.95-19.12 13.91-28.55 11.87-25.21-5.47-26.16-6.37-23.11-21.63 2.03-10.14 1-14.66-3.33-14.66-10.4 0-18.06 10.96-18.06 25.87 0 7.74-2.17 18.13-4.83 23.09-4.05 7.57-3.26 8.61 4.91 6.48 5.35-1.4 15.18 1.02 21.85 5.39 17.07 11.19 55.26 10.1 80.92-2.3 11.65-5.62 28.99-11.5 38.53-13.04 19.17-3.11 19.4-1.99-2.64 26.72-20.43 26.6-38.08 58.16-55.7 77.73-21.35 23.74-47.2 65.05-77.76 109.71a209.38 209.38 0 0 1-16.44 3.43c-15.88 2.74-30.04 3.38-31.47 1.44-1.43-1.94.06-4.25 3.3-5.14 12.07-3.3 25.4-14.4 26.84-25.6 2.12-16.52-12.64-17.74-18.81-.72-5.65 15.57-8.08 7.69-11.87 3.31-6.63-7.66-12.82-8.59-20.34-3.06-9.75 7.17-10.28 6.66-13.38-12.87-4.62-29.18 9.42-46.7 33.84-42.19 16.26 3 18.97 12.27 5.46 18.72-13.3 6.34-10.96 14.45 4.25 14.77 17.45.37 33.88-15.7 30.85-25.42-12.92-41.41-85.3-34.58-93.55 11.98-6.86 38.76 13.12 78.17 61.37 85.74 8 1.25 16.78.47 25.21-3.12-17.42 24.64-36.28 49.64-56.69 72.78-.15-.26-.32-.53-.5-.8-2.61-3.98-3.12-9.06-1.13-11.3 6.34-7.1 12.52-36.17 8.96-42.14-2.38-4-4.89-2.26-8.2 5.69-2.64 6.3-8.63 12.3-13.3 13.31-6.48 1.42-8.58 9.33-8.87 33.32-.23 19.8-4.02 28.83-7.2 33.64-60.86 57.88-133.9 93-221 57.17-22.27-9.16-43.65-26.4-54.35-38.93 5.01-7.46 15.62-18.45 21.77-24.6 11.16-11.16 32.04-22.3 54.82-34.06 2.54 14.61 12 26.17 15.84 29.89 3.4 3.29 3.34 7.35-.2 11.63-5.86 7.09 1.65 24.67 9.66 22.64 2.43-.62 10.32 1.5 17.54 4.7 7.21 3.2 16.09 5.07 19.72 4.15 3.64-.92 10.7.48 15.68 3.12 10.86 5.75 58.27-1.47 65.88-10.03 4.75-5.34 4.51-6.3-2.18-8.6-4.14-1.43-13.53-1.11-20.86.72-7.8 1.94-17.47.56-23.3-3.31-5.49-3.64-9.22-6.95-8.3-7.35.9-.4 14.84-4.53 30.95-9.17 27.08-7.81 29.96-9.73 38.17-25.5 4.89-9.37 8.44-18.81 7.88-20.98-1.02-4.02-15.77-6.28-22.13-3.4-8.3 3.77-11.03 1.98-7.68-5.07 7.8-16.39-15.55-30.62-40.04-24.4-6.78 1.73-10.07 5.88-10.12 12.8-.09 12.63 9.81 19.93 13.06 9.61 1.82-5.8 3.7-6.41 10.24-3.3 19.39 9.22 18.9 36.85-.74 41.84-4.23 1.07-8.38 4.19-9.25 6.92-2.63 8.37-16.82 9.44-41.4 3.12-39.7-10.22-35.75-24.18-40.06-39.6 22.42-11.69 44.85-24.12 60.58-38.02 80.04-70.74 121.39-179.45 6.07-261.74-9.12-6.5-15.27-13.3-14.27-14.3.2-.2.55-.34 1.02-.4 7.1-.9 42.8 13.58 56.4 23.26 7.76 5.53 29.17 13.67 47.57 18.1 15.25 3.66 26.94 6.97 31.96 8.8 9.8 1.3 17.28 1.75 22.93 1.71 1.92-1.34 5.72-2.47 11.84-3.17 22.33-2.57 39.69-43.97 26.18-62.45-8.98-12.28-17.7-4.8-17.7 15.17 0 14.62-1.6 16.91-11.92 16.91-7.7 0-17.05-6.22-26.41-17.58-11.48-13.92-17.4-17.24-28.45-15.97-11 1.28-14.94 5.04-18.58 17.8-3.13 11-6.86 15.33-11.6 13.51-3.86-1.47-9.59-2.73-12.74-2.79-3.16-.05-11.16-4.27-17.78-9.35-10-7.7-13.4-13.91-5.85-16.73 19.36-7.22 22.11-11.1-54.28-5.9-68.41 4.64-110.82 8.63-138.31 22.53-23.53 11.9-23.48 11.9-40.5-1.5C37.61 10.88 11.88 3.15 3.85 11.17-1.49 16.51-.81 21.1 7.8 37.62c5.72 10.99 13.6 21.2 17.5 22.7 10.05 3.86 2.24 32.56-6.02 45.4-23.75 36.95-54.79 178.35 49.86 306.3-11.45 28.2-27.27 41.5-35.25 98.6-1.54 11-5.9 24.97-9.64 15.74-3.88-9.57-15.49-7.23-21.7 4.38-13.6 25.4-2.98 112.18 17.54 143.5 9.02 13.76 8.3 38.17-1.2 41.3-4 1.3-6.14-3.16-6.14-12.85 0-13.66-7.3-24.52-12.79-19.03-3.6 3.6-3.35 56.31.3 62.2 5.1 8.27 9 6.46 26.03-12.1 12.61-13.74 15.93-21.61 15.93-37.7v-20.35l11.37 10.69c14.45 13.57 16.36 13.4 20.16-1.74 3.75-14.93-13.57-46.8-41.96-77.26-20.02-21.47-22.8-33.11-12.38-51.9 5.41-9.74 7.18-10.34 12.28-4.2 3.27 3.95 7.6 16.79 9.6 28.54 2.46 14.42 6.4 21.89 12.1 22.99 5.94 1.14 7.57-.66 5.5-6.04-.88-2.33-.93-6.45-.37-11 3.6 6.85 8.37 14.36 14.17 22.04 10.44 13.84 20.3 27.48 21.91 30.3 5 8.76 83.68 28.52 96.92 24.35 6.88-2.17 80.03-33.47 91.18-51.39 22.85-36.7 24.35-61.15 3.64-89.3-8.15-11.07-18.89-22.03-23.87-24.36-7.48-3.5-6.59 2.28 5.22 33.45 15.91 42.02 16.1 51.1 2.17 71.2-11.18 16.16-19.57 17.31-19.73 2.7-.14-13.2-6.59-24.84-16.69-30.1-6.58-3.43-8.67-.68-12.96 17-6.99 28.8-35.12 53.8-62.37 55.43-22.78 1.35-56.42-15.29-70.01-34.64-12.22-17.4-6.5-21.6 13.35-9.85 8.22 4.87 23.45 9.12 33.85 9.43 31.52.96 62.27-22.1 40.76-30.58-6.13-2.42-5.63-5.91 2.2-15.68 12.97-16.2 8.74-32.85-11.32-44.62-18.55-10.87-33.44-12.77-47.14-5.5-4.57 2.42-9 5.85-13.4 10.32-16.67 16.95-15.83 29.18 1 14.46 21.54-18.84 38.92 3.34 19.52 24.9-17.15 19.05-40.64 18.33-59.36-1.83a41.39 41.39 0 0 0-5.49-4.96c-1.59-2.48-4.46-4.9-9.02-8.22l-13.08-9.53c3.88-6.07 8.29-11.96 9.35-18.9 6.14-40 18.68-69.89 34.57-90.8 112.99 82.32 204.42 62.68 307.77-24.6 8.46.26 16.78 1.55 20.08 3.25 6.61 3.4 59.28-7.04 62.74-12.45.77-1.19-6.42-8.51-15.97-16.27-11.45-9.3-19.9-12.65-24.84-9.8-5.74 3.3-9.42 3.11-10.73.82 43.19-52.29 81.2-114.82 123.09-169.28 34.66-45.04 67.44-103.9 116.52-141.98 13.2-10.25 39.57-26.92 76.4-26.92 30.8 0 20.98.73 37.18 18.42 13.48 14.71 16.82 22.34 16.6 37.92-.45 33.34 16.35 44.03 21.47 13.66 6.8-40.34 10.02-31.28 28-26.83 14.16 3.51 35.55 32.21 35.55 34.57 0 11.87-8.63 12.26-16.48 4.4-4.07-4.07-7.05-3.97-11.41.4-4.59 4.58-4.59 7.2 0 11.79 9.8 9.8 6.7 18.66-6.53 18.66-6.84 0-13.71 3.31-15.27 7.36-1.55 4.06-6.77 7.38-11.6 7.38-12.19 0-16.25 29.77-11.99 45.67 4.84 18.08 18.75 37.84 29 37.84 10.72 0 14.85-10.67 6.49-16.78-11.18-8.18-15.65-34.41-7.07-41.53 10.61-8.8 44.84-1.58 57.8 12.21 17.88 19.04 62.54 12.8 56-7.82-4.37-13.75 5.05-17.7 17.2-7.8 17.36 14.16 18.7 93.8.26 116.03-1.22 1.47-4.86-6.32-6.56-14.03-3.8-17.32-23.98-29.67-36.08-22.1-4.56 2.86-9 12.42-9.87 21.26-1.52 15.42-.96 16 13.5 13.88 17.1-2.51 17.27-2.34 9.24 10.51-5.26 8.42-6.46 8.6-11.54 1.65-8.4-11.49-12.64-.26-5.27 13.95 14.97 28.85 21.85 67 2.12 84.63-3.34 2.99-16.21 17.71-24.08 22.25-20.56 11.87-31.02 17.98-25.81 8.74 28.63-50.78 7.57-124.6-41.74-151.25-22.54-12.18-33.37-14.34-42.12-11.71-6.4 1.93-17.82 1.4-25.4-1.15-3.43-1.16-6.17-1.86-8.65-1.89-6.33-.06-10.98 4.31-21.3 16.76-31.98 38.62-34.36 59.32-10.1 87.66 11 12.84 15.78 15.81 21.96 13.58 9.4-3.4 4.97-13.08-11.94-26.03-6.71-5.14-10.77-14.5-10.9-25.11-.33-28.26 13.44-28.65 22.36-.63 7 21.99 17.84 18.79 17.28-5.1-.23-9.6 2.62-20.73 6.32-24.74 11.51-12.44 35.19-21.95 44.16-17.73 11.18 5.25 6.43 14.85-8.2 16.6-16.35 1.96-20.19 13.48-6.61 19.86 12.74 5.98 12.72 6.28-.96 17.9-10.72 9.1-18.67 35.03-10.45 34.08 2.65-.3 9.73-7.76 15.73-16.58 8.01-11.76 16.45-17.22 31.69-20.51 18.87-4.07 20.74-3.4 24.47 5.78 12.87 31.73 15.02 68.05-7.51 97.02-2.6 3.34-7.08 5.51-11 7.54-8.1 4.19-19.8 14.37-27.65 20.82-37.34 30.64-78.81 34.17-128.31 40.36-7.26-5.08-11.43-15.12-11.1-17.25.34-2.29 8.04-5.14 17.1-6.34 9.06-1.2 12.62-2.96 7.91-3.92-4.7-.95-9.8-7.51-11.33-14.57-1.73-7.96-6.59-13.42-12.79-14.35-17.39-2.63-31.79-19.48-29.52-34.55 2.37-15.66-5.18-25-12.9-15.97-2.85 3.34-7.9 14.86-11.23 25.62-8.2 26.52-.14 48.56 24.05 65.71 15.85 11.24 21.41 15.36 20.93 17.9-89.07 1.93-149.96 90.98-153.12 147.85-2.54 45.73 15.32 85.44 49.78 108.08 29.77 19.55 89.3 19.1 118.36 5.28 15.02-7.15 15.45-7.57 15.45 1.6 0 6.71-7.75 13.35-25.79 22.08-57.86 28-158.5 12.16-160.89-24.62-.67-10.28-6.2-79.31-26.89-64.18-5.78 4.23-1.23 8.13-.68 14.5.5 5.95-7.27 6-9.77 5.45-3.9-.86-6.76-4.12-7.96-17.22-1.18-12.89 4.8-28.67 12.9-39.56 11.11-14.9 3.65-20.09-14.72 1.6-8.04 9.5-9.14 25-8.82 35.19.64 20.4 3.98 26.12 18.84 34.65 7.77 4.46 9.41 7.38 13.98 14.25 1.84 2.75.46 3.77.69 9.55.27 6.82-12.42 5.04-13.42 5.12-9.88.78-25.78-8.82-34.74-17.5-75.4-73.1-146.51-76.85-222.55-74.42-83.33 2.66-136.78 36.23-172.27 81.01-30.45 40.3-33.53 47.95-30.27 74.89 3.74 30.83 11.14 68.37 18.1 91.85 4.36 14.72 3.78 20-3.45 31.02-8.42 12.86-8.37 13.6 1.45 23.42 8.2 8.2 13.61 9.5 28.28 6.74 15.73-2.95 17.73-4.83 15.07-14.14a484.66 484.66 0 0 1-6-24.25c-1.63-7.43-4.9-13.5-7.27-13.5-2.36 0-4.3-3.33-4.3-7.38 0-10.73 3.54-9.3 23.53 9.57 39.98 37.72 48.89 37.26 111.04 20.69 22.5-6 59.23-24.78 64.04-19.96 2.1 2.1-4.1 10.15-13.77 17.88-9.68 7.73-15.72 15.94-13.43 18.25 9.33 9.41 56.65 10.05 70.76.95 17.86-11.51 60.53-9.67 74.84 3.22 5.86 5.28 19.99 10.75 31.42 12.18h.03c48.2 5.99 62.3-6.55 17.4-15.51-13.62-2.72-30.47-11.13-37.43-18.68-12.36-13.42-33.25-31.86-73.73-32.82-52.93-1.27-36.25-7.1-96.38 7.73-17.97 4.43-36.69 9.7-41.6 11.72-43.66 37.76-129.37-54.94-118.18-79.04 19.57 8.27 27.59 5.33 32.1-11.77 2.8-10.56 2.54-21.34-.7-29.48-2.8-7.06-5.56-25.9-6.1-41.87-.97-28.24-.46-29.5 18.27-45.23 21.95-18.42 29.32-15.98 20.7 6.86-8.25 21.85-1.36 27.68 26.3 22.23 17.75-3.5 22.88-7.18 29.77-21.28 4.57-9.38 7.25-20.74 5.94-25.24-3.2-11.06 16.02-25.88 35.79-23.74 74.52 8.04 129.18.81 208.03 62.01 6.63 5.15 21.24 15.65 28 21.62 5.93 5.26-.4 13.06-5.21 13.03-7.07-.05-11.7 1.44-22.87-9.74-7.07-7.07-15.6-11.25-19.75-9.66-9.72 3.74-17.36 26.75-14.26 43 2.58 13.46 8.94 17.34 12.24 7.45 2.38-7.15 31.86-10.57 35.83-4.15 5.55 8.98 23.3 4.94 35.32-8.03 13.98-15.09 25.32-5.25 70.8 8.48 63.82 19.28 179.7 1.1 184.23-84.83 2.2-41.92-36.22-97.16-96.79-98.67a40.2 40.2 0 0 0-25.22 7.81c-8.6 6.29-19.34 10.59-23.88 9.55-12.58-2.86-16.72 4.63-13.9 25.1 2.62 18.93 35.13 36.2 56.28 41.01 11.84 2.7 12.44-10.14.5-18.14-12.44-8.32-10.96-28.36 2.8-38.01 15.95-11.18 26.5-8.64 32.2 7.75 2.49 7.16 8.64 14.58 13.9 15.15 39.8 4.32 40.81 66.98 7.7 73.67-214.34 43.32-173.56-241.2 15.26-228.19 5.72.4 9.6 1.58 14.67 1.55 7.34-.04 11.75 5.73 21.08 23.96l12.91 25.22-9.56 10.13c-12.36 13.1-6.4 19.9 14.94 17.03 23.71-3.2 29.55-11.93 21.74-32.52-10.6-27.97-9.24-32.28 5.77-18.28 18.58 17.33 19.38 29.55 3.63 55.72-9.48 15.76-16.9 22.45-26.52 23.93-17.65 2.71-16.02 9.6 3.48 14.77 19.73 5.22 40.5-7.08 34.92-20.68-4.38-10.68 1.68-16.03 9.75-8.6 4.27 3.93 5.36 11.23 3.6 24.06-2.77 20.38-5.16 23.24-31.37 37.54-9.95 5.43-18.64 12.73-19.3 16.23-1.44 7.58 17.4 6.17 20.86-1.57 1.3-2.9 6.72-5.86 12.05-6.58 22.21-2.99 32.88-18.79 38.03-44.63 12.63-63.42-20.32-120.37-101.85-127.38-5.2-.45-9.26.22-18.94-1.55 30.89-7.33 124.24-11.2 159.72 22.77 4.9 4.69 11.15 10.17 15.78 16.03 7.84 9.92-7.42 12.84-8.63 24.57-2.56 24.9.07 25 6.86 31.04 7.83 6.97 9.73 18.96 24.96 38.52 15.95 20.47 10.68 20.93 2.3 33.72-10.4 15.88-2.08 27.21 9.96 13.65 24.87-28.05 15.54-68.9 4.42-82.14-19.26-22.91-20.8-28.2-8.6-35.34 6.7-3.9 11.76-1.48 36.8 26.73 25.05 28.2 29.97 58.07 28.12 78.55-1.84 20.43-3.88 26.8-6.67 20.84-5.62-12.05-9.36-10.82-19.56 6.46-11.42 19.32-29.34 28.09-39.76 19.45-6.32-5.26-7.5-4.64-7.5 3.84 0 13.52 11.26 23.97 30.38 28.17 13.18 2.9 17.52 1.41 26.56-9.1 5.94-6.9 11.7-15.3 12.83-18.65 1.22-3.66 7.9-6.63 8.44-2.16 7.35 60.9-22.81 144.16-91.03 106.12-9.72-5.42-8.41-9.3 6.42-21.31 17.27-14 17.3-14.42 2.24-23.1-24.76-14.27-41.28-11.18-47.04 8.8-6.04 20.94.48 40.76 18.76 56.98 12.36 10.96 11.96 11.31-8.88 7.45-23.21-4.3-25.77-.5-16.82 24.92 5.66 16.1 14.56 16.84 46.59 3.93 51.62-20.8 71.42-24.98 77.05 4.7 3.4 17.93 1.56 18.86-17.52 8.9-7.8-4.07-14.61-5.08-16.26-2.42-1.55 2.52-6.85 4.58-11.76 4.58s-11.44 3.02-14.5 6.72c-7.31 8.8 3.23 17.97 22.33 19.43 16.68 1.29 21.65 15.54 6.77 19.44-5.57 1.45-21.7-1.62-35.85-6.83-59.54-16.13-97.6-15.81-137.29-1.77-14.38 5.1-20.16-38.57-74.22-11.98-20.73 10.2-41.8 22.9-64.96 29.48-33.49 9.5-64.1-8.74-61.31-29.53.85-6.4-1.56-13.16-5.38-15.02-10.37-5.07-34.96-2.6-35.79 3.6-.4 2.97-7.23 2.8-15.2-.36-8.38-3.34-14.82-3.17-15.3.39-.45 3.37-8.57 7.65-18.04 9.5-17.1 3.36-37.65-3.31-64.29-20.87-6.93-4.57-14.62-6.76-17.1-4.87-6.53 5 9.39 23.6 22.23 33.06 10.33 7.62 35.48 17.85 51.68 24.03 41.96 16 94.38 35.38 168.49 10.08 45.58-15.56 59.67-30.46 50.98-14.15-3.24 6.08-9.4 13.93-13.68 17.45-6.6 5.4 17.8 6.96 25.48 8.34 45.97 8.26 110.01-51.01 191.7-14.43 56.16 10.07 53.35 9.97 71.62 2.4 17.45-7.22 25.11-27.26 25.15-65.83.02-20.42-2.19-25.88-15.5-38.32-14-13.07-14.6-14.75-6.14-17.05 5.17-1.4 13.7-11.78 18.96-23.06 8.11-17.36 21.3-64.56 21.3-98.23 0-32.74 5.83-106.02-62.48-155.3-9.87-7.12-15.5-21.1-16.87-26.34-2.2-8.42-.67-9.13 13.16-6.13 41.42 8.96 50.93 8.9 54.49-.39 2.2-5.74.67-11.05-4.24-14.64-6.82-4.99-6.85-6.31-.32-11.74 8.35-6.92 5.57-14.83-5.2-14.83-3.97 0-9.58 6.08-12.47 13.51l-5.27 13.51-7.5-11.05c-6.05-8.93-12.1-11.05-31.45-11.05-20.82 0-21.41-2.46-21.41 6.21 0 14.56.5 32-19.03 14.82-11.1-9.76-50.26-28.7-62.27-29.78-5.95-.53-10.31-2.9-8.4-5.97 8.97-14.35 28.92-19.89 63.78-38.72 19.58-10.57 52.57-36.31 62.84-29.96 5.14 3.18 4.8 6.43-1.8 16.49-8.5 13-10.94 27.72-4.52 27.45 2.03-.1 7.74-3.23 12.7-7 5.68-4.3 15.23-5.82 25.79-4.1 15.27 2.48 16.77 1.64 16.77-9.35 0-13.23-8.64-30.93-24.2-37.02-13.67-5.36-22.53-.08-33.44-.65 3.67-7.27 7.07-12.64 13.55-20.3 67.07-79.24 78.98-233.55 19.72-309.24-8.53-10.9-16.87-20.2-16.87-22.09 0-1.88-5.8-11-12.87-20.29-10.56-13.84-11.77-18.2-6.77-24.24 3.36-4.04 11.22-7.36 17.47-7.36 8.73 0 11.7 3.12 12.9 13.51.92 7.98 4.54 13.51 8.86 13.51 8.44 0 12-13.04 7.95-29.17-2.38-9.5-6.96-11.62-30.14-14.01-3.55-.37-7.1-.6-10.58-.68-24.4-.63-45.77 5.22-45.77 13.4 0 3 6.98 12.64 15.51 21.44 12.98 13.39 14.5 17.22 9.27 23.51-3.43 4.14-8.05 6.4-10.26 5.03-6.88-4.25-9.88 6.14-5.28 18.25 2.42 6.37 10.71 14.84 18.43 18.84 19.68 10.2 41.11 29.77 41.11 37.55 0 9-14.39 8.17-17.9-.95-1.55-4.05-7.52-7.37-13.26-7.37-6.3 0-9.42-9.87-12.9-14.93-17.81-25.9-44.43-46.28-62.09-52.98-15.1-5.73-17.89-15.48-20.08-19.12-3.73-6.2 2.03-12.78 3.78-18.12 4.04-12.35 25.82-18.54 7.4-25.43-3.3-1.23-6.57-1.44-9.58-1.4zM208.46 35.63c2.49-.05 4.75-.06 6.8.04 4.1.22 7.4.88 10.07 2.57 121.26 76.57 88.9 173.56 29.12 229.26-55.2 51.44-120.8 61.52-171.97 120.13-29.5-29.95-43.07-77.53-50.34-112.18l.19-.23c2.15-19.85 16.56-30.22 30.6-30.97 27.16-1.46 52.7 34.38 53.54 51.65.85 17.62-9.92 26.35-21.66 17.55-4.79-3.6-10.22-6.39-12.07-6.22-6.53.6-1.4 20.71 5.8 22.74 4.01 1.13 14.77.64 23.92-1.1 14.8-2.8 16.72-5.1 17.52-20.94.7-14.23 3.2-18.11 12.45-19.44 27.04-3.87 24.33-25.15-5.17-40.57-10.1-5.28-21.72-7.94-25.81-5.92-5.52 2.72-28.44-13.22-27.7-22.88.78-10.2 5.02-14.36 19.5-19.15 11.55-3.82 17.34-8.39 15.39-12.16-1.93-3.73-.52-4.96 3.65-3.2 3.72 1.56 6.76 6.07 6.73 10-.07 17.25.96 19.87 8.07 20.41 4.66.36 7.9-4.14 8.48-11.81.68-8.94 2.99-11.44 8.23-8.95 6.18 2.93 5.62 5.44-3.75 16.67l-11.04 13.24 11.71 9.02c15.6 12.03 16.02 11.89 19.27-6.8 3.67-21.02 14.96-20.25 26.6 1.83 4.9 9.3 11.72 17.2 15.16 17.58 4.09.44 6.26-.76 6.56-3.42.66-5.84-7.66-18.78-24.18-36.99-20.9-23.03-28.86-28.29-49.28-32.48-13.4-2.76-30.17-6.38-37.27-8.06-7.1-1.67-18.03-.02-24.27 3.68-11.89 7.03-16.5 23.83-7.59 27.59 6.74 2.83-5 28.97-12.76 28.38-2.9-.23-29.63 7.1-36.65 18.58-6.3-43.6-4.96-84.42 14.71-123.99 6.18-12.42 15.68-20.57 18.39-19.66 2.7.92 4.7 10.86 4.43 22.1-.55 22.8.9 23.87 15.83 11.72 16.56-13.47 28.71-35.97 27.2-50.39C105.74 72.1 109.01 67.4 124.2 58c23.55-14.58 28.61-17.77 63.43-21.33 4.5-.46 8.74-.74 12.68-.82v-.01c2.96-.07 5.67-.16 8.15-.21zm690.98 102.9c3.7.61 9.65 9.56 17.58 26.68 13.66 29.48 9.94 36.51-8.92 16.83-8.68-9.07-13.04-18.98-13.04-29.71 0-9.7 1.5-14.27 4.38-13.8z"/></svg>
